<?xml version="1.0" encoding="utf-8"?>
<!-- Generator: Adobe Illustrator 18.0.0, SVG Export Plug-In . SVG Version: 6.00 Build 0)  -->
<!DOCTYPE svg PUBLIC "-//W3C//DTD SVG 1.1//EN" "http://www.w3.org/Graphics/SVG/1.1/DTD/svg11.dtd">
<svg version="1.1" xmlns="http://www.w3.org/2000/svg" xmlns:xlink="http://www.w3.org/1999/xlink" x="0px" y="0px"
	 viewBox="0 0 1400 980" enable-background="new 0 0 1400 980" xml:space="preserve">
<g id="Background">
</g>
<g id="Object">
	<path fill="#E6E7E8" d="M156,451c15.9,14.5,37.4,22.1,62.2,22.1s46.3-7.6,62.2-22.1c14.2-12.9,23.4-31,26-50.9
		c1.9-15,0-31.5-6.6-46.8c-0.1-0.3-0.2-0.5-0.3-0.8c-9.5-21.6-28.3-40.6-58.3-49V257c0-0.5-0.1-0.9-0.4-1.3H255
		c5.2,0,9.3-7.3,9.3-13.3c0-2.6-0.7-4.8-2.1-6.4c-1.1-1.3-3.3-2.9-7.2-2.9h-7.3l9.8-35.5c0.2-0.8,0.1-1.6-0.4-2.3
		c-0.5-0.6-1.3-1-2.1-1h-36.9h-36.9c-0.8,0-1.6,0.4-2.1,1c-0.5,0.6-0.7,1.5-0.4,2.3l9.8,35.5h-7.3c-3.8,0-6,1.6-7.2,2.9
		c-1.4,1.6-2.1,3.8-2.1,6.4c0,6,4.2,13.3,9.3,13.3h14.3c-0.2,0.4-0.4,0.8-0.4,1.3v46.5c-30,8.5-48.7,27.4-58.3,49
		c-0.2,0.2-0.3,0.5-0.3,0.8c-6.6,15.3-8.5,31.8-6.6,46.8C132.6,420,141.8,438.1,156,451z"/>
	<path fill="#E6E7E8" d="M488.5,360.8c0.4,1,1.3,1.6,2.4,1.6h17.6v52.7l-9.2,1.3c-1.3,0.2-2.2,1.3-2.2,2.6v25.2
		c0,0.9,0.5,1.8,1.3,2.3l26.7,14.6c0.1,0.1,0.2,0.1,0.4,0.1c0.1,0,0.1,0.1,0.2,0.1c0.2,0.1,0.4,0.1,0.7,0.1c0,0,0,0,0,0c0,0,0,0,0,0
		c0.2,0,0.4,0,0.7-0.1c0.1,0,0.1-0.1,0.2-0.1c0.1,0,0.2-0.1,0.4-0.1l26.7-14.6c0.8-0.5,1.3-1.3,1.3-2.3V419c0-1.3-0.9-2.4-2.2-2.6
		l-9.2-1.3v-52.7h17.6c1.1,0,2-0.6,2.4-1.6l18-44.6c0.3-0.8,0.2-1.7-0.3-2.4c-0.5-0.7-1.3-1.1-2.1-1.1h-14.2c-0.9,0-1.8,0.5-2.2,1.3
		l-9.6,16.2h-9.3l17.5-174.7c0.1-0.5,0-1-0.3-1.5l-33-62.3c0,0,0,0,0,0c-0.1-0.2-0.2-0.3-0.3-0.4c-0.1-0.1-0.1-0.2-0.2-0.2
		c0,0-0.1-0.1-0.1-0.1c-0.3-0.2-0.6-0.4-0.9-0.5c-0.1,0-0.1,0-0.2,0c-0.1,0-0.2,0-0.3-0.1c-0.1,0-0.2,0-0.2,0c-0.1,0-0.2,0-0.3,0
		c-0.1,0-0.2,0-0.2,0c-0.1,0-0.2,0-0.2,0.1c-0.1,0-0.3,0.1-0.4,0.2c0,0,0,0-0.1,0c0,0,0,0,0,0c-0.2,0.1-0.3,0.2-0.4,0.3
		c-0.1,0.1-0.1,0.1-0.2,0.2c0,0-0.1,0.1-0.1,0.1c-0.1,0.1-0.2,0.3-0.3,0.4c0,0,0,0,0,0l-33,62.3c-0.2,0.5-0.3,1-0.3,1.5l17.5,174.7
		h-9.3l-9.6-16.2c-0.5-0.8-1.3-1.3-2.2-1.3h-14.2c-0.9,0-1.7,0.4-2.1,1.1c-0.5,0.7-0.6,1.6-0.3,2.4L488.5,360.8z"/>
	<path fill="#E6E7E8" d="M1157.1,253.9c8,5.5,14.8,10.2,15.6,14.5c1.9,10,1.3,22.1,0.6,34.8c-0.3,6.4-0.7,13-0.7,19.4
		c0,7.7,2.5,17.2,5.1,27.3c3.9,15,8.4,32.1,5.6,47.1c-2,10.7-1.7,27.3,0.8,44.3c1.2,8.1,4.6,27.3,10,30.1c0.6,0.3,1.2,0.5,1.9,0.5
		c0.3,0,0.7-0.1,1-0.2c0.3,0.1,0.7,0.2,1,0.2c0.6,0,1.3-0.2,1.9-0.5c5.4-2.9,8.8-22,10-30.1c2.5-17,2.8-33.6,0.8-44.3
		c-2.8-15,1.6-32.1,5.6-47.1c2.6-10.1,5.1-19.6,5.1-27.3c0-6.4-0.3-13-0.7-19.4c-0.6-12.8-1.3-24.8,0.6-34.8
		c0.8-4.2,7.7-9,15.6-14.5c16.9-11.7,42.5-29.3,46.5-66.3c3.4-31.6-3.3-57.7-19.2-75.5c-15.2-16.9-37.8-25.4-67.3-25.4
		s-52.1,8.6-67.3,25.4c-15.9,17.7-22.6,43.8-19.2,75.5C1114.6,224.6,1140.2,242.2,1157.1,253.9z M1242.5,169.3
		c-1.5,2.9-3.3,6.4-5.4,11.2c-2.2,5.1-3.9,10.4-5.6,15.5c-3.6,10.8-7,21.1-12.9,24.4c-2,1.1-3.5,2-4.9,2.9
		c-5.3,3.2-6.9,4.2-16.7,4.2s-11.4-1-16.7-4.2c-1.4-0.8-2.9-1.8-4.9-2.9c-5.9-3.3-9.3-13.5-12.9-24.4c-1.7-5.1-3.5-10.4-5.6-15.5
		c-2-4.8-3.9-8.4-5.4-11.2c-3.7-7.2-5.6-10.8-4.9-22.6c0.9-16,17.5-39.6,50.3-39.6s49.4,23.7,50.3,39.6
		C1248.1,158.5,1246.2,162.1,1242.5,169.3z"/>
	<path fill="#E6E7E8" d="M1197.2,122.6c-9.7,0-17.2,2.7-22.2,7.9c-4.4,4.6-6.8,10.9-6.8,18.3c0,17.2,12.7,37.2,29,37.2
		s29-20,29-37.2c0-7.4-2.3-13.7-6.8-18.3C1214.3,125.3,1206.8,122.6,1197.2,122.6z"/>
	<path fill="#E6E7E8" d="M1036.7,213c-14.4-9.6-23.6-4.5-26.8-1.9c-5.4,4.3-8,11.7-6.1,16.9c1.2,3.1,3.8,4.8,7.2,4.7
		c4.6-0.2,8.1,1.4,9.8,4.6c2,3.7,1.5,8.6-1.5,13c-5.9,8.6-19.3,12.4-35.7,10c-20.1-2.9-34.3-16-49.3-29.9
		c-18.4-17-37.4-34.6-69.2-35.5v-4.5l17-17.7c0.7-0.8,0.9-1.9,0.5-2.8l-17.7-41c0-0.1-0.1-0.1-0.1-0.2c0-0.1-0.1-0.2-0.1-0.3
		c0-0.1-0.1-0.1-0.2-0.2c-0.1-0.1-0.1-0.1-0.2-0.2c-0.1-0.1-0.1-0.1-0.2-0.2c-0.1-0.1-0.1-0.1-0.2-0.1c-0.1-0.1-0.2-0.1-0.3-0.1
		c-0.1,0-0.1-0.1-0.2-0.1c0,0,0,0,0,0c-0.1,0-0.2-0.1-0.3-0.1c-0.1,0-0.1,0-0.2-0.1c-0.1,0-0.2,0-0.2,0c-0.1,0-0.2,0-0.3,0
		c-0.1,0-0.1,0-0.2,0c-0.1,0-0.2,0-0.3,0c-0.1,0-0.1,0-0.2,0.1c-0.1,0-0.2,0.1-0.3,0.1c0,0,0,0,0,0c-0.1,0-0.1,0.1-0.2,0.1
		c-0.1,0-0.2,0.1-0.3,0.1c-0.1,0-0.1,0.1-0.2,0.1c-0.1,0.1-0.1,0.1-0.2,0.2c-0.1,0.1-0.1,0.1-0.2,0.2c-0.1,0.1-0.1,0.1-0.1,0.2
		c-0.1,0.1-0.1,0.2-0.1,0.3c0,0.1-0.1,0.1-0.1,0.2l-17.7,41c-0.4,1-0.2,2.1,0.5,2.8l17,17.7v4.5c-31.7,0.9-50.8,18.5-69.2,35.5
		c-15,13.9-29.2,27-49.3,29.9c-16.5,2.3-29.8-1.4-35.7-10c-3-4.3-3.6-9.3-1.5-13c1.8-3.2,5.3-4.8,9.8-4.6c3.4,0.2,6.1-1.6,7.2-4.7
		c2-5.2-0.7-12.7-6.1-16.9c-3.3-2.6-12.5-7.6-26.8,1.9c-13.3,8.9-19.3,26.9-14.9,44.8c3.6,14.9,15.6,31.7,38.3,34.2
		c3,0.3,5.9,0.5,8.8,0.5c2.9,0,5.8-0.2,8.7-0.5h130.9v77.6l-31.4,31.4c-0.5,0.5-0.8,1.1-0.8,1.8V457c0,1,0.6,2,1.6,2.4
		c0.3,0.1,0.7,0.2,1,0.2c0.7,0,1.3-0.3,1.8-0.8l30.3-30.3l30.3,30.3c0.5,0.5,1.2,0.8,1.8,0.8c0.3,0,0.7-0.1,1-0.2
		c1-0.4,1.6-1.3,1.6-2.4v-54.3c0-0.7-0.3-1.3-0.8-1.8L865,369.5v-77.6h130.9c2.8,0.3,5.7,0.5,8.7,0.5c2.9,0,5.8-0.2,8.8-0.5
		c22.7-2.5,34.6-19.3,38.3-34.2C1056,239.8,1050,221.8,1036.7,213z M859.8,286.8H751c19-6.8,34.5-18.3,44.6-25.8
		c1.9-1.4,3.6-2.7,5.2-3.8c2.5-1.8,5.1-3.8,7.5-5.7c12.5-9.7,25.4-19.8,51.5-20.4V286.8z M865,286.8V231c26.1,0.6,39,10.7,51.5,20.4
		c2.4,1.9,5,3.9,7.5,5.7c1.6,1.1,3.3,2.4,5.2,3.8c10.1,7.5,25.6,19,44.6,25.8H865z"/>
	<path fill="#E6E7E8" d="M526.3,573.8c-76.8,0-139.3,62.5-139.3,139.3s62.5,139.3,139.3,139.3c76.8,0,139.3-62.5,139.3-139.3
		S603.1,573.8,526.3,573.8z"/>
	<path fill="#E6E7E8" d="M347.8,733.8c0-0.1,0-0.1,0-0.2c-0.1-0.2-0.1-0.3-0.2-0.5c0,0,0-0.1-0.1-0.1c-0.1-0.2-0.2-0.3-0.4-0.5
		c0,0,0,0,0,0l-38.1-34.7c-0.7-0.6-1.7-0.8-2.5-0.5l-33.7,10.8l16.9-68.9c0,0,0-0.1,0-0.1c0,0,0,0,0,0v0c0.1-0.6,0-1.2-0.2-1.7
		c0,0,0,0,0,0l0,0c-0.1-0.1-0.1-0.2-0.2-0.3c-0.1-0.1-0.2-0.2-0.3-0.3L220,565c0,0-0.1-0.1-0.1-0.1c-0.1,0-0.1-0.1-0.2-0.1
		c-0.1,0-0.1-0.1-0.2-0.1c0,0-0.1-0.1-0.1-0.1c-0.1,0-0.1-0.1-0.2-0.1c0,0-0.1,0-0.1-0.1c0,0,0,0,0,0c-0.1,0-0.1,0-0.2-0.1
		c-0.1,0-0.1,0-0.1,0c-0.1,0-0.1,0-0.2,0c-0.1,0-0.1,0-0.2,0c-0.1,0-0.1,0-0.2,0c-0.1,0-0.1,0-0.2,0c0,0-0.1,0-0.1,0
		c-0.1,0-0.2,0-0.2,0c0,0-0.1,0-0.1,0c-0.1,0-0.2,0-0.3,0.1c0,0,0,0,0,0c0,0-0.1,0-0.1,0c-0.1,0-0.2,0.1-0.2,0.1
		c0,0-0.1,0.1-0.1,0.1c-0.1,0-0.1,0.1-0.2,0.1c-0.1,0-0.1,0.1-0.2,0.1c0,0-0.1,0.1-0.1,0.1l-68.9,71.8c-0.1,0.1-0.2,0.2-0.3,0.3
		c-0.1,0.1-0.1,0.2-0.2,0.3c0,0,0,0,0,0c0,0,0,0,0,0c-0.3,0.5-0.4,1.1-0.2,1.7c0,0,0,0.1,0,0.1l16.9,68.9l-33.7-10.8
		c-0.9-0.3-1.8-0.1-2.5,0.5l-38.1,34.7c0,0,0,0,0,0c-0.2,0.1-0.3,0.3-0.4,0.5c0,0,0,0.1-0.1,0.1c-0.1,0.2-0.2,0.3-0.2,0.5
		c0,0.1,0,0.1,0,0.2c0,0.2-0.1,0.4-0.1,0.6c0,0,0,0,0,0c0,0.2,0,0.4,0.1,0.6c0,0,0,0.1,0,0.1c0,0,0,0.1,0,0.1
		c0.1,0.2,0.1,0.3,0.2,0.5c0,0,0,0.1,0.1,0.1c0,0,0,0,0,0l44.6,66.3c0.3,0.4,0.7,0.8,1.2,1l19.4,7.8c0,0,0.1,0,0.1,0
		c0.1,0,0.1,0,0.2,0c0.2,0.1,0.4,0.1,0.7,0.1c0,0,0,0,0,0c0.2,0,0.4,0,0.5-0.1c0.1,0,0.1,0,0.2,0c0.1,0,0.2,0,0.2-0.1
		c0,0,0.1,0,0.1-0.1c0,0,0.1,0,0.1,0l30.4-14.8l29.8,26c0,0,0,0,0,0c0,0,0,0,0,0c0.2,0.1,0.4,0.3,0.6,0.4c0,0,0,0,0.1,0
		c0,0,0,0,0.1,0c0.1,0,0.2,0.1,0.3,0.1c0.1,0,0.1,0,0.2,0c0.2,0,0.3,0.1,0.5,0.1s0.3,0,0.5-0.1c0.1,0,0.1,0,0.2,0
		c0.1,0,0.2-0.1,0.3-0.1c0,0,0,0,0.1,0c0,0,0,0,0.1,0c0.2-0.1,0.4-0.2,0.6-0.4c0,0,0,0,0,0c0,0,0,0,0,0l29.8-26l30.4,14.8
		c0,0,0.1,0,0.1,0c0,0,0.1,0,0.1,0.1c0.1,0,0.2,0,0.2,0.1c0.1,0,0.1,0,0.2,0c0.2,0,0.4,0.1,0.5,0.1c0,0,0,0,0,0c0.2,0,0.4,0,0.7-0.1
		c0.1,0,0.1,0,0.2,0c0,0,0.1,0,0.1,0l19.4-7.8c0.5-0.2,0.9-0.5,1.2-1l44.6-66.3c0,0,0,0,0,0c0,0,0-0.1,0.1-0.1
		c0.1-0.2,0.2-0.3,0.2-0.5c0,0,0-0.1,0-0.1c0,0,0-0.1,0-0.1c0.1-0.2,0.1-0.4,0.1-0.6c0,0,0,0,0,0C347.9,734.2,347.9,734,347.8,733.8
		z"/>
	<path fill="#E6E7E8" d="M938.5,582.8h-82.2h-82.2c-45.5,0-45.5,33.6-45.5,44.6v55.7v130.6c0,18.5,21.9,20.9,40.9,20.9h86.8h86.8
		c19.1,0,40.9-2.4,40.9-20.9V683.1v-55.7C984,616.3,984,582.8,938.5,582.8z"/>
	<path fill="#E6E7E8" d="M1305.2,687.5c-10.4-27-29.6-50-55.7-66.4c-0.4-0.3-0.9-0.4-1.4-0.4c1.7-4.3,2.6-8.8,2.6-13.2
		c0-16.9-14-36.7-53.6-36.7c-17.1,0-31.1,3.8-40.5,11c-8.4,6.5-13.1,15.6-13.1,25.7c0,4.4,0.9,8.9,2.6,13.2c-0.5,0-1,0.1-1.4,0.4
		c-26.1,16.4-45.4,39.4-55.7,66.4c-9.6,25-10.9,52.3-3.8,77.1c6.5,22.6,19.6,41.9,37.9,55.6c19.8,14.9,45.4,22.8,73.9,22.8
		s54.1-7.9,73.9-22.8c18.3-13.7,31.4-33,37.9-55.6C1316.1,739.8,1314.8,712.5,1305.2,687.5z M1132.9,744.4
		c0-32.4,22.5-66.8,64.2-66.8c41.7,0,64.2,34.4,64.2,66.8c0,16.3-5.5,31.1-15.5,41.9c-11.4,12.3-28.3,18.8-48.7,18.8
		s-37.3-6.5-48.7-18.8C1138.4,775.6,1132.9,760.7,1132.9,744.4z"/>
	<g>
		<path fill="#C4E9FB" d="M226.8,334.6h75c-9.6-19.4-27.5-36.1-55.3-43.4c-1.1-0.3-1.9-1.3-1.9-2.5v-48.5c0-0.5,0.1-0.9,0.4-1.3
			h-18.1h-18.1c0.2,0.4,0.4,0.8,0.4,1.3v48.5c0,1.2-0.8,2.2-1.9,2.5c-27.8,7.3-45.6,24-55.3,43.4H226.8z"/>
		<path fill="#4EC9F5" d="M263.7,233.7c1.3,0,4.1-3.9,4.1-8.2c0-0.9-0.2-2.2-0.9-3c-0.6-0.7-1.7-1.1-3.3-1.1H253c0,0,0,0,0,0
			c0,0,0,0,0,0h-26.2h-26.2c0,0,0,0,0,0c0,0,0,0,0,0H190c-1.5,0-2.6,0.4-3.3,1.1c-0.7,0.8-0.9,2.1-0.9,3c0,4.2,2.8,8.2,4.1,8.2h36.9
			H263.7z"/>
		<path fill="#C372AF" d="M226.8,339.8h-77.3c-5.8,14-7.5,29.1-5.7,42.9c4.1,31.6,28.3,68.5,83.1,68.5s79-36.9,83.1-68.5
			c1.8-13.7,0-28.8-5.7-42.9H226.8z"/>
		<polygon fill="#EAB06E" points="251.1,216.2 260.3,182.6 226.8,182.6 193.4,182.6 202.6,216.2 226.8,216.2 		"/>
		<path fill="#4B3E37" d="M138.6,383.3c2.6,19.9,11.8,38,26,50.9c15.9,14.5,37.4,22.1,62.2,22.1s46.3-7.6,62.2-22.1
			c14.2-12.9,23.4-31,26-50.9c1.9-15,0-31.5-6.6-46.8c-0.1-0.3-0.2-0.5-0.3-0.8c-9.5-21.6-28.3-40.6-58.3-49v-46.5
			c0-0.5-0.1-0.9-0.4-1.3h14.3c5.2,0,9.3-7.3,9.3-13.3c0-2.6-0.7-4.8-2.1-6.4c-1.1-1.3-3.3-2.9-7.2-2.9h-7.3l9.8-35.5
			c0.2-0.8,0.1-1.6-0.4-2.3c-0.5-0.6-1.3-1-2.1-1h-36.9H190c-0.8,0-1.6,0.4-2.1,1c-0.5,0.6-0.7,1.5-0.4,2.3l9.8,35.5H190
			c-3.8,0-6,1.6-7.2,2.9c-1.4,1.6-2.1,3.8-2.1,6.4c0,6,4.2,13.3,9.3,13.3h14.3c-0.2,0.4-0.4,0.8-0.4,1.3v46.5
			c-30,8.5-48.7,27.4-58.3,49c-0.2,0.2-0.3,0.5-0.3,0.8C138.7,351.7,136.7,368.3,138.6,383.3z M309.9,382.6
			c-4.1,31.6-28.3,68.5-83.1,68.5s-79-36.9-83.1-68.5c-1.8-13.7,0-28.8,5.7-42.9h77.3h77.3C309.9,353.8,311.7,368.9,309.9,382.6z
			 M193.4,182.6h33.5h33.5l-9.3,33.6h-24.2h-24.2L193.4,182.6z M185.8,225.5c0-0.9,0.2-2.2,0.9-3c0.6-0.7,1.7-1.1,3.3-1.1h10.7
			c0,0,0,0,0,0c0,0,0,0,0,0h26.2H253c0,0,0,0,0,0c0,0,0,0,0,0h10.7c1.5,0,2.6,0.4,3.3,1.1c0.7,0.8,0.9,2.1,0.9,3
			c0,4.2-2.8,8.2-4.1,8.2h-36.9H190C188.7,233.7,185.8,229.8,185.8,225.5z M207.1,291.2c1.1-0.3,1.9-1.3,1.9-2.5v-48.5
			c0-0.5-0.1-0.9-0.4-1.3h18.1H245c-0.2,0.4-0.4,0.8-0.4,1.3v48.5c0,1.2,0.8,2.2,1.9,2.5c27.8,7.3,45.6,24,55.3,43.4h-75h-75
			C161.5,315.2,179.3,298.5,207.1,291.2z"/>
	</g>
	<g>
		<path fill="#F99D1C" d="M522.3,345.6v52l12.3-1.8c0,0,0.1,0,0.1,0c0.1,0,0.2,0,0.3,0c0.1,0,0.2,0,0.3,0c0,0,0.1,0,0.1,0l12.3,1.8
			v-52h-12.7H522.3z"/>
		<path fill="#FFC907" d="M534.9,340.4h33.7l15.9-39.5h-8.9l-9.6,16.2c-0.5,0.8-1.3,1.3-2.2,1.3h-28.9h-28.9c-0.9,0-1.8-0.5-2.2-1.3
			l-9.6-16.2h-8.9l15.9,39.5H534.9z"/>
		<path fill="#B2BAC0" d="M532.3,113c0-1.4,1.2-2.6,2.6-2.6c1.4,0,2.6,1.2,2.6,2.6v200.2h10.3l17.4-174.5l-30.3-57.3l-30.3,57.3
			L522,313.2h10.3V113z"/>
		<polygon fill="#FFC907" points="510.8,404.4 510.8,425.9 534.9,439 559,425.9 559,404.4 534.9,400.9 		"/>
		<path fill="#4B3E37" d="M497.1,344c0.4,1,1.3,1.6,2.4,1.6h17.6v52.7l-9.2,1.3c-1.3,0.2-2.2,1.3-2.2,2.6v25.2
			c0,0.9,0.5,1.8,1.3,2.3l26.7,14.6c0.1,0.1,0.2,0.1,0.4,0.1c0.1,0,0.1,0.1,0.2,0.1c0.2,0.1,0.4,0.1,0.7,0.1c0,0,0,0,0,0
			c0,0,0,0,0,0c0.2,0,0.4,0,0.7-0.1c0.1,0,0.1-0.1,0.2-0.1c0.1,0,0.2-0.1,0.4-0.1l26.7-14.6c0.8-0.5,1.3-1.3,1.3-2.3v-25.2
			c0-1.3-0.9-2.4-2.2-2.6l-9.2-1.3v-52.7h17.6c1.1,0,2-0.6,2.4-1.6l18-44.6c0.3-0.8,0.2-1.7-0.3-2.4c-0.5-0.7-1.3-1.1-2.1-1.1h-14.2
			c-0.9,0-1.8,0.5-2.2,1.3l-9.6,16.2H553l17.5-174.7c0.1-0.5,0-1-0.3-1.5l-33-62.3c0,0,0,0,0,0c-0.1-0.2-0.2-0.3-0.3-0.4
			c-0.1-0.1-0.1-0.2-0.2-0.2c0,0-0.1-0.1-0.1-0.1c-0.3-0.2-0.6-0.4-0.9-0.5c-0.1,0-0.1,0-0.2,0c-0.1,0-0.2,0-0.3-0.1
			c-0.1,0-0.2,0-0.2,0c-0.1,0-0.2,0-0.3,0c-0.1,0-0.2,0-0.2,0c-0.1,0-0.2,0-0.2,0.1c-0.1,0-0.3,0.1-0.4,0.2c0,0,0,0-0.1,0
			c0,0,0,0,0,0c-0.2,0.1-0.3,0.2-0.4,0.3c-0.1,0.1-0.1,0.1-0.2,0.2c0,0-0.1,0.1-0.1,0.1c-0.1,0.1-0.2,0.3-0.3,0.4c0,0,0,0,0,0
			l-33,62.3c-0.2,0.5-0.3,1-0.3,1.5l17.5,174.7h-9.3l-9.6-16.2c-0.5-0.8-1.3-1.3-2.2-1.3h-14.2c-0.9,0-1.7,0.4-2.1,1.1
			c-0.5,0.7-0.6,1.6-0.3,2.4L497.1,344z M559,425.9L534.9,439l-24.1-13.1v-21.5l24.1-3.5l24.1,3.5V425.9z M547.6,397.5l-12.3-1.8
			c0,0-0.1,0-0.1,0c-0.1,0-0.2,0-0.3,0c-0.1,0-0.2,0-0.3,0c0,0-0.1,0-0.1,0l-12.3,1.8v-52h12.7h12.7V397.5z M504.6,138.7l30.3-57.3
			l30.3,57.3l-17.4,174.5h-10.3V113c0-1.4-1.2-2.6-2.6-2.6c-1.4,0-2.6,1.2-2.6,2.6v200.2H522L504.6,138.7z M494.2,300.9l9.6,16.2
			c0.5,0.8,1.3,1.3,2.2,1.3h28.9h28.9c0.9,0,1.8-0.5,2.2-1.3l9.6-16.2h8.9l-15.9,39.5h-33.7h-33.7l-15.9-39.5H494.2z"/>
	</g>
	<g>
		<path fill="#E9A369" d="M1168.7,232.8c9.3,6.4,16.6,11.4,17.8,17.8c2,10.6,1.4,23,0.7,36c-0.3,6.3-0.7,12.9-0.7,19.1
			c0,7.1,2.4,16.3,5,26c4.1,15.6,8.7,33.2,5.7,49.4c-4.4,23.1,3.4,62.9,7.7,68.4c0.1,0,0.1,0,0.2,0c0.1,0,0.2-0.1,0.3-0.1
			c0.1,0,0.2,0,0.4,0c0.1,0,0.2,0,0.3,0c0.1,0,0.2,0,0.4,0.1c0.1,0,0.1,0,0.2,0c4.3-5.5,12.1-45.3,7.7-68.4
			c-3-16.1,1.6-33.8,5.7-49.4c2.6-9.7,5-18.9,5-26c0-6.3-0.3-12.8-0.7-19.1c-0.7-13.1-1.3-25.4,0.7-36c1.2-6.3,8.5-11.4,17.8-17.8
			c17.1-11.8,40.6-27.9,44.3-62.6c3.2-30.1-3-54.8-17.9-71.4c-14.1-15.7-35.5-23.7-63.4-23.7s-49.3,8-63.4,23.7
			c-14.9,16.6-21.1,41.3-17.9,71.4C1128.2,204.9,1151.6,221,1168.7,232.8z M1150.4,129.6c1-18.5,18.9-44.5,55.5-44.5
			s54.4,26,55.5,44.5c0.7,13.2-1.6,17.7-5.5,25.2c-1.5,2.9-3.2,6.3-5.2,10.9c-2.1,4.9-3.8,10.1-5.5,15.1c-4.1,12.3-7.6,23-15.2,27.2
			c-1.9,1-3.4,2-4.7,2.8c-5.6,3.4-8.1,4.9-19.4,4.9s-13.8-1.5-19.4-4.9c-1.3-0.8-2.8-1.7-4.7-2.8c-7.6-4.3-11.2-14.9-15.2-27.2
			c-1.7-5-3.4-10.2-5.5-15.1c-1.9-4.6-3.7-7.9-5.2-10.9C1152,147.3,1149.6,142.8,1150.4,129.6z"/>
		<path fill="#EF3B31" d="M1205.8,164c12.8,0,23.8-17.6,23.8-32c0-4.2-0.9-10.2-5.3-14.7c-4.1-4.2-10.3-6.3-18.5-6.3
			s-14.4,2.1-18.5,6.3c-4.4,4.5-5.3,10.5-5.3,14.7C1182,146.4,1193,164,1205.8,164z"/>
		<path fill="#4B3E37" d="M1165.8,237c8,5.5,14.8,10.2,15.6,14.5c1.9,10,1.3,22.1,0.6,34.8c-0.3,6.4-0.7,13-0.7,19.4
			c0,7.7,2.5,17.2,5.1,27.3c3.9,15,8.4,32.1,5.6,47.1c-2,10.7-1.7,27.3,0.8,44.3c1.2,8.1,4.6,27.3,10,30.1c0.6,0.3,1.2,0.5,1.9,0.5
			c0.3,0,0.7-0.1,1-0.2c0.3,0.1,0.7,0.2,1,0.2c0.6,0,1.3-0.2,1.9-0.5c5.4-2.9,8.8-22,10-30.1c2.5-17,2.8-33.6,0.8-44.3
			c-2.8-15,1.6-32.1,5.6-47.1c2.6-10.1,5.1-19.6,5.1-27.3c0-6.4-0.3-13-0.7-19.4c-0.6-12.8-1.3-24.8,0.6-34.8
			c0.8-4.2,7.7-9,15.6-14.5c16.9-11.7,42.5-29.3,46.5-66.3c3.4-31.6-3.3-57.7-19.2-75.5c-15.2-16.9-37.8-25.4-67.3-25.4
			c-29.5,0-52.1,8.6-67.3,25.4c-15.9,17.7-22.6,43.8-19.2,75.5C1123.3,207.8,1148.9,225.4,1165.8,237z M1142.4,98.8
			c14.1-15.7,35.5-23.7,63.4-23.7s49.3,8,63.4,23.7c14.9,16.6,21.1,41.3,17.9,71.4c-3.7,34.7-27.2,50.8-44.3,62.6
			c-9.3,6.4-16.6,11.4-17.8,17.8c-2,10.6-1.4,23-0.7,36c0.3,6.3,0.7,12.9,0.7,19.1c0,7.1-2.4,16.3-5,26c-4.1,15.6-8.7,33.2-5.7,49.4
			c4.4,23.1-3.4,62.9-7.7,68.4c-0.1,0-0.1,0-0.2,0c-0.1,0-0.2-0.1-0.4-0.1c-0.1,0-0.2,0-0.3,0c-0.1,0-0.2,0-0.4,0
			c-0.1,0-0.2,0-0.3,0.1c-0.1,0-0.1,0-0.2,0c-4.3-5.5-12.1-45.3-7.7-68.4c3-16.1-1.6-33.8-5.7-49.4c-2.6-9.7-5-18.9-5-26
			c0-6.3,0.3-12.8,0.7-19.1c0.7-13.1,1.3-25.4-0.7-36c-1.2-6.3-8.5-11.4-17.8-17.8c-17.1-11.8-40.6-27.9-44.3-62.6
			C1121.2,140.1,1127.4,115.4,1142.4,98.8z"/>
		<path fill="#4B3E37" d="M1161,165.7c2.1,4.9,3.8,10.1,5.5,15.1c4.1,12.3,7.6,23,15.2,27.2c1.9,1,3.4,2,4.7,2.8
			c5.6,3.4,8.1,4.9,19.4,4.9s13.8-1.5,19.4-4.9c1.3-0.8,2.8-1.7,4.7-2.8c7.6-4.3,11.2-14.9,15.2-27.2c1.7-5,3.4-10.2,5.5-15.1
			c1.9-4.6,3.7-7.9,5.2-10.9c3.9-7.5,6.2-12,5.5-25.2c-1-18.5-18.9-44.5-55.5-44.5s-54.4,26-55.5,44.5c-0.7,13.2,1.6,17.7,5.5,25.2
			C1157.4,157.8,1159.1,161.1,1161,165.7z M1155.5,129.9c0.9-16,17.5-39.6,50.3-39.6s49.4,23.7,50.3,39.6
			c0.7,11.8-1.2,15.4-4.9,22.6c-1.5,2.9-3.3,6.4-5.4,11.2c-2.2,5.1-3.9,10.4-5.6,15.5c-3.6,10.8-7,21.1-12.9,24.4
			c-2,1.1-3.5,2-4.9,2.9c-5.3,3.2-6.9,4.2-16.7,4.2s-11.4-1-16.7-4.2c-1.4-0.8-2.9-1.8-4.9-2.9c-5.9-3.3-9.3-13.5-12.9-24.4
			c-1.7-5.1-3.5-10.4-5.6-15.5c-2-4.8-3.9-8.4-5.4-11.2C1156.7,145.3,1154.9,141.7,1155.5,129.9z"/>
		<path fill="#4B3E37" d="M1205.8,169.2c16.3,0,29-20,29-37.2c0-7.4-2.3-13.7-6.8-18.3c-5.1-5.2-12.6-7.9-22.2-7.9
			s-17.2,2.7-22.2,7.9c-4.4,4.6-6.8,10.9-6.8,18.3C1176.8,149.2,1189.5,169.2,1205.8,169.2z M1187.3,117.3
			c4.1-4.2,10.3-6.3,18.5-6.3s14.4,2.1,18.5,6.3c4.4,4.5,5.3,10.5,5.3,14.7c0,14.4-11,32-23.8,32s-23.8-17.6-23.8-32
			C1182,127.8,1182.9,121.8,1187.3,117.3z"/>
	</g>
	<g>
		<path fill="#F16152" d="M873.7,373.3l11.5,11.3c1,1,1,2.6,0,3.7c-0.5,0.5-1.2,0.8-1.8,0.8c-0.7,0-1.3-0.2-1.8-0.7l-7.8-7.7v12.9
			l15.2,13.3c1.1,0.9,1.2,2.6,0.2,3.7c-0.5,0.6-1.2,0.9-2,0.9c-0.6,0-1.2-0.2-1.7-0.6l-11.8-10.3v6.5l26.9,26.9v-47L873.7,360V373.3
			z"/>
		<path fill="#FFC907" d="M737.6,269.9c27.1-3,49.3-19.4,63.6-30c1.9-1.4,3.7-2.7,5.3-3.9c2.5-1.8,4.8-3.6,7.3-5.6
			c12.6-9.8,26.8-20.8,54.7-21.5v-25.9c-29.7,0.9-48,17.8-65.7,34.1c-15.6,14.4-30.4,28.1-52.1,31.2c-26.6,3.8-37.3-7.3-40.7-12.2
			c-4.1-6-4.8-13-1.8-18.4c2.7-4.9,8-7.5,14.6-7.2c1.1,0.1,1.8-0.3,2.1-1.3c1-2.7-0.5-7.9-4.5-11c-5.1-4.1-12.5-3.3-20.7,2.2
			c-11.5,7.7-16.6,23.4-12.8,39.2c3.2,13.1,13.7,28,33.7,30.2H737.6z"/>
		<polygon fill="#B2BAC0" points="885.7,153.4 871.1,119.5 856.4,153.4 871.1,168.7 		"/>
		<path fill="#F16152" d="M868.5,400.4l-11.8,10.3c-0.5,0.4-1.1,0.6-1.7,0.6c-0.7,0-1.4-0.3-2-0.9c-0.9-1.1-0.8-2.7,0.2-3.7
			l15.2-13.3v-12.9l-7.8,7.7c-0.5,0.5-1.2,0.7-1.8,0.7c-0.7,0-1.3-0.3-1.8-0.8c-1-1-1-2.7,0-3.7l11.5-11.3V360l-26.9,26.9v47
			l26.9-26.9V400.4z"/>
		<path fill="#FFC907" d="M1042.4,200.4c-8.2-5.5-15.6-6.3-20.7-2.2c-3.9,3.1-5.5,8.3-4.5,11c0.4,1,1,1.4,2.1,1.3
			c6.5-0.3,11.9,2.3,14.6,7.2c3,5.4,2.3,12.4-1.8,18.4c-3.4,4.9-14.2,16-40.7,12.2c-21.7-3.1-36.5-16.8-52.1-31.2
			c-17.7-16.3-35.9-33.2-65.7-34.1V209c27.9,0.6,42.1,11.7,54.7,21.5c2.5,2,4.9,3.8,7.3,5.6c1.6,1.1,3.3,2.4,5.3,3.9
			c14.2,10.6,36.4,27,63.6,30h17c19.9-2.3,30.5-17.1,33.7-30.2C1059.1,223.9,1053.9,208.1,1042.4,200.4z"/>
		<path fill="#4B3E37" d="M1045.3,196.1c-14.4-9.6-23.6-4.5-26.8-1.9c-5.4,4.3-8,11.7-6.1,16.9c1.2,3.1,3.8,4.8,7.2,4.7
			c4.6-0.2,8.1,1.4,9.8,4.6c2,3.7,1.5,8.6-1.5,13c-5.9,8.6-19.3,12.4-35.7,10c-20.1-2.9-34.3-16-49.3-29.9
			c-18.4-17-37.4-34.6-69.2-35.5v-4.5l17-17.7c0.7-0.8,0.9-1.9,0.5-2.8l-17.7-41c0-0.1-0.1-0.1-0.1-0.2c0-0.1-0.1-0.2-0.1-0.3
			c0-0.1-0.1-0.1-0.2-0.2c-0.1-0.1-0.1-0.1-0.2-0.2c-0.1-0.1-0.1-0.1-0.2-0.2c-0.1-0.1-0.1-0.1-0.2-0.1c-0.1-0.1-0.2-0.1-0.3-0.1
			c-0.1,0-0.1-0.1-0.2-0.1c0,0,0,0,0,0c-0.1,0-0.2-0.1-0.3-0.1c-0.1,0-0.1,0-0.2-0.1c-0.1,0-0.2,0-0.2,0c-0.1,0-0.2,0-0.3,0
			c-0.1,0-0.1,0-0.2,0c-0.1,0-0.2,0-0.3,0c-0.1,0-0.1,0-0.2,0.1c-0.1,0-0.2,0.1-0.3,0.1c0,0,0,0,0,0c-0.1,0-0.1,0.1-0.2,0.1
			c-0.1,0-0.2,0.1-0.3,0.1c-0.1,0-0.1,0.1-0.2,0.1c-0.1,0.1-0.1,0.1-0.2,0.2c-0.1,0.1-0.1,0.1-0.2,0.2c-0.1,0.1-0.1,0.1-0.1,0.2
			c-0.1,0.1-0.1,0.2-0.1,0.3c0,0.1-0.1,0.1-0.1,0.2l-17.7,41c-0.4,1-0.2,2.1,0.5,2.8l17,17.7v4.5c-31.7,0.9-50.8,18.5-69.2,35.5
			c-15,13.9-29.2,27-49.3,29.9c-16.5,2.3-29.8-1.4-35.7-10c-3-4.3-3.6-9.3-1.5-13c1.8-3.2,5.3-4.8,9.8-4.6c3.4,0.2,6.1-1.6,7.2-4.7
			c2-5.2-0.7-12.7-6.1-16.9c-3.3-2.6-12.5-7.6-26.8,1.9c-13.3,8.9-19.3,26.9-14.9,44.8c3.6,14.9,15.6,31.7,38.3,34.2
			c3,0.3,5.9,0.5,8.8,0.5c2.9,0,5.8-0.2,8.7-0.5h130.9v77.6L837.1,384c-0.5,0.5-0.8,1.1-0.8,1.8v54.3c0,1,0.6,2,1.6,2.4
			c0.3,0.1,0.7,0.2,1,0.2c0.7,0,1.3-0.3,1.8-0.8l30.3-30.3l30.3,30.3c0.5,0.5,1.2,0.8,1.8,0.8c0.3,0,0.7-0.1,1-0.2
			c1-0.4,1.6-1.3,1.6-2.4v-54.3c0-0.7-0.3-1.3-0.8-1.8l-31.4-31.4v-77.6h130.9c2.8,0.3,5.7,0.5,8.7,0.5c2.9,0,5.8-0.2,8.8-0.5
			c22.7-2.5,34.6-19.3,38.3-34.2C1064.6,223,1058.6,205,1045.3,196.1z M856.4,153.4l14.7-33.9l14.7,33.9l-14.7,15.2L856.4,153.4z
			 M686.9,239.7c-3.8-15.8,1.3-31.6,12.8-39.2c8.2-5.5,15.6-6.3,20.7-2.2c3.9,3.1,5.5,8.3,4.5,11c-0.4,1-1,1.4-2.1,1.3
			c-6.5-0.3-11.9,2.3-14.6,7.2c-3,5.4-2.3,12.4,1.8,18.4c3.4,4.9,14.2,16,40.7,12.2c21.7-3.1,36.5-16.8,52.1-31.2
			c17.7-16.3,35.9-33.2,65.7-34.1V209c-27.9,0.6-42.1,11.7-54.7,21.5c-2.5,2-4.9,3.8-7.3,5.6c-1.6,1.1-3.3,2.4-5.3,3.9
			c-14.2,10.6-36.4,27-63.6,30h-17C700.7,267.6,690.1,252.8,686.9,239.7z M804.3,244.1c1.9-1.4,3.6-2.7,5.2-3.8
			c2.5-1.8,5.1-3.8,7.5-5.7c12.5-9.7,25.4-19.8,51.5-20.4v55.7H759.7C778.6,263.1,794.1,251.6,804.3,244.1z M841.5,386.9l26.9-26.9
			v13.3L857,384.6c-1,1-1,2.6,0,3.7c0.5,0.5,1.2,0.8,1.8,0.8c0.7,0,1.3-0.2,1.8-0.7l7.8-7.7v12.9l-15.2,13.3
			c-1.1,0.9-1.2,2.6-0.2,3.7c0.5,0.6,1.2,0.9,2,0.9c0.6,0,1.2-0.2,1.7-0.6l11.8-10.3v6.5l-26.9,26.9V386.9z M900.6,386.9v47
			l-26.9-26.9v-6.5l11.8,10.3c0.5,0.4,1.1,0.6,1.7,0.6c0.7,0,1.4-0.3,2-0.9c0.9-1.1,0.8-2.7-0.2-3.7l-15.2-13.3v-12.9l7.8,7.7
			c0.5,0.5,1.2,0.7,1.8,0.7c0.7,0,1.3-0.3,1.8-0.8c1-1,1-2.7,0-3.7l-11.5-11.3V360L900.6,386.9z M873.7,269.9v-55.7
			c26.1,0.6,39,10.7,51.5,20.4c2.4,1.9,5,3.9,7.5,5.7c1.6,1.1,3.3,2.4,5.2,3.8c10.1,7.5,25.6,19,44.6,25.8H873.7z M1055.2,239.7
			c-3.2,13.1-13.7,28-33.7,30.2h-17c-27.1-3-49.4-19.4-63.6-30c-1.9-1.4-3.7-2.7-5.3-3.9c-2.5-1.8-4.8-3.6-7.3-5.6
			c-12.6-9.8-26.8-20.8-54.7-21.5v-25.9c29.7,0.9,48,17.8,65.7,34.1c15.6,14.4,30.4,28.1,52.1,31.2c26.6,3.8,37.3-7.3,40.7-12.2
			c4.1-6,4.8-13,1.8-18.4c-2.7-4.9-8.1-7.6-14.6-7.2c-1.1,0.1-1.8-0.3-2.1-1.3c-1-2.7,0.5-7.9,4.5-11c5.1-4.1,12.5-3.3,20.7,2.2
			C1053.9,208.1,1059.1,223.9,1055.2,239.7z"/>
	</g>
	<g>
		<path fill="#FFCA2B" d="M534.9,662c-18.9,0-34.2,15.3-34.2,34.2c0,18.9,15.3,34.2,34.2,34.2c18.9,0,34.2-15.3,34.2-34.2
			C569.1,677.4,553.8,662,534.9,662z M534.9,720.5c-13.4,0-24.2-10.9-24.2-24.2c0-13.4,10.9-24.2,24.2-24.2
			c13.4,0,24.2,10.9,24.2,24.2C559.2,709.6,548.3,720.5,534.9,720.5z"/>
		<path fill="#E9A369" d="M534.9,677.2c-10.5,0-19.1,8.6-19.1,19.1c0,10.5,8.6,19.1,19.1,19.1c10.5,0,19.1-8.6,19.1-19.1
			C554,685.7,545.4,677.2,534.9,677.2z"/>
		<path fill="#E9A369" d="M534.9,598.4c-53.9,0-97.8,43.9-97.8,97.8c0,53.9,43.9,97.8,97.8,97.8c53.9,0,97.8-43.9,97.8-97.8
			C632.8,642.3,588.9,598.4,534.9,598.4z M534.9,735.6c-21.7,0-39.4-17.7-39.4-39.4c0-21.7,17.7-39.4,39.4-39.4
			c21.7,0,39.4,17.7,39.4,39.4C574.3,717.9,556.6,735.6,534.9,735.6z"/>
		<path fill="#FFCA2B" d="M534.9,562.1c-73.9,0-134.1,60.2-134.1,134.1S461,830.3,534.9,830.3S669,770.2,669,696.2
			S608.9,562.1,534.9,562.1z M534.9,799.2c-56.8,0-103-46.2-103-103c0-56.8,46.2-103,103-103c56.8,0,103,46.2,103,103
			C637.9,753,591.7,799.2,534.9,799.2z"/>
		<path fill="#4B3E37" d="M534.9,557c-76.8,0-139.3,62.5-139.3,139.3s62.5,139.3,139.3,139.3S674.2,773,674.2,696.2
			S611.7,557,534.9,557z M534.9,830.3c-73.9,0-134.1-60.2-134.1-134.1S461,562.1,534.9,562.1S669,622.3,669,696.2
			S608.9,830.3,534.9,830.3z"/>
		<path fill="#4B3E37" d="M534.9,593.2c-56.8,0-103,46.2-103,103c0,56.8,46.2,103,103,103c56.8,0,103-46.2,103-103
			C637.9,639.4,591.7,593.2,534.9,593.2z M534.9,794.1c-53.9,0-97.8-43.9-97.8-97.8c0-53.9,43.9-97.8,97.8-97.8
			c53.9,0,97.8,43.9,97.8,97.8C632.8,750.2,588.9,794.1,534.9,794.1z"/>
		<path fill="#4B3E37" d="M534.9,656.9c-21.7,0-39.4,17.7-39.4,39.4c0,21.7,17.7,39.4,39.4,39.4c21.7,0,39.4-17.7,39.4-39.4
			C574.3,674.5,556.6,656.9,534.9,656.9z M534.9,730.4c-18.9,0-34.2-15.3-34.2-34.2c0-18.9,15.3-34.2,34.2-34.2
			c18.9,0,34.2,15.3,34.2,34.2C569.1,715.1,553.8,730.4,534.9,730.4z"/>
		<path fill="#4B3E37" d="M534.9,672c-13.4,0-24.2,10.9-24.2,24.2c0,13.4,10.9,24.2,24.2,24.2c13.4,0,24.2-10.9,24.2-24.2
			C559.2,682.9,548.3,672,534.9,672z M534.9,715.3c-10.5,0-19.1-8.6-19.1-19.1c0-10.5,8.6-19.1,19.1-19.1c10.5,0,19.1,8.6,19.1,19.1
			C554,706.7,545.4,715.3,534.9,715.3z"/>
	</g>
	<g>
		<polygon fill="#00B8F1" points="165.1,788 192.7,774.6 174.3,699.6 140.7,725.5 		"/>
		<polygon fill="#4EC9F5" points="224.2,797.5 224.2,645.9 161.5,625.6 198,774.6 		"/>
		<polygon fill="#4EC9F5" points="135.7,726.9 105.3,721.2 146,781.7 159.2,786.9 		"/>
		<polygon fill="#00B8F1" points="288.5,788 313,725.5 279.3,699.6 261,774.6 		"/>
		<polygon fill="#C4E9FB" points="224.2,556.4 162.7,620.6 224.2,640.5 		"/>
		<polygon fill="#C4E9FB" points="229.4,556.4 229.4,640.5 291,620.6 		"/>
		<polygon fill="#C4E9FB" points="170.4,696.1 138.4,685.8 105.3,716 136.9,721.9 		"/>
		<polygon fill="#4EC9F5" points="292.1,625.6 229.4,645.9 229.4,797.5 255.7,774.6 		"/>
		<polygon fill="#4EC9F5" points="318,726.9 294.5,786.9 307.6,781.7 348.4,721.2 		"/>
		<polygon fill="#C4E9FB" points="348.4,716 315.2,685.8 283.3,696.1 316.8,721.9 		"/>
		<path fill="#4B3E37" d="M356.5,717.5c0-0.2,0-0.4-0.1-0.6c0-0.1,0-0.1,0-0.2c-0.1-0.2-0.1-0.3-0.2-0.5c0,0,0-0.1-0.1-0.1
			c-0.1-0.2-0.2-0.3-0.4-0.5c0,0,0,0,0,0L317.6,681c-0.7-0.6-1.7-0.8-2.5-0.5l-33.7,10.8l16.9-68.9c0,0,0-0.1,0-0.1c0,0,0,0,0,0v0
			c0.1-0.6,0-1.2-0.2-1.7c0,0,0,0,0,0l0,0c-0.1-0.1-0.1-0.2-0.2-0.3c-0.1-0.1-0.2-0.2-0.3-0.3l-68.9-71.8c0,0-0.1-0.1-0.1-0.1
			c-0.1,0-0.1-0.1-0.2-0.1c-0.1,0-0.1-0.1-0.2-0.1c0,0-0.1-0.1-0.1-0.1c-0.1,0-0.1-0.1-0.2-0.1c0,0-0.1,0-0.1-0.1c0,0,0,0,0,0
			c-0.1,0-0.1,0-0.2-0.1c-0.1,0-0.1,0-0.1,0c-0.1,0-0.1,0-0.2,0c-0.1,0-0.1,0-0.2,0c-0.1,0-0.1,0-0.2,0c-0.1,0-0.1,0-0.2,0
			c0,0-0.1,0-0.1,0c-0.1,0-0.2,0-0.2,0c0,0-0.1,0-0.1,0c-0.1,0-0.2,0-0.3,0.1c0,0,0,0,0,0c0,0-0.1,0-0.1,0c-0.1,0-0.2,0.1-0.2,0.1
			c0,0-0.1,0.1-0.1,0.1c-0.1,0-0.1,0.1-0.2,0.1c-0.1,0-0.1,0.1-0.2,0.1c0,0-0.1,0.1-0.1,0.1l-68.9,71.8c-0.1,0.1-0.2,0.2-0.3,0.3
			c-0.1,0.1-0.1,0.2-0.2,0.3c0,0,0,0,0,0c0,0,0,0,0,0c-0.3,0.5-0.4,1.1-0.2,1.7c0,0,0,0.1,0,0.1l16.9,68.9l-33.7-10.8
			c-0.9-0.3-1.8-0.1-2.5,0.5L98,715.6c0,0,0,0,0,0c-0.2,0.1-0.3,0.3-0.4,0.5c0,0,0,0.1-0.1,0.1c-0.1,0.2-0.2,0.3-0.2,0.5
			c0,0.1,0,0.1,0,0.2c0,0.2-0.1,0.4-0.1,0.6c0,0,0,0,0,0c0,0.2,0,0.4,0.1,0.6c0,0,0,0.1,0,0.1c0,0,0,0.1,0,0.1
			c0.1,0.2,0.1,0.3,0.2,0.5c0,0,0,0.1,0.1,0.1c0,0,0,0,0,0l44.6,66.3c0.3,0.4,0.7,0.8,1.2,1l19.4,7.8c0,0,0.1,0,0.1,0
			c0.1,0,0.1,0,0.2,0c0.2,0.1,0.4,0.1,0.7,0.1c0,0,0,0,0,0c0.2,0,0.4,0,0.5-0.1c0.1,0,0.1,0,0.2,0c0.1,0,0.2,0,0.2-0.1
			c0,0,0.1,0,0.1-0.1c0,0,0.1,0,0.1,0l30.4-14.8l29.8,26c0,0,0,0,0,0c0,0,0,0,0,0c0.2,0.1,0.4,0.3,0.6,0.4c0,0,0,0,0.1,0
			c0,0,0,0,0.1,0c0.1,0,0.2,0.1,0.3,0.1c0.1,0,0.1,0,0.2,0c0.2,0,0.3,0.1,0.5,0.1c0.2,0,0.3,0,0.5-0.1c0.1,0,0.1,0,0.2,0
			c0.1,0,0.2-0.1,0.3-0.1c0,0,0,0,0.1,0c0,0,0,0,0.1,0c0.2-0.1,0.4-0.2,0.6-0.4c0,0,0,0,0,0c0,0,0,0,0,0l29.8-26l30.4,14.8
			c0,0,0.1,0,0.1,0c0,0,0.1,0,0.1,0.1c0.1,0,0.2,0,0.2,0.1c0.1,0,0.1,0,0.2,0c0.2,0,0.4,0.1,0.5,0.1c0,0,0,0,0,0
			c0.2,0,0.4,0,0.7-0.1c0.1,0,0.1,0,0.2,0c0,0,0.1,0,0.1,0l19.4-7.8c0.5-0.2,0.9-0.5,1.2-1l44.6-66.3c0,0,0,0,0,0c0,0,0-0.1,0.1-0.1
			c0.1-0.2,0.2-0.3,0.2-0.5c0,0,0-0.1,0-0.1c0,0,0-0.1,0-0.1C356.5,718,356.5,717.7,356.5,717.5
			C356.5,717.5,356.5,717.5,356.5,717.5z M315.2,685.8l33.1,30.1l-31.6,5.9l-33.5-25.8L315.2,685.8z M313,725.5L288.5,788L261,774.6
			l18.4-75L313,725.5z M229.4,556.4l61.6,64.2l-61.6,20V556.4z M224.2,556.4v84.1l-61.6-20L224.2,556.4z M224.2,645.9v151.6
			L198,774.6l-36.5-149L224.2,645.9z M192.7,774.6L165.1,788l-24.5-62.5l33.7-25.9L192.7,774.6z M138.4,685.8l32,10.3l-33.5,25.8
			l-31.6-5.9L138.4,685.8z M105.3,721.2l30.4,5.7l23.5,60.1l-13.1-5.2L105.3,721.2z M229.4,645.9l62.7-20.3l-36.5,149l-26.2,22.9
			V645.9z M307.6,781.7l-13.1,5.2l23.5-60.1l30.4-5.7L307.6,781.7z"/>
	</g>
	<g>
		<path fill="#DC9558" d="M947.2,571.1H865h-82.2c-35.8,0-40.3,21.1-40.3,39.4v27.6H865h122.5v-27.6
			C987.5,592.2,982.9,571.1,947.2,571.1z"/>
		<polygon fill="#FFCA2B" points="742.4,663.6 865,663.6 987.5,663.6 987.5,643.2 865,643.2 742.4,643.2 		"/>
		<path fill="#DC9558" d="M987.5,668.8H885.8v41.4H896c1.4,0,2.6,1.2,2.6,2.6v27.9c0,8.7-17.8,25-33.6,25c-15.8,0-33.6-16.3-33.6-25
			v-27.9c0-1.4,1.2-2.6,2.6-2.6h10.2v-41.4H742.4v78.5l71.5,65.2H865H916l71.5-65.2V668.8z"/>
		<polygon fill="#F99B2F" points="865,710.2 880.6,710.2 880.6,668.8 865,668.8 849.3,668.8 849.3,710.2 		"/>
		<path fill="#F99B2F" d="M893.4,740.7v-25.3H865h-28.5v25.3c0,5,14.8,19.8,28.5,19.8C878.6,760.4,893.4,745.6,893.4,740.7z"/>
		<path fill="#FFCA2B" d="M923.7,812.5h28c31.7,0,35.8-8.4,35.8-15.7v-42.5L923.7,812.5z"/>
		<path fill="#FFCA2B" d="M742.4,754.3v42.5c0,7.3,4.1,15.7,35.8,15.7h28L742.4,754.3z"/>
		<path fill="#4B3E37" d="M947.2,565.9H865h-82.2c-45.5,0-45.5,33.6-45.5,44.6v55.7v130.6c0,18.5,21.9,20.9,40.9,20.9H865h86.8
			c19.1,0,40.9-2.4,40.9-20.9V666.2v-55.7C992.7,599.5,992.7,565.9,947.2,565.9z M865,643.2h122.5v20.4H865H742.4v-20.4H865z
			 M865,812.5h-51.1l-71.5-65.2v-78.5h101.7v41.4h-10.2c-1.4,0-2.6,1.2-2.6,2.6v27.9c0,8.7,17.8,25,33.6,25
			c15.8,0,33.6-16.3,33.6-25v-27.9c0-1.4-1.2-2.6-2.6-2.6h-10.2v-41.4h101.7v78.5L916,812.5H865z M865,668.8h15.7v41.4H865h-15.7
			v-41.4H865z M865,760.4c-13.7,0-28.5-14.8-28.5-19.8v-25.3H865h28.5v25.3C893.4,745.6,878.6,760.4,865,760.4z M742.4,796.8v-42.5
			l63.8,58.2h-28C746.5,812.5,742.4,804.1,742.4,796.8z M951.7,812.5h-28l63.8-58.2v42.5C987.5,804.1,983.4,812.5,951.7,812.5z
			 M987.5,638.1H865H742.4v-27.6c0-18.4,4.6-39.4,40.3-39.4H865h82.2c35.8,0,40.3,21.1,40.3,39.4V638.1z"/>
	</g>
	<g>
		<path fill="#FFCA2B" d="M1255.4,608.6c-0.2-0.2-0.4-0.3-0.6-0.6c-7.8,14.5-25.1,26.4-49,26.4s-41.2-11.9-49-26.4
			c-0.2,0.2-0.4,0.4-0.6,0.6c-56.7,35.7-69.6,94.8-57.3,137.7c13.5,46.8,53.4,74.7,106.9,74.7s93.4-27.9,106.9-74.7
			C1325,703.4,1312.1,644.3,1255.4,608.6z M1258.3,773c-12.4,13.4-30.6,20.4-52.5,20.4s-40.1-7.1-52.5-20.4
			c-10.9-11.7-16.9-27.9-16.9-45.4c0-34.9,24.3-71.9,69.4-71.9s69.4,37.1,69.4,71.9C1275.2,745.1,1269.2,761.3,1258.3,773z"/>
		<path fill="#EF3B31" d="M1205.8,629.3c13.8,0,26.5-4.4,35.5-12.5c8.2-7.2,12.8-16.8,12.8-26.2c0-15.3-12.7-31.6-48.4-31.6
			c-35.7,0-48.4,16.3-48.4,31.6C1157.4,609.2,1175.9,629.3,1205.8,629.3z"/>
		<path fill="#4B3E37" d="M1313.9,670.7c-10.4-27-29.6-50-55.7-66.4c-0.4-0.3-0.9-0.4-1.4-0.4c1.7-4.3,2.6-8.8,2.6-13.2
			c0-16.9-14-36.7-53.6-36.7c-17.1,0-31.1,3.8-40.5,11c-8.4,6.5-13.1,15.6-13.1,25.7c0,4.4,0.9,8.9,2.6,13.2c-0.5,0-1,0.1-1.4,0.4
			c-26.1,16.4-45.4,39.4-55.7,66.4c-9.6,25-10.9,52.3-3.8,77.1c6.5,22.6,19.6,41.9,37.9,55.6c19.8,14.9,45.4,22.8,73.9,22.8
			s54.1-7.9,73.9-22.8c18.3-13.7,31.4-33,37.9-55.6C1324.8,723,1323.4,695.6,1313.9,670.7z M1205.8,559c35.7,0,48.4,16.3,48.4,31.6
			c0,9.4-4.7,18.9-12.8,26.2c-9.1,8.1-21.7,12.5-35.5,12.5c-29.9,0-48.4-20.1-48.4-38.7C1157.4,575.3,1170.1,559,1205.8,559z
			 M1312.7,746.3c-13.5,46.8-53.4,74.7-106.9,74.7s-93.4-27.9-106.9-74.7c-12.3-42.8,0.6-102,57.3-137.7c0.2-0.2,0.4-0.3,0.6-0.6
			c7.8,14.5,25.1,26.4,49,26.4s41.2-11.9,49-26.4c0.2,0.2,0.4,0.4,0.6,0.6C1312.1,644.3,1325,703.4,1312.7,746.3z"/>
		<path fill="#4B3E37" d="M1205.8,655.6c-45.1,0-69.4,37.1-69.4,71.9c0,17.6,6,33.7,16.9,45.4c12.4,13.4,30.6,20.4,52.5,20.4
			s40.1-7.1,52.5-20.4c10.9-11.7,16.9-27.9,16.9-45.4C1275.2,692.7,1250.9,655.6,1205.8,655.6z M1254.5,769.5
			c-11.4,12.3-28.3,18.8-48.7,18.8s-37.3-6.5-48.7-18.8c-10-10.8-15.5-25.7-15.5-41.9c0-32.4,22.5-66.8,64.2-66.8
			c41.7,0,64.2,34.4,64.2,66.8C1270.1,743.8,1264.5,758.7,1254.5,769.5z"/>
	</g>
</g>
<g id="Designed_by_Vecteezy">
	<g>
		<g>
			<g>
				<path fill="#4D3F38" d="M732.3,937.7c0.8,0,1.6,0.7,1.6,0.7L720,968.2c-1.5,0-5.2,0.2-6.1,0.2c-0.8,0-1.6-0.7-1.6-0.7l-4.8-29.8
					c2.9,0,6.5-0.2,7.6-0.2c0.8,0,1.6,0.7,1.6,0.7l1.5,14.6c0.1,1.3,0.1,3,0.1,4.8c0.5-2,1-3.9,1.5-5.2l5.8-14.7
					C728.1,937.9,731.3,937.7,732.3,937.7L732.3,937.7z"/>
			</g>
			<g>
				<path fill="#4D3F38" d="M746.6,952.4c0,3.2-1.8,5.4-6.3,6.3l-4.7,1c0.4,2,1.6,3,3.8,3c2.6,0,4.4-2,4.4-2s1.3,0.7,1.3,2.3
					c0,2.7-4.1,5.6-9,5.6c-4.9,0-8.1-3.1-8.1-8.3c0-6,4.3-14.2,11.9-14.2C744,946.1,746.6,948.6,746.6,952.4L746.6,952.4z
					 M738.6,955.5c1-0.3,1.3-1.2,1.3-2.1c0-0.9-0.3-2.2-1.3-2.2c-1.9,0-2.7,3-3,5.3L738.6,955.5z"/>
			</g>
			<g>
				<path fill="#4D3F38" d="M759.4,946.1c3.8,0,6.7,2,6.7,4.7c0,3.3-4,4.5-4,4.5s-1.2-3.6-3.9-3.6c-1.8,0-2.9,1.8-2.9,5.8
					c0,3.6,1,5.2,3.3,5.2c2.4,0,3.9-1.6,3.9-1.6s1.3,0.7,1.3,2.2c0,2.6-4,5.3-8.6,5.3c-4.9,0-8-3.1-8-8.2
					C747.3,954.3,751.7,946.1,759.4,946.1L759.4,946.1z"/>
			</g>
			<g>
				<path fill="#4D3F38" d="M777.8,941.3c0.9,0,1.5,0.7,1.5,0.7l-0.7,4.5h4.8l-1.1,3.5c-0.4,1.1-0.9,1.7-2,1.7h-2.5l-1.4,8.9
					c-0.2,1.4,0.1,2.1,1.1,2.1c0.9,0,1.8-0.5,1.8-0.5s1.3,0.7,1.3,2.2c0,2.2-3.1,4.3-7,4.3c-4.1,0-5.8-2.5-5.1-7l1.6-9.9h-2.6
					l1.1-3.6c0.3-0.9,1.1-1.6,2-1.6h1.3l1.5-4.2C775.2,941.9,777,941.3,777.8,941.3L777.8,941.3z"/>
			</g>
			<g>
				<path fill="#4D3F38" d="M801.2,952.4c0,3.2-1.8,5.4-6.3,6.3l-4.7,1c0.4,2,1.6,3,3.8,3c2.6,0,4.4-2,4.4-2s1.3,0.7,1.3,2.3
					c0,2.7-4.1,5.6-9,5.6c-4.9,0-8.1-3.1-8.1-8.3c0-6,4.3-14.2,11.9-14.2C798.6,946.1,801.2,948.6,801.2,952.4L801.2,952.4z
					 M793.2,955.5c1-0.3,1.3-1.2,1.3-2.1c0-0.9-0.3-2.2-1.3-2.2c-1.9,0-2.7,3-3,5.3L793.2,955.5z"/>
			</g>
			<g>
				<path fill="#4D3F38" d="M820.5,952.4c0,3.2-1.8,5.4-6.3,6.3l-4.7,1c0.4,2,1.6,3,3.8,3c2.6,0,4.4-2,4.4-2s1.3,0.7,1.3,2.3
					c0,2.7-4.1,5.6-9,5.6c-4.9,0-8.1-3.1-8.1-8.3c0-6,4.3-14.2,11.9-14.2C817.9,946.1,820.5,948.6,820.5,952.4L820.5,952.4z
					 M812.5,955.5c1-0.3,1.3-1.2,1.3-2.1c0-0.9-0.3-2.2-1.3-2.2c-1.9,0-2.7,3-3,5.3L812.5,955.5z"/>
			</g>
			<g>
				<path fill="#4D3F38" d="M836.3,960.5c0,0,1.6,1.5,1.6,4c0,3.3-2.8,4.2-5.2,4.2c-3.1,0-5.3-1.5-7.6-2.3c-0.6,0.7-1.3,1.5-1.9,2.3
					c0,0-3.5-0.1-3.5-2.4c0-2.9,4.8-7.8,9.9-13.4c-0.6-0.1-1.2-0.2-1.7-0.2c-2.9,0-4.1,1.5-4.1,1.5s-1.5-1.7-1.4-4
					c0.2-3.1,3.1-4,5.5-4c2.5,0,4.3,1,6.1,1.7l1.5-1.7c0,0,3.5,0.1,3.5,2.5c0,2.8-4.6,7.6-9.6,13c1.1,0.3,2,0.5,3,0.5
					C835.1,962.2,836.3,960.5,836.3,960.5L836.3,960.5z"/>
			</g>
			<g>
				<path fill="#4D3F38" d="M858.7,966.7c-1.2,7.6-6.4,11.4-13,11.4c-4.2,0-7.3-2.2-7.3-4.8c0-1.7,1.4-2.5,1.4-2.5s1.4,1.3,4.2,1.3
					c2.6,0,6.2-1.1,6.8-5.1l0.5-3.1c-1.8,2.6-4.1,4.6-7.1,4.6c-3.3,0-4.8-2.7-3.9-8.3l0.9-6c0.6-3.7,0.7-6.7,0.7-6.7
					c2.4-0.4,5.5-1.5,6.6-1.5c0.8,0,1.6,0.7,1.6,0.7l-1.2,7.5l-1.1,6.9c-0.1,0.6,0,1,0.6,1c2.8,0,4.3-7.9,4.3-7.9
					c0.6-3.7,0.7-6.7,0.7-6.7c2.4-0.4,5.5-1.5,6.6-1.5c0.9,0,1.6,0.7,1.6,0.7l-1.2,7.5L858.7,966.7z"/>
			</g>
		</g>
		<g>
			<path fill="#4D3F38" d="M538.1,947.4h7.4c1.7,0,3,0.1,3.8,0.4c1.2,0.3,2.2,1,3,1.9c0.8,0.9,1.5,2,1.9,3.3
				c0.4,1.3,0.7,2.9,0.7,4.8c0,1.7-0.2,3.1-0.6,4.3c-0.5,1.5-1.2,2.7-2.2,3.6c-0.7,0.7-1.7,1.2-2.9,1.6c-0.9,0.3-2.1,0.4-3.6,0.4
				h-7.7V947.4z M542.2,950.8v13.4h3c1.1,0,2-0.1,2.5-0.2c0.7-0.2,1.2-0.4,1.6-0.8c0.4-0.4,0.8-1,1.1-1.9c0.3-0.9,0.4-2.1,0.4-3.7
				s-0.1-2.8-0.4-3.6s-0.7-1.5-1.2-2c-0.5-0.5-1.1-0.8-1.9-0.9c-0.6-0.1-1.7-0.2-3.3-0.2H542.2z"/>
			<path fill="#4D3F38" d="M566.4,962.9l3.9,0.6c-0.5,1.4-1.3,2.5-2.3,3.2s-2.4,1.1-4,1.1c-2.5,0-4.4-0.8-5.6-2.5
				c-1-1.3-1.4-3-1.4-5c0-2.4,0.6-4.3,1.9-5.7c1.3-1.4,2.9-2.1,4.8-2.1c2.2,0,3.9,0.7,5.1,2.2c1.3,1.4,1.9,3.6,1.8,6.6h-9.7
				c0,1.1,0.3,2,0.9,2.7c0.6,0.6,1.3,1,2.2,1c0.6,0,1.1-0.2,1.5-0.5C565.8,964.1,566.2,963.6,566.4,962.9z M566.6,959
				c0-1.1-0.3-2-0.9-2.6c-0.6-0.6-1.2-0.9-2-0.9c-0.8,0-1.5,0.3-2.1,0.9c-0.6,0.6-0.8,1.4-0.8,2.5H566.6z"/>
			<path fill="#4D3F38" d="M571.6,963.4l3.9-0.6c0.2,0.8,0.5,1.3,1,1.7c0.5,0.4,1.2,0.6,2.1,0.6c1,0,1.8-0.2,2.3-0.6
				c0.3-0.3,0.5-0.6,0.5-1c0-0.3-0.1-0.5-0.3-0.7c-0.2-0.2-0.6-0.4-1.3-0.5c-3.1-0.7-5.1-1.3-5.9-1.9c-1.2-0.8-1.7-1.9-1.7-3.3
				c0-1.3,0.5-2.3,1.5-3.2c1-0.9,2.6-1.3,4.7-1.3c2,0,3.5,0.3,4.5,1c1,0.7,1.6,1.6,2,2.9l-3.6,0.7c-0.2-0.6-0.5-1-0.9-1.3
				c-0.4-0.3-1.1-0.5-1.9-0.5c-1,0-1.7,0.1-2.2,0.4c-0.3,0.2-0.4,0.5-0.4,0.8c0,0.3,0.1,0.5,0.4,0.7c0.3,0.3,1.6,0.6,3.6,1.1
				c2.1,0.5,3.5,1,4.3,1.7c0.8,0.7,1.2,1.6,1.2,2.9c0,1.3-0.6,2.5-1.7,3.5c-1.1,1-2.8,1.4-5,1.4c-2,0-3.6-0.4-4.7-1.2
				C572.8,965.8,572,964.7,571.6,963.4z"/>
			<path fill="#4D3F38" d="M588.1,950.9v-3.6h3.9v3.6H588.1z M588.1,967.5v-14.6h3.9v14.6H588.1z"/>
			<path fill="#4D3F38" d="M595,968.5l4.4,0.5c0.1,0.5,0.2,0.9,0.5,1.1c0.4,0.3,0.9,0.4,1.7,0.4c1,0,1.8-0.2,2.3-0.5
				c0.3-0.2,0.6-0.5,0.8-1c0.1-0.3,0.2-0.9,0.2-1.8v-2.1c-1.2,1.6-2.6,2.4-4.4,2.4c-2,0-3.5-0.8-4.7-2.5c-0.9-1.3-1.3-2.9-1.3-4.9
				c0-2.4,0.6-4.3,1.8-5.6c1.2-1.3,2.6-1.9,4.4-1.9c1.8,0,3.3,0.8,4.5,2.4v-2.1h3.6V966c0,1.7-0.1,3-0.4,3.9s-0.7,1.5-1.2,2
				c-0.5,0.5-1.2,0.9-2.1,1.1c-0.9,0.3-1.9,0.4-3.3,0.4c-2.5,0-4.2-0.4-5.3-1.3c-1-0.8-1.6-1.9-1.6-3.2
				C595,968.8,595,968.7,595,968.5z M598.5,959.9c0,1.6,0.3,2.7,0.9,3.4c0.6,0.7,1.3,1.1,2.2,1.1c0.9,0,1.7-0.4,2.4-1.1
				c0.7-0.7,1-1.8,1-3.3c0-1.5-0.3-2.6-0.9-3.4c-0.6-0.7-1.4-1.1-2.4-1.1c-0.9,0-1.7,0.4-2.3,1.1
				C598.8,957.3,598.5,958.4,598.5,959.9z"/>
			<path fill="#4D3F38" d="M625.3,967.5h-3.9v-7.5c0-1.6-0.1-2.6-0.2-3.1c-0.2-0.5-0.4-0.8-0.8-1.1c-0.4-0.3-0.8-0.4-1.3-0.4
				c-0.7,0-1.3,0.2-1.8,0.6c-0.5,0.4-0.9,0.9-1.1,1.5c-0.2,0.6-0.3,1.7-0.3,3.4v6.6H612v-14.6h3.6v2.1c1.3-1.7,2.9-2.5,4.8-2.5
				c0.9,0,1.6,0.2,2.3,0.5c0.7,0.3,1.2,0.7,1.6,1.2c0.4,0.5,0.6,1,0.8,1.6c0.1,0.6,0.2,1.5,0.2,2.6V967.5z"/>
			<path fill="#4D3F38" d="M637.2,962.9l3.9,0.6c-0.5,1.4-1.3,2.5-2.3,3.2s-2.4,1.1-4,1.1c-2.5,0-4.4-0.8-5.6-2.5
				c-1-1.3-1.4-3-1.4-5c0-2.4,0.6-4.3,1.9-5.7c1.3-1.4,2.9-2.1,4.8-2.1c2.2,0,3.9,0.7,5.1,2.2c1.3,1.4,1.9,3.6,1.8,6.6h-9.7
				c0,1.1,0.3,2,0.9,2.7c0.6,0.6,1.3,1,2.2,1c0.6,0,1.1-0.2,1.5-0.5C636.6,964.1,636.9,963.6,637.2,962.9z M637.4,959
				c0-1.1-0.3-2-0.9-2.6c-0.6-0.6-1.2-0.9-2-0.9c-0.8,0-1.5,0.3-2.1,0.9c-0.6,0.6-0.8,1.4-0.8,2.5H637.4z"/>
			<path fill="#4D3F38" d="M657.2,967.5h-3.6v-2.1c-0.6,0.8-1.3,1.5-2.1,1.9c-0.8,0.4-1.6,0.6-2.5,0.6c-1.7,0-3.1-0.7-4.3-2
				c-1.2-1.4-1.8-3.2-1.8-5.7c0-2.5,0.6-4.4,1.7-5.7c1.2-1.3,2.6-1.9,4.4-1.9c1.6,0,3,0.7,4.2,2v-7.3h3.9V967.5z M646.9,959.9
				c0,1.6,0.2,2.7,0.6,3.4c0.6,1,1.5,1.5,2.6,1.5c0.9,0,1.6-0.4,2.3-1.1c0.6-0.8,0.9-1.9,0.9-3.4c0-1.7-0.3-2.9-0.9-3.6
				c-0.6-0.7-1.4-1.1-2.3-1.1c-0.9,0-1.7,0.4-2.3,1.1C647.2,957.4,646.9,958.5,646.9,959.9z"/>
			<path fill="#4D3F38" d="M667.6,967.5v-20.2h3.9v7.3c1.2-1.4,2.6-2,4.2-2c1.8,0,3.3,0.6,4.4,1.9c1.2,1.3,1.7,3.1,1.7,5.6
				c0,2.5-0.6,4.4-1.8,5.8c-1.2,1.3-2.6,2-4.3,2c-0.8,0-1.7-0.2-2.5-0.6c-0.8-0.4-1.5-1-2.1-1.9v2.1H667.6z M671.4,959.9
				c0,1.5,0.2,2.6,0.7,3.4c0.7,1,1.6,1.5,2.7,1.5c0.9,0,1.6-0.4,2.2-1.1c0.6-0.7,0.9-1.9,0.9-3.4c0-1.7-0.3-2.9-0.9-3.6
				c-0.6-0.7-1.4-1.1-2.3-1.1c-0.9,0-1.7,0.4-2.3,1.1C671.7,957.3,671.4,958.4,671.4,959.9z"/>
			<path fill="#4D3F38" d="M682.6,952.9h4.1l3.5,10.4l3.4-10.4h4l-5.2,14.1l-0.9,2.5c-0.3,0.9-0.7,1.5-1,2c-0.3,0.4-0.7,0.8-1.1,1.1
				c-0.4,0.3-0.9,0.5-1.5,0.7c-0.6,0.2-1.2,0.2-2,0.2c-0.7,0-1.5-0.1-2.2-0.2l-0.3-3c0.6,0.1,1.2,0.2,1.6,0.2c0.9,0,1.6-0.3,2-0.8
				c0.4-0.5,0.8-1.2,1-2L682.6,952.9z"/>
		</g>
	</g>
</g>
</svg>
