<?xml version="1.0" encoding="utf-8"?>
<!-- Generator: Adobe Illustrator 25.0.0, SVG Export Plug-In . SVG Version: 6.00 Build 0)  -->
<svg version="1.1" id="Camada_1" xmlns="http://www.w3.org/2000/svg" xmlns:xlink="http://www.w3.org/1999/xlink" x="0px" y="0px"
	 viewBox="0 0 380 340" style="enable-background:new 0 0 380 340;" xml:space="preserve">
<style type="text/css">
	.st0{fill:#9585C1;}
	.st1{fill:#511C8E;}
	.st2{fill:#C4C4C4;stroke:#000000;stroke-width:0.5;stroke-miterlimit:10;}
	.st3{fill:#673AB7;stroke:#000000;stroke-width:0.5;stroke-miterlimit:10;}
	.st4{fill:#CF721C;stroke:#000000;stroke-width:0.5;stroke-miterlimit:10;}
	.st5{fill:#673AB7;}
	.st6{fill:#F4D9BE;}
	.st7{fill:#AC9173;}
	.st8{fill:#FFFFFF;}
	.st9{fill:#FFC2C4;}
	.st10{fill:#4A311A;}
</style>
<path class="st0" d="M237.1,261.2l-13,72.3c-0.1,0.7,0.8,1.1,1.2,0.5l61.3-80.3c0.1-0.2,0.4-0.3,0.6-0.3l53.9,4.2
	c0.4,0,0.7-0.2,0.7-0.6l28.1-238.5c0.1-0.4-0.3-0.8-0.7-0.7C253.9,30.5,138.5,43,23.2,55.6c-0.3,0-0.6,0.3-0.6,0.6
	C19.3,123,16,189.8,12.7,256.6c0,0.4,0.3,0.7,0.7,0.7l223.1,3.2C236.9,260.5,237.2,260.8,237.1,261.2z"/>
<g>
	<path d="M63.1,62.9c2.6,0,4.6,0.4,5.8,1.2c1.2,0.8,1.9,2,1.9,3.6c0,0.4,0,0.8-0.1,1.1s-0.2,0.6-0.3,0.9c-0.1,0.3-0.3,0.5-0.5,0.7
		c-0.2,0.2-0.4,0.4-0.5,0.5c-0.4,0.4-0.9,0.7-1.4,0.9v0.2c0.8,0.1,1.6,0.4,2.3,0.8c0.3,0.2,0.6,0.4,0.8,0.6s0.5,0.6,0.7,0.9
		s0.4,0.8,0.5,1.3c0.1,0.5,0.2,1,0.2,1.7c0,1-0.2,1.8-0.5,2.6s-0.9,1.4-1.5,1.9s-1.5,0.9-2.6,1.2s-2.2,0.4-3.6,0.4
		c-1.2,0-2.3-0.1-3-0.2s-1.4-0.4-1.8-0.7c-0.4-0.3-0.7-0.7-0.9-1.1c-0.2-0.4-0.2-0.9-0.2-1.4v-15c0-0.5-0.3-0.8-1-0.8
		c-0.5,0-1,0.1-1.5,0.2s-1,0.4-1.4,0.6s-0.8,0.6-1,0.9c-0.3,0.4-0.4,0.8-0.4,1.2c0,0.3,0,0.5,0.1,0.7c0.1,0.2,0.2,0.3,0.3,0.4
		c0.1,0.1,0.2,0.1,0.3,0.2c0.1,0,0.2,0,0.2,0c0.2,0,0.4,0,0.6-0.1c0.1-0.1,0.3-0.2,0.4-0.2c0.1-0.1,0.2-0.2,0.3-0.2
		c0.1-0.1,0.2-0.1,0.4-0.1c0.1,0,0.2,0,0.3,0.1c0.1,0.1,0.2,0.1,0.3,0.2s0.2,0.3,0.3,0.4s0.1,0.4,0.1,0.6c0,0.4-0.1,0.7-0.2,0.9
		c-0.1,0.3-0.3,0.5-0.5,0.7s-0.5,0.3-0.8,0.4c-0.3,0.1-0.6,0.1-0.9,0.1c-0.4,0-0.8-0.1-1.2-0.2s-0.6-0.4-0.9-0.6
		c-0.2-0.3-0.4-0.6-0.6-0.9s-0.2-0.7-0.2-1.1c0-0.8,0.1-1.4,0.4-2c0.3-0.6,0.7-1.1,1.2-1.5c0.5-0.4,1.1-0.8,1.9-1
		c0.7-0.3,1.5-0.5,2.4-0.7S59,63.1,60,63S62,62.9,63.1,62.9z M62.8,80.9c0,0.2,0,0.4,0.1,0.6c0,0.2,0.1,0.3,0.2,0.5s0.3,0.2,0.5,0.3
		s0.5,0.1,0.8,0.1c0.5,0,1-0.1,1.4-0.4s0.8-0.7,1.1-1.1s0.5-1,0.7-1.5s0.2-1.1,0.2-1.7c0-0.8-0.1-1.6-0.3-2.2
		c-0.2-0.6-0.5-1.2-0.9-1.6s-0.9-0.8-1.4-1c-0.5-0.2-1.1-0.4-1.8-0.4l0.3-0.7c0.4,0,0.8,0,1.1-0.2c0.4-0.1,0.7-0.4,1-0.7
		c0.3-0.3,0.5-0.7,0.7-1.3c0.2-0.5,0.2-1.2,0.2-2c0-0.6-0.1-1.1-0.2-1.5c-0.1-0.4-0.3-0.8-0.5-1.1c-0.2-0.3-0.5-0.5-0.8-0.7
		S64.6,64,64.3,64c-0.2,0-0.4,0-0.6,0.1c-0.2,0-0.3,0.1-0.5,0.2s-0.2,0.3-0.3,0.4s-0.1,0.4-0.1,0.7V80.9z"/>
	<path d="M78.5,77.1c0,0.3,0,0.6,0.1,1s0.2,0.7,0.4,1c0.2,0.3,0.4,0.7,0.6,1s0.5,0.6,0.8,0.8s0.7,0.4,1,0.6c0.4,0.1,0.8,0.2,1.3,0.2
		c0.3,0,0.6,0,0.9-0.1c0.3-0.1,0.5-0.2,0.8-0.3c0.2-0.1,0.5-0.3,0.7-0.4c0.2-0.2,0.4-0.3,0.7-0.5l0.3,0.3c-0.2,0.3-0.5,0.6-0.8,0.9
		c-0.3,0.3-0.7,0.7-1.2,1c-0.5,0.3-1,0.5-1.6,0.7s-1.3,0.3-2.1,0.3s-1.6-0.1-2.3-0.4s-1.4-0.7-2-1.3s-1.1-1.3-1.4-2.1
		c-0.4-0.9-0.5-1.9-0.5-3c0-0.8,0.1-1.6,0.3-2.3c0.2-0.7,0.5-1.3,0.9-1.9c0.4-0.6,0.8-1,1.3-1.5c0.5-0.4,1-0.8,1.5-1
		c0.5-0.3,1.1-0.5,1.6-0.6c0.6-0.1,1.1-0.2,1.6-0.2c0.7,0,1.3,0.1,1.8,0.2c0.5,0.1,0.9,0.3,1.3,0.6s0.6,0.5,0.7,0.9
		c0.2,0.3,0.2,0.7,0.2,1c0,0.4-0.1,0.8-0.4,1.2s-0.6,0.6-1,0.9L78.5,77.1z M81.3,74.3c0.1-0.1,0.2-0.1,0.3-0.2s0.1-0.2,0.2-0.2
		s0.1-0.2,0.1-0.4c0-0.1,0-0.3,0-0.5c0-0.2,0-0.5-0.1-0.8c0-0.3-0.1-0.5-0.3-0.8s-0.3-0.5-0.5-0.6s-0.4-0.2-0.7-0.2
		c-0.3,0-0.6,0.1-0.8,0.3c-0.2,0.2-0.4,0.4-0.6,0.8c-0.2,0.3-0.3,0.7-0.4,1.1s-0.2,0.8-0.2,1.2c0,0.4-0.1,0.8-0.1,1.2s0,0.7,0,0.9
		L81.3,74.3z"/>
	<path d="M99.6,82.1c0,0.1,0,0.3-0.1,0.4s-0.1,0.3-0.3,0.5c-0.1,0.1-0.4,0.3-0.6,0.4s-0.7,0.2-1.1,0.2s-0.9-0.1-1.1-0.2
		s-0.5-0.2-0.6-0.4c-0.1-0.2-0.2-0.3-0.3-0.5s-0.1-0.3-0.1-0.4v-9.7c0-0.1,0-0.3-0.1-0.4c0-0.1-0.1-0.3-0.2-0.4s-0.2-0.2-0.3-0.3
		s-0.2-0.1-0.4-0.1c-0.2,0-0.5,0.1-0.7,0.2c-0.2,0.1-0.5,0.3-0.7,0.5c-0.2,0.2-0.4,0.4-0.5,0.5c-0.2,0.2-0.3,0.3-0.3,0.4v9.2
		c0,0.1,0,0.3-0.1,0.4S92.1,82.9,92,83c-0.1,0.1-0.4,0.3-0.6,0.4s-0.7,0.2-1.1,0.2s-0.9-0.1-1.1-0.2s-0.5-0.2-0.6-0.4
		c-0.1-0.2-0.2-0.3-0.3-0.5s-0.1-0.3-0.1-0.4V71.5c0-0.3-0.1-0.5-0.2-0.7c-0.1-0.2-0.3-0.3-0.6-0.3c-0.2,0-0.3,0-0.4,0.1
		s-0.2,0.1-0.4,0.2l-0.3-0.3c0.2-0.2,0.4-0.3,0.7-0.5c0.3-0.2,0.5-0.3,0.8-0.4c0.3-0.1,0.6-0.2,1-0.3s0.7-0.1,1.1-0.1
		c0.6,0,1.1,0.1,1.4,0.3c0.3,0.2,0.6,0.4,0.7,0.7s0.2,0.6,0.3,0.9c0,0.3,0,0.5,0,0.7c0.4-0.5,0.9-0.9,1.4-1.3
		c0.2-0.2,0.4-0.3,0.7-0.5c0.2-0.2,0.5-0.3,0.7-0.4s0.5-0.2,0.8-0.3c0.3-0.1,0.5-0.1,0.8-0.1c0.5,0,1,0.1,1.4,0.3s0.7,0.4,0.9,0.7
		c0.2,0.3,0.4,0.6,0.5,0.8c0.1,0.3,0.2,0.6,0.2,0.8c0.4-0.5,0.9-0.9,1.4-1.3c0.2-0.2,0.4-0.3,0.7-0.5c0.2-0.2,0.5-0.3,0.7-0.4
		s0.5-0.2,0.8-0.3c0.3-0.1,0.5-0.1,0.8-0.1c0.5,0,1,0.1,1.4,0.3c0.4,0.2,0.7,0.5,0.9,0.8c0.2,0.3,0.4,0.7,0.5,1.1
		c0.1,0.4,0.2,0.8,0.2,1.2V81c0,0.1,0,0.2,0,0.3s0,0.2,0.1,0.3c0,0.1,0.1,0.2,0.2,0.2s0.2,0.1,0.3,0.1c0.2,0,0.3-0.1,0.5-0.2
		s0.3-0.2,0.4-0.4l0.3,0.3c-0.1,0.2-0.3,0.4-0.5,0.6s-0.5,0.5-0.7,0.7c-0.3,0.2-0.6,0.4-1,0.5s-0.8,0.2-1.3,0.2
		c-0.4,0-0.8-0.1-1-0.2s-0.5-0.2-0.8-0.4s-0.4-0.4-0.5-0.6c-0.1-0.2-0.2-0.5-0.2-0.8v-9.1c0-0.1,0-0.3-0.1-0.4
		c0-0.1-0.1-0.3-0.2-0.4s-0.2-0.2-0.3-0.3s-0.2-0.1-0.4-0.1c-0.2,0-0.5,0.1-0.7,0.2c-0.2,0.1-0.5,0.3-0.7,0.5
		c-0.2,0.2-0.4,0.4-0.5,0.5c-0.1,0.2-0.3,0.3-0.3,0.4V82.1z"/>
	<path d="M116.5,71.7c-0.1-0.4-0.1-0.6-0.3-0.8c-0.1-0.2-0.3-0.3-0.6-0.3c-0.2,0-0.3,0-0.4,0.1s-0.2,0.1-0.4,0.2l-0.3-0.3
		c0.2-0.2,0.4-0.3,0.7-0.5c0.3-0.2,0.5-0.3,0.8-0.4c0.3-0.1,0.6-0.2,1-0.3s0.7-0.1,1.1-0.1c0.5,0,1,0.1,1.3,0.3
		c0.3,0.2,0.6,0.4,0.8,0.7c0.2,0.3,0.3,0.6,0.4,0.9c0.1,0.3,0.1,0.6,0.2,0.9c0.3,2.8,0.7,4.9,1.1,6.3s0.9,2.1,1.5,2.1
		c0.3,0,0.6-0.2,0.9-0.5c0.3-0.3,0.6-0.8,0.8-1.4s0.4-1.3,0.5-2.1c0.1-0.8,0.2-1.7,0.2-2.6c0-0.6,0-1.1-0.1-1.5
		c-0.1-0.4-0.2-0.8-0.3-1c-0.1-0.3-0.2-0.5-0.3-0.7c-0.1-0.2-0.1-0.4-0.1-0.5c0-0.1,0.1-0.3,0.2-0.3c0.1-0.1,0.2-0.2,0.4-0.2
		c0.2-0.1,0.3-0.1,0.5-0.1s0.3,0,0.4,0c0.3,0,0.5,0,0.6,0.1c0.1,0.1,0.2,0.2,0.3,0.4c0.1,0.3,0.1,0.6,0.2,1c0,0.4,0,0.9,0,1.4
		c0,0.7,0,1.5-0.1,2.3c-0.1,0.8-0.2,1.7-0.4,2.5s-0.4,1.7-0.7,2.5s-0.7,1.5-1.1,2.1s-0.9,1.1-1.4,1.5s-1.1,0.6-1.8,0.6
		c-0.8,0-1.4-0.2-2-0.7s-1-1-1.4-1.7c-0.4-0.7-0.7-1.5-1-2.4s-0.5-1.8-0.6-2.6c-0.2-0.9-0.3-1.7-0.4-2.5
		C116.6,72.9,116.5,72.2,116.5,71.7z"/>
	<path d="M134.6,82.1c0,0.1,0,0.3-0.1,0.4c0,0.2-0.1,0.3-0.3,0.5s-0.4,0.3-0.6,0.4s-0.7,0.2-1.1,0.2s-0.9-0.1-1.1-0.2
		s-0.5-0.2-0.6-0.4c-0.1-0.2-0.2-0.3-0.3-0.5s0-0.3,0-0.4V71.5c0-0.3-0.1-0.5-0.2-0.7c-0.1-0.2-0.3-0.3-0.6-0.3
		c-0.2,0-0.3,0-0.4,0.1s-0.2,0.1-0.4,0.2l-0.3-0.3c0.2-0.2,0.4-0.3,0.7-0.5c0.3-0.2,0.5-0.3,0.8-0.4c0.3-0.1,0.6-0.2,1-0.3
		s0.7-0.1,1.1-0.1c0.6,0,1.1,0.1,1.4,0.2c0.3,0.2,0.6,0.4,0.7,0.6s0.2,0.5,0.3,0.7c0,0.3,0,0.5,0,0.7V82.1z M129.9,66
		c0-0.3,0.1-0.5,0.2-0.7s0.3-0.4,0.5-0.6c0.2-0.2,0.4-0.3,0.7-0.4c0.3-0.1,0.6-0.2,0.9-0.2c0.3,0,0.6,0.1,0.9,0.2
		c0.3,0.1,0.5,0.2,0.7,0.4c0.2,0.2,0.4,0.4,0.5,0.6s0.2,0.5,0.2,0.7c0,0.3-0.1,0.5-0.2,0.7c-0.1,0.2-0.3,0.4-0.5,0.6
		c-0.2,0.2-0.4,0.3-0.7,0.4c-0.3,0.1-0.6,0.2-0.9,0.2c-0.3,0-0.6,0-0.9-0.2c-0.3-0.1-0.5-0.2-0.7-0.4c-0.2-0.2-0.4-0.4-0.5-0.6
		C130,66.5,129.9,66.3,129.9,66z"/>
	<path d="M146,76.5c0-1.1-0.1-2.1-0.2-2.8c-0.1-0.7-0.2-1.2-0.4-1.6c-0.2-0.4-0.4-0.6-0.6-0.7c-0.2-0.1-0.4-0.2-0.6-0.2
		c-0.3,0-0.5,0.1-0.7,0.2c-0.2,0.1-0.4,0.3-0.5,0.5c-0.2,0.2-0.3,0.4-0.4,0.5c-0.1,0.2-0.2,0.3-0.3,0.4v9.1c0,0.1,0,0.3-0.1,0.4
		c0,0.2-0.1,0.3-0.3,0.5s-0.4,0.3-0.6,0.4s-0.7,0.2-1.1,0.2s-0.9-0.1-1.1-0.2s-0.5-0.2-0.6-0.4c-0.1-0.2-0.2-0.3-0.3-0.5
		s-0.1-0.3-0.1-0.4V71.5c0-0.3-0.1-0.5-0.2-0.7c-0.1-0.2-0.3-0.3-0.6-0.3c-0.2,0-0.3,0-0.4,0.1s-0.2,0.1-0.4,0.2l-0.3-0.3
		c0.2-0.2,0.4-0.3,0.7-0.5c0.3-0.2,0.5-0.3,0.8-0.4c0.3-0.1,0.6-0.2,1-0.3s0.7-0.1,1.1-0.1c0.6,0,1.1,0.1,1.4,0.3
		c0.3,0.2,0.6,0.4,0.7,0.7s0.2,0.6,0.3,0.9c0,0.3,0,0.5,0,0.7c0.3-0.5,0.7-0.9,1.1-1.3c0.2-0.2,0.4-0.3,0.6-0.5
		c0.2-0.2,0.4-0.3,0.7-0.4s0.5-0.2,0.8-0.3c0.3-0.1,0.5-0.1,0.8-0.1c0.6,0,1.2,0.1,1.6,0.4c0.5,0.2,0.9,0.6,1.2,1.2
		c0.3,0.6,0.6,1.3,0.8,2.2s0.3,2.1,0.3,3.4c0,1.3-0.1,2.5-0.4,3.4c-0.2,1-0.5,1.8-0.9,2.5s-0.8,1.2-1.3,1.7c-0.5,0.4-1,0.8-1.5,1
		s-1,0.4-1.4,0.5s-0.8,0.1-1.2,0.2l-0.2-0.6c0.3-0.1,0.5-0.2,0.8-0.3s0.4-0.3,0.6-0.6c0.2-0.3,0.4-0.6,0.5-1s0.3-0.9,0.4-1.5
		c0.1-0.6,0.2-1.3,0.2-2.2S146,77.6,146,76.5z"/>
	<path d="M160.5,69.9c-0.2-0.9-0.4-1.8-0.7-2.5c-0.3-0.8-0.7-1.5-1.1-2s-0.9-1-1.5-1.4c-0.6-0.3-1.1-0.5-1.8-0.5c-0.4,0-0.7,0-1,0.1
		c-0.3,0.1-0.6,0.2-0.8,0.3c-0.2,0.1-0.4,0.2-0.5,0.4c-0.1,0.1-0.2,0.2-0.3,0.3l-0.4-0.5c0.2-0.3,0.5-0.5,0.8-0.8s0.7-0.5,1-0.6
		c0.4-0.2,0.8-0.3,1.2-0.4c0.4-0.1,0.8-0.2,1.2-0.2c1.3,0,2.5,0.3,3.6,0.9s1.9,1.4,2.6,2.5c0.7,1.1,1.2,2.4,1.5,3.9
		c0.3,1.5,0.5,3.2,0.5,5.1c0,1.5-0.2,2.8-0.5,4c-0.3,1.1-0.7,2.1-1.3,2.9c-0.6,0.8-1.3,1.3-2.1,1.7s-1.7,0.6-2.7,0.6
		c-0.7,0-1.4-0.1-2.1-0.4s-1.4-0.7-2-1.2c-0.6-0.6-1.1-1.3-1.4-2.2s-0.6-2-0.6-3.4c0-1.1,0.2-2.2,0.5-3.1c0.3-0.9,0.8-1.6,1.3-2.3
		s1.2-1.1,1.9-1.4c0.7-0.3,1.5-0.5,2.3-0.5c0.3,0,0.6,0,0.8,0.1c0.2,0.1,0.5,0.1,0.6,0.2c0.2,0.1,0.3,0.2,0.5,0.2
		C160.3,69.7,160.4,69.8,160.5,69.9z M160.7,75.9c0-0.1,0-0.3,0-0.6c0-0.3,0-0.7,0-1.1s0-0.8-0.1-1.3c0-0.4-0.1-0.9-0.2-1.2
		c-0.2-0.3-0.5-0.5-0.7-0.8c-0.3-0.2-0.6-0.3-1-0.3c-0.7,0-1.2,0.5-1.6,1.4s-0.5,2.4-0.5,4.3c0,0.9,0,1.6,0.1,2.4s0.2,1.3,0.4,1.8
		c0.2,0.5,0.4,0.9,0.6,1.2c0.3,0.3,0.5,0.4,0.9,0.4C159.9,82.2,160.7,80.1,160.7,75.9z"/>
	<path d="M166.6,76.3c0-1.2,0.2-2.2,0.5-3.1c0.3-0.9,0.8-1.6,1.4-2.2s1.3-1.1,2-1.4s1.6-0.5,2.4-0.5s1.6,0.1,2.4,0.4
		c0.8,0.3,1.4,0.7,2,1.3s1,1.3,1.4,2.2c0.3,0.9,0.5,1.9,0.5,3.1c0,1.2-0.2,2.3-0.5,3.2c-0.3,0.9-0.8,1.7-1.4,2.3s-1.3,1.1-2,1.4
		s-1.6,0.5-2.4,0.5s-1.6-0.2-2.4-0.5s-1.4-0.8-2-1.4s-1-1.4-1.4-2.3S166.6,77.5,166.6,76.3z M175,76.2c0-0.7,0-1.4-0.1-2.1
		c0-0.7-0.1-1.3-0.3-1.8c-0.1-0.5-0.4-1-0.6-1.3s-0.6-0.5-1.1-0.5s-0.8,0.2-1.1,0.5c-0.3,0.3-0.5,0.8-0.6,1.3
		c-0.1,0.5-0.2,1.2-0.3,1.9c0,0.7-0.1,1.4-0.1,2.1c0,0.7,0,1.4,0.1,2.1s0.1,1.3,0.3,1.9s0.4,1,0.6,1.3c0.3,0.3,0.6,0.5,1.1,0.5
		s0.8-0.2,1.1-0.5c0.3-0.3,0.5-0.8,0.6-1.4c0.1-0.6,0.2-1.2,0.3-1.9S175,76.9,175,76.2z"/>
	<path d="M192.1,70.3c-0.3,0-0.6,0-0.9,0.1c-0.3,0.1-0.5,0.2-0.7,0.3s-0.3,0.2-0.5,0.4c-0.1,0.1-0.2,0.3-0.2,0.4
		c0,0.1,0.1,0.2,0.2,0.3c0.1,0.1,0.3,0.1,0.5,0.2c0.2,0.1,0.3,0.2,0.5,0.3c0.1,0.1,0.2,0.4,0.2,0.6c0,0.2,0,0.4-0.1,0.5
		c-0.1,0.2-0.2,0.3-0.3,0.4s-0.3,0.2-0.5,0.3s-0.4,0.1-0.6,0.1c-0.5,0-0.9-0.2-1.2-0.5c-0.3-0.3-0.5-0.8-0.5-1.4
		c0-0.6,0.1-1,0.4-1.4s0.7-0.7,1.1-1c0.5-0.3,1-0.4,1.6-0.6s1.2-0.2,1.8-0.2c0.7,0,1.4,0.1,2,0.2c0.6,0.2,1.2,0.4,1.7,0.7
		c0.5,0.3,0.9,0.8,1.2,1.3s0.4,1.1,0.4,1.9V81c0,0.1,0,0.2,0,0.3c0,0.1,0,0.2,0.1,0.3s0.1,0.2,0.2,0.2s0.2,0.1,0.3,0.1
		c0.2,0,0.3-0.1,0.5-0.2s0.3-0.2,0.4-0.4l0.3,0.3c-0.1,0.2-0.3,0.4-0.5,0.6c-0.2,0.2-0.4,0.4-0.7,0.6c-0.3,0.2-0.6,0.4-1,0.5
		s-0.8,0.2-1.2,0.2c-0.6,0-1.1-0.2-1.5-0.5s-0.7-0.9-0.9-1.6c-0.3,0.4-0.6,0.7-0.9,1c-0.3,0.3-0.6,0.5-1,0.6s-0.7,0.3-1,0.4
		c-0.3,0.1-0.7,0.1-1,0.1c-0.4,0-0.9-0.1-1.3-0.2s-0.8-0.4-1.1-0.6c-0.3-0.3-0.6-0.7-0.8-1.2c-0.2-0.5-0.3-1.1-0.3-1.7
		c0-0.8,0.2-1.5,0.5-2c0.3-0.5,0.8-1,1.3-1.3c0.5-0.4,1.1-0.7,1.8-0.9c0.7-0.3,1.4-0.5,2.1-0.8c0.5-0.2,0.9-0.5,1.2-0.9
		c0.2-0.4,0.4-0.8,0.4-1.3c0-0.7-0.2-1.2-0.6-1.6C193.3,70.5,192.8,70.3,192.1,70.3z M194.3,76.2c0-0.2-0.1-0.4-0.2-0.5
		c-0.1-0.1-0.3-0.2-0.6-0.2c-0.3,0-0.6,0.1-0.9,0.2c-0.3,0.1-0.5,0.4-0.8,0.6c-0.2,0.3-0.4,0.6-0.5,1c-0.1,0.4-0.2,0.9-0.2,1.4
		c0,0.5,0,1,0.1,1.3c0.1,0.3,0.2,0.6,0.3,0.8s0.3,0.3,0.5,0.4s0.4,0.1,0.5,0.1c0.2,0,0.5-0.1,0.7-0.2s0.4-0.3,0.5-0.5
		s0.3-0.4,0.4-0.6c0.1-0.2,0.1-0.5,0.1-0.7V76.2z"/>
	<path d="M201.7,71.7c-0.1-0.4-0.1-0.6-0.3-0.8c-0.1-0.2-0.3-0.3-0.6-0.3c-0.2,0-0.3,0-0.4,0.1s-0.2,0.1-0.4,0.2l-0.3-0.3
		c0.2-0.2,0.4-0.3,0.7-0.5c0.3-0.2,0.5-0.3,0.8-0.4c0.3-0.1,0.6-0.2,1-0.3s0.7-0.1,1.1-0.1c0.5,0,1,0.1,1.3,0.3
		c0.3,0.2,0.6,0.4,0.8,0.7c0.2,0.3,0.3,0.6,0.4,0.9c0.1,0.3,0.1,0.6,0.2,0.9c0.3,2.8,0.7,4.9,1.1,6.3s0.9,2.1,1.5,2.1
		c0.3,0,0.6-0.2,0.9-0.5c0.3-0.3,0.6-0.8,0.8-1.4s0.4-1.3,0.5-2.1c0.1-0.8,0.2-1.7,0.2-2.6c0-0.6,0-1.1-0.1-1.5
		c-0.1-0.4-0.2-0.8-0.3-1c-0.1-0.3-0.2-0.5-0.3-0.7c-0.1-0.2-0.1-0.4-0.1-0.5c0-0.1,0.1-0.3,0.2-0.3c0.1-0.1,0.2-0.2,0.4-0.2
		c0.2-0.1,0.3-0.1,0.5-0.1s0.3,0,0.4,0c0.3,0,0.5,0,0.6,0.1c0.1,0.1,0.2,0.2,0.3,0.4c0.1,0.3,0.1,0.6,0.2,1c0,0.4,0,0.9,0,1.4
		c0,0.7,0,1.5-0.1,2.3c-0.1,0.8-0.2,1.7-0.4,2.5s-0.4,1.7-0.7,2.5s-0.7,1.5-1.1,2.1s-0.9,1.1-1.4,1.5s-1.1,0.6-1.8,0.6
		c-0.8,0-1.4-0.2-2-0.7s-1-1-1.4-1.7c-0.4-0.7-0.7-1.5-1-2.4s-0.5-1.8-0.6-2.6c-0.2-0.9-0.3-1.7-0.4-2.5
		C201.8,72.9,201.8,72.2,201.7,71.7z"/>
	<path d="M218.7,77.1c0,0.3,0,0.6,0.1,1s0.2,0.7,0.4,1c0.2,0.3,0.4,0.7,0.6,1s0.5,0.6,0.8,0.8s0.7,0.4,1,0.6
		c0.4,0.1,0.8,0.2,1.3,0.2c0.3,0,0.6,0,0.9-0.1c0.3-0.1,0.5-0.2,0.8-0.3c0.2-0.1,0.5-0.3,0.7-0.4c0.2-0.2,0.4-0.3,0.7-0.5l0.3,0.3
		c-0.2,0.3-0.5,0.6-0.8,0.9c-0.3,0.3-0.7,0.7-1.2,1c-0.5,0.3-1,0.5-1.6,0.7s-1.3,0.3-2.1,0.3s-1.6-0.1-2.3-0.4s-1.4-0.7-2-1.3
		s-1.1-1.3-1.4-2.1c-0.4-0.9-0.5-1.9-0.5-3c0-0.8,0.1-1.6,0.3-2.3c0.2-0.7,0.5-1.3,0.9-1.9c0.4-0.6,0.8-1,1.3-1.5
		c0.5-0.4,1-0.8,1.5-1c0.5-0.3,1.1-0.5,1.6-0.6c0.6-0.1,1.1-0.2,1.6-0.2c0.7,0,1.3,0.1,1.8,0.2c0.5,0.1,0.9,0.3,1.3,0.6
		s0.6,0.5,0.7,0.9c0.2,0.3,0.2,0.7,0.2,1c0,0.4-0.1,0.8-0.4,1.2s-0.6,0.6-1,0.9L218.7,77.1z M221.4,74.3c0.1-0.1,0.2-0.1,0.3-0.2
		s0.1-0.2,0.2-0.2s0.1-0.2,0.1-0.4c0-0.1,0-0.3,0-0.5c0-0.2,0-0.5-0.1-0.8c0-0.3-0.1-0.5-0.3-0.8s-0.3-0.5-0.5-0.6s-0.4-0.2-0.7-0.2
		c-0.3,0-0.6,0.1-0.8,0.3c-0.2,0.2-0.4,0.4-0.6,0.8c-0.2,0.3-0.3,0.7-0.4,1.1s-0.2,0.8-0.2,1.2c0,0.4-0.1,0.8-0.1,1.2s0,0.7,0,0.9
		L221.4,74.3z"/>
	<path d="M236.1,76.5c0-1.1-0.1-2.1-0.2-2.8c-0.1-0.7-0.2-1.2-0.4-1.6c-0.2-0.4-0.4-0.6-0.6-0.7c-0.2-0.1-0.4-0.2-0.6-0.2
		c-0.3,0-0.5,0.1-0.7,0.2c-0.2,0.1-0.4,0.3-0.5,0.5c-0.2,0.2-0.3,0.4-0.4,0.5c-0.1,0.2-0.2,0.3-0.3,0.4v9.1c0,0.1,0,0.3-0.1,0.4
		c0,0.2-0.1,0.3-0.3,0.5s-0.4,0.3-0.6,0.4s-0.7,0.2-1.1,0.2s-0.9-0.1-1.1-0.2s-0.5-0.2-0.6-0.4c-0.1-0.2-0.2-0.3-0.3-0.5
		s-0.1-0.3-0.1-0.4V71.5c0-0.3-0.1-0.5-0.2-0.7c-0.1-0.2-0.3-0.3-0.6-0.3c-0.2,0-0.3,0-0.4,0.1s-0.2,0.1-0.4,0.2l-0.3-0.3
		c0.2-0.2,0.4-0.3,0.7-0.5c0.3-0.2,0.5-0.3,0.8-0.4c0.3-0.1,0.6-0.2,1-0.3s0.7-0.1,1.1-0.1c0.6,0,1.1,0.1,1.4,0.3
		c0.3,0.2,0.6,0.4,0.7,0.7s0.2,0.6,0.3,0.9c0,0.3,0,0.5,0,0.7c0.3-0.5,0.7-0.9,1.1-1.3c0.2-0.2,0.4-0.3,0.6-0.5
		c0.2-0.2,0.4-0.3,0.7-0.4s0.5-0.2,0.8-0.3c0.3-0.1,0.5-0.1,0.8-0.1c0.6,0,1.2,0.1,1.6,0.4c0.5,0.2,0.9,0.6,1.2,1.2
		c0.3,0.6,0.6,1.3,0.8,2.2s0.3,2.1,0.3,3.4c0,1.3-0.1,2.5-0.4,3.4c-0.2,1-0.5,1.8-0.9,2.5s-0.8,1.2-1.3,1.7c-0.5,0.4-1,0.8-1.5,1
		s-1,0.4-1.4,0.5s-0.8,0.1-1.2,0.2l-0.2-0.6c0.3-0.1,0.5-0.2,0.8-0.3s0.4-0.3,0.6-0.6c0.2-0.3,0.4-0.6,0.5-1s0.3-0.9,0.4-1.5
		c0.1-0.6,0.2-1.3,0.2-2.2S236.1,77.6,236.1,76.5z"/>
	<path d="M247.6,70.3v10.1c0,0.5,0.1,0.8,0.3,1c0.2,0.2,0.4,0.3,0.8,0.3c0.2,0,0.5-0.1,0.7-0.2s0.4-0.3,0.5-0.5
		c0.2-0.2,0.3-0.4,0.4-0.7l0.4,0.2c-0.1,0.3-0.3,0.6-0.5,1c-0.2,0.3-0.4,0.7-0.7,1c-0.3,0.3-0.7,0.5-1.2,0.7s-1.1,0.3-1.8,0.3
		c-0.4,0-0.8-0.1-1.2-0.2s-0.7-0.3-1-0.6c-0.3-0.3-0.5-0.6-0.7-1s-0.3-0.8-0.3-1.4V70.3h-1.5v-1c0.3,0,0.6-0.1,1.1-0.2
		c0.5-0.1,0.9-0.4,1.4-0.7c0.5-0.3,0.9-0.7,1.3-1.2s0.7-1.2,0.9-1.9h1.1v4h2.2c0.7,0,1.1-0.1,1.1-0.4c0-0.1,0-0.2-0.1-0.2
		c-0.1,0-0.2-0.1-0.3-0.1c-0.1,0-0.2-0.1-0.3-0.2c-0.1-0.1-0.1-0.2-0.1-0.5c0-0.3,0.1-0.5,0.2-0.6c0.2-0.1,0.4-0.2,0.6-0.2
		c0.2,0,0.3,0,0.4,0.1s0.2,0.2,0.3,0.3c0.1,0.1,0.1,0.2,0.2,0.4c0,0.1,0.1,0.3,0.1,0.4c0,0.6-0.2,1.1-0.5,1.4
		c-0.3,0.4-0.9,0.5-1.6,0.5H247.6z"/>
	<path d="M264.8,81c0,0.1,0,0.2,0,0.3s0,0.2,0.1,0.3c0,0.1,0.1,0.2,0.2,0.2s0.2,0.1,0.3,0.1c0.2,0,0.3-0.1,0.5-0.2s0.3-0.2,0.4-0.4
		l0.3,0.3c-0.1,0.2-0.3,0.4-0.5,0.6s-0.5,0.5-0.7,0.7c-0.3,0.2-0.6,0.4-1,0.5s-0.8,0.2-1.3,0.2c-0.4,0-0.8-0.1-1-0.2
		s-0.5-0.2-0.8-0.4s-0.4-0.4-0.5-0.6c-0.1-0.2-0.2-0.5-0.2-0.8V81c-0.5,0.5-0.9,0.9-1.4,1.3c-0.2,0.2-0.5,0.3-0.7,0.5
		c-0.2,0.2-0.5,0.3-0.8,0.4s-0.5,0.2-0.8,0.3c-0.3,0.1-0.6,0.1-0.8,0.1c-0.5,0-1-0.1-1.4-0.3s-0.7-0.5-0.9-0.8
		c-0.2-0.3-0.4-0.7-0.5-1.1c-0.1-0.4-0.2-0.8-0.2-1.2v-8.5c0-0.1,0-0.2,0-0.3s0-0.2-0.1-0.3c0-0.1-0.1-0.2-0.2-0.2s-0.2-0.1-0.3-0.1
		c-0.2,0-0.3,0.1-0.5,0.2s-0.3,0.2-0.4,0.4l-0.3-0.3c0.1-0.2,0.3-0.4,0.5-0.6s0.5-0.5,0.7-0.7c0.3-0.2,0.6-0.4,1-0.5
		c0.4-0.1,0.8-0.2,1.3-0.2c0.4,0,0.8,0.1,1.1,0.2c0.3,0.1,0.6,0.2,0.8,0.4s0.4,0.4,0.5,0.6c0.1,0.2,0.2,0.5,0.2,0.8v9.1
		c0,0.1,0,0.3,0.1,0.4c0,0.1,0.1,0.3,0.2,0.4s0.2,0.2,0.3,0.3s0.3,0.1,0.4,0.1c0.3,0,0.5-0.1,0.8-0.2s0.5-0.3,0.7-0.5
		c0.2-0.2,0.4-0.4,0.6-0.6c0.2-0.2,0.3-0.3,0.3-0.4v-8c0-0.1,0-0.2,0-0.3s0-0.2-0.1-0.3c0-0.1-0.1-0.2-0.2-0.2s-0.2-0.1-0.3-0.1
		c-0.2,0-0.3,0.1-0.5,0.2s-0.3,0.2-0.4,0.4l-0.3-0.3c0.1-0.2,0.3-0.4,0.5-0.6s0.5-0.5,0.7-0.7c0.3-0.2,0.6-0.4,1-0.5
		c0.4-0.1,0.8-0.2,1.3-0.2c0.4,0,0.8,0.1,1.1,0.2c0.3,0.1,0.6,0.2,0.8,0.4s0.4,0.4,0.5,0.6c0.1,0.2,0.2,0.5,0.2,0.8V81z"/>
	<path d="M272.8,72c0.3-0.5,0.7-1,1.1-1.4c0.2-0.2,0.3-0.4,0.5-0.5c0.2-0.2,0.4-0.3,0.6-0.5s0.4-0.2,0.6-0.3s0.4-0.1,0.7-0.1
		c0.5,0,0.8,0.1,1.1,0.4c0.3,0.3,0.4,0.7,0.4,1.2c0,0.3,0,0.6-0.1,0.9s-0.1,0.6-0.3,1H277c-0.1-0.3-0.2-0.5-0.4-0.7
		c-0.2-0.2-0.5-0.3-0.9-0.3c-0.3,0-0.6,0.1-0.8,0.2c-0.3,0.1-0.5,0.2-0.8,0.4c-0.3,0.2-0.5,0.3-0.7,0.5c-0.2,0.2-0.4,0.4-0.6,0.5
		v8.9c0,0.1,0,0.3-0.1,0.4s-0.1,0.3-0.3,0.5c-0.1,0.1-0.4,0.3-0.6,0.4s-0.7,0.2-1.1,0.2s-0.9-0.1-1.1-0.2s-0.5-0.2-0.6-0.4
		c-0.1-0.2-0.2-0.3-0.3-0.5s-0.1-0.3-0.1-0.4V71.5c0-0.3-0.1-0.5-0.2-0.7c-0.1-0.2-0.3-0.3-0.6-0.3c-0.2,0-0.3,0-0.4,0.1
		s-0.2,0.1-0.4,0.2l-0.3-0.3c0.2-0.2,0.4-0.3,0.7-0.5c0.3-0.2,0.5-0.3,0.8-0.4c0.3-0.1,0.6-0.2,1-0.3s0.7-0.1,1.1-0.1
		c0.4,0,0.7,0.1,1,0.2c0.3,0.1,0.5,0.2,0.7,0.4c0.2,0.2,0.3,0.4,0.4,0.6c0.1,0.2,0.2,0.4,0.2,0.6c0,0.2,0.1,0.4,0.1,0.6
		C272.8,71.7,272.8,71.9,272.8,72z"/>
	<path d="M282.5,77.1c0,0.3,0,0.6,0.1,1s0.2,0.7,0.4,1c0.2,0.3,0.4,0.7,0.6,1s0.5,0.6,0.8,0.8s0.7,0.4,1,0.6
		c0.4,0.1,0.8,0.2,1.3,0.2c0.3,0,0.6,0,0.9-0.1c0.3-0.1,0.5-0.2,0.8-0.3c0.2-0.1,0.5-0.3,0.7-0.4c0.2-0.2,0.4-0.3,0.7-0.5l0.3,0.3
		c-0.2,0.3-0.5,0.6-0.8,0.9c-0.3,0.3-0.7,0.7-1.2,1c-0.5,0.3-1,0.5-1.6,0.7s-1.3,0.3-2.1,0.3s-1.6-0.1-2.3-0.4s-1.4-0.7-2-1.3
		s-1.1-1.3-1.4-2.1c-0.4-0.9-0.5-1.9-0.5-3c0-0.8,0.1-1.6,0.3-2.3c0.2-0.7,0.5-1.3,0.9-1.9c0.4-0.6,0.8-1,1.3-1.5
		c0.5-0.4,1-0.8,1.5-1c0.5-0.3,1.1-0.5,1.6-0.6c0.6-0.1,1.1-0.2,1.6-0.2c0.7,0,1.3,0.1,1.8,0.2c0.5,0.1,0.9,0.3,1.3,0.6
		s0.6,0.5,0.7,0.9c0.2,0.3,0.2,0.7,0.2,1c0,0.4-0.1,0.8-0.4,1.2s-0.6,0.6-1,0.9L282.5,77.1z M285.2,74.3c0.1-0.1,0.2-0.1,0.3-0.2
		s0.1-0.2,0.2-0.2s0.1-0.2,0.1-0.4c0-0.1,0-0.3,0-0.5c0-0.2,0-0.5-0.1-0.8c0-0.3-0.1-0.5-0.3-0.8s-0.3-0.5-0.5-0.6s-0.4-0.2-0.7-0.2
		c-0.3,0-0.6,0.1-0.8,0.3c-0.2,0.2-0.4,0.4-0.6,0.8c-0.2,0.3-0.3,0.7-0.4,1.1s-0.2,0.8-0.2,1.2c0,0.4-0.1,0.8-0.1,1.2s0,0.7,0,0.9
		L285.2,74.3z"/>
	<path d="M296.3,82.1c0,0.1,0,0.3-0.1,0.4c0,0.2-0.1,0.3-0.3,0.5s-0.4,0.3-0.6,0.4s-0.7,0.2-1.1,0.2s-0.9-0.1-1.1-0.2
		s-0.5-0.2-0.6-0.4c-0.1-0.2-0.2-0.3-0.3-0.5s0-0.3,0-0.4V71.5c0-0.3-0.1-0.5-0.2-0.7c-0.1-0.2-0.3-0.3-0.6-0.3
		c-0.2,0-0.3,0-0.4,0.1s-0.2,0.1-0.4,0.2l-0.3-0.3c0.2-0.2,0.4-0.3,0.7-0.5c0.3-0.2,0.5-0.3,0.8-0.4c0.3-0.1,0.6-0.2,1-0.3
		s0.7-0.1,1.1-0.1c0.6,0,1.1,0.1,1.4,0.2c0.3,0.2,0.6,0.4,0.7,0.6s0.2,0.5,0.3,0.7c0,0.3,0,0.5,0,0.7V82.1z M291.7,66
		c0-0.3,0.1-0.5,0.2-0.7s0.3-0.4,0.5-0.6c0.2-0.2,0.4-0.3,0.7-0.4c0.3-0.1,0.6-0.2,0.9-0.2c0.3,0,0.6,0.1,0.9,0.2
		c0.3,0.1,0.5,0.2,0.7,0.4c0.2,0.2,0.4,0.4,0.5,0.6s0.2,0.5,0.2,0.7c0,0.3-0.1,0.5-0.2,0.7c-0.1,0.2-0.3,0.4-0.5,0.6
		c-0.2,0.2-0.4,0.3-0.7,0.4c-0.3,0.1-0.6,0.2-0.9,0.2c-0.3,0-0.6,0-0.9-0.2c-0.3-0.1-0.5-0.2-0.7-0.4c-0.2-0.2-0.4-0.4-0.5-0.6
		C291.7,66.5,291.7,66.3,291.7,66z"/>
	<path d="M304.1,72c0.3-0.5,0.7-1,1.1-1.4c0.2-0.2,0.3-0.4,0.5-0.5c0.2-0.2,0.4-0.3,0.6-0.5s0.4-0.2,0.6-0.3s0.4-0.1,0.7-0.1
		c0.5,0,0.8,0.1,1.1,0.4c0.3,0.3,0.4,0.7,0.4,1.2c0,0.3,0,0.6-0.1,0.9s-0.1,0.6-0.3,1h-0.4c-0.1-0.3-0.2-0.5-0.4-0.7
		c-0.2-0.2-0.5-0.3-0.9-0.3c-0.3,0-0.6,0.1-0.8,0.2c-0.3,0.1-0.5,0.2-0.8,0.4c-0.3,0.2-0.5,0.3-0.7,0.5c-0.2,0.2-0.4,0.4-0.6,0.5
		v8.9c0,0.1,0,0.3-0.1,0.4s-0.1,0.3-0.3,0.5c-0.1,0.1-0.4,0.3-0.6,0.4s-0.7,0.2-1.1,0.2s-0.9-0.1-1.1-0.2s-0.5-0.2-0.6-0.4
		c-0.1-0.2-0.2-0.3-0.3-0.5s-0.1-0.3-0.1-0.4V71.5c0-0.3-0.1-0.5-0.2-0.7c-0.1-0.2-0.3-0.3-0.6-0.3c-0.2,0-0.3,0-0.4,0.1
		s-0.2,0.1-0.4,0.2l-0.3-0.3c0.2-0.2,0.4-0.3,0.7-0.5c0.3-0.2,0.5-0.3,0.8-0.4c0.3-0.1,0.6-0.2,1-0.3s0.7-0.1,1.1-0.1
		c0.4,0,0.7,0.1,1,0.2c0.3,0.1,0.5,0.2,0.7,0.4c0.2,0.2,0.3,0.4,0.4,0.6c0.1,0.2,0.2,0.4,0.2,0.6c0,0.2,0.1,0.4,0.1,0.6
		C304.1,71.7,304.1,71.9,304.1,72z"/>
	<path d="M309.7,76.3c0-1.2,0.2-2.2,0.5-3.1c0.3-0.9,0.8-1.6,1.4-2.2s1.3-1.1,2-1.4s1.6-0.5,2.4-0.5s1.6,0.1,2.4,0.4
		c0.8,0.3,1.4,0.7,2,1.3s1,1.3,1.4,2.2c0.3,0.9,0.5,1.9,0.5,3.1c0,1.2-0.2,2.3-0.5,3.2c-0.3,0.9-0.8,1.7-1.4,2.3s-1.3,1.1-2,1.4
		s-1.6,0.5-2.4,0.5s-1.6-0.2-2.4-0.5s-1.4-0.8-2-1.4s-1-1.4-1.4-2.3S309.7,77.5,309.7,76.3z M318.1,76.2c0-0.7,0-1.4-0.1-2.1
		c0-0.7-0.1-1.3-0.3-1.8c-0.1-0.5-0.4-1-0.6-1.3s-0.6-0.5-1.1-0.5s-0.8,0.2-1.1,0.5c-0.3,0.3-0.5,0.8-0.6,1.3
		c-0.1,0.5-0.2,1.2-0.3,1.9c0,0.7-0.1,1.4-0.1,2.1c0,0.7,0,1.4,0.1,2.1s0.1,1.3,0.3,1.9s0.4,1,0.6,1.3c0.3,0.3,0.6,0.5,1.1,0.5
		s0.8-0.2,1.1-0.5c0.3-0.3,0.5-0.8,0.6-1.4c0.1-0.6,0.2-1.2,0.3-1.9S318.1,76.9,318.1,76.2z"/>
	<path d="M326,81.3c0-0.3,0.1-0.6,0.2-0.9c0.1-0.3,0.3-0.5,0.5-0.7c0.2-0.2,0.4-0.4,0.7-0.5s0.6-0.2,0.9-0.2s0.6,0.1,0.9,0.2
		s0.5,0.3,0.7,0.5c0.2,0.2,0.4,0.5,0.5,0.7c0.1,0.3,0.2,0.6,0.2,0.9c0,0.3-0.1,0.6-0.2,0.9c-0.1,0.3-0.3,0.5-0.5,0.7
		s-0.5,0.4-0.7,0.5s-0.6,0.2-0.9,0.2s-0.6-0.1-0.9-0.2s-0.5-0.3-0.7-0.5s-0.4-0.4-0.5-0.7C326.1,81.9,326,81.6,326,81.3z
		 M326.1,64.3c0-0.1,0-0.2,0.1-0.4c0-0.2,0.1-0.3,0.3-0.5s0.3-0.3,0.6-0.4c0.3-0.1,0.7-0.2,1.1-0.2s0.9,0,1.2,0.1s0.5,0.2,0.7,0.4
		c0.2,0.1,0.3,0.3,0.3,0.5c0,0.2,0.1,0.3,0.1,0.4c-0.1,0.8-0.1,1.6-0.2,2.4S330,68.2,330,69c-0.1,0.8-0.2,1.5-0.3,2.2
		c-0.1,0.7-0.2,1.4-0.3,2c-0.2,1.4-0.4,2.8-0.6,4.2h-1c-0.2-1.3-0.5-2.7-0.7-4.2c-0.1-0.6-0.2-1.3-0.3-2c-0.1-0.7-0.2-1.4-0.3-2.2
		c-0.1-0.8-0.2-1.5-0.2-2.3S326.2,65,326.1,64.3z"/>
	<path d="M45.5,152.5c0.4,0,0.7-0.1,1.1-0.2c0.4-0.1,0.7-0.4,1-0.7c0.3-0.3,0.5-0.7,0.7-1.2s0.3-1.1,0.3-1.8c0-0.8-0.2-1.5-0.6-2.2
		c-0.4-0.7-0.9-1.4-1.4-2.1s-1.2-1.4-1.8-2.1c-0.7-0.7-1.3-1.4-1.8-2.1c-0.6-0.7-1-1.5-1.4-2.2c-0.4-0.8-0.6-1.6-0.6-2.4
		c0-0.8,0.2-1.6,0.5-2.2s0.7-1.2,1.2-1.7c0.5-0.5,1.1-0.8,1.8-1.1c0.7-0.3,1.4-0.4,2.2-0.4c0.8,0,1.6,0.1,2.3,0.3s1.2,0.4,1.7,0.7
		c0.5,0.3,0.8,0.7,1,1.1c0.2,0.4,0.4,0.9,0.4,1.3c0,0.2,0,0.4-0.1,0.7s-0.2,0.4-0.3,0.6s-0.3,0.4-0.5,0.5c-0.2,0.1-0.5,0.2-0.7,0.2
		c-0.3,0-0.6-0.1-0.7-0.3s-0.3-0.5-0.4-0.8s-0.1-0.6-0.2-1c-0.1-0.4-0.1-0.7-0.3-1s-0.3-0.6-0.5-0.8s-0.6-0.3-1-0.3
		c-0.2,0-0.5,0.1-0.7,0.2s-0.5,0.3-0.7,0.5c-0.2,0.2-0.4,0.5-0.5,0.9c-0.1,0.3-0.2,0.8-0.2,1.2c0,0.5,0.1,1.1,0.3,1.6s0.5,1,0.9,1.5
		s0.8,1,1.3,1.5s1,1,1.5,1.5c0.5,0.5,1,1,1.5,1.6c0.5,0.5,0.9,1.1,1.3,1.7c0.4,0.6,0.7,1.2,0.9,1.8c0.2,0.6,0.3,1.3,0.3,2
		c0,1-0.2,1.9-0.6,2.8s-0.9,1.5-1.6,2c-0.7,0.6-1.5,1-2.4,1.3c-0.9,0.3-1.9,0.4-2.9,0.4c-0.9,0-1.8-0.1-2.5-0.3s-1.3-0.5-1.8-0.9
		s-0.9-0.8-1.1-1.3c-0.3-0.5-0.4-1-0.4-1.5c0-0.2,0-0.5,0.1-0.7c0.1-0.3,0.2-0.5,0.3-0.7c0.1-0.2,0.3-0.4,0.5-0.5
		c0.2-0.1,0.4-0.2,0.7-0.2c0.3,0,0.5,0.1,0.7,0.2s0.3,0.3,0.4,0.5c0.1,0.2,0.2,0.5,0.2,0.8c0.1,0.3,0.1,0.6,0.2,0.9s0.2,0.6,0.3,0.9
		c0.1,0.3,0.3,0.6,0.5,0.8c0.2,0.2,0.4,0.4,0.7,0.5S45,152.5,45.5,152.5z"/>
	<path d="M59.1,144.3c0,0.3,0,0.6,0.1,1s0.2,0.7,0.4,1c0.2,0.3,0.4,0.7,0.6,1s0.5,0.6,0.8,0.8s0.7,0.4,1,0.6
		c0.4,0.1,0.8,0.2,1.3,0.2c0.3,0,0.6,0,0.9-0.1c0.3-0.1,0.5-0.2,0.8-0.3c0.2-0.1,0.5-0.3,0.7-0.4c0.2-0.2,0.4-0.3,0.7-0.5l0.3,0.3
		c-0.2,0.3-0.5,0.6-0.8,0.9c-0.3,0.3-0.7,0.7-1.2,1c-0.5,0.3-1,0.5-1.6,0.7s-1.3,0.3-2.1,0.3s-1.6-0.1-2.3-0.4s-1.4-0.7-2-1.3
		s-1.1-1.3-1.4-2.1c-0.4-0.9-0.5-1.9-0.5-3c0-0.8,0.1-1.6,0.3-2.3c0.2-0.7,0.5-1.3,0.9-1.9c0.4-0.6,0.8-1,1.3-1.5
		c0.5-0.4,1-0.8,1.5-1c0.5-0.3,1.1-0.5,1.6-0.6c0.6-0.1,1.1-0.2,1.6-0.2c0.7,0,1.3,0.1,1.8,0.2c0.5,0.1,0.9,0.3,1.3,0.6
		s0.6,0.5,0.7,0.9c0.2,0.3,0.2,0.7,0.2,1c0,0.4-0.1,0.8-0.4,1.2s-0.6,0.6-1,0.9L59.1,144.3z M61.9,141.5c0.1-0.1,0.2-0.1,0.3-0.2
		s0.1-0.2,0.2-0.2s0.1-0.2,0.1-0.4c0-0.1,0-0.3,0-0.5c0-0.2,0-0.5-0.1-0.8c0-0.3-0.1-0.5-0.3-0.8s-0.3-0.5-0.5-0.6s-0.4-0.2-0.7-0.2
		c-0.3,0-0.6,0.1-0.8,0.3c-0.2,0.2-0.4,0.4-0.6,0.8c-0.2,0.3-0.3,0.7-0.4,1.1s-0.2,0.8-0.2,1.2c0,0.4-0.1,0.8-0.1,1.2s0,0.7,0,0.9
		L61.9,141.5z"/>
	<path d="M72.9,139.2c0.3-0.5,0.7-1,1.1-1.4c0.2-0.2,0.3-0.4,0.5-0.5c0.2-0.2,0.4-0.3,0.6-0.5s0.4-0.2,0.6-0.3s0.4-0.1,0.7-0.1
		c0.5,0,0.8,0.1,1.1,0.4c0.3,0.3,0.4,0.7,0.4,1.2c0,0.3,0,0.6-0.1,0.9s-0.1,0.6-0.3,1h-0.4c-0.1-0.3-0.2-0.5-0.4-0.7
		c-0.2-0.2-0.5-0.3-0.9-0.3c-0.3,0-0.6,0.1-0.8,0.2c-0.3,0.1-0.5,0.2-0.8,0.4c-0.3,0.2-0.5,0.3-0.7,0.5c-0.2,0.2-0.4,0.4-0.6,0.5
		v8.9c0,0.1,0,0.3-0.1,0.4s-0.1,0.3-0.3,0.5c-0.1,0.1-0.4,0.3-0.6,0.4s-0.7,0.2-1.1,0.2s-0.9-0.1-1.1-0.2s-0.5-0.2-0.6-0.4
		c-0.1-0.2-0.2-0.3-0.3-0.5s-0.1-0.3-0.1-0.4v-10.6c0-0.3-0.1-0.5-0.2-0.7c-0.1-0.2-0.3-0.3-0.6-0.3c-0.2,0-0.3,0-0.4,0.1
		s-0.2,0.1-0.4,0.2l-0.3-0.3c0.2-0.2,0.4-0.3,0.7-0.5c0.3-0.2,0.5-0.3,0.8-0.4c0.3-0.1,0.6-0.2,1-0.3s0.7-0.1,1.1-0.1
		c0.4,0,0.7,0.1,1,0.2c0.3,0.1,0.5,0.2,0.7,0.4c0.2,0.2,0.3,0.4,0.4,0.6c0.1,0.2,0.2,0.4,0.2,0.6c0,0.2,0.1,0.4,0.1,0.6
		C72.9,138.9,72.9,139.1,72.9,139.2z"/>
	<path d="M82.6,144.3c0,0.3,0,0.6,0.1,1s0.2,0.7,0.4,1c0.2,0.3,0.4,0.7,0.6,1s0.5,0.6,0.8,0.8s0.7,0.4,1,0.6
		c0.4,0.1,0.8,0.2,1.3,0.2c0.3,0,0.6,0,0.9-0.1c0.3-0.1,0.5-0.2,0.8-0.3c0.2-0.1,0.5-0.3,0.7-0.4c0.2-0.2,0.4-0.3,0.7-0.5l0.3,0.3
		c-0.2,0.3-0.5,0.6-0.8,0.9c-0.3,0.3-0.7,0.7-1.2,1c-0.5,0.3-1,0.5-1.6,0.7s-1.3,0.3-2.1,0.3s-1.6-0.1-2.3-0.4s-1.4-0.7-2-1.3
		s-1.1-1.3-1.4-2.1c-0.4-0.9-0.5-1.9-0.5-3c0-0.8,0.1-1.6,0.3-2.3c0.2-0.7,0.5-1.3,0.9-1.9c0.4-0.6,0.8-1,1.3-1.5
		c0.5-0.4,1-0.8,1.5-1c0.5-0.3,1.1-0.5,1.6-0.6c0.6-0.1,1.1-0.2,1.6-0.2c0.7,0,1.3,0.1,1.8,0.2c0.5,0.1,0.9,0.3,1.3,0.6
		s0.6,0.5,0.7,0.9c0.2,0.3,0.2,0.7,0.2,1c0,0.4-0.1,0.8-0.4,1.2s-0.6,0.6-1,0.9L82.6,144.3z M85.4,141.5c0.1-0.1,0.2-0.1,0.3-0.2
		s0.1-0.2,0.2-0.2s0.1-0.2,0.1-0.4c0-0.1,0-0.3,0-0.5c0-0.2,0-0.5-0.1-0.8c0-0.3-0.1-0.5-0.3-0.8s-0.3-0.5-0.5-0.6s-0.4-0.2-0.7-0.2
		c-0.3,0-0.6,0.1-0.8,0.3c-0.2,0.2-0.4,0.4-0.6,0.8c-0.2,0.3-0.3,0.7-0.4,1.1s-0.2,0.8-0.2,1.2c0,0.4-0.1,0.8-0.1,1.2s0,0.7,0,0.9
		L85.4,141.5z"/>
	<path d="M96.4,149.3c0,0.1,0,0.3-0.1,0.4c0,0.2-0.1,0.3-0.3,0.5s-0.4,0.3-0.6,0.4s-0.7,0.2-1.1,0.2s-0.9-0.1-1.1-0.2
		s-0.5-0.2-0.6-0.4c-0.1-0.2-0.2-0.3-0.3-0.5s0-0.3,0-0.4v-10.6c0-0.3-0.1-0.5-0.2-0.7c-0.1-0.2-0.3-0.3-0.6-0.3
		c-0.2,0-0.3,0-0.4,0.1s-0.2,0.1-0.4,0.2l-0.3-0.3c0.2-0.2,0.4-0.3,0.7-0.5c0.3-0.2,0.5-0.3,0.8-0.4c0.3-0.1,0.6-0.2,1-0.3
		s0.7-0.1,1.1-0.1c0.6,0,1.1,0.1,1.4,0.2c0.3,0.2,0.6,0.4,0.7,0.6s0.2,0.5,0.3,0.7c0,0.3,0,0.5,0,0.7V149.3z M91.8,133.2
		c0-0.3,0.1-0.5,0.2-0.7s0.3-0.4,0.5-0.6c0.2-0.2,0.4-0.3,0.7-0.4c0.3-0.1,0.6-0.2,0.9-0.2c0.3,0,0.6,0.1,0.9,0.2
		c0.3,0.1,0.5,0.2,0.7,0.4c0.2,0.2,0.4,0.4,0.5,0.6s0.2,0.5,0.2,0.7c0,0.3-0.1,0.5-0.2,0.7c-0.1,0.2-0.3,0.4-0.5,0.6
		c-0.2,0.2-0.4,0.3-0.7,0.4c-0.3,0.1-0.6,0.2-0.9,0.2c-0.3,0-0.6,0-0.9-0.2c-0.3-0.1-0.5-0.2-0.7-0.4c-0.2-0.2-0.4-0.4-0.5-0.6
		C91.9,133.7,91.8,133.5,91.8,133.2z"/>
	<path d="M105.3,143.5c0-1.2,0.2-2.2,0.5-3.1c0.3-0.9,0.8-1.6,1.4-2.2s1.3-1.1,2-1.4s1.6-0.5,2.4-0.5s1.6,0.1,2.4,0.4
		c0.8,0.3,1.4,0.7,2,1.3s1,1.3,1.4,2.2c0.3,0.9,0.5,1.9,0.5,3.1c0,1.2-0.2,2.3-0.5,3.2c-0.3,0.9-0.8,1.7-1.4,2.3s-1.3,1.1-2,1.4
		s-1.6,0.5-2.4,0.5s-1.6-0.2-2.4-0.5s-1.4-0.8-2-1.4s-1-1.4-1.4-2.3S105.3,144.7,105.3,143.5z M113.7,143.4c0-0.7,0-1.4-0.1-2.1
		c0-0.7-0.1-1.3-0.3-1.8c-0.1-0.5-0.4-1-0.6-1.3s-0.6-0.5-1.1-0.5s-0.8,0.2-1.1,0.5c-0.3,0.3-0.5,0.8-0.6,1.3
		c-0.1,0.5-0.2,1.2-0.3,1.9c0,0.7-0.1,1.4-0.1,2.1c0,0.7,0,1.4,0.1,2.1s0.1,1.3,0.3,1.9s0.4,1,0.6,1.3c0.3,0.3,0.6,0.5,1.1,0.5
		s0.8-0.2,1.1-0.5c0.3-0.3,0.5-0.8,0.6-1.4c0.1-0.6,0.2-1.2,0.3-1.9S113.7,144.1,113.7,143.4z"/>
	<path d="M131.2,137.4c-0.2,0-0.4,0-0.6,0.1s-0.4,0.1-0.5,0.3s-0.3,0.3-0.3,0.5c-0.1,0.2-0.1,0.4-0.1,0.7c0,0.4,0.1,0.7,0.4,1.1
		c0.3,0.4,0.6,0.7,1,1.1c0.4,0.4,0.8,0.8,1.3,1.2c0.5,0.4,0.9,0.8,1.3,1.3s0.7,0.9,1,1.4c0.3,0.5,0.4,1.1,0.4,1.6
		c0,0.7-0.1,1.2-0.3,1.8c-0.2,0.5-0.5,0.9-1,1.3s-0.9,0.6-1.5,0.8s-1.2,0.3-2,0.3c-0.6,0-1.2-0.1-1.7-0.3c-0.5-0.2-1-0.4-1.4-0.7
		s-0.7-0.5-1-0.8c-0.3-0.3-0.5-0.6-0.7-0.8l0.5-0.3c0.1,0.1,0.3,0.3,0.5,0.4c0.2,0.2,0.4,0.3,0.6,0.4s0.5,0.2,0.7,0.3
		c0.3,0.1,0.5,0.1,0.8,0.1c0.7,0,1.2-0.2,1.6-0.5s0.6-0.8,0.6-1.4c0-0.3-0.1-0.7-0.3-1.1s-0.5-0.7-0.9-1.1c-0.3-0.4-0.7-0.8-1.1-1.2
		c-0.4-0.4-0.8-0.9-1.1-1.3c-0.3-0.4-0.6-0.9-0.9-1.4c-0.2-0.5-0.3-1-0.3-1.5c0-0.6,0.1-1.1,0.3-1.5c0.2-0.4,0.5-0.8,0.9-1.1
		c0.4-0.3,0.8-0.5,1.3-0.6c0.5-0.1,1-0.2,1.5-0.2c0.6,0,1.2,0.1,1.7,0.2s0.9,0.3,1.3,0.5c0.4,0.2,0.6,0.5,0.8,0.8
		c0.2,0.3,0.3,0.7,0.3,1.2c0,0.3-0.1,0.6-0.3,0.9c-0.2,0.3-0.5,0.4-1,0.4c-0.4,0-0.7-0.1-0.9-0.3c-0.2-0.2-0.3-0.4-0.3-0.7
		c0-0.2,0-0.3,0.1-0.5s0.2-0.2,0.3-0.3s0.2-0.1,0.3-0.2c0.1,0,0.1-0.1,0.1-0.2c0-0.3-0.1-0.5-0.4-0.6S131.7,137.4,131.2,137.4z"/>
	<path d="M141,144.3c0,0.3,0,0.6,0.1,1s0.2,0.7,0.4,1c0.2,0.3,0.4,0.7,0.6,1s0.5,0.6,0.8,0.8s0.7,0.4,1,0.6c0.4,0.1,0.8,0.2,1.3,0.2
		c0.3,0,0.6,0,0.9-0.1c0.3-0.1,0.5-0.2,0.8-0.3c0.2-0.1,0.5-0.3,0.7-0.4c0.2-0.2,0.4-0.3,0.7-0.5l0.3,0.3c-0.2,0.3-0.5,0.6-0.8,0.9
		c-0.3,0.3-0.7,0.7-1.2,1c-0.5,0.3-1,0.5-1.6,0.7s-1.3,0.3-2.1,0.3s-1.6-0.1-2.3-0.4s-1.4-0.7-2-1.3s-1.1-1.3-1.4-2.1
		c-0.4-0.9-0.5-1.9-0.5-3c0-0.8,0.1-1.6,0.3-2.3c0.2-0.7,0.5-1.3,0.9-1.9c0.4-0.6,0.8-1,1.3-1.5c0.5-0.4,1-0.8,1.5-1
		c0.5-0.3,1.1-0.5,1.6-0.6c0.6-0.1,1.1-0.2,1.6-0.2c0.7,0,1.3,0.1,1.8,0.2c0.5,0.1,0.9,0.3,1.3,0.6s0.6,0.5,0.7,0.9
		c0.2,0.3,0.2,0.7,0.2,1c0,0.4-0.1,0.8-0.4,1.2s-0.6,0.6-1,0.9L141,144.3z M143.7,141.5c0.1-0.1,0.2-0.1,0.3-0.2s0.1-0.2,0.2-0.2
		s0.1-0.2,0.1-0.4c0-0.1,0-0.3,0-0.5c0-0.2,0-0.5-0.1-0.8c0-0.3-0.1-0.5-0.3-0.8s-0.3-0.5-0.5-0.6s-0.4-0.2-0.7-0.2
		c-0.3,0-0.6,0.1-0.8,0.3c-0.2,0.2-0.4,0.4-0.6,0.8c-0.2,0.3-0.3,0.7-0.4,1.1s-0.2,0.8-0.2,1.2c0,0.4-0.1,0.8-0.1,1.2s0,0.7,0,0.9
		L143.7,141.5z"/>
	<path d="M162.4,148.2c0,0.1,0,0.2,0,0.3s0,0.2,0.1,0.3c0,0.1,0.1,0.2,0.2,0.2s0.2,0.1,0.3,0.1c0.2,0,0.3-0.1,0.5-0.2
		s0.3-0.2,0.4-0.4l0.3,0.3c-0.1,0.2-0.3,0.4-0.5,0.6s-0.5,0.5-0.7,0.7c-0.3,0.2-0.6,0.4-1,0.5s-0.8,0.2-1.3,0.2
		c-0.4,0-0.8-0.1-1-0.2s-0.5-0.2-0.8-0.4s-0.4-0.4-0.5-0.6c-0.1-0.2-0.2-0.5-0.2-0.8v-0.6c-0.5,0.5-0.9,0.9-1.4,1.3
		c-0.2,0.2-0.5,0.3-0.7,0.5c-0.2,0.2-0.5,0.3-0.8,0.4s-0.5,0.2-0.8,0.3c-0.3,0.1-0.6,0.1-0.8,0.1c-0.5,0-1-0.1-1.4-0.3
		s-0.7-0.5-0.9-0.8c-0.2-0.3-0.4-0.7-0.5-1.1c-0.1-0.4-0.2-0.8-0.2-1.2v-8.5c0-0.1,0-0.2,0-0.3s0-0.2-0.1-0.3c0-0.1-0.1-0.2-0.2-0.2
		s-0.2-0.1-0.3-0.1c-0.2,0-0.3,0.1-0.5,0.2s-0.3,0.2-0.4,0.4l-0.3-0.3c0.1-0.2,0.3-0.4,0.5-0.6s0.5-0.5,0.7-0.7
		c0.3-0.2,0.6-0.4,1-0.5c0.4-0.1,0.8-0.2,1.3-0.2c0.4,0,0.8,0.1,1.1,0.2c0.3,0.1,0.6,0.2,0.8,0.4s0.4,0.4,0.5,0.6
		c0.1,0.2,0.2,0.5,0.2,0.8v9.1c0,0.1,0,0.3,0.1,0.4c0,0.1,0.1,0.3,0.2,0.4s0.2,0.2,0.3,0.3s0.3,0.1,0.4,0.1c0.3,0,0.5-0.1,0.8-0.2
		s0.5-0.3,0.7-0.5c0.2-0.2,0.4-0.4,0.6-0.6c0.2-0.2,0.3-0.3,0.3-0.4v-8c0-0.1,0-0.2,0-0.3s0-0.2-0.1-0.3c0-0.1-0.1-0.2-0.2-0.2
		s-0.2-0.1-0.3-0.1c-0.2,0-0.3,0.1-0.5,0.2s-0.3,0.2-0.4,0.4l-0.3-0.3c0.1-0.2,0.3-0.4,0.5-0.6s0.5-0.5,0.7-0.7
		c0.3-0.2,0.6-0.4,1-0.5c0.4-0.1,0.8-0.2,1.3-0.2c0.4,0,0.8,0.1,1.1,0.2c0.3,0.1,0.6,0.2,0.8,0.4s0.4,0.4,0.5,0.6
		c0.1,0.2,0.2,0.5,0.2,0.8V148.2z"/>
	<path d="M171.7,141.9c0-0.9,0.2-1.7,0.5-2.4s0.8-1.3,1.3-1.8c0.5-0.5,1.2-0.8,1.9-1.1s1.5-0.3,2.3-0.3s1.5,0.1,2.3,0.3
		c0.7,0.2,1.3,0.5,1.9,1c0.2-0.3,0.3-0.5,0.4-0.8c0.1-0.3,0.2-0.6,0.2-0.9c0-0.4-0.1-0.7-0.3-0.9c-0.2-0.2-0.5-0.3-0.8-0.3v-0.4
		c0.2-0.1,0.4-0.1,0.5-0.2c0.2,0,0.3-0.1,0.4-0.1s0.3,0,0.4-0.1s0.3,0,0.4,0c0.4,0,0.8,0.1,1,0.4c0.2,0.3,0.3,0.6,0.3,1.1
		c0,0.3-0.1,0.5-0.2,0.8c-0.1,0.3-0.3,0.5-0.5,0.8s-0.4,0.5-0.6,0.7s-0.5,0.4-0.7,0.6c0.4,0.4,0.7,0.9,0.9,1.5
		c0.2,0.6,0.3,1.2,0.3,2c0,0.9-0.2,1.8-0.5,2.5c-0.3,0.7-0.8,1.3-1.3,1.8s-1.2,0.9-1.9,1.1c-0.7,0.3-1.5,0.4-2.3,0.4
		c-0.5,0-0.9,0-1.4-0.1s-0.9-0.2-1.3-0.4c-0.1,0.1-0.3,0.2-0.4,0.4s-0.2,0.3-0.2,0.5c0,0.3,0.1,0.6,0.4,0.8s0.7,0.3,1.2,0.4
		c0.5,0.1,1,0.1,1.6,0.1c0.6,0,1.2,0,1.9,0.1s1.3,0.1,1.9,0.2c0.6,0.1,1.2,0.3,1.6,0.6s0.9,0.6,1.2,1.1c0.3,0.4,0.4,1,0.4,1.7
		c0,0.5-0.1,1-0.3,1.4c-0.2,0.4-0.5,0.8-0.9,1.1s-0.8,0.6-1.3,0.8c-0.5,0.2-1,0.4-1.5,0.5c-0.5,0.1-1.1,0.2-1.7,0.3
		c-0.6,0.1-1.1,0.1-1.6,0.1c-0.9,0-1.8,0-2.5-0.1s-1.4-0.2-1.9-0.4c-0.5-0.2-0.9-0.5-1.2-0.8c-0.3-0.3-0.4-0.7-0.4-1.1
		c0-0.3,0.1-0.6,0.2-0.9c0.1-0.3,0.3-0.5,0.6-0.7c0.2-0.2,0.5-0.4,0.8-0.6s0.6-0.3,0.9-0.5c-0.5-0.2-0.8-0.5-1.1-0.9
		c-0.3-0.4-0.5-0.9-0.5-1.5c0-0.3,0.1-0.6,0.2-0.9s0.3-0.6,0.5-0.8c0.2-0.2,0.4-0.5,0.6-0.7c0.2-0.2,0.4-0.4,0.6-0.5
		c-0.4-0.2-0.7-0.5-1-0.8s-0.6-0.7-0.8-1.1s-0.4-0.8-0.5-1.3C171.7,143,171.7,142.5,171.7,141.9z M181.5,154.1
		c0-0.3-0.1-0.5-0.3-0.7c-0.2-0.2-0.5-0.3-0.9-0.5c-0.4-0.1-0.8-0.2-1.3-0.3c-0.5-0.1-0.9-0.1-1.4-0.1c-0.5,0-1-0.1-1.4-0.1
		s-0.9-0.1-1.2-0.1c-0.2,0.1-0.4,0.3-0.6,0.4c-0.2,0.2-0.3,0.3-0.5,0.5s-0.2,0.4-0.3,0.6c-0.1,0.2-0.1,0.4-0.1,0.6
		c0,0.3,0.1,0.6,0.3,0.9s0.5,0.4,0.8,0.6s0.7,0.2,1.2,0.3s0.9,0.1,1.4,0.1c0.7,0,1.3-0.1,1.8-0.2c0.5-0.1,1-0.3,1.3-0.5
		c0.4-0.2,0.6-0.4,0.8-0.7C181.5,154.6,181.5,154.4,181.5,154.1z M179.5,141.8c0-0.5,0-1-0.1-1.5c-0.1-0.5-0.2-0.9-0.3-1.3
		c-0.1-0.4-0.3-0.7-0.6-1c-0.2-0.2-0.5-0.4-0.9-0.4s-0.7,0.1-0.9,0.4c-0.2,0.3-0.4,0.6-0.6,1c-0.1,0.4-0.2,0.9-0.3,1.4
		c-0.1,0.5-0.1,1-0.1,1.6c0,0.5,0,1.1,0.1,1.6s0.2,1,0.3,1.4s0.3,0.7,0.6,1c0.2,0.3,0.5,0.4,0.9,0.4s0.7-0.1,0.9-0.4
		c0.2-0.3,0.4-0.6,0.6-1s0.2-0.9,0.3-1.4C179.4,142.9,179.5,142.4,179.5,141.8z"/>
	<path d="M198.5,148.2c0,0.1,0,0.2,0,0.3s0,0.2,0.1,0.3c0,0.1,0.1,0.2,0.2,0.2s0.2,0.1,0.3,0.1c0.2,0,0.3-0.1,0.5-0.2
		s0.3-0.2,0.4-0.4l0.3,0.3c-0.1,0.2-0.3,0.4-0.5,0.6s-0.5,0.5-0.7,0.7c-0.3,0.2-0.6,0.4-1,0.5s-0.8,0.2-1.3,0.2
		c-0.4,0-0.8-0.1-1-0.2s-0.5-0.2-0.8-0.4s-0.4-0.4-0.5-0.6c-0.1-0.2-0.2-0.5-0.2-0.8v-0.6c-0.5,0.5-0.9,0.9-1.4,1.3
		c-0.2,0.2-0.5,0.3-0.7,0.5c-0.2,0.2-0.5,0.3-0.8,0.4s-0.5,0.2-0.8,0.3c-0.3,0.1-0.6,0.1-0.8,0.1c-0.5,0-1-0.1-1.4-0.3
		s-0.7-0.5-0.9-0.8c-0.2-0.3-0.4-0.7-0.5-1.1c-0.1-0.4-0.2-0.8-0.2-1.2v-8.5c0-0.1,0-0.2,0-0.3s0-0.2-0.1-0.3c0-0.1-0.1-0.2-0.2-0.2
		s-0.2-0.1-0.3-0.1c-0.2,0-0.3,0.1-0.5,0.2s-0.3,0.2-0.4,0.4l-0.3-0.3c0.1-0.2,0.3-0.4,0.5-0.6s0.5-0.5,0.7-0.7
		c0.3-0.2,0.6-0.4,1-0.5c0.4-0.1,0.8-0.2,1.3-0.2c0.4,0,0.8,0.1,1.1,0.2c0.3,0.1,0.6,0.2,0.8,0.4s0.4,0.4,0.5,0.6
		c0.1,0.2,0.2,0.5,0.2,0.8v9.1c0,0.1,0,0.3,0.1,0.4c0,0.1,0.1,0.3,0.2,0.4s0.2,0.2,0.3,0.3s0.3,0.1,0.4,0.1c0.3,0,0.5-0.1,0.8-0.2
		s0.5-0.3,0.7-0.5c0.2-0.2,0.4-0.4,0.6-0.6c0.2-0.2,0.3-0.3,0.3-0.4v-8c0-0.1,0-0.2,0-0.3s0-0.2-0.1-0.3c0-0.1-0.1-0.2-0.2-0.2
		s-0.2-0.1-0.3-0.1c-0.2,0-0.3,0.1-0.5,0.2s-0.3,0.2-0.4,0.4l-0.3-0.3c0.1-0.2,0.3-0.4,0.5-0.6s0.5-0.5,0.7-0.7
		c0.3-0.2,0.6-0.4,1-0.5c0.4-0.1,0.8-0.2,1.3-0.2c0.4,0,0.8,0.1,1.1,0.2c0.3,0.1,0.6,0.2,0.8,0.4s0.4,0.4,0.5,0.6
		c0.1,0.2,0.2,0.5,0.2,0.8V148.2z"/>
	<path d="M206.4,149.3c0,0.1,0,0.3-0.1,0.4c0,0.2-0.1,0.3-0.3,0.5s-0.4,0.3-0.6,0.4s-0.7,0.2-1.1,0.2s-0.9-0.1-1.1-0.2
		s-0.5-0.2-0.6-0.4c-0.1-0.2-0.2-0.3-0.3-0.5s0-0.3,0-0.4v-10.6c0-0.3-0.1-0.5-0.2-0.7c-0.1-0.2-0.3-0.3-0.6-0.3
		c-0.2,0-0.3,0-0.4,0.1s-0.2,0.1-0.4,0.2l-0.3-0.3c0.2-0.2,0.4-0.3,0.7-0.5c0.3-0.2,0.5-0.3,0.8-0.4c0.3-0.1,0.6-0.2,1-0.3
		s0.7-0.1,1.1-0.1c0.6,0,1.1,0.1,1.4,0.2c0.3,0.2,0.6,0.4,0.7,0.6s0.2,0.5,0.3,0.7c0,0.3,0,0.5,0,0.7V149.3z M201.8,133.2
		c0-0.3,0.1-0.5,0.2-0.7s0.3-0.4,0.5-0.6c0.2-0.2,0.4-0.3,0.7-0.4c0.3-0.1,0.6-0.2,0.9-0.2c0.3,0,0.6,0.1,0.9,0.2
		c0.3,0.1,0.5,0.2,0.7,0.4c0.2,0.2,0.4,0.4,0.5,0.6s0.2,0.5,0.2,0.7c0,0.3-0.1,0.5-0.2,0.7c-0.1,0.2-0.3,0.4-0.5,0.6
		c-0.2,0.2-0.4,0.3-0.7,0.4c-0.3,0.1-0.6,0.2-0.9,0.2c-0.3,0-0.6,0-0.9-0.2c-0.3-0.1-0.5-0.2-0.7-0.4c-0.2-0.2-0.4-0.4-0.5-0.6
		C201.9,133.7,201.8,133.5,201.8,133.2z"/>
	<path d="M213.9,137.5c-0.3,0-0.6,0-0.9,0.1c-0.3,0.1-0.5,0.2-0.7,0.3s-0.3,0.2-0.5,0.4c-0.1,0.1-0.2,0.3-0.2,0.4
		c0,0.1,0.1,0.2,0.2,0.3c0.1,0.1,0.3,0.1,0.5,0.2c0.2,0.1,0.3,0.2,0.5,0.3c0.1,0.1,0.2,0.4,0.2,0.6c0,0.2,0,0.4-0.1,0.5
		c-0.1,0.2-0.2,0.3-0.3,0.4s-0.3,0.2-0.5,0.3s-0.4,0.1-0.6,0.1c-0.5,0-0.9-0.2-1.2-0.5c-0.3-0.3-0.5-0.8-0.5-1.4
		c0-0.6,0.1-1,0.4-1.4s0.7-0.7,1.1-1c0.5-0.3,1-0.4,1.6-0.6s1.2-0.2,1.8-0.2c0.7,0,1.4,0.1,2,0.2c0.6,0.2,1.2,0.4,1.7,0.7
		c0.5,0.3,0.9,0.8,1.2,1.3s0.4,1.1,0.4,1.9v7.7c0,0.1,0,0.2,0,0.3c0,0.1,0,0.2,0.1,0.3s0.1,0.2,0.2,0.2s0.2,0.1,0.3,0.1
		c0.2,0,0.3-0.1,0.5-0.2s0.3-0.2,0.4-0.4l0.3,0.3c-0.1,0.2-0.3,0.4-0.5,0.6c-0.2,0.2-0.4,0.4-0.7,0.6c-0.3,0.2-0.6,0.4-1,0.5
		s-0.8,0.2-1.2,0.2c-0.6,0-1.1-0.2-1.5-0.5s-0.7-0.9-0.9-1.6c-0.3,0.4-0.6,0.7-0.9,1c-0.3,0.3-0.6,0.5-1,0.6s-0.7,0.3-1,0.4
		c-0.3,0.1-0.7,0.1-1,0.1c-0.4,0-0.9-0.1-1.3-0.2s-0.8-0.4-1.1-0.6c-0.3-0.3-0.6-0.7-0.8-1.2c-0.2-0.5-0.3-1.1-0.3-1.7
		c0-0.8,0.2-1.5,0.5-2c0.3-0.5,0.8-1,1.3-1.3c0.5-0.4,1.1-0.7,1.8-0.9c0.7-0.3,1.4-0.5,2.1-0.8c0.5-0.2,0.9-0.5,1.2-0.9
		c0.2-0.4,0.4-0.8,0.4-1.3c0-0.7-0.2-1.2-0.6-1.6C215.1,137.7,214.5,137.5,213.9,137.5z M216,143.4c0-0.2-0.1-0.4-0.2-0.5
		c-0.1-0.1-0.3-0.2-0.6-0.2c-0.3,0-0.6,0.1-0.9,0.2c-0.3,0.1-0.5,0.4-0.8,0.6c-0.2,0.3-0.4,0.6-0.5,1c-0.1,0.4-0.2,0.9-0.2,1.4
		c0,0.5,0,1,0.1,1.3c0.1,0.3,0.2,0.6,0.3,0.8s0.3,0.3,0.5,0.4s0.4,0.1,0.5,0.1c0.2,0,0.5-0.1,0.7-0.2s0.4-0.3,0.5-0.5
		s0.3-0.4,0.4-0.6c0.1-0.2,0.1-0.5,0.1-0.7V143.4z"/>
	<path d="M238.2,143.7c0-1.1-0.1-2.1-0.2-2.8c-0.1-0.7-0.2-1.2-0.4-1.6c-0.2-0.4-0.4-0.6-0.6-0.7c-0.2-0.1-0.4-0.2-0.6-0.2
		c-0.3,0-0.5,0.1-0.7,0.2c-0.2,0.1-0.4,0.3-0.5,0.5c-0.2,0.2-0.3,0.4-0.4,0.5c-0.1,0.2-0.2,0.3-0.3,0.4v9.1c0,0.1,0,0.3-0.1,0.4
		c0,0.2-0.1,0.3-0.3,0.5s-0.4,0.3-0.6,0.4s-0.7,0.2-1.1,0.2s-0.9-0.1-1.1-0.2s-0.5-0.2-0.6-0.4c-0.1-0.2-0.2-0.3-0.3-0.5
		s-0.1-0.3-0.1-0.4v-10.6c0-0.3-0.1-0.5-0.2-0.7c-0.1-0.2-0.3-0.3-0.6-0.3c-0.2,0-0.3,0-0.4,0.1s-0.2,0.1-0.4,0.2l-0.3-0.3
		c0.2-0.2,0.4-0.3,0.7-0.5c0.3-0.2,0.5-0.3,0.8-0.4c0.3-0.1,0.6-0.2,1-0.3s0.7-0.1,1.1-0.1c0.6,0,1.1,0.1,1.4,0.3
		c0.3,0.2,0.6,0.4,0.7,0.7s0.2,0.6,0.3,0.9c0,0.3,0,0.5,0,0.7c0.3-0.5,0.7-0.9,1.1-1.3c0.2-0.2,0.4-0.3,0.6-0.5
		c0.2-0.2,0.4-0.3,0.7-0.4s0.5-0.2,0.8-0.3c0.3-0.1,0.5-0.1,0.8-0.1c0.6,0,1.2,0.1,1.6,0.4c0.5,0.2,0.9,0.6,1.2,1.2
		c0.3,0.6,0.6,1.3,0.8,2.2s0.3,2.1,0.3,3.4c0,1.3-0.1,2.5-0.4,3.4c-0.2,1-0.5,1.8-0.9,2.5s-0.8,1.2-1.3,1.7c-0.5,0.4-1,0.8-1.5,1
		s-1,0.4-1.4,0.5s-0.8,0.1-1.2,0.2l-0.2-0.6c0.3-0.1,0.5-0.2,0.8-0.3s0.4-0.3,0.6-0.6c0.2-0.3,0.4-0.6,0.5-1s0.3-0.9,0.4-1.5
		c0.1-0.6,0.2-1.3,0.2-2.2S238.2,144.8,238.2,143.7z"/>
	<path d="M244.3,143.5c0-1.2,0.2-2.2,0.5-3.1c0.3-0.9,0.8-1.6,1.4-2.2s1.3-1.1,2-1.4s1.6-0.5,2.4-0.5s1.6,0.1,2.4,0.4
		c0.8,0.3,1.4,0.7,2,1.3s1,1.3,1.4,2.2c0.3,0.9,0.5,1.9,0.5,3.1c0,1.2-0.2,2.3-0.5,3.2c-0.3,0.9-0.8,1.7-1.4,2.3s-1.3,1.1-2,1.4
		s-1.6,0.5-2.4,0.5s-1.6-0.2-2.4-0.5s-1.4-0.8-2-1.4s-1-1.4-1.4-2.3S244.3,144.7,244.3,143.5z M252.7,143.4c0-0.7,0-1.4-0.1-2.1
		c0-0.7-0.1-1.3-0.3-1.8c-0.1-0.5-0.4-1-0.6-1.3s-0.6-0.5-1.1-0.5s-0.8,0.2-1.1,0.5c-0.3,0.3-0.5,0.8-0.6,1.3
		c-0.1,0.5-0.2,1.2-0.3,1.9c0,0.7-0.1,1.4-0.1,2.1c0,0.7,0,1.4,0.1,2.1s0.1,1.3,0.3,1.9s0.4,1,0.6,1.3c0.3,0.3,0.6,0.5,1.1,0.5
		s0.8-0.2,1.1-0.5c0.3-0.3,0.5-0.8,0.6-1.4c0.1-0.6,0.2-1.2,0.3-1.9S252.7,144.1,252.7,143.4z"/>
	<path d="M273.3,137.1c-0.2-0.9-0.4-1.8-0.7-2.5c-0.3-0.8-0.7-1.5-1.1-2s-0.9-1-1.5-1.4s-1.1-0.5-1.8-0.5c-0.4,0-0.7,0-1,0.1
		c-0.3,0.1-0.6,0.2-0.8,0.3s-0.4,0.2-0.5,0.4c-0.1,0.1-0.2,0.2-0.3,0.3l-0.4-0.5c0.2-0.3,0.5-0.5,0.8-0.8s0.7-0.5,1-0.6
		c0.4-0.2,0.8-0.3,1.2-0.4c0.4-0.1,0.8-0.2,1.2-0.2c1.3,0,2.5,0.3,3.6,0.9s1.9,1.4,2.6,2.5c0.7,1.1,1.2,2.4,1.5,3.9
		c0.3,1.5,0.5,3.2,0.5,5.1c0,1.5-0.2,2.8-0.5,4c-0.3,1.1-0.7,2.1-1.3,2.9c-0.6,0.8-1.3,1.3-2.1,1.7s-1.7,0.6-2.7,0.6
		c-0.7,0-1.4-0.1-2.1-0.4s-1.4-0.7-2-1.2c-0.6-0.6-1.1-1.3-1.4-2.2s-0.6-2-0.6-3.4c0-1.1,0.2-2.2,0.5-3.1c0.3-0.9,0.8-1.6,1.3-2.3
		s1.2-1.1,1.9-1.4c0.7-0.3,1.5-0.5,2.3-0.5c0.3,0,0.6,0,0.8,0.1c0.2,0.1,0.5,0.1,0.6,0.2c0.2,0.1,0.3,0.2,0.5,0.2
		C273,136.9,273.2,137,273.3,137.1z M273.4,143.1c0-0.1,0-0.3,0-0.6c0-0.3,0-0.7,0-1.1s0-0.8-0.1-1.3c0-0.4-0.1-0.9-0.2-1.2
		c-0.2-0.3-0.5-0.5-0.7-0.8c-0.3-0.2-0.6-0.3-1-0.3c-0.7,0-1.2,0.5-1.6,1.4s-0.5,2.4-0.5,4.3c0,0.9,0,1.6,0.1,2.4s0.2,1.3,0.4,1.8
		c0.2,0.5,0.4,0.9,0.6,1.2c0.3,0.3,0.5,0.4,0.9,0.4C272.7,149.4,273.4,147.3,273.4,143.1z"/>
	<path d="M284.6,149.3c0,0.1,0,0.3-0.1,0.4c0,0.2-0.1,0.3-0.3,0.5s-0.4,0.3-0.6,0.4s-0.7,0.2-1.1,0.2s-0.9-0.1-1.1-0.2
		s-0.5-0.2-0.6-0.4c-0.1-0.2-0.2-0.3-0.3-0.5s0-0.3,0-0.4v-10.6c0-0.3-0.1-0.5-0.2-0.7c-0.1-0.2-0.3-0.3-0.6-0.3
		c-0.2,0-0.3,0-0.4,0.1s-0.2,0.1-0.4,0.2l-0.3-0.3c0.2-0.2,0.4-0.3,0.7-0.5c0.3-0.2,0.5-0.3,0.8-0.4c0.3-0.1,0.6-0.2,1-0.3
		s0.7-0.1,1.1-0.1c0.6,0,1.1,0.1,1.4,0.2c0.3,0.2,0.6,0.4,0.7,0.6s0.2,0.5,0.3,0.7c0,0.3,0,0.5,0,0.7V149.3z M280,133.2
		c0-0.3,0.1-0.5,0.2-0.7s0.3-0.4,0.5-0.6c0.2-0.2,0.4-0.3,0.7-0.4c0.3-0.1,0.6-0.2,0.9-0.2c0.3,0,0.6,0.1,0.9,0.2
		c0.3,0.1,0.5,0.2,0.7,0.4c0.2,0.2,0.4,0.4,0.5,0.6s0.2,0.5,0.2,0.7c0,0.3-0.1,0.5-0.2,0.7c-0.1,0.2-0.3,0.4-0.5,0.6
		c-0.2,0.2-0.4,0.3-0.7,0.4c-0.3,0.1-0.6,0.2-0.9,0.2c-0.3,0-0.6,0-0.9-0.2c-0.3-0.1-0.5-0.2-0.7-0.4c-0.2-0.2-0.4-0.4-0.5-0.6
		C280,133.7,280,133.5,280,133.2z"/>
	<path d="M292,137.5c-0.3,0-0.6,0-0.9,0.1c-0.3,0.1-0.5,0.2-0.7,0.3s-0.3,0.2-0.5,0.4c-0.1,0.1-0.2,0.3-0.2,0.4
		c0,0.1,0.1,0.2,0.2,0.3c0.1,0.1,0.3,0.1,0.5,0.2c0.2,0.1,0.3,0.2,0.5,0.3c0.1,0.1,0.2,0.4,0.2,0.6c0,0.2,0,0.4-0.1,0.5
		c-0.1,0.2-0.2,0.3-0.3,0.4s-0.3,0.2-0.5,0.3s-0.4,0.1-0.6,0.1c-0.5,0-0.9-0.2-1.2-0.5c-0.3-0.3-0.5-0.8-0.5-1.4
		c0-0.6,0.1-1,0.4-1.4s0.7-0.7,1.1-1c0.5-0.3,1-0.4,1.6-0.6s1.2-0.2,1.8-0.2c0.7,0,1.4,0.1,2,0.2c0.6,0.2,1.2,0.4,1.7,0.7
		c0.5,0.3,0.9,0.8,1.2,1.3s0.4,1.1,0.4,1.9v7.7c0,0.1,0,0.2,0,0.3c0,0.1,0,0.2,0.1,0.3s0.1,0.2,0.2,0.2s0.2,0.1,0.3,0.1
		c0.2,0,0.3-0.1,0.5-0.2s0.3-0.2,0.4-0.4l0.3,0.3c-0.1,0.2-0.3,0.4-0.5,0.6c-0.2,0.2-0.4,0.4-0.7,0.6c-0.3,0.2-0.6,0.4-1,0.5
		s-0.8,0.2-1.2,0.2c-0.6,0-1.1-0.2-1.5-0.5s-0.7-0.9-0.9-1.6c-0.3,0.4-0.6,0.7-0.9,1c-0.3,0.3-0.6,0.5-1,0.6s-0.7,0.3-1,0.4
		c-0.3,0.1-0.7,0.1-1,0.1c-0.4,0-0.9-0.1-1.3-0.2s-0.8-0.4-1.1-0.6c-0.3-0.3-0.6-0.7-0.8-1.2c-0.2-0.5-0.3-1.1-0.3-1.7
		c0-0.8,0.2-1.5,0.5-2c0.3-0.5,0.8-1,1.3-1.3c0.5-0.4,1.1-0.7,1.8-0.9c0.7-0.3,1.4-0.5,2.1-0.8c0.5-0.2,0.9-0.5,1.2-0.9
		c0.2-0.4,0.4-0.8,0.4-1.3c0-0.7-0.2-1.2-0.6-1.6C293.2,137.7,292.7,137.5,292,137.5z M294.2,143.4c0-0.2-0.1-0.4-0.2-0.5
		c-0.1-0.1-0.3-0.2-0.6-0.2c-0.3,0-0.6,0.1-0.9,0.2c-0.3,0.1-0.5,0.4-0.8,0.6c-0.2,0.3-0.4,0.6-0.5,1c-0.1,0.4-0.2,0.9-0.2,1.4
		c0,0.5,0,1,0.1,1.3c0.1,0.3,0.2,0.6,0.3,0.8s0.3,0.3,0.5,0.4s0.4,0.1,0.5,0.1c0.2,0,0.5-0.1,0.7-0.2s0.4-0.3,0.5-0.5
		s0.3-0.4,0.4-0.6c0.1-0.2,0.1-0.5,0.1-0.7V143.4z"/>
	<path d="M315.7,137.1c-0.2-0.9-0.4-1.8-0.7-2.5c-0.3-0.8-0.7-1.5-1.1-2s-0.9-1-1.5-1.4s-1.1-0.5-1.8-0.5c-0.4,0-0.7,0-1,0.1
		c-0.3,0.1-0.6,0.2-0.8,0.3s-0.4,0.2-0.5,0.4c-0.1,0.1-0.2,0.2-0.3,0.3l-0.4-0.5c0.2-0.3,0.5-0.5,0.8-0.8s0.7-0.5,1-0.6
		c0.4-0.2,0.8-0.3,1.2-0.4c0.4-0.1,0.8-0.2,1.2-0.2c1.3,0,2.5,0.3,3.6,0.9s1.9,1.4,2.6,2.5c0.7,1.1,1.2,2.4,1.5,3.9
		c0.3,1.5,0.5,3.2,0.5,5.1c0,1.5-0.2,2.8-0.5,4c-0.3,1.1-0.7,2.1-1.3,2.9c-0.6,0.8-1.3,1.3-2.1,1.7s-1.7,0.6-2.7,0.6
		c-0.7,0-1.4-0.1-2.1-0.4s-1.4-0.7-2-1.2c-0.6-0.6-1.1-1.3-1.4-2.2s-0.6-2-0.6-3.4c0-1.1,0.2-2.2,0.5-3.1c0.3-0.9,0.8-1.6,1.3-2.3
		s1.2-1.1,1.9-1.4c0.7-0.3,1.5-0.5,2.3-0.5c0.3,0,0.6,0,0.8,0.1c0.2,0.1,0.5,0.1,0.6,0.2c0.2,0.1,0.3,0.2,0.5,0.2
		C315.5,136.9,315.6,137,315.7,137.1z M315.9,143.1c0-0.1,0-0.3,0-0.6c0-0.3,0-0.7,0-1.1s0-0.8-0.1-1.3c0-0.4-0.1-0.9-0.2-1.2
		c-0.2-0.3-0.5-0.5-0.7-0.8c-0.3-0.2-0.6-0.3-1-0.3c-0.7,0-1.2,0.5-1.6,1.4s-0.5,2.4-0.5,4.3c0,0.9,0,1.6,0.1,2.4s0.2,1.3,0.4,1.8
		c0.2,0.5,0.4,0.9,0.6,1.2c0.3,0.3,0.5,0.4,0.9,0.4C315.1,149.4,315.9,147.3,315.9,143.1z"/>
	<path d="M326.2,144.3c0,0.3,0,0.6,0.1,1s0.2,0.7,0.4,1c0.2,0.3,0.4,0.7,0.6,1s0.5,0.6,0.8,0.8s0.7,0.4,1,0.6
		c0.4,0.1,0.8,0.2,1.3,0.2c0.3,0,0.6,0,0.9-0.1c0.3-0.1,0.5-0.2,0.8-0.3c0.2-0.1,0.5-0.3,0.7-0.4c0.2-0.2,0.4-0.3,0.7-0.5l0.3,0.3
		c-0.2,0.3-0.5,0.6-0.8,0.9c-0.3,0.3-0.7,0.7-1.2,1c-0.5,0.3-1,0.5-1.6,0.7s-1.3,0.3-2.1,0.3s-1.6-0.1-2.3-0.4s-1.4-0.7-2-1.3
		s-1.1-1.3-1.4-2.1c-0.4-0.9-0.5-1.9-0.5-3c0-0.8,0.1-1.6,0.3-2.3c0.2-0.7,0.5-1.3,0.9-1.9c0.4-0.6,0.8-1,1.3-1.5
		c0.5-0.4,1-0.8,1.5-1c0.5-0.3,1.1-0.5,1.6-0.6c0.6-0.1,1.1-0.2,1.6-0.2c0.7,0,1.3,0.1,1.8,0.2c0.5,0.1,0.9,0.3,1.3,0.6
		s0.6,0.5,0.7,0.9c0.2,0.3,0.2,0.7,0.2,1c0,0.4-0.1,0.8-0.4,1.2s-0.6,0.6-1,0.9L326.2,144.3z M329,141.5c0.1-0.1,0.2-0.1,0.3-0.2
		s0.1-0.2,0.2-0.2s0.1-0.2,0.1-0.4c0-0.1,0-0.3,0-0.5c0-0.2,0-0.5-0.1-0.8c0-0.3-0.1-0.5-0.3-0.8s-0.3-0.5-0.5-0.6s-0.4-0.2-0.7-0.2
		c-0.3,0-0.6,0.1-0.8,0.3c-0.2,0.2-0.4,0.4-0.6,0.8c-0.2,0.3-0.3,0.7-0.4,1.1s-0.2,0.8-0.2,1.2c0,0.4-0.1,0.8-0.1,1.2s0,0.7,0,0.9
		L329,141.5z"/>
	<path d="M28.1,172.5c0.3-0.5,0.7-0.9,1.1-1.3c0.2-0.2,0.4-0.3,0.6-0.5c0.2-0.2,0.4-0.3,0.7-0.4s0.5-0.2,0.8-0.3
		c0.3-0.1,0.5-0.1,0.8-0.1c0.6,0,1.2,0.1,1.6,0.4c0.5,0.2,0.9,0.6,1.2,1.2c0.3,0.6,0.6,1.3,0.8,2.2s0.3,2.1,0.3,3.4
		c0,1.3-0.1,2.5-0.4,3.4c-0.2,1-0.5,1.8-0.9,2.5s-0.8,1.2-1.3,1.7c-0.5,0.4-1,0.8-1.5,1s-1,0.4-1.4,0.5s-0.8,0.1-1.2,0.2l-0.1-0.6
		c0.4-0.1,0.8-0.3,1.1-0.6s0.6-0.7,0.8-1.3s0.4-1.5,0.5-2.5c0.1-1.1,0.2-2.4,0.2-4.1c0-1.1-0.1-2.1-0.2-2.8
		c-0.1-0.7-0.2-1.2-0.4-1.6c-0.2-0.4-0.4-0.6-0.6-0.7c-0.2-0.1-0.4-0.2-0.6-0.2c-0.3,0-0.5,0.1-0.7,0.2c-0.2,0.1-0.4,0.3-0.5,0.5
		c-0.2,0.2-0.3,0.4-0.4,0.5c-0.1,0.2-0.2,0.3-0.3,0.4v9.1c0,0.1,0,0.3-0.1,0.4c0,0.2-0.1,0.3-0.3,0.5s-0.4,0.3-0.6,0.4
		s-0.7,0.2-1.1,0.2s-0.9-0.1-1.1-0.2s-0.5-0.2-0.6-0.4c-0.1-0.2-0.2-0.3-0.3-0.5s-0.1-0.3-0.1-0.4v-17.6c0-0.3-0.1-0.5-0.2-0.7
		c-0.1-0.2-0.3-0.3-0.6-0.3c-0.2,0-0.3,0-0.4,0.1c-0.1,0.1-0.2,0.1-0.4,0.2l-0.3-0.3c0.2-0.2,0.4-0.3,0.7-0.5
		c0.3-0.2,0.5-0.3,0.8-0.4c0.3-0.1,0.6-0.2,1-0.3s0.7-0.1,1.1-0.1c0.6,0,1.1,0.1,1.4,0.2c0.3,0.2,0.6,0.4,0.7,0.6s0.2,0.5,0.3,0.7
		s0,0.5,0,0.7V172.5z"/>
	<path d="M37.9,177.1c0-1.2,0.2-2.2,0.5-3.1c0.3-0.9,0.8-1.6,1.4-2.2s1.3-1.1,2-1.4s1.6-0.5,2.4-0.5s1.6,0.1,2.4,0.4
		c0.8,0.3,1.4,0.7,2,1.3s1,1.3,1.4,2.2c0.3,0.9,0.5,1.9,0.5,3.1c0,1.2-0.2,2.3-0.5,3.2c-0.3,0.9-0.8,1.7-1.4,2.3s-1.3,1.1-2,1.4
		s-1.6,0.5-2.4,0.5s-1.6-0.2-2.4-0.5s-1.4-0.8-2-1.4s-1-1.4-1.4-2.3S37.9,178.3,37.9,177.1z M46.3,177c0-0.7,0-1.4-0.1-2.1
		c0-0.7-0.1-1.3-0.3-1.8c-0.1-0.5-0.4-1-0.6-1.3s-0.6-0.5-1.1-0.5s-0.8,0.2-1.1,0.5c-0.3,0.3-0.5,0.8-0.6,1.3
		c-0.1,0.5-0.2,1.2-0.3,1.9c0,0.7-0.1,1.4-0.1,2.1c0,0.7,0,1.4,0.1,2.1s0.1,1.3,0.3,1.9s0.4,1,0.6,1.3c0.3,0.3,0.6,0.5,1.1,0.5
		s0.8-0.2,1.1-0.5c0.3-0.3,0.5-0.8,0.6-1.4c0.1-0.6,0.2-1.2,0.3-1.9S46.3,177.7,46.3,177z"/>
	<path d="M53.3,172.3c0-0.3-0.1-0.5-0.2-0.7c-0.1-0.2-0.3-0.3-0.6-0.3c-0.2,0-0.3,0-0.4,0.1s-0.2,0.1-0.4,0.2l-0.3-0.3
		c0.2-0.2,0.4-0.3,0.7-0.5c0.3-0.2,0.5-0.3,0.8-0.4c0.3-0.1,0.6-0.2,1-0.3s0.7-0.1,1.1-0.1c0.6,0,1.1,0.1,1.4,0.2
		c0.3,0.2,0.6,0.4,0.7,0.6s0.2,0.5,0.3,0.7c0,0.3,0,0.5,0,0.7v9.7c0,1.2-0.2,2.4-0.5,3.4c-0.3,1-0.8,2-1.5,2.7
		c-0.7,0.8-1.5,1.4-2.5,1.8c-1,0.4-2.1,0.6-3.4,0.6c-0.5,0-0.9,0-1.3-0.1c-0.4-0.1-0.8-0.2-1.1-0.3s-0.6-0.3-0.8-0.5
		c-0.2-0.2-0.3-0.4-0.3-0.6c0-0.2,0-0.3,0.1-0.5c0-0.2,0.1-0.3,0.2-0.5s0.2-0.2,0.3-0.3c0.1-0.1,0.3-0.1,0.4-0.1
		c0.1,0,0.2,0,0.3,0.2c0.1,0.1,0.2,0.2,0.2,0.4c0.1,0.1,0.2,0.3,0.3,0.5s0.2,0.3,0.4,0.5c0.2,0.1,0.4,0.3,0.6,0.4
		c0.2,0.1,0.5,0.2,0.9,0.2c0.5,0,0.9-0.1,1.2-0.3c0.4-0.2,0.7-0.4,0.9-0.8s0.5-0.7,0.6-1.2c0.2-0.4,0.3-0.9,0.4-1.4
		c0.1-0.5,0.2-1,0.2-1.6s0.1-1.1,0.1-1.7V172.3z M52.9,166.8c0-0.3,0.1-0.5,0.2-0.7s0.3-0.4,0.5-0.6c0.2-0.2,0.4-0.3,0.7-0.4
		c0.3-0.1,0.6-0.2,0.9-0.2c0.3,0,0.6,0.1,0.9,0.2c0.3,0.1,0.5,0.2,0.7,0.4c0.2,0.2,0.4,0.4,0.5,0.6s0.2,0.5,0.2,0.7
		c0,0.3-0.1,0.5-0.2,0.7c-0.1,0.2-0.3,0.4-0.5,0.6c-0.2,0.2-0.4,0.3-0.7,0.4c-0.3,0.1-0.6,0.2-0.9,0.2c-0.3,0-0.6,0-0.9-0.2
		c-0.3-0.1-0.5-0.2-0.7-0.4c-0.2-0.2-0.4-0.4-0.5-0.6C53,167.3,52.9,167.1,52.9,166.8z"/>
	<path d="M64.5,177.9c0,0.3,0,0.6,0.1,1s0.2,0.7,0.4,1c0.2,0.3,0.4,0.7,0.6,1s0.5,0.6,0.8,0.8s0.7,0.4,1,0.6
		c0.4,0.1,0.8,0.2,1.3,0.2c0.3,0,0.6,0,0.9-0.1c0.3-0.1,0.5-0.2,0.8-0.3c0.2-0.1,0.5-0.3,0.7-0.4c0.2-0.2,0.4-0.3,0.7-0.5l0.3,0.3
		c-0.2,0.3-0.5,0.6-0.8,0.9c-0.3,0.3-0.7,0.7-1.2,1c-0.5,0.3-1,0.5-1.6,0.7s-1.3,0.3-2.1,0.3s-1.6-0.1-2.3-0.4
		c-0.8-0.3-1.4-0.7-2-1.3s-1.1-1.3-1.4-2.1c-0.4-0.9-0.5-1.9-0.5-3c0-0.8,0.1-1.6,0.3-2.3c0.2-0.7,0.5-1.3,0.9-1.9
		c0.4-0.6,0.8-1,1.3-1.5c0.5-0.4,1-0.8,1.5-1c0.5-0.3,1.1-0.5,1.6-0.6c0.6-0.1,1.1-0.2,1.6-0.2c0.7,0,1.3,0.1,1.8,0.2
		c0.5,0.1,0.9,0.3,1.3,0.6s0.6,0.5,0.7,0.9c0.2,0.3,0.2,0.7,0.2,1c0,0.4-0.1,0.8-0.4,1.2s-0.6,0.6-1,0.9L64.5,177.9z M67.2,175.1
		c0.1-0.1,0.2-0.1,0.3-0.2s0.1-0.2,0.2-0.2s0.1-0.2,0.1-0.4c0-0.1,0-0.3,0-0.5c0-0.2,0-0.5-0.1-0.8c0-0.3-0.1-0.5-0.3-0.8
		s-0.3-0.5-0.5-0.6s-0.4-0.2-0.7-0.2c-0.3,0-0.6,0.1-0.8,0.3c-0.2,0.2-0.4,0.4-0.6,0.8c-0.2,0.3-0.3,0.7-0.4,1.1s-0.2,0.8-0.2,1.2
		c0,0.4-0.1,0.8-0.1,1.2s0,0.7,0,0.9L67.2,175.1z"/>
	<path d="M73.8,188.7c0.6-0.5,0.9-1,1.2-1.6s0.3-1.1,0.3-1.6c0-0.6-0.1-1.1-0.3-1.5s-0.5-0.8-0.8-1.1c-0.1-0.2-0.2-0.4-0.2-0.6
		c0-0.2,0.1-0.5,0.2-0.8c0.1-0.3,0.3-0.5,0.5-0.7c0.2-0.2,0.5-0.4,0.8-0.6c0.3-0.1,0.6-0.2,0.9-0.2c0.4,0,0.7,0.1,0.9,0.3
		s0.4,0.5,0.6,0.9c0.1,0.3,0.3,0.7,0.3,1.1c0.1,0.4,0.1,0.7,0.1,1c0,0.6-0.1,1.2-0.3,1.8c-0.2,0.6-0.5,1.1-0.9,1.6
		c-0.4,0.5-0.8,1-1.3,1.4s-1,0.8-1.6,1.1L73.8,188.7z"/>
	<path d="M88.1,172.3c0-0.3-0.1-0.5-0.2-0.7c-0.1-0.2-0.3-0.3-0.6-0.3c-0.2,0-0.3,0-0.4,0.1s-0.2,0.1-0.4,0.2l-0.3-0.3
		c0.2-0.2,0.4-0.3,0.7-0.5c0.3-0.2,0.5-0.3,0.8-0.4c0.3-0.1,0.6-0.2,1-0.3s0.7-0.1,1.1-0.1c0.4,0,0.8,0.1,1.1,0.2
		c0.3,0.1,0.5,0.3,0.7,0.5s0.3,0.4,0.4,0.6c0.1,0.2,0.2,0.4,0.2,0.5c0.2-0.3,0.4-0.5,0.6-0.7c0.3-0.2,0.5-0.4,0.8-0.5
		s0.6-0.3,0.9-0.3s0.7-0.1,1-0.1c0.7,0,1.4,0.2,2,0.5s1.1,0.7,1.5,1.3c0.4,0.6,0.8,1.3,1,2.2s0.3,1.9,0.3,3c0,1.3-0.1,2.5-0.4,3.4
		c-0.3,0.9-0.6,1.7-1.1,2.3c-0.5,0.6-1,1-1.5,1.3s-1.2,0.4-1.8,0.4c-0.5,0-0.9-0.1-1.3-0.2s-0.7-0.2-1-0.4c-0.3-0.1-0.5-0.3-0.7-0.4
		s-0.3-0.3-0.4-0.4v6.7c0,0.1,0,0.3-0.1,0.4s-0.1,0.3-0.3,0.5s-0.4,0.3-0.6,0.4s-0.7,0.2-1.1,0.2s-0.9-0.1-1.1-0.2
		c-0.3-0.1-0.5-0.3-0.6-0.4c-0.1-0.2-0.2-0.3-0.3-0.5c0-0.2-0.1-0.3-0.1-0.4V172.3z M92.3,181.1c0,0.1,0,0.2,0.1,0.4
		c0.1,0.2,0.2,0.4,0.3,0.6s0.3,0.4,0.5,0.5s0.5,0.2,0.8,0.2c0.4,0,0.7-0.2,1-0.5c0.3-0.3,0.5-0.7,0.7-1.2c0.2-0.5,0.3-1.1,0.4-1.8
		s0.1-1.4,0.1-2.2c0-1-0.1-1.8-0.2-2.5c-0.1-0.7-0.3-1.2-0.5-1.6c-0.2-0.4-0.4-0.7-0.7-0.9c-0.3-0.2-0.6-0.3-0.9-0.3
		c-0.2,0-0.4,0.1-0.6,0.2c-0.2,0.1-0.4,0.3-0.5,0.4c-0.2,0.2-0.3,0.4-0.4,0.6c-0.1,0.2-0.2,0.4-0.2,0.6V181.1z"/>
	<path d="M107.5,172.8c0.3-0.5,0.7-1,1.1-1.4c0.2-0.2,0.3-0.4,0.5-0.5c0.2-0.2,0.4-0.3,0.6-0.5s0.4-0.2,0.6-0.3s0.4-0.1,0.7-0.1
		c0.5,0,0.8,0.1,1.1,0.4c0.3,0.3,0.4,0.7,0.4,1.2c0,0.3,0,0.6-0.1,0.9s-0.1,0.6-0.3,1h-0.4c-0.1-0.3-0.2-0.5-0.4-0.7
		c-0.2-0.2-0.5-0.3-0.9-0.3c-0.3,0-0.6,0.1-0.8,0.2c-0.3,0.1-0.5,0.2-0.8,0.4c-0.3,0.2-0.5,0.3-0.7,0.5c-0.2,0.2-0.4,0.4-0.6,0.5
		v8.9c0,0.1,0,0.3-0.1,0.4s-0.1,0.3-0.3,0.5c-0.1,0.1-0.4,0.3-0.6,0.4s-0.7,0.2-1.1,0.2s-0.9-0.1-1.1-0.2s-0.5-0.2-0.6-0.4
		c-0.1-0.2-0.2-0.3-0.3-0.5s-0.1-0.3-0.1-0.4v-10.6c0-0.3-0.1-0.5-0.2-0.7c-0.1-0.2-0.3-0.3-0.6-0.3c-0.2,0-0.3,0-0.4,0.1
		s-0.2,0.1-0.4,0.2l-0.3-0.3c0.2-0.2,0.4-0.3,0.7-0.5c0.3-0.2,0.5-0.3,0.8-0.4c0.3-0.1,0.6-0.2,1-0.3s0.7-0.1,1.1-0.1
		c0.4,0,0.7,0.1,1,0.2c0.3,0.1,0.5,0.2,0.7,0.4c0.2,0.2,0.3,0.4,0.4,0.6c0.1,0.2,0.2,0.4,0.2,0.6c0,0.2,0.1,0.4,0.1,0.6
		C107.5,172.5,107.5,172.7,107.5,172.8z"/>
	<path d="M117.2,177.9c0,0.3,0,0.6,0.1,1s0.2,0.7,0.4,1c0.2,0.3,0.4,0.7,0.6,1s0.5,0.6,0.8,0.8s0.7,0.4,1,0.6
		c0.4,0.1,0.8,0.2,1.3,0.2c0.3,0,0.6,0,0.9-0.1c0.3-0.1,0.5-0.2,0.8-0.3c0.2-0.1,0.5-0.3,0.7-0.4c0.2-0.2,0.4-0.3,0.7-0.5l0.3,0.3
		c-0.2,0.3-0.5,0.6-0.8,0.9c-0.3,0.3-0.7,0.7-1.2,1c-0.5,0.3-1,0.5-1.6,0.7s-1.3,0.3-2.1,0.3s-1.6-0.1-2.3-0.4s-1.4-0.7-2-1.3
		s-1.1-1.3-1.4-2.1c-0.4-0.9-0.5-1.9-0.5-3c0-0.8,0.1-1.6,0.3-2.3c0.2-0.7,0.5-1.3,0.9-1.9c0.4-0.6,0.8-1,1.3-1.5
		c0.5-0.4,1-0.8,1.5-1c0.5-0.3,1.1-0.5,1.6-0.6c0.6-0.1,1.1-0.2,1.6-0.2c0.7,0,1.3,0.1,1.8,0.2c0.5,0.1,0.9,0.3,1.3,0.6
		s0.6,0.5,0.7,0.9c0.2,0.3,0.2,0.7,0.2,1c0,0.4-0.1,0.8-0.4,1.2s-0.6,0.6-1,0.9L117.2,177.9z M120,175.1c0.1-0.1,0.2-0.1,0.3-0.2
		s0.1-0.2,0.2-0.2s0.1-0.2,0.1-0.4c0-0.1,0-0.3,0-0.5c0-0.2,0-0.5-0.1-0.8c0-0.3-0.1-0.5-0.3-0.8s-0.3-0.5-0.5-0.6s-0.4-0.2-0.7-0.2
		c-0.3,0-0.6,0.1-0.8,0.3c-0.2,0.2-0.4,0.4-0.6,0.8c-0.2,0.3-0.3,0.7-0.4,1.1s-0.2,0.8-0.2,1.2c0,0.4-0.1,0.8-0.1,1.2s0,0.7,0,0.9
		L120,175.1z"/>
	<path d="M131,171c-0.2,0-0.4,0-0.6,0.1s-0.4,0.1-0.5,0.3s-0.3,0.3-0.3,0.5c-0.1,0.2-0.1,0.4-0.1,0.7c0,0.4,0.1,0.7,0.4,1.1
		c0.3,0.4,0.6,0.7,1,1.1c0.4,0.4,0.8,0.8,1.3,1.2c0.5,0.4,0.9,0.8,1.3,1.3s0.7,0.9,1,1.4c0.3,0.5,0.4,1.1,0.4,1.6
		c0,0.7-0.1,1.2-0.3,1.8c-0.2,0.5-0.5,0.9-1,1.3s-0.9,0.6-1.5,0.8s-1.2,0.3-2,0.3c-0.6,0-1.2-0.1-1.7-0.3c-0.5-0.2-1-0.4-1.4-0.7
		s-0.7-0.5-1-0.8c-0.3-0.3-0.5-0.6-0.7-0.8l0.5-0.3c0.1,0.1,0.3,0.3,0.5,0.4c0.2,0.2,0.4,0.3,0.6,0.4s0.5,0.2,0.7,0.3
		c0.3,0.1,0.5,0.1,0.8,0.1c0.7,0,1.2-0.2,1.6-0.5s0.6-0.8,0.6-1.4c0-0.3-0.1-0.7-0.3-1.1s-0.5-0.7-0.9-1.1c-0.3-0.4-0.7-0.8-1.1-1.2
		c-0.4-0.4-0.8-0.9-1.1-1.3c-0.3-0.4-0.6-0.9-0.9-1.4c-0.2-0.5-0.3-1-0.3-1.5c0-0.6,0.1-1.1,0.3-1.5c0.2-0.4,0.5-0.8,0.9-1.1
		c0.4-0.3,0.8-0.5,1.3-0.6c0.5-0.1,1-0.2,1.5-0.2c0.6,0,1.2,0.1,1.7,0.2s0.9,0.3,1.3,0.5c0.4,0.2,0.6,0.5,0.8,0.8
		c0.2,0.3,0.3,0.7,0.3,1.2c0,0.3-0.1,0.6-0.3,0.9c-0.2,0.3-0.5,0.4-1,0.4c-0.4,0-0.7-0.1-0.9-0.3c-0.2-0.2-0.3-0.4-0.3-0.7
		c0-0.2,0-0.3,0.1-0.5s0.2-0.2,0.3-0.3s0.2-0.1,0.3-0.2c0.1,0,0.1-0.1,0.1-0.2c0-0.3-0.1-0.5-0.4-0.6S131.5,171,131,171z"/>
	<path d="M141.4,171.1v10.1c0,0.5,0.1,0.8,0.3,1c0.2,0.2,0.4,0.3,0.8,0.3c0.2,0,0.5-0.1,0.7-0.2s0.4-0.3,0.5-0.5
		c0.2-0.2,0.3-0.4,0.4-0.7l0.4,0.2c-0.1,0.3-0.3,0.6-0.5,1c-0.2,0.3-0.4,0.7-0.7,1c-0.3,0.3-0.7,0.5-1.2,0.7s-1.1,0.3-1.8,0.3
		c-0.4,0-0.8-0.1-1.2-0.2s-0.7-0.3-1-0.6c-0.3-0.3-0.5-0.6-0.7-1s-0.3-0.8-0.3-1.4v-10.1h-1.5v-1c0.3,0,0.6-0.1,1.1-0.2
		c0.5-0.1,0.9-0.4,1.4-0.7c0.5-0.3,0.9-0.7,1.3-1.2s0.7-1.2,0.9-1.9h1.1v4h2.2c0.7,0,1.1-0.1,1.1-0.4c0-0.1,0-0.2-0.1-0.2
		c-0.1,0-0.2-0.1-0.3-0.1c-0.1,0-0.2-0.1-0.3-0.2c-0.1-0.1-0.1-0.2-0.1-0.5c0-0.3,0.1-0.5,0.2-0.6c0.2-0.1,0.4-0.2,0.6-0.2
		c0.2,0,0.3,0,0.4,0.1s0.2,0.2,0.3,0.3c0.1,0.1,0.1,0.2,0.2,0.4c0,0.1,0.1,0.3,0.1,0.4c0,0.6-0.2,1.1-0.5,1.4
		c-0.3,0.4-0.9,0.5-1.6,0.5H141.4z"/>
	<path d="M149.7,177.9c0,0.3,0,0.6,0.1,1s0.2,0.7,0.4,1c0.2,0.3,0.4,0.7,0.6,1s0.5,0.6,0.8,0.8s0.7,0.4,1,0.6
		c0.4,0.1,0.8,0.2,1.3,0.2c0.3,0,0.6,0,0.9-0.1c0.3-0.1,0.5-0.2,0.8-0.3c0.2-0.1,0.5-0.3,0.7-0.4c0.2-0.2,0.4-0.3,0.7-0.5l0.3,0.3
		c-0.2,0.3-0.5,0.6-0.8,0.9c-0.3,0.3-0.7,0.7-1.2,1c-0.5,0.3-1,0.5-1.6,0.7s-1.3,0.3-2.1,0.3s-1.6-0.1-2.3-0.4s-1.4-0.7-2-1.3
		s-1.1-1.3-1.4-2.1c-0.4-0.9-0.5-1.9-0.5-3c0-0.8,0.1-1.6,0.3-2.3c0.2-0.7,0.5-1.3,0.9-1.9c0.4-0.6,0.8-1,1.3-1.5
		c0.5-0.4,1-0.8,1.5-1c0.5-0.3,1.1-0.5,1.6-0.6c0.6-0.1,1.1-0.2,1.6-0.2c0.7,0,1.3,0.1,1.8,0.2c0.5,0.1,0.9,0.3,1.3,0.6
		s0.6,0.5,0.7,0.9c0.2,0.3,0.2,0.7,0.2,1c0,0.4-0.1,0.8-0.4,1.2s-0.6,0.6-1,0.9L149.7,177.9z M152.4,175.1c0.1-0.1,0.2-0.1,0.3-0.2
		s0.1-0.2,0.2-0.2s0.1-0.2,0.1-0.4c0-0.1,0-0.3,0-0.5c0-0.2,0-0.5-0.1-0.8c0-0.3-0.1-0.5-0.3-0.8s-0.3-0.5-0.5-0.6s-0.4-0.2-0.7-0.2
		c-0.3,0-0.6,0.1-0.8,0.3c-0.2,0.2-0.4,0.4-0.6,0.8c-0.2,0.3-0.3,0.7-0.4,1.1s-0.2,0.8-0.2,1.2c0,0.4-0.1,0.8-0.1,1.2s0,0.7,0,0.9
		L152.4,175.1z"/>
	<path d="M169.4,171.1c-0.3,0-0.6,0-0.9,0.1c-0.3,0.1-0.5,0.2-0.7,0.3s-0.3,0.2-0.5,0.4c-0.1,0.1-0.2,0.3-0.2,0.4
		c0,0.1,0.1,0.2,0.2,0.3c0.1,0.1,0.3,0.1,0.5,0.2c0.2,0.1,0.3,0.2,0.5,0.3c0.1,0.1,0.2,0.4,0.2,0.6c0,0.2,0,0.4-0.1,0.5
		c-0.1,0.2-0.2,0.3-0.3,0.4s-0.3,0.2-0.5,0.3s-0.4,0.1-0.6,0.1c-0.5,0-0.9-0.2-1.2-0.5c-0.3-0.3-0.5-0.8-0.5-1.4
		c0-0.6,0.1-1,0.4-1.4s0.7-0.7,1.1-1c0.5-0.3,1-0.4,1.6-0.6s1.2-0.2,1.8-0.2c0.7,0,1.4,0.1,2,0.2c0.6,0.2,1.2,0.4,1.7,0.7
		c0.5,0.3,0.9,0.8,1.2,1.3s0.4,1.1,0.4,1.9v7.7c0,0.1,0,0.2,0,0.3c0,0.1,0,0.2,0.1,0.3s0.1,0.2,0.2,0.2s0.2,0.1,0.3,0.1
		c0.2,0,0.3-0.1,0.5-0.2s0.3-0.2,0.4-0.4l0.3,0.3c-0.1,0.2-0.3,0.4-0.5,0.6c-0.2,0.2-0.4,0.4-0.7,0.6c-0.3,0.2-0.6,0.4-1,0.5
		s-0.8,0.2-1.2,0.2c-0.6,0-1.1-0.2-1.5-0.5s-0.7-0.9-0.9-1.6c-0.3,0.4-0.6,0.7-0.9,1c-0.3,0.3-0.6,0.5-1,0.6s-0.7,0.3-1,0.4
		c-0.3,0.1-0.7,0.1-1,0.1c-0.4,0-0.9-0.1-1.3-0.2s-0.8-0.4-1.1-0.6c-0.3-0.3-0.6-0.7-0.8-1.2c-0.2-0.5-0.3-1.1-0.3-1.7
		c0-0.8,0.2-1.5,0.5-2c0.3-0.5,0.8-1,1.3-1.3c0.5-0.4,1.1-0.7,1.8-0.9c0.7-0.3,1.4-0.5,2.1-0.8c0.5-0.2,0.9-0.5,1.2-0.9
		c0.2-0.4,0.4-0.8,0.4-1.3c0-0.7-0.2-1.2-0.6-1.6C170.6,171.3,170.1,171.1,169.4,171.1z M171.6,177c0-0.2-0.1-0.4-0.2-0.5
		c-0.1-0.1-0.3-0.2-0.6-0.2c-0.3,0-0.6,0.1-0.9,0.2c-0.3,0.1-0.5,0.4-0.8,0.6c-0.2,0.3-0.4,0.6-0.5,1c-0.1,0.4-0.2,0.9-0.2,1.4
		c0,0.5,0,1,0.1,1.3c0.1,0.3,0.2,0.6,0.3,0.8s0.3,0.3,0.5,0.4s0.4,0.1,0.5,0.1c0.2,0,0.5-0.1,0.7-0.2s0.4-0.3,0.5-0.5
		s0.3-0.4,0.4-0.6c0.1-0.2,0.1-0.5,0.1-0.7V177z"/>
	<path d="M183.8,171.1v10.1c0,0.5,0.1,0.8,0.3,1c0.2,0.2,0.4,0.3,0.8,0.3c0.2,0,0.5-0.1,0.7-0.2s0.4-0.3,0.5-0.5
		c0.2-0.2,0.3-0.4,0.4-0.7l0.4,0.2c-0.1,0.3-0.3,0.6-0.5,1c-0.2,0.3-0.4,0.7-0.7,1c-0.3,0.3-0.7,0.5-1.2,0.7s-1.1,0.3-1.8,0.3
		c-0.4,0-0.8-0.1-1.2-0.2s-0.7-0.3-1-0.6c-0.3-0.3-0.5-0.6-0.7-1s-0.3-0.8-0.3-1.4v-10.1H178v-1c0.3,0,0.6-0.1,1.1-0.2
		c0.5-0.1,0.9-0.4,1.4-0.7c0.5-0.3,0.9-0.7,1.3-1.2s0.7-1.2,0.9-1.9h1.1v4h2.2c0.7,0,1.1-0.1,1.1-0.4c0-0.1,0-0.2-0.1-0.2
		c-0.1,0-0.2-0.1-0.3-0.1c-0.1,0-0.2-0.1-0.3-0.2c-0.1-0.1-0.1-0.2-0.1-0.5c0-0.3,0.1-0.5,0.2-0.6c0.2-0.1,0.4-0.2,0.6-0.2
		c0.2,0,0.3,0,0.4,0.1s0.2,0.2,0.3,0.3c0.1,0.1,0.1,0.2,0.2,0.4c0,0.1,0.1,0.3,0.1,0.4c0,0.6-0.2,1.1-0.5,1.4
		c-0.3,0.4-0.9,0.5-1.6,0.5H183.8z"/>
	<path d="M192,177.9c0,0.3,0,0.6,0.1,1s0.2,0.7,0.4,1c0.2,0.3,0.4,0.7,0.6,1s0.5,0.6,0.8,0.8s0.7,0.4,1,0.6c0.4,0.1,0.8,0.2,1.3,0.2
		c0.3,0,0.6,0,0.9-0.1c0.3-0.1,0.5-0.2,0.8-0.3c0.2-0.1,0.5-0.3,0.7-0.4c0.2-0.2,0.4-0.3,0.7-0.5l0.3,0.3c-0.2,0.3-0.5,0.6-0.8,0.9
		c-0.3,0.3-0.7,0.7-1.2,1c-0.5,0.3-1,0.5-1.6,0.7s-1.3,0.3-2.1,0.3s-1.6-0.1-2.3-0.4s-1.4-0.7-2-1.3s-1.1-1.3-1.4-2.1
		c-0.4-0.9-0.5-1.9-0.5-3c0-0.8,0.1-1.6,0.3-2.3c0.2-0.7,0.5-1.3,0.9-1.9c0.4-0.6,0.8-1,1.3-1.5c0.5-0.4,1-0.8,1.5-1
		c0.5-0.3,1.1-0.5,1.6-0.6c0.6-0.1,1.1-0.2,1.6-0.2c0.7,0,1.3,0.1,1.8,0.2c0.5,0.1,0.9,0.3,1.3,0.6s0.6,0.5,0.7,0.9
		c0.2,0.3,0.2,0.7,0.2,1c0,0.4-0.1,0.8-0.4,1.2s-0.6,0.6-1,0.9L192,177.9z M194.8,175.1c0.1-0.1,0.2-0.1,0.3-0.2s0.1-0.2,0.2-0.2
		s0.1-0.2,0.1-0.4c0-0.1,0-0.3,0-0.5c0-0.2,0-0.5-0.1-0.8c0-0.3-0.1-0.5-0.3-0.8s-0.3-0.5-0.5-0.6s-0.4-0.2-0.7-0.2
		c-0.3,0-0.6,0.1-0.8,0.3c-0.2,0.2-0.4,0.4-0.6,0.8c-0.2,0.3-0.3,0.7-0.4,1.1s-0.2,0.8-0.2,1.2c0,0.4-0.1,0.8-0.1,1.2s0,0.7,0,0.9
		L194.8,175.1z"/>
	<path d="M209.5,177.3c0-1.1-0.1-2.1-0.2-2.8c-0.1-0.7-0.2-1.2-0.4-1.6c-0.2-0.4-0.4-0.6-0.6-0.7c-0.2-0.1-0.4-0.2-0.6-0.2
		c-0.3,0-0.5,0.1-0.7,0.2c-0.2,0.1-0.4,0.3-0.5,0.5c-0.2,0.2-0.3,0.4-0.4,0.5c-0.1,0.2-0.2,0.3-0.3,0.4v9.1c0,0.1,0,0.3-0.1,0.4
		c0,0.2-0.1,0.3-0.3,0.5s-0.4,0.3-0.6,0.4s-0.7,0.2-1.1,0.2s-0.9-0.1-1.1-0.2s-0.5-0.2-0.6-0.4c-0.1-0.2-0.2-0.3-0.3-0.5
		s-0.1-0.3-0.1-0.4v-10.6c0-0.3-0.1-0.5-0.2-0.7c-0.1-0.2-0.3-0.3-0.6-0.3c-0.2,0-0.3,0-0.4,0.1s-0.2,0.1-0.4,0.2l-0.3-0.3
		c0.2-0.2,0.4-0.3,0.7-0.5c0.3-0.2,0.5-0.3,0.8-0.4c0.3-0.1,0.6-0.2,1-0.3s0.7-0.1,1.1-0.1c0.6,0,1.1,0.1,1.4,0.3
		c0.3,0.2,0.6,0.4,0.7,0.7s0.2,0.6,0.3,0.9c0,0.3,0,0.5,0,0.7c0.3-0.5,0.7-0.9,1.1-1.3c0.2-0.2,0.4-0.3,0.6-0.5
		c0.2-0.2,0.4-0.3,0.7-0.4s0.5-0.2,0.8-0.3c0.3-0.1,0.5-0.1,0.8-0.1c0.6,0,1.2,0.1,1.6,0.4c0.5,0.2,0.9,0.6,1.2,1.2
		c0.3,0.6,0.6,1.3,0.8,2.2s0.3,2.1,0.3,3.4c0,1.3-0.1,2.5-0.4,3.4c-0.2,1-0.5,1.8-0.9,2.5s-0.8,1.2-1.3,1.7c-0.5,0.4-1,0.8-1.5,1
		s-1,0.4-1.4,0.5s-0.8,0.1-1.2,0.2l-0.2-0.6c0.3-0.1,0.5-0.2,0.8-0.3s0.4-0.3,0.6-0.6c0.2-0.3,0.4-0.6,0.5-1s0.3-0.9,0.4-1.5
		c0.1-0.6,0.2-1.3,0.2-2.2S209.5,178.4,209.5,177.3z"/>
	<path d="M225.2,174.7c-0.3,0-0.5,0-0.7-0.1c-0.2-0.1-0.3-0.2-0.5-0.3c-0.1-0.1-0.2-0.3-0.3-0.5s-0.1-0.4-0.1-0.6c0-0.2,0-0.5,0-0.7
		c0-0.2,0-0.4,0-0.6c0-0.2-0.1-0.3-0.2-0.4s-0.3-0.2-0.6-0.2c-0.3,0-0.7,0.1-1,0.3c-0.4,0.2-0.7,0.5-1,0.9c-0.3,0.4-0.5,0.9-0.7,1.5
		s-0.3,1.4-0.3,2.2c0,1,0.1,1.8,0.3,2.6c0.2,0.8,0.4,1.5,0.8,2c0.4,0.6,0.8,1,1.3,1.3c0.5,0.3,1.1,0.5,1.9,0.5c0.3,0,0.6,0,0.9-0.1
		c0.3-0.1,0.6-0.2,0.8-0.3c0.3-0.1,0.5-0.3,0.7-0.4c0.2-0.2,0.5-0.3,0.7-0.5l0.3,0.3c-0.2,0.3-0.5,0.6-0.8,0.9
		c-0.3,0.3-0.7,0.7-1.2,1c-0.5,0.3-1,0.5-1.6,0.7s-1.3,0.3-2.1,0.3h-0.1l-0.3,1.1c0.6,0,1.1,0.1,1.5,0.2s0.8,0.3,1.1,0.5
		c0.3,0.2,0.5,0.5,0.6,0.8s0.2,0.6,0.2,0.9c0,0.6-0.1,1-0.3,1.4c-0.2,0.4-0.5,0.7-0.9,0.9c-0.4,0.2-0.7,0.4-1.2,0.5
		c-0.4,0.1-0.8,0.1-1.2,0.1c-0.4,0-0.7,0-1.1-0.1c-0.3-0.1-0.6-0.1-0.9-0.2c-0.3-0.1-0.5-0.2-0.7-0.3c-0.2-0.1-0.4-0.2-0.5-0.3
		l0.2-0.5c0.4,0.2,0.7,0.3,1.1,0.4c0.4,0.1,0.8,0.1,1.2,0.1c0.6,0,1.1-0.2,1.4-0.5s0.6-0.7,0.6-1.3c0-0.4-0.1-0.7-0.2-0.9
		c-0.1-0.2-0.3-0.4-0.5-0.6c-0.2-0.1-0.5-0.3-0.8-0.3c-0.3-0.1-0.6-0.1-0.8-0.1l0.4-1.8c-0.7-0.1-1.4-0.4-2-0.7s-1.2-0.8-1.7-1.4
		c-0.5-0.6-0.9-1.2-1.1-2c-0.3-0.8-0.4-1.6-0.4-2.6c0-0.8,0.1-1.6,0.3-2.3s0.5-1.3,0.9-1.9c0.4-0.6,0.8-1.1,1.3-1.5
		c0.5-0.4,1-0.8,1.5-1.1s1.1-0.5,1.6-0.6c0.6-0.1,1.1-0.2,1.6-0.2c0.7,0,1.3,0.1,1.8,0.2c0.5,0.2,0.9,0.4,1.3,0.6
		c0.3,0.3,0.6,0.5,0.7,0.9c0.2,0.3,0.2,0.7,0.2,1c0,0.3,0,0.5-0.1,0.8c-0.1,0.2-0.2,0.5-0.3,0.6s-0.3,0.3-0.5,0.4
		C225.7,174.6,225.5,174.7,225.2,174.7z"/>
	<path d="M233.5,171.1c-0.3,0-0.6,0-0.9,0.1c-0.3,0.1-0.5,0.2-0.7,0.3s-0.3,0.2-0.5,0.4c-0.1,0.1-0.2,0.3-0.2,0.4
		c0,0.1,0.1,0.2,0.2,0.3c0.1,0.1,0.3,0.1,0.5,0.2c0.2,0.1,0.3,0.2,0.5,0.3c0.1,0.1,0.2,0.4,0.2,0.6c0,0.2,0,0.4-0.1,0.5
		c-0.1,0.2-0.2,0.3-0.3,0.4s-0.3,0.2-0.5,0.3s-0.4,0.1-0.6,0.1c-0.5,0-0.9-0.2-1.2-0.5c-0.3-0.3-0.5-0.8-0.5-1.4
		c0-0.6,0.1-1,0.4-1.4s0.7-0.7,1.1-1c0.5-0.3,1-0.4,1.6-0.6s1.2-0.2,1.8-0.2c0.7,0,1.4,0.1,2,0.2c0.6,0.2,1.2,0.4,1.7,0.7
		c0.5,0.3,0.9,0.8,1.2,1.3s0.4,1.1,0.4,1.9v7.7c0,0.1,0,0.2,0,0.3c0,0.1,0,0.2,0.1,0.3s0.1,0.2,0.2,0.2s0.2,0.1,0.3,0.1
		c0.2,0,0.3-0.1,0.5-0.2s0.3-0.2,0.4-0.4l0.3,0.3c-0.1,0.2-0.3,0.4-0.5,0.6c-0.2,0.2-0.4,0.4-0.7,0.6c-0.3,0.2-0.6,0.4-1,0.5
		s-0.8,0.2-1.2,0.2c-0.6,0-1.1-0.2-1.5-0.5s-0.7-0.9-0.9-1.6c-0.3,0.4-0.6,0.7-0.9,1c-0.3,0.3-0.6,0.5-1,0.6s-0.7,0.3-1,0.4
		c-0.3,0.1-0.7,0.1-1,0.1c-0.4,0-0.9-0.1-1.3-0.2s-0.8-0.4-1.1-0.6c-0.3-0.3-0.6-0.7-0.8-1.2c-0.2-0.5-0.3-1.1-0.3-1.7
		c0-0.8,0.2-1.5,0.5-2c0.3-0.5,0.8-1,1.3-1.3c0.5-0.4,1.1-0.7,1.8-0.9c0.7-0.3,1.4-0.5,2.1-0.8c0.5-0.2,0.9-0.5,1.2-0.9
		c0.2-0.4,0.4-0.8,0.4-1.3c0-0.7-0.2-1.2-0.6-1.6C234.7,171.3,234.2,171.1,233.5,171.1z M233,166.5c-0.2,0-0.4,0-0.5,0.1
		c-0.2,0.1-0.3,0.2-0.4,0.3c-0.1,0.1-0.2,0.3-0.3,0.5c-0.1,0.2-0.1,0.4-0.2,0.6h-0.6c0-0.6,0.1-1.1,0.3-1.5s0.4-0.8,0.6-1.1
		c0.2-0.3,0.5-0.5,0.7-0.6c0.3-0.1,0.5-0.2,0.8-0.2c0.3,0,0.6,0.1,0.9,0.2c0.3,0.1,0.6,0.3,0.8,0.5s0.5,0.3,0.8,0.5
		c0.2,0.1,0.5,0.2,0.7,0.2c0.2,0,0.4,0,0.5-0.1c0.2-0.1,0.3-0.2,0.4-0.3c0.1-0.1,0.2-0.3,0.3-0.5c0.1-0.2,0.1-0.4,0.2-0.6h0.6
		c0,0.6-0.1,1.1-0.3,1.5c-0.2,0.4-0.4,0.8-0.6,1.1c-0.2,0.3-0.5,0.5-0.7,0.6c-0.3,0.1-0.5,0.2-0.8,0.2c-0.3,0-0.6-0.1-0.9-0.2
		c-0.3-0.1-0.6-0.3-0.8-0.5s-0.5-0.3-0.8-0.5C233.4,166.6,233.2,166.5,233,166.5z M235.6,177c0-0.2-0.1-0.4-0.2-0.5
		c-0.1-0.1-0.3-0.2-0.6-0.2c-0.3,0-0.6,0.1-0.9,0.2c-0.3,0.1-0.5,0.4-0.8,0.6c-0.2,0.3-0.4,0.6-0.5,1c-0.1,0.4-0.2,0.9-0.2,1.4
		c0,0.5,0,1,0.1,1.3c0.1,0.3,0.2,0.6,0.3,0.8s0.3,0.3,0.5,0.4s0.4,0.1,0.5,0.1c0.2,0,0.5-0.1,0.7-0.2s0.4-0.3,0.5-0.5
		s0.3-0.4,0.4-0.6c0.1-0.2,0.1-0.5,0.1-0.7V177z"/>
	<path d="M242.6,177.1c0-1.2,0.2-2.2,0.5-3.1c0.3-0.9,0.8-1.6,1.4-2.2s1.3-1.1,2-1.4s1.6-0.5,2.4-0.5s1.6,0.1,2.4,0.4
		c0.8,0.3,1.4,0.7,2,1.3s1,1.3,1.4,2.2c0.3,0.9,0.5,1.9,0.5,3.1c0,1.2-0.2,2.3-0.5,3.2c-0.3,0.9-0.8,1.7-1.4,2.3s-1.3,1.1-2,1.4
		s-1.6,0.5-2.4,0.5s-1.6-0.2-2.4-0.5s-1.4-0.8-2-1.4s-1-1.4-1.4-2.3S242.6,178.3,242.6,177.1z M251,177c0-0.7,0-1.4-0.1-2.1
		c0-0.7-0.1-1.3-0.3-1.8c-0.1-0.5-0.4-1-0.6-1.3s-0.6-0.5-1.1-0.5s-0.8,0.2-1.1,0.5c-0.3,0.3-0.5,0.8-0.6,1.3
		c-0.1,0.5-0.2,1.2-0.3,1.9c0,0.7-0.1,1.4-0.1,2.1c0,0.7,0,1.4,0.1,2.1s0.1,1.3,0.3,1.9s0.4,1,0.6,1.3c0.3,0.3,0.6,0.5,1.1,0.5
		s0.8-0.2,1.1-0.5c0.3-0.3,0.5-0.8,0.6-1.4c0.1-0.6,0.2-1.2,0.3-1.9S251,177.7,251,177z"/>
	<path d="M264.2,172.3c0-0.3-0.1-0.5-0.2-0.7c-0.1-0.2-0.3-0.3-0.6-0.3c-0.2,0-0.3,0-0.4,0.1s-0.2,0.1-0.4,0.2l-0.3-0.3
		c0.2-0.2,0.4-0.3,0.7-0.5c0.3-0.2,0.5-0.3,0.8-0.4c0.3-0.1,0.6-0.2,1-0.3s0.7-0.1,1.1-0.1c0.4,0,0.8,0.1,1.1,0.2
		c0.3,0.1,0.5,0.3,0.7,0.5s0.3,0.4,0.4,0.6c0.1,0.2,0.2,0.4,0.2,0.5c0.2-0.3,0.4-0.5,0.6-0.7c0.3-0.2,0.5-0.4,0.8-0.5
		s0.6-0.3,0.9-0.3s0.7-0.1,1-0.1c0.7,0,1.4,0.2,2,0.5s1.1,0.7,1.5,1.3c0.4,0.6,0.8,1.3,1,2.2s0.3,1.9,0.3,3c0,1.3-0.1,2.5-0.4,3.4
		c-0.3,0.9-0.6,1.7-1.1,2.3c-0.5,0.6-1,1-1.5,1.3s-1.2,0.4-1.8,0.4c-0.5,0-0.9-0.1-1.3-0.2s-0.7-0.2-1-0.4c-0.3-0.1-0.5-0.3-0.7-0.4
		s-0.3-0.3-0.4-0.4v6.7c0,0.1,0,0.3-0.1,0.4s-0.1,0.3-0.3,0.5s-0.4,0.3-0.6,0.4s-0.7,0.2-1.1,0.2s-0.9-0.1-1.1-0.2
		c-0.3-0.1-0.5-0.3-0.6-0.4c-0.1-0.2-0.2-0.3-0.3-0.5c0-0.2-0.1-0.3-0.1-0.4V172.3z M268.4,181.1c0,0.1,0,0.2,0.1,0.4
		c0.1,0.2,0.2,0.4,0.3,0.6s0.3,0.4,0.5,0.5s0.5,0.2,0.8,0.2c0.4,0,0.7-0.2,1-0.5c0.3-0.3,0.5-0.7,0.7-1.2c0.2-0.5,0.3-1.1,0.4-1.8
		s0.1-1.4,0.1-2.2c0-1-0.1-1.8-0.2-2.5c-0.1-0.7-0.3-1.2-0.5-1.6c-0.2-0.4-0.4-0.7-0.7-0.9c-0.3-0.2-0.6-0.3-0.9-0.3
		c-0.2,0-0.4,0.1-0.6,0.2c-0.2,0.1-0.4,0.3-0.5,0.4c-0.2,0.2-0.3,0.4-0.4,0.6c-0.1,0.2-0.2,0.4-0.2,0.6V181.1z"/>
	<path d="M278.4,177.1c0-1.2,0.2-2.2,0.5-3.1c0.3-0.9,0.8-1.6,1.4-2.2s1.3-1.1,2-1.4s1.6-0.5,2.4-0.5s1.6,0.1,2.4,0.4
		c0.8,0.3,1.4,0.7,2,1.3s1,1.3,1.4,2.2c0.3,0.9,0.5,1.9,0.5,3.1c0,1.2-0.2,2.3-0.5,3.2c-0.3,0.9-0.8,1.7-1.4,2.3s-1.3,1.1-2,1.4
		s-1.6,0.5-2.4,0.5s-1.6-0.2-2.4-0.5s-1.4-0.8-2-1.4s-1-1.4-1.4-2.3S278.4,178.3,278.4,177.1z M286.8,177c0-0.7,0-1.4-0.1-2.1
		c0-0.7-0.1-1.3-0.3-1.8c-0.1-0.5-0.4-1-0.6-1.3s-0.6-0.5-1.1-0.5s-0.8,0.2-1.1,0.5c-0.3,0.3-0.5,0.8-0.6,1.3
		c-0.1,0.5-0.2,1.2-0.3,1.9c0,0.7-0.1,1.4-0.1,2.1c0,0.7,0,1.4,0.1,2.1s0.1,1.3,0.3,1.9s0.4,1,0.6,1.3c0.3,0.3,0.6,0.5,1.1,0.5
		s0.8-0.2,1.1-0.5c0.3-0.3,0.5-0.8,0.6-1.4c0.1-0.6,0.2-1.2,0.3-1.9S286.8,177.7,286.8,177z"/>
	<path d="M298,172.8c0.3-0.5,0.7-1,1.1-1.4c0.2-0.2,0.3-0.4,0.5-0.5c0.2-0.2,0.4-0.3,0.6-0.5s0.4-0.2,0.6-0.3s0.4-0.1,0.7-0.1
		c0.5,0,0.8,0.1,1.1,0.4c0.3,0.3,0.4,0.7,0.4,1.2c0,0.3,0,0.6-0.1,0.9s-0.1,0.6-0.3,1h-0.4c-0.1-0.3-0.2-0.5-0.4-0.7
		c-0.2-0.2-0.5-0.3-0.9-0.3c-0.3,0-0.6,0.1-0.8,0.2c-0.3,0.1-0.5,0.2-0.8,0.4c-0.3,0.2-0.5,0.3-0.7,0.5c-0.2,0.2-0.4,0.4-0.6,0.5
		v8.9c0,0.1,0,0.3-0.1,0.4s-0.1,0.3-0.3,0.5c-0.1,0.1-0.4,0.3-0.6,0.4s-0.7,0.2-1.1,0.2s-0.9-0.1-1.1-0.2s-0.5-0.2-0.6-0.4
		c-0.1-0.2-0.2-0.3-0.3-0.5s-0.1-0.3-0.1-0.4v-10.6c0-0.3-0.1-0.5-0.2-0.7c-0.1-0.2-0.3-0.3-0.6-0.3c-0.2,0-0.3,0-0.4,0.1
		s-0.2,0.1-0.4,0.2l-0.3-0.3c0.2-0.2,0.4-0.3,0.7-0.5c0.3-0.2,0.5-0.3,0.8-0.4c0.3-0.1,0.6-0.2,1-0.3s0.7-0.1,1.1-0.1
		c0.4,0,0.7,0.1,1,0.2c0.3,0.1,0.5,0.2,0.7,0.4c0.2,0.2,0.3,0.4,0.4,0.6c0.1,0.2,0.2,0.4,0.2,0.6c0,0.2,0.1,0.4,0.1,0.6
		C298,172.5,298,172.7,298,172.8z"/>
	<path d="M303.6,177.1c0-1.2,0.2-2.2,0.5-3.1c0.3-0.9,0.8-1.6,1.4-2.2s1.3-1.1,2-1.4s1.6-0.5,2.4-0.5s1.6,0.1,2.4,0.4
		c0.8,0.3,1.4,0.7,2,1.3s1,1.3,1.4,2.2c0.3,0.9,0.5,1.9,0.5,3.1c0,1.2-0.2,2.3-0.5,3.2c-0.3,0.9-0.8,1.7-1.4,2.3s-1.3,1.1-2,1.4
		s-1.6,0.5-2.4,0.5h-0.1c0.5,0.1,1.1,0.3,1.7,0.6c0.6,0.3,1.2,0.5,1.9,0.8c0.7,0.3,1.3,0.6,2,0.9c0.7,0.3,1.3,0.6,1.9,0.8
		s1.2,0.4,1.8,0.6c0.6,0.2,1,0.2,1.5,0.2c0.3,0,0.5,0,0.7-0.1c0.2,0,0.4-0.1,0.5-0.2s0.2-0.2,0.3-0.3s0.1-0.2,0.2-0.4l0.4,0.1
		c0,0.5-0.2,1-0.3,1.4s-0.4,0.8-0.7,1.1c-0.3,0.3-0.6,0.5-1,0.7c-0.4,0.2-0.9,0.3-1.4,0.3c-0.6,0-1.2-0.1-1.9-0.4
		c-0.7-0.2-1.4-0.5-2.2-0.9c-0.7-0.4-1.5-0.7-2.3-1.1s-1.5-0.8-2.2-1.1c-0.7-0.4-1.4-0.6-2.1-0.9c-0.7-0.2-1.3-0.4-1.8-0.4
		c-0.5,0-0.9,0.2-1.1,0.7l-0.4-0.1c0-0.2,0.1-0.4,0.2-0.7c0.1-0.3,0.3-0.6,0.5-0.8c0.2-0.3,0.5-0.5,0.9-0.8s0.8-0.3,1.3-0.4
		c-0.6-0.2-1.3-0.4-1.8-0.8c-0.6-0.4-1.1-0.9-1.5-1.4c-0.4-0.6-0.8-1.3-1-2.1S303.6,178.1,303.6,177.1z M312,177
		c0-0.7,0-1.4-0.1-2.1c0-0.7-0.1-1.3-0.3-1.8c-0.1-0.5-0.4-1-0.6-1.3s-0.6-0.5-1.1-0.5s-0.8,0.2-1.1,0.5c-0.3,0.3-0.5,0.8-0.6,1.3
		c-0.1,0.5-0.2,1.2-0.3,1.9c0,0.7-0.1,1.4-0.1,2.1c0,0.7,0,1.4,0.1,2.1s0.1,1.3,0.3,1.9s0.4,1,0.6,1.3c0.3,0.3,0.6,0.5,1.1,0.5
		s0.8-0.2,1.1-0.5c0.3-0.3,0.5-0.8,0.6-1.4c0.1-0.6,0.2-1.2,0.3-1.9S312,177.7,312,177z"/>
	<path d="M330.8,181.8c0,0.1,0,0.2,0,0.3s0,0.2,0.1,0.3c0,0.1,0.1,0.2,0.2,0.2s0.2,0.1,0.3,0.1c0.2,0,0.3-0.1,0.5-0.2
		s0.3-0.2,0.4-0.4l0.3,0.3c-0.1,0.2-0.3,0.4-0.5,0.6s-0.5,0.5-0.7,0.7c-0.3,0.2-0.6,0.4-1,0.5s-0.8,0.2-1.3,0.2
		c-0.4,0-0.8-0.1-1-0.2s-0.5-0.2-0.8-0.4s-0.4-0.4-0.5-0.6c-0.1-0.2-0.2-0.5-0.2-0.8v-0.6c-0.5,0.5-0.9,0.9-1.4,1.3
		c-0.2,0.2-0.5,0.3-0.7,0.5c-0.2,0.2-0.5,0.3-0.8,0.4s-0.5,0.2-0.8,0.3c-0.3,0.1-0.6,0.1-0.8,0.1c-0.5,0-1-0.1-1.4-0.3
		s-0.7-0.5-0.9-0.8c-0.2-0.3-0.4-0.7-0.5-1.1c-0.1-0.4-0.2-0.8-0.2-1.2v-8.5c0-0.1,0-0.2,0-0.3s0-0.2-0.1-0.3c0-0.1-0.1-0.2-0.2-0.2
		s-0.2-0.1-0.3-0.1c-0.2,0-0.3,0.1-0.5,0.2s-0.3,0.2-0.4,0.4l-0.3-0.3c0.1-0.2,0.3-0.4,0.5-0.6s0.5-0.5,0.7-0.7
		c0.3-0.2,0.6-0.4,1-0.5c0.4-0.1,0.8-0.2,1.3-0.2c0.4,0,0.8,0.1,1.1,0.2c0.3,0.1,0.6,0.2,0.8,0.4s0.4,0.4,0.5,0.6
		c0.1,0.2,0.2,0.5,0.2,0.8v9.1c0,0.1,0,0.3,0.1,0.4c0,0.1,0.1,0.3,0.2,0.4s0.2,0.2,0.3,0.3s0.3,0.1,0.4,0.1c0.3,0,0.5-0.1,0.8-0.2
		s0.5-0.3,0.7-0.5c0.2-0.2,0.4-0.4,0.6-0.6c0.2-0.2,0.3-0.3,0.3-0.4v-8c0-0.1,0-0.2,0-0.3s0-0.2-0.1-0.3c0-0.1-0.1-0.2-0.2-0.2
		s-0.2-0.1-0.3-0.1c-0.2,0-0.3,0.1-0.5,0.2s-0.3,0.2-0.4,0.4l-0.3-0.3c0.1-0.2,0.3-0.4,0.5-0.6s0.5-0.5,0.7-0.7
		c0.3-0.2,0.6-0.4,1-0.5c0.4-0.1,0.8-0.2,1.3-0.2c0.4,0,0.8,0.1,1.1,0.2c0.3,0.1,0.6,0.2,0.8,0.4s0.4,0.4,0.5,0.6
		c0.1,0.2,0.2,0.5,0.2,0.8V181.8z"/>
	<path d="M337.9,177.9c0,0.3,0,0.6,0.1,1s0.2,0.7,0.4,1c0.2,0.3,0.4,0.7,0.6,1s0.5,0.6,0.8,0.8s0.7,0.4,1,0.6
		c0.4,0.1,0.8,0.2,1.3,0.2c0.3,0,0.6,0,0.9-0.1c0.3-0.1,0.5-0.2,0.8-0.3c0.2-0.1,0.5-0.3,0.7-0.4c0.2-0.2,0.4-0.3,0.7-0.5l0.3,0.3
		c-0.2,0.3-0.5,0.6-0.8,0.9c-0.3,0.3-0.7,0.7-1.2,1c-0.5,0.3-1,0.5-1.6,0.7s-1.3,0.3-2.1,0.3s-1.6-0.1-2.3-0.4s-1.4-0.7-2-1.3
		s-1.1-1.3-1.4-2.1c-0.4-0.9-0.5-1.9-0.5-3c0-0.8,0.1-1.6,0.3-2.3c0.2-0.7,0.5-1.3,0.9-1.9c0.4-0.6,0.8-1,1.3-1.5
		c0.5-0.4,1-0.8,1.5-1c0.5-0.3,1.1-0.5,1.6-0.6c0.6-0.1,1.1-0.2,1.6-0.2c0.7,0,1.3,0.1,1.8,0.2c0.5,0.1,0.9,0.3,1.3,0.6
		s0.6,0.5,0.7,0.9c0.2,0.3,0.2,0.7,0.2,1c0,0.4-0.1,0.8-0.4,1.2s-0.6,0.6-1,0.9L337.9,177.9z M340.6,175.1c0.1-0.1,0.2-0.1,0.3-0.2
		s0.1-0.2,0.2-0.2s0.1-0.2,0.1-0.4c0-0.1,0-0.3,0-0.5c0-0.2,0-0.5-0.1-0.8c0-0.3-0.1-0.5-0.3-0.8s-0.3-0.5-0.5-0.6s-0.4-0.2-0.7-0.2
		c-0.3,0-0.6,0.1-0.8,0.3c-0.2,0.2-0.4,0.4-0.6,0.8c-0.2,0.3-0.3,0.7-0.4,1.1s-0.2,0.8-0.2,1.2c0,0.4-0.1,0.8-0.1,1.2s0,0.7,0,0.9
		L340.6,175.1z"/>
	<path d="M40.3,211.5c0,0.3,0,0.6,0.1,1s0.2,0.7,0.4,1c0.2,0.3,0.4,0.7,0.6,1s0.5,0.6,0.8,0.8s0.7,0.4,1,0.6
		c0.4,0.1,0.8,0.2,1.3,0.2c0.3,0,0.6,0,0.9-0.1c0.3-0.1,0.5-0.2,0.8-0.3c0.2-0.1,0.5-0.3,0.7-0.4c0.2-0.2,0.4-0.3,0.7-0.5l0.3,0.3
		c-0.2,0.3-0.5,0.6-0.8,0.9c-0.3,0.3-0.7,0.7-1.2,1c-0.5,0.3-1,0.5-1.6,0.7s-1.3,0.3-2.1,0.3s-1.6-0.1-2.3-0.4s-1.4-0.7-2-1.3
		s-1.1-1.3-1.4-2.1c-0.4-0.9-0.5-1.9-0.5-3c0-0.8,0.1-1.6,0.3-2.3c0.2-0.7,0.5-1.3,0.9-1.9c0.4-0.6,0.8-1,1.3-1.5
		c0.5-0.4,1-0.8,1.5-1c0.5-0.3,1.1-0.5,1.6-0.6c0.6-0.1,1.1-0.2,1.6-0.2c0.7,0,1.3,0.1,1.8,0.2c0.5,0.1,0.9,0.3,1.3,0.6
		s0.6,0.5,0.7,0.9c0.2,0.3,0.2,0.7,0.2,1c0,0.4-0.1,0.8-0.4,1.2s-0.6,0.6-1,0.9L40.3,211.5z M43,208.7c0.1-0.1,0.2-0.1,0.3-0.2
		s0.1-0.2,0.2-0.2s0.1-0.2,0.1-0.4c0-0.1,0-0.3,0-0.5c0-0.2,0-0.5-0.1-0.8c0-0.3-0.1-0.5-0.3-0.8s-0.3-0.5-0.5-0.6s-0.4-0.2-0.7-0.2
		c-0.3,0-0.6,0.1-0.8,0.3c-0.2,0.2-0.4,0.4-0.6,0.8c-0.2,0.3-0.3,0.7-0.4,1.1s-0.2,0.8-0.2,1.2c0,0.4-0.1,0.8-0.1,1.2s0,0.7,0,0.9
		L43,208.7z"/>
	<path d="M61.7,215.4c0,0.1,0,0.2,0,0.3s0,0.2,0.1,0.3c0,0.1,0.1,0.2,0.2,0.2s0.2,0.1,0.3,0.1c0.2,0,0.3-0.1,0.5-0.2
		s0.3-0.2,0.4-0.4l0.3,0.3c-0.1,0.2-0.3,0.4-0.5,0.6s-0.5,0.5-0.7,0.7c-0.3,0.2-0.6,0.4-1,0.5s-0.8,0.2-1.3,0.2
		c-0.4,0-0.8-0.1-1-0.2s-0.5-0.2-0.8-0.4s-0.4-0.4-0.5-0.6c-0.1-0.2-0.2-0.5-0.2-0.8v-0.6c-0.5,0.5-0.9,0.9-1.4,1.3
		c-0.2,0.2-0.5,0.3-0.7,0.5c-0.2,0.2-0.5,0.3-0.8,0.4s-0.5,0.2-0.8,0.3c-0.3,0.1-0.6,0.1-0.8,0.1c-0.5,0-1-0.1-1.4-0.3
		s-0.7-0.5-0.9-0.8c-0.2-0.3-0.4-0.7-0.5-1.1c-0.1-0.4-0.2-0.8-0.2-1.2v-8.5c0-0.1,0-0.2,0-0.3s0-0.2-0.1-0.3c0-0.1-0.1-0.2-0.2-0.2
		s-0.2-0.1-0.3-0.1c-0.2,0-0.3,0.1-0.5,0.2s-0.3,0.2-0.4,0.4l-0.3-0.3c0.1-0.2,0.3-0.4,0.5-0.6s0.5-0.5,0.7-0.7
		c0.3-0.2,0.6-0.4,1-0.5c0.4-0.1,0.8-0.2,1.3-0.2c0.4,0,0.8,0.1,1.1,0.2c0.3,0.1,0.6,0.2,0.8,0.4s0.4,0.4,0.5,0.6
		c0.1,0.2,0.2,0.5,0.2,0.8v9.1c0,0.1,0,0.3,0.1,0.4c0,0.1,0.1,0.3,0.2,0.4s0.2,0.2,0.3,0.3s0.3,0.1,0.4,0.1c0.3,0,0.5-0.1,0.8-0.2
		s0.5-0.3,0.7-0.5c0.2-0.2,0.4-0.4,0.6-0.6c0.2-0.2,0.3-0.3,0.3-0.4v-8c0-0.1,0-0.2,0-0.3s0-0.2-0.1-0.3c0-0.1-0.1-0.2-0.2-0.2
		s-0.2-0.1-0.3-0.1c-0.2,0-0.3,0.1-0.5,0.2s-0.3,0.2-0.4,0.4l-0.3-0.3c0.1-0.2,0.3-0.4,0.5-0.6s0.5-0.5,0.7-0.7
		c0.3-0.2,0.6-0.4,1-0.5c0.4-0.1,0.8-0.2,1.3-0.2c0.4,0,0.8,0.1,1.1,0.2c0.3,0.1,0.6,0.2,0.8,0.4s0.4,0.4,0.5,0.6
		c0.1,0.2,0.2,0.5,0.2,0.8V215.4z"/>
	<path d="M75.9,204.6c-0.2,0-0.4,0-0.6,0.1s-0.4,0.1-0.5,0.3s-0.3,0.3-0.3,0.5c-0.1,0.2-0.1,0.4-0.1,0.7c0,0.4,0.1,0.7,0.4,1.1
		c0.3,0.4,0.6,0.7,1,1.1c0.4,0.4,0.8,0.8,1.3,1.2c0.5,0.4,0.9,0.8,1.3,1.3s0.7,0.9,1,1.4c0.3,0.5,0.4,1.1,0.4,1.6
		c0,0.7-0.1,1.2-0.3,1.8c-0.2,0.5-0.5,0.9-1,1.3s-0.9,0.6-1.5,0.8s-1.2,0.3-2,0.3c-0.6,0-1.2-0.1-1.7-0.3s-1-0.4-1.4-0.7
		s-0.7-0.5-1-0.8c-0.3-0.3-0.5-0.6-0.7-0.8l0.5-0.3c0.1,0.1,0.3,0.3,0.5,0.4c0.2,0.2,0.4,0.3,0.6,0.4s0.5,0.2,0.7,0.3
		c0.3,0.1,0.5,0.1,0.8,0.1c0.7,0,1.2-0.2,1.6-0.5s0.6-0.8,0.6-1.4c0-0.3-0.1-0.7-0.3-1.1s-0.5-0.7-0.9-1.1c-0.3-0.4-0.7-0.8-1.1-1.2
		c-0.4-0.4-0.8-0.9-1.1-1.3c-0.3-0.4-0.6-0.9-0.9-1.4c-0.2-0.5-0.3-1-0.3-1.5c0-0.6,0.1-1.1,0.3-1.5c0.2-0.4,0.5-0.8,0.9-1.1
		c0.4-0.3,0.8-0.5,1.3-0.6c0.5-0.1,1-0.2,1.5-0.2c0.6,0,1.2,0.1,1.7,0.2s0.9,0.3,1.3,0.5c0.4,0.2,0.6,0.5,0.8,0.8
		c0.2,0.3,0.3,0.7,0.3,1.2c0,0.3-0.1,0.6-0.3,0.9c-0.2,0.3-0.5,0.4-1,0.4c-0.4,0-0.7-0.1-0.9-0.3c-0.2-0.2-0.3-0.4-0.3-0.7
		c0-0.2,0-0.3,0.1-0.5s0.2-0.2,0.3-0.3s0.2-0.1,0.3-0.2c0.1,0,0.1-0.1,0.1-0.2c0-0.3-0.1-0.5-0.4-0.6S76.4,204.6,75.9,204.6z"/>
	<path d="M81.3,210.7c0-1.2,0.2-2.2,0.5-3.1c0.3-0.9,0.8-1.6,1.4-2.2s1.3-1.1,2-1.4s1.6-0.5,2.4-0.5s1.6,0.1,2.4,0.4
		c0.8,0.3,1.4,0.7,2,1.3s1,1.3,1.4,2.2c0.3,0.9,0.5,1.9,0.5,3.1c0,1.2-0.2,2.3-0.5,3.2c-0.3,0.9-0.8,1.7-1.4,2.3s-1.3,1.1-2,1.4
		s-1.6,0.5-2.4,0.5s-1.6-0.2-2.4-0.5s-1.4-0.8-2-1.4s-1-1.4-1.4-2.3S81.3,211.9,81.3,210.7z M85.5,201.8l3.7-3.6
		c0.2-0.1,0.3-0.2,0.5-0.3c0.2-0.1,0.3-0.1,0.5-0.1c0.2,0,0.3,0,0.5,0.1c0.1,0.1,0.3,0.2,0.4,0.3c0.1,0.1,0.2,0.3,0.3,0.4
		c0.1,0.2,0.1,0.3,0.1,0.5c0,0.2-0.1,0.4-0.2,0.6s-0.3,0.3-0.6,0.4l-4.9,2.1L85.5,201.8z M89.7,210.6c0-0.7,0-1.4-0.1-2.1
		c0-0.7-0.1-1.3-0.3-1.8c-0.1-0.5-0.4-1-0.6-1.3s-0.6-0.5-1.1-0.5s-0.8,0.2-1.1,0.5c-0.3,0.3-0.5,0.8-0.6,1.3
		c-0.1,0.5-0.2,1.2-0.3,1.9c0,0.7-0.1,1.4-0.1,2.1c0,0.7,0,1.4,0.1,2.1s0.1,1.3,0.3,1.9s0.4,1,0.6,1.3c0.3,0.3,0.6,0.5,1.1,0.5
		s0.8-0.2,1.1-0.5c0.3-0.3,0.5-0.8,0.6-1.4c0.1-0.6,0.2-1.2,0.3-1.9S89.7,211.3,89.7,210.6z"/>
	<path d="M106.3,211.5c0,0.3,0,0.6,0.1,1s0.2,0.7,0.4,1c0.2,0.3,0.4,0.7,0.6,1s0.5,0.6,0.8,0.8s0.7,0.4,1,0.6
		c0.4,0.1,0.8,0.2,1.3,0.2c0.3,0,0.6,0,0.9-0.1c0.3-0.1,0.5-0.2,0.8-0.3c0.2-0.1,0.5-0.3,0.7-0.4c0.2-0.2,0.4-0.3,0.7-0.5l0.3,0.3
		c-0.2,0.3-0.5,0.6-0.8,0.9c-0.3,0.3-0.7,0.7-1.2,1c-0.5,0.3-1,0.5-1.6,0.7s-1.3,0.3-2.1,0.3s-1.6-0.1-2.3-0.4s-1.4-0.7-2-1.3
		s-1.1-1.3-1.4-2.1c-0.4-0.9-0.5-1.9-0.5-3c0-0.8,0.1-1.6,0.3-2.3c0.2-0.7,0.5-1.3,0.9-1.9c0.4-0.6,0.8-1,1.3-1.5
		c0.5-0.4,1-0.8,1.5-1c0.5-0.3,1.1-0.5,1.6-0.6c0.6-0.1,1.1-0.2,1.6-0.2c0.7,0,1.3,0.1,1.8,0.2c0.5,0.1,0.9,0.3,1.3,0.6
		s0.6,0.5,0.7,0.9c0.2,0.3,0.2,0.7,0.2,1c0,0.4-0.1,0.8-0.4,1.2s-0.6,0.6-1,0.9L106.3,211.5z M109.1,208.7c0.1-0.1,0.2-0.1,0.3-0.2
		s0.1-0.2,0.2-0.2s0.1-0.2,0.1-0.4c0-0.1,0-0.3,0-0.5c0-0.2,0-0.5-0.1-0.8c0-0.3-0.1-0.5-0.3-0.8s-0.3-0.5-0.5-0.6s-0.4-0.2-0.7-0.2
		c-0.3,0-0.6,0.1-0.8,0.3c-0.2,0.2-0.4,0.4-0.6,0.8c-0.2,0.3-0.3,0.7-0.4,1.1s-0.2,0.8-0.2,1.2c0,0.4-0.1,0.8-0.1,1.2s0,0.7,0,0.9
		L109.1,208.7z"/>
	<path d="M121.9,208.7l1.5-2.3c0.1-0.2,0.2-0.4,0.3-0.6s0.2-0.4,0.2-0.6c0.1-0.2,0.1-0.4,0.2-0.5c0-0.2,0.1-0.3,0.1-0.4
		c0.1-0.2,0.2-0.4,0.4-0.5c0.2-0.1,0.4-0.2,0.8-0.2c0.2,0,0.4,0,0.6,0.1c0.2,0.1,0.2,0.2,0.2,0.4c0,0.3-0.1,0.6-0.3,1
		c-0.2,0.4-0.4,0.8-0.7,1.2l-2.5,3.7l3.6,5.9c0.1,0.2,0.2,0.3,0.3,0.4c0.1,0.1,0.2,0.2,0.2,0.2s0.1,0.1,0.2,0.1c0.1,0,0.2,0,0.2,0
		c0.1,0,0.2,0,0.3-0.1c0.1,0,0.2-0.1,0.3-0.2l0.3,0.3c-0.2,0.2-0.4,0.3-0.7,0.5c-0.2,0.2-0.5,0.3-0.8,0.4c-0.3,0.1-0.6,0.2-0.9,0.3
		s-0.7,0.1-1.1,0.1c-0.5,0-0.9-0.1-1.2-0.2s-0.6-0.4-0.9-0.6c-0.3-0.2-0.5-0.5-0.6-0.8s-0.3-0.5-0.5-0.8l-2-3.3l-1.8,2.8
		c-0.1,0.2-0.2,0.4-0.3,0.6s-0.2,0.4-0.2,0.6c-0.1,0.2-0.1,0.4-0.2,0.5c0,0.2-0.1,0.3-0.1,0.4c-0.1,0.2-0.2,0.4-0.4,0.5
		s-0.4,0.2-0.8,0.2c-0.2,0-0.4,0-0.6-0.1c-0.2-0.1-0.2-0.2-0.2-0.4c0-0.3,0.1-0.6,0.2-0.9c0.2-0.4,0.4-0.8,0.8-1.3l2.9-4.1l-3.3-5.5
		c-0.1-0.2-0.2-0.3-0.3-0.5s-0.2-0.2-0.4-0.2c-0.2,0-0.4,0.1-0.6,0.3l-0.3-0.3c0.2-0.2,0.4-0.3,0.7-0.5c0.2-0.2,0.5-0.3,0.8-0.4
		c0.3-0.1,0.6-0.2,0.9-0.3s0.7-0.1,1.1-0.1c0.4,0,0.8,0.1,1.1,0.2c0.3,0.1,0.5,0.3,0.8,0.5c0.2,0.2,0.4,0.4,0.5,0.7s0.3,0.5,0.4,0.7
		L121.9,208.7z"/>
	<path d="M129.4,205.9c0-0.3-0.1-0.5-0.2-0.7c-0.1-0.2-0.3-0.3-0.6-0.3c-0.2,0-0.3,0-0.4,0.1s-0.2,0.1-0.4,0.2l-0.3-0.3
		c0.2-0.2,0.4-0.3,0.7-0.5c0.3-0.2,0.5-0.3,0.8-0.4c0.3-0.1,0.6-0.2,1-0.3s0.7-0.1,1.1-0.1c0.4,0,0.8,0.1,1.1,0.2
		c0.3,0.1,0.5,0.3,0.7,0.5s0.3,0.4,0.4,0.6c0.1,0.2,0.2,0.4,0.2,0.5c0.2-0.3,0.4-0.5,0.6-0.7c0.3-0.2,0.5-0.4,0.8-0.5
		s0.6-0.3,0.9-0.3s0.7-0.1,1-0.1c0.7,0,1.4,0.2,2,0.5s1.1,0.7,1.5,1.3c0.4,0.6,0.8,1.3,1,2.2s0.3,1.9,0.3,3c0,1.3-0.1,2.5-0.4,3.4
		c-0.3,0.9-0.6,1.7-1.1,2.3c-0.5,0.6-1,1-1.5,1.3s-1.2,0.4-1.8,0.4c-0.5,0-0.9-0.1-1.3-0.2s-0.7-0.2-1-0.4c-0.3-0.1-0.5-0.3-0.7-0.4
		s-0.3-0.3-0.4-0.4v6.7c0,0.1,0,0.3-0.1,0.4s-0.1,0.3-0.3,0.5s-0.4,0.3-0.6,0.4s-0.7,0.2-1.1,0.2s-0.9-0.1-1.1-0.2
		c-0.3-0.1-0.5-0.3-0.6-0.4c-0.1-0.2-0.2-0.3-0.3-0.5c0-0.2-0.1-0.3-0.1-0.4V205.9z M133.6,214.7c0,0.1,0,0.2,0.1,0.4
		c0.1,0.2,0.2,0.4,0.3,0.6s0.3,0.4,0.5,0.5s0.5,0.2,0.8,0.2c0.4,0,0.7-0.2,1-0.5c0.3-0.3,0.5-0.7,0.7-1.2c0.2-0.5,0.3-1.1,0.4-1.8
		s0.1-1.4,0.1-2.2c0-1-0.1-1.8-0.2-2.5c-0.1-0.7-0.3-1.2-0.5-1.6c-0.2-0.4-0.4-0.7-0.7-0.9c-0.3-0.2-0.6-0.3-0.9-0.3
		c-0.2,0-0.4,0.1-0.6,0.2c-0.2,0.1-0.4,0.3-0.5,0.4c-0.2,0.2-0.3,0.4-0.4,0.6c-0.1,0.2-0.2,0.4-0.2,0.6V214.7z"/>
	<path d="M148.7,216.5c0,0.1,0,0.3-0.1,0.4s-0.1,0.3-0.3,0.5c-0.2,0.1-0.4,0.3-0.7,0.4s-0.7,0.2-1.2,0.2s-0.9-0.1-1.1-0.2
		s-0.5-0.2-0.6-0.4c-0.1-0.2-0.2-0.3-0.2-0.5s0-0.3,0-0.4v-17.6c0-0.3-0.1-0.5-0.2-0.7c-0.1-0.2-0.3-0.3-0.6-0.3
		c-0.2,0-0.3,0-0.4,0.1c-0.1,0.1-0.2,0.1-0.4,0.2l-0.3-0.3c0.2-0.2,0.4-0.3,0.7-0.5c0.3-0.2,0.5-0.3,0.8-0.4c0.3-0.1,0.6-0.2,1-0.3
		s0.7-0.1,1.1-0.1c0.6,0,1.1,0.1,1.4,0.2c0.3,0.2,0.6,0.4,0.7,0.6s0.2,0.5,0.3,0.7s0,0.5,0,0.7V216.5z"/>
	<path d="M156.5,216.5c0,0.1,0,0.3-0.1,0.4c0,0.2-0.1,0.3-0.3,0.5s-0.4,0.3-0.6,0.4s-0.7,0.2-1.1,0.2s-0.9-0.1-1.1-0.2
		s-0.5-0.2-0.6-0.4c-0.1-0.2-0.2-0.3-0.3-0.5s0-0.3,0-0.4v-10.6c0-0.3-0.1-0.5-0.2-0.7c-0.1-0.2-0.3-0.3-0.6-0.3
		c-0.2,0-0.3,0-0.4,0.1s-0.2,0.1-0.4,0.2l-0.3-0.3c0.2-0.2,0.4-0.3,0.7-0.5c0.3-0.2,0.5-0.3,0.8-0.4c0.3-0.1,0.6-0.2,1-0.3
		s0.7-0.1,1.1-0.1c0.6,0,1.1,0.1,1.4,0.2c0.3,0.2,0.6,0.4,0.7,0.6s0.2,0.5,0.3,0.7c0,0.3,0,0.5,0,0.7V216.5z M151.9,200.4
		c0-0.3,0.1-0.5,0.2-0.7s0.3-0.4,0.5-0.6c0.2-0.2,0.4-0.3,0.7-0.4c0.3-0.1,0.6-0.2,0.9-0.2c0.3,0,0.6,0.1,0.9,0.2
		c0.3,0.1,0.5,0.2,0.7,0.4c0.2,0.2,0.4,0.4,0.5,0.6s0.2,0.5,0.2,0.7c0,0.3-0.1,0.5-0.2,0.7c-0.1,0.2-0.3,0.4-0.5,0.6
		c-0.2,0.2-0.4,0.3-0.7,0.4c-0.3,0.1-0.6,0.2-0.9,0.2c-0.3,0-0.6,0-0.9-0.2c-0.3-0.1-0.5-0.2-0.7-0.4c-0.2-0.2-0.4-0.4-0.5-0.6
		C151.9,200.9,151.9,200.7,151.9,200.4z"/>
	<path d="M168.6,208.3c-0.3,0-0.5,0-0.7-0.1c-0.2-0.1-0.3-0.2-0.5-0.3c-0.1-0.1-0.2-0.3-0.3-0.5s-0.1-0.4-0.1-0.6c0-0.2,0-0.5,0-0.7
		c0-0.2,0-0.4,0-0.6c0-0.2-0.1-0.3-0.2-0.4s-0.3-0.2-0.6-0.2c-0.3,0-0.7,0.1-1,0.3c-0.4,0.2-0.7,0.5-1,0.9c-0.3,0.4-0.5,0.9-0.7,1.5
		s-0.3,1.4-0.3,2.2c0,1,0.1,1.8,0.3,2.6c0.2,0.8,0.4,1.5,0.8,2c0.4,0.6,0.8,1,1.3,1.3c0.5,0.3,1.1,0.5,1.9,0.5c0.3,0,0.6,0,0.9-0.1
		c0.3-0.1,0.6-0.2,0.8-0.3c0.3-0.1,0.5-0.3,0.7-0.4c0.2-0.2,0.5-0.3,0.7-0.5l0.3,0.3c-0.2,0.3-0.5,0.6-0.8,0.9
		c-0.3,0.3-0.7,0.7-1.2,1c-0.5,0.3-1,0.5-1.6,0.7s-1.3,0.3-2.1,0.3s-1.6-0.2-2.3-0.5s-1.4-0.7-2-1.3c-0.6-0.6-1.1-1.3-1.4-2.1
		s-0.5-1.8-0.5-2.9c0-0.8,0.1-1.6,0.3-2.3s0.5-1.3,0.9-1.9c0.4-0.6,0.8-1.1,1.3-1.5c0.5-0.4,1-0.8,1.5-1.1s1.1-0.5,1.6-0.6
		c0.6-0.1,1.1-0.2,1.6-0.2c0.7,0,1.3,0.1,1.8,0.2c0.5,0.2,0.9,0.4,1.3,0.6c0.3,0.3,0.6,0.5,0.7,0.9c0.2,0.3,0.2,0.7,0.2,1
		c0,0.3,0,0.5-0.1,0.8c-0.1,0.2-0.2,0.5-0.3,0.6s-0.3,0.3-0.5,0.4C169.1,208.2,168.9,208.3,168.6,208.3z"/>
	<path d="M176.9,204.7c-0.3,0-0.6,0-0.9,0.1c-0.3,0.1-0.5,0.2-0.7,0.3s-0.3,0.2-0.5,0.4c-0.1,0.1-0.2,0.3-0.2,0.4
		c0,0.1,0.1,0.2,0.2,0.3c0.1,0.1,0.3,0.1,0.5,0.2c0.2,0.1,0.3,0.2,0.5,0.3c0.1,0.1,0.2,0.4,0.2,0.6c0,0.2,0,0.4-0.1,0.5
		c-0.1,0.2-0.2,0.3-0.3,0.4s-0.3,0.2-0.5,0.3s-0.4,0.1-0.6,0.1c-0.5,0-0.9-0.2-1.2-0.5c-0.3-0.3-0.5-0.8-0.5-1.4
		c0-0.6,0.1-1,0.4-1.4s0.7-0.7,1.1-1c0.5-0.3,1-0.4,1.6-0.6s1.2-0.2,1.8-0.2c0.7,0,1.4,0.1,2,0.2c0.6,0.2,1.2,0.4,1.7,0.7
		c0.5,0.3,0.9,0.8,1.2,1.3s0.4,1.1,0.4,1.9v7.7c0,0.1,0,0.2,0,0.3c0,0.1,0,0.2,0.1,0.3s0.1,0.2,0.2,0.2s0.2,0.1,0.3,0.1
		c0.2,0,0.3-0.1,0.5-0.2s0.3-0.2,0.4-0.4l0.3,0.3c-0.1,0.2-0.3,0.4-0.5,0.6c-0.2,0.2-0.4,0.4-0.7,0.6c-0.3,0.2-0.6,0.4-1,0.5
		s-0.8,0.2-1.2,0.2c-0.6,0-1.1-0.2-1.5-0.5s-0.7-0.9-0.9-1.6c-0.3,0.4-0.6,0.7-0.9,1c-0.3,0.3-0.6,0.5-1,0.6s-0.7,0.3-1,0.4
		c-0.3,0.1-0.7,0.1-1,0.1c-0.4,0-0.9-0.1-1.3-0.2s-0.8-0.4-1.1-0.6c-0.3-0.3-0.6-0.7-0.8-1.2c-0.2-0.5-0.3-1.1-0.3-1.7
		c0-0.8,0.2-1.5,0.5-2c0.3-0.5,0.8-1,1.3-1.3c0.5-0.4,1.1-0.7,1.8-0.9c0.7-0.3,1.4-0.5,2.1-0.8c0.5-0.2,0.9-0.5,1.2-0.9
		c0.2-0.4,0.4-0.8,0.4-1.3c0-0.7-0.2-1.2-0.6-1.6C178.1,204.9,177.5,204.7,176.9,204.7z M179,210.6c0-0.2-0.1-0.4-0.2-0.5
		c-0.1-0.1-0.3-0.2-0.6-0.2c-0.3,0-0.6,0.1-0.9,0.2c-0.3,0.1-0.5,0.4-0.8,0.6c-0.2,0.3-0.4,0.6-0.5,1c-0.1,0.4-0.2,0.9-0.2,1.4
		c0,0.5,0,1,0.1,1.3c0.1,0.3,0.2,0.6,0.3,0.8s0.3,0.3,0.5,0.4s0.4,0.1,0.5,0.1c0.2,0,0.5-0.1,0.7-0.2s0.4-0.3,0.5-0.5
		s0.3-0.4,0.4-0.6c0.1-0.2,0.1-0.5,0.1-0.7V210.6z"/>
	<path d="M191.2,206.4c0.3-0.5,0.7-1,1.1-1.4c0.2-0.2,0.3-0.4,0.5-0.5c0.2-0.2,0.4-0.3,0.6-0.5s0.4-0.2,0.6-0.3s0.4-0.1,0.7-0.1
		c0.5,0,0.8,0.1,1.1,0.4c0.3,0.3,0.4,0.7,0.4,1.2c0,0.3,0,0.6-0.1,0.9s-0.1,0.6-0.3,1h-0.4c-0.1-0.3-0.2-0.5-0.4-0.7
		c-0.2-0.2-0.5-0.3-0.9-0.3c-0.3,0-0.6,0.1-0.8,0.2c-0.3,0.1-0.5,0.2-0.8,0.4c-0.3,0.2-0.5,0.3-0.7,0.5c-0.2,0.2-0.4,0.4-0.6,0.5
		v8.9c0,0.1,0,0.3-0.1,0.4s-0.1,0.3-0.3,0.5c-0.1,0.1-0.4,0.3-0.6,0.4s-0.7,0.2-1.1,0.2s-0.9-0.1-1.1-0.2s-0.5-0.2-0.6-0.4
		c-0.1-0.2-0.2-0.3-0.3-0.5s-0.1-0.3-0.1-0.4v-10.6c0-0.3-0.1-0.5-0.2-0.7c-0.1-0.2-0.3-0.3-0.6-0.3c-0.2,0-0.3,0-0.4,0.1
		s-0.2,0.1-0.4,0.2l-0.3-0.3c0.2-0.2,0.4-0.3,0.7-0.5c0.3-0.2,0.5-0.3,0.8-0.4c0.3-0.1,0.6-0.2,1-0.3s0.7-0.1,1.1-0.1
		c0.4,0,0.7,0.1,1,0.2c0.3,0.1,0.5,0.2,0.7,0.4c0.2,0.2,0.3,0.4,0.4,0.6c0.1,0.2,0.2,0.4,0.2,0.6c0,0.2,0.1,0.4,0.1,0.6
		C191.2,206.1,191.2,206.3,191.2,206.4z"/>
	<path d="M200.9,211.5c0,0.3,0,0.6,0.1,1s0.2,0.7,0.4,1c0.2,0.3,0.4,0.7,0.6,1s0.5,0.6,0.8,0.8s0.7,0.4,1,0.6
		c0.4,0.1,0.8,0.2,1.3,0.2c0.3,0,0.6,0,0.9-0.1c0.3-0.1,0.5-0.2,0.8-0.3c0.2-0.1,0.5-0.3,0.7-0.4c0.2-0.2,0.4-0.3,0.7-0.5l0.3,0.3
		c-0.2,0.3-0.5,0.6-0.8,0.9c-0.3,0.3-0.7,0.7-1.2,1c-0.5,0.3-1,0.5-1.6,0.7s-1.3,0.3-2.1,0.3s-1.6-0.1-2.3-0.4s-1.4-0.7-2-1.3
		s-1.1-1.3-1.4-2.1c-0.4-0.9-0.5-1.9-0.5-3c0-0.8,0.1-1.6,0.3-2.3c0.2-0.7,0.5-1.3,0.9-1.9c0.4-0.6,0.8-1,1.3-1.5
		c0.5-0.4,1-0.8,1.5-1c0.5-0.3,1.1-0.5,1.6-0.6c0.6-0.1,1.1-0.2,1.6-0.2c0.7,0,1.3,0.1,1.8,0.2c0.5,0.1,0.9,0.3,1.3,0.6
		s0.6,0.5,0.7,0.9c0.2,0.3,0.2,0.7,0.2,1c0,0.4-0.1,0.8-0.4,1.2s-0.6,0.6-1,0.9L200.9,211.5z M203.7,208.7c0.1-0.1,0.2-0.1,0.3-0.2
		s0.1-0.2,0.2-0.2s0.1-0.2,0.1-0.4c0-0.1,0-0.3,0-0.5c0-0.2,0-0.5-0.1-0.8c0-0.3-0.1-0.5-0.3-0.8s-0.3-0.5-0.5-0.6s-0.4-0.2-0.7-0.2
		c-0.3,0-0.6,0.1-0.8,0.3c-0.2,0.2-0.4,0.4-0.6,0.8c-0.2,0.3-0.3,0.7-0.4,1.1s-0.2,0.8-0.2,1.2c0,0.4-0.1,0.8-0.1,1.2s0,0.7,0,0.9
		L203.7,208.7z"/>
	<path d="M214.7,216.5c0,0.1,0,0.3-0.1,0.4c0,0.2-0.1,0.3-0.3,0.5s-0.4,0.3-0.6,0.4s-0.7,0.2-1.1,0.2s-0.9-0.1-1.1-0.2
		s-0.5-0.2-0.6-0.4c-0.1-0.2-0.2-0.3-0.3-0.5s0-0.3,0-0.4v-10.6c0-0.3-0.1-0.5-0.2-0.7c-0.1-0.2-0.3-0.3-0.6-0.3
		c-0.2,0-0.3,0-0.4,0.1s-0.2,0.1-0.4,0.2l-0.3-0.3c0.2-0.2,0.4-0.3,0.7-0.5c0.3-0.2,0.5-0.3,0.8-0.4c0.3-0.1,0.6-0.2,1-0.3
		s0.7-0.1,1.1-0.1c0.6,0,1.1,0.1,1.4,0.2c0.3,0.2,0.6,0.4,0.7,0.6s0.2,0.5,0.3,0.7c0,0.3,0,0.5,0,0.7V216.5z M210.1,200.4
		c0-0.3,0.1-0.5,0.2-0.7s0.3-0.4,0.5-0.6c0.2-0.2,0.4-0.3,0.7-0.4c0.3-0.1,0.6-0.2,0.9-0.2c0.3,0,0.6,0.1,0.9,0.2
		c0.3,0.1,0.5,0.2,0.7,0.4c0.2,0.2,0.4,0.4,0.5,0.6s0.2,0.5,0.2,0.7c0,0.3-0.1,0.5-0.2,0.7c-0.1,0.2-0.3,0.4-0.5,0.6
		c-0.2,0.2-0.4,0.3-0.7,0.4c-0.3,0.1-0.6,0.2-0.9,0.2c-0.3,0-0.6,0-0.9-0.2c-0.3-0.1-0.5-0.2-0.7-0.4c-0.2-0.2-0.4-0.4-0.5-0.6
		C210.1,200.9,210.1,200.7,210.1,200.4z"/>
	<path d="M236.4,215.4c0,0.1,0,0.2,0,0.3s0,0.2,0.1,0.3c0,0.1,0.1,0.2,0.2,0.2s0.2,0.1,0.3,0.1c0.2,0,0.3-0.1,0.5-0.2
		s0.3-0.2,0.4-0.4l0.3,0.3c-0.1,0.2-0.3,0.4-0.5,0.6s-0.5,0.5-0.7,0.7c-0.3,0.2-0.6,0.4-1,0.5s-0.8,0.2-1.3,0.2
		c-0.4,0-0.8-0.1-1-0.2s-0.5-0.2-0.8-0.4s-0.4-0.4-0.5-0.6c-0.1-0.2-0.2-0.5-0.2-0.8v-0.6c-0.5,0.5-0.9,0.9-1.4,1.3
		c-0.2,0.2-0.5,0.3-0.7,0.5c-0.2,0.2-0.5,0.3-0.8,0.4s-0.5,0.2-0.8,0.3c-0.3,0.1-0.6,0.1-0.8,0.1c-0.5,0-1-0.1-1.4-0.3
		s-0.7-0.5-0.9-0.8c-0.2-0.3-0.4-0.7-0.5-1.1c-0.1-0.4-0.2-0.8-0.2-1.2v-8.5c0-0.1,0-0.2,0-0.3s0-0.2-0.1-0.3c0-0.1-0.1-0.2-0.2-0.2
		s-0.2-0.1-0.3-0.1c-0.2,0-0.3,0.1-0.5,0.2s-0.3,0.2-0.4,0.4l-0.3-0.3c0.1-0.2,0.3-0.4,0.5-0.6s0.5-0.5,0.7-0.7
		c0.3-0.2,0.6-0.4,1-0.5c0.4-0.1,0.8-0.2,1.3-0.2c0.4,0,0.8,0.1,1.1,0.2c0.3,0.1,0.6,0.2,0.8,0.4s0.4,0.4,0.5,0.6
		c0.1,0.2,0.2,0.5,0.2,0.8v9.1c0,0.1,0,0.3,0.1,0.4c0,0.1,0.1,0.3,0.2,0.4s0.2,0.2,0.3,0.3s0.3,0.1,0.4,0.1c0.3,0,0.5-0.1,0.8-0.2
		s0.5-0.3,0.7-0.5c0.2-0.2,0.4-0.4,0.6-0.6c0.2-0.2,0.3-0.3,0.3-0.4v-8c0-0.1,0-0.2,0-0.3s0-0.2-0.1-0.3c0-0.1-0.1-0.2-0.2-0.2
		s-0.2-0.1-0.3-0.1c-0.2,0-0.3,0.1-0.5,0.2s-0.3,0.2-0.4,0.4l-0.3-0.3c0.1-0.2,0.3-0.4,0.5-0.6s0.5-0.5,0.7-0.7
		c0.3-0.2,0.6-0.4,1-0.5c0.4-0.1,0.8-0.2,1.3-0.2c0.4,0,0.8,0.1,1.1,0.2c0.3,0.1,0.6,0.2,0.8,0.4s0.4,0.4,0.5,0.6
		c0.1,0.2,0.2,0.5,0.2,0.8V215.4z"/>
	<path d="M251.7,216.5c0,0.1,0,0.3-0.1,0.4s-0.1,0.3-0.3,0.5c-0.1,0.1-0.4,0.3-0.6,0.4s-0.7,0.2-1.1,0.2s-0.9-0.1-1.1-0.2
		s-0.5-0.2-0.6-0.4c-0.1-0.2-0.2-0.3-0.3-0.5s-0.1-0.3-0.1-0.4v-9.7c0-0.1,0-0.3-0.1-0.4c0-0.1-0.1-0.3-0.2-0.4s-0.2-0.2-0.3-0.3
		s-0.2-0.1-0.4-0.1c-0.2,0-0.5,0.1-0.7,0.2c-0.2,0.1-0.5,0.3-0.7,0.5c-0.2,0.2-0.4,0.4-0.5,0.5c-0.2,0.2-0.3,0.3-0.3,0.4v9.2
		c0,0.1,0,0.3-0.1,0.4s-0.1,0.3-0.3,0.5c-0.1,0.1-0.4,0.3-0.6,0.4s-0.7,0.2-1.1,0.2s-0.9-0.1-1.1-0.2s-0.5-0.2-0.6-0.4
		c-0.1-0.2-0.2-0.3-0.3-0.5s-0.1-0.3-0.1-0.4v-10.6c0-0.3-0.1-0.5-0.2-0.7c-0.1-0.2-0.3-0.3-0.6-0.3c-0.2,0-0.3,0-0.4,0.1
		s-0.2,0.1-0.4,0.2l-0.3-0.3c0.2-0.2,0.4-0.3,0.7-0.5c0.3-0.2,0.5-0.3,0.8-0.4c0.3-0.1,0.6-0.2,1-0.3s0.7-0.1,1.1-0.1
		c0.6,0,1.1,0.1,1.4,0.3c0.3,0.2,0.6,0.4,0.7,0.7s0.2,0.6,0.3,0.9c0,0.3,0,0.5,0,0.7c0.4-0.5,0.9-0.9,1.4-1.3
		c0.2-0.2,0.4-0.3,0.7-0.5c0.2-0.2,0.5-0.3,0.7-0.4s0.5-0.2,0.8-0.3c0.3-0.1,0.5-0.1,0.8-0.1c0.5,0,1,0.1,1.4,0.3s0.7,0.4,0.9,0.7
		c0.2,0.3,0.4,0.6,0.5,0.8c0.1,0.3,0.2,0.6,0.2,0.8c0.4-0.5,0.9-0.9,1.4-1.3c0.2-0.2,0.4-0.3,0.7-0.5c0.2-0.2,0.5-0.3,0.7-0.4
		s0.5-0.2,0.8-0.3c0.3-0.1,0.5-0.1,0.8-0.1c0.5,0,1,0.1,1.4,0.3c0.4,0.2,0.7,0.5,0.9,0.8c0.2,0.3,0.4,0.7,0.5,1.1
		c0.1,0.4,0.2,0.8,0.2,1.2v8.5c0,0.1,0,0.2,0,0.3s0,0.2,0.1,0.3c0,0.1,0.1,0.2,0.2,0.2s0.2,0.1,0.3,0.1c0.2,0,0.3-0.1,0.5-0.2
		s0.3-0.2,0.4-0.4l0.3,0.3c-0.1,0.2-0.3,0.4-0.5,0.6s-0.5,0.5-0.7,0.7c-0.3,0.2-0.6,0.4-1,0.5s-0.8,0.2-1.3,0.2
		c-0.4,0-0.8-0.1-1-0.2c-0.3-0.1-0.5-0.2-0.8-0.4s-0.4-0.4-0.5-0.6c-0.1-0.2-0.2-0.5-0.2-0.8v-9.1c0-0.1,0-0.3-0.1-0.4
		c0-0.1-0.1-0.3-0.2-0.4s-0.2-0.2-0.3-0.3s-0.2-0.1-0.4-0.1c-0.2,0-0.5,0.1-0.7,0.2c-0.2,0.1-0.5,0.3-0.7,0.5
		c-0.2,0.2-0.4,0.4-0.5,0.5c-0.1,0.2-0.3,0.3-0.3,0.4V216.5z"/>
	<path d="M266.5,204.7c-0.3,0-0.6,0-0.9,0.1c-0.3,0.1-0.5,0.2-0.7,0.3s-0.3,0.2-0.5,0.4c-0.1,0.1-0.2,0.3-0.2,0.4
		c0,0.1,0.1,0.2,0.2,0.3c0.1,0.1,0.3,0.1,0.5,0.2c0.2,0.1,0.3,0.2,0.5,0.3c0.1,0.1,0.2,0.4,0.2,0.6c0,0.2,0,0.4-0.1,0.5
		c-0.1,0.2-0.2,0.3-0.3,0.4s-0.3,0.2-0.5,0.3s-0.4,0.1-0.6,0.1c-0.5,0-0.9-0.2-1.2-0.5c-0.3-0.3-0.5-0.8-0.5-1.4
		c0-0.6,0.1-1,0.4-1.4s0.7-0.7,1.1-1c0.5-0.3,1-0.4,1.6-0.6s1.2-0.2,1.8-0.2c0.7,0,1.4,0.1,2,0.2c0.6,0.2,1.2,0.4,1.7,0.7
		c0.5,0.3,0.9,0.8,1.2,1.3s0.4,1.1,0.4,1.9v7.7c0,0.1,0,0.2,0,0.3c0,0.1,0,0.2,0.1,0.3s0.1,0.2,0.2,0.2s0.2,0.1,0.3,0.1
		c0.2,0,0.3-0.1,0.5-0.2s0.3-0.2,0.4-0.4l0.3,0.3c-0.1,0.2-0.3,0.4-0.5,0.6c-0.2,0.2-0.4,0.4-0.7,0.6c-0.3,0.2-0.6,0.4-1,0.5
		s-0.8,0.2-1.2,0.2c-0.6,0-1.1-0.2-1.5-0.5s-0.7-0.9-0.9-1.6c-0.3,0.4-0.6,0.7-0.9,1c-0.3,0.3-0.6,0.5-1,0.6s-0.7,0.3-1,0.4
		c-0.3,0.1-0.7,0.1-1,0.1c-0.4,0-0.9-0.1-1.3-0.2s-0.8-0.4-1.1-0.6c-0.3-0.3-0.6-0.7-0.8-1.2c-0.2-0.5-0.3-1.1-0.3-1.7
		c0-0.8,0.2-1.5,0.5-2c0.3-0.5,0.8-1,1.3-1.3c0.5-0.4,1.1-0.7,1.8-0.9c0.7-0.3,1.4-0.5,2.1-0.8c0.5-0.2,0.9-0.5,1.2-0.9
		c0.2-0.4,0.4-0.8,0.4-1.3c0-0.7-0.2-1.2-0.6-1.6C267.8,204.9,267.2,204.7,266.5,204.7z M268.7,210.6c0-0.2-0.1-0.4-0.2-0.5
		c-0.1-0.1-0.3-0.2-0.6-0.2c-0.3,0-0.6,0.1-0.9,0.2c-0.3,0.1-0.5,0.4-0.8,0.6c-0.2,0.3-0.4,0.6-0.5,1c-0.1,0.4-0.2,0.9-0.2,1.4
		c0,0.5,0,1,0.1,1.3c0.1,0.3,0.2,0.6,0.3,0.8s0.3,0.3,0.5,0.4s0.4,0.1,0.5,0.1c0.2,0,0.5-0.1,0.7-0.2s0.4-0.3,0.5-0.5
		s0.3-0.4,0.4-0.6c0.1-0.2,0.1-0.5,0.1-0.7V210.6z"/>
	<path d="M282.4,206.1c-0.1-0.4-0.1-0.6-0.3-0.8c-0.1-0.2-0.3-0.3-0.6-0.3c-0.2,0-0.3,0-0.4,0.1s-0.2,0.1-0.4,0.2l-0.3-0.3
		c0.2-0.2,0.4-0.3,0.7-0.5c0.3-0.2,0.5-0.3,0.8-0.4c0.3-0.1,0.6-0.2,1-0.3s0.7-0.1,1.1-0.1c0.5,0,1,0.1,1.3,0.3
		c0.3,0.2,0.6,0.4,0.8,0.7c0.2,0.3,0.3,0.6,0.4,0.9c0.1,0.3,0.1,0.6,0.2,0.9c0.3,2.8,0.7,4.9,1.1,6.3s0.9,2.1,1.5,2.1
		c0.3,0,0.6-0.2,0.9-0.5c0.3-0.3,0.6-0.8,0.8-1.4s0.4-1.3,0.5-2.1c0.1-0.8,0.2-1.7,0.2-2.6c0-0.6,0-1.1-0.1-1.5
		c-0.1-0.4-0.2-0.8-0.3-1c-0.1-0.3-0.2-0.5-0.3-0.7c-0.1-0.2-0.1-0.4-0.1-0.5c0-0.1,0.1-0.3,0.2-0.3c0.1-0.1,0.2-0.2,0.4-0.2
		c0.2-0.1,0.3-0.1,0.5-0.1s0.3,0,0.4,0c0.3,0,0.5,0,0.6,0.1c0.1,0.1,0.2,0.2,0.3,0.4c0.1,0.3,0.1,0.6,0.2,1c0,0.4,0,0.9,0,1.4
		c0,0.7,0,1.5-0.1,2.3c-0.1,0.8-0.2,1.7-0.4,2.5s-0.4,1.7-0.7,2.5s-0.7,1.5-1.1,2.1s-0.9,1.1-1.4,1.5s-1.1,0.6-1.8,0.6
		c-0.8,0-1.4-0.2-2-0.7s-1-1-1.4-1.7c-0.4-0.7-0.7-1.5-1-2.4s-0.5-1.8-0.6-2.6c-0.2-0.9-0.3-1.7-0.4-2.5
		C282.6,207.3,282.5,206.6,282.4,206.1z"/>
	<path d="M299.4,211.5c0,0.3,0,0.6,0.1,1s0.2,0.7,0.4,1c0.2,0.3,0.4,0.7,0.6,1s0.5,0.6,0.8,0.8s0.7,0.4,1,0.6
		c0.4,0.1,0.8,0.2,1.3,0.2c0.3,0,0.6,0,0.9-0.1c0.3-0.1,0.5-0.2,0.8-0.3c0.2-0.1,0.5-0.3,0.7-0.4c0.2-0.2,0.4-0.3,0.7-0.5l0.3,0.3
		c-0.2,0.3-0.5,0.6-0.8,0.9c-0.3,0.3-0.7,0.7-1.2,1c-0.5,0.3-1,0.5-1.6,0.7s-1.3,0.3-2.1,0.3s-1.6-0.1-2.3-0.4s-1.4-0.7-2-1.3
		s-1.1-1.3-1.4-2.1c-0.4-0.9-0.5-1.9-0.5-3c0-0.8,0.1-1.6,0.3-2.3c0.2-0.7,0.5-1.3,0.9-1.9c0.4-0.6,0.8-1,1.3-1.5
		c0.5-0.4,1-0.8,1.5-1c0.5-0.3,1.1-0.5,1.6-0.6c0.6-0.1,1.1-0.2,1.6-0.2c0.7,0,1.3,0.1,1.8,0.2c0.5,0.1,0.9,0.3,1.3,0.6
		s0.6,0.5,0.7,0.9c0.2,0.3,0.2,0.7,0.2,1c0,0.4-0.1,0.8-0.4,1.2s-0.6,0.6-1,0.9L299.4,211.5z M302.2,208.7c0.1-0.1,0.2-0.1,0.3-0.2
		s0.1-0.2,0.2-0.2s0.1-0.2,0.1-0.4c0-0.1,0-0.3,0-0.5c0-0.2,0-0.5-0.1-0.8c0-0.3-0.1-0.5-0.3-0.8s-0.3-0.5-0.5-0.6s-0.4-0.2-0.7-0.2
		c-0.3,0-0.6,0.1-0.8,0.3c-0.2,0.2-0.4,0.4-0.6,0.8c-0.2,0.3-0.3,0.7-0.4,1.1s-0.2,0.8-0.2,1.2c0,0.4-0.1,0.8-0.1,1.2s0,0.7,0,0.9
		L302.2,208.7z"/>
	<path d="M313.8,205.8c0.1-0.1,0.2-0.2,0.2-0.4s0.1-0.3,0.1-0.4c0-0.2-0.1-0.3-0.4-0.4c-0.3-0.1-0.8-0.1-1.5-0.1
		c-0.5,0-0.8,0.1-1.1,0.2s-0.5,0.2-0.7,0.4c-0.2,0.2-0.4,0.3-0.5,0.5s-0.2,0.4-0.3,0.5c-0.1,0.2-0.2,0.3-0.3,0.4s-0.2,0.2-0.3,0.2
		c-0.2,0-0.3,0-0.4-0.2c-0.1-0.1-0.2-0.2-0.3-0.4s-0.1-0.3-0.2-0.5s-0.1-0.3-0.1-0.5c0-0.2,0.1-0.5,0.3-0.7c0.2-0.2,0.5-0.4,0.9-0.5
		s0.9-0.3,1.5-0.4c0.6-0.1,1.2-0.1,2-0.1c1.2,0,2.2,0.1,3,0.2c0.8,0.1,1.4,0.2,1.8,0.4c0.4,0.2,0.7,0.4,0.9,0.6
		c0.2,0.2,0.2,0.5,0.2,0.8c0,0.1,0,0.3-0.1,0.5s-0.2,0.3-0.2,0.5s-0.2,0.3-0.3,0.5c-0.1,0.1-0.2,0.2-0.2,0.3l-5.7,8.7
		c0,0-0.1,0.1-0.1,0.2s-0.1,0.2-0.1,0.3c0,0.1,0,0.1,0.1,0.2s0.1,0.1,0.3,0.1c0.1,0,0.3,0.1,0.6,0.1s0.6,0,1,0c0.5,0,1-0.1,1.4-0.2
		c0.4-0.1,0.7-0.3,0.9-0.5c0.2-0.2,0.4-0.4,0.5-0.6s0.3-0.4,0.4-0.6c0.1-0.2,0.2-0.3,0.3-0.5c0.1-0.1,0.2-0.2,0.4-0.2
		s0.3,0.1,0.4,0.2c0.1,0.1,0.2,0.3,0.3,0.4c0.1,0.2,0.1,0.4,0.2,0.6c0,0.2,0.1,0.4,0.1,0.5c0,0.2-0.1,0.5-0.3,0.7
		c-0.2,0.2-0.6,0.4-1,0.6c-0.4,0.2-1,0.3-1.7,0.4s-1.5,0.1-2.4,0.1c-1,0-1.9,0-2.6-0.1s-1.3-0.2-1.7-0.4c-0.4-0.2-0.8-0.4-1-0.6
		s-0.3-0.5-0.3-0.9c0-0.3,0.1-0.5,0.2-0.8s0.3-0.6,0.5-0.9L313.8,205.8z"/>
	<path d="M320.8,215.7c0-0.3,0.1-0.6,0.2-0.9c0.1-0.3,0.3-0.5,0.5-0.7c0.2-0.2,0.4-0.4,0.7-0.5s0.6-0.2,0.9-0.2s0.6,0.1,0.9,0.2
		s0.5,0.3,0.7,0.5c0.2,0.2,0.4,0.5,0.5,0.7c0.1,0.3,0.2,0.6,0.2,0.9c0,0.3-0.1,0.6-0.2,0.9c-0.1,0.3-0.3,0.5-0.5,0.7
		s-0.5,0.4-0.7,0.5s-0.6,0.2-0.9,0.2s-0.6-0.1-0.9-0.2s-0.5-0.3-0.7-0.5s-0.4-0.4-0.5-0.7C320.8,216.3,320.8,216,320.8,215.7z"/>
</g>
</svg>
