<?xml version="1.0" encoding="UTF-8" standalone="no"?>
<!-- Generator: Adobe Illustrator 19.0.0, SVG Export Plug-In . SVG Version: 6.00 Build 0)  -->

<svg
   version="1.1"
   id="Layer_1"
   x="0px"
   y="0px"
   viewBox="0 0 2000 1400"
   xml:space="preserve"
   sodipodi:docname="castle.svg"
   inkscape:version="1.1 (ce6663b3b7, 2021-05-25)"
   width="2000"
   height="1400"
   xmlns:inkscape="http://www.inkscape.org/namespaces/inkscape"
   xmlns:sodipodi="http://sodipodi.sourceforge.net/DTD/sodipodi-0.dtd"
   xmlns="http://www.w3.org/2000/svg"
   xmlns:svg="http://www.w3.org/2000/svg"><defs
   id="defs287" /><sodipodi:namedview
   id="namedview285"
   pagecolor="#505050"
   bordercolor="#eeeeee"
   borderopacity="1"
   inkscape:pageshadow="0"
   inkscape:pageopacity="0"
   inkscape:pagecheckerboard="0"
   showgrid="false"
   inkscape:zoom="0.33317575"
   inkscape:cx="1076.0087"
   inkscape:cy="730.84551"
   inkscape:window-width="1306"
   inkscape:window-height="704"
   inkscape:window-x="1426"
   inkscape:window-y="27"
   inkscape:window-maximized="1"
   inkscape:current-layer="g282" />
<style
   type="text/css"
   id="style2">
	.st0{fill:#1E605E;}
	.st1{fill:#6D6E70;}
	.st2{fill:#DBDBDB;}
	.st3{fill:#565759;}
	.st4{fill:#B6B7B8;}
	.st5{fill:#C9790E;}
	.st6{fill:#DBA109;}
	.st7{fill:#B75113;}
	.st8{fill:#FFFFFF;}
	.st9{fill:#93001C;}
	.st10{fill:#710017;}
	.st11{fill:#929294;}
	.st12{fill:#404041;}
	.st13{fill:#29282A;}
	.st14{fill:#121112;}
	.st15{fill:#B16D29;}
	.st16{fill:#8F5C29;}
	.st17{fill:#6D4A2A;}
	.st18{fill:#FFFFFF;stroke:#231F20;stroke-miterlimit:10;}
</style>






<g
   id="g282"
   transform="translate(-1.2129291,-26.261299)">
	<rect
   x="1044.5874"
   y="409.55579"
   class="st2"
   width="273.66949"
   height="562.78809"
   id="rect168"
   style="stroke-width:2.00639" />
	<rect
   x="1182.2246"
   y="409.55579"
   class="st4"
   width="136.03221"
   height="562.78809"
   id="rect170"
   style="stroke-width:2.00639" />
	<polygon
   class="st11"
   points="845.9,607.8 845.9,518 760.3,432.5 754.4,607.8 "
   id="polygon172"
   transform="matrix(2.0063745,0,0,2.0063745,-378.93536,-269.00011)" />
	<polygon
   class="st1"
   points="778.1,450.2 778.1,607.8 845.9,607.8 845.9,518 "
   id="polygon174"
   transform="matrix(2.0063745,0,0,2.0063745,-378.93536,-269.00011)" />
	<rect
   x="662.77435"
   y="410.15768"
   class="st2"
   width="273.66949"
   height="562.78809"
   id="rect176"
   style="stroke-width:2.00639" />
	<rect
   x="800.21106"
   y="410.15768"
   class="st4"
   width="136.03221"
   height="562.78809"
   id="rect178"
   style="stroke-width:2.00639" />
	<polygon
   class="st11"
   points="519.2,431.9 519.2,619 597,619 597,509.7 "
   id="polygon180"
   transform="matrix(2.0063745,0,0,2.0063745,-378.93536,-269.00011)" />
	<path
   class="st13"
   d="m 1181.4222,515.89365 c -16.4522,0 -29.6941,13.24207 -29.6941,29.69433 v 51.36321 h 59.1879 v -51.36321 c 0.2006,-16.45226 -13.2421,-29.69433 -29.4938,-29.69433 z"
   id="path182"
   style="stroke-width:2.00639" />
	<rect
   x="1030.3423"
   y="373.03983"
   class="st16"
   width="303.76511"
   height="36.516018"
   id="rect184"
   style="fill:#673a96;fill-opacity:1;stroke-width:2.00639" />
	<polygon
   class="st15"
   points="778.1,187.9 853.7,320 702.4,320 "
   id="polygon186"
   style="fill:#673ab7;fill-opacity:1"
   transform="matrix(2.0063745,0,0,2.0063745,-378.93536,-269.00011)" />
	<rect
   x="1182.2246"
   y="373.03983"
   class="st17"
   width="151.88255"
   height="36.516018"
   id="rect188"
   style="fill:#543a7e;fill-opacity:1;stroke-width:2.00639" />
	<polygon
   class="st16"
   points="778.1,187.9 778.1,320 853.7,320 "
   id="polygon190"
   style="fill:#673a96;fill-opacity:1"
   transform="matrix(2.0063745,0,0,2.0063745,-378.93536,-269.00011)" />
	<path
   class="st14"
   d="m 1182.2248,515.89365 v 81.05754 h 28.8918 v -51.36321 c 0,-16.25162 -13.0415,-29.29307 -28.8918,-29.69433 z"
   id="path192"
   style="stroke-width:2.00639" />
	<path
   class="st13"
   d="m 799.40845,516.49555 c -16.45227,0 -29.69433,13.24208 -29.69433,29.69435 v 51.36319 h 59.18804 V 546.1899 c 0.20064,-16.45227 -13.04142,-29.69435 -29.49371,-29.69435 z"
   id="path194"
   style="stroke-width:2.00639" />
	<rect
   x="648.32843"
   y="373.64163"
   class="st16"
   width="303.76511"
   height="36.516018"
   id="rect196"
   style="fill:#673a96;fill-opacity:1;stroke-width:2.00639" />
	<polygon
   class="st15"
   points="587.7,188.2 663.4,320.3 512,320.3 "
   id="polygon198"
   style="fill:#673ab7;fill-opacity:1"
   transform="matrix(2.0063745,0,0,2.0063745,-378.93536,-269.00011)" />
	<polygon
   class="st16"
   points="587.7,188.2 587.7,320.3 663.4,320.3 "
   id="polygon200"
   style="fill:#673a96;fill-opacity:1"
   transform="matrix(2.0063745,0,0,2.0063745,-378.93536,-269.00011)" />
	<rect
   x="800.21106"
   y="373.64163"
   class="st17"
   width="151.88255"
   height="36.516018"
   id="rect202"
   style="fill:#543a7e;fill-opacity:1;stroke-width:2.00639" />
	<path
   class="st14"
   d="m 800.21101,516.49555 v 81.05754 H 829.1028 V 546.1899 c 0,-16.25163 -12.84079,-29.29307 -28.89179,-29.69435 z"
   id="path204"
   style="stroke-width:2.00639" />
	<polygon
   class="st15"
   points="760.3,432.5 798.7,514.2 566.8,514.2 605.1,432.5 "
   id="polygon206"
   style="fill:#673ab7;fill-opacity:1"
   transform="matrix(2.0063745,0,0,2.0063745,-378.93536,-269.00011)" />
	<rect
   x="801.21429"
   y="762.67773"
   class="st4"
   width="379.40546"
   height="207.2585"
   id="rect208"
   style="stroke-width:2.00639" />
	<rect
   x="990.81671"
   y="762.67773"
   class="st11"
   width="189.6024"
   height="207.2585"
   id="rect210"
   style="stroke-width:2.00639" />
	<polygon
   class="st16"
   points="682.7,432.5 682.7,514.2 798.7,514.2 760.3,432.5 "
   id="polygon212"
   style="fill:#673a96;fill-opacity:1"
   transform="matrix(2.0063745,0,0,2.0063745,-378.93536,-269.00011)" />
	<path
   class="st13"
   d="m 896.71763,830.69376 c -28.08925,0 -50.96191,22.87278 -50.96191,50.96201 v 88.48102 H 947.4789 v -88.48102 c 0.20065,-28.08923 -22.67203,-50.96201 -50.76127,-50.96201 z"
   id="path214"
   style="stroke-width:2.00639" />
	<path
   class="st14"
   d="m 1075.0844,830.69376 c -28.0892,0 -50.9619,22.87278 -50.9619,50.96201 v 88.48102 h 101.7232 v -88.48102 c 0.2007,-28.08923 -22.4714,-50.96201 -50.7613,-50.96201 z"
   id="path216"
   style="stroke-width:2.00639" />
	<rect
   x="389.10483"
   y="763.07904"
   class="st2"
   width="273.66949"
   height="562.78809"
   id="rect218"
   style="stroke-width:2.00639" />
	<polygon
   class="st8"
   points="578.2,577.8 578.2,600.5 550.8,600.5 550.8,577.8 519.1,577.8 519.1,600.5 519.1,618.7 696.5,618.7 728,618.7 846.3,618.7 846.3,577.8 814.7,577.8 814.7,600.5 787.2,600.5 787.2,577.8 755.6,577.8 755.6,600.5 728.2,600.5 728.2,577.8 728,577.8 696.5,577.8 696.3,577.8 696.3,600.5 668.9,600.5 668.9,577.8 637.3,577.8 637.3,600.5 609.9,600.5 609.9,577.8 "
   id="polygon220"
   transform="matrix(2.0063745,0,0,2.0063745,-378.93536,-269.00011)" />
	<rect
   x="662.17236"
   y="970.93933"
   class="st2"
   width="656.48578"
   height="354.92767"
   id="rect222"
   style="stroke-width:2.00639" />
	<path
   class="st13"
   d="m 525.9396,869.41682 c -16.45227,0 -29.69433,13.24205 -29.69433,29.69435 v 51.36332 h 59.18802 v -51.36332 c 0.20064,-16.4523 -13.04142,-29.69435 -29.49369,-29.69435 z"
   id="path224"
   style="stroke-width:2.00639" />
	<rect
   x="389.10483"
   y="1261.4625"
   class="st1"
   width="272.86694"
   height="64.404625"
   id="rect226"
   style="stroke-width:2.00639" />
	<rect
   x="662.77435"
   y="1268.4849"
   class="st1"
   width="655.88385"
   height="57.382313"
   id="rect228"
   style="stroke-width:2.00639" />
	<rect
   x="374.85959"
   y="726.56305"
   class="st16"
   width="303.76511"
   height="36.516018"
   id="rect230"
   style="fill:#673a96;fill-opacity:1;stroke-width:2.00639" />
	<polygon
   class="st15"
   points="451.4,364.1 527.1,496.2 375.7,496.2 "
   id="polygon232"
   style="fill:#673ab7;fill-opacity:1"
   transform="matrix(2.0063745,0,0,2.0063745,-378.93536,-269.00011)" />
	<rect
   x="1454.0884"
   y="568.26001"
   class="st18"
   width="4.6146617"
   height="123.39204"
   id="rect234"
   style="stroke-width:2.00639" />
	<polygon
   class="st9"
   points="915.9,439.8 945.7,428.5 915.9,417.3 "
   id="polygon236"
   style="fill:#673ab7;fill-opacity:1"
   transform="matrix(2.0063745,0,0,2.0063745,-378.93536,-269.00011)" />
	<rect
   x="1319.4607"
   y="763.07904"
   class="st2"
   width="273.66949"
   height="562.78809"
   id="rect238"
   style="stroke-width:2.00639" />
	<path
   class="st13"
   d="m 1456.2956,869.41682 c -16.4521,0 -29.6943,13.24205 -29.6943,29.69435 v 51.36332 h 59.1883 v -51.36332 c 0.2006,-16.4523 -13.0417,-29.69435 -29.494,-29.69435 z"
   id="path240"
   style="stroke-width:2.00639" />
	<rect
   x="1319.4607"
   y="1261.4625"
   class="st1"
   width="273.66949"
   height="64.404625"
   id="rect242"
   style="stroke-width:2.00639" />
	<polygon
   class="st8"
   points="978,479.2 954.2,479.2 954.2,459.5 926.6,459.5 926.6,479.2 902.8,479.2 902.8,459.5 875.2,459.5 875.2,479.2 851.4,479.2 851.4,459.5 823.9,459.5 823.9,479.2 823.9,495.1 1005.6,495.1 1005.6,479.2 1005.6,459.5 978,459.5 "
   id="polygon244"
   transform="matrix(2.0063745,0,0,2.0063745,-378.93536,-269.00011)" />
	<polygon
   class="st4"
   points="1005.6,495.1 997.9,514.2 831.5,514.2 823.9,495.1 "
   id="polygon246"
   transform="matrix(2.0063745,0,0,2.0063745,-378.93536,-269.00011)" />
	<rect
   x="525.93951"
   y="763.07904"
   class="st4"
   width="136.83476"
   height="562.78809"
   id="rect248"
   style="stroke-width:2.00639" />
	<rect
   x="525.93951"
   y="1261.4625"
   class="st3"
   width="136.03221"
   height="64.404625"
   id="rect250"
   style="stroke-width:2.00639" />
	<path
   class="st14"
   d="m 525.9396,869.41682 v 81.05767 h 29.69433 v -51.36332 c 0,-16.4523 -13.24206,-29.69435 -29.69433,-29.69435 z"
   id="path252"
   style="stroke-width:2.00639" />
	<rect
   x="525.93951"
   y="726.56305"
   class="st17"
   width="152.6851"
   height="36.516018"
   id="rect254"
   style="fill:#543a7e;fill-opacity:1;stroke-width:2.00639" />
	<polygon
   class="st16"
   points="451,364.7 451,496.2 527.1,496.2 451.4,364.1 "
   id="polygon256"
   style="fill:#673a96;fill-opacity:1"
   transform="matrix(2.0063745,0,0,2.0063745,-378.93536,-269.00011)" />
	<rect
   x="990.81671"
   y="970.93933"
   class="st4"
   width="327.84158"
   height="354.92767"
   id="rect258"
   style="stroke-width:2.00639" />
	<rect
   x="990.81671"
   y="1268.4849"
   class="st3"
   width="327.84158"
   height="57.382313"
   id="rect260"
   style="stroke-width:2.00639" />
	<polygon
   class="st2"
   points="787.2,600.5 787.2,577.8 755.6,577.8 755.6,600.5 728.2,600.5 728.2,577.8 728,577.8 696.5,577.8 696.3,577.8 696.3,600.5 682.7,600.5 682.7,618.7 696.5,618.7 728,618.7 846.3,618.7 846.3,577.8 814.7,577.8 814.7,600.5 "
   id="polygon262"
   transform="matrix(2.0063745,0,0,2.0063745,-378.93536,-269.00011)" />
	<rect
   x="1456.2952"
   y="763.07904"
   class="st4"
   width="136.83476"
   height="562.78809"
   id="rect264"
   style="stroke-width:2.00639" />
	<rect
   x="1456.2952"
   y="1261.4625"
   class="st3"
   width="136.83476"
   height="64.404625"
   id="rect266"
   style="stroke-width:2.00639" />
	<path
   class="st14"
   d="m 1485.9902,950.47449 v -51.36332 c 0,-16.4523 -13.2423,-29.69435 -29.6946,-29.69435 v 81.05767 z"
   id="path268"
   style="stroke-width:2.00639" />
	<polygon
   class="st11"
   points="914.7,495.1 914.7,514.2 997.9,514.2 1005.6,495.1 "
   id="polygon270"
   transform="matrix(2.0063745,0,0,2.0063745,-378.93536,-269.00011)" />
	<polygon
   class="st2"
   points="1005.6,479.2 1005.6,459.5 978,459.5 978,479.2 954.2,479.2 954.2,459.5 926.6,459.5 926.6,479.2 914.7,479.2 914.7,495.1 1005.6,495.1 "
   id="polygon272"
   transform="matrix(2.0063745,0,0,2.0063745,-378.93536,-269.00011)" />
	<path
   class="st16"
   d="m 990.81657,1061.8281 c -0.4012,0 -0.6019,0 -1.0032,0 v 264.0389 h 43.73903 v -252.6025 c -12.6401,-7.223 -27.086,-11.4364 -42.73583,-11.4364 z"
   id="path274"
   style="fill:#673a96;fill-opacity:1;stroke-width:2.00639" />
	<path
   class="st17"
   d="m 1033.5524,1073.2645 v 252.6025 h 43.7391 v -177.5642 c 0,-32.1018 -17.6562,-60.191 -43.7391,-75.0383 z"
   id="path276"
   style="fill:#543a7e;fill-opacity:1;stroke-width:2.00639" />
	<path
   class="st16"
   d="m 904.34185,1148.3028 v 177.5642 h 41.73259 v -251.5994 c -24.87904,15.2486 -41.73259,42.7358 -41.73259,74.0352 z"
   id="path278"
   style="fill:#673a96;fill-opacity:1;stroke-width:2.00639" />
	<path
   class="st15"
   d="m 946.27508,1074.2676 v 251.5994 h 43.73899 v -263.8382 c -16.05102,0 -31.09883,4.6146 -43.73899,12.2388 z"
   id="path280"
   style="fill:#673ab7;fill-opacity:1;stroke-width:2.00639" />
<g
   id="g2735"
   transform="matrix(1.0767306,0,0,1.1870654,1435.2543,159.55731)"><g
     id="g2678">
	<path
   style="fill:#ffffff"
   d="m 392.735,212.633 c 0.239,-1.781 1.403,-3.315 1.403,-5.167 0,-28.213 -30.51,-51.094 -68.164,-51.094 -4.924,0 -9.31,1.366 -13.957,2.118 -11.285,-14.997 -31.88,-25.549 -56.501,-25.549 -31.884,0 -57.223,17.343 -63.21,39.951 -30.922,6.136 -54.248,26.32 -54.248,51.457 0,23.805 20.8,43.408 49.257,50.671 9.646,21.702 36.082,37.605 68.201,37.605 29.137,0 53.833,-13.048 65.496,-31.569 7.484,2.5 15.671,3.981 24.389,3.981 33.384,0 60.467,-20.314 60.467,-45.406 0.001,-10.306 -5.406,-19.369 -13.133,-26.998 z"
   id="path2672" />
	<path
   style="fill:#ffffff"
   d="m 213.03,218.156 c 0.146,-1.081 0.849,-2.017 0.849,-3.139 0,-17.141 -18.533,-31.042 -41.406,-31.042 -2.997,0 -5.658,0.834 -8.479,1.291 -6.855,-9.111 -19.36,-15.517 -34.319,-15.517 -19.367,0 -34.765,10.529 -38.398,24.262 -18.784,3.734 -32.954,15.989 -32.954,31.259 0,14.458 12.636,26.364 29.919,30.78 5.86,13.182 21.915,22.843 41.429,22.843 17.699,0 32.695,-7.925 39.779,-19.177 4.554,1.515 9.523,2.417 14.821,2.417 20.273,0 36.729,-12.344 36.729,-27.581 0.003,-6.26 -3.278,-11.764 -7.97,-16.396 z"
   id="path2674" />
	<path
   style="fill:#ffffff"
   d="m 286.974,272.625 c -0.123,0.898 -0.707,1.68 -0.707,2.608 0,14.252 15.412,25.803 34.428,25.803 2.485,0 4.7,-0.692 7.046,-1.07 5.691,7.573 16.093,12.902 28.531,12.902 16.101,0 28.898,-8.756 31.913,-20.176 15.618,-3.102 27.397,-13.291 27.397,-25.983 0,-12.022 -10.503,-21.919 -24.868,-25.594 -4.876,-10.956 -18.226,-18.986 -34.443,-18.986 -14.72,0 -27.188,6.586 -33.07,15.94 -3.787,-1.257 -7.914,-2.009 -12.322,-2.009 -16.86,0 -30.54,10.26 -30.54,22.926 -0.003,5.212 2.733,9.785 6.635,13.639 z"
   id="path2676" />
</g><g
     id="g2680">
</g><g
     id="g2682">
</g><g
     id="g2684">
</g><g
     id="g2686">
</g><g
     id="g2688">
</g><g
     id="g2690">
</g><g
     id="g2692">
</g><g
     id="g2694">
</g><g
     id="g2696">
</g><g
     id="g2698">
</g><g
     id="g2700">
</g><g
     id="g2702">
</g><g
     id="g2704">
</g><g
     id="g2706">
</g><g
     id="g2708">
</g></g><g
   id="g2823"
   transform="matrix(2.0063745,0,0,2.0063745,842.31653,608.06911)"><g
     id="g2759"
     transform="matrix(0.77349916,0,0,0.77349916,-35.634047,-14.181766)">
	
	<g
   id="g2757">
		
		<g
   id="g2755"
   transform="matrix(2.1396943,0,0,2.1276551,-486.31695,-369.56902)">
			<path
   style="fill:#ffffff;fill-opacity:1"
   d="M 128.505,82.851 C 126.89,67.32 113.762,55.209 97.803,55.209 c -2.971,0 -5.84,0.428 -8.558,1.212 11.872,3.432 20.799,13.8 22.112,26.43 6.579,2.566 11.243,8.689 11.243,16.177 0,9.749 -7.903,17.382 -17.652,17.382 9.761,0 16.928,0 17.147,0 9.749,0 17.653,-7.633 17.653,-17.382 0,-7.488 -4.665,-13.612 -11.243,-16.177 z"
   id="path2751" />
			<path
   style="fill:#ffffff"
   d="m 122.6,99.095 c 0,-7.488 -4.664,-13.747 -11.243,-16.313 -1.313,-12.629 -10.24,-22.929 -22.112,-26.361 -5.494,1.583 -10.362,4.68 -14.136,8.771 -2.269,-0.885 -4.733,-1.358 -7.315,-1.358 -10.378,0 -18.919,7.853 -20.028,17.935 -9.07,0.739 -16.202,8.063 -16.202,17.323 0,9.749 7.903,17.387 17.653,17.387 0.481,0 34.336,0 55.73,0 9.75,-0.002 17.653,-7.635 17.653,-17.384 z"
   id="path2753" />
		</g>
	</g>
</g><g
     id="g2761">
</g><g
     id="g2763">
</g><g
     id="g2765">
</g><g
     id="g2767">
</g><g
     id="g2769">
</g><g
     id="g2771">
</g><g
     id="g2773">
</g><g
     id="g2775">
</g><g
     id="g2777">
</g><g
     id="g2779">
</g><g
     id="g2781">
</g><g
     id="g2783">
</g><g
     id="g2785">
</g><g
     id="g2787">
</g><g
     id="g2789">
</g></g></g>
</svg>
