<?xml version="1.0" encoding="utf-8"?>
<!-- Generator: Adobe Illustrator 21.0.0, SVG Export Plug-In . SVG Version: 6.00 Build 0)  -->
<svg version="1.1" id="Layer_1" xmlns="http://www.w3.org/2000/svg" xmlns:xlink="http://www.w3.org/1999/xlink" x="0px" y="0px"
	 viewBox="0 0 1400 980" style="enable-background:new 0 0 1400 980;" xml:space="preserve">
<style type="text/css">
	.st0{fill:#F4F2F2;}
	.st1{fill:#9B9797;}
	.st2{fill:#E2E2E2;}
	.st3{fill:#C4C2C2;}
	.st4{opacity:0.27;fill:#FFFFFF;}
	.st5{fill:#00E0D6;}
	.st6{fill:#04BCAE;}
	.st7{opacity:0.41;fill:#FFFFFF;}
	.st8{opacity:0.41;}
	.st9{fill:#FFFFFF;}
	.st10{opacity:0.39;fill:#FFFFFF;}
	.st11{fill:#BCBBBB;}
	.st12{fill:#EFA522;}
	.st13{fill:#D68A12;}
	.st14{fill:#BF7408;}
	.st15{fill:#2CF4E1;}
	.st16{fill:#02C6B7;}
	.st17{opacity:0.45;fill:#FFFFFF;}
	.st18{fill:#706E6C;}
	.st19{fill:#494745;}
	.st20{fill:#15E5CC;}
	.st21{fill:#04AA9A;}
	.st22{fill:#9B9997;}
	.st23{opacity:0.27;}
	.st24{fill:#C13065;}
	.st25{fill:#991A4E;}
	.st26{fill:#EC5A89;}
	.st27{fill:#7C1142;}
	.st28{opacity:0.58;fill:#FFFFFF;}
	.st29{fill:#B6C3C6;}
	.st30{fill:#13C1D8;}
	.st31{fill:#0FA9B5;}
	.st32{fill:#F7CE69;}
	.st33{fill:#B78509;}
	.st34{fill:#FCBE00;}
	.st35{fill:#E2A805;}
	.st36{fill:#DDA300;}
	.st37{fill:#F4712F;}
	.st38{fill:#D85921;}
	.st39{fill:#BA4917;}
	.st40{fill:#F9A37D;}
	.st41{fill:#545250;}
	.st42{fill:#A09D9C;}
	.st43{fill:#FF9566;}
</style>
<g>
	<g>
		<g>
			<path class="st0" d="M210.6,366.6L58.1,241.3c-9.5-7.8-15.3-19.3-16-31.6l-1.7-31.4l0.4,0l-5.3-5.3l-0.5,0l2,36.9
				c0.8,13.7,7.2,26.5,17.8,35.2L211,373.4l12.4-12.4l-3.5-3.5L210.6,366.6z"/>
			<path class="st1" d="M72.1,174.8l-36.7-1.7l5.3,5.3l31.2,1.5c12.4,0.6,24.1,6.4,32,16L229,348.3l-9.2,9.2l3.5,3.5l12.4-12.4
				l-128-155.9C98.9,182,86,175.5,72.1,174.8z"/>
			<path class="st2" d="M42,209.7c0.7,12.3,6.5,23.8,16,31.6l152.6,125.3l9.2-9.2L40.7,178.4l-0.4,0L42,209.7z"/>
			<path class="st3" d="M229,348.3L103.9,195.9c-7.9-9.6-19.5-15.5-32-16l-31.2-1.5l179.1,179.1L229,348.3z"/>
		</g>
		<polygon class="st4" points="129.9,219.7 170.2,268.8 149.9,323.2 105.1,286.4 		"/>
		<path class="st4" d="M107.7,192.7l8.1,9.9l0,0l-26.4,71L71,258.5l27.7-74.3C102,186.6,105.1,189.4,107.7,192.7z"/>
		
			<rect x="170.5" y="345.3" transform="matrix(0.7071 -0.7071 0.7071 0.7071 -189.0079 261.6446)" class="st5" width="101.7" height="27.4"/>
		
			<rect x="234.6" y="318.7" transform="matrix(0.7071 -0.7071 0.7071 0.7071 -162.4316 272.6529)" class="st6" width="26.5" height="27.4"/>
		
			<rect x="162.7" y="348.5" transform="matrix(0.7071 -0.7071 0.7071 0.7071 -185.7862 253.8668)" class="st6" width="101.7" height="5.4"/>
		<path class="st5" d="M313.5,438.2l-13,13c-4.9,4.9-12.9,4.9-17.9,0l-67.1-67.1l30.8-30.8l67.1,67.1
			C318.5,425.3,318.5,433.3,313.5,438.2z"/>
		<path class="st6" d="M235.6,364.1l67.1,67.1c4.9,4.9,4.9,12.9,0,17.9l10.8-10.8c4.9-4.9,4.9-12.9,0-17.9l-67.1-67.1L235.6,364.1z"
			/>
		
			<rect x="223.7" y="379.2" transform="matrix(0.7071 -0.7071 0.7071 0.7071 -199.0165 285.8077)" class="st7" width="43.6" height="7.9"/>
		
			<rect x="239" y="394.5" transform="matrix(0.7071 -0.7071 0.7071 0.7071 -205.3504 301.099)" class="st7" width="43.6" height="7.9"/>
		
			<rect x="254.3" y="409.8" transform="matrix(0.7071 -0.7071 0.7071 0.7071 -211.6856 316.3936)" class="st7" width="43.6" height="7.9"/>
		
			<rect x="269.6" y="425.1" transform="matrix(0.7071 -0.7071 0.7071 0.7071 -218.0195 331.6849)" class="st7" width="43.6" height="7.9"/>
		
			<rect x="211.4" y="367.8" transform="matrix(0.7071 -0.7071 0.7071 0.7071 -193.9055 273.4685)" class="st6" width="43.6" height="6.1"/>
		<g class="st8">
			
				<rect x="223.7" y="379.2" transform="matrix(0.7071 -0.7071 0.7071 0.7071 -199.0165 285.8077)" class="st9" width="43.6" height="7.9"/>
			
				<rect x="239" y="394.5" transform="matrix(0.7071 -0.7071 0.7071 0.7071 -205.3504 301.099)" class="st9" width="43.6" height="7.9"/>
			
				<rect x="254.3" y="409.8" transform="matrix(0.7071 -0.7071 0.7071 0.7071 -211.6856 316.3936)" class="st9" width="43.6" height="7.9"/>
			
				<rect x="269.6" y="425.1" transform="matrix(0.7071 -0.7071 0.7071 0.7071 -218.0195 331.6849)" class="st9" width="43.6" height="7.9"/>
		</g>
		
			<rect x="183.7" y="377.2" transform="matrix(0.7071 -0.7071 0.7071 0.7071 -220.9651 248.4075)" class="st10" width="11.3" height="27.4"/>
	</g>
	<g>
		<path class="st2" d="M1102.3,344.5c74.3,77,138.5-2.5,138.5-2.5s-30.2-9-41.2-38.8c-11-29.8,44.3-50.2,44.3-50.2
			c-2.9-12.1-12.4-23.4-19.7-30.5c-7.1-7.2-18.4-16.8-30.5-19.7c0,0-20.4,55.3-50.2,44.3c-29.8-11-38.8-41.2-38.8-41.2
			S1025.4,270.2,1102.3,344.5z M1138.4,308.3c-8.6-8.6-8.6-22.7,0-31.3c8.6-8.6,22.7-8.6,31.3,0c8.6,8.6,8.6,22.7,0,31.3
			S1147,317,1138.4,308.3z"/>
		<path class="st4" d="M1144,247.3l0,25.6c8.3-4.2,18.7-2.9,25.7,4.1c8.6,8.6,8.6,22.7,0,31.3c-7,7-17.4,8.3-25.7,4.1v61
			c15.5,5.7,29.9,5.8,42.6,2.9l0-158C1178.2,233.6,1163.1,254,1144,247.3z M1105.9,209.1v139c9.5,9.3,18.9,16,27.9,20.7V242.5
			C1116.7,232.4,1108.7,215.9,1105.9,209.1z"/>
		<path class="st1" d="M1104.8,206c0,0,0.7,2.4,2.4,6.1c-1.8,1.9-3.4,3.5-4.7,4.7c-9.2,9.5-27.7,32.2-27.5,60.7
			c0.2,21.4,10.8,42.5,31.7,62.6l0.2,0.2c20.1,20.8,41.2,31.5,62.6,31.7c28.5,0.3,51.2-18.3,60.7-27.5c1.8-1.7,3.3-3.3,4.6-4.7
			c3.7,1.7,6.1,2.4,6.1,2.4s-64.2,79.5-138.5,2.5C1025.4,270.2,1104.8,206,1104.8,206z"/>
		<path class="st0" d="M1104.8,206c0,0,9,30.2,38.8,41.2c29.8,11,50.2-44.3,50.2-44.3c2.3,0.5,4.5,1.3,6.7,2.3
			c-40.1,93.5-86.5,34.7-103.5,8.2C1101.6,208.6,1104.8,206,1104.8,206z"/>
		<path class="st2" d="M1232.5,313.3l24.9-24.9l-74.9-74.9c-6.9-6.9-18-6.9-24.9,0l0,0c-6.9,6.9-6.9,18,0,24.9L1232.5,313.3z"/>
		<path class="st11" d="M1157.6,213.6c1.4-1.4,3-2.5,4.7-3.3c-3.2,6.6-2.1,14.7,3.3,20.2l74.9,74.9l-8,8l-74.9-74.9
			C1150.7,231.6,1150.7,220.4,1157.6,213.6z"/>
		<path class="st0" d="M1156.8,214.5c0.3-0.3,0.5-0.6,0.8-0.9c6.9-6.9,18-6.9,24.9,0l74.9,74.9l-1.7,1.7l-74.9-74.9
			C1174.1,208.7,1163.7,208.5,1156.8,214.5z"/>
		<path class="st12" d="M1359.8,415.8L1359.8,415.8c6.9-6.9,6.9-18,0-24.9l-103.6-103.6l-24.9,24.9L1335,415.8
			C1341.9,422.7,1353,422.7,1359.8,415.8z"/>
		<path class="st10" d="M1358.2,392.6L1254.6,289l1.7-1.7l103.6,103.6c6.9,6.9,6.9,18,0,24.9c-0.3,0.3-0.6,0.5-0.9,0.8
			C1365,409.7,1364.8,399.2,1358.2,392.6z"/>
		<path class="st13" d="M1239.1,304.5l103.6,103.6c5.5,5.5,13.8,6.6,20.4,3.3c-0.8,1.6-1.9,3.1-3.3,4.5c-6.9,6.9-18,6.9-24.9,0
			l-103.6-103.6L1239.1,304.5z"/>
		<path class="st13" d="M1260.2,340.6l25.1-25.1c2.7-2.7,7-2.7,9.6,0v0c2.7,2.7,2.7,7,0,9.6l-25.1,25.1c-2.7,2.7-7,2.7-9.6,0l0,0
			C1257.5,347.6,1257.5,343.3,1260.2,340.6z"/>
		<path class="st13" d="M1279.5,360l25.1-25.1c2.7-2.7,7-2.7,9.6,0l0,0c2.7,2.7,2.7,7,0,9.6l-25.1,25.1c-2.7,2.7-7,2.7-9.6,0l0,0
			C1276.8,366.9,1276.8,362.6,1279.5,360z"/>
		<path class="st13" d="M1296.8,377.3l25.1-25.1c2.7-2.7,7-2.7,9.6,0v0c2.7,2.7,2.7,7,0,9.6l-25.1,25.1c-2.7,2.7-7,2.7-9.6,0l0,0
			C1294.2,384.3,1294.2,379.9,1296.8,377.3z"/>
		<path class="st14" d="M1260.2,340.6l7-7l9.6,9.6l-7,7c-2.7,2.7-7,2.7-9.6,0C1257.5,347.6,1257.5,343.3,1260.2,340.6z"/>
		<path class="st14" d="M1279.5,360l7-7l9.6,9.6l-7,7c-2.7,2.7-7,2.7-9.6,0S1276.8,362.6,1279.5,360z"/>
		<path class="st14" d="M1296.8,377.3l7-7l9.6,9.6l-7,7c-2.7,2.7-7,2.7-9.6,0C1294.2,384.3,1294.2,379.9,1296.8,377.3z"/>
		<path class="st0" d="M1170.7,218.1L1170.7,218.1c1.4-1.4,3.8-1.4,5.2,0l66.9,66.9c1.4,1.4,1.4,3.8,0,5.2l0,0
			c-1.4,1.4-3.8,1.4-5.2,0l-66.9-66.9C1169.3,221.9,1169.3,219.6,1170.7,218.1z"/>
		<path class="st1" d="M1135.6,279.8c0.5-0.5,1-0.9,1.4-1.3c-7.3,8.7-6.9,21.7,1.3,29.9c8.2,8.2,21.2,8.6,29.9,1.3
			c-0.4,0.5-0.9,1-1.3,1.4c-8.6,8.6-22.7,8.6-31.3,0C1126.9,302.4,1126.9,288.4,1135.6,279.8z"/>
	</g>
	<g>
		<path class="st15" d="M818.8,214.7l-89.6-41.3l41.3,89.6c0,0,32,4.7,92.5,74.2l5-5c-44-46.1-84.4-71.5-93.3-74.2l-33.4-72.5
			l72.5,33.4c2.7,8.9,28.1,49.2,74.2,93.3l5-5C823.5,246.6,818.8,214.7,818.8,214.7z"/>
		<path class="st5" d="M880.3,345.5l21.1-21.1c-4.6-4.1-9.1-8.2-13.3-12.3l-20,20C872,336.4,876.1,340.9,880.3,345.5z"/>
		<path class="st5" d="M813.8,218.9l-72.5-33.4l33.4,72.5c8.9,2.7,49.2,28.1,93.3,74.2l20-20C841.9,268.1,816.5,227.7,813.8,218.9z"
			/>
		<path class="st16" d="M818.8,214.7l-89.3-41.2l148.6,148.6l14.9-14.9C823.5,246.6,818.8,214.7,818.8,214.7z"/>
		<path class="st17" d="M775.6,216.2l104.1,104.1l-3.6,3.6L772,219.8c-1.8-1.8-3.5-3.6-5-5.5l-15.1-18.1l18.1,15
			C772,212.7,773.8,214.4,775.6,216.2z"/>
		<path class="st18" d="M910.3,264c30.1,15.6-6.5,37.4-17.4,43.2l-29.8,29.8c-5.9,10.9-27.7,47.5-43.2,17.4c0,0-0.3,78.5,66.3,63.2
			c0,0-33.2-20-19.7-40.3c0,0,17.2-11.5,26.8-10.8c1.4,0.1,2.6,0.4,3.5,1.1c7.8,5.3,53.2,53.2,53.2,53.2l26.6-26.6
			c0,0-47.9-45.4-53.2-53.2c-0.7-1-1-2.2-1.1-3.5c-0.7-9.5,10.8-26.8,10.8-26.8c20.3-13.4,40.3,19.7,40.3,19.7
			C988.8,263.7,910.3,264,910.3,264z"/>
		<path class="st19" d="M910.3,264c30.1,15.6-6.5,37.4-17.4,43.2l-14.5,14.5l85.3,85.3l12.9-12.9c0,0-47.9-45.4-53.2-53.2
			c-0.7-1-1-2.2-1.1-3.5c-0.7-9.5,10.8-26.8,10.8-26.8c20.3-13.4,40.3,19.7,40.3,19.7C988.8,263.7,910.3,264,910.3,264z"/>
		<polygon class="st18" points="950.1,420.7 953.3,449.4 1006.4,450.5 1005.2,397.4 976.6,394.3 		"/>
		<polygon class="st19" points="1006.4,450.4 1005.2,397.4 976.6,394.3 963.4,407.4 		"/>
		<polygon class="st15" points="962.4,439.4 960.8,424.5 980.3,404.9 995.2,406.6 995.9,440.1 		"/>
		<polygon class="st20" points="995.9,439.8 995.2,406.6 980.3,404.9 970.7,414.5 		"/>
		<path class="st15" d="M894.6,314.5l-10.9,12.8l-12.8,10.9l-6.7,32.3c0,0,24.3-16.4,37.2-11.3c4.6,1.8,9.6,3.6,14.2,5.2
			c2.8,1,5.4,1.8,7.7,2.6c-0.2-0.6-0.4-1.1-0.6-1.8c-0.4-1.2-0.8-2.5-1.3-3.8c-0.2-0.7-0.5-1.4-0.7-2.1c-1.6-4.6-3.4-9.6-5.2-14.2
			c-5.1-13,11.3-37.2,11.3-37.2L894.6,314.5z"/>
		<path class="st20" d="M894.6,314.5l-10.9,12.8l-0.2,0.2l39.3,39.3c0.2,0.1,0.4,0.1,0.6,0.2c-0.2-0.6-0.4-1.1-0.6-1.8
			c-0.4-1.2-0.8-2.5-1.3-3.8c-0.2-0.7-0.5-1.4-0.7-2.1c-1.6-4.6-3.4-9.6-5.2-14.2c-5.1-13,11.3-37.2,11.3-37.2L894.6,314.5z"/>
		<path class="st21" d="M818.8,214.7l-89.3-41.2l12.1,12.1l72.2,33.3c2.7,8.9,28.1,49.2,74.2,93.3l5-5
			C823.5,246.6,818.8,214.7,818.8,214.7z"/>
		<path class="st15" d="M729.2,173.3l41.3,89.6c0,0,32,4.7,92.5,74.2l5-5c-44-46.1-84.4-71.5-93.3-74.2l-33.4-72.5l0.3,0.1
			l-12.1-12.1L729.2,173.3z"/>
		<path class="st22" d="M942.6,413c4.5,4.7,7.4,7.7,7.4,7.7l26.6-26.6c0,0-3.1-2.9-7.7-7.4L942.6,413z"/>
		<path class="st18" d="M956,399.6c4.5,4.6,7.5,7.7,7.5,7.7l13.1-13.1c0,0-3-3-7.7-7.5L956,399.6z"/>
		<g class="st23">
			<path class="st9" d="M842.6,255.9c6.5,8.1,14.8,17.4,25.3,27.9l-3,4.8l-15.4,25.1l-3.1,5.1c-9.8-10.3-18.7-18.7-26.7-25.6
				l2.3-3.8l18.3-29.8L842.6,255.9z"/>
			<path class="st9" d="M818.8,214.7c0,0,1.2,7.9,10.8,23.2l-2.5,4.1l-21.5,35l-2.2,3.5c-21.8-15.8-33-17.5-33-17.5l-4-8.6l3.7-6.1
				l23.6-38.6l3.1-5.1L818.8,214.7z"/>
		</g>
	</g>
	<g>
		<g>
			<g>
				<polygon class="st18" points="594,380.4 571.8,402.5 624.6,455.3 641.1,450.5 646.8,433.1 				"/>
				<polygon class="st19" points="582.5,391.9 641.1,450.5 646.8,433.1 594,380.4 				"/>
			</g>
			<g>
				<path class="st24" d="M370,185.7c0.9,31.9,39.9,65.5,50.9,75c12.4,10.7,19.5,35.5,19.5,35.5c48.2,5,62.7,68.7,62.7,68.7
					c12.3,0.7,25.6,8.5,36,16.4l16.5-16.5L370.3,179.4C370,181.5,369.9,183.6,370,185.7z"/>
				<path class="st25" d="M555.7,312.3c0,0-63.6-14.5-68.6-62.7c0,0-24.9-7.1-35.5-19.5c-9.5-11.1-43.1-50-75-50.9
					c-2.1-0.1-4.2,0-6.3,0.3l185.3,185.3l16.5-16.5C564.3,337.9,556.4,324.6,555.7,312.3z"/>
				<polygon class="st25" points="417.1,223.4 557.1,363.4 554.5,366 414.5,226 387.1,196.1 				"/>
				<g>
					<path class="st26" d="M370,185.7c0.9,31.9,39.9,65.5,50.9,75c12.4,10.7,19.5,35.5,19.5,35.5c48.2,5,62.7,68.7,62.7,68.7
						c12.3,0.7,25.6,8.5,36,16.4l3.6-3.6c-11.8-7.6-27.8-16.1-35.7-17.3c-1.6-5.7-5.6-17.8-12.9-30.4c-12.8-21.9-30-35-49.9-38.2
						c-2.4-7.3-9.3-25.5-20.1-34.8c-22.1-18.9-48.5-46.6-49.2-71.4c0-0.6,0-1.1,0-1.7l-4.5-4.5C370,181.5,369.9,183.6,370,185.7z"/>
					<path class="st27" d="M487.1,249.6c0,0-24.9-7.1-35.5-19.5c-9.5-11.1-43.1-50-75-50.9c-2.1-0.1-4.2,0-6.3,0.3l4.5,4.5
						c0.5,0,1.1,0,1.6,0c24.8,0.7,52.5,27.2,71.5,49.2c9.2,10.8,27.5,17.7,34.8,20.1c1.7,10.7,6.2,20.6,13.5,29.5
						c6.3,7.7,14.6,14.5,24.7,20.4c12.6,7.3,24.7,11.3,30.4,12.9c1.3,8.5,9.4,24.5,17,36l3.8-3.8c-7.8-10.4-15.7-23.8-16.4-36
						C555.7,312.3,492.1,297.8,487.1,249.6z"/>
				</g>
				<polygon class="st28" points="417.1,223.4 557.1,363.4 554.5,366 414.5,226 387.1,196.1 				"/>
			</g>
			<path class="st9" d="M593.5,311.9c14.4,12.6,4.1,42.9,4.1,42.9l-9.5-23.9l-51.6,14.7l-14.7,51.6l23.9,9.5c0,0-30.2,10.4-42.9-4.1
				c0,0,31.6,62.3,85.8,9.9l7.2-7.2l0.5-0.5l7.2-7.2C655.7,343.5,593.5,311.9,593.5,311.9z"/>
			<path class="st18" d="M536.5,345.6l-14.7,51.6l23.9,9.5c0,0-30.2,10.4-42.9-4.1c0,0,31.6,62.3,85.8,9.9l7.2-7.2l0.2-0.2
				L536.5,345.6L536.5,345.6z"/>
			<path class="st19" d="M536.5,345.6l51.6-14.7l9.5,23.9c0,0,10.4-30.2-4.1-42.9c0,0,62.3,31.6,9.9,85.8l-7.2,7.2l-0.2,0.2
				L536.5,345.6L536.5,345.6z"/>
			<g>
				<path class="st9" d="M577.1,349.3l-27.7,9.2l-9.2,27.7c0,0,30.7,21.3,45.1,8.7c0,0,0.2-0.2,0.3-0.3c0.1-0.1,0.3-0.3,0.3-0.3
					C598.5,380,577.1,349.3,577.1,349.3z"/>
				<g>
					<path class="st24" d="M575.9,352.7l-24.2,8.1l-8.1,24.2c0,0,26.9,18.6,39.4,7.6c0,0,0.2-0.1,0.2-0.2c0.1-0.1,0.2-0.2,0.2-0.2
						C594.6,379.6,575.9,352.7,575.9,352.7z"/>
					<path class="st29" d="M549.7,358.4l36,36c0,0,0.1-0.1,0.1-0.1c12.7-14.4-8.7-45.1-8.7-45.1L549.7,358.4z"/>
					<path class="st25" d="M551.9,360.7l31.5,31.5c0.1-0.1,0.1-0.1,0.1-0.1c11.1-12.6-7.6-39.4-7.6-39.4L551.9,360.7z"/>
				</g>
			</g>
		</g>
		<path class="st10" d="M459.8,237.2l-26.4,41.3c-3.2-6.5-7.4-13.4-12.6-17.8c-3.2-2.7-8.6-7.4-14.7-13.4l24.9-39
			c9.5,8.9,16.8,17.4,20.5,21.7C453.8,232.7,456.7,235,459.8,237.2z"/>
		<path class="st10" d="M516,294.4l-25.3,39.6c-8.7-15.4-22.5-31.7-43.5-36.6l32.2-50.4c4.5,1.7,7.7,2.6,7.7,2.6
			C489.2,270.1,502,284.6,516,294.4z"/>
	</g>
	<g>
		
			<rect x="568.8" y="706" transform="matrix(0.7071 -0.7071 0.7071 0.7071 -352.9126 636.7886)" class="st30" width="46.8" height="76.9"/>
		
			<rect x="575.1" y="721.2" transform="matrix(0.7071 -0.7071 0.7071 0.7071 -368.1606 630.4727)" class="st28" width="3.7" height="76.9"/>
		
			<rect x="591.4" y="696.6" transform="matrix(0.7071 -0.7071 0.7071 0.7071 -343.5519 640.666)" class="st31" width="20.3" height="76.9"/>
		<path class="st30" d="M640.3,750.6l-41.9,41.9l7.9,7.9c8.7,8.7,22.8,8.7,31.5,0l10.4-10.4c8.7-8.7,8.7-22.8,0-31.5L640.3,750.6z"
			/>
		
			<rect x="591.8" y="770.6" transform="matrix(0.7071 -0.7071 0.7071 0.7071 -365.0181 666.0137)" class="st31" width="59.3" height="6"/>
		<path class="st31" d="M621.7,769.1l7.9,7.9c7.3,7.3,8.5,18.4,3.5,26.9c1.6-1,3.2-2.1,4.6-3.5l10.4-10.4c8.7-8.7,8.7-22.8,0-31.5
			l-7.9-7.9L621.7,769.1z"/>
		<polygon class="st2" points="379.2,531.4 384.6,605.2 516.3,737 584.8,668.5 453.1,536.7 		"/>
		<polygon class="st3" points="380.7,531.5 551.3,702.1 584.8,668.5 453.1,536.7 		"/>
		<polygon class="st0" points="379.2,531.4 384.6,605.2 516.3,737 520.9,732.4 390.9,602.3 386.3,538.4 387.7,538.6 380.7,531.5 		
			"/>
		<polygon class="st1" points="453.1,536.7 453.1,536.7 453.1,536.7 		"/>
		<polygon class="st1" points="380.7,531.5 387.7,538.6 450.2,543.1 580.2,673.1 584.8,668.5 453.1,536.7 453.1,536.7 		"/>
		
			<rect x="517" y="699.3" transform="matrix(0.7071 -0.7071 0.7071 0.7071 -339.1225 603.4963)" class="st30" width="83.8" height="23.6"/>
		<polygon class="st30" points="594,659 506.6,746.3 511.8,769.1 531.7,771.4 619,684 615.7,664.3 		"/>
		<polygon class="st31" points="594,658.9 581,671.9 602.7,677.3 606,697 619.1,683.9 615.8,664.2 		"/>
		<polygon class="st31" points="602.2,660.9 594,658.9 506.7,746.2 508.6,754.5 		"/>
		<polygon class="st28" points="508.7,744.3 506.7,746.2 511.9,769 531.8,771.3 533.7,769.3 513.8,767.1 		"/>
		<polygon class="st4" points="459.2,542.9 491.9,575.5 437.5,658.2 404.9,625.6 		"/>
		<polygon class="st4" points="501.5,585.2 546.6,630.3 492.3,713 447.2,667.9 		"/>
	</g>
	<g>
		<polygon class="st32" points="44.7,539.6 45.7,539.7 39.1,533.2 38.1,533.1 41.4,596.1 188.3,724.7 192.1,721 47.5,593.1 		"/>
		<polygon class="st33" points="102.1,535.3 39.1,533.2 45.7,539.7 99.2,541.5 227.1,685.9 230.8,682.2 		"/>
		<polygon class="st34" points="192.1,721 199.4,727.5 216.5,710.4 209.6,703.5 		"/>
		<polygon class="st34" points="216.5,710.4 233.6,693.3 227.1,685.9 209.6,703.5 		"/>
		<polygon class="st35" points="45.7,539.7 209.6,703.5 227.1,685.9 99.2,541.5 		"/>
		<polygon class="st34" points="45.7,539.7 44.7,539.6 47.5,593.1 192.1,721 209.6,703.5 		"/>
		<polygon class="st4" points="121.3,666 163.7,605.6 191.3,637.1 152.1,693 		"/>
		<polygon class="st4" points="121.8,557.8 144.4,583.6 99.7,647.2 74.5,625.1 		"/>
		<path class="st18" d="M229.9,692.2L199.2,723l67.2,67.2c2.9,2.9,7.6,2.9,10.5,0l20.3-20.3c2.9-2.9,2.9-7.6,0-10.5L229.9,692.2z"/>
		<path class="st18" d="M234,638.2l-17.4-6.2l6.9,6.9c5.8,5.8,7.3,14.6,3.6,21.9c-5.2,10.6-15.2,22.8-21.3,29.8
			c-2.5,2.9-5.2,5.6-8.2,8.2c-7.1,6.1-19.3,16-29.8,21.3c-7.3,3.6-16.1,2.2-21.9-3.6l-6.9-6.9l6.2,17.4l21.6,21.6
			c0,0,36.4-10.6,58-30.6l0.3-0.3c19.9-21.5,30.5-58,30.5-58L234,638.2z"/>
		<path class="st18" d="M234,638.2l-17.4-6.2l6.9,6.9c5.8,5.8,7.3,14.6,3.6,21.9c-5.2,10.6-15.2,22.8-21.3,29.8
			c-2.5,2.9-5.2,5.6-8.2,8.2c-7.1,6.1-19.3,16-29.8,21.3c-7.3,3.6-16.1,2.2-21.9-3.6l-6.9-6.9l6.2,17.4l21.6,21.6
			c0,0,36.4-10.6,58-30.6l0.3-0.3c19.9-21.5,30.5-58,30.5-58L234,638.2z"/>
		<polygon class="st19" points="234,638.2 236.7,640.9 219.3,634.7 216.6,632 		"/>
		<path class="st19" d="M237.9,700.1l2.7,2.7c-3.7,6.3-8,12.4-12.8,17.6l-0.3,0.3c-5.2,4.8-11.3,9.1-17.6,12.9l-2.7-2.7
			c6.3-3.7,12.4-8,17.6-12.9l0.3-0.3C229.9,712.5,234.2,706.4,237.9,700.1z"/>
		<path class="st19" d="M234,638.2l-17.4-6.2l6.9,6.9c5.8,5.8,7.3,14.6,3.6,21.9c-5.2,10.6-15.2,22.8-21.3,29.8c-1,1.1-2,2.2-3,3.3
			l12.7,12.7l10.3,10.3l62.2,62.1l9.2-9.2c2.9-2.9,2.9-7.6,0-10.5l-59.3-59.2c11.6-19.5,17.7-40.4,17.7-40.4L234,638.2z"/>
		<path class="st34" d="M277.5,789.3l1.8,1.8c5.2,5.2,13.6,5.2,18.7,0h0c5.2-5.2,5.2-13.6,0-18.7l-1.8-1.8L277.5,789.3z"/>
		<path class="st36" d="M287.8,778.9l11.1,11.1c4.2-5.2,3.9-12.8-1-17.7l-1.8-1.8L287.8,778.9z"/>
		<g>
			<path class="st34" d="M218.3,749.9L218.3,749.9c-2.5-2.5-2.9-7-0.8-9.9l24.5-34.4c2.1-3,5.9-3.3,8.4-0.8l0,0
				c2.5,2.5,2.9,7,0.8,9.9l-24.5,34.4C224.6,752.1,220.8,752.4,218.3,749.9z"/>
			<path class="st34" d="M236.2,767.7L236.2,767.7c-2.5-2.5-2.9-7-0.8-9.9l24.5-34.4c2.1-3,5.9-3.3,8.4-0.8l0,0
				c2.5,2.5,2.9,7,0.8,9.9L244.6,767C242.5,769.9,238.7,770.3,236.2,767.7z"/>
			<path class="st34" d="M254.3,785.9L254.3,785.9c-2.5-2.5-2.9-7-0.8-9.9l24.5-34.4c2.1-3,5.9-3.3,8.4-0.8l0,0
				c2.5,2.5,2.9,7,0.8,9.9l-24.5,34.4C260.6,788.1,256.9,788.4,254.3,785.9z"/>
		</g>
		<g>
			<path class="st36" d="M242,705.6l-11.5,16.2l9.2,9.2l11.5-16.2c2.1-3,1.8-7.4-0.8-9.9h0C247.9,702.3,244.1,702.6,242,705.6z"/>
			<path class="st36" d="M259.9,723.4l-11.5,16.2l9.2,9.2l11.5-16.2c2.1-3,1.8-7.4-0.8-9.9C265.7,720.1,262,720.5,259.9,723.4z"/>
			<path class="st36" d="M278,741.6l-11.5,16.2l9.2,9.2l11.5-16.2c2.1-3,1.8-7.4-0.8-9.9h0C283.9,738.3,280.1,738.6,278,741.6z"/>
		</g>
	</g>
	<g>
		
			<rect x="922.4" y="648.9" transform="matrix(-0.7071 0.7071 -0.7071 -0.7071 2067.4241 454.4765)" class="st18" width="34.4" height="13.1"/>
		<g>
			
				<ellipse transform="matrix(0.7071 -0.7071 0.7071 0.7071 -171.5054 862.721)" class="st37" cx="955.6" cy="638.4" rx="16.5" ry="16.5"/>
			<path class="st38" d="M944,626.7c-1.4,1.4-2.5,3-3.3,4.8c6.1-2.8,13.6-1.7,18.6,3.3c5,5,6.1,12.5,3.3,18.6
				c1.7-0.8,3.3-1.9,4.8-3.3c6.4-6.4,6.4-16.9,0-23.4S950.4,620.3,944,626.7z"/>
		</g>
		
			<rect x="845.5" y="725.8" transform="matrix(0.7071 -0.7071 0.7071 0.7071 -265.1594 824.4983)" class="st18" width="34.4" height="13.1"/>
		<g>
			
				<ellipse transform="matrix(0.7071 -0.7071 0.7071 0.7071 -283.1811 816.4634)" class="st37" cx="844" cy="750.1" rx="16.5" ry="16.5"/>
			<path class="st38" d="M832.3,738.4c-1.4,1.4-2.5,3-3.3,4.8c6.1-2.8,13.6-1.7,18.6,3.3c5,5,6.1,12.5,3.3,18.6
				c1.7-0.8,3.3-1.9,4.8-3.3c6.4-6.4,6.4-16.9,0-23.4C849.2,731.9,838.7,731.9,832.3,738.4z"/>
		</g>
		<polygon class="st39" points="731.1,524.1 731.1,524.1 731.1,524.1 738.1,531.1 796,540.3 905.8,650.1 906.6,666.1 910.7,670.2 
			912.5,668.3 911.5,647.6 798.8,534.8 		"/>
		<polygon class="st40" points="857.1,698.8 747.3,589 738.1,531.1 738.1,531.1 731.1,524.1 731.1,524.1 731.1,524.1 741.8,591.8 
			854.6,704.5 875.3,705.6 877.2,703.7 873.1,699.6 		"/>
		<polygon class="st37" points="890,683 890,683 872.5,699 875.2,701.7 891.9,684.9 890,683 		"/>
		<polygon class="st37" points="890,683 890,683 891.9,684.9 908.7,668.2 906,665.5 890,683 		"/>
		<polygon class="st38" points="905.8,650.1 796,540.3 738.1,531.1 894.7,687.7 894.7,687.7 894.7,687.7 910.7,670.2 906.6,666.1 		
			"/>
		<polygon class="st37" points="894.7,687.7 894.7,687.7 738.1,531.1 738.1,531.1 747.3,589 857.1,698.8 873.1,699.6 877.2,703.7 
			894.7,687.7 		"/>
		<polygon class="st4" points="798.8,534.8 820.6,556.7 777.8,627.7 742.9,592.8 779.7,531.8 		"/>
		<polygon class="st4" points="797.9,647.8 840.8,576.8 884.8,620.9 841.9,691.9 		"/>
		<path class="st18" d="M999.9,779.9l-13.5,13.5c-6.1,6.1-15.9,6.1-22,0L886,715.1l35.5-35.5l78.3,78.3
			C1005.9,763.9,1005.9,773.8,999.9,779.9z"/>
		<path class="st41" d="M904.6,696.5l89.3,89.3l5.9-5.9c6.1-6.1,6.1-15.9,0-22l-78.3-78.3L904.6,696.5z"/>
		
			<rect x="867.6" y="660.6" transform="matrix(6.123234e-17 -1 1 6.123234e-17 207.0071 1594.8058)" class="st18" width="66.7" height="66.7"/>
		<path class="st42" d="M867.6,660.6v66.7h66.7v-66.7H867.6z M870.7,724.1l0-60.4l60.4,0l0,60.4L870.7,724.1z"/>
		<polygon class="st41" points="868.3,660.6 871.5,663.7 931.1,663.7 931.1,723.3 934.2,726.5 934.2,660.6 		"/>
		<g>
			<polygon class="st43" points="918.7,711.4 914.5,707.1 914.5,707.5 887.3,707.5 887.3,680.3 887.7,680.3 883.4,676.1 
				883.1,676.1 883.1,711.7 918.7,711.7 918.7,676.1 			"/>
			<polygon class="st38" points="914.5,680.3 914.5,707.1 918.7,711.4 918.7,676.1 883.4,676.1 887.7,680.3 			"/>
			<polygon class="st37" points="887.3,680.3 887.3,707.5 914.5,707.5 914.5,707.1 887.7,680.3 			"/>
			<polygon class="st37" points="887.7,680.3 914.5,707.1 914.5,680.3 			"/>
		</g>
	</g>
	<g>
		<polygon class="st2" points="1074.3,518.5 1086.6,579.9 1218,711.3 1236.6,708.2 1241.6,703.2 1245.2,699.6 1250.4,694.5 
			1082,526.1 1074.4,518.6 		"/>
		<path class="st37" d="M1296,702.1l11.9-11.9c26.3,1.9,43.6-33.3,43.6-33.3c-14.7,11.5-51-6.7-51-6.7l1.6,15.7l-16.3,16.3
			c-6.3,6.3-15.8,2.2-21.7-1.4l-27.4,27.4c3.6,5.9,7.7,15.4,1.4,21.7l-16.3,16.3l-15.7-1.6c0,0,18.3,36.2,6.7,51
			c0,0,35.3-17.3,33.3-43.6l11.9-11.9l11.9,1l41.1,41.1l0.3-0.2l-2.2-28.7l-0.1-0.1l0.1,0l0-0.1l0.1,0.1l28.7,2.2l0.2-0.4l-41-41
			L1296,702.1z"/>
		<polygon class="st37" points="1309.1,753.2 1309,753.1 1309,753.2 1309,753.2 1309,753.3 1311.2,781.9 1310.9,782.1 1311.2,782.4 
			1313.1,803.5 1359.4,803.5 1359.4,757.2 1338.3,755.3 1338,755 1337.8,755.4 		"/>
		<polygon class="st34" points="1320,764.1 1320,764.1 1320,764.1 1320,764.1 1320,764.2 1321.2,780.4 1321,780.5 1321.2,780.6 
			1322.3,792.6 1348.5,792.6 1348.5,766.4 1336.5,765.3 1336.3,765.1 1336.2,765.4 		"/>
		<path class="st38" d="M1300.5,650.2l1.6,15.7l-16.3,16.3c-6.3,6.3-15.8,2.2-21.7-1.4l-13.7,13.7l58.7,58.7l0,0l0-0.1l0.1,0.1
			l28.7,2.2l0.2-0.4l-41-41l-1-11.9l11.9-11.9c26.3,1.9,43.6-33.3,43.6-33.3C1336.7,668.4,1300.5,650.2,1300.5,650.2z"/>
		<polygon class="st38" points="1338.3,755.3 1338,755 1337.8,755.4 1309.1,753.2 1309,753.1 1309,753.2 1309,753.2 1359.4,803.5 
			1359.4,803.5 1359.4,757.2 		"/>
		<polygon class="st36" points="1336.5,765.3 1336.3,765.1 1336.2,765.4 1320,764.1 1320,764.1 1320,764.1 1320,764.1 1348.4,792.6 
			1348.5,792.6 1348.5,766.4 		"/>
		<polygon class="st1" points="1074.4,518.6 1082,526.1 1132.8,536.3 1260.7,664.2 1258.6,686.2 1264,680.8 1267.1,662.2 
			1135.7,530.8 		"/>
		<polygon class="st4" points="1092.1,577 1081.9,526.1 1082,526.1 1074.4,518.6 1074.3,518.5 1086.6,579.9 1218,711.3 
			1236.6,708.2 1241.6,703.2 1220,704.9 		"/>
		<polygon class="st3" points="1132.8,536.3 1082,526.1 1250.4,694.5 1255.4,689.4 1258.6,686.2 1260.7,664.2 		"/>
		<polygon class="st2" points="1081.9,526.1 1092.1,577 1220,704.9 1241.6,703.2 1245.2,699.6 1250.4,694.5 1082,526.1 		"/>
		<polygon class="st4" points="1135.7,530.8 1164.9,560 1138,631.3 1093.8,587.1 1116.5,527 		"/>
		<polygon class="st4" points="1168.8,662.1 1195.8,590.9 1232.1,627.2 1205.2,698.5 		"/>
		<polygon class="st38" points="1282.1,726.2 1256,700.1 1248.6,721.8 1260.2,733.3 1273.5,734.9 		"/>
		<polygon class="st37" points="1282.1,726.2 1256,700.1 1277.7,692.7 1289.2,704.3 1290.8,717.6 		"/>
		<g>
			<polygon class="st34" points="1279.3,723.5 1258.8,702.9 1252.9,720 1262.1,729 1272.6,730.3 			"/>
			<polygon class="st36" points="1279.3,723.5 1258.8,702.9 1275.9,697.1 1284.9,706.2 1286.1,716.7 			"/>
		</g>
	</g>
</g>
</svg>
