<?xml version="1.0" encoding="utf-8"?>
<svg id="master-artboard" viewBox="0 0 1400 980" xmlns="http://www.w3.org/2000/svg" width="1400px" height="980px" version="1.1" style="shape-rendering:geometricPrecision; text-rendering:geometricPrecision; image-rendering:optimizeQuality; fill-rule:evenodd; clip-rule:evenodd"><g transform="matrix(1, 0, 0, 1, 0, 0.0000023158363546826877)"><path d="M 0 0 H 1400 V 980 H 0 V 0 Z" class="st0" style="fill: rgb(255, 255, 255);"/><g>
	<path class="st1" d="M876.4,279.2c0,97.4-79,176.4-176.4,176.4s-175.8-79-176.4-176.4C523,184.1,602.4,103.2,700,102.7&#10;&#9;&#9;C797.4,102.3,876.4,181.7,876.4,279.2z" style="fill: rgb(224, 242, 241);"/>
	<g>
		<path class="st2" d="M876.3,286.1L775.1,184.9L624.9,347.3l105.6,105.6C811.2,438.9,873,370,876.3,286.1z" style="fill: rgb(178, 223, 219);"/>
	</g>
	<g>
		<path d="M 775.0999755859375 347.29998779296875 L 700 405.20001220703125 L 624.9000244140625 347.29998779296875 L 624.9000244140625 184.89999389648438 L 775.0999755859375 184.89999389648438 Z" class="st3" style="fill: rgb(144, 164, 174);"/>
		<path d="M 634.2000122070312 342.79998779296875 L 634.2000122070312 194.1999969482422 L 765.7999877929688 194.1999969482422 L 765.7999877929688 342.79998779296875 L 700 393.5 Z" class="st4" style="fill: rgb(207, 216, 220);"/>
		<g>
			<path d="M 643.5999755859375 194.1999969482422 L 643.5999755859375 350 L 653 357.29998779296875 L 653 194.1999969482422 Z" class="st5" style="fill: rgb(236, 239, 241);"/>
			<path d="M 662.4000244140625 194.1999969482422 L 662.4000244140625 364.5 L 671.7999877929688 371.79998779296875 L 671.7999877929688 194.1999969482422 Z" class="st5" style="fill: rgb(236, 239, 241);"/>
			<path d="M 681.2000122070312 194.1999969482422 L 681.2000122070312 379 L 690.5999755859375 386.29998779296875 L 690.5999755859375 194.1999969482422 Z" class="st5" style="fill: rgb(236, 239, 241);"/>
			<path d="M 700 194.1999969482422 L 700 393.5 L 709.4000244140625 386.29998779296875 L 709.4000244140625 194.1999969482422 Z" class="st5" style="fill: rgb(236, 239, 241);"/>
			<path d="M 718.7999877929688 194.1999969482422 L 718.7999877929688 379 L 728.2000122070312 371.79998779296875 L 728.2000122070312 194.1999969482422 Z" class="st5" style="fill: rgb(236, 239, 241);"/>
			<path d="M 737.5999755859375 194.1999969482422 L 737.5999755859375 364.5 L 747 357.29998779296875 L 747 194.1999969482422 Z" class="st5" style="fill: rgb(236, 239, 241);"/>
			<path d="M 756.4000244140625 350 L 765.7999877929688 342.79998779296875 L 765.7999877929688 194.1999969482422 L 756.4000244140625 194.1999969482422 Z" class="st5" style="fill: rgb(236, 239, 241);"/>
		</g>
	</g>
</g><g>
	<path d="M 1276.200043 279.200012 A 176.399994 176.399994 0 0 1 1099.800049 455.600006 A 176.399994 176.399994 0 0 1 923.400055 279.200012 A 176.399994 176.399994 0 0 1 1099.800049 102.800018 A 176.399994 176.399994 0 0 1 1276.200043 279.200012 Z" class="st6" style="fill: rgb(237, 231, 246);"/>
	<g>
		<path class="st7" d="M1273.9,308.1l-174-174l0,196.3l-75.9,18.1l38.2,38.2l-16,15.5l53.5,53.5c0.1,0,0.1,0,0.2,0&#10;&#9;&#9;&#9;C1187.4,455.6,1260.1,391.7,1273.9,308.1z" style="fill: rgb(209, 196, 233);"/>
	</g>
	<g>
		<g>
			<path class="st8" d="M1099.8,134L1099.8,134c-4.9,0-8.9,4-8.9,8.9V189h17.7v-46.1C1108.7,138,1104.7,134,1099.8,134z" style="fill: rgb(120, 144, 156);"/>
			<path d="M 1090.900024 189 H 1108.600025 V 309.800003 H 1090.900024 V 189 Z" class="st9" style="fill: rgb(176, 190, 197);"/>
			<path class="st4" d="M1115.9,197.9h-32.1c-3.5,0-6.3-2.8-6.3-6.3v-0.9c0-3.5,2.8-6.3,6.3-6.3h32.1c3.5,0,6.3,2.8,6.3,6.3v0.9&#10;&#9;&#9;&#9;&#9;C1122.2,195.1,1119.3,197.9,1115.9,197.9z" style="fill: rgb(207, 216, 220);"/>
			<g>
				<g>
					<path d="M 1088.199951171875 387.1000061035156 L 1099.800048828125 424.29998779296875 L 1111.4000244140625 387.1000061035156 Z" class="st8" style="fill: rgb(120, 144, 156);"/>
				</g>
			</g>
			<g>
				<g>
					<path d="M 1064.300048828125 367.6000061035156 L 1046.199951171875 402.1000061035156 L 1080.699951171875 384 Z" class="st8" style="fill: rgb(120, 144, 156);"/>
				</g>
				<g>
					<path d="M 1118.9000244140625 312.8999938964844 L 1153.5 294.79998779296875 L 1135.4000244140625 329.29998779296875 Z" class="st8" style="fill: rgb(120, 144, 156);"/>
				</g>
			</g>
			<g>
				<g>
					<path d="M 1061.0999755859375 336.79998779296875 L 1023.9000244140625 348.3999938964844 L 1061.0999755859375 360 Z" class="st8" style="fill: rgb(120, 144, 156);"/>
				</g>
				<g>
					<path d="M 1138.5 336.79998779296875 L 1175.699951171875 348.3999938964844 L 1138.5 360 Z" class="st8" style="fill: rgb(120, 144, 156);"/>
				</g>
			</g>
			<g>
				<g>
					<path d="M 1080.699951171875 312.8999938964844 L 1046.199951171875 294.79998779296875 L 1064.300048828125 329.29998779296875 Z" class="st8" style="fill: rgb(120, 144, 156);"/>
				</g>
				<g>
					<path d="M 1135.4000244140625 367.6000061035156 L 1153.5 402.1000061035156 L 1118.9000244140625 384 Z" class="st8" style="fill: rgb(120, 144, 156);"/>
				</g>
			</g>
			<path d="M 1144.20005 348.299988 A 44.400002 44.400002 0 0 1 1099.800049 392.699989 A 44.400002 44.400002 0 0 1 1055.400047 348.299988 A 44.400002 44.400002 0 0 1 1099.800049 303.899986 A 44.400002 44.400002 0 0 1 1144.20005 348.299988 Z" class="st3" style="fill: rgb(144, 164, 174);"/>
			<path d="M 1107.300049 348.299988 A 7.5 7.5 0 0 1 1099.800049 355.799988 A 7.5 7.5 0 0 1 1092.300049 348.299988 A 7.5 7.5 0 0 1 1099.800049 340.799988 A 7.5 7.5 0 0 1 1107.300049 348.299988 Z" class="st8" style="fill: rgb(120, 144, 156);"/>
			<g>
				<path d="M 1107.300049 322.799988 A 7.5 7.5 0 0 1 1099.800049 330.299988 A 7.5 7.5 0 0 1 1092.300049 322.799988 A 7.5 7.5 0 0 1 1099.800049 315.299988 A 7.5 7.5 0 0 1 1107.300049 322.799988 Z" class="st8" style="fill: rgb(120, 144, 156);"/>
				<path d="M 1107.300049 373.899994 A 7.5 7.5 0 0 1 1099.800049 381.399994 A 7.5 7.5 0 0 1 1092.300049 373.899994 A 7.5 7.5 0 0 1 1099.800049 366.399994 A 7.5 7.5 0 0 1 1107.300049 373.899994 Z" class="st8" style="fill: rgb(120, 144, 156);"/>
			</g>
			<g>
				<path d="M 1132.800049 348.299988 A 7.5 7.5 0 0 1 1125.300049 355.799988 A 7.5 7.5 0 0 1 1117.800049 348.299988 A 7.5 7.5 0 0 1 1125.300049 340.799988 A 7.5 7.5 0 0 1 1132.800049 348.299988 Z" class="st8" style="fill: rgb(120, 144, 156);"/>
				<path d="M 1081.800049 348.299988 A 7.5 7.5 0 0 1 1074.300049 355.799988 A 7.5 7.5 0 0 1 1066.800049 348.299988 A 7.5 7.5 0 0 1 1074.300049 340.799988 A 7.5 7.5 0 0 1 1081.800049 348.299988 Z" class="st8" style="fill: rgb(120, 144, 156);"/>
			</g>
		</g>
		<g>
			<path d="M 1090.900024 174.399994 H 1108.600025 V 177.699994 H 1090.900024 V 174.399994 Z" class="st10" style="fill: rgb(98, 128, 140);"/>
			<path d="M 1090.900024 164.699997 H 1108.600025 V 167.999997 H 1090.900024 V 164.699997 Z" class="st10" style="fill: rgb(98, 128, 140);"/>
			<path d="M 1090.900024 155 H 1108.600025 V 158.3 H 1090.900024 V 155 Z" class="st10" style="fill: rgb(98, 128, 140);"/>
			<path d="M 1090.900024 145.300003 H 1108.600025 V 148.600003 H 1090.900024 V 145.300003 Z" class="st10" style="fill: rgb(98, 128, 140);"/>
		</g>
	</g>
</g><g>
	<path d="M 476.600006 279.200012 A 176.399994 176.399994 0 0 1 300.200012 455.600006 A 176.399994 176.399994 0 0 1 123.800018 279.200012 A 176.399994 176.399994 0 0 1 300.200012 102.800018 A 176.399994 176.399994 0 0 1 476.600006 279.200012 Z" class="st11" style="fill: rgb(255, 235, 238);"/>
	<path class="st12" d="M476.6,279.2c0-6.1-0.3-12.2-0.9-18.1l-72.9-72.9l5.8,73.8l-56.2,56.7l-159.8,57.5l76.7,76.7&#10;&#9;&#9;c10.1,1.8,20.5,2.7,31,2.7c30.8,0,59.7-7.9,84.8-21.7l15.1-9.3C446.3,392.7,476.6,339.5,476.6,279.2z" style="fill: rgb(255, 205, 210);"/>
	<g>
		<g>
			<path class="st4" d="M244.4,305.6c-62-30.6-53.2-101.4-29.1-125.5c-60.7,14.1-63.4,129.6,19.6,156.9&#10;&#9;&#9;&#9;&#9;C241.9,321.4,244.4,305.6,244.4,305.6z" style="fill: rgb(207, 216, 220);"/>
			<path class="st4" d="M356,305.6c62-30.6,53.2-101.4,29.1-125.5c60.7,14.1,63.4,129.6-19.6,156.9C358.4,321.4,356,305.6,356,305.6&#10;&#9;&#9;&#9;&#9;z" style="fill: rgb(207, 216, 220);"/>
		</g>
		<path class="st3" d="M300.2,251.9c-56.6,0-102.6,45.9-102.6,102.6h205.1C402.7,297.8,356.8,251.9,300.2,251.9z" style="fill: rgb(144, 164, 174);"/>
		<g>
			<path class="st9" d="M285.9,250.6V361h28.5V250.6c0-3.3-2.7-5.9-5.9-5.9h-16.6C288.6,244.6,285.9,247.3,285.9,250.6z" style="fill: rgb(176, 190, 197);"/>
			<g>
				<path d="M 308.000012 264.299988 A 7.8 7.8 0 0 1 300.200012 272.099988 A 7.8 7.8 0 0 1 292.400012 264.299988 A 7.8 7.8 0 0 1 300.200012 256.499988 A 7.8 7.8 0 0 1 308.000012 264.299988 Z" class="st3" style="fill: rgb(144, 164, 174);"/>
				<path d="M 308.000012 302.799988 A 7.8 7.8 0 0 1 300.200012 310.599988 A 7.8 7.8 0 0 1 292.400012 302.799988 A 7.8 7.8 0 0 1 300.200012 294.999988 A 7.8 7.8 0 0 1 308.000012 302.799988 Z" class="st3" style="fill: rgb(144, 164, 174);"/>
				<path d="M 308.000012 341.399994 A 7.8 7.8 0 0 1 300.200012 349.199994 A 7.8 7.8 0 0 1 292.400012 341.399994 A 7.8 7.8 0 0 1 300.200012 333.599994 A 7.8 7.8 0 0 1 308.000012 341.399994 Z" class="st3" style="fill: rgb(144, 164, 174);"/>
			</g>
		</g>
		<path class="st9" d="M403,378.2H197.3c-3.9,0-7-3.1-7-7v-14.5c0-3.9,3.1-7,7-7H403c3.9,0,7,3.1,7,7v14.5&#10;&#9;&#9;&#9;C410,375,406.9,378.2,403,378.2z" style="fill: rgb(176, 190, 197);"/>
		<g>
			<path d="M 223.900006 363.899994 A 7.8 7.8 0 0 1 216.100006 371.699994 A 7.8 7.8 0 0 1 208.300006 363.899994 A 7.8 7.8 0 0 1 216.100006 356.099994 A 7.8 7.8 0 0 1 223.900006 363.899994 Z" class="st3" style="fill: rgb(144, 164, 174);"/>
			<path d="M 266.000012 363.899994 A 7.8 7.8 0 0 1 258.200012 371.699994 A 7.8 7.8 0 0 1 250.400012 363.899994 A 7.8 7.8 0 0 1 258.200012 356.099994 A 7.8 7.8 0 0 1 266.000012 363.899994 Z" class="st3" style="fill: rgb(144, 164, 174);"/>
			<path d="M 308.000012 363.899994 A 7.8 7.8 0 0 1 300.200012 371.699994 A 7.8 7.8 0 0 1 292.400012 363.899994 A 7.8 7.8 0 0 1 300.200012 356.099994 A 7.8 7.8 0 0 1 308.000012 363.899994 Z" class="st3" style="fill: rgb(144, 164, 174);"/>
			<path d="M 350.000012 363.899994 A 7.8 7.8 0 0 1 342.200012 371.699994 A 7.8 7.8 0 0 1 334.400012 363.899994 A 7.8 7.8 0 0 1 342.200012 356.099994 A 7.8 7.8 0 0 1 350.000012 363.899994 Z" class="st3" style="fill: rgb(144, 164, 174);"/>
			<path d="M 392.099988 363.899994 A 7.8 7.8 0 0 1 384.299988 371.699994 A 7.8 7.8 0 0 1 376.499988 363.899994 A 7.8 7.8 0 0 1 384.299988 356.099994 A 7.8 7.8 0 0 1 392.099988 363.899994 Z" class="st3" style="fill: rgb(144, 164, 174);"/>
		</g>
	</g>
	<g>
		<path class="st13" d="M385,433.9c5.2-2.9,10.2-6,15.1-9.3L385,433.9z" style="fill: rgb(251, 233, 231);"/>
	</g>
</g><g>
	<path d="M 476.600006 700.799988 A 176.399994 176.399994 0 0 1 300.200012 877.199982 A 176.399994 176.399994 0 0 1 123.800018 700.799988 A 176.399994 176.399994 0 0 1 300.200012 524.399994 A 176.399994 176.399994 0 0 1 476.600006 700.799988 Z" class="st14" style="fill: rgb(255, 243, 224);"/>
	<g>
		<path class="st15" d="M476.6,700.8c0-5.7-0.3-11.4-0.8-17l-79.3-79.3L204.8,781.7l95.5,95.5C397.7,877.2,476.6,798.2,476.6,700.8z&#10;&#9;&#9;&#9;" style="fill: rgb(255, 224, 178);"/>
	</g>
	<g>
		<g>
			<path class="st3" d="M247.5,734.8l-42.7,42.7c-1.2,1.2-1.2,3,0,4.2l14.5,14.5c1.2,1.2,3,1.2,4.2,0l42.7-42.7L247.5,734.8z" style="fill: rgb(144, 164, 174);"/>
			<path d="M 396.5 604.5999755859375 L 368.70001220703125 613.5999755859375 L 257.3999938964844 724.9000244140625 L 265.6000061035156 735.4000244140625 L 276.1000061035156 743.7000122070312 L 387.3999938964844 632.4000244140625 Z" class="st4" style="fill: rgb(207, 216, 220);"/>
			<path class="st9" d="M285.8,750.5c-1.5-1.5-3.4-2.3-5.3-2.5L253,720.6c-0.2-1.9-1-3.8-2.5-5.3c-3.4-3.4-8.9-3.4-12.3,0&#10;&#9;&#9;&#9;&#9;c-3.4,3.4-3.4,8.9,0,12.3c1.3,1.3,2.9,2.1,4.5,2.4l28.3,28.3c0.3,1.7,1.1,3.2,2.4,4.5c3.4,3.4,8.9,3.4,12.3,0&#10;&#9;&#9;&#9;&#9;C289.2,759.5,289.2,753.9,285.8,750.5z" style="fill: rgb(176, 190, 197);"/>
			
				<path d="M 237.600006 747.400024 H 264.100006 V 753.000024 H 237.600006 V 747.400024 Z" transform="matrix(0.7071 0.7071 -0.7071 0.7071 603.9171 42.3202)" class="st8" style="fill: rgb(120, 144, 156);"/>
			
				<path d="M 229.800003 755.200012 H 256.300003 V 760.800012 H 229.800003 V 755.200012 Z" transform="matrix(0.7071 0.7071 -0.7071 0.7071 607.1553 50.1379)" class="st8" style="fill: rgb(120, 144, 156);"/>
			
				<path d="M 222 763 H 248.5 V 768.6 H 222 V 763 Z" transform="matrix(0.7071 0.7071 -0.7071 0.7071 610.3935 57.9557)" class="st8" style="fill: rgb(120, 144, 156);"/>
			
				<path d="M 214.199997 770.799988 H 240.699997 V 776.399988 H 214.199997 V 770.799988 Z" transform="matrix(0.7071 0.7071 -0.7071 0.7071 613.6317 65.7734)" class="st8" style="fill: rgb(120, 144, 156);"/>
			
				<path d="M 206.399994 778.599976 H 232.899994 V 784.199975 H 206.399994 V 778.599976 Z" transform="matrix(0.7071 0.7071 -0.7071 0.7071 616.8699 73.5912)" class="st8" style="fill: rgb(120, 144, 156);"/>
		</g>
		<g>
			<path class="st3" d="M352.9,734.8l42.7,42.7c1.2,1.2,1.2,3,0,4.2l-14.5,14.5c-1.2,1.2-3,1.2-4.2,0l-42.7-42.7L352.9,734.8z" style="fill: rgb(144, 164, 174);"/>
			<path d="M 203.89999389648438 604.5999755859375 L 231.6999969482422 613.5999755859375 L 343 724.9000244140625 L 334.79998779296875 735.4000244140625 L 324.29998779296875 743.7000122070312 L 213 632.4000244140625 Z" class="st16" style="fill: rgb(225, 230, 234);"/>
			<path class="st9" d="M314.6,750.5c1.5-1.5,3.4-2.3,5.3-2.5l27.4-27.4c0.2-1.9,1-3.8,2.5-5.3c3.4-3.4,8.9-3.4,12.3,0&#10;&#9;&#9;&#9;&#9;c3.4,3.4,3.4,8.9,0,12.3c-1.3,1.3-2.9,2.1-4.5,2.4l-28.3,28.3c-0.3,1.7-1.1,3.2-2.4,4.5c-3.4,3.4-8.9,3.4-12.3,0&#10;&#9;&#9;&#9;&#9;C311.2,759.5,311.2,753.9,314.6,750.5z" style="fill: rgb(176, 190, 197);"/>
			
				<path d="M 336.299988 747.400024 H 362.799988 V 753.000024 H 336.299988 V 747.400024 Z" transform="matrix(-0.7071 0.7071 -0.7071 -0.7071 1127.0739 1033.4557)" class="st8" style="fill: rgb(120, 144, 156);"/>
			
				<path d="M 344.100006 755.200012 H 370.600006 V 760.800012 H 344.100006 V 755.200012 Z" transform="matrix(-0.7071 0.7071 -0.7071 -0.7071 1145.9476 1041.2734)" class="st8" style="fill: rgb(120, 144, 156);"/>
			
				<path d="M 351.899994 763 H 378.399994 V 768.6 H 351.899994 V 763 Z" transform="matrix(-0.7071 0.7071 -0.7071 -0.7071 1164.8213 1049.0912)" class="st8" style="fill: rgb(120, 144, 156);"/>
			
				<path d="M 359.700012 770.799988 H 386.200012 V 776.399988 H 359.700012 V 770.799988 Z" transform="matrix(-0.7071 0.7071 -0.7071 -0.7071 1183.6951 1056.9089)" class="st8" style="fill: rgb(120, 144, 156);"/>
			
				<path d="M 367.5 778.599976 H 394 V 784.199975 H 367.5 V 778.599976 Z" transform="matrix(-0.7071 0.7071 -0.7071 -0.7071 1202.5687 1064.7267)" class="st8" style="fill: rgb(120, 144, 156);"/>
		</g>
	</g>
</g><g>
	<path d="M 876.399994 700.799988 A 176.399994 176.399994 0 0 1 700 877.199982 A 176.399994 176.399994 0 0 1 523.600006 700.799988 A 176.399994 176.399994 0 0 1 700 524.399994 A 176.399994 176.399994 0 0 1 876.399994 700.799988 Z" class="st17" style="fill: rgb(224, 247, 250);"/>
	<g>
		<path class="st18" d="M876.4,700.8c0-8.4-0.6-16.6-1.7-24.7L771.6,573.1l-10.9,50.7l-49.6-49.6L700,597.9l-9.3,32.2l-3.1,2.2&#10;&#9;&#9;&#9;l-59.2-59.2l-7.9,31.5l36.5,43.3h8.6l-37.2,26.2v48.6l74.7,74.7l-16.5,27.8l48.6,48.6C815.7,857.4,876.4,786.2,876.4,700.8z" style="fill: rgb(178, 235, 242);"/>
	</g>
	<g>
		<g>
			<path class="st16" d="M628.4,573.1c-22.6,14.2-38.7,45.8-38.7,74.8s16.1,60.6,38.7,74.8c17.3-37.4,71.6-43.9,71.6-43.9v-30.9&#10;&#9;&#9;&#9;&#9;v-30.9C700,616.9,645.7,610.5,628.4,573.1z" style="fill: rgb(225, 230, 234);"/>
			<path class="st16" d="M771.6,573.1c22.6,14.2,38.7,45.8,38.7,74.8s-16.1,60.6-38.7,74.8c-17.3-37.4-71.6-43.9-71.6-43.9v-30.9&#10;&#9;&#9;&#9;&#9;v-30.9C700,616.9,754.3,610.5,771.6,573.1z" style="fill: rgb(225, 230, 234);"/>
		</g>
		<path class="st9" d="M707.4,828.6h-14.8c-3.9,0-7-3.1-7-7V580.1c0-3.9,3.1-7,7-7h14.8c3.9,0,7,3.1,7,7v241.6&#10;&#9;&#9;&#9;C714.4,825.5,711.3,828.6,707.4,828.6z" style="fill: rgb(176, 190, 197);"/>
		<path d="M 685.599976 797.099976 H 714.399975 V 803.699975 H 685.599976 V 797.099976 Z" class="st3" style="fill: rgb(144, 164, 174);"/>
		<path d="M 685.599976 781.400024 H 714.399975 V 788.000024 H 685.599976 V 781.400024 Z" class="st3" style="fill: rgb(144, 164, 174);"/>
		<path d="M 685.599976 765.700012 H 714.399975 V 772.300012 H 685.599976 V 765.700012 Z" class="st3" style="fill: rgb(144, 164, 174);"/>
		<path d="M 685.599976 750 H 714.399975 V 756.6 H 685.599976 V 750 Z" class="st3" style="fill: rgb(144, 164, 174);"/>
		<path d="M 685.599976 734.299988 H 714.399975 V 740.899988 H 685.599976 V 734.299988 Z" class="st3" style="fill: rgb(144, 164, 174);"/>
		<path d="M 685.599976 718.700012 H 714.399975 V 725.300012 H 685.599976 V 718.700012 Z" class="st3" style="fill: rgb(144, 164, 174);"/>
		<path d="M 685.599976 703 H 714.399975 V 709.6 H 685.599976 V 703 Z" class="st3" style="fill: rgb(144, 164, 174);"/>
	</g>
</g><g>
	<path d="M 1276.200043 700.799988 A 176.399994 176.399994 0 0 1 1099.800049 877.199982 A 176.399994 176.399994 0 0 1 923.400055 700.799988 A 176.399994 176.399994 0 0 1 1099.800049 524.399994 A 176.399994 176.399994 0 0 1 1276.200043 700.799988 Z" class="st19" style="fill: rgb(227, 242, 253);"/>
	<g>
		<path class="st20" d="M1276.2,700.8c0-9-0.7-17.9-2-26.5l-75.7-75.7l-92.5,92.5l-71.5-71.5l-16,16l73.3,73.3l-90.3,90.3l76.8,76.8&#10;&#9;&#9;&#9;c7,0.8,14.2,1.3,21.4,1.3C1197.2,877.3,1276.2,798.3,1276.2,700.8z" style="fill: rgb(187, 222, 251);"/>
	</g>
	<g>
		<g>
			<path class="st4" d="M1021.8,789.6l-9.6,9.6c-3,3-7.8,3-10.7,0v0c-3-3-3-7.8,0-10.7l9.6-9.6L1021.8,789.6z" style="fill: rgb(207, 216, 220);"/>
			<path class="st16" d="M1145.2,646.4l9.1,9.1c27-8.8,34.3-33.3,46-55.1C1178.5,612.1,1154,619.4,1145.2,646.4z" style="fill: rgb(225, 230, 234);"/>
			
				<path d="M 1132.400024 650.099976 H 1153.500025 V 665.299975 H 1132.400024 V 650.099976 Z" transform="matrix(0.7071 -0.7071 0.7071 0.7071 -130.2785 1000.8339)" class="st3" style="fill: rgb(144, 164, 174);"/>
			
				<path d="M 991.799988 717.099976 H 1160.199982 V 732.299975 H 991.799988 V 717.099976 Z" transform="matrix(0.7071 -0.7071 0.7071 0.7071 -197.2663 973.0867)" class="st21" style="fill: rgb(164, 181, 188);"/>
		</g>
		<g>
			<path class="st4" d="M1177.8,789.6l9.6,9.6c3,3,7.8,3,10.7,0v0c3-3,3-7.8,0-10.7l-9.6-9.6L1177.8,789.6z" style="fill: rgb(207, 216, 220);"/>
			<path class="st16" d="M1054.4,646.4l-9.1,9.1c-27-8.8-34.3-33.3-46-55.1C1021.1,612.1,1045.6,619.4,1054.4,646.4z" style="fill: rgb(225, 230, 234);"/>
			
				<path d="M 1046.099976 650.099976 H 1067.199976 V 665.299975 H 1046.099976 V 650.099976 Z" transform="matrix(-0.7071 -0.7071 0.7071 -0.7071 1338.7682 1869.89)" class="st3" style="fill: rgb(144, 164, 174);"/>
			
				<path d="M 1039.400024 717.099976 H 1207.800018 V 732.299975 H 1039.400024 V 717.099976 Z" transform="matrix(-0.7071 -0.7071 0.7071 -0.7071 1405.756 2031.6128)" class="st9" style="fill: rgb(176, 190, 197);"/>
		</g>
	</g>
</g></g></svg>