<?xml version="1.0" encoding="utf-8"?>
<!-- Generator: Adobe Illustrator 25.0.0, SVG Export Plug-In . SVG Version: 6.00 Build 0)  -->
<svg version="1.1" id="Camada_1" xmlns="http://www.w3.org/2000/svg" xmlns:xlink="http://www.w3.org/1999/xlink" x="0px" y="0px"
	 viewBox="0 0 430 430" style="enable-background:new 0 0 430 430;" xml:space="preserve">
<style type="text/css">
	.st0{fill:#CFCBCD;}
	.st1{fill:#BEB9B5;}
	.st2{fill:#705E87;}
	.st3{fill:#41413F;stroke:#020203;stroke-width:1.000000e-02;stroke-miterlimit:10;}
	.st4{fill:#5A4394;stroke:#020203;stroke-width:0.3;stroke-miterlimit:10;}
	.st5{fill:none;}
	.st6{fill:none;stroke:#020203;stroke-width:0.1;stroke-miterlimit:10;}
	.st7{fill:#5A4394;stroke:#020203;stroke-width:0.1;stroke-miterlimit:10;}
	.st8{fill:#5A4394;stroke:#020203;stroke-width:0.2;stroke-miterlimit:10;}
	.st9{fill:#B39FCC;stroke:#020203;stroke-width:0.1;stroke-miterlimit:10;}
	.st10{fill:#72557E;}
</style>
<circle class="st0" cx="214.9" cy="214.8" r="205"/>
<polygon class="st1" points="261.5,184.6 255.1,178.3 255.1,184.6 255.1,190.9 261.5,190.9 261.5,190.9 267.8,190.9 "/>
<polygon class="st1" points="242.6,185.9 248.9,185.9 248.9,184.6 242.6,178.3 "/>
<polygon class="st1" points="136.7,74.3 241.6,178.3 241.6,210.1 136.7,210.1 "/>
<path class="st1" d="M274.1,292.2L58.5,324.9l81.5,80.8c23.2,9.1,48.5,14.1,74.9,14.1c113.2,0,205-91.8,205-205
	c0-4.6-0.2-9.2-0.5-13.7L291.6,74.3L274.1,292.2z"/>
<polygon class="st2" points="58.5,220.1 107.8,220.1 107.8,179.9 116.2,179.9 116.2,128.2 136.7,74.3 156.4,128.2 156.4,179.9 
	164.8,179.9 164.8,198.1 262.7,198.1 262.7,179.9 271.1,179.9 271.1,128.2 291.6,74.3 311.3,128.2 311.3,179.9 319.7,179.9 
	319.7,220.1 369,220.1 369,324.9 58.5,324.9 "/>
<path class="st3" d="M241.8,324.8c0,0,1.6-46.2-27.8-46.2s-27.8,46.2-27.8,46.2H186l28,0.1l28-0.1H241.8z"/>
<g>
	<path class="st4" d="M130.6,236.3c0.4,0.3,0.6,0.8,0.6,1.4c0,0.6,0,1.4-0.1,2.2c-0.1,0.8-0.1,1.5,0.1,2.1c0.1,1.9,0.1,4.1-0.1,6.7
		c-0.2,2.6-0.1,5.1,0.2,7.4c0.3,2.3,1.1,4.2,2.3,5.7c1.2,1.5,3.2,2,6.1,1.7c1.1-0.4,1.8-1.3,2.1-2.6c0.3-1.3,0.4-2.8,0.3-4.4
		c-0.1-1.6-0.2-3.3-0.3-5c-0.1-1.7,0-3.2,0.3-4.5c-0.5-1.3-0.2-2.9,1-4.6c1.1-1.7,2.5-3.1,4-4.2c1.5-1.1,3-1.6,4.3-1.6
		c1.3,0,1.9,1.2,1.8,3.4c0.2,2.2,0.2,4.5,0,7c-0.2,2.5-0.3,4.9-0.3,7.3c0,2.4,0.2,4.6,0.7,6.7c0.5,2.1,1.6,3.8,3.2,5.2
		c-0.2,1.3-0.9,2.1-2.1,2.3c-1.2,0.3-2.6,0.3-4.2,0.2c-1.6-0.1-3.2-0.3-4.9-0.5c-1.7-0.2-3.1-0.1-4.2,0.2c-2.5,0.3-5.2,0.3-8.1-0.1
		c-2.9-0.3-5.5-1.1-7.7-2.2c-2.3-1.2-4-2.8-5.1-4.9c-1.1-2.1-1.2-4.7-0.3-7.9c-0.4-2.2-0.5-4.2-0.3-6c0.2-1.7,0.6-3.3,1.3-4.6
		c0.7-1.3,1.7-2.5,2.9-3.6c1.2-1,2.7-2,4.4-2.9C129.5,236,130.2,236,130.6,236.3z"/>
	<path class="st4" d="M174.4,237.1c1.3-0.2,2.5-0.2,3.6-0.2c1.2,0,2.1,0.3,2.9,0.8c0.8,0.5,1.2,1.5,1.1,3c1.6-1,3.2-2,4.7-2.9
		c1.5-0.9,3.1-1.5,4.9-1.7c1.7-0.2,3.7,0.2,5.8,1.1c2.2,0.9,4.7,2.8,7.6,5.5c0.1,0.1,0.3,0.3,0.5,0.4c0.3,0.2,0.5,0.3,0.7,0.5
		s0.4,0.3,0.6,0.5c0.2,0.2,0.2,0.3,0.1,0.5c-0.9,1.7-2,2.6-3.3,2.7c-1.3,0.1-2.6-0.2-4-0.9c-1.4-0.6-2.8-1.4-4.2-2.2
		c-1.4-0.8-2.7-1.2-3.9-1.3c-1.3,0-2.3,0.4-2.9,1c-0.7,0.6-1.1,1.5-1.4,2.6c-0.3,1.1-0.4,2.4-0.4,3.8c0,1.5,0,3.1,0,4.8
		c0,1.7,0,3.3,0.1,4.7c0.1,1.4,0.1,2.7,0.1,3.8c-0.1,1.1-0.2,2-0.5,2.8c-0.3,0.8-0.8,1.3-1.6,1.7c-0.8,2.4-2.3,3.8-4.5,4.3
		c-2.3,0.5-4.2,0.5-6,0.1c-1.7-0.4-2.7-1.1-2.9-2c-0.2-0.9,1.4-1.5,4.8-1.8v-20.6c-0.9-0.3-1.8-0.8-2.5-1.4c-0.8-0.6-1.4-1.4-2-2.3
		c-0.5-0.9-0.9-2-1-3.2c-0.2-1.2-0.1-2.6,0.2-4.2C172,237.2,173.1,237.2,174.4,237.1z"/>
	<path class="st4" d="M248.2,236c1.7-0.2,3.1,0.2,4.1,1.1c1,1,1.7,2.3,2.3,3.9c0.5,1.6,0.8,3.3,1,5.1c0.1,1.8,0.2,3.5,0.2,4.9
		c0.7,3.9,0.5,6.9-0.9,8.9c-1.3,2.1-3.2,3.6-5.6,4.6c-2.4,1-5,1.7-7.9,2.1c-2.9,0.4-5.5,0.8-7.9,1.4c1.1,3,0.8,5.1-1.1,6.3
		c-1.9,1.2-3.8,1.9-5.9,1.9c-2.1,0-3.5-0.5-4.4-1.4c-0.9-1,0.2-2.2,3.3-3.6c0.5-1.7,0.8-3.4,0.9-5.2c0.1-1.7,0.2-3.5,0.2-5.3
		c0-1.8,0-3.6-0.1-5.4c0-1.8,0-3.6,0.1-5.3c-0.4-1.8-0.5-3.3-0.3-4.6c0.3-1.2,0.7-2.3,1.3-3.3c0.6-1,1.3-1.9,2.1-2.9
		c0.8-1,1.5-2.1,2.2-3.3C237.2,236,242.7,236,248.2,236z M237.1,246.1c-0.3,1.6-0.5,3.6-0.5,6.1c0,2.5,0.2,4.6,0.7,6.4
		c0.5,1.8,1.4,2.9,2.6,3.2c1.2,0.4,2.9-0.7,5-3.3c0.9-1.6,1.5-3.5,1.7-5.8c0.2-2.3,0.1-4.3-0.5-6.3c-0.6-1.9-1.6-3.5-3-4.7
		c-1.4-1.2-3.4-1.5-5.8-1C237.2,242.6,237.1,244.3,237.1,246.1z"/>
	<path class="st4" d="M93.3,236c1.7-0.2,3.1,0.2,4.1,1.1c1,1,1.7,2.3,2.3,3.9c0.5,1.6,0.8,3.3,1,5.1c0.1,1.8,0.2,3.5,0.2,4.9
		c0.7,3.9,0.5,6.9-0.9,8.9c-1.3,2.1-3.2,3.6-5.6,4.6c-2.4,1-5,1.7-7.9,2.1c-2.9,0.4-5.5,0.8-7.9,1.4c1.1,3,0.8,5.1-1.1,6.3
		c-1.9,1.2-3.8,1.9-5.9,1.9c-2.1,0-3.5-0.5-4.4-1.4c-0.9-1,0.2-2.2,3.3-3.6c0.5-1.7,0.8-3.4,0.9-5.2c0.1-1.7,0.2-3.5,0.2-5.3
		c0-1.8,0-3.6-0.1-5.4c0-1.8,0-3.6,0.1-5.3c-0.4-1.8-0.5-3.3-0.3-4.6c0.3-1.2,0.7-2.3,1.3-3.3c0.6-1,1.3-1.9,2.1-2.9
		c0.8-1,1.5-2.1,2.2-3.3C82.3,236,87.8,236,93.3,236z M82.2,246.1c-0.3,1.6-0.5,3.6-0.5,6.1c0,2.5,0.2,4.6,0.7,6.4
		c0.5,1.8,1.4,2.9,2.6,3.2c1.2,0.4,2.9-0.7,5-3.3c0.9-1.6,1.5-3.5,1.7-5.8c0.2-2.3,0.1-4.3-0.5-6.3c-0.6-1.9-1.6-3.5-3-4.7
		c-1.4-1.2-3.4-1.5-5.8-1C82.3,242.6,82.2,244.3,82.2,246.1z"/>
	<path class="st4" d="M285.8,266.4c0-13.4,0-26.8,0-40.2c1.8-1.1,3.5-2.1,5.1-3.2c1.7-1.1,3.1-1.7,4.2-1.9c1.2-0.2,2,0.3,2.5,1.5
		c0.5,1.2,0.5,3.4-0.1,6.8c0.1,3.1,0.1,6.2,0,9.3c-0.1,3.1-0.2,6.2-0.2,9.3c-0.1,3.1,0,6.2,0,9.2c0.1,3.1,0.3,6.1,0.7,9.2
		c4,2.3,5.8,3.8,5.4,4.7c-0.4,0.9-1.8,1.2-4.1,1c-2.3-0.2-4.9-0.8-7.8-1.8C288.7,269.2,286.7,267.9,285.8,266.4L285.8,266.4z"/>
	<path class="st4" d="M345.9,236.7c4.1-1.4,7.6-1.2,10.6,0.7c3,1.9,4.9,4.4,5.9,7.3c1,2.9,0.7,5.7-0.7,8.4c-1.5,2.7-4.5,4.1-9.2,4.3
		c-1.4-0.1-3.3-0.2-5.7-0.2c-2.4,0-4.4,0.2-6,0.6c-1.7,0.4-2.6,1-2.8,1.9c-0.2,0.9,1.2,2.2,4.1,3.9c1.2,0.7,2.9,1,5.1,0.7
		c2.2-0.3,4.3-0.5,6.3-0.7c2-0.2,3.7,0,5,0.5c1.3,0.5,1.8,1.9,1.3,4.3c-7.7,0-15.3,0-23,0c-1.4-0.2-2.7-0.6-3.9-1.3
		c-1.3-0.7-2.4-1.5-3.3-2.6c-0.9-1-1.6-2.3-2.1-3.7c-0.5-1.4-0.6-2.9-0.3-4.6c-0.1-1.9,0-4,0.3-6.2c0.3-2.2,1-4.3,1.8-6.2
		s2-3.6,3.5-4.9c1.5-1.3,3.2-2.1,5.3-2.2C340.8,236.7,343.4,236.7,345.9,236.7z M342.2,244.7c-1.8,1.4-3.2,3.2-4.1,5.2
		c0.1,2.5,1.4,3.8,3.9,3.7c2.5,0,4.8-0.7,7-2c2.2-1.3,3.5-3,4-5c0.5-2-1.1-3.8-4.9-5.3C346,242.1,344,243.2,342.2,244.7z"/>
</g>
<polyline class="st5" points="164.8,185.9 172.4,185.9 172.4,178.3 180,178.3 180,185.9 184.9,185.9 184.9,178.3 192.5,178.3 
	192.5,185.9 197.4,185.9 197.4,178.3 205,178.3 205,185.9 210,185.9 210,178.3 217.6,178.3 217.6,185.9 222.5,185.9 222.5,178.3 
	230.1,178.3 230.1,185.9 235,185.9 235,178.3 242.6,178.3 242.6,185.9 247.5,185.9 247.5,178.3 255.1,178.3 255.1,185.9 
	262.7,185.9 "/>
<polyline class="st5" points="319.7,208 319.7,200.4 327.3,200.4 327.3,208 333.6,208 333.6,200.4 341.2,200.4 341.2,208 347.5,208 
	347.5,200.4 355.1,200.4 355.1,208 361.4,208 361.4,200.4 369,200.4 369,208 369,220.1 "/>
<polyline class="st5" points="107.8,208 107.8,200.4 100.2,200.4 100.2,208 93.9,208 93.9,200.4 86.3,200.4 86.3,208 80,208 
	80,200.4 72.4,200.4 72.4,208 66.1,208 66.1,200.4 58.5,200.4 58.5,208 58.5,220.1 "/>
<line class="st6" x1="107.8" y1="220.1" x2="107.8" y2="324.9"/>
<line class="st6" x1="319.7" y1="220.1" x2="319.7" y2="324.9"/>
<line class="st6" x1="262.7" y1="198.1" x2="262.7" y2="324.9"/>
<line class="st7" x1="164.8" y1="198.1" x2="164.8" y2="324.9"/>
<path class="st8" d="M281,170c0,0,0.8,1.5,0.8,3c0,0-1.5,0.8-3.8,0.8h-3.8c0,0-0.8-0.8-0.8-3C273.4,170.8,273.4,170,281,170z"/>
<path class="st8" d="M274.1,164.7c0,0-0.8-1.5-0.8-3c0,0,1.5-0.8,3.8-0.8h3.8c0,0,0.8,0.8,0.8,3
	C281.7,163.9,281.7,164.7,274.1,164.7z"/>
<path class="st8" d="M285.5,166.2c0,0-3.8-1.5-12.1,0c0,0-0.8,2.3,0,3c0,0,8.4-0.8,11.4,0C284.8,169.2,285.5,169.2,285.5,166.2z"/>
<path class="st8" d="M287,167.7c0,0,0,3-4.6,3c0,0,0,1.5,0.8,3c0,0,5.3,0,6.1-0.8c0,0,0.8-1.5,0.8-5.3
	C290.1,167.7,288.5,167,287,167.7z"/>
<path class="st8" d="M147.2,164.7c0,0-0.8-1.5-0.8-3c0,0,1.5-0.8,3.8-0.8h3.8c0,0,0.8,0.8,0.8,3
	C154.8,163.9,154.8,164.7,147.2,164.7z"/>
<path class="st8" d="M154,170c0,0,0.8,1.5,0.8,3c0,0-1.5,0.8-3.8,0.8h-3.8c0,0-0.8-0.8-0.8-3C146.4,170.8,146.4,170,154,170z"/>
<path class="st8" d="M142.6,168.5c0,0,3.8,1.5,12.1,0c0,0,0.8-2.3,0-3c0,0-8.4,0.8-11.4,0C143.4,165.4,142.6,165.4,142.6,168.5z"/>
<path class="st8" d="M141.1,167c0,0,0-3,4.6-3c0,0,0-1.5-0.8-3c0,0-5.3,0-6.1,0.8c0,0-0.8,1.5-0.8,5.3
	C138.1,167,139.6,167.7,141.1,167z"/>
<path class="st8" d="M175.4,228.5c0,0,0.8,1.5,0.8,3c0,0-1.5,0.8-3.8,0.8h-3.8c0,0-0.8-0.8-0.8-3
	C167.8,229.2,167.8,228.5,175.4,228.5z"/>
<path class="st8" d="M192.9,223.9c0,0,0.8,1.5,0.8,3c0,0-1.5,0.8-3.8,0.8H186c0,0-0.8-0.8-0.8-3
	C185.3,224.7,185.3,223.9,192.9,223.9z"/>
<path class="st8" d="M168.6,223.1c0,0-0.8-1.5-0.8-3c0,0,1.5-0.8,3.8-0.8h3.8c0,0,0.8,0.8,0.8,3
	C176.2,222.4,176.2,223.1,168.6,223.1z"/>
<path class="st8" d="M180,224.7c0,0-3.8-1.5-12.1,0c0,0-0.8,2.3,0,3c0,0,8.4-0.8,11.4,0C179.2,227.7,180,227.7,180,224.7z"/>
<path class="st8" d="M189.8,220.1c0,0-3.8-1.5-12.1,0c0,0-0.8,2.3,0,3c0,0,8.4-0.8,11.4,0C189.1,223.1,189.8,223.1,189.8,220.1z"/>
<path class="st8" d="M184.9,231.6c0,0,3.8,1.5,12.1,0c0,0,0.8-2.3,0-3c0,0-8.4,0.8-11.4,0C185.7,228.5,184.9,228.5,184.9,231.6z"/>
<path class="st8" d="M126.6,141.9c0,0-0.8,1.5-0.8,3c0,0,1.5,0.8,3.8,0.8h3.8c0,0,0.8-0.8,0.8-3
	C134.2,142.7,134.2,141.9,126.6,141.9z"/>
<path class="st8" d="M133.4,136.6c0,0,0.8-1.5,0.8-3c0,0-1.5-0.8-3.8-0.8h-3.8c0,0-0.8,0.8-0.8,3
	C125.8,135.8,125.8,136.6,133.4,136.6z"/>
<path class="st8" d="M122,138.1c0,0,3.8-1.5,12.1,0c0,0,0.8,2.3,0,3c0,0-8.4-0.8-11.4,0C122.8,141.1,122,141.1,122,138.1z"/>
<path class="st8" d="M120.5,139.6c0,0,0,3,4.6,3c0,0,0,1.5-0.8,3c0,0-5.3,0-6.1-0.8c0,0-0.8-1.5-0.8-5.3
	C117.5,139.6,119,138.9,120.5,139.6z"/>
<path class="st8" d="M301,136.6c0,0,0.8-1.5,0.8-3c0,0-1.5-0.8-3.8-0.8h-3.8c0,0-0.8,0.8-0.8,3C293.4,135.8,293.4,136.6,301,136.6z"
	/>
<path class="st8" d="M294.2,141.9c0,0-0.8,1.5-0.8,3c0,0,1.5,0.8,3.8,0.8h3.8c0,0,0.8-0.8,0.8-3
	C301.7,142.7,301.7,141.9,294.2,141.9z"/>
<path class="st8" d="M305.5,140.4c0,0-3.8,1.5-12.1,0c0,0-0.8-2.3,0-3c0,0,8.4,0.8,11.4,0C304.8,137.3,305.5,137.3,305.5,140.4z"/>
<path class="st8" d="M307.1,138.9c0,0,0-3-4.6-3c0,0,0-1.5,0.8-3c0,0,5.3,0,6.1,0.8c0,0,0.8,1.5,0.8,5.3
	C310.1,138.9,308.6,139.6,307.1,138.9z"/>
<path class="st8" d="M184.5,226.2c0-0.2-0.1-0.9-0.6-1.9c0-0.1-0.3-0.3-0.7-0.3c-0.4,0-1,0-1.8,0c0,0-0.8,0-0.8,1.5
	c0,1.3,0.1,2.1-0.8,2.9c-0.2,0.2-0.4,0.3-0.6,0.5c0,0-0.1,0-0.1,0c-0.6,0.2-1.3,0.3-2.3,0.3c0,0,0,1.5,0.8,3c0,0,5.3,0,6.1-0.8
	C183.8,231.5,184.5,230,184.5,226.2C184.5,226.3,184.5,226.2,184.5,226.2z"/>
<path class="st8" d="M274.1,301.3c0,0,0.8,1.5,0.8,3c0,0-1.5,0.8-3.8,0.8h-3.8c0,0-0.8-0.8-0.8-3
	C266.5,302.1,266.5,301.3,274.1,301.3z"/>
<path class="st8" d="M291.6,296.8c0,0,0.8,1.5,0.8,3c0,0-1.5,0.8-3.8,0.8h-3.8c0,0-0.8-0.8-0.8-3C284,297.5,284,296.8,291.6,296.8z"
	/>
<path class="st8" d="M267.3,296c0,0-0.8-1.5-0.8-3c0,0,1.5-0.8,3.8-0.8h3.8c0,0,0.8,0.8,0.8,3C274.9,295.3,274.9,296,267.3,296z"/>
<path class="st8" d="M278.7,297.5c0,0-3.8-1.5-12.1,0c0,0-0.8,2.3,0,3c0,0,8.4-0.8,11.4,0C277.9,300.6,278.7,300.6,278.7,297.5z"/>
<path class="st8" d="M288.5,293c0,0-3.8-1.5-12.1,0c0,0-0.8,2.3,0,3c0,0,8.4-0.8,11.4,0C287.8,296,288.5,296,288.5,293z"/>
<path class="st8" d="M283.7,304.5c0,0,3.8,1.5,12.1,0c0,0,0.8-2.3,0-3c0,0-8.4,0.8-11.4,0C284.4,301.4,283.7,301.4,283.7,304.5z"/>
<path class="st8" d="M283.2,299.1c0-0.2-0.1-0.9-0.6-1.9c0-0.1-0.3-0.3-0.7-0.3c-0.4,0-1,0-1.8,0c0,0-0.8,0-0.8,1.5
	c0,1.3,0.1,2.1-0.8,2.9c-0.2,0.2-0.4,0.3-0.6,0.5c0,0-0.1,0-0.1,0c-0.6,0.2-1.3,0.3-2.3,0.3c0,0,0,1.5,0.8,3c0,0,5.3,0,6.1-0.8
	C282.5,304.4,283.2,302.9,283.2,299.1C283.2,299.2,283.2,299.1,283.2,299.1z"/>
<path class="st8" d="M97.6,299.1c0,0-0.8-1.5-0.8-3c0,0,1.5-0.8,3.8-0.8h3.8c0,0,0.8,0.8,0.8,3C105.2,298.3,105.2,299.1,97.6,299.1z
	"/>
<path class="st8" d="M80.2,303.6c0,0-0.8-1.5-0.8-3c0,0,1.5-0.8,3.8-0.8H87c0,0,0.8,0.8,0.8,3C87.8,302.9,87.8,303.6,80.2,303.6z"/>
<path class="st8" d="M104.5,304.4c0,0,0.8,1.5,0.8,3c0,0-1.5,0.8-3.8,0.8h-3.8c0,0-0.8-0.8-0.8-3C96.9,305.1,96.9,304.4,104.5,304.4
	z"/>
<path class="st8" d="M93.1,302.9c0,0,3.8,1.5,12.1,0c0,0,0.8-2.3,0-3c0,0-8.4,0.8-11.4,0C93.8,299.8,93.1,299.8,93.1,302.9z"/>
<path class="st8" d="M83.2,307.4c0,0,3.8,1.5,12.1,0c0,0,0.8-2.3,0-3c0,0-8.4,0.8-11.4,0C84,304.4,83.2,304.4,83.2,307.4z"/>
<path class="st8" d="M88.1,295.9c0,0-3.8-1.5-12.1,0c0,0-0.8,2.3,0,3c0,0,8.4-0.8,11.4,0C87.3,299,88.1,299,88.1,295.9z"/>
<path class="st8" d="M88.5,301.3c0,0.2,0.1,0.9,0.6,1.9c0,0.1,0.3,0.3,0.7,0.3c0.4,0,1,0,1.8,0c0,0,0.8,0,0.8-1.5
	c0-1.3-0.1-2.1,0.8-2.9c0.2-0.2,0.4-0.3,0.6-0.5c0,0,0.1,0,0.1,0c0.6-0.2,1.3-0.3,2.3-0.3c0,0,0-1.5-0.8-3c0,0-5.3,0-6.1,0.8
	C89.3,296,88.5,297.5,88.5,301.3C88.5,301.2,88.5,301.3,88.5,301.3z"/>
<line class="st6" x1="214.1" y1="278.6" x2="214.1" y2="324.9"/>
<line class="st5" x1="116.2" y1="179.9" x2="156.4" y2="179.9"/>
<line class="st5" x1="271.1" y1="179.9" x2="311.8" y2="179.9"/>
<path class="st9" d="M291.6,58.5c0,0,13.8-5.9,19.7,6.2s25.9-3.8,25.9-3.8v15.4c0,0-20,15.8-25.9,3.8s-19.7-6.2-19.7-6.2V58.5z"/>
<path class="st9" d="M136.7,58.5c0,0,13.8-5.9,19.7,6.2s25.9-3.8,25.9-3.8v15.4c0,0-20,15.8-25.9,3.8s-19.7-6.2-19.7-6.2V58.5z"/>
<line class="st5" x1="291.6" y1="74.3" x2="291.6" y2="74"/>
<line class="st5" x1="136.7" y1="74" x2="136.7" y2="74.3"/>
<rect x="172.4" y="178.3" class="st10" width="7.6" height="7.6"/>
<rect x="100.2" y="200.4" class="st10" width="7.6" height="7.6"/>
<rect x="58.5" y="200.4" class="st10" width="7.6" height="7.6"/>
<rect x="72.4" y="200.4" class="st10" width="7.6" height="7.6"/>
<rect x="86.3" y="200.4" class="st10" width="7.6" height="7.6"/>
<rect x="184.9" y="178.3" class="st10" width="7.6" height="7.6"/>
<rect x="222.5" y="178.3" class="st10" width="7.6" height="7.6"/>
<rect x="235" y="178.3" class="st10" width="7.6" height="7.6"/>
<rect x="247.5" y="178.3" class="st10" width="7.6" height="7.6"/>
<rect x="319.7" y="200.4" class="st10" width="7.6" height="7.6"/>
<rect x="361.4" y="200.4" class="st10" width="7.6" height="7.6"/>
<rect x="347.5" y="200.4" class="st10" width="7.6" height="7.6"/>
<rect x="333.6" y="200.4" class="st10" width="7.6" height="7.6"/>
<rect x="210" y="178.3" class="st10" width="7.6" height="7.6"/>
<rect x="197.4" y="178.3" class="st10" width="7.6" height="7.6"/>
<rect x="164.8" y="185.9" class="st10" width="97.9" height="12.1"/>
<rect x="319.7" y="208" class="st10" width="49.4" height="12.1"/>
<rect x="58.5" y="208" class="st10" width="49.4" height="12.1"/>
<polygon class="st1" points="66.1,208 72.4,208 72.4,206.6 66.1,200.4 "/>
<polygon class="st1" points="93.9,208 100.2,208 100.2,206.6 93.9,200.4 "/>
<polygon class="st1" points="80,208 86.3,208 86.3,206.6 80,200.4 "/>
</svg>
