<?xml version="1.0" encoding="utf-8"?>
<!-- Generator: Adobe Illustrator 25.0.0, SVG Export Plug-In . SVG Version: 6.00 Build 0)  -->
<svg version="1.1" id="Camada_1" xmlns="http://www.w3.org/2000/svg" xmlns:xlink="http://www.w3.org/1999/xlink" x="0px" y="0px"
	 viewBox="0 0 430 430" style="enable-background:new 0 0 430 430;" xml:space="preserve">
<style type="text/css">
	.st0{fill:#CFCBCD;}
	.st1{fill:#BEB9B5;}
	.st2{fill:#705E87;}
	.st3{fill:#41413F;stroke:#020203;stroke-width:1.000000e-02;stroke-miterlimit:10;}
	.st4{fill:none;}
	.st5{fill:none;stroke:#020203;stroke-width:0.1;stroke-miterlimit:10;}
	.st6{fill:#5A4394;stroke:#020203;stroke-width:0.1;stroke-miterlimit:10;}
	.st7{fill:#5A4394;stroke:#020203;stroke-width:0.2;stroke-miterlimit:10;}
	.st8{fill:#B39FCC;stroke:#020203;stroke-width:0.1;stroke-miterlimit:10;}
	.st9{fill:#72557E;}
</style>
<circle class="st0" cx="215" cy="214.7" r="205"/>
<polygon class="st1" points="261.6,184.5 255.2,178.3 255.2,184.5 255.2,190.9 261.6,190.9 261.6,190.8 267.9,190.8 "/>
<polygon class="st1" points="242.7,185.9 249,185.9 249,184.5 242.7,178.3 "/>
<polygon class="st1" points="136.8,74.2 241.7,178.3 241.7,210 136.8,210 "/>
<path class="st1" d="M274.2,292.2L58.6,324.8l81.5,80.8c23.2,9.1,48.5,14.1,74.9,14.1c113.2,0,205-91.8,205-205
	c0-4.6-0.2-9.2-0.5-13.7L291.7,74.2L274.2,292.2z"/>
<polygon class="st2" points="58.6,220 107.9,220 107.9,179.8 116.3,179.8 116.3,128.2 136.8,74.2 156.5,128.2 156.5,179.8 
	164.9,179.8 164.9,198 262.8,198 262.8,179.8 271.2,179.8 271.2,128.2 291.7,74.2 311.4,128.2 311.4,179.8 319.8,179.8 319.8,220 
	369.1,220 369.1,324.8 58.6,324.8 "/>
<path class="st3" d="M241.9,324.7c0,0,1.6-46.2-27.8-46.2s-27.8,46.2-27.8,46.2h-0.2l28,0.1l28-0.1H241.9z"/>
<polyline class="st4" points="164.9,185.9 172.5,185.9 172.5,178.3 180.1,178.3 180.1,185.9 185,185.9 185,178.3 192.6,178.3 
	192.6,185.9 197.5,185.9 197.5,178.3 205.1,178.3 205.1,185.9 210.1,185.9 210.1,178.3 217.7,178.3 217.7,185.9 222.6,185.9 
	222.6,178.3 230.2,178.3 230.2,185.9 235.1,185.9 235.1,178.3 242.7,178.3 242.7,185.9 247.6,185.9 247.6,178.3 255.2,178.3 
	255.2,185.9 262.8,185.9 "/>
<polyline class="st4" points="319.8,207.9 319.8,200.3 327.4,200.3 327.4,207.9 333.7,207.9 333.7,200.3 341.3,200.3 341.3,207.9 
	347.6,207.9 347.6,200.3 355.2,200.3 355.2,207.9 361.5,207.9 361.5,200.3 369.1,200.3 369.1,207.9 369.1,220 "/>
<polyline class="st4" points="107.9,207.9 107.9,200.3 100.4,200.3 100.4,207.9 94,207.9 94,200.3 86.4,200.3 86.4,207.9 
	80.1,207.9 80.1,200.3 72.5,200.3 72.5,207.9 66.2,207.9 66.2,200.3 58.6,200.3 58.6,207.9 58.6,220 "/>
<line class="st5" x1="107.9" y1="220" x2="107.9" y2="324.8"/>
<line class="st5" x1="319.8" y1="220" x2="319.8" y2="324.8"/>
<line class="st5" x1="262.8" y1="198" x2="262.8" y2="324.8"/>
<line class="st6" x1="164.9" y1="198" x2="164.9" y2="324.8"/>
<path class="st7" d="M281.1,169.9c0,0,0.8,1.5,0.8,3c0,0-1.5,0.8-3.8,0.8h-3.8c0,0-0.8-0.8-0.8-3
	C273.5,170.7,273.5,169.9,281.1,169.9z"/>
<path class="st7" d="M274.2,164.6c0,0-0.8-1.5-0.8-3c0,0,1.5-0.8,3.8-0.8h3.8c0,0,0.8,0.8,0.8,3
	C281.8,163.8,281.8,164.6,274.2,164.6z"/>
<path class="st7" d="M285.6,166.1c0,0-3.8-1.5-12.1,0c0,0-0.8,2.3,0,3c0,0,8.4-0.8,11.4,0C284.9,169.2,285.6,169.2,285.6,166.1z"/>
<path class="st7" d="M287.1,167.6c0,0,0,3-4.6,3c0,0,0,1.5,0.8,3c0,0,5.3,0,6.1-0.8c0,0,0.8-1.5,0.8-5.3
	C290.2,167.6,288.6,166.9,287.1,167.6z"/>
<path class="st7" d="M147.3,164.6c0,0-0.8-1.5-0.8-3c0,0,1.5-0.8,3.8-0.8h3.8c0,0,0.8,0.8,0.8,3
	C154.9,163.8,154.9,164.6,147.3,164.6z"/>
<path class="st7" d="M154.1,169.9c0,0,0.8,1.5,0.8,3c0,0-1.5,0.8-3.8,0.8h-3.8c0,0-0.8-0.8-0.8-3
	C146.5,170.7,146.5,169.9,154.1,169.9z"/>
<path class="st7" d="M142.7,168.4c0,0,3.8,1.5,12.1,0c0,0,0.8-2.3,0-3c0,0-8.4,0.8-11.4,0C143.5,165.4,142.7,165.4,142.7,168.4z"/>
<path class="st7" d="M141.2,166.9c0,0,0-3,4.6-3c0,0,0-1.5-0.8-3c0,0-5.3,0-6.1,0.8c0,0-0.8,1.5-0.8,5.3
	C138.2,166.9,139.7,167.6,141.2,166.9z"/>
<path class="st7" d="M175.5,228.4c0,0,0.8,1.5,0.8,3c0,0-1.5,0.8-3.8,0.8h-3.8c0,0-0.8-0.8-0.8-3
	C167.9,229.1,167.9,228.4,175.5,228.4z"/>
<path class="st7" d="M193,223.8c0,0,0.8,1.5,0.8,3c0,0-1.5,0.8-3.8,0.8h-3.8c0,0-0.8-0.8-0.8-3C185.4,224.6,185.4,223.8,193,223.8z"
	/>
<path class="st7" d="M168.7,223.1c0,0-0.8-1.5-0.8-3c0,0,1.5-0.8,3.8-0.8h3.8c0,0,0.8,0.8,0.8,3
	C176.3,222.3,176.3,223.1,168.7,223.1z"/>
<path class="st7" d="M180.1,224.6c0,0-3.8-1.5-12.1,0c0,0-0.8,2.3,0,3c0,0,8.4-0.8,11.4,0C179.3,227.6,180.1,227.6,180.1,224.6z"/>
<path class="st7" d="M189.9,220c0,0-3.8-1.5-12.1,0c0,0-0.8,2.3,0,3c0,0,8.4-0.8,11.4,0C189.2,223.1,189.9,223.1,189.9,220z"/>
<path class="st7" d="M185.1,231.5c0,0,3.8,1.5,12.1,0c0,0,0.8-2.3,0-3c0,0-8.4,0.8-11.4,0C185.8,228.5,185.1,228.5,185.1,231.5z"/>
<path class="st7" d="M126.7,141.8c0,0-0.8,1.5-0.8,3c0,0,1.5,0.8,3.8,0.8h3.8c0,0,0.8-0.8,0.8-3
	C134.3,142.6,134.3,141.8,126.7,141.8z"/>
<path class="st7" d="M133.5,136.5c0,0,0.8-1.5,0.8-3c0,0-1.5-0.8-3.8-0.8h-3.8c0,0-0.8,0.8-0.8,3
	C125.9,135.7,125.9,136.5,133.5,136.5z"/>
<path class="st7" d="M122.1,138c0,0,3.8-1.5,12.1,0c0,0,0.8,2.3,0,3c0,0-8.4-0.8-11.4,0C122.9,141.1,122.1,141.1,122.1,138z"/>
<path class="st7" d="M120.6,139.5c0,0,0,3,4.6,3c0,0,0,1.5-0.8,3c0,0-5.3,0-6.1-0.8c0,0-0.8-1.5-0.8-5.3
	C117.6,139.5,119.1,138.8,120.6,139.5z"/>
<path class="st7" d="M301.1,136.5c0,0,0.8-1.5,0.8-3c0,0-1.5-0.8-3.8-0.8h-3.8c0,0-0.8,0.8-0.8,3
	C293.5,135.7,293.5,136.5,301.1,136.5z"/>
<path class="st7" d="M294.3,141.8c0,0-0.8,1.5-0.8,3c0,0,1.5,0.8,3.8,0.8h3.8c0,0,0.8-0.8,0.8-3
	C301.8,142.6,301.8,141.8,294.3,141.8z"/>
<path class="st7" d="M305.6,140.3c0,0-3.8,1.5-12.1,0c0,0-0.8-2.3,0-3c0,0,8.4,0.8,11.4,0C304.9,137.3,305.6,137.3,305.6,140.3z"/>
<path class="st7" d="M307.2,138.8c0,0,0-3-4.6-3c0,0,0-1.5,0.8-3c0,0,5.3,0,6.1,0.8c0,0,0.8,1.5,0.8,5.3
	C310.2,138.8,308.7,139.5,307.2,138.8z"/>
<path class="st7" d="M184.6,226.1c0-0.2-0.1-0.9-0.6-1.9c0-0.1-0.3-0.3-0.7-0.3c-0.4,0-1,0-1.8,0c0,0-0.8,0-0.8,1.5
	c0,1.3,0.1,2.1-0.8,2.9c-0.2,0.2-0.4,0.3-0.6,0.5c0,0-0.1,0-0.1,0c-0.6,0.2-1.3,0.3-2.3,0.3c0,0,0,1.5,0.8,3c0,0,5.3,0,6.1-0.8
	C183.9,231.4,184.6,229.9,184.6,226.1C184.6,226.2,184.6,226.1,184.6,226.1z"/>
<path class="st7" d="M274.2,301.3c0,0,0.8,1.5,0.8,3c0,0-1.5,0.8-3.8,0.8h-3.8c0,0-0.8-0.8-0.8-3C266.6,302,266.6,301.3,274.2,301.3
	z"/>
<path class="st7" d="M291.7,296.7c0,0,0.8,1.5,0.8,3c0,0-1.5,0.8-3.8,0.8h-3.8c0,0-0.8-0.8-0.8-3
	C284.1,297.5,284.1,296.7,291.7,296.7z"/>
<path class="st7" d="M267.4,296c0,0-0.8-1.5-0.8-3c0,0,1.5-0.8,3.8-0.8h3.8c0,0,0.8,0.8,0.8,3C275,295.2,275,296,267.4,296z"/>
<path class="st7" d="M278.8,297.5c0,0-3.8-1.5-12.1,0c0,0-0.8,2.3,0,3c0,0,8.4-0.8,11.4,0C278,300.5,278.8,300.5,278.8,297.5z"/>
<path class="st7" d="M288.6,292.9c0,0-3.8-1.5-12.1,0c0,0-0.8,2.3,0,3c0,0,8.4-0.8,11.4,0C287.9,296,288.6,296,288.6,292.9z"/>
<path class="st7" d="M283.8,304.4c0,0,3.8,1.5,12.1,0c0,0,0.8-2.3,0-3c0,0-8.4,0.8-11.4,0C284.5,301.4,283.8,301.4,283.8,304.4z"/>
<path class="st7" d="M283.3,299c0-0.2-0.1-0.9-0.6-1.9c0-0.1-0.3-0.3-0.7-0.3c-0.4,0-1,0-1.8,0c0,0-0.8,0-0.8,1.5
	c0,1.3,0.1,2.1-0.8,2.9c-0.2,0.2-0.4,0.3-0.6,0.5c0,0-0.1,0-0.1,0c-0.6,0.2-1.3,0.3-2.3,0.3c0,0,0,1.5,0.8,3c0,0,5.3,0,6.1-0.8
	C282.6,304.3,283.3,302.8,283.3,299C283.3,299.1,283.3,299,283.3,299z"/>
<path class="st7" d="M97.7,299c0,0-0.8-1.5-0.8-3c0,0,1.5-0.8,3.8-0.8h3.8c0,0,0.8,0.8,0.8,3C105.3,298.2,105.3,299,97.7,299z"/>
<path class="st7" d="M80.3,303.5c0,0-0.8-1.5-0.8-3c0,0,1.5-0.8,3.8-0.8h3.8c0,0,0.8,0.8,0.8,3C87.9,302.8,87.9,303.5,80.3,303.5z"
	/>
<path class="st7" d="M104.6,304.3c0,0,0.8,1.5,0.8,3c0,0-1.5,0.8-3.8,0.8h-3.8c0,0-0.8-0.8-0.8-3C97,305.1,97,304.3,104.6,304.3z"/>
<path class="st7" d="M93.2,302.8c0,0,3.8,1.5,12.1,0c0,0,0.8-2.3,0-3c0,0-8.4,0.8-11.4,0C93.9,299.7,93.2,299.7,93.2,302.8z"/>
<path class="st7" d="M83.3,307.3c0,0,3.8,1.5,12.1,0c0,0,0.8-2.3,0-3c0,0-8.4,0.8-11.4,0C84.1,304.3,83.3,304.3,83.3,307.3z"/>
<path class="st7" d="M88.2,295.9c0,0-3.8-1.5-12.1,0c0,0-0.8,2.3,0,3c0,0,8.4-0.8,11.4,0C87.4,298.9,88.2,298.9,88.2,295.9z"/>
<path class="st7" d="M88.6,301.3c0,0.2,0.1,0.9,0.6,1.9c0,0.1,0.3,0.3,0.7,0.3c0.4,0,1,0,1.8,0c0,0,0.8,0,0.8-1.5
	c0-1.3-0.1-2.1,0.8-2.9c0.2-0.2,0.4-0.3,0.6-0.5c0,0,0.1,0,0.1,0c0.6-0.2,1.3-0.3,2.3-0.3c0,0,0-1.5-0.8-3c0,0-5.3,0-6.1,0.8
	C89.4,296,88.6,297.4,88.6,301.3C88.6,301.2,88.6,301.3,88.6,301.3z"/>
<line class="st5" x1="214.2" y1="278.5" x2="214.2" y2="324.8"/>
<line class="st4" x1="116.3" y1="179.8" x2="156.5" y2="179.8"/>
<line class="st4" x1="271.2" y1="179.8" x2="311.9" y2="179.8"/>
<path class="st8" d="M291.7,58.4c0,0,13.8-5.9,19.7,6.2c5.9,12,25.9-3.8,25.9-3.8v15.4c0,0-20,15.8-25.9,3.8
	c-5.9-12-19.7-6.2-19.7-6.2V58.4z"/>
<path class="st8" d="M136.8,58.4c0,0,13.8-5.9,19.7,6.2s25.9-3.8,25.9-3.8v15.4c0,0-20,15.8-25.9,3.8s-19.7-6.2-19.7-6.2V58.4z"/>
<line class="st4" x1="291.7" y1="74.2" x2="291.7" y2="73.9"/>
<line class="st4" x1="136.8" y1="73.9" x2="136.8" y2="74.2"/>
<rect x="172.5" y="178.3" class="st9" width="7.6" height="7.6"/>
<rect x="100.4" y="200.3" class="st9" width="7.6" height="7.6"/>
<rect x="58.6" y="200.3" class="st9" width="7.6" height="7.6"/>
<rect x="72.5" y="200.3" class="st9" width="7.6" height="7.6"/>
<rect x="86.4" y="200.3" class="st9" width="7.6" height="7.6"/>
<rect x="185" y="178.3" class="st9" width="7.6" height="7.6"/>
<rect x="222.6" y="178.3" class="st9" width="7.6" height="7.6"/>
<rect x="235.1" y="178.3" class="st9" width="7.6" height="7.6"/>
<rect x="247.6" y="178.3" class="st9" width="7.6" height="7.6"/>
<rect x="319.8" y="200.3" class="st9" width="7.6" height="7.6"/>
<rect x="361.5" y="200.3" class="st9" width="7.6" height="7.6"/>
<rect x="347.6" y="200.3" class="st9" width="7.6" height="7.6"/>
<rect x="333.7" y="200.3" class="st9" width="7.6" height="7.6"/>
<rect x="210.1" y="178.3" class="st9" width="7.6" height="7.6"/>
<rect x="197.5" y="178.3" class="st9" width="7.6" height="7.6"/>
<rect x="164.9" y="185.9" class="st9" width="97.9" height="12.1"/>
<rect x="319.8" y="207.9" class="st9" width="49.4" height="12.1"/>
<rect x="58.6" y="207.9" class="st9" width="49.4" height="12.1"/>
<polygon class="st1" points="66.2,207.9 72.5,207.9 72.5,206.6 66.2,200.3 "/>
<polygon class="st1" points="94,207.9 100.4,207.9 100.4,206.6 94,200.3 "/>
<polygon class="st1" points="80.1,207.9 86.4,207.9 86.4,206.6 80.1,200.3 "/>
</svg>
