<?xml version="1.0" encoding="utf-8"?>
<!-- Generator: Adobe Illustrator 25.0.0, SVG Export Plug-In . SVG Version: 6.00 Build 0)  -->
<svg version="1.1" id="Camada_1" xmlns="http://www.w3.org/2000/svg" xmlns:xlink="http://www.w3.org/1999/xlink" x="0px" y="0px"
	 viewBox="0 0 430 430" style="enable-background:new 0 0 430 430;" xml:space="preserve">
<style type="text/css">
	.st0{fill:#CFCBCD;}
	.st1{fill:#BEB9B5;}
	.st2{fill:#8B7391;}
	.st3{fill:#665246;}
	.st4{fill:#602B5D;stroke:#020203;stroke-width:0.3;stroke-miterlimit:10;}
	.st5{fill:none;}
	.st6{fill:none;stroke:#020203;stroke-width:0.1;stroke-miterlimit:10;}
	.st7{fill:#602B5D;}
	.st8{fill:#B39FCC;}
	.st9{fill:#7D6B82;}
</style>
<circle class="st0" cx="214.9" cy="215" r="205"/>
<polygon class="st1" points="261.6,184.8 255.2,178.6 255.2,184.8 255.2,191.2 261.6,191.2 261.6,191.1 267.9,191.1 "/>
<polygon class="st1" points="242.7,186.1 249,186.1 249,184.8 242.7,178.6 "/>
<polygon class="st1" points="136.8,74.5 241.7,178.6 241.7,210.3 136.8,210.3 "/>
<path class="st1" d="M274.2,292.4L58.6,325.1l81.5,80.8C163.3,415,188.6,420,215,420c113.2,0,205-91.8,205-205
	c0-4.6-0.2-9.2-0.5-13.7L291.7,74.5L274.2,292.4z"/>
<polygon class="st2" points="58.6,220.3 107.9,220.3 107.9,180.1 116.3,180.1 116.3,128.4 136.8,74.5 156.5,128.4 156.5,180.1 
	164.9,180.1 164.9,198.3 262.8,198.3 262.8,180.1 271.2,180.1 271.2,128.4 291.7,74.5 311.4,128.4 311.4,180.1 319.8,180.1 
	319.8,220.3 369.1,220.3 369.1,325.1 58.6,325.1 "/>
<path class="st3" d="M241.9,325c0,0,1.6-46.2-27.8-46.2S186.3,325,186.3,325h-0.2l28,0.1l28-0.1H241.9z"/>
<g>
	<path class="st4" d="M129.7,236.5c0.4,0.3,0.6,0.8,0.6,1.4c0,0.6,0,1.4-0.1,2.2c-0.1,0.8-0.1,1.5,0.1,2.1c0.1,1.9,0.1,4.1-0.1,6.7
		s-0.1,5.1,0.2,7.4c0.3,2.3,1.1,4.2,2.3,5.7c1.2,1.5,3.2,2,6.1,1.7c1.1-0.4,1.8-1.3,2.1-2.6c0.3-1.3,0.4-2.8,0.3-4.4
		c-0.1-1.6-0.2-3.3-0.3-5c-0.1-1.7,0-3.2,0.3-4.5c-0.5-1.3-0.2-2.9,1-4.6c1.1-1.7,2.5-3.1,4-4.2c1.5-1.1,3-1.6,4.3-1.6
		c1.3,0,1.9,1.2,1.8,3.4c0.2,2.2,0.2,4.5,0,7c-0.2,2.5-0.3,4.9-0.3,7.3c0,2.4,0.2,4.6,0.7,6.7c0.5,2.1,1.6,3.8,3.2,5.2
		c-0.2,1.3-0.9,2.1-2.1,2.3c-1.2,0.3-2.6,0.3-4.2,0.2c-1.6-0.1-3.2-0.3-4.9-0.5c-1.7-0.2-3.1-0.1-4.2,0.2c-2.5,0.3-5.2,0.3-8.1-0.1
		c-2.9-0.3-5.5-1.1-7.7-2.2c-2.3-1.2-4-2.8-5.1-4.9c-1.1-2.1-1.2-4.7-0.3-7.9c-0.4-2.2-0.5-4.2-0.3-6c0.2-1.7,0.6-3.3,1.3-4.6
		c0.7-1.3,1.7-2.5,2.9-3.6c1.2-1,2.7-2,4.4-2.9C128.6,236.2,129.3,236.2,129.7,236.5z"/>
	<path class="st4" d="M173.5,237.3c1.3-0.2,2.5-0.2,3.6-0.2c1.2,0,2.1,0.3,2.9,0.8c0.8,0.5,1.2,1.5,1.1,3c1.6-1,3.2-2,4.7-2.9
		c1.5-0.9,3.1-1.5,4.9-1.7c1.7-0.2,3.7,0.2,5.8,1.1c2.2,0.9,4.7,2.8,7.6,5.5c0.1,0.1,0.3,0.3,0.5,0.4c0.3,0.2,0.5,0.3,0.7,0.5
		s0.4,0.3,0.6,0.5c0.2,0.2,0.2,0.3,0.1,0.5c-0.9,1.7-2,2.6-3.3,2.7c-1.3,0.1-2.6-0.2-4-0.9c-1.4-0.6-2.8-1.4-4.2-2.2
		c-1.4-0.8-2.7-1.2-3.9-1.3c-1.3,0-2.3,0.4-2.9,1c-0.7,0.6-1.1,1.5-1.4,2.6c-0.3,1.1-0.4,2.4-0.4,3.8c0,1.5,0,3.1,0,4.8
		c0,1.7,0,3.3,0.1,4.7c0.1,1.4,0.1,2.7,0.1,3.8c-0.1,1.1-0.2,2-0.5,2.8c-0.3,0.8-0.8,1.3-1.6,1.7c-0.8,2.4-2.3,3.8-4.5,4.3
		c-2.3,0.5-4.2,0.5-6,0.1c-1.7-0.4-2.7-1.1-2.9-2c-0.2-0.9,1.4-1.5,4.8-1.8v-20.6c-0.9-0.3-1.8-0.8-2.5-1.4c-0.8-0.6-1.4-1.4-2-2.3
		c-0.5-0.9-0.9-2-1-3.2c-0.2-1.2-0.1-2.6,0.2-4.2C171.1,237.4,172.2,237.4,173.5,237.3z"/>
	<path class="st4" d="M247.3,236.3c1.7-0.2,3.1,0.2,4.1,1.1c1,1,1.7,2.3,2.3,3.9c0.5,1.6,0.8,3.3,1,5.1c0.1,1.8,0.2,3.5,0.2,4.9
		c0.7,3.9,0.5,6.9-0.9,8.9c-1.3,2.1-3.2,3.6-5.6,4.6c-2.4,1-5,1.7-7.9,2.1c-2.9,0.4-5.5,0.8-7.9,1.4c1.1,3,0.8,5.1-1.1,6.3
		c-1.9,1.2-3.8,1.9-5.9,1.9c-2.1,0-3.5-0.5-4.4-1.4c-0.9-1,0.2-2.2,3.3-3.6c0.5-1.7,0.8-3.4,0.9-5.2c0.1-1.7,0.2-3.5,0.2-5.3
		c0-1.8,0-3.6-0.1-5.4c0-1.8,0-3.6,0.1-5.3c-0.4-1.8-0.5-3.3-0.3-4.6c0.3-1.2,0.7-2.3,1.3-3.3c0.6-1,1.3-1.9,2.1-2.9
		c0.8-1,1.5-2.1,2.2-3.3C236.3,236.3,241.8,236.3,247.3,236.3z M236.2,246.3c-0.3,1.6-0.5,3.6-0.5,6.1c0,2.5,0.2,4.6,0.7,6.4
		c0.5,1.8,1.4,2.9,2.6,3.2c1.2,0.4,2.9-0.7,5-3.3c0.9-1.6,1.5-3.5,1.7-5.8c0.2-2.3,0.1-4.3-0.5-6.3c-0.6-1.9-1.6-3.5-3-4.7
		c-1.4-1.2-3.4-1.5-5.8-1C236.3,242.8,236.2,244.5,236.2,246.3z"/>
	<path class="st4" d="M92.4,236.3c1.7-0.2,3.1,0.2,4.1,1.1c1,1,1.7,2.3,2.3,3.9c0.5,1.6,0.8,3.3,1,5.1c0.1,1.8,0.2,3.5,0.2,4.9
		c0.7,3.9,0.5,6.9-0.9,8.9c-1.3,2.1-3.2,3.6-5.6,4.6c-2.4,1-5,1.7-7.9,2.1c-2.9,0.4-5.5,0.8-7.9,1.4c1.1,3,0.8,5.1-1.1,6.3
		c-1.9,1.2-3.8,1.9-5.9,1.9c-2.1,0-3.5-0.5-4.4-1.4c-0.9-1,0.2-2.2,3.3-3.6c0.5-1.7,0.8-3.4,0.9-5.2c0.1-1.7,0.2-3.5,0.2-5.3
		c0-1.8,0-3.6-0.1-5.4c0-1.8,0-3.6,0.1-5.3c-0.4-1.8-0.5-3.3-0.3-4.6c0.3-1.2,0.7-2.3,1.3-3.3c0.6-1,1.3-1.9,2.1-2.9
		c0.8-1,1.5-2.1,2.2-3.3C81.4,236.3,86.9,236.3,92.4,236.3z M81.3,246.3c-0.3,1.6-0.5,3.6-0.5,6.1c0,2.5,0.2,4.6,0.7,6.4
		c0.5,1.8,1.4,2.9,2.6,3.2c1.2,0.4,2.9-0.7,5-3.3c0.9-1.6,1.5-3.5,1.7-5.8c0.2-2.3,0.1-4.3-0.5-6.3c-0.6-1.9-1.6-3.5-3-4.7
		c-1.4-1.2-3.4-1.5-5.8-1C81.4,242.8,81.3,244.5,81.3,246.3z"/>
	<path class="st4" d="M284.9,266.6c0-13.4,0-26.8,0-40.2c1.8-1.1,3.5-2.1,5.1-3.2c1.7-1.1,3.1-1.7,4.2-1.9c1.2-0.2,2,0.3,2.5,1.5
		c0.5,1.2,0.5,3.4-0.1,6.8c0.1,3.1,0.1,6.2,0,9.3c-0.1,3.1-0.2,6.2-0.2,9.3s0,6.2,0,9.2c0.1,3.1,0.3,6.1,0.7,9.2
		c4,2.3,5.8,3.8,5.4,4.7c-0.4,0.9-1.8,1.2-4.1,1c-2.3-0.2-4.9-0.8-7.8-1.8C287.8,269.5,285.8,268.1,284.9,266.6L284.9,266.6z"/>
	<path class="st4" d="M345.1,237c4.1-1.4,7.6-1.2,10.6,0.7c3,1.9,4.9,4.4,5.9,7.3c1,2.9,0.7,5.7-0.7,8.4c-1.5,2.7-4.5,4.1-9.2,4.3
		c-1.4-0.1-3.3-0.2-5.7-0.2c-2.4,0-4.4,0.2-6,0.6c-1.7,0.4-2.6,1-2.8,1.9c-0.2,0.9,1.2,2.2,4.1,3.9c1.2,0.7,2.9,1,5.1,0.7
		c2.2-0.3,4.3-0.5,6.3-0.7c2-0.2,3.7,0,5,0.5c1.3,0.5,1.8,1.9,1.3,4.3c-7.7,0-15.3,0-23,0c-1.4-0.2-2.7-0.6-3.9-1.3
		c-1.3-0.7-2.4-1.5-3.3-2.6c-0.9-1-1.6-2.3-2.1-3.7c-0.5-1.4-0.6-2.9-0.3-4.6c-0.1-1.9,0-4,0.3-6.2c0.3-2.2,1-4.3,1.8-6.2
		s2-3.6,3.5-4.9c1.5-1.3,3.2-2.1,5.3-2.2C339.9,237,342.5,237,345.1,237z M341.3,244.9c-1.8,1.4-3.2,3.2-4.1,5.2
		c0.1,2.5,1.4,3.8,3.9,3.7c2.5,0,4.8-0.7,7-2c2.2-1.3,3.5-3,4-5c0.5-2-1.1-3.8-4.9-5.3C345.1,242.3,343.1,243.4,341.3,244.9z"/>
</g>
<polyline class="st5" points="164.9,186.1 172.5,186.1 172.5,178.6 180.1,178.6 180.1,186.1 185,186.1 185,178.6 192.6,178.6 
	192.6,186.1 197.5,186.1 197.5,178.6 205.1,178.6 205.1,186.1 210.1,186.1 210.1,178.6 217.7,178.6 217.7,186.1 222.6,186.1 
	222.6,178.6 230.2,178.6 230.2,186.1 235.1,186.1 235.1,178.6 242.7,178.6 242.7,186.1 247.6,186.1 247.6,178.6 255.2,178.6 
	255.2,186.1 262.8,186.1 "/>
<polyline class="st5" points="319.8,208.2 319.8,200.6 327.4,200.6 327.4,208.2 333.7,208.2 333.7,200.6 341.3,200.6 341.3,208.2 
	347.6,208.2 347.6,200.6 355.2,200.6 355.2,208.2 361.5,208.2 361.5,200.6 369.1,200.6 369.1,208.2 369.1,220.3 "/>
<polyline class="st5" points="107.9,208.2 107.9,200.6 100.4,200.6 100.4,208.2 94,208.2 94,200.6 86.4,200.6 86.4,208.2 
	80.1,208.2 80.1,200.6 72.5,200.6 72.5,208.2 66.2,208.2 66.2,200.6 58.6,200.6 58.6,208.2 58.6,220.3 "/>
<line class="st6" x1="107.9" y1="220.3" x2="107.9" y2="325.1"/>
<line class="st6" x1="319.8" y1="220.3" x2="319.8" y2="325.1"/>
<line class="st6" x1="262.8" y1="198.3" x2="262.8" y2="325.1"/>
<line class="st6" x1="164.9" y1="198.3" x2="164.9" y2="325.1"/>
<path class="st7" d="M281.1,170.2c0,0,0.8,1.5,0.8,3c0,0-1.5,0.8-3.8,0.8h-3.8c0,0-0.8-0.8-0.8-3C273.5,171,273.5,170.2,281.1,170.2
	z"/>
<path class="st7" d="M274.2,164.9c0,0-0.8-1.5-0.8-3c0,0,1.5-0.8,3.8-0.8h3.8c0,0,0.8,0.8,0.8,3
	C281.8,164.1,281.8,164.9,274.2,164.9z"/>
<path class="st7" d="M285.6,166.4c0,0-3.8-1.5-12.1,0c0,0-0.8,2.3,0,3c0,0,8.4-0.8,11.4,0C284.9,169.4,285.6,169.4,285.6,166.4z"/>
<path class="st7" d="M287.1,167.9c0,0,0,3-4.6,3c0,0,0,1.5,0.8,3c0,0,5.3,0,6.1-0.8c0,0,0.8-1.5,0.8-5.3
	C290.2,167.9,288.6,167.2,287.1,167.9z"/>
<path class="st7" d="M175.5,228.7c0,0,0.8,1.5,0.8,3c0,0-1.5,0.8-3.8,0.8h-3.8c0,0-0.8-0.8-0.8-3
	C167.9,229.4,167.9,228.7,175.5,228.7z"/>
<path class="st7" d="M193,224.1c0,0,0.8,1.5,0.8,3c0,0-1.5,0.8-3.8,0.8h-3.8c0,0-0.8-0.8-0.8-3C185.4,224.9,185.4,224.1,193,224.1z"
	/>
<path class="st7" d="M168.7,223.4c0,0-0.8-1.5-0.8-3c0,0,1.5-0.8,3.8-0.8h3.8c0,0,0.8,0.8,0.8,3
	C176.3,222.6,176.3,223.4,168.7,223.4z"/>
<path class="st7" d="M180.1,224.9c0,0-3.8-1.5-12.1,0c0,0-0.8,2.3,0,3c0,0,8.4-0.8,11.4,0C179.3,227.9,180.1,227.9,180.1,224.9z"/>
<path class="st7" d="M189.9,220.3c0,0-3.8-1.5-12.1,0c0,0-0.8,2.3,0,3c0,0,8.4-0.8,11.4,0C189.2,223.4,189.9,223.4,189.9,220.3z"/>
<path class="st7" d="M185.1,231.8c0,0,3.8,1.5,12.1,0c0,0,0.8-2.3,0-3c0,0-8.4,0.8-11.4,0C185.8,228.8,185.1,228.8,185.1,231.8z"/>
<path class="st7" d="M146.7,142.1c0,0-0.8,1.5-0.8,3c0,0,1.5,0.8,3.8,0.8h3.8c0,0,0.8-0.8,0.8-3
	C154.3,142.9,154.3,142.1,146.7,142.1z"/>
<path class="st7" d="M153.5,136.8c0,0,0.8-1.5,0.8-3c0,0-1.5-0.8-3.8-0.8h-3.8c0,0-0.8,0.8-0.8,3C145.9,136,145.9,136.8,153.5,136.8
	z"/>
<path class="st7" d="M142.1,138.3c0,0,3.8-1.5,12.1,0c0,0,0.8,2.3,0,3c0,0-8.4-0.8-11.4,0C142.9,141.4,142.1,141.4,142.1,138.3z"/>
<path class="st7" d="M140.6,139.8c0,0,0,3,4.6,3c0,0,0,1.5-0.8,3c0,0-5.3,0-6.1-0.8c0,0-0.8-1.5-0.8-5.3
	C137.6,139.8,139.1,139.1,140.6,139.8z"/>
<path class="st7" d="M184.6,226.4c0-0.2-0.1-0.9-0.6-1.9c0-0.1-0.3-0.3-0.7-0.3c-0.4,0-1,0-1.8,0c0,0-0.8,0-0.8,1.5
	c0,1.3,0.1,2.1-0.8,2.9c-0.2,0.2-0.4,0.3-0.6,0.5c0,0-0.1,0-0.1,0c-0.6,0.2-1.3,0.3-2.3,0.3c0,0,0,1.5,0.8,3c0,0,5.3,0,6.1-0.8
	C183.9,231.7,184.6,230.2,184.6,226.4C184.6,226.5,184.6,226.4,184.6,226.4z"/>
<path class="st7" d="M274.2,301.6c0,0,0.8,1.5,0.8,3c0,0-1.5,0.8-3.8,0.8h-3.8c0,0-0.8-0.8-0.8-3
	C266.6,302.3,266.6,301.6,274.2,301.6z"/>
<path class="st7" d="M291.7,297c0,0,0.8,1.5,0.8,3c0,0-1.5,0.8-3.8,0.8h-3.8c0,0-0.8-0.8-0.8-3C284.1,297.8,284.1,297,291.7,297z"/>
<path class="st7" d="M267.4,296.2c0,0-0.8-1.5-0.8-3c0,0,1.5-0.8,3.8-0.8h3.8c0,0,0.8,0.8,0.8,3C275,295.5,275,296.2,267.4,296.2z"
	/>
<path class="st7" d="M278.8,297.8c0,0-3.8-1.5-12.1,0c0,0-0.8,2.3,0,3c0,0,8.4-0.8,11.4,0C278,300.8,278.8,300.8,278.8,297.8z"/>
<path class="st7" d="M288.6,293.2c0,0-3.8-1.5-12.1,0c0,0-0.8,2.3,0,3c0,0,8.4-0.8,11.4,0C287.9,296.2,288.6,296.2,288.6,293.2z"/>
<path class="st7" d="M283.8,304.7c0,0,3.8,1.5,12.1,0c0,0,0.8-2.3,0-3c0,0-8.4,0.8-11.4,0C284.5,301.6,283.8,301.6,283.8,304.7z"/>
<path class="st7" d="M283.3,299.3c0-0.2-0.1-0.9-0.6-1.9c0-0.1-0.3-0.3-0.7-0.3c-0.4,0-1,0-1.8,0c0,0-0.8,0-0.8,1.5
	c0,1.3,0.1,2.1-0.8,2.9c-0.2,0.2-0.4,0.3-0.6,0.5c0,0-0.1,0-0.1,0c-0.6,0.2-1.3,0.3-2.3,0.3c0,0,0,1.5,0.8,3c0,0,5.3,0,6.1-0.8
	C282.6,304.6,283.3,303.1,283.3,299.3C283.3,299.4,283.3,299.3,283.3,299.3z"/>
<path class="st7" d="M97.7,299.3c0,0-0.8-1.5-0.8-3c0,0,1.5-0.8,3.8-0.8h3.8c0,0,0.8,0.8,0.8,3C105.3,298.5,105.3,299.3,97.7,299.3z
	"/>
<path class="st7" d="M80.3,303.8c0,0-0.8-1.5-0.8-3c0,0,1.5-0.8,3.8-0.8h3.8c0,0,0.8,0.8,0.8,3C87.9,303.1,87.9,303.8,80.3,303.8z"
	/>
<path class="st7" d="M104.6,304.6c0,0,0.8,1.5,0.8,3c0,0-1.5,0.8-3.8,0.8h-3.8c0,0-0.8-0.8-0.8-3C97,305.4,97,304.6,104.6,304.6z"/>
<path class="st7" d="M93.2,303.1c0,0,3.8,1.5,12.1,0c0,0,0.8-2.3,0-3c0,0-8.4,0.8-11.4,0C93.9,300,93.2,300,93.2,303.1z"/>
<path class="st7" d="M83.3,307.6c0,0,3.8,1.5,12.1,0c0,0,0.8-2.3,0-3c0,0-8.4,0.8-11.4,0C84.1,304.6,83.3,304.6,83.3,307.6z"/>
<path class="st7" d="M88.2,296.2c0,0-3.8-1.5-12.1,0c0,0-0.8,2.3,0,3c0,0,8.4-0.8,11.4,0C87.4,299.2,88.2,299.2,88.2,296.2z"/>
<path class="st7" d="M88.6,301.6c0,0.2,0.1,0.9,0.6,1.9c0,0.1,0.3,0.3,0.7,0.3c0.4,0,1,0,1.8,0c0,0,0.8,0,0.8-1.5
	c0-1.3-0.1-2.1,0.8-2.9c0.2-0.2,0.4-0.3,0.6-0.5c0,0,0.1,0,0.1,0c0.6-0.2,1.3-0.3,2.3-0.3c0,0,0-1.5-0.8-3c0,0-5.3,0-6.1,0.8
	C89.4,296.2,88.6,297.7,88.6,301.6C88.6,301.5,88.6,301.6,88.6,301.6z"/>
<line class="st6" x1="214.2" y1="278.8" x2="214.2" y2="325.1"/>
<line class="st5" x1="116.3" y1="180.1" x2="156.5" y2="180.1"/>
<line class="st5" x1="271.2" y1="180.1" x2="311.9" y2="180.1"/>
<path class="st8" d="M291.7,58.7c0,0,13.8-5.9,19.7,6.2c5.9,12,25.9-3.8,25.9-3.8v15.4c0,0-20,15.8-25.9,3.8
	c-5.9-12-19.7-6.2-19.7-6.2V58.7z"/>
<path class="st8" d="M136.8,58.7c0,0,13.8-5.9,19.7,6.2s25.9-3.8,25.9-3.8v15.4c0,0-20,15.8-25.9,3.8s-19.7-6.2-19.7-6.2V58.7z"/>
<line class="st5" x1="291.7" y1="74.5" x2="291.7" y2="74.2"/>
<line class="st5" x1="136.8" y1="74.2" x2="136.8" y2="74.5"/>
<rect x="172.5" y="178.6" class="st9" width="7.6" height="7.6"/>
<rect x="100.4" y="200.6" class="st9" width="7.6" height="7.6"/>
<rect x="58.6" y="200.6" class="st9" width="7.6" height="7.6"/>
<rect x="72.5" y="200.6" class="st9" width="7.6" height="7.6"/>
<rect x="86.4" y="200.6" class="st9" width="7.6" height="7.6"/>
<rect x="185" y="178.6" class="st9" width="7.6" height="7.6"/>
<rect x="222.6" y="178.6" class="st9" width="7.6" height="7.6"/>
<rect x="235.1" y="178.6" class="st9" width="7.6" height="7.6"/>
<rect x="247.6" y="178.6" class="st9" width="7.6" height="7.6"/>
<rect x="319.8" y="200.6" class="st9" width="7.6" height="7.6"/>
<rect x="361.5" y="200.6" class="st9" width="7.6" height="7.6"/>
<rect x="347.6" y="200.6" class="st9" width="7.6" height="7.6"/>
<rect x="333.7" y="200.6" class="st9" width="7.6" height="7.6"/>
<rect x="210.1" y="178.6" class="st9" width="7.6" height="7.6"/>
<rect x="197.5" y="178.6" class="st9" width="7.6" height="7.6"/>
<rect x="164.9" y="186.1" class="st9" width="97.9" height="12.1"/>
<rect x="319.8" y="208.2" class="st9" width="49.4" height="12.1"/>
<rect x="58.6" y="208.2" class="st9" width="49.4" height="12.1"/>
<polygon class="st1" points="66.2,208.2 72.5,208.2 72.5,206.8 66.2,200.6 "/>
<polygon class="st1" points="94,208.2 100.4,208.2 100.4,206.8 94,200.6 "/>
<polygon class="st1" points="80.1,208.2 86.4,208.2 86.4,206.8 80.1,200.6 "/>
</svg>
