<?xml version="1.0" encoding="utf-8"?>
<!-- Generator: Adobe Illustrator 25.0.0, SVG Export Plug-In . SVG Version: 6.00 Build 0)  -->
<svg version="1.1" id="Camada_1" xmlns="http://www.w3.org/2000/svg" xmlns:xlink="http://www.w3.org/1999/xlink" x="0px" y="0px"
	 viewBox="0 0 380 450" style="enable-background:new 0 0 380 450;" xml:space="preserve">
<style type="text/css">
	.st0{fill:#F4D9BE;}
	.st1{fill:#AC9173;}
	.st2{fill:#673AB7;}
	.st3{fill:#FFFFFF;}
	.st4{fill:#FFC2C4;}
	.st5{fill:#4A311A;}
	.st6{fill:#FFFFA4;}
	.st7{fill:#ED5F5F;}
</style>
<path class="st0" d="M277.2,215.6c0,0,22.5-7.2,11.9-21c-10.6-13.8-29-18.1-40.2,1.1l-7.2,15.6C241.6,211.3,268.4,220,277.2,215.6z"
	/>
<polyline class="st2" points="173.6,265.9 221.9,190.7 293.8,225.6 210.9,292.1 "/>
<polyline class="st2" points="137.1,225 113.1,450 227,450 207,234.3 "/>
<path class="st3" d="M201.9,160.1c0,0,16.2,12.5,11,28.7c0,0-5.2-11-11-11c0,0,15.7,15.1,8.4,48.6c0,0-12.5-19.3-18.8,3.1
	c0,0-11.8-13.6-9.1-27.7c2.8-14.1,4.5-35,0-44.4"/>
<rect x="140.8" y="139.2" class="st0" width="57.1" height="109.7"/>
<polygon class="st4" points="173.6,186.6 207,213.4 173.6,209.1 "/>
<path class="st3" d="M128.3,160.1c0,0-16.2,12.5-11,28.7c0,0,5.2-11,11-11c0,0-15.7,15.1-8.4,48.6c0,0,12.5-19.3,18.8,3.1
	c0,0,11.8-13.6,9.1-27.7c-2.8-14.1-4.5-35,0-44.4"/>
<polygon class="st2" points="92.3,160.1 257.8,160.1 214.7,143.4 122.5,143.4 "/>
<path class="st2" d="M128.8,123.8l3.2-64l-26.1,6.3l-20-27.6L67.1,55.7L87.5,17l29.9,24.5l57.3-7.8l34.6,88.3
	C209.3,122,192,145,128.8,123.8z"/>
<polygon class="st6" points="122.5,143.4 117.3,124.1 214.7,122 214.7,143.4 "/>
<path class="st0" d="M55.3,293.2c0,0-34-5.9-34,22.3c0,28.2,47-9.4,47-9.4"/>
<polyline class="st2" points="157.4,276.1 85,328.5 30.6,269.9 132.1,238.1 "/>
<path class="st3" d="M165.2,208.7c0,0-33.2,0.5-33.2,32.9s33.2,55.4,33.2,79.9c0,0,9.1-14.1,5.4-28.2c0,0,18.3,32.9,12,56.9
	c0,0,29.3-40.2,21.4-70.8c0,0,7.8,9.7,7.8,20.1C211.9,299.6,240.8,208.7,165.2,208.7z"/>
<ellipse class="st5" cx="157.3" cy="175.7" rx="7.5" ry="10.9"/>
<ellipse class="st5" cx="184.4" cy="175.7" rx="7.5" ry="10.9"/>
<path class="st1" d="M300.9,12.7c-39.1,34.5-3.6,87.6-3.6,87.6l-67.2,237.2h15.7l78.5-277c3.1,0.4,6.7,0.6,10.8,0.4
	C365.7,59.8,340-21.9,300.9,12.7z"/>
<path class="st0" d="M257.8,193.6c0,0,7.5-7.1,13.5-2.9s3.9,19.9-16.4,15.2"/>
</svg>
