<?xml version="1.0" encoding="utf-8"?>
<!-- Generator: Adobe Illustrator 25.0.0, SVG Export Plug-In . SVG Version: 6.00 Build 0)  -->
<svg version="1.1" id="Camada_1" xmlns="http://www.w3.org/2000/svg" xmlns:xlink="http://www.w3.org/1999/xlink" x="0px" y="0px"
	 viewBox="0 0 380 450" style="enable-background:new 0 0 380 450;" xml:space="preserve">
<style type="text/css">
	.st0{fill:#F4D9BE;}
	.st1{fill:#AC9173;}
	.st2{fill:#673AB7;}
	.st3{fill:#FFFFFF;}
	.st4{fill:#FFC2C4;}
	.st5{fill:#4A311A;}
	.st6{fill:#FFFFA4;}
	.st7{fill:#ED5F5F;}
</style>
<path class="st0" d="M78.5,332.6c0,0-5.9,34,22.3,34c28.2,0-9.4-47-9.4-47"/>
<polyline class="st2" points="114.3,219.3 68.4,324.2 104.4,354 "/>
<path class="st0" d="M252.8,215.6c0,0,22.5-7.2,11.9-21c-10.6-13.8-29-18.1-40.2,1.1l-7.2,15.6C217.3,211.3,244.1,220,252.8,215.6z"
	/>
<polyline class="st2" points="149.2,265.9 197.6,190.7 269.5,225.6 186.6,292.1 "/>
<polyline class="st2" points="112.7,225 88.7,450 202.6,450 182.6,234.3 "/>
<path class="st3" d="M177.5,160.1c0,0,16.2,12.5,11,28.7c0,0-5.2-11-11-11c0,0,15.7,15.1,8.4,48.6c0,0-12.5-19.3-18.8,3.1
	c0,0-11.8-13.6-9.1-27.7c2.8-14.1,4.5-35,0-44.4"/>
<rect x="116.4" y="139.2" class="st0" width="57.1" height="109.7"/>
<polygon class="st4" points="149.2,186.6 182.6,213.4 149.2,209.1 "/>
<path class="st5" d="M133,180.2c5.3,0,9.6-4.3,9.6-9.6h-19.2C123.4,175.9,127.7,180.2,133,180.2z"/>
<path class="st3" d="M103.9,160.1c0,0-16.2,12.5-11,28.7c0,0,5.2-11,11-11c0,0-15.7,15.1-8.4,48.6c0,0,12.5-19.3,18.8,3.1
	c0,0,11.8-13.6,9.1-27.7c-2.8-14.1-4.5-35,0-44.4"/>
<path class="st5" d="M160.1,180.2c5.3,0,9.6-4.3,9.6-9.6h-19.2C150.5,175.9,154.8,180.2,160.1,180.2z"/>
<polygon class="st2" points="67.9,160.1 233.4,160.1 190.3,143.4 98.1,143.4 "/>
<path class="st2" d="M104.4,123.8l3.2-64l-26.1,6.3l-20-27.6L42.7,55.7L63.1,17L93,41.5l57.3-7.8l34.6,88.3
	C184.9,122,167.6,145,104.4,123.8z"/>
<polygon class="st6" points="98.1,143.4 92.9,124.1 190.3,122 190.3,143.4 "/>
<path class="st3" d="M140.8,208.7c0,0-33.2,0.5-33.2,32.9s33.2,55.4,33.2,79.9c0,0,9.1-14.1,5.4-28.2c0,0,18.3,32.9,12,56.9
	c0,0,29.3-40.2,21.4-70.8c0,0,7.8,9.7,7.8,20.1C187.5,299.6,216.4,208.7,140.8,208.7z"/>
<path class="st1" d="M277.2,10.9c-39.1,34.5-3.6,87.6-3.6,87.6l-67.2,237.2H222l78.5-277c3.1,0.4,6.7,0.6,10.8,0.4
	C342,58.1,316.3-23.6,277.2,10.9z"/>
<path class="st0" d="M233.5,193.6c0,0,7.5-7.1,13.5-2.9c6,4.2,3.9,19.9-16.4,15.2"/>
</svg>
