<?xml version="1.0" encoding="utf-8"?>
<!-- Generator: Adobe Illustrator 25.0.0, SVG Export Plug-In . SVG Version: 6.00 Build 0)  -->
<svg version="1.1" id="Camada_1" xmlns="http://www.w3.org/2000/svg" xmlns:xlink="http://www.w3.org/1999/xlink" x="0px" y="0px"
	 viewBox="0 0 380 450" style="enable-background:new 0 0 380 450;" xml:space="preserve">
<style type="text/css">
	.st0{fill:#F4D9BE;}
	.st1{fill:#AC9173;}
	.st2{fill:#673AB7;}
	.st3{fill:#FFFFFF;}
	.st4{fill:#FFC2C4;}
	.st5{fill:#4A311A;}
	.st6{fill:#FFFFA4;}
	.st7{fill:#ED5F5F;}
</style>
<path class="st0" d="M295,295.6c0,0,18.8,14.3,24-2.3s-1.8-34.1-24-32.3"/>
<path class="st1" d="M320.6,154.3V450h-15.1V200c0,0-48.6-41.4-20.4-85.3s75.2,27.7,46,37.1c-29.3,9.4-34.5-5.6-29.3-19
	s19.1,0.4,13.1,6.4"/>
<path class="st0" d="M301.1,267.7c0,0,10.1,2.1,10.1,9.4s-14.1,14.6-21.9-4.7"/>
<polyline class="st2" points="213.5,234.8 301.8,248.9 298.7,328.8 204.5,279.5 "/>
<path class="st0" d="M116.6,333c0,0-5.9,34,22.3,34c28.2,0-9.4-47-9.4-47"/>
<polyline class="st2" points="151.3,225 127.3,450 241.2,450 221.2,234.3 "/>
<path class="st3" d="M216.1,160.1c0,0,16.2,12.5,11,28.7c0,0-5.2-11-11-11c0,0,15.7,15.1,8.4,48.6c0,0-12.5-19.3-18.8,3.1
	c0,0-11.8-13.6-9.1-27.7c2.8-14.1,4.5-35,0-44.4"/>
<rect x="155" y="139.2" class="st0" width="57.1" height="109.7"/>
<polygon class="st4" points="187.8,186.6 221.2,213.4 187.8,209.1 "/>
<path class="st5" d="M171.6,180.2c5.3,0,9.6-4.3,9.6-9.6H162C162,175.9,166.3,180.2,171.6,180.2z"/>
<path class="st5" d="M198.7,180.2c5.3,0,9.6-4.3,9.6-9.6h-19.2C189.1,175.9,193.4,180.2,198.7,180.2z"/>
<path class="st2" d="M143,123.8l3.2-64l-26.1,6.3l-20-27.6L81.3,55.7L101.7,17l29.9,24.5l57.3-7.8l34.6,88.3
	C223.5,122,206.2,145,143,123.8z"/>
<polyline class="st2" points="152.4,219.7 106.5,324.6 142.5,354.4 "/>
<polygon class="st6" points="136.7,143.4 131.5,124.1 228.9,122 228.9,143.4 "/>
<path class="st0" d="M325.7,267.7c-1.9-2.6-11.8-9.8-11.8,5.2s-3.8,33.4,3.5,33.4C324.6,306.4,336.2,281.7,325.7,267.7z"/>
<path class="st3" d="M179.4,208.7c0,0-33.2,0.5-33.2,32.9s33.2,55.4,33.2,79.9c0,0,9.1-14.1,5.4-28.2c0,0,18.3,32.9,12,56.9
	c0,0,29.3-40.2,21.4-70.8c0,0,7.8,9.7,7.8,20.1C226.1,299.6,255,208.7,179.4,208.7z"/>
<path class="st3" d="M142.5,160.1c0,0-16.2,12.5-11,28.7c0,0,5.2-11,11-11c0,0-15.7,15.1-8.4,48.6c0,0,12.5-19.3,18.8,3.1
	c0,0,11.8-13.6,9.1-27.7c-2.8-14.1-4.5-35,0-44.4"/>
<polygon class="st2" points="106.5,160.1 272,160.1 228.9,143.4 136.7,143.4 "/>
</svg>
