<?xml version="1.0" encoding="utf-8"?>
<!-- Generator: Adobe Illustrator 25.0.0, SVG Export Plug-In . SVG Version: 6.00 Build 0)  -->
<svg version="1.1" id="Camada_1" xmlns="http://www.w3.org/2000/svg" xmlns:xlink="http://www.w3.org/1999/xlink" x="0px" y="0px"
	 viewBox="0 0 380 450" style="enable-background:new 0 0 380 450;" xml:space="preserve">
<style type="text/css">
	.st0{fill:#F4D9BE;}
	.st1{fill:#AC9173;}
	.st2{fill:#673AB7;}
	.st3{fill:#FFFFFF;}
	.st4{fill:#FFC2C4;}
	.st5{fill:#4A311A;}
	.st6{fill:#FFFFA4;}
	.st7{fill:#ED5F5F;}
</style>
<path class="st0" d="M285.6,301.9c0,0,14.2,18.9,23.7,4.3c9.5-14.6,7.6-33.3-14.3-37.6l-17.1-1.7
	C277.9,266.9,278.5,295.1,285.6,301.9z"/>
<polyline class="st2" points="198.4,234.8 286.7,248.9 283.6,328.8 189.4,279.5 "/>
<polyline class="st2" points="136.2,225 112.2,450 226.1,450 206.1,234.3 "/>
<path class="st3" d="M201,160.1c0,0,16.2,12.5,11,28.7c0,0-5.2-11-11-11c0,0,15.7,15.1,8.4,48.6c0,0-12.5-19.3-18.8,3.1
	c0,0-11.8-13.6-9.1-27.7c2.8-14.1,4.5-35,0-44.4"/>
<rect x="139.9" y="139.2" class="st0" width="57.1" height="109.7"/>
<polygon class="st4" points="172.7,186.6 206.1,213.4 172.7,209.1 "/>
<path class="st5" d="M156.5,180.2c5.3,0,9.6-4.3,9.6-9.6h-19.2C146.9,175.9,151.2,180.2,156.5,180.2z"/>
<path class="st3" d="M127.4,160.1c0,0-16.2,12.5-11,28.7c0,0,5.2-11,11-11c0,0-15.7,15.1-8.4,48.6c0,0,12.5-19.3,18.8,3.1
	c0,0,11.8-13.6,9.1-27.7c-2.8-14.1-4.5-35,0-44.4"/>
<path class="st5" d="M183.6,180.2c5.3,0,9.6-4.3,9.6-9.6H174C174,175.9,178.3,180.2,183.6,180.2z"/>
<polygon class="st2" points="91.4,160.1 256.9,160.1 213.8,143.4 121.6,143.4 "/>
<path class="st2" d="M127.9,123.8l3.2-64L105,66.1L85,38.5L66.2,55.7L86.6,17l29.9,24.5l57.3-7.8l34.6,88.3
	C208.4,122,191.1,145,127.9,123.8z"/>
<polygon class="st6" points="121.6,143.4 116.4,124.1 213.8,122 213.8,143.4 "/>
<path class="st0" d="M322.8,283.4c-1.1-3-8.7-12.6-12.8,1.8c-4.1,14.4-12.8,31.1-5.7,33.1C311.2,320.4,329.1,299.8,322.8,283.4z"/>
<path class="st1" d="M325.4,125.2c-39.1,34.5-3.6,87.6-3.6,87.6L254.6,450h15.7l78.5-277c3.1,0.4,6.7,0.6,10.8,0.4
	C390.2,172.3,364.5,90.6,325.4,125.2z"/>
<path class="st0" d="M299.1,276.7c0,0,9.1,4.8,7.2,11.8c-2,7-17.5,10.2-19.8-10.5"/>
<path class="st0" d="M54.4,293.2c0,0-34-5.9-34,22.3c0,28.2,47-9.4,47-9.4"/>
<polyline class="st2" points="156.5,276.1 84.1,328.5 29.8,269.9 131.3,238.1 "/>
<path class="st3" d="M164.3,208.7c0,0-33.2,0.5-33.2,32.9s33.2,55.4,33.2,79.9c0,0,9.1-14.1,5.4-28.2c0,0,18.3,32.9,12,56.9
	c0,0,29.3-40.2,21.4-70.8c0,0,7.8,9.7,7.8,20.1C211,299.6,239.9,208.7,164.3,208.7z"/>
</svg>
