<?xml version="1.0" encoding="utf-8"?>
<!-- Generator: Adobe Illustrator 25.0.0, SVG Export Plug-In . SVG Version: 6.00 Build 0)  -->
<svg version="1.1" id="Camada_1" xmlns="http://www.w3.org/2000/svg" xmlns:xlink="http://www.w3.org/1999/xlink" x="0px" y="0px"
	 viewBox="0 0 380 450" style="enable-background:new 0 0 380 450;" xml:space="preserve">
<style type="text/css">
	.st0{fill:#F4D9BE;}
	.st1{fill:#AC9173;}
	.st2{fill:#673AB7;}
	.st3{fill:#FFFFFF;}
	.st4{fill:#FFC2C4;}
	.st5{fill:#4A311A;}
	.st6{fill:#FFFFA4;}
	.st7{fill:#ED5F5F;}
</style>
<path class="st0" d="M332.1,295.2c0,0,18.8,14.3,24-2.3s-1.8-34.1-24-32.3"/>
<path class="st1" d="M357.7,153.9v295.7h-15.1v-250c0,0-48.6-41.4-20.4-85.3s75.2,27.7,46,37.1c-29.3,9.4-34.5-5.6-29.3-19
	s19.1,0.4,13.1,6.4"/>
<path class="st0" d="M338.2,267.3c0,0,10.1,2.1,10.1,9.4s-14.1,14.6-21.9-4.7"/>
<polyline class="st2" points="250.6,234.4 338.9,248.5 335.8,328.4 241.6,279.1 "/>
<path class="st0" d="M362.8,267.3c-1.9-2.6-11.8-9.8-11.8,5.2s-3.8,33.4,3.5,33.4C361.7,306,373.3,281.3,362.8,267.3z"/>
<path class="st0" d="M153.5,179.2c0,0,10.1-33-17.9-36.5c-28-3.5,3.5,47.8,3.5,47.8"/>
<polyline class="st2" points="182.1,225 158.1,450 272,450 252,234.3 "/>
<path class="st3" d="M247.9,160.1c0,0,17.1,12.5,11.6,28.7c0,0-5.5-11-11.6-11c0,0,16.5,15.1,8.9,48.6c0,0-13.2-19.3-19.8,3.1
	c0,0-12.4-13.6-9.6-27.7c3-14.1,4.7-35,0-44.4"/>
<path class="st0" d="M214.3,139.2L214.3,139.2c15.8,0,28.6,12.8,28.6,28.5v52.6c0,15.8-12.8,28.5-28.5,28.5h0
	c-15.8,0-28.5-12.8-28.5-28.5v-52.6C185.8,152,198.5,139.2,214.3,139.2z"/>
<polygon class="st4" points="218.6,186.6 252,213.4 218.6,209.1 "/>
<path class="st3" d="M173.3,154.6c0,0-16.2,13.5-11,31c0,0,5.2-11.9,11-11.9c0,0-15.7,16.3-8.4,52.5c0,0,12.5-20.8,18.8,3.3
	c0,0,11.8-14.7,9.1-29.9c-2.8-15.2-4.5-37.8,0-47.9"/>
<path class="st7" d="M252.1,132.2c0,0-14.6-29.6-36.3-21.6c0,0,13.8,10,13.2,20.3c0,0-18.1-28.9-62.5-18.6c0,0,23.9,23.6-6,32.9
	c0,0,16.5,21.9,35.2,18.2c18.7-3.9,46.1-5.2,57.9,3.4"/>
<polygon class="st2" points="71.8,182.4 220.2,109.3 174.2,113.3 91.5,154.1 "/>
<path class="st2" d="M88.5,133.7L63,74.9L42.4,92.1L12.3,76.2L3,99.9l1.2-43.7L41.9,65l47.9-32.3l70.1,63.9
	C159.9,96.5,154.5,124.8,88.5,133.7z"/>
<polygon class="st6" points="91.5,154.1 78.3,139.1 164.7,94.2 174.2,113.3 "/>
<path class="st2" d="M110.5,197.5l73.7-31c-1.6,35.4-3.2,70.8-4.8,106.2C164.6,276.3,118.7,226.2,110.5,197.5z"/>
<path class="st3" d="M210.2,208.7c0,0-33.2,0.5-33.2,32.9s33.2,55.4,33.2,79.9c0,0,9.1-14.1,5.4-28.2c0,0,18.3,32.9,12,56.9
	c0,0,29.3-40.2,21.4-70.8c0,0,7.8,9.7,7.8,20.1C256.9,299.6,285.8,208.7,210.2,208.7z"/>
<path class="st5" d="M201.7,170.5c4.3,0,7.9,2.8,9.1,6.7h0.5c0-5.3-4.3-9.6-9.6-9.6s-9.6,4.3-9.6,9.6h0.5
	C193.8,173.3,197.4,170.5,201.7,170.5z"/>
<path class="st5" d="M228.9,170.5c4.3,0,7.9,2.8,9.1,6.7h0.5c0-5.3-4.3-9.6-9.6-9.6s-9.6,4.3-9.6,9.6h0.5
	C221,173.3,224.7,170.5,228.9,170.5z"/>
<path class="st0" d="M136.9,159.7c0,0-9-5.1-6.7-12c2.2-6.9,17.9-9.6,19.4,11.2"/>
</svg>
