<?xml version="1.0" encoding="utf-8"?>
<!-- Generator: Adobe Illustrator 17.0.0, SVG Export Plug-In . SVG Version: 6.00 Build 0)  -->
<!DOCTYPE svg PUBLIC "-//W3C//DTD SVG 1.0//EN" "http://www.w3.org/TR/2001/REC-SVG-20010904/DTD/svg10.dtd">
<svg version="1.0" id="Capa_1" xmlns="http://www.w3.org/2000/svg" xmlns:xlink="http://www.w3.org/1999/xlink" x="0px" y="0px"
	 width="1400px" height="980px" viewBox="0 0 1400 980" enable-background="new 0 0 1400 980" xml:space="preserve">
<rect fill="#CBBBA0" width="1400" height="980"/>
<g>
	<defs>
		<rect id="SVGID_1_" width="1400" height="980"/>
	</defs>
	<clipPath id="SVGID_2_">
		<use xlink:href="#SVGID_1_"  overflow="visible"/>
	</clipPath>
	<path opacity="0.1" clip-path="url(#SVGID_2_)" fill="#8D9968" d="M-405.5,1198.3c0,0,820.2-1380.9,1058.1-1394.9
		s-436,632.5-240.1,654.2s617.6-712.2,801.8-678.2s-938.4,1252-636.1,1262s888.2-987,1034.6-927.7s-698.4,1058.8-570.4,1110.8"/>
	<path opacity="0.5" clip-path="url(#SVGID_2_)" fill="#00CFFF" d="M55.1,294.4c24.6-26.2,102-87,132-57s-19.5,77.9,6,84.7
		S119.9,532.4,89.6,579.4C50.9,639.6-299.1,671.5,55.1,294.4z"/>
	<path opacity="0.5" clip-path="url(#SVGID_2_)" fill="#00CFFF" d="M1407.5-156.6c24.6-26.2,102-87,132-57s-19.5,77.9,6,84.7
		c25.5,6.8-73.2,210.3-103.5,257.3C1403.2,188.6,1053.2,220.5,1407.5-156.6z"/>
	<path opacity="0.5" clip-path="url(#SVGID_2_)" fill="#00CFFF" d="M1374.6,873.9c15.2-16.2,63.1-53.8,81.7-35.2
		c18.6,18.6-12.1,48.2,3.7,52.4s-45.3,130.1-64,159.2C1371.9,1087.4,1155.4,1107.2,1374.6,873.9z"/>
</g>
<ellipse opacity="0.3" fill="#432918" cx="364.2" cy="513.9" rx="145.6" ry="18.2"/>
<ellipse opacity="0.3" fill="#432918" cx="699" cy="513.9" rx="145.6" ry="18.2"/>
<ellipse opacity="0.3" fill="#432918" cx="1033.9" cy="513.9" rx="145.6" ry="18.2"/>
<ellipse opacity="0.3" fill="#432918" cx="1033.9" cy="899.1" rx="145.6" ry="18.2"/>
<ellipse opacity="0.3" fill="#432918" cx="694.1" cy="899.1" rx="145.6" ry="18.2"/>
<ellipse opacity="0.3" fill="#432918" cx="354.3" cy="899.1" rx="145.6" ry="18.2"/>
<g opacity="0.3">
	<g>
		
			<path fill="none" stroke="#634E42" stroke-width="11" stroke-linecap="round" stroke-linejoin="round" stroke-dasharray="35.8036,41.7709" d="
			M-28.4,345.6C44,229.5,233.9-44,421.1-55C659-69-14.9,577.5,181.1,599.2C377,620.9,798.6-113,982.8-79S44.4,1173,346.7,1183
			s683.5-1080.6,829.9-1021.3c133,53.9-16.5,517.4,50.8,641"/>
		<path fill="none" stroke="#634E42" stroke-width="11" stroke-linecap="round" stroke-linejoin="round" d="M1239.9,819.3
			c4.4,4.1,9.4,7.4,15.1,9.7"/>
	</g>
</g>
<g>
	<path fill="#F4D9BE" d="M474.9,359.5c0,0,18.8,14.3,24-2.3s-1.8-34.1-24-32.3"/>
	<path fill="#AC9173" stroke="#876A54" stroke-miterlimit="10" d="M500.5,218.2v295.7h-15.1v-250c0,0-48.6-41.4-20.4-85.3
		c28.2-43.9,75.2,27.7,46,37.1c-29.3,9.4-34.5-5.6-29.3-19c5.2-13.4,19.1,0.4,13.1,6.4"/>
	<path fill="#F4D9BE" d="M481,331.6c0,0,10.1,2.1,10.1,9.4c0,7.3-14.1,14.6-21.9-4.7"/>
	<polyline fill="#6AA6AB" points="393.4,298.7 481.7,312.8 478.6,392.7 384.4,343.4 	"/>
	<path fill="#F4D9BE" d="M296.5,396.9c0,0-5.9,34,22.3,34c28.2,0-9.4-47-9.4-47"/>
	<polyline fill="#6AA6AB" points="331.2,288.9 307.2,513.9 421.1,513.9 401.1,298.2 	"/>
	<path fill="#FFFFFF" d="M396,224c0,0,16.2,12.5,11,28.7c0,0-5.2-11-11-11c0,0,15.7,15.1,8.4,48.6c0,0-12.5-19.3-18.8,3.1
		c0,0-11.8-13.6-9.1-27.7c2.8-14.1,4.5-35,0-44.4"/>
	<rect x="334.9" y="203.1" fill="#F4D9BE" width="57.1" height="109.7"/>
	<path fill="#FFFFFF" d="M359.3,272.6c0,0-33.2,0.5-33.2,32.9s33.2,55.4,33.2,79.9c0,0,9.1-14.1,5.4-28.2c0,0,18.3,32.9,12,56.9
		c0,0,29.3-40.2,21.4-70.8c0,0,7.8,9.7,7.8,20.1C406,363.5,434.9,272.6,359.3,272.6z"/>
	<polygon fill="#FFC2C4" points="367.7,250.5 401.1,277.3 367.7,273 	"/>
	<path fill="#4A311A" d="M351.5,244.1c5.3,0,9.6-4.3,9.6-9.6h-19.2C341.9,239.8,346.2,244.1,351.5,244.1z"/>
	<path fill="#FFFFFF" d="M322.4,224c0,0-16.2,12.5-11,28.7c0,0,5.2-11,11-11c0,0-15.7,15.1-8.4,48.6c0,0,12.5-19.3,18.8,3.1
		c0,0,11.8-13.6,9.1-27.7c-2.8-14.1-4.5-35,0-44.4"/>
	<path fill="#4A311A" d="M378.6,244.1c5.3,0,9.6-4.3,9.6-9.6H369C369,239.8,373.3,244.1,378.6,244.1z"/>
	<polygon fill="#6AA6AB" points="286.4,224 451.9,224 408.8,207.3 316.6,207.3 	"/>
	<path fill="#6AA6AB" d="M322.9,187.7l3.2-64l-26.1,6.3l-20-27.6l-18.8,17.2l20.4-38.7l29.9,24.5l57.3-7.8l34.6,88.3
		C403.4,185.9,386.1,208.9,322.9,187.7z"/>
	<polygon fill="#FFFFA4" points="316.6,207.3 311.4,188 408.8,185.9 408.8,207.3 	"/>
	<polyline fill="#6AA6AB" points="332.3,283.6 286.4,388.5 322.4,418.3 	"/>
	<path fill="#F4D9BE" d="M505.6,331.6c-1.9-2.6-11.8-9.8-11.8,5.2c0,15-3.8,33.4,3.5,33.4C504.5,370.3,516.1,345.6,505.6,331.6z"/>
	<g>
		<polyline fill="#8192A4" points="821.2,310.1 834.8,151.3 853.7,138.2 869.8,158 837.1,314.9 		"/>
		<polygon fill="#425059" points="643,280.3 667,504.9 686.3,501 694.8,444.7 706.4,444.7 721.7,503.8 732.8,505.3 753.1,280.3 		
			"/>
		<path fill="#F4D9BE" d="M632.2,388.2c0,0-5.9,34,22.3,34c28.2,0-9.4-47-9.4-47"/>
		<path fill="#425059" d="M626,298.6c0,0-8.3,82.8,7.2,98.3l24.3-8.7c0,0-25-62.2-14.6-92.4"/>
		<path fill="#F4D9BE" d="M810.6,316.2c22.2-1.8,29.2,15.6,24,32.3c-5.2,16.7-24,2.3-24,2.3"/>
		<path fill="#425059" d="M699.9,168.5c0,0-42.9-6.8-48.3,18.6c-4,19.1,19,117.1,19,117.1l16.6-68.2"/>
		<polygon fill="#425059" points="819.8,310.1 814.3,363.2 833,367 841.4,316.1 		"/>
		<path fill="#F4D9BE" d="M816.7,323c0,0,10.1,2.1,10.1,9.4s-14.1,14.6-21.9-4.7"/>
		<path fill="#425059" d="M753.8,293.7c0,0,38.3,20,56.8,22.5v34.7c0,0-18-0.8-64-46.7"/>
		<path fill="#8192A4" d="M703.4,280.3c0,0,62.4-21.3,62.4,17.6l-49,6.3"/>
		<path fill="#8192A4" d="M682.4,280.3c0,0-62.4-21.3-62.4,17.6l50.7,6.3"/>
		<rect x="670.7" y="194.5" fill="#F4D9BE" width="57.1" height="109.7"/>
		<path fill="#4A311A" d="M687.2,235.4c5.3,0,9.6-4.3,9.6-9.6h-19.2C677.6,231.1,681.9,235.4,687.2,235.4z"/>
		<path fill="#4A311A" d="M714.3,235.4c5.3,0,9.6-4.3,9.6-9.6h-19.2C704.7,231.1,709,235.4,714.3,235.4z"/>
		<path fill="#F4D9BE" d="M841.3,323c-1.9-2.6-11.8-9.8-11.8,5.2c0,15-3.8,33.4,3.5,33.4C840.3,361.6,851.8,336.9,841.3,323z"/>
		<path fill="#8192A4" d="M741,206.5h-84.1l42.1-44.8C698.9,161.7,744.9,161.1,741,206.5z"/>
		<polygon fill="#8192A4" points="778.6,303.3 763.9,324.3 771.2,331.5 786.5,306.7 		"/>
		<polyline fill="#8192A4" points="810.6,354 810.6,314.1 804.9,312.6 803.1,350.9 		"/>
		<polygon fill="#8192A4" points="660.7,346.4 699.9,346.4 703.4,316.1 709.3,346.4 741.2,350.9 706.6,351.9 704.5,345.1 701,354 		
			"/>
		<polygon fill="#8192A4" points="654.5,404.5 741.7,407.1 746.6,425.9 643,422.2 		"/>
		<polyline fill="#425059" points="732.8,505.3 746.6,511.2 722.2,511.2 718.3,490.7 		"/>
		<polyline fill="#425059" points="667,504.9 651.2,511.2 684.6,511.2 686.3,501 		"/>
		<circle fill="#8192A4" cx="654.5" cy="404.5" r="66.7"/>
		<circle fill="#425059" cx="654.5" cy="404.5" r="59.4"/>
		<polyline opacity="0.3" fill="#8192A4" points="590.7,384.8 648.3,466.1 607.9,361.6 670.7,464 614.8,350.9 699,449.4 
			713.7,429.6 651.2,340.3 626.6,346.4 597.9,369.1 		"/>
		<polyline opacity="0.4" fill="#8192A4" points="592.8,387.8 645,468.8 650.1,469.3 597.8,375.2 605.2,359.6 669.5,462.1 
			611,356.6 618.3,350.9 694.8,452.2 706,440 634.3,344.5 606.7,357.9 		"/>
		<circle fill="#425059" cx="654.5" cy="404.5" r="31.9"/>
		<circle fill="#8192A4" cx="654.5" cy="404.5" r="25.1"/>
		<circle fill="#425059" cx="654.5" cy="404.5" r="15.3"/>
		<polygon fill="#425059" points="808,309.6 852.9,322.1 853.6,313.7 809.5,302.5 		"/>
		<polygon fill="#9BB3C9" points="838.9,153.7 848,157.9 830.8,304.2 853.6,160.3 866.4,159.2 		"/>
		<polyline fill="#425059" points="709.8,173.8 733.2,201.1 716,168.2 		"/>
		<polyline fill="#425059" points="694.5,181 717.9,201.1 700.7,176.8 		"/>
		<polyline fill="#425059" points="684.8,190.1 699.9,201.1 688.7,187.8 		"/>
		<polygon fill="#FFC2C4" points="703.4,241.8 723.9,249.3 703.4,264.3 		"/>
	</g>
	<g>
		<g>
			<g>
				<g>
					<polyline fill="#6F774B" points="906.5,249.9 901.9,248.6 905.8,255.8 911.2,257.5 					"/>
					<polyline fill="#6F774B" points="907.7,249.3 909.1,244.7 913,252 911.4,257.4 					"/>
					<polyline fill="#4A311A" points="913.4,262.8 906.5,249.9 907.8,249.2 918.4,268.9 					"/>
				</g>
				<g>
					<polyline fill="#6F774B" points="919.1,243.1 914.6,241.8 918.5,249 923.9,250.7 					"/>
					<polyline fill="#6F774B" points="920.4,242.5 921.7,237.9 925.6,245.2 924,250.6 					"/>
					<polyline fill="#4A311A" points="926,256 919.1,243.1 920.5,242.4 931.1,262.1 					"/>
				</g>
				<g>
					<polyline fill="#6F774B" points="931.8,236.3 927.2,235 931.1,242.2 936.5,243.9 					"/>
					<polyline fill="#6F774B" points="933,235.7 934.4,231.1 938.3,238.4 936.7,243.8 					"/>
					<polyline fill="#4A311A" points="938.7,249.2 931.8,236.3 933.2,235.6 943.8,255.3 					"/>
				</g>
			</g>
			<g>
				<g>
					<polyline fill="#8D9968" points="895.4,245.1 888.7,243.1 894.5,253.9 902.5,256.3 					"/>
					<polyline fill="#8D9968" points="897.3,244.1 899.3,237.3 905.2,248.2 902.7,256.2 					"/>
					<polyline fill="#4A311A" points="905.7,264.3 895.4,245.1 897.5,244 913.3,273.5 					"/>
				</g>
				<g>
					<polyline fill="#8D9968" points="908,238.3 901.3,236.3 907.1,247.1 915.1,249.6 					"/>
					<polyline fill="#8D9968" points="909.9,237.3 911.9,230.6 917.8,241.4 915.3,249.5 					"/>
					<polyline fill="#4A311A" points="918.3,257.5 908,238.3 910.1,237.2 925.9,266.7 					"/>
				</g>
				<g>
					<polyline fill="#8D9968" points="920.6,231.6 913.9,229.5 919.7,240.4 927.7,242.8 					"/>
					<polyline fill="#8D9968" points="922.5,230.6 924.5,223.8 930.3,234.7 927.9,242.7 					"/>
					<polyline fill="#4A311A" points="930.9,250.7 920.6,231.6 922.7,230.5 938.5,259.9 					"/>
				</g>
				<g>
					<polyline fill="#8D9968" points="933.2,224.8 926.5,222.8 932.3,233.6 940.3,236 					"/>
					<polyline fill="#8D9968" points="935.1,223.8 937.1,217.1 942.9,227.9 940.5,235.9 					"/>
					<polyline fill="#4A311A" points="943.5,244 933.2,224.8 935.3,223.7 951.1,253.2 					"/>
				</g>
			</g>
			<g>
				
					<rect x="931.9" y="257.4" transform="matrix(0.881 -0.473 0.473 0.881 -33.2013 489.2419)" fill="#E94E1B" width="48.5" height="106.5"/>
				<circle fill="#F9B233" cx="981.4" cy="357.6" r="24.2"/>
				
					<rect x="898.4" y="249.9" transform="matrix(0.881 -0.473 0.473 0.881 -14.0045 471.7457)" fill="#F9B233" width="65.2" height="27.6"/>
			</g>
		</g>
		<path fill="#FFF9AE" d="M965.8,209.5c0,0-21.3,37.8-9.6,77.6l97.7,6.5c0,0-18.8-36.2-14.1-87.8"/>
		<polyline fill="#8D9968" points="964.9,191.8 951.9,191.8 950.5,189.2 942.9,186 944.6,184.7 935.5,179.9 933.3,173.4 
			944.9,174.5 950.3,179.5 950.3,175.7 957.6,181.6 959.5,179.5 965.8,189.2 		"/>
		<polygon fill="#8D9968" points="946.8,280.8 970.8,505.4 990.1,501.4 998.6,445.2 1010.2,445.2 1025.5,504.3 1036.7,505.7 
			1056.9,280.8 		"/>
		<polygon fill="#6F774B" points="958.3,405 1045.5,407.6 1060.5,450.7 946.8,452.1 		"/>
		<path fill="#F4D9BE" d="M936,388.7c0,0-5.9,34,22.3,34c28.2,0-9.4-47-9.4-47"/>
		<path fill="#8D9968" d="M946.8,280.8c0,0-42.9,83.5-9.8,116.6l24.3-8.7c0,0-25.9-34.2,0-84.1"/>
		<path fill="#F4D9BE" d="M1114.4,316.7c22.2-1.8,29.2,15.6,24,32.3c-5.2,16.7-24,2.3-24,2.3"/>
		<path fill="#4A311A" d="M1082.4,209.5c0,0,131.8,105.3,0,288.1C1082.4,497.6,1176.7,335.6,1082.4,209.5z"/>
		<path fill="#F4D9BE" d="M1120.5,323.4c0,0,10.1,2.1,10.1,9.4c0,7.3-14.1,14.6-21.9-4.7"/>
		<path fill="#8D9968" d="M1056.9,280.8c0,0,39,33.4,57.5,35.9v34.7c0,0-18-0.8-64-46.7"/>
		<polygon fill="#F4D9BE" points="1031.6,304.6 974.5,304.6 974.5,194.9 1031.6,195.7 		"/>
		<path fill="#4A311A" d="M991,235.9c5.3,0,9.6-4.3,9.6-9.6h-19.2C981.4,231.6,985.7,235.9,991,235.9z"/>
		<path fill="#4A311A" d="M1018.1,235.9c5.3,0,9.6-4.3,9.6-9.6h-19.2C1008.5,231.6,1012.8,235.9,1018.1,235.9z"/>
		<path fill="#F4D9BE" d="M1145.1,323.4c-1.9-2.6-11.8-9.8-11.8,5.2c0,15-3.8,33.4,3.5,33.4C1144.1,362.1,1155.6,337.4,1145.1,323.4
			z"/>
		<polyline fill="#8D9968" points="1036.7,505.7 1050.4,511.7 1026,511.7 1022.1,491.1 		"/>
		<polyline fill="#8D9968" points="970.8,505.4 955,511.7 988.5,511.7 990.1,501.4 		"/>
		<polygon fill="#FFC2C4" points="1007.2,242.3 1027.7,249.8 1007.2,264.8 		"/>
		<polygon fill="#6F774B" points="957.6,209.5 1060.5,209.5 978.1,168.9 970.5,198.4 		"/>
		<polyline fill="#6F774B" points="975.7,197.9 940,177.8 976.9,194.9 		"/>
		<rect x="970.1" y="280.8" fill="#8D9968" width="23.1" height="38.7"/>
		<rect x="1012.8" y="280.8" fill="#8D9968" width="22.7" height="38.7"/>
		<rect x="997.9" y="304.6" fill="#6F774B" width="9.8" height="30.4"/>
		<polyline fill="#F9B233" points="946.8,280.8 1045.5,407.6 1048.7,371.9 973.5,280.8 		"/>
		<polyline fill="#4A311A" points="1082.4,209.5 1082.4,497.6 1085.6,214 		"/>
	</g>
	<path fill="#F4D9BE" d="M974.5,233.3l-23.4-25.9c0,0,0.5,35.8,23.4,44.6"/>
	<path fill="#F4D9BE" d="M1027.7,235.7l20.4-22.6c0,0-0.4,31.2-20.4,38.9"/>
	<g>
		<polygon fill="#A3B9CC" points="825.8,643.4 822.4,618.7 839.3,584.7 845.7,624.3 837.9,647.5 		"/>
		<rect x="680" y="617.4" fill="#A3B9CC" width="23.6" height="11.1"/>
		<g>
			<path fill="#F39200" d="M433.5,652.6c-17.4,0-37-13.6-37-13.6l0,0c-3.3-3.4-7.1-6.5-11.1-9.2c17.2-2.9,23.1-13.5,23.1-13.5
				c-9.7,9.7-49.6,2.1-49.6,2.1l0,0c-23-5.4-47.9-0.9-62.1,16.7c0,0-28.9,8.3-35.5,39.1v0v0c-1,4.8-1.5,10.2-1.3,16.2
				c-1.6,12.2-5.1,28-12.7,35.7c0,0,8.4-7.4,15.6-17.2c2.8,10.9,7.6,23.3,15.4,37.4l111.4-10.6c0,0,6.8-8.6,12.9-21.4
				c0.6,5.7,2.4,11.2,5.9,15.7c0,0-2.2-14.5,1.4-36c0.6-2.4,1.1-4.9,1.4-7.4c0,0,0-0.1,0-0.1l0,0c1.5-10.7,0.7-22.1-4.5-32.9
				c-0.3-0.7-0.7-1.4-1.1-2.1C420.6,656.6,433.5,652.6,433.5,652.6z"/>
			<polygon fill="#936037" points="278.2,741.1 306.3,892.9 328.9,890.2 338.8,852.2 352.3,852.2 370.3,892.1 383.3,893.1 
				407,741.1 			"/>
			<path fill="#936037" d="M261.5,755.1c0,0-24.6,85.3-9.1,100.8l32.1-12.4c0,0-1.2-58.6,9.2-88.9"/>
			<path fill="#F4D9BE" d="M455.1,777c22.2-1.8,29.2,15.6,24,32.3c-5.2,16.7-24,2.3-24,2.3"/>
			<polygon fill="#4A311A" points="476.9,647.4 458.8,824 477.6,827.8 499.9,650.9 			"/>
			<path fill="#F4D9BE" d="M461.3,783.8c0,0,10.1,2.1,10.1,9.4c0,7.3-14.1,14.6-21.9-4.7"/>
			<path fill="#936037" d="M402.9,741.1c0,0,33.8,33.4,52.3,35.9v34.7c0,0-35.4,10-81.4-36"/>
			<path fill="#CA9E67" d="M346.7,751c0,0,61.5-42.1,73.4-5l-51.5,23.1"/>
			<path fill="#CA9E67" d="M316.1,741.1c0,0-62.4-21.3-62.4,17.6l50.7,6.3"/>
			<rect x="297.9" y="655.3" fill="#F4D9BE" width="91.7" height="109.7"/>
			<path fill="#4A311A" d="M331.8,696.2c5.3,0,9.6-4.3,9.6-9.6h-19.2C322.2,691.9,326.5,696.2,331.8,696.2z"/>
			<path fill="#4A311A" d="M375.6,696.2c5.3,0,9.6-4.3,9.6-9.6H366C366,691.9,370.3,696.2,375.6,696.2z"/>
			<path fill="#F4D9BE" d="M485.8,783.8c-1.9-2.6-11.8-9.8-11.8,5.2c0,15-3.8,33.4,3.5,33.4C484.8,822.4,496.4,797.7,485.8,783.8z"
				/>
			<polyline fill="#CA9E67" points="455.1,814.8 455.1,774.9 449.5,773.4 447.6,811.7 			"/>
			<polygon fill="#CA9E67" points="298.9,785.7 344.8,785.7 348.9,765.3 355.8,785.7 393.1,788.8 352.6,789.5 350.2,784.9 
				346,790.9 			"/>
			<polygon fill="#CA9E67" points="291.6,825 393.7,826.8 399.5,839.5 278.2,837 			"/>
			<polyline fill="#936037" points="383.3,893.1 399.5,897.2 370.8,897.2 366.3,883.3 			"/>
			<g>
				<path fill="#F4D9BE" d="M258.6,820.7c0,0-4.7,26.9,17.6,26.9c22.3,0-7.4-37.2-7.4-37.2"/>
				<polyline fill="#425059" points="281.9,855.4 267.3,858.8 298.3,858.8 299.8,853.3 				"/>
				<circle fill="#CA9E67" cx="276.2" cy="833.6" r="52.8"/>
				<circle fill="#7D4E24" cx="276.2" cy="833.6" r="47"/>
				<polyline opacity="0.3" fill="#CA9E67" points="225.7,818 271.3,882.3 239.3,799.6 289,880.6 244.8,791.1 311.5,869.1 
					323,853.4 273.6,782.8 254.2,787.6 231.5,805.6 				"/>
				<polyline opacity="0.4" fill="#CA9E67" points="227.4,820.4 268.7,884.5 272.7,884.8 231.3,810.4 237.2,798 288.1,879.1 
					241.8,795.7 247.6,791.1 308.1,871.3 317,861.6 260.3,786 238.4,796.7 				"/>
				<circle fill="#7D4E24" cx="276.2" cy="833.6" r="25.3"/>
				<circle fill="#CA9E67" cx="276.2" cy="833.6" r="19.8"/>
				<circle fill="#7D4E24" cx="276.2" cy="833.6" r="12.1"/>
			</g>
			<path fill="#F39200" d="M397.7,658.2c0,0-22.2,10.4-44.1,12.5l1.7-6.3c0,0-30.2-1-35.8,8c0,0-0.9-5.7,2.7-11.5
				c0,0-20.4,11.5-43,11.5c-22.6,0,16.5-27.5,16.5-27.5l83.4-5.9"/>
			<path fill="#F9B233" d="M292.9,707.9c0,0,5.3,16.6,21.5,18.3s27.4-11.6,39.3-3.8c4,2.6,9.1,12.8-14.2,12.8
				C316.1,735.3,283.7,735.3,292.9,707.9z"/>
			<path fill="#F9B233" d="M400.3,723.4c0,0-3.7,9.2-21.2,4.2c-13.2-3.7-12.5-13-22.5-5.1c-3.4,2.6-7.7,12.8,12,12.8
				S400.3,737.8,400.3,723.4z"/>
			<path fill="#F9B233" d="M296.8,720.5c0,0-14.2,27.4-11.5,36.1l7.6-4.2c0,0-3,20.4,9.2,27.4l6-6.4c0,0,24.3,17.3,43.6,22.5
				c0,0,16.9-11.4,22.1-20.2v8.1c0,0,10-3.1,14.2-12.9c0,0,6.8,2.3,9.7,8.9c0,0,6-38.5-10.7-49.6h-1.1l-15.5-2.1c0,0-1.9,13-13.3,13
				s-15.6-12.7-15.6-12.7l-10.4,4.9"/>
			<path fill="#FFC2C4" d="M370.3,711c0.8,5.4-10.7,16.8-15.9,15c-6-2-9.8-22-4.2-25.1C355,698.2,369.4,705.5,370.3,711z"/>
			<polyline fill="#936037" points="328.9,890.2 327.9,897.2 296.1,897.2 306.3,892.9 			"/>
			<g>
				<path fill="#8192A4" d="M531.9,659l0.4-3.2c-20.8,21.3-74.9,5-74.9,5l-3.1,31.2c33.3-5.6,58.3,15.9,69,27.4l0,0
					C547.1,695.7,535.5,666.4,531.9,659z"/>
				<path fill="#A3B9CC" d="M535.8,651.5c-1,1.6-2.2,3-3.5,4.4l-1.9,1.7c3.6,7.5,16.6,38.1-7.1,61.8l0,0c3.8,4,5.8,6.8,5.8,6.8
					C561.1,690.3,535.8,651.5,535.8,651.5z"/>
			</g>
		</g>
		<polygon fill="#425059" points="626.2,741.1 654.4,892.9 676.9,890.2 686.9,852.2 700.4,852.2 718.4,892.1 731.4,893.1 
			755.1,741.1 		"/>
		<path fill="#425059" d="M626.2,741.1c0,0-41.3,99.3-25.8,114.8l32.1-12.4c0,0-1.2-58.6,9.2-88.9"/>
		<path fill="#425059" d="M803.2,777c22.2-1.8,29.2,15.6,24,32.3c-5.2,16.7-24,2.3-24,2.3"/>
		<polygon fill="#CA9E67" points="824.2,647.4 808.5,899.1 818.6,899.1 838.9,650.9 		"/>
		<path fill="#425059" d="M809.3,783.8c0,0,10.1,2.1,10.1,9.4c0,7.3-14.1,14.6-21.9-4.7"/>
		<path fill="#425059" d="M755.1,741.1c0,0,29.6,33.4,48.1,35.9v34.7c0,0-26.3,5.6-72.3-40.4"/>
		<rect x="646" y="655.3" fill="#425059" width="91.7" height="109.7"/>
		<path fill="#E30613" d="M679.9,696.2c5.3,0,9.6-4.3,9.6-9.6h-19.2C670.3,691.9,674.6,696.2,679.9,696.2z"/>
		<path fill="#E30613" d="M723.7,696.2c5.3,0,9.6-4.3,9.6-9.6h-19.2C714.1,691.9,718.4,696.2,723.7,696.2z"/>
		<path fill="#425059" d="M833.9,783.8c-1.9-2.6-11.8-9.8-11.8,5.2c0,15-3.8,33.4,3.5,33.4C832.9,822.4,844.4,797.7,833.9,783.8z"/>
		<polyline fill="#CA9E67" points="803.2,814.8 803.2,774.9 797.5,773.4 795.7,811.7 		"/>
		<polygon fill="#566872" points="646.9,785.7 692.9,785.7 696.9,765.3 703.9,785.7 741.2,788.8 700.7,789.5 698.3,784.9 
			694.1,790.9 		"/>
		<polygon fill="#8192A4" points="639.7,825 741.8,829.6 747.5,862.7 626.2,856.1 		"/>
		<polyline fill="#425059" points="731.4,893.1 747.5,897.2 718.9,897.2 714.4,883.3 		"/>
		<path fill="#F4D9BE" d="M606.6,820.7c0,0-4.7,26.9,17.6,26.9c22.3,0-7.4-37.2-7.4-37.2"/>
		<polyline fill="#425059" points="630,855.4 615.3,858.8 646.4,858.8 647.9,853.3 		"/>
		<circle fill="#CA9E67" cx="624.3" cy="833.6" r="52.8"/>
		<circle fill="#B17F4A" cx="624.3" cy="833.6" r="47"/>
		<polyline opacity="0.3" fill="#CA9E67" points="573.8,818 619.4,882.3 587.4,799.6 637.1,880.6 592.9,791.1 659.6,869.1 
			671.1,853.4 621.7,782.8 602.2,787.6 579.5,805.6 		"/>
		<polyline opacity="0.4" fill="#CA9E67" points="575.5,820.4 616.8,884.5 620.8,884.8 579.4,810.4 585.3,798 636.2,879.1 
			589.9,795.7 595.6,791.1 656.2,871.3 665.1,861.6 608.4,786 586.5,796.7 		"/>
		<circle fill="#CA9E67" cx="624.3" cy="833.6" r="25.3"/>
		<circle fill="#B17F4A" cx="624.3" cy="833.6" r="19.8"/>
		<circle fill="#CA9E67" cx="624.3" cy="833.6" r="12.1"/>
		<path fill="#8192A4" d="M739,672c1.4-4.6,2.2-9.6,2.2-14.7c0-27.3-22.1-34.4-49.4-34.4s-49.4,7.1-49.4,34.4c0,5.1,0.8,10,2.2,14.7
			H739z"/>
		<polyline fill="#425059" points="676.9,890.2 675.9,897.2 644.1,897.2 654.4,892.9 		"/>
		<path fill="#4A311A" d="M698.9,706.7c0,0-6.2,7.7-3.4,10.4S702.8,710.5,698.9,706.7z"/>
		<path fill="#4A311A" d="M708.1,706.7c0,0,6.2,7.7,3.4,10.4S704.2,710.5,708.1,706.7z"/>
		<rect x="637.6" y="657.3" fill="#A3B9CC" width="108.4" height="19.5"/>
		<polyline fill="#8192A4" points="686.3,617.4 691.9,595.1 697.6,617.4 		"/>
		<polygon fill="#8192A4" points="816.8,670.5 841,678.2 844.1,647.5 818.4,640.6 		"/>
		<g>
			<path fill="#F4D9BE" d="M919.4,808.3c0,0-20,14.1-5.9,28.2c14.2,14.2,18.9-28.3,18.9-28.3"/>
			<polyline fill="#F4D9BE" points="1033,696 1005.1,734.3 972.4,696 992.4,681.9 967.4,736 930.4,820.5 917.7,811.3 963.3,678.8 
				983.7,678.8 992.9,691.7 			"/>
			<path fill="#EDEDED" d="M1004.8,573.9c0,0-34.2-10.6-38.7,15.5c-4.5,26.1,0,138.8,0,138.8h79.2c0,0,2.1-135.5-4.3-143.3
				C1034.6,577,1032.1,566.8,1004.8,573.9z"/>
			<path fill="#F4D9BE" d="M1115.8,739.7c0,0,18.8,11.4,24-1.9c5.2-13.2-1.8-27.1-24-25.7"/>
			<polygon fill="#00FFFF" points="1125.1,897.1 1142.6,897.1 1133.9,593.8 			"/>
			<path fill="#F4D9BE" d="M1126.4,717.1c0,0,7.5,1.5,7.5,6.9s-10.4,10.8-16.2-3.5"/>
			<polyline fill="#996483" points="1042,681.4 1122.6,696 1119.5,775.9 1025.3,726.6 			"/>
			<polyline fill="#996483" points="963.3,678.8 948.2,897.1 1062,897.1 1042,681.4 			"/>
			<rect x="975.8" y="586.3" fill="#F4D9BE" width="57.1" height="109.7"/>
			<polygon fill="#FFC2C4" points="1008.6,633.7 1019.5,642.5 1008.6,656.2 			"/>
			<path fill="#4A311A" d="M992.4,627.3c5.3,0,9.6-4.3,9.6-9.6h-19.2C982.8,623,987.1,627.3,992.4,627.3z"/>
			<path fill="#4A311A" d="M1019.5,627.3c5.3,0,9.6-4.3,9.6-9.6h-19.2C1009.9,623,1014.2,627.3,1019.5,627.3z"/>
			<path fill="#F4D9BE" d="M1144.8,721.5c-1.2-1.6-7.3-6-7.3,3.2s-2.3,20.5,2.1,20.5C1144.2,745.2,1151.3,730.1,1144.8,721.5z"/>
			<path fill="#F4D9BE" d="M958.7,755.8"/>
			<path fill="#845A78" d="M1020.4,734.1c-6.5,0-12.2-3.5-15.3-8.7c-3.1,5.2-8.8,8.7-15.3,8.7c-9,0-16.5-6.7-17.6-15.5
				c-0.1,0.8-0.2,1.5-0.2,2.3c0,9.8,8,17.8,17.8,17.8c6.5,0,12.2-3.5,15.3-8.7c3.1,5.2,8.8,8.7,15.3,8.7c9.8,0,17.8-8,17.8-17.8
				c0-0.8-0.1-1.6-0.2-2.3C1036.9,727.3,1029.5,734.1,1020.4,734.1z"/>
			<path fill="#FFFFFF" d="M972,613.7h66.2c0,0,9.5-22.8,0-32.3s-61.1-11.5-68.4,3.1S972,613.7,972,613.7z"/>
			<polyline fill="#996483" points="975.8,679.6 1005.1,696 1033,681.4 1038.2,697.8 1006.8,705.1 975.4,701.3 			"/>
			<circle fill="#FFED00" cx="1132.9" cy="613.7" r="23.7"/>
			<radialGradient id="SVGID_3_" cx="1132.8857" cy="613.7062" r="43.7092" gradientUnits="userSpaceOnUse">
				<stop  offset="0" style="stop-color:#FFED00"/>
				<stop  offset="1" style="stop-color:#FFED00;stop-opacity:0"/>
			</radialGradient>
			<circle fill="url(#SVGID_3_)" cx="1132.9" cy="613.7" r="43.7"/>
			<circle fill="#F9B233" cx="1132.9" cy="613.7" r="14.5"/>
			<circle fill="#FFFFFF" cx="1132.9" cy="613.7" r="8.5"/>
			<path fill="#00FFFF" d="M1029.4,681.4c-2,14.9-12.1,26.3-24.3,26.3c-12.2,0-22.5-13-24.5-27.9l-6.1-0.7
				c2.1,18.4,15,34.8,30.6,34.8c15.6,0,28.5-14.9,30.6-33.3L1029.4,681.4z"/>
			<circle fill="#FFED00" cx="1005.1" cy="711" r="9.7"/>
			<circle fill="#FFFFFF" cx="1009.3" cy="706.8" r="2.9"/>
			<circle fill="#FFFFFF" cx="1000.1" cy="716" r="2"/>
		</g>
	</g>
</g>
<polyline fill="#AB0042" points="1241.2,752.6 1281.2,758.1 1261.5,815.1 1315,809 1306.4,844.1 1259,834.7 1259.6,881.9 
	1217.2,867.7 1237.3,831.8 1185.7,826.4 1193.6,788.8 1240.7,810.8 "/>
</svg>
