<?xml version="1.0" encoding="UTF-8" standalone="no"?>
<!-- Created with Inkscape (http://www.inkscape.org/) -->

<svg
   width="100mm"
   height="100mm"
   viewBox="0 0 100 100"
   version="1.1"
   id="svg86854"
   inkscape:version="1.1 (ce6663b3b7, 2021-05-25)"
   sodipodi:docname="sun.svg"
   xmlns:inkscape="http://www.inkscape.org/namespaces/inkscape"
   xmlns:sodipodi="http://sodipodi.sourceforge.net/DTD/sodipodi-0.dtd"
   xmlns:xlink="http://www.w3.org/1999/xlink"
   xmlns="http://www.w3.org/2000/svg"
   xmlns:svg="http://www.w3.org/2000/svg">
  <sodipodi:namedview
     id="namedview86856"
     pagecolor="#505050"
     bordercolor="#eeeeee"
     borderopacity="1"
     inkscape:pageshadow="0"
     inkscape:pageopacity="0"
     inkscape:pagecheckerboard="0"
     inkscape:document-units="mm"
     showgrid="false"
     width="209mm"
     inkscape:zoom="1.2432572"
     inkscape:cx="59.92324"
     inkscape:cy="184.59575"
     inkscape:window-width="1306"
     inkscape:window-height="704"
     inkscape:window-x="1426"
     inkscape:window-y="27"
     inkscape:window-maximized="1"
     inkscape:current-layer="g2104" />
  <defs
     id="defs86851">
    <path
       id="SVGID_1_"
       d="M497.6,486c40.7,6,72,41.1,72,83.5c0,42.4-31.3,77.5-72,83.5c-40.7-6-72-41.1-72-83.5      C425.6,527,456.9,491.9,497.6,486z" />
    <path
       id="SVGID_3_"
       d="M302.2,489.1c34,10.9,58.5,42.8,58.5,80.3s-24.6,69.4-58.5,80.3c-33.9-10.9-58.5-42.8-58.5-80.3     S268.2,500,302.2,489.1z" />
  </defs>
  <g
     inkscape:label="Camada 1"
     inkscape:groupmode="layer"
     id="layer1">
    <g
       id="g88942"
       transform="matrix(0.26458333,0,0,0.26458333,-392.95964,-117.89612)">
      <g
         id="Layer_2">
        <g
           id="g87753">
          <g
             id="g87715" />
          <g
             id="g87719" />
          <g
             id="g87723" />
          <g
             id="g87727" />
          <g
             id="g87731" />
          <g
             id="g87735" />
          <g
             id="g87739" />
          <g
             id="g87743" />
          <g
             id="g87747" />
          <g
             id="g87751" />
        </g>
        <g
           id="g87795" />
        <g
           id="g87839" />
        <g
           id="g87887">
          <g
             id="g87883" />
        </g>
        <g
           id="g87931"
           transform="translate(979.62159,67.335371)">
          <g
             id="g87929">
            <circle
               class="st2"
               cx="694.79999"
               cy="569.40002"
               r="84.400002"
               id="circle87889" />
            <ellipse
               transform="matrix(0.9046,0.4263,-0.4263,0.9046,290.9369,-222.7333)"
               class="st3"
               cx="643.09998"
               cy="538.59998"
               rx="14.3"
               ry="20.5"
               id="ellipse87891" />
            <ellipse
               transform="matrix(0.739,-0.6737,0.6737,0.739,-160.3968,637.5465)"
               class="st4"
               cx="742.70001"
               cy="525.79999"
               rx="11.6"
               ry="18.6"
               id="ellipse87893" />
            <ellipse
               transform="matrix(0.9494,-0.314,0.314,0.9494,-137.4094,259.0691)"
               class="st4"
               cx="735.5"
               cy="556.09998"
               rx="5.5"
               ry="8.8000002"
               id="ellipse87895" />
            <ellipse
               transform="matrix(0.3872,-0.922,0.922,0.3872,-116.9431,991.8032)"
               class="st4"
               cx="687.59998"
               cy="583.90002"
               rx="5.5"
               ry="8.8000002"
               id="ellipse87897" />
            <ellipse
               transform="matrix(-0.3778,-0.9259,0.9259,-0.3778,379.6282,1452.6058)"
               class="st4"
               cx="677.90002"
               cy="598.79999"
               rx="2.5999999"
               ry="4.0999999"
               id="ellipse87899" />
            <ellipse
               transform="matrix(0.6143,-0.7891,0.7891,0.6143,-189.4563,781.5445)"
               class="st4"
               cx="704.79999"
               cy="584.59998"
               rx="2.5999999"
               ry="4.0999999"
               id="ellipse87901" />
            <ellipse
               transform="matrix(0.6143,-0.7891,0.7891,0.6143,-156.1765,755.1472)"
               class="st4"
               cx="694.40002"
               cy="537.29999"
               rx="1.3"
               ry="2.0999999"
               id="ellipse87903" />
            <ellipse
               transform="matrix(0.6144,-0.789,0.789,0.6144,-241.8018,760.3461)"
               class="st4"
               cx="657"
               cy="627.59998"
               rx="1.3"
               ry="2.0999999"
               id="ellipse87905" />
            <ellipse
               transform="matrix(-0.5471,-0.8371,0.8371,-0.5471,515.8283,1548.2554)"
               class="st4"
               cx="676.79999"
               cy="634.59998"
               rx="1.3"
               ry="2.0999999"
               id="ellipse87907" />
            <ellipse
               transform="matrix(0.9494,-0.3141,0.3141,0.9494,-149.9871,225.1303)"
               class="st4"
               cx="623.70001"
               cy="578.09998"
               rx="3.7"
               ry="6"
               id="ellipse87909" />
            <ellipse
               transform="matrix(0.9495,-0.3139,0.3139,0.9495,-151.1352,229.1053)"
               class="st4"
               cx="635.90002"
               cy="583.90002"
               rx="2.5"
               ry="4"
               id="ellipse87911" />
            <ellipse
               transform="matrix(-0.7772,-0.6292,0.6292,-0.7772,853.9844,1317.3181)"
               class="st4"
               cx="660.20001"
               cy="507.5"
               rx="2.5"
               ry="4"
               id="ellipse87913" />
            <ellipse
               transform="matrix(-0.7772,-0.6293,0.6293,-0.7772,881.817,1324.1139)"
               class="st4"
               cx="675.29999"
               cy="505.89999"
               rx="1.1"
               ry="1.8"
               id="ellipse87915" />
            <ellipse
               transform="matrix(-0.7772,-0.6293,0.6293,-0.7772,897.2715,1586.8698)"
               class="st4"
               cx="729.59998"
               cy="634.59998"
               rx="2.7"
               ry="4.3000002"
               id="ellipse87917" />
            <ellipse
               transform="matrix(0.1323,0.9912,-0.9912,0.1323,1251.2236,-143.8006)"
               class="st4"
               cx="707.70001"
               cy="642.70001"
               rx="1.9"
               ry="3"
               id="ellipse87919" />
            <ellipse
               transform="matrix(-0.8728,0.4881,-0.4881,-0.8728,1642.6564,833.4515)"
               class="st4"
               cx="712.70001"
               cy="630.79999"
               rx="3.5999999"
               ry="5.8000002"
               id="ellipse87921" />
            <ellipse
               transform="matrix(0.6517,0.7585,-0.7585,0.6517,721.5318,-336.873)"
               class="st4"
               cx="727.59998"
               cy="617.20001"
               rx="3.5999999"
               ry="5.8000002"
               id="ellipse87923" />
            <ellipse
               transform="matrix(0.6163,-0.7875,0.7875,0.6163,-230.4181,724.6118)"
               class="st4"
               cx="628.40002"
               cy="598.79999"
               rx="4.5999999"
               ry="7.4000001"
               id="ellipse87925" />
            <ellipse
               transform="matrix(0.8914,0.4532,-0.4532,0.8914,336.5821,-282.4995)"
               class="st4"
               cx="757.90002"
               cy="561.20001"
               rx="5.5"
               ry="8.8000002"
               id="ellipse87927" />
          </g>
        </g>
        <g
           id="g87975">
          <g
             id="g87973" />
        </g>
        <g
           id="g88021">
          <g
             id="g88017" />
        </g>
        <g
           id="g88075">
          <g
             id="g88073">
            <defs
               id="defs88026">
              <path
                 id="path88689"
                 d="m 497.6,486 c 40.7,6 72,41.1 72,83.5 0,42.4 -31.3,77.5 -72,83.5 -40.7,-6 -72,-41.1 -72,-83.5 0,-42.5 31.3,-77.6 72,-83.5 z" />
            </defs>
            <clipPath
               id="SVGID_2_">
              <use
                 xlink:href="#SVGID_1_"
                 style="overflow:visible"
                 id="use88028"
                 x="0"
                 y="0"
                 width="100%"
                 height="100%" />
            </clipPath>
            <g
               class="st6"
               clip-path="url(#SVGID_2_)"
               id="g88071" />
          </g>
        </g>
        <g
           id="g88079" />
        <g
           id="g88131">
          <defs
             id="defs88084">
            <path
               id="path88720"
               d="m 302.2,489.1 c 34,10.9 58.5,42.8 58.5,80.3 0,37.5 -24.6,69.4 -58.5,80.3 -33.9,-10.9 -58.5,-42.8 -58.5,-80.3 0,-37.5 24.5,-69.4 58.5,-80.3 z" />
          </defs>
          <clipPath
             id="SVGID_4_">
            <use
               xlink:href="#SVGID_3_"
               style="overflow:visible"
               id="use88086"
               x="0"
               y="0"
               width="100%"
               height="100%" />
          </clipPath>
          <g
             class="st7"
             clip-path="url(#SVGID_4_)"
             id="g88129" />
        </g>
        <g
           id="g88175">
          <g
             id="g88173" />
        </g>
        <g
           id="g88179" />
        <g
           id="g88227">
          <g
             id="g88223" />
        </g>
        <g
           id="g88233" />
        <g
           id="g88241">
          <g
             id="g88239" />
        </g>
        <g
           id="g88247" />
        <g
           id="g88253" />
        <g
           id="g88259" />
        <g
           id="g88265" />
        <g
           id="g88271" />
        <g
           id="g88277" />
        <g
           id="g88283" />
        <g
           id="g88289" />
        <g
           id="g88295" />
        <g
           id="g88301" />
        <g
           id="g88307" />
        <g
           id="g88313" />
        <g
           id="g88319" />
        <g
           id="g88323" />
        <g
           id="g88373">
          <g
             id="g88369">
            <g
               id="g88367" />
          </g>
        </g>
        <g
           id="g88421">
          <g
             id="g88417">
            <g
               id="g88415" />
          </g>
        </g>
        <g
           id="g88469">
          <g
             id="g88465">
            <g
               id="g88463" />
          </g>
        </g>
        <path
           id="circle88491"
           class="st1"
           transform="translate(1485.2018,445.59164)"
           d="m -301.85156,-389.08008 c -1.06735,0.16628 -2.16423,0.29746 -2.97461,0.56446 a 2.7999999,2.7999999 0 0 0 -0.21094,0.21874 c 1.32468,-0.11014 2.865,-0.009 4.22266,-0.0586 a 2.7999999,2.7999999 0 0 0 -1.03711,-0.72461 z" />
      </g>
      <g
         id="g2104"
         transform="translate(-144.35118,-9.988969)">
        <g
           id="g1222"
           transform="matrix(0.88749704,0,0,0.88749704,1309.9509,380.32381)">
	<g
   id="g1140">
		<circle
   fill="#fbb03a"
   cx="574.40002"
   cy="301.29999"
   r="95.5"
   id="circle1132" />

		<path
   fill="#fec13a"
   d="m 627.3,221.8 v 0 c -15.2,-10.1 -33.4,-16 -53,-16 -52.8,0 -95.5,42.8 -95.5,95.5 0,28.5 12.5,54 32.2,71.5 v 0 c 133.1,23.3 150.3,-111.2 116.3,-151 z"
   id="path1134" />

		<path
   fill="#ffce3a"
   d="M 503.1,237.7 C 467.3,281.4 482,357.3 543.4,347.1 620.9,334.3 641,251.8 608.7,222.8 574.4,192 526.2,209.5 503.1,237.7 Z"
   id="path1136" />

		
			<ellipse
   transform="matrix(0.7528,-0.6583,0.6583,0.7528,-27.2041,410.6797)"
   opacity="0.26"
   fill="#ffffff"
   cx="533.09998"
   cy="241.60001"
   rx="35.099998"
   ry="11.6"
   id="ellipse1138" />

	</g>

	<g
   id="g1150">
		<path
   fill="#fbb03a"
   d="m 593.3,182.7 c -0.5,-8.8 -6.6,-37.2 -18.9,-37.2 -12.3,0 -18.4,28.4 -18.9,37.2 -0.5,8.8 1.3,15.3 18.9,15.3 17.6,0 19.4,-6.4 18.9,-15.3 z"
   id="path1142" />

		<path
   fill="#fec13a"
   d="m 574.6,145.5 c -0.1,0 -0.1,0 -0.2,0 -12.3,0 -18.4,28.4 -18.9,37.2 -0.2,3.4 0,6.4 1.2,8.9 6.7,5.9 19.1,5.6 25,-2.2 6.6,-8.6 3.5,-40.2 -7.1,-43.9 z"
   id="path1144" />

		<path
   fill="#ffce3a"
   d="m 572.8,148.7 c -5,-0.2 -12.3,7.6 -14.7,19.6 -2.4,12 -2.6,19.7 11,19.5 13.6,-0.2 8.9,-28.1 8,-33.2 -0.9,-5.1 -4.3,-5.9 -4.3,-5.9 z"
   id="path1146" />

		
			<ellipse
   transform="matrix(0.1275,-0.9918,0.9918,0.1275,328.0518,705.3143)"
   opacity="0.26"
   fill="#ffffff"
   cx="564.90002"
   cy="166.2"
   rx="5.5999999"
   ry="2.7"
   id="ellipse1148" />

	</g>

	<g
   id="g1160">
		<path
   fill="#fbb03a"
   d="m 671.6,230.8 c 5.9,-6.6 21.6,-31 13,-39.7 -8.7,-8.7 -33.1,7.1 -39.7,13 -6.6,5.9 -9.9,11.7 2.6,24.2 12.4,12.4 18.2,9.2 24.1,2.5 z"
   id="path1152" />

		<path
   fill="#fec13a"
   d="m 684.7,191.3 c 0,-0.1 -0.1,-0.1 -0.1,-0.2 -8.7,-8.7 -33.1,7.1 -39.7,13 -2.5,2.3 -4.6,4.5 -5.4,7.1 0.6,8.9 9.6,17.5 19.2,16.2 10.8,-1.5 30.9,-25.9 26,-36.1 z"
   id="path1154" />

		<path
   fill="#ffce3a"
   d="m 681.1,192.3 c -3.4,-3.7 -14,-3.3 -24.2,3.5 -10.2,6.8 -15.8,12 -6,21.6 9.8,9.5 26.2,-13.6 29.1,-17.8 2.9,-4.2 1.1,-7.3 1.1,-7.3 z"
   id="path1156" />

		
			<ellipse
   transform="matrix(0.7915,-0.6112,0.6112,0.7915,16.6139,446.8676)"
   opacity="0.26"
   fill="#ffffff"
   cx="663.20001"
   cy="199.10001"
   rx="5.5999999"
   ry="2.7"
   id="ellipse1158" />

	</g>

	<g
   id="g1170">
		<path
   fill="#fbb03a"
   d="m 693,320.2 c 8.8,-0.5 37.2,-6.6 37.2,-18.9 0,-12.3 -28.4,-18.4 -37.2,-18.9 -8.8,-0.5 -15.3,1.3 -15.3,18.9 0,17.7 6.4,19.4 15.3,18.9 z"
   id="path1162" />

		<path
   fill="#fec13a"
   d="m 730.2,301.5 c 0,-0.1 0,-0.1 0,-0.2 0,-12.3 -28.4,-18.4 -37.2,-18.9 -3.4,-0.2 -6.4,0 -8.9,1.2 -5.9,6.7 -5.6,19.1 2.2,25 8.6,6.6 40.2,3.6 43.9,-7.1 z"
   id="path1164" />

		<path
   fill="#ffce3a"
   d="m 727,299.7 c 0.2,-5 -7.6,-12.3 -19.6,-14.7 -12,-2.4 -19.7,-2.6 -19.5,11 0.2,13.6 28.1,8.9 33.2,8 5,-0.9 5.9,-4.3 5.9,-4.3 z"
   id="path1166" />

		
			<ellipse
   transform="matrix(0.1275,-0.9918,0.9918,0.1275,329.5621,958.3737)"
   opacity="0.26"
   fill="#ffffff"
   cx="709.5"
   cy="291.89999"
   rx="2.7"
   ry="5.5999999"
   id="ellipse1168" />

	</g>

	<g
   id="g1180">
		<path
   fill="#fbb03a"
   d="m 644.9,398.5 c 6.6,5.9 31,21.6 39.7,13 8.7,-8.7 -7.1,-33.1 -13,-39.7 -5.9,-6.6 -11.7,-9.9 -24.2,2.6 -12.4,12.5 -9.2,18.2 -2.5,24.1 z"
   id="path1172" />

		<path
   fill="#fec13a"
   d="m 684.4,411.6 c 0.1,0 0.1,-0.1 0.2,-0.1 8.7,-8.7 -7.1,-33.1 -13,-39.7 -2.3,-2.5 -4.5,-4.6 -7.1,-5.4 -8.9,0.6 -17.5,9.6 -16.2,19.2 1.5,10.8 26,30.9 36.1,26 z"
   id="path1174" />

		<path
   fill="#ffce3a"
   d="m 683.4,408.1 c 3.7,-3.4 3.3,-14 -3.5,-24.2 -6.8,-10.2 -12,-15.8 -21.6,-6 -9.5,9.8 13.6,26.2 17.8,29.1 4.3,2.9 7.3,1.1 7.3,1.1 z"
   id="path1176" />

		
			<ellipse
   transform="matrix(0.7915,-0.6112,0.6112,0.7915,-97.395,494.8907)"
   opacity="0.26"
   fill="#ffffff"
   cx="676.59998"
   cy="390.20001"
   rx="2.7"
   ry="5.5999999"
   id="ellipse1178" />

	</g>

	<g
   id="g1190">
		<path
   fill="#fbb03a"
   d="m 555.5,419.9 c 0.5,8.8 6.6,37.2 18.9,37.2 12.3,0 18.4,-28.4 18.9,-37.2 0.5,-8.8 -1.3,-15.3 -18.9,-15.3 -17.7,0 -19.4,6.5 -18.9,15.3 z"
   id="path1182" />

		<path
   fill="#fec13a"
   d="m 574.2,457.1 c 0.1,0 0.1,0 0.2,0 12.3,0 18.4,-28.4 18.9,-37.2 0.2,-3.4 0,-6.4 -1.2,-8.9 -6.7,-5.9 -19.1,-5.6 -25,2.2 -6.6,8.7 -3.6,40.2 7.1,43.9 z"
   id="path1184" />

		<path
   fill="#ffce3a"
   d="m 576,453.9 c 5,0.2 12.3,-7.6 14.7,-19.6 2.4,-12 2.6,-19.7 -11,-19.5 -13.6,0.2 -8.9,28.1 -8,33.2 0.9,5.1 4.3,5.9 4.3,5.9 z"
   id="path1186" />

		
			<ellipse
   transform="matrix(0.1275,-0.9918,0.9918,0.1275,76.5027,959.8839)"
   opacity="0.26"
   fill="#ffffff"
   cx="583.79999"
   cy="436.5"
   rx="5.5999999"
   ry="2.7"
   id="ellipse1188" />

	</g>

	<g
   id="g1200">
		<path
   fill="#fbb03a"
   d="m 477.2,371.8 c -5.9,6.6 -21.6,31 -13,39.7 8.7,8.7 33.1,-7.1 39.7,-13 6.6,-5.9 9.9,-11.7 -2.6,-24.2 -12.4,-12.4 -18.2,-9.1 -24.1,-2.5 z"
   id="path1192" />

		<path
   fill="#fec13a"
   d="m 464.1,411.3 c 0,0.1 0.1,0.1 0.1,0.2 8.7,8.7 33.1,-7.1 39.7,-13 2.5,-2.3 4.6,-4.5 5.4,-7.1 -0.6,-8.9 -9.6,-17.5 -19.2,-16.2 -10.8,1.5 -30.9,26 -26,36.1 z"
   id="path1194" />

		<path
   fill="#ffce3a"
   d="m 467.6,410.4 c 3.4,3.7 14,3.3 24.2,-3.5 10.2,-6.8 15.8,-12 6,-21.6 -9.8,-9.5 -26.2,13.6 -29.1,17.8 -2.9,4.2 -1.1,7.3 -1.1,7.3 z"
   id="path1196" />

		
			<ellipse
   transform="matrix(0.7915,-0.6112,0.6112,0.7915,-145.4181,380.8819)"
   opacity="0.26"
   fill="#ffffff"
   cx="485.5"
   cy="403.60001"
   rx="5.5999999"
   ry="2.7"
   id="ellipse1198" />

	</g>

	<g
   id="g1210">
		<path
   fill="#fbb03a"
   d="m 455.8,282.4 c -8.8,0.5 -37.2,6.6 -37.2,18.9 0,12.3 28.4,18.4 37.2,18.9 8.8,0.5 15.3,-1.3 15.3,-18.9 0,-17.6 -6.4,-19.4 -15.3,-18.9 z"
   id="path1202" />

		<path
   fill="#fec13a"
   d="m 418.6,301.1 c 0,0.1 0,0.1 0,0.2 0,12.3 28.4,18.4 37.2,18.9 3.4,0.2 6.4,0 8.9,-1.2 5.9,-6.7 5.6,-19.1 -2.2,-25 -8.7,-6.6 -40.2,-3.5 -43.9,7.1 z"
   id="path1204" />

		<path
   fill="#ffce3a"
   d="m 421.8,302.9 c -0.2,5 7.6,12.3 19.6,14.7 12,2.4 19.7,2.6 19.5,-11 -0.2,-13.6 -28.1,-8.9 -33.2,-8 -5.1,0.9 -5.9,4.3 -5.9,4.3 z"
   id="path1206" />

		
			<ellipse
   transform="matrix(0.1275,-0.9918,0.9918,0.1275,74.9924,706.8245)"
   opacity="0.26"
   fill="#ffffff"
   cx="439.29999"
   cy="310.79999"
   rx="2.7"
   ry="5.5999999"
   id="ellipse1208" />

	</g>

	<g
   id="g1220">
		<path
   fill="#fbb03a"
   d="m 503.9,204.1 c -6.6,-5.9 -31,-21.6 -39.7,-13 -8.7,8.7 7.1,33.1 13,39.7 5.9,6.6 11.7,9.9 24.2,-2.6 12.4,-12.4 9.1,-18.2 2.5,-24.1 z"
   id="path1212" />

		<path
   fill="#fec13a"
   d="m 464.4,191 c -0.1,0 -0.1,0.1 -0.2,0.1 -8.7,8.7 7.1,33.1 13,39.7 2.3,2.5 4.5,4.6 7.1,5.4 8.9,-0.6 17.5,-9.6 16.2,-19.2 -1.5,-10.8 -26,-30.9 -36.1,-26 z"
   id="path1214" />

		<path
   fill="#ffce3a"
   d="m 465.3,194.6 c -3.7,3.4 -3.3,14 3.5,24.2 6.8,10.2 12,15.8 21.6,6 9.5,-9.8 -13.6,-26.2 -17.8,-29.1 -4.2,-2.9 -7.3,-1.1 -7.3,-1.1 z"
   id="path1216" />

		
			<ellipse
   transform="matrix(0.7915,-0.6112,0.6112,0.7915,-31.4093,332.8588)"
   opacity="0.26"
   fill="#ffffff"
   cx="472.10001"
   cy="212.5"
   rx="2.7"
   ry="5.5999999"
   id="ellipse1218" />

	</g>

</g>
      </g>
    </g>
  </g>
  <style
     type="text/css"
     id="style87708">
	.st0{fill:#0A1E42;}
	.st1{fill:#FFFFFF;}
	.st2{fill:#BFBFBF;}
	.st3{fill:#DBDBDB;}
	.st4{fill:#959596;}
	.st5{fill:#030E1E;}
	.st6{clip-path:url(#SVGID_2_);}
	.st7{clip-path:url(#SVGID_4_);}
</style>
</svg>
