<?xml version="1.0" encoding="utf-8"?>
<!-- Generator: Adobe Illustrator 19.0.0, SVG Export Plug-In . SVG Version: 6.00 Build 0)  -->
<svg version="1.1" id="Layer_1" xmlns="http://www.w3.org/2000/svg" xmlns:xlink="http://www.w3.org/1999/xlink" x="0px" y="0px"
	 viewBox="0 0 1400 980" style="enable-background:new 0 0 1400 980;" xml:space="preserve">
<style type="text/css">
	.st0{fill:#1E605E;}
	.st1{fill:#6D6E70;}
	.st2{fill:#DBDBDB;}
	.st3{fill:#565759;}
	.st4{fill:#B6B7B8;}
	.st5{fill:#C9790E;}
	.st6{fill:#DBA109;}
	.st7{fill:#B75113;}
	.st8{fill:#FFFFFF;}
	.st9{fill:#93001C;}
	.st10{fill:#710017;}
	.st11{fill:#929294;}
	.st12{fill:#404041;}
	.st13{fill:#29282A;}
	.st14{fill:#121112;}
	.st15{fill:#B16D29;}
	.st16{fill:#8F5C29;}
	.st17{fill:#6D4A2A;}
	.st18{fill:#FFFFFF;stroke:#231F20;stroke-miterlimit:10;}
</style>
<rect class="st0" width="1400" height="980"/>
<g>
	<path class="st1" d="M1083.1,224.7c-4,6.4-11.1,10.7-19.2,10.7c-12.5,0-22.6-10.1-22.6-22.5l-0.3-0.3l-9.2,2.6l-13.9,19.8v34.2
		l11.5,11.8l11.5,5.2l0.3-0.3c0.1-12.4,10.2-22.5,22.6-22.5c8.3,0,15.5,4.4,19.5,11.1L1083.1,224.7z"/>
	<path class="st2" d="M1040.9,286.2c-10.9-8.6-20-21.9-20-36.8c0-15,9.1-28.3,20-36.8l0.9-8.3c-18.2,6.4-31.2,24.8-31.2,45.2
		s13,38.7,31.2,45.2L1040.9,286.2z"/>
	<path class="st3" d="M1090.7,224.7c4,6.4,11.1,10.7,19.2,10.7c12.5,0,22.6-10.1,22.6-22.5l0.3-0.3l9.2,2.6l13.9,19.8v34.2
		l-11.5,11.8l-11.5,5.2l-0.3-0.3c-0.1-12.4-10.2-22.5-22.6-22.5c-8.3,0-15.5,4.4-19.5,11.1L1090.7,224.7z"/>
	<path class="st4" d="M1132.9,286.2c10.9-8.6,20-21.9,20-36.8c0-15-9.1-28.3-20-36.8l-0.9-8.3c18.2,6.4,31.2,24.8,31.2,45.2
		s-13,38.7-31.2,45.2L1132.9,286.2z"/>
	<rect x="1082.8" y="216.6" class="st2" width="7.6" height="196.2"/>
	<rect x="1083.8" y="202.6" class="st5" width="5.8" height="14.1"/>
	<polygon class="st6" points="1083.1,202.6 1080.9,193.7 1086.6,188.2 1092.4,193.7 1090.2,202.6 	"/>
	<polygon class="st6" points="1092.1,412.8 1095.5,426.4 1086.6,434.8 1077.8,426.4 1081.2,412.8 	"/>
	<polygon class="st5" points="1086.6,412.8 1086.6,434.8 1095.5,426.4 1092.1,412.8 	"/>
	<rect x="1086.6" y="216.6" class="st4" width="3.8" height="196.2"/>
	<rect x="1086.6" y="202.6" class="st7" width="2.9" height="14.1"/>
	<polygon class="st5" points="1090.2,202.6 1092.4,193.7 1086.6,188.2 1086.6,202.6 	"/>
	<path class="st8" d="M1010.6,250.2c0,2.6,0.3,5.1,0.7,7.6l9.6-9.6c0.1-3.4,0.7-6.8,1.6-10L1010.6,250.2z"/>
	<path class="st8" d="M1013,264.3l8.5-8.5c-0.2-1.2-0.4-2.3-0.5-3.5l-8.9,8.9C1012.4,262.3,1012.7,263.3,1013,264.3z"/>
	<path class="st8" d="M1021.4,279.8c1.2,1.5,2.5,3,3.9,4.4l6.7-6.7c-1.3-1.5-2.4-3.1-3.5-4.7L1021.4,279.8z"/>
	<path class="st2" d="M1145.8,212.2l-6.4,6.4c2.1,2.2,4.1,4.7,5.8,7.2l7-7C1150.3,216.3,1148.1,214.1,1145.8,212.2z"/>
	<path class="st2" d="M1154.5,221.7l-7.3,7.3c0.6,1,1.1,2,1.6,3.1l7.5-7.5C1155.7,223.6,1155.1,222.7,1154.5,221.7z"/>
	<path class="st2" d="M1152.9,249.4c0,2.1-0.2,4.2-0.5,6.3l10.6-10.6c-0.2-2-0.5-4.1-0.9-6.1l-9.2,9.2
		C1152.8,248.6,1152.9,249,1152.9,249.4z"/>
</g>
<g>
	<polygon class="st6" points="1271.1,518.4 1273.2,468.1 1253.3,468.1 1255.3,518.4 1243.3,530.5 1263.2,550.4 1283.2,530.5 	"/>
	
		<rect x="1257.4" y="524.9" transform="matrix(0.7071 0.7071 -0.7071 0.7071 745.2552 -737.7993)" class="st9" width="11.7" height="11.7"/>
	<rect x="1240.8" y="459.8" class="st5" width="44.9" height="8.2"/>
	<polygon class="st2" points="1294.9,218.5 1263.2,185.1 1231.6,218.5 1253.8,459.8 1272.6,459.8 	"/>
	<rect x="1263.2" y="459.8" class="st7" width="22.5" height="8.2"/>
	<polygon class="st5" points="1273.2,468.1 1263.2,468.1 1263.2,550.3 1263.2,550.4 1283.2,530.5 1271.1,518.4 	"/>
	<polygon class="st10" points="1263.2,522.5 1263.2,538.9 1263.2,539 1271.5,530.7 1263.2,522.5 	"/>
	<path class="st8" d="M1236.4,271.2c20.4-20.4,44.2-44.2,44.2-44.2v-13.1l-45.3,45.3L1236.4,271.2z"/>
	<polygon class="st8" points="1239.8,307.9 1288.4,259.3 1274.4,240.6 1237.1,278 	"/>
	<path class="st8" d="M1281.9,359.7l-2.8-6.6l-32.1,32.1l1.9,20.3c11.9-11.9,24.8-24.8,31.8-31.8L1281.9,359.7z"/>
	<polygon class="st4" points="1263.2,185.1 1263.2,459.8 1272.6,459.8 1294.9,218.5 1263.2,185.1 	"/>
	<polygon class="st2" points="1263.2,333.3 1282.5,352.6 1283.6,341.2 1263.2,320.9 	"/>
	<polygon class="st2" points="1263.2,365.7 1279.8,382.3 1281.4,364.8 1263.2,346.6 	"/>
	<polygon class="st2" points="1263.2,233.4 1291,261.2 1292.6,243.3 1263.2,213.9 	"/>
</g>
<g>
	<path class="st2" d="M257.6,759.6l-47.4,35.3l-47.4-35.3c-34.8-26-55.3-66.8-55.3-110.3v-86.2c63.5,0,102.7-50.2,102.7-50.2
		s37.1,50.2,102.7,50.2v86.2C312.9,692.7,292.4,733.6,257.6,759.6z"/>
	<path class="st4" d="M257.6,759.6c34.8-26,55.3-66.8,55.3-110.3v-86.2c-65.6,0-102.7-50.2-102.7-50.2v282L257.6,759.6z"/>
	<path class="st8" d="M141.8,558.1l155.3,155.3c4-7.7,7.4-15.7,9.9-24.1L165.9,548.3C158.6,552.1,150.6,555.5,141.8,558.1z"/>
	<path class="st2" d="M210.2,626.5l86.9,86.9c4-7.7,7.4-15.7,9.9-24.1l-96.8-96.8V626.5z"/>
	<path class="st8" d="M194.9,528.4c-3.8,3.3-8.2,6.8-13.3,10.3l130,130c0.9-6.4,1.4-12.9,1.4-19.4v-2.8L194.9,528.4z"/>
	<path class="st2" d="M210.2,543.8v23.6l101.3,101.3c0.9-6.4,1.4-12.9,1.4-19.4v-2.8L210.2,543.8z"/>
	<polygon class="st8" points="107.5,628.2 246.9,767.6 252.4,763.4 107.5,618.5 	"/>
	<polygon class="st2" points="210.2,731 246.9,767.6 252.4,763.4 210.2,721.2 	"/>
	<path class="st9" d="M250.1,742.9l-39.9,29.7l-39.9-29.7C141,721,123.7,686.6,123.7,650v-72.6c53.5,0,86.5-42.2,86.5-42.2
		s31.2,42.2,86.5,42.2V650C296.7,686.6,279.4,721,250.1,742.9z"/>
	<path class="st6" d="M221.5,637.4v-90.3c-7.4-6.8-11.3-12-11.3-12s-4,5.1-11.3,11.7v90.6h-75.2V650c0,3.4,0.1,6.7,0.4,10.1h74.7
		v104.1l11.3,8.4l11.3-8.4V660.1h74.7c0.3-3.3,0.4-6.7,0.4-10.1v-12.6H221.5z"/>
	<path class="st10" d="M250.1,742.9c29.3-21.9,46.6-56.3,46.6-92.9v-72.6c-55.3,0-86.5-42.2-86.5-42.2v237.5L250.1,742.9z"/>
	<path class="st5" d="M221.5,637.4v-90.3c-7.4-6.8-11.3-12-11.3-12v102.3v22.7v112.5l11.3-8.4V660.1h74.7c0.3-3.3,0.4-6.7,0.4-10.1
		v-12.6H221.5z"/>
</g>
<g>
	<path class="st4" d="M294.6,369.7c0,59.6-32.5,107.8-86.4,107.8c-53.9,0-86.4-48.3-86.4-107.8s32.5-107.8,86.4-107.8
		C262.2,261.8,294.6,310.1,294.6,369.7z"/>
	<path class="st11" d="M294.6,369.7c0-59.6-32.5-107.8-86.4-107.8v215.7C262.2,477.5,294.6,429.2,294.6,369.7z"/>
	<path class="st1" d="M128.3,413c7.4,23.6,21.2,42.9,40.1,54v-87.6l-40.1-11.2V413z"/>
	<path class="st3" d="M168.4,467c1.9,1.1,3.9,2.2,5.9,3.1h34.2v-79.5l-40.1-11.2V467z"/>
	<path class="st12" d="M208.5,470.1h33.7c2.2-1,4.3-2.2,6.4-3.4v-87.3l-40.1,11.2V470.1z"/>
	<path class="st13" d="M248.6,466.7c19.1-11.4,32.9-31.1,40.1-55.2v-43.3l-40.1,11.2V466.7z"/>
	<polygon class="st11" points="124.7,387.8 105.1,384 105.1,356 124.7,352.3 	"/>
	<polygon class="st1" points="291.8,387.6 311.5,383.8 311.5,355.8 291.8,352.1 	"/>
	<rect x="196.7" y="252.8" class="st11" width="23.2" height="14.6"/>
	<rect x="193.5" y="248.3" class="st4" width="29.6" height="4.5"/>
	<path class="st9" d="M199.1,248.3l-0.8-5.4c-2.4-16.6,5-40.2,19.4-48.9c0.5-0.3,1-0.6,1.5-0.9h0c9.2-5.1,20-6.8,30.4-4.7l19.4,4
		c15.4,3.1,33.6,6.4,46.4-2.7l0,0l-6,18c-3.5,10.5-13.4,21.2-23.4,25.8h0c-6.7,3-14.1,4.1-21.4,3.2l-23.4-3l0,0
		c-9.9-1.5-19.4,2.6-21.7,12.4l-0.5,2.3H199.1z"/>
	<polygon class="st2" points="294.6,360.3 208.3,337.9 121.9,360.3 121.9,352.3 208.3,329.8 294.6,352.3 	"/>
	<path class="st4" d="M287.8,364c0.1,2,0.1,4.1,0.1,6.1c0,54.9-29.9,99.5-79.6,99.5c-49.7,0-79.6-44.5-79.6-99.5
		c0-2.1,0-4.1,0.1-6.1H122c-0.1,1.9-0.1,3.7-0.1,5.6c0,59.6,32.5,107.8,86.4,107.8c53.9,0,86.4-48.3,86.4-107.8c0-1.9,0-3.8-0.1-5.6
		H287.8z"/>
	<polygon class="st2" points="294.6,360.3 208.3,382.7 121.9,360.3 121.9,368.3 208.3,390.8 294.6,368.3 	"/>
	<polygon class="st13" points="121.9,360.3 208.3,337.9 294.6,360.3 208.3,382.7 	"/>
	<path class="st11" d="M294.6,369.7c0-1.9,0-3.8-0.1-5.6h-6.7c0.1,2,0.1,4.1,0.1,6.1c0,54.9-29.9,99.5-79.6,99.5v7.9
		C262.2,477.5,294.6,429.2,294.6,369.7z"/>
	<polygon class="st4" points="294.6,368.3 294.6,360.3 208.3,382.7 208.3,390.8 	"/>
	<polygon class="st14" points="294.6,360.3 208.3,337.9 208.3,382.7 	"/>
	<polygon class="st4" points="294.6,360.3 294.6,352.3 208.3,329.8 208.3,337.9 	"/>
	<rect x="208.3" y="252.8" class="st1" width="11.6" height="14.6"/>
	<rect x="208.3" y="248.3" class="st11" width="14.8" height="4.5"/>
</g>
<g>
	<rect x="1194.9" y="629" class="st2" width="7.2" height="46.9"/>
	<rect x="1198.5" y="629" class="st4" width="3.6" height="46.9"/>
	<g>
		<path class="st13" d="M1162.7,793.3l-106.2-123.2c-4.8-4.8-7.5-11.2-7.5-18.1c0-6.8,2.7-13.3,7.5-18.1l106.9-123.9l1.3,1.1
			l-106.9,123.9c-4.6,4.6-7,10.6-7,16.9c0,6.4,2.5,12.4,7,16.9L1164,792.2L1162.7,793.3z"/>
	</g>
	<path class="st15" d="M1165.6,518.7l-0.3-7c0-0.6-0.5-1.1-1.1-1.1l0,0c-0.6,0-1.1,0.5-1.2,1.1l-0.6,11.9
		c-0.7,14.4,4.1,28.5,13.5,39.5l2,2.4c8.7,10.3,13.5,23.3,13.5,36.8V629h14.2v-26.4c0-16.7-7.3-32.5-20-43.3l0,0
		C1173.6,549.1,1166.3,534.4,1165.6,518.7z"/>
	<path class="st15" d="M1165.6,786.2l-0.3,7c0,0.6-0.5,1.1-1.1,1.1l0,0c-0.6,0-1.1-0.5-1.2-1.1l-0.6-11.9
		c-0.7-14.4,4.1-28.5,13.5-39.5l2-2.4c8.7-10.3,13.5-23.3,13.5-36.8v-26.6h14.2v26.4c0,16.7-7.3,32.5-20,43.3l0,0
		C1173.6,755.8,1166.3,770.5,1165.6,786.2z"/>
	<polygon class="st9" points="1092.6,651.7 1062.6,651.7 1053.6,637.6 1083.6,637.6 	"/>
	<polygon class="st10" points="1092.6,651.7 1062.6,651.7 1053.6,665.8 1083.6,665.8 	"/>
	<polygon class="st1" points="1215.3,651.7 1215.3,635.6 1229.3,643.6 1243.2,651.7 1229.3,659.7 1215.3,667.8 	"/>
	<polygon class="st3" points="1229.3,659.7 1243.2,651.7 1215.3,651.7 1215.3,667.8 	"/>
	<rect x="1050.8" y="650.3" class="st11" width="164.6" height="2.7"/>
</g>
<g>
	<rect x="709.5" y="338.2" class="st2" width="136.4" height="280.5"/>
	<rect x="778.1" y="338.2" class="st4" width="67.8" height="280.5"/>
	<polygon class="st11" points="845.9,518 760.3,432.5 754.4,607.8 845.9,607.8 	"/>
	<polygon class="st1" points="778.1,607.8 845.9,607.8 845.9,518 778.1,450.2 	"/>
	<rect x="519.2" y="338.5" class="st2" width="136.4" height="280.5"/>
	<rect x="587.7" y="338.5" class="st4" width="67.8" height="280.5"/>
	<polygon class="st11" points="519.2,619 597,619 597,509.7 519.2,431.9 	"/>
	<path class="st13" d="M777.7,391.2c-8.2,0-14.8,6.6-14.8,14.8v25.6h29.5v-25.6C792.5,397.8,785.8,391.2,777.7,391.2z"/>
	<rect x="702.4" y="320" class="st16" width="151.4" height="18.2"/>
	<polygon class="st15" points="702.4,320 778.1,187.9 853.7,320 	"/>
	<rect x="778.1" y="320" class="st17" width="75.7" height="18.2"/>
	<polygon class="st16" points="853.7,320 778.1,187.9 778.1,320 	"/>
	<path class="st14" d="M778.1,391.2v40.4h14.4v-25.6C792.5,397.9,786,391.4,778.1,391.2z"/>
	<path class="st13" d="M587.3,391.5c-8.2,0-14.8,6.6-14.8,14.8v25.6h29.5v-25.6C602.1,398.1,595.5,391.5,587.3,391.5z"/>
	<rect x="512" y="320.3" class="st16" width="151.4" height="18.2"/>
	<polygon class="st15" points="512,320.3 587.7,188.2 663.4,320.3 	"/>
	<polygon class="st16" points="663.4,320.3 587.7,188.2 587.7,320.3 	"/>
	<rect x="587.7" y="320.3" class="st17" width="75.7" height="18.2"/>
	<path class="st14" d="M587.7,391.5v40.4h14.4v-25.6C602.1,398.2,595.7,391.7,587.7,391.5z"/>
	<polygon class="st15" points="798.7,514.2 566.8,514.2 605.1,432.5 760.3,432.5 	"/>
	<rect x="588.2" y="514.2" class="st4" width="189.1" height="103.3"/>
	<rect x="682.7" y="514.2" class="st11" width="94.5" height="103.3"/>
	<polygon class="st16" points="682.7,514.2 798.7,514.2 760.3,432.5 682.7,432.5 	"/>
	<path class="st13" d="M635.8,548.1c-14,0-25.4,11.4-25.4,25.4v44.1h50.7v-44.1C661.2,559.5,649.8,548.1,635.8,548.1z"/>
	<path class="st14" d="M724.7,548.1c-14,0-25.4,11.4-25.4,25.4v44.1h50.7v-44.1C750.1,559.5,738.8,548.1,724.7,548.1z"/>
	<rect x="382.8" y="514.4" class="st2" width="136.4" height="280.5"/>
	<polygon class="st8" points="846.3,577.8 814.7,577.8 814.7,600.5 787.2,600.5 787.2,577.8 755.6,577.8 755.6,600.5 728.2,600.5 
		728.2,577.8 728,577.8 696.5,577.8 696.3,577.8 696.3,600.5 668.9,600.5 668.9,577.8 637.3,577.8 637.3,600.5 609.9,600.5 
		609.9,577.8 578.2,577.8 578.2,600.5 550.8,600.5 550.8,577.8 519.1,577.8 519.1,600.5 519.1,618.7 696.5,618.7 728,618.7 
		846.3,618.7 	"/>
	<rect x="518.9" y="618" class="st2" width="327.2" height="176.9"/>
	<path class="st13" d="M451,567.4c-8.2,0-14.8,6.6-14.8,14.8v25.6h29.5v-25.6C465.8,574,459.2,567.4,451,567.4z"/>
	<rect x="382.8" y="762.8" class="st1" width="136" height="32.1"/>
	<rect x="519.2" y="766.3" class="st1" width="326.9" height="28.6"/>
	<rect x="375.7" y="496.2" class="st16" width="151.4" height="18.2"/>
	<polygon class="st15" points="375.7,496.2 451.4,364.1 527.1,496.2 	"/>
	<rect x="913.6" y="417.3" class="st18" width="2.3" height="61.5"/>
	<polygon class="st9" points="915.9,417.3 915.9,439.8 945.7,428.5 	"/>
	<rect x="846.5" y="514.4" class="st2" width="136.4" height="280.5"/>
	<path class="st13" d="M914.7,567.4c-8.2,0-14.8,6.6-14.8,14.8v25.6h29.5v-25.6C929.5,574,922.9,567.4,914.7,567.4z"/>
	<rect x="846.5" y="762.8" class="st1" width="136.4" height="32.1"/>
	<polygon class="st8" points="978,459.5 978,479.2 954.2,479.2 954.2,459.5 926.6,459.5 926.6,479.2 902.8,479.2 902.8,459.5 
		875.2,459.5 875.2,479.2 851.4,479.2 851.4,459.5 823.9,459.5 823.9,479.2 823.9,495.1 1005.6,495.1 1005.6,479.2 1005.6,459.5 	
		"/>
	<polygon class="st4" points="997.9,514.2 831.5,514.2 823.9,495.1 1005.6,495.1 	"/>
	<rect x="451" y="514.4" class="st4" width="68.2" height="280.5"/>
	<rect x="451" y="762.8" class="st3" width="67.8" height="32.1"/>
	<path class="st14" d="M451,567.4v40.4h14.8v-25.6C465.8,574,459.2,567.4,451,567.4z"/>
	<rect x="451" y="496.2" class="st17" width="76.1" height="18.2"/>
	<polygon class="st16" points="451,496.2 527.1,496.2 451.4,364.1 451,364.7 	"/>
	<rect x="682.7" y="618" class="st4" width="163.4" height="176.9"/>
	<rect x="682.7" y="766.3" class="st3" width="163.4" height="28.6"/>
	<polygon class="st2" points="814.7,600.5 787.2,600.5 787.2,577.8 755.6,577.8 755.6,600.5 728.2,600.5 728.2,577.8 728,577.8 
		696.5,577.8 696.3,577.8 696.3,600.5 682.7,600.5 682.7,618.7 696.5,618.7 728,618.7 846.3,618.7 846.3,577.8 814.7,577.8 	"/>
	<rect x="914.7" y="514.4" class="st4" width="68.2" height="280.5"/>
	<rect x="914.7" y="762.8" class="st3" width="68.2" height="32.1"/>
	<path class="st14" d="M929.5,607.8v-25.6c0-8.2-6.6-14.8-14.8-14.8v40.4H929.5z"/>
	<polygon class="st11" points="914.7,514.2 997.9,514.2 1005.6,495.1 914.7,495.1 	"/>
	<polygon class="st2" points="978,479.2 954.2,479.2 954.2,459.5 926.6,459.5 926.6,479.2 914.7,479.2 914.7,495.1 1005.6,495.1 
		1005.6,479.2 1005.6,459.5 978,459.5 	"/>
	<path class="st16" d="M682.7,663.3c-0.2,0-0.3,0-0.5,0v131.6H704V669C697.7,665.4,690.5,663.3,682.7,663.3z"/>
	<path class="st17" d="M704,669v125.9h21.8v-88.5C725.8,690.4,717,676.4,704,669z"/>
	<path class="st16" d="M639.6,706.4v88.5h20.8V669.5C648,677.1,639.6,690.8,639.6,706.4z"/>
	<path class="st15" d="M660.5,669.5v125.4h21.8V663.4C674.3,663.4,666.8,665.7,660.5,669.5z"/>
</g>
</svg>
