<?xml version="1.0" encoding="utf-8"?>
<!-- Generator: Adobe Illustrator 24.0.1, SVG Export Plug-In . SVG Version: 6.00 Build 0)  -->
<svg version="1.1" id="Camada_1" xmlns="http://www.w3.org/2000/svg" xmlns:xlink="http://www.w3.org/1999/xlink" x="0px" y="0px"
	 viewBox="0 0 500 500" style="enable-background:new 0 0 500 500;" xml:space="preserve">
<style type="text/css">
	.st0{fill:#D28A47;}
	.st1{fill:#A8662F;}
	.st2{fill:#B7DBEB;}
	.st3{fill:#7893A1;}
	.st4{fill:#AACBDA;}
	.st5{opacity:0.1;fill:#333B40;}
	.st6{fill:#FDB232;}
	.st7{fill:#6C392C;}
	.st8{fill:#C7ECFD;}
	.st9{fill:#FDC63D;}
	.st10{fill:#FDDF5A;}
	.st11{fill:#FD5A4E;}
	.st12{fill:#FD7E68;}
	.st13{opacity:0.1;fill:#4A340E;}
	.st14{fill:#FDD555;}
	.st15{fill:#705F25;}
	.st16{opacity:0.1;fill:#455359;}
	.st17{fill:#E2E8F4;}
	.st18{fill:#D4D9E9;}
	.st19{fill:#76C1FB;}
	.st20{opacity:0.1;fill:#2D2E30;}
	.st21{fill:#F7C709;}
	.st22{fill:#EDE8E4;}
	.st23{fill:#876746;}
	.st24{fill:#DEB307;}
	.st25{fill:#B06E30;}
	.st26{opacity:0.1;fill:#3B3002;}
	.st27{fill:#ED5540;}
	.st28{fill:#CEC4DC;}
	.st29{opacity:0.1;fill:#3D3010;}
	.st30{fill:#526D8A;}
	.st31{fill:#8CD0F3;}
	.st32{fill:#CDE6F3;}
	.st33{fill:#394B61;}
	.st34{opacity:0.1;fill:#283645;}
	.st35{fill:#DFE1E6;}
	.st36{fill:#717114;}
	.st37{fill:#C7C8CD;}
	.st38{opacity:0.1;fill:#2A2A2B;}
	.st39{fill:#E0F2FC;}
	.st40{fill:#D0DFE9;}
	.st41{opacity:0.1;fill:#666E73;}
	.st42{fill:#FDBC07;}
	.st43{fill:#E6AB07;}
	.st44{fill:#FBC068;}
	.st45{fill:#FCE680;}
	.st46{fill:#B58A4B;}
	.st47{fill:#FDEFA9;}
	.st48{fill:#EE5226;}
	.st49{fill:#A72E23;}
	.st50{opacity:0.1;}
	.st51{fill:#4F4728;}
	.st52{fill:#94C9F3;}
	.st53{fill:#BDE1FD;}
	.st54{fill:#56748A;}
	.st55{fill:#B746BD;}
	.st56{fill:#DA53E1;}
	.st57{opacity:0.1;fill:#411842;}
	.st58{fill:#CA722D;}
	.st59{fill:#B05927;}
	.st60{fill:#FCD21B;}
	.st61{fill:#ECC51C;}
	.st62{fill:#F8A623;}
	.st63{fill:#D7E1E6;}
	.st64{fill:#C1CFD6;}
	.st65{fill:#333333;}
	.st66{fill:#CACACA;}
	.st67{fill:#D68747;}
	.st68{fill:#B1B2B2;}
	.st69{fill:#C2783F;}
	.st70{fill:#D69D55;}
	.st71{fill:#EDB96A;}
	.st72{fill:#A56B37;}
	.st73{fill:#F2CD28;}
	.st74{fill:#E4E4E4;}
	.st75{fill:#F17B65;}
	.st76{opacity:0.1;fill:#7B3E33;}
	.st77{fill:#AA5748;}
	.st78{fill:#A63F12;}
	.st79{fill:#EB5919;}
	.st80{fill:#F68688;}
	.st81{fill:#86330E;}
	.st82{fill:#F36968;}
	.st83{fill:#FFEBEE;}
	.st84{fill:#FFCDD2;}
	.st85{fill:#CFD8DC;}
	.st86{fill:#90A4AE;}
	.st87{fill:#B0BEC5;}
	.st88{fill:#FBE9E7;}
	.st89{fill:#E0F2F1;}
	.st90{fill:#B2DFDB;}
	.st91{fill:#ECEFF1;}
	.st92{fill:#EDE7F6;}
	.st93{fill:#D1C4E9;}
	.st94{fill:#78909C;}
	.st95{fill:#62808C;}
	.st96{fill:#FFF3E0;}
	.st97{fill:#FFE0B2;}
	.st98{fill:#E1E6EA;}
	.st99{fill:#E0F7FA;}
	.st100{fill:#B2EBF2;}
	.st101{fill:#E3F2FD;}
	.st102{fill:#BBDEFB;}
	.st103{fill:#A4B5BC;}
	.st104{fill:#F4D9BE;}
	.st105{fill:#AC9173;stroke:#876A54;stroke-miterlimit:10;}
	.st106{fill:#6AA6AB;}
	.st107{fill:#FFFFFF;}
	.st108{fill:#FFC2C4;}
	.st109{fill:#4A311A;}
	.st110{fill:#FFFFA4;}
	.st111{fill:#8192A4;}
	.st112{fill:#425059;}
	.st113{opacity:0.3;fill:#8192A4;enable-background:new    ;}
	.st114{opacity:0.4;fill:#8192A4;enable-background:new    ;}
	.st115{fill:#9BB3C9;}
	.st116{fill:#6F774B;}
	.st117{fill:#8D9968;}
	.st118{fill:#E94E1B;}
	.st119{fill:#F9B233;}
	.st120{fill:#FFF9AE;}
	.st121{fill:#F39200;}
	.st122{fill:#936037;}
	.st123{fill:#CA9E67;}
	.st124{fill:#7D4E24;}
	.st125{opacity:0.3;fill:#CA9E67;enable-background:new    ;}
	.st126{opacity:0.4;fill:#CA9E67;enable-background:new    ;}
	.st127{fill:#A3B9CC;}
	.st128{fill:#E30613;}
	.st129{fill:#566872;}
	.st130{fill:#B17F4A;}
	.st131{fill:#EDEDED;}
	.st132{fill:#00FFFF;}
	.st133{fill:#996483;}
	.st134{fill:#845A78;}
	.st135{fill:#FFED00;}
	.st136{fill:url(#SVGID_1_);}
</style>
<g>
	<path class="st74" d="M269.07,296.43l0.51,39.71c10.87,0.13,19.71,8.89,19.86,19.83c0.14,11.09-8.74,20.21-19.83,20.35
		c-6.57,0.08-12.45-3-16.18-7.83c-3.6,4.93-9.39,8.16-15.96,8.25c-11.1,0.14-20.2-8.74-20.35-19.83
		c-0.14-10.93,8.47-19.92,19.33-20.34l-0.51-39.71c-0.34-26.59,10.54-27.68,16.21-27.75C257.8,269.04,268.71,268.9,269.07,296.43
		L269.07,296.43z"/>
	<path class="st66" d="M273.76,364.18c-6.57,0.08-12.45-3-16.18-7.83c-3.6,4.93-9.39,8.16-15.96,8.25
		c-11.1,0.14-20.2-8.74-20.35-19.83c0-0.12,0-0.24,0-0.36c-2.66,3.46-4.23,7.8-4.17,12.5c0.15,11.09,9.26,19.98,20.35,19.83
		c6.57-0.08,12.37-3.32,15.96-8.25c3.73,4.83,9.61,7.92,16.18,7.83c10.98-0.14,19.78-9.07,19.83-20
		C285.81,361.03,280.15,364.1,273.76,364.18L273.76,364.18z"/>
	<path class="st78" d="M235.92,296.86c5.38,1.92,10.94,2.89,16.61,2.82c5.67-0.07,11.2-1.19,16.54-3.24
		c38.76-14.92,67.3-79.58,66.3-156.68c0.34,26.91-37.38,49.22-84.26,49.82c-46.23,0.6-84.11-20.14-85.48-46.52
		c-0.02-0.35-0.03-0.72-0.04-1.11C166.59,219.05,196.78,282.94,235.92,296.86z"/>
	<path class="st79" d="M291.06,243.92c1.77-1.81,4.66-1.85,6.48-0.08c1.81,1.77,1.85,4.66,0.08,6.48c-1.77,1.81-4.66,1.85-6.48,0.08
		C289.33,248.63,289.29,245.73,291.06,243.92L291.06,243.92z"/>
	<path class="st79" d="M282.3,261.02c1.76-1.81,4.66-1.85,6.48-0.08c1.81,1.77,1.85,4.66,0.08,6.48c-1.77,1.81-4.66,1.85-6.48,0.08
		C280.57,265.73,280.53,262.83,282.3,261.02L282.3,261.02z"/>
	<path class="st79" d="M207.69,212.18c1.76-1.81,4.66-1.85,6.48-0.08c1.81,1.76,1.85,4.66,0.08,6.48c-1.77,1.81-4.66,1.85-6.48,0.08
		C205.96,216.9,205.92,214,207.69,212.18L207.69,212.18z"/>
	<path class="st79" d="M194.05,225.6c1.77-1.81,4.66-1.85,6.48-0.08c1.81,1.77,1.85,4.66,0.08,6.48c-1.76,1.81-4.66,1.85-6.48,0.08
		C192.32,230.31,192.28,227.41,194.05,225.6L194.05,225.6z"/>
	<path class="st79" d="M190.34,206.08c1.76-1.81,4.66-1.85,6.48-0.08c1.81,1.77,1.85,4.66,0.08,6.48c-1.77,1.81-4.66,1.85-6.48,0.08
		C188.61,210.79,188.57,207.89,190.34,206.08L190.34,206.08z"/>
	<path class="st80" d="M249.84,92.12c46.88-0.61,85.17,20.72,85.52,47.63c0.34,26.91-37.38,49.22-84.26,49.82
		c-46.88,0.61-85.17-20.72-85.51-47.63C165.24,115.04,202.96,92.73,249.84,92.12L249.84,92.12z"/>
	<path class="st81" d="M235.92,296.86c5.38,1.92,10.94,2.89,16.61,2.82c5.67-0.07,11.2-1.19,16.54-3.24
		c11.48-4.42,22.06-13.2,31.25-25.38c-4.67,3.57-9.56,6.37-14.63,8.32c-5.34,2.05-10.87,3.17-16.54,3.24
		c-5.67,0.07-11.23-0.9-16.61-2.82c-30.48-10.84-55.53-51.99-65.6-106.09v0c-13.15-8.4-21.19-19.5-21.35-31.77
		C166.59,219.05,196.78,282.94,235.92,296.86z"/>
	<path class="st82" d="M301.58,120.83c10.17,5.66,16.29,12.82,16.37,19.14c0.08,6.32-5.85,13.63-15.87,19.56
		c-13.14,7.77-31.8,12.37-51.2,12.62c-19.39,0.25-38.17-3.87-51.51-11.29c-10.16-5.66-16.28-12.82-16.36-19.14
		c-0.09-6.32,5.85-13.64,15.87-19.55c13.14-7.77,31.81-12.38,51.2-12.63C269.47,109.29,288.24,113.4,301.58,120.83L301.58,120.83z"
		/>
	<path class="st74" d="M229.9,137.99c-2.32,0.85-4.16,3.45-4.4,6.21c-0.24,2.76,1.18,4.92,3.39,5.17c6.6,0.72,13.62,0.59,20.86-0.38
		c7.24-0.97,14.41-2.75,21.29-5.27c0.99-0.36,1.89-1.04,2.61-1.92c0.98-1.18,1.65-2.71,1.79-4.3c0.24-2.76-1.18-4.93-3.39-5.17
		c-6.6-0.72-13.61-0.59-20.86,0.38C243.95,133.68,236.78,135.46,229.9,137.99L229.9,137.99z"/>
</g>
</svg>
