<?xml version="1.0" encoding="utf-8"?>
<!-- Generator: Adobe Illustrator 24.0.1, SVG Export Plug-In . SVG Version: 6.00 Build 0)  -->
<svg version="1.1" id="Camada_1" xmlns="http://www.w3.org/2000/svg" xmlns:xlink="http://www.w3.org/1999/xlink" x="0px" y="0px"
	 viewBox="0 0 500 500" style="enable-background:new 0 0 500 500;" xml:space="preserve">
<style type="text/css">
	.st0{fill:#D28A47;}
	.st1{fill:#A8662F;}
	.st2{fill:#B7DBEB;}
	.st3{fill:#7893A1;}
	.st4{fill:#AACBDA;}
	.st5{opacity:0.1;fill:#333B40;}
	.st6{fill:#FDB232;}
	.st7{fill:#6C392C;}
	.st8{fill:#C7ECFD;}
	.st9{fill:#FDC63D;}
	.st10{fill:#FDDF5A;}
	.st11{fill:#FD5A4E;}
	.st12{fill:#FD7E68;}
	.st13{opacity:0.1;fill:#4A340E;}
	.st14{fill:#FDD555;}
	.st15{fill:#705F25;}
	.st16{opacity:0.1;fill:#455359;}
	.st17{fill:#E2E8F4;}
	.st18{fill:#D4D9E9;}
	.st19{fill:#76C1FB;}
	.st20{opacity:0.1;fill:#2D2E30;}
	.st21{fill:#F7C709;}
	.st22{fill:#EDE8E4;}
	.st23{fill:#876746;}
	.st24{fill:#DEB307;}
	.st25{fill:#B06E30;}
	.st26{opacity:0.1;fill:#3B3002;}
	.st27{fill:#ED5540;}
	.st28{fill:#CEC4DC;}
	.st29{opacity:0.1;fill:#3D3010;}
	.st30{fill:#526D8A;}
	.st31{fill:#8CD0F3;}
	.st32{fill:#CDE6F3;}
	.st33{fill:#394B61;}
	.st34{opacity:0.1;fill:#283645;}
	.st35{fill:#DFE1E6;}
	.st36{fill:#717114;}
	.st37{fill:#C7C8CD;}
	.st38{opacity:0.1;fill:#2A2A2B;}
	.st39{fill:#E0F2FC;}
	.st40{fill:#D0DFE9;}
	.st41{opacity:0.1;fill:#666E73;}
	.st42{fill:#FDBC07;}
	.st43{fill:#E6AB07;}
	.st44{fill:#FBC068;}
	.st45{fill:#FCE680;}
	.st46{fill:#B58A4B;}
	.st47{fill:#FDEFA9;}
	.st48{fill:#EE5226;}
	.st49{fill:#A72E23;}
	.st50{opacity:0.1;}
	.st51{fill:#4F4728;}
	.st52{fill:#94C9F3;}
	.st53{fill:#BDE1FD;}
	.st54{fill:#56748A;}
	.st55{fill:#B746BD;}
	.st56{fill:#DA53E1;}
	.st57{opacity:0.1;fill:#411842;}
	.st58{fill:#CA722D;}
	.st59{fill:#B05927;}
	.st60{fill:#FCD21B;}
	.st61{fill:#ECC51C;}
	.st62{fill:#F8A623;}
	.st63{fill:#D7E1E6;}
	.st64{fill:#C1CFD6;}
	.st65{fill:#333333;}
	.st66{fill:#CACACA;}
	.st67{fill:#D68747;}
	.st68{fill:#B1B2B2;}
	.st69{fill:#C2783F;}
	.st70{fill:#D69D55;}
	.st71{fill:#EDB96A;}
	.st72{fill:#A56B37;}
	.st73{fill:#F2CD28;}
	.st74{fill:#E4E4E4;}
	.st75{fill:#F17B65;}
	.st76{opacity:0.1;fill:#7B3E33;}
	.st77{fill:#AA5748;}
	.st78{fill:#A63F12;}
	.st79{fill:#EB5919;}
	.st80{fill:#F68688;}
	.st81{fill:#86330E;}
	.st82{fill:#F36968;}
	.st83{fill:#FFEBEE;}
	.st84{fill:#FFCDD2;}
	.st85{fill:#CFD8DC;}
	.st86{fill:#90A4AE;}
	.st87{fill:#B0BEC5;}
	.st88{fill:#FBE9E7;}
	.st89{fill:#E0F2F1;}
	.st90{fill:#B2DFDB;}
	.st91{fill:#ECEFF1;}
	.st92{fill:#EDE7F6;}
	.st93{fill:#D1C4E9;}
	.st94{fill:#78909C;}
	.st95{fill:#62808C;}
	.st96{fill:#FFF3E0;}
	.st97{fill:#FFE0B2;}
	.st98{fill:#E1E6EA;}
	.st99{fill:#E0F7FA;}
	.st100{fill:#B2EBF2;}
	.st101{fill:#E3F2FD;}
	.st102{fill:#BBDEFB;}
	.st103{fill:#A4B5BC;}
	.st104{fill:#F4D9BE;}
	.st105{fill:#AC9173;stroke:#876A54;stroke-miterlimit:10;}
	.st106{fill:#6AA6AB;}
	.st107{fill:#FFFFFF;}
	.st108{fill:#FFC2C4;}
	.st109{fill:#4A311A;}
	.st110{fill:#FFFFA4;}
	.st111{fill:#8192A4;}
	.st112{fill:#425059;}
	.st113{opacity:0.3;fill:#8192A4;enable-background:new    ;}
	.st114{opacity:0.4;fill:#8192A4;enable-background:new    ;}
	.st115{fill:#9BB3C9;}
	.st116{fill:#6F774B;}
	.st117{fill:#8D9968;}
	.st118{fill:#E94E1B;}
	.st119{fill:#F9B233;}
	.st120{fill:#FFF9AE;}
	.st121{fill:#F39200;}
	.st122{fill:#936037;}
	.st123{fill:#CA9E67;}
	.st124{fill:#7D4E24;}
	.st125{opacity:0.3;fill:#CA9E67;enable-background:new    ;}
	.st126{opacity:0.4;fill:#CA9E67;enable-background:new    ;}
	.st127{fill:#A3B9CC;}
	.st128{fill:#E30613;}
	.st129{fill:#566872;}
	.st130{fill:#B17F4A;}
	.st131{fill:#EDEDED;}
	.st132{fill:#00FFFF;}
	.st133{fill:#996483;}
	.st134{fill:#845A78;}
	.st135{fill:#FFED00;}
	.st136{fill:url(#SVGID_1_);}
</style>
<g>
	<path class="st4" d="M361.78,142.7c-0.61-0.45-1.38-0.6-2.12-0.43c-8.5,2.07-17.23,3.12-25.95,3.12
		c-29.8,0-57.87-11.81-81.17-34.16c-0.99-0.95-2.54-0.95-3.53,0c-23.3,22.35-51.37,34.16-81.17,34.16c-8.73,0-17.46-1.05-25.95-3.12
		c-0.74-0.18-1.51-0.02-2.12,0.43c-0.61,0.45-0.98,1.15-1.03,1.9c-0.32,5.46-0.49,10.96-0.49,16.34
		c0,44.57,10.71,87.74,30.97,124.86c19.78,36.24,47.56,64.87,80.33,82.8c0.38,0.21,0.8,0.31,1.22,0.31s0.84-0.1,1.22-0.31
		c32.77-17.93,60.54-46.56,80.33-82.8c20.26-37.11,30.97-80.29,30.97-124.86c0-5.38-0.16-10.88-0.49-16.34
		C362.77,143.84,362.39,143.15,361.78,142.7z"/>
	<path class="st14" d="M342.95,159.16c-0.5-0.37-1.15-0.5-1.76-0.35c-7.05,1.72-14.31,2.59-21.55,2.59
		c-24.75,0-48.05-9.81-67.4-28.36c-0.82-0.78-2.11-0.78-2.93,0c-19.35,18.56-42.66,28.36-67.4,28.36c-7.25,0-14.5-0.87-21.55-2.59
		c-0.61-0.15-1.25-0.02-1.76,0.35c-0.5,0.37-0.82,0.95-0.85,1.58c-0.27,4.54-0.4,9.1-0.4,13.57c0,37.01,8.89,72.86,25.72,103.67
		c16.43,30.09,39.49,53.87,66.7,68.75c0.32,0.17,0.67,0.26,1.02,0.26c0.35,0,0.7-0.09,1.02-0.26c27.21-14.89,50.27-38.66,66.7-68.75
		c16.82-30.82,25.72-66.67,25.72-103.67c0-4.46-0.13-9.03-0.4-13.57C343.77,160.11,343.45,159.53,342.95,159.16z"/>
	<circle class="st15" cx="250.77" cy="236.64" r="67.8"/>
	<path class="st4" d="M251,182.3c-30.01,0-54.33,24.33-54.33,54.33c0,30.01,24.32,54.33,54.33,54.33c30,0,54.33-24.32,54.33-54.33
		C305.33,206.63,281,182.3,251,182.3z"/>
	<path class="st16" d="M167.84,145.39c-8.73,0-17.46-1.05-25.95-3.12c-0.74-0.18-1.51-0.02-2.12,0.43c-0.61,0.45-0.98,1.15-1.03,1.9
		c-0.32,5.46-0.49,10.96-0.49,16.34c0,44.57,10.71,87.74,30.97,124.86c19.78,36.24,47.56,64.87,80.33,82.8
		c0.38,0.21,0.8,0.31,1.22,0.31c0.08,0,0.15-0.02,0.23-0.03V110.54c-0.71-0.06-1.44,0.16-1.99,0.69
		C225.71,133.58,197.64,145.39,167.84,145.39z"/>
</g>
</svg>
