<?xml version="1.0" encoding="utf-8"?>
<!-- Generator: Adobe Illustrator 24.0.1, SVG Export Plug-In . SVG Version: 6.00 Build 0)  -->
<svg version="1.1" id="Camada_1" xmlns="http://www.w3.org/2000/svg" xmlns:xlink="http://www.w3.org/1999/xlink" x="0px" y="0px"
	 viewBox="0 0 500 500" style="enable-background:new 0 0 500 500;" xml:space="preserve">
<style type="text/css">
	.st0{fill:#D28A47;}
	.st1{fill:#A8662F;}
	.st2{fill:#B7DBEB;}
	.st3{fill:#7893A1;}
	.st4{fill:#AACBDA;}
	.st5{opacity:0.1;fill:#333B40;}
	.st6{fill:#FDB232;}
	.st7{fill:#6C392C;}
	.st8{fill:#C7ECFD;}
	.st9{fill:#FDC63D;}
	.st10{fill:#FDDF5A;}
	.st11{fill:#FD5A4E;}
	.st12{fill:#FD7E68;}
	.st13{opacity:0.1;fill:#4A340E;}
	.st14{fill:#FDD555;}
	.st15{fill:#705F25;}
	.st16{opacity:0.1;fill:#455359;}
	.st17{fill:#E2E8F4;}
	.st18{fill:#D4D9E9;}
	.st19{fill:#76C1FB;}
	.st20{opacity:0.1;fill:#2D2E30;}
	.st21{fill:#F7C709;}
	.st22{fill:#EDE8E4;}
	.st23{fill:#876746;}
	.st24{fill:#DEB307;}
	.st25{fill:#B06E30;}
	.st26{opacity:0.1;fill:#3B3002;}
	.st27{fill:#ED5540;}
	.st28{fill:#CEC4DC;}
	.st29{opacity:0.1;fill:#3D3010;}
	.st30{fill:#526D8A;}
	.st31{fill:#8CD0F3;}
	.st32{fill:#CDE6F3;}
	.st33{fill:#394B61;}
	.st34{opacity:0.1;fill:#283645;}
	.st35{fill:#DFE1E6;}
	.st36{fill:#717114;}
	.st37{fill:#C7C8CD;}
	.st38{opacity:0.1;fill:#2A2A2B;}
	.st39{fill:#E0F2FC;}
	.st40{fill:#D0DFE9;}
	.st41{opacity:0.1;fill:#666E73;}
	.st42{fill:#FDBC07;}
	.st43{fill:#E6AB07;}
	.st44{fill:#FBC068;}
	.st45{fill:#FCE680;}
	.st46{fill:#B58A4B;}
	.st47{fill:#FDEFA9;}
	.st48{fill:#EE5226;}
	.st49{fill:#A72E23;}
	.st50{opacity:0.1;}
	.st51{fill:#4F4728;}
	.st52{fill:#94C9F3;}
	.st53{fill:#BDE1FD;}
	.st54{fill:#56748A;}
	.st55{fill:#B746BD;}
	.st56{fill:#DA53E1;}
	.st57{opacity:0.1;fill:#411842;}
	.st58{fill:#CA722D;}
	.st59{fill:#B05927;}
	.st60{fill:#FCD21B;}
	.st61{fill:#ECC51C;}
	.st62{fill:#F8A623;}
	.st63{fill:#D7E1E6;}
	.st64{fill:#C1CFD6;}
	.st65{fill:#333333;}
	.st66{fill:#CACACA;}
	.st67{fill:#D68747;}
	.st68{fill:#B1B2B2;}
	.st69{fill:#C2783F;}
	.st70{fill:#D69D55;}
	.st71{fill:#EDB96A;}
	.st72{fill:#A56B37;}
	.st73{fill:#F2CD28;}
	.st74{fill:#E4E4E4;}
	.st75{fill:#F17B65;}
	.st76{opacity:0.1;fill:#7B3E33;}
	.st77{fill:#AA5748;}
	.st78{fill:#A63F12;}
	.st79{fill:#EB5919;}
	.st80{fill:#F68688;}
	.st81{fill:#86330E;}
	.st82{fill:#F36968;}
	.st83{fill:#FFEBEE;}
	.st84{fill:#FFCDD2;}
	.st85{fill:#CFD8DC;}
	.st86{fill:#90A4AE;}
	.st87{fill:#B0BEC5;}
	.st88{fill:#FBE9E7;}
	.st89{fill:#E0F2F1;}
	.st90{fill:#B2DFDB;}
	.st91{fill:#ECEFF1;}
	.st92{fill:#EDE7F6;}
	.st93{fill:#D1C4E9;}
	.st94{fill:#78909C;}
	.st95{fill:#62808C;}
	.st96{fill:#FFF3E0;}
	.st97{fill:#FFE0B2;}
	.st98{fill:#E1E6EA;}
	.st99{fill:#E0F7FA;}
	.st100{fill:#B2EBF2;}
	.st101{fill:#E3F2FD;}
	.st102{fill:#BBDEFB;}
	.st103{fill:#A4B5BC;}
	.st104{fill:#F4D9BE;}
	.st105{fill:#AC9173;stroke:#876A54;stroke-miterlimit:10;}
	.st106{fill:#6AA6AB;}
	.st107{fill:#FFFFFF;}
	.st108{fill:#FFC2C4;}
	.st109{fill:#4A311A;}
	.st110{fill:#FFFFA4;}
	.st111{fill:#8192A4;}
	.st112{fill:#425059;}
	.st113{opacity:0.3;fill:#8192A4;enable-background:new    ;}
	.st114{opacity:0.4;fill:#8192A4;enable-background:new    ;}
	.st115{fill:#9BB3C9;}
	.st116{fill:#6F774B;}
	.st117{fill:#8D9968;}
	.st118{fill:#E94E1B;}
	.st119{fill:#F9B233;}
	.st120{fill:#FFF9AE;}
	.st121{fill:#F39200;}
	.st122{fill:#936037;}
	.st123{fill:#CA9E67;}
	.st124{fill:#7D4E24;}
	.st125{opacity:0.3;fill:#CA9E67;enable-background:new    ;}
	.st126{opacity:0.4;fill:#CA9E67;enable-background:new    ;}
	.st127{fill:#A3B9CC;}
	.st128{fill:#E30613;}
	.st129{fill:#566872;}
	.st130{fill:#B17F4A;}
	.st131{fill:#EDEDED;}
	.st132{fill:#00FFFF;}
	.st133{fill:#996483;}
	.st134{fill:#845A78;}
	.st135{fill:#FFED00;}
	.st136{fill:url(#SVGID_1_);}
</style>
<g>
	<path class="st58" d="M416.96,126.87v88.54H190.64v-88.54c0-6.64,5.39-12.03,12.03-12.03h202.26
		C411.58,114.84,416.96,120.22,416.96,126.87z"/>
	<path class="st58" d="M190.64,215.41h226.33v109.74c0,8.84-7.17,16.01-16.01,16.01H206.65c-8.84,0-16.01-7.17-16.01-16.01V215.41
		L190.64,215.41z"/>
	<polygon class="st59" points="212.59,134.35 395.01,134.35 395.01,215.41 212.59,215.41 212.59,134.35 	"/>
	<path class="st60" d="M211.22,215.41l16.29-7.14l0.01-0.03c2.27-10.39,10.86-18.2,21.42-19.47l0.03,0l0,0
		c5.19-9.29,15.69-14.28,26.17-12.42h0l0.01-0.01c7.67-7.37,19.17-9.06,28.65-4.23l0.02,0.01l0.01-0.01
		c9.48-4.83,20.97-3.13,28.65,4.23l0.01,0.01l0,0c10.48-1.86,20.99,3.13,26.17,12.42l0,0l0.03,0c10.55,1.27,19.15,9.08,21.42,19.47
		l0.01,0.03l16.28,7.14"/>
	<path class="st61" d="M262.62,208.23c2.27-10.39,10.86-18.2,21.42-19.47l0.03,0l0,0c5.19-9.29,15.69-14.28,26.17-12.42h0l0.01-0.01
		c3.18-3.06,7.03-5.13,11.11-6.18c-5.76-1.47-11.99-0.88-17.54,1.95l-0.01,0.01l-0.02-0.01c-9.48-4.83-20.97-3.13-28.65,4.23
		l-0.01,0.01h0c-10.48-1.86-20.99,3.13-26.17,12.42l0,0l-0.03,0c-10.55,1.27-19.15,9.08-21.42,19.47l-0.01,0.03l-16.28,7.14h35.1
		l16.28-7.14L262.62,208.23L262.62,208.23z"/>
	<polyline class="st62" points="384.51,326.38 401.44,326.38 401.44,230.18 384.51,230.18 223.09,230.18 206.16,230.18 
		206.16,326.38 223.09,326.38 	"/>
	<polygon class="st63" points="223.09,215.41 252.88,215.41 252.88,341.16 223.09,341.16 223.09,215.41 	"/>
	<polygon class="st63" points="354.72,215.41 384.51,215.41 384.51,341.16 354.72,341.16 354.72,215.41 	"/>
	<path class="st64" d="M325.42,261.87v8.93c0,0.94,0.38,1.78,0.99,2.4c0.61,0.61,1.46,0.99,2.4,0.99c1.87,0,3.39,1.52,3.39,3.39
		v11.22c0,1.88-1.52,3.39-3.39,3.39h-11.5c-0.93,0-1.78,0.38-2.4,0.99c-0.61,0.61-0.99,1.46-0.99,2.4c0,5.51-4.47,9.98-9.98,9.98
		h-0.29c-2.76,0-5.25-1.12-7.06-2.92c-1.81-1.81-2.92-4.3-2.92-7.06c0-1.87-1.52-3.39-3.39-3.39h-11.5c-1.87,0-3.39-1.52-3.39-3.39
		v-11.22c0-0.94,0.38-1.79,0.99-2.4c0.61-0.61,1.46-0.99,2.4-0.99c1.88,0,3.39-1.52,3.39-3.39v-8.93c0-0.94-0.38-1.78-0.99-2.4
		c-0.61-0.61-1.46-0.99-2.4-0.99c-1.87,0-3.39-1.52-3.39-3.39v-11.23c0-1.87,1.52-3.39,3.39-3.39h50.03c1.87,0,3.39,1.52,3.39,3.39
		v11.23c0,0.94-0.38,1.79-0.99,2.4c-0.61,0.61-1.46,0.99-2.4,0.99C326.94,258.47,325.42,259.99,325.42,261.87L325.42,261.87z"/>
	<path class="st65" d="M313.84,265.06c0-5.55-4.5-10.05-10.05-10.05c-5.55,0-10.05,4.5-10.05,10.05c0,3.44,1.73,6.47,4.37,8.28v8.55
		c0,2.11,1.71,3.82,3.82,3.82h3.73c2.11,0,3.82-1.71,3.82-3.82v-8.55C312.11,271.53,313.84,268.49,313.84,265.06L313.84,265.06z"/>
</g>
</svg>
