<?xml version="1.0" encoding="utf-8"?>
<!-- Generator: Adobe Illustrator 24.0.1, SVG Export Plug-In . SVG Version: 6.00 Build 0)  -->
<svg version="1.1" id="Camada_1" xmlns="http://www.w3.org/2000/svg" xmlns:xlink="http://www.w3.org/1999/xlink" x="0px" y="0px"
	 viewBox="0 0 500 500" style="enable-background:new 0 0 500 500;" xml:space="preserve">
<style type="text/css">
	.st0{fill:#D28A47;}
	.st1{fill:#A8662F;}
	.st2{fill:#B7DBEB;}
	.st3{fill:#7893A1;}
	.st4{fill:#AACBDA;}
	.st5{opacity:0.1;fill:#333B40;}
	.st6{fill:#FDB232;}
	.st7{fill:#6C392C;}
	.st8{fill:#C7ECFD;}
	.st9{fill:#FDC63D;}
	.st10{fill:#FDDF5A;}
	.st11{fill:#FD5A4E;}
	.st12{fill:#FD7E68;}
	.st13{opacity:0.1;fill:#4A340E;}
	.st14{fill:#FDD555;}
	.st15{fill:#705F25;}
	.st16{opacity:0.1;fill:#455359;}
	.st17{fill:#E2E8F4;}
	.st18{fill:#D4D9E9;}
	.st19{fill:#76C1FB;}
	.st20{opacity:0.1;fill:#2D2E30;}
	.st21{fill:#F7C709;}
	.st22{fill:#EDE8E4;}
	.st23{fill:#876746;}
	.st24{fill:#DEB307;}
	.st25{fill:#B06E30;}
	.st26{opacity:0.1;fill:#3B3002;}
	.st27{fill:#ED5540;}
	.st28{fill:#CEC4DC;}
	.st29{opacity:0.1;fill:#3D3010;}
	.st30{fill:#526D8A;}
	.st31{fill:#8CD0F3;}
	.st32{fill:#CDE6F3;}
	.st33{fill:#394B61;}
	.st34{opacity:0.1;fill:#283645;}
	.st35{fill:#DFE1E6;}
	.st36{fill:#717114;}
	.st37{fill:#C7C8CD;}
	.st38{opacity:0.1;fill:#2A2A2B;}
	.st39{fill:#E0F2FC;}
	.st40{fill:#D0DFE9;}
	.st41{opacity:0.1;fill:#666E73;}
	.st42{fill:#FDBC07;}
	.st43{fill:#E6AB07;}
	.st44{fill:#FBC068;}
	.st45{fill:#FCE680;}
	.st46{fill:#B58A4B;}
	.st47{fill:#FDEFA9;}
	.st48{fill:#EE5226;}
	.st49{fill:#A72E23;}
	.st50{opacity:0.1;}
	.st51{fill:#4F4728;}
	.st52{fill:#94C9F3;}
	.st53{fill:#BDE1FD;}
	.st54{fill:#56748A;}
	.st55{fill:#B746BD;}
	.st56{fill:#DA53E1;}
	.st57{opacity:0.1;fill:#411842;}
	.st58{fill:#CA722D;}
	.st59{fill:#B05927;}
	.st60{fill:#FCD21B;}
	.st61{fill:#ECC51C;}
	.st62{fill:#F8A623;}
	.st63{fill:#D7E1E6;}
	.st64{fill:#C1CFD6;}
	.st65{fill:#333333;}
	.st66{fill:#CACACA;}
	.st67{fill:#D68747;}
	.st68{fill:#B1B2B2;}
	.st69{fill:#C2783F;}
	.st70{fill:#D69D55;}
	.st71{fill:#EDB96A;}
	.st72{fill:#A56B37;}
	.st73{fill:#F2CD28;}
	.st74{fill:#E4E4E4;}
	.st75{fill:#F17B65;}
	.st76{opacity:0.1;fill:#7B3E33;}
	.st77{fill:#AA5748;}
	.st78{fill:#A63F12;}
	.st79{fill:#EB5919;}
	.st80{fill:#F68688;}
	.st81{fill:#86330E;}
	.st82{fill:#F36968;}
	.st83{fill:#FFEBEE;}
	.st84{fill:#FFCDD2;}
	.st85{fill:#CFD8DC;}
	.st86{fill:#90A4AE;}
	.st87{fill:#B0BEC5;}
	.st88{fill:#FBE9E7;}
	.st89{fill:#E0F2F1;}
	.st90{fill:#B2DFDB;}
	.st91{fill:#ECEFF1;}
	.st92{fill:#EDE7F6;}
	.st93{fill:#D1C4E9;}
	.st94{fill:#78909C;}
	.st95{fill:#62808C;}
	.st96{fill:#FFF3E0;}
	.st97{fill:#FFE0B2;}
	.st98{fill:#E1E6EA;}
	.st99{fill:#E0F7FA;}
	.st100{fill:#B2EBF2;}
	.st101{fill:#E3F2FD;}
	.st102{fill:#BBDEFB;}
	.st103{fill:#A4B5BC;}
	.st104{fill:#F4D9BE;}
	.st105{fill:#AC9173;stroke:#876A54;stroke-miterlimit:10;}
	.st106{fill:#6AA6AB;}
	.st107{fill:#FFFFFF;}
	.st108{fill:#FFC2C4;}
	.st109{fill:#4A311A;}
	.st110{fill:#FFFFA4;}
	.st111{fill:#8192A4;}
	.st112{fill:#425059;}
	.st113{opacity:0.3;fill:#8192A4;enable-background:new    ;}
	.st114{opacity:0.4;fill:#8192A4;enable-background:new    ;}
	.st115{fill:#9BB3C9;}
	.st116{fill:#6F774B;}
	.st117{fill:#8D9968;}
	.st118{fill:#E94E1B;}
	.st119{fill:#F9B233;}
	.st120{fill:#FFF9AE;}
	.st121{fill:#F39200;}
	.st122{fill:#936037;}
	.st123{fill:#CA9E67;}
	.st124{fill:#7D4E24;}
	.st125{opacity:0.3;fill:#CA9E67;enable-background:new    ;}
	.st126{opacity:0.4;fill:#CA9E67;enable-background:new    ;}
	.st127{fill:#A3B9CC;}
	.st128{fill:#E30613;}
	.st129{fill:#566872;}
	.st130{fill:#B17F4A;}
	.st131{fill:#EDEDED;}
	.st132{fill:#00FFFF;}
	.st133{fill:#996483;}
	.st134{fill:#845A78;}
	.st135{fill:#FFED00;}
	.st136{fill:url(#SVGID_1_);}
</style>
<g>
	
		<ellipse transform="matrix(0.7071 -0.7071 0.7071 0.7071 -98.5137 248.0273)" class="st96" cx="250.14" cy="242.93" rx="176.42" ry="176.42"/>
	<g>
		<path class="st97" d="M426.56,242.93c0-5.72-0.28-11.37-0.81-16.95l-79.33-79.33L154.73,323.82l95.53,95.53
			C347.64,419.28,426.56,340.32,426.56,242.93z"/>
	</g>
	<g>
		<g>
			<path class="st86" d="M197.44,276.91l-42.71,42.71c-1.16,1.16-1.16,3.04,0,4.21l14.52,14.52c1.16,1.16,3.04,1.16,4.21,0
				l42.71-42.71L197.44,276.91z"/>
			<polygon class="st85" points="346.42,146.65 318.62,155.73 207.32,267.02 215.56,277.51 226.05,285.74 337.34,174.45 			"/>
			<path class="st87" d="M235.72,292.62c-1.49-1.49-3.37-2.32-5.31-2.51l-27.45-27.45c-0.19-1.94-1.03-3.83-2.51-5.31
				c-3.41-3.41-8.94-3.41-12.35,0c-3.41,3.41-3.41,8.94,0,12.35c1.28,1.28,2.87,2.08,4.53,2.4l28.34,28.34
				c0.32,1.66,1.12,3.24,2.4,4.53c3.41,3.41,8.94,3.41,12.35,0C239.13,301.56,239.13,296.03,235.72,292.62z"/>
			
				<rect x="187.59" y="289.46" transform="matrix(0.7071 0.7071 -0.7071 0.7071 265.468 -56.4082)" class="st94" width="26.48" height="5.57"/>
			
				<rect x="179.77" y="297.28" transform="matrix(0.7071 0.7071 -0.7071 0.7071 268.7061 -48.5905)" class="st94" width="26.48" height="5.57"/>
			
				<rect x="171.95" y="305.1" transform="matrix(0.7071 0.7071 -0.7071 0.7071 271.9444 -40.7727)" class="st94" width="26.48" height="5.57"/>
			
				<rect x="164.13" y="312.91" transform="matrix(0.7071 0.7071 -0.7071 0.7071 275.1826 -32.955)" class="st94" width="26.48" height="5.57"/>
			
				<rect x="156.31" y="320.73" transform="matrix(0.7071 0.7071 -0.7071 0.7071 278.4209 -25.1372)" class="st94" width="26.48" height="5.57"/>
		</g>
		<g>
			<path class="st86" d="M302.84,276.91l42.71,42.71c1.16,1.16,1.16,3.04,0,4.21l-14.52,14.52c-1.16,1.16-3.04,1.16-4.21,0
				l-42.71-42.71L302.84,276.91z"/>
			<polygon class="st98" points="153.86,146.65 181.66,155.73 292.95,267.02 284.72,277.51 274.23,285.74 162.94,174.45 			"/>
			<path class="st87" d="M264.55,292.62c1.49-1.49,3.37-2.32,5.31-2.51l27.45-27.45c0.19-1.94,1.03-3.83,2.51-5.31
				c3.41-3.41,8.94-3.41,12.35,0c3.41,3.41,3.41,8.94,0,12.35c-1.28,1.28-2.87,2.08-4.53,2.4l-28.34,28.34
				c-0.32,1.66-1.12,3.24-2.4,4.53c-3.41,3.41-8.94,3.41-12.35,0C261.14,301.56,261.14,296.03,264.55,292.62z"/>
			
				<rect x="286.21" y="289.46" transform="matrix(-0.7071 0.7071 -0.7071 -0.7071 717.8449 287.147)" class="st94" width="26.48" height="5.57"/>
			
				<rect x="294.03" y="297.28" transform="matrix(-0.7071 0.7071 -0.7071 -0.7071 736.7187 294.9647)" class="st94" width="26.48" height="5.57"/>
			
				<rect x="301.85" y="305.1" transform="matrix(-0.7071 0.7071 -0.7071 -0.7071 755.5925 302.7824)" class="st94" width="26.48" height="5.57"/>
			
				<rect x="309.67" y="312.91" transform="matrix(-0.7071 0.7071 -0.7071 -0.7071 774.4661 310.6002)" class="st94" width="26.48" height="5.57"/>
			
				<rect x="317.48" y="320.73" transform="matrix(-0.7071 0.7071 -0.7071 -0.7071 793.34 318.418)" class="st94" width="26.48" height="5.57"/>
		</g>
	</g>
</g>
</svg>
