<?xml version="1.0" encoding="utf-8"?>
<!-- Generator: Adobe Illustrator 24.0.1, SVG Export Plug-In . SVG Version: 6.00 Build 0)  -->
<svg version="1.1" id="Camada_1" xmlns="http://www.w3.org/2000/svg" xmlns:xlink="http://www.w3.org/1999/xlink" x="0px" y="0px"
	 viewBox="0 0 500 500" style="enable-background:new 0 0 500 500;" xml:space="preserve">
<style type="text/css">
	.st0{fill:#D28A47;}
	.st1{fill:#A8662F;}
	.st2{fill:#B7DBEB;}
	.st3{fill:#7893A1;}
	.st4{fill:#AACBDA;}
	.st5{opacity:0.1;fill:#333B40;}
	.st6{fill:#FDB232;}
	.st7{fill:#6C392C;}
	.st8{fill:#C7ECFD;}
	.st9{fill:#FDC63D;}
	.st10{fill:#FDDF5A;}
	.st11{fill:#FD5A4E;}
	.st12{fill:#FD7E68;}
	.st13{opacity:0.1;fill:#4A340E;}
	.st14{fill:#FDD555;}
	.st15{fill:#705F25;}
	.st16{opacity:0.1;fill:#455359;}
	.st17{fill:#E2E8F4;}
	.st18{fill:#D4D9E9;}
	.st19{fill:#76C1FB;}
	.st20{opacity:0.1;fill:#2D2E30;}
	.st21{fill:#F7C709;}
	.st22{fill:#EDE8E4;}
	.st23{fill:#876746;}
	.st24{fill:#DEB307;}
	.st25{fill:#B06E30;}
	.st26{opacity:0.1;fill:#3B3002;}
	.st27{fill:#ED5540;}
	.st28{fill:#CEC4DC;}
	.st29{opacity:0.1;fill:#3D3010;}
	.st30{fill:#526D8A;}
	.st31{fill:#8CD0F3;}
	.st32{fill:#CDE6F3;}
	.st33{fill:#394B61;}
	.st34{opacity:0.1;fill:#283645;}
	.st35{fill:#DFE1E6;}
	.st36{fill:#717114;}
	.st37{fill:#C7C8CD;}
	.st38{opacity:0.1;fill:#2A2A2B;}
	.st39{fill:#E0F2FC;}
	.st40{fill:#D0DFE9;}
	.st41{opacity:0.1;fill:#666E73;}
	.st42{fill:#FDBC07;}
	.st43{fill:#E6AB07;}
	.st44{fill:#FBC068;}
	.st45{fill:#FCE680;}
	.st46{fill:#B58A4B;}
	.st47{fill:#FDEFA9;}
	.st48{fill:#EE5226;}
	.st49{fill:#A72E23;}
	.st50{opacity:0.1;}
	.st51{fill:#4F4728;}
	.st52{fill:#94C9F3;}
	.st53{fill:#BDE1FD;}
	.st54{fill:#56748A;}
	.st55{fill:#B746BD;}
	.st56{fill:#DA53E1;}
	.st57{opacity:0.1;fill:#411842;}
	.st58{fill:#CA722D;}
	.st59{fill:#B05927;}
	.st60{fill:#FCD21B;}
	.st61{fill:#ECC51C;}
	.st62{fill:#F8A623;}
	.st63{fill:#D7E1E6;}
	.st64{fill:#C1CFD6;}
	.st65{fill:#333333;}
	.st66{fill:#CACACA;}
	.st67{fill:#D68747;}
	.st68{fill:#B1B2B2;}
	.st69{fill:#C2783F;}
	.st70{fill:#D69D55;}
	.st71{fill:#EDB96A;}
	.st72{fill:#A56B37;}
	.st73{fill:#F2CD28;}
	.st74{fill:#E4E4E4;}
	.st75{fill:#F17B65;}
	.st76{opacity:0.1;fill:#7B3E33;}
	.st77{fill:#AA5748;}
	.st78{fill:#A63F12;}
	.st79{fill:#EB5919;}
	.st80{fill:#F68688;}
	.st81{fill:#86330E;}
	.st82{fill:#F36968;}
	.st83{fill:#FFEBEE;}
	.st84{fill:#FFCDD2;}
	.st85{fill:#CFD8DC;}
	.st86{fill:#90A4AE;}
	.st87{fill:#B0BEC5;}
	.st88{fill:#FBE9E7;}
	.st89{fill:#E0F2F1;}
	.st90{fill:#B2DFDB;}
	.st91{fill:#ECEFF1;}
	.st92{fill:#EDE7F6;}
	.st93{fill:#D1C4E9;}
	.st94{fill:#78909C;}
	.st95{fill:#62808C;}
	.st96{fill:#FFF3E0;}
	.st97{fill:#FFE0B2;}
	.st98{fill:#E1E6EA;}
	.st99{fill:#E0F7FA;}
	.st100{fill:#B2EBF2;}
	.st101{fill:#E3F2FD;}
	.st102{fill:#BBDEFB;}
	.st103{fill:#A4B5BC;}
	.st104{fill:#F4D9BE;}
	.st105{fill:#AC9173;stroke:#876A54;stroke-miterlimit:10;}
	.st106{fill:#6AA6AB;}
	.st107{fill:#FFFFFF;}
	.st108{fill:#FFC2C4;}
	.st109{fill:#4A311A;}
	.st110{fill:#FFFFA4;}
	.st111{fill:#8192A4;}
	.st112{fill:#425059;}
	.st113{opacity:0.3;fill:#8192A4;enable-background:new    ;}
	.st114{opacity:0.4;fill:#8192A4;enable-background:new    ;}
	.st115{fill:#9BB3C9;}
	.st116{fill:#6F774B;}
	.st117{fill:#8D9968;}
	.st118{fill:#E94E1B;}
	.st119{fill:#F9B233;}
	.st120{fill:#FFF9AE;}
	.st121{fill:#F39200;}
	.st122{fill:#936037;}
	.st123{fill:#CA9E67;}
	.st124{fill:#7D4E24;}
	.st125{opacity:0.3;fill:#CA9E67;enable-background:new    ;}
	.st126{opacity:0.4;fill:#CA9E67;enable-background:new    ;}
	.st127{fill:#A3B9CC;}
	.st128{fill:#E30613;}
	.st129{fill:#566872;}
	.st130{fill:#B17F4A;}
	.st131{fill:#EDEDED;}
	.st132{fill:#00FFFF;}
	.st133{fill:#996483;}
	.st134{fill:#845A78;}
	.st135{fill:#FFED00;}
	.st136{fill:url(#SVGID_1_);}
</style>
<g>
	<g>
		<polygon class="st0" points="265.45,134.73 264.4,134.73 243.6,134.73 241.57,134.73 232.82,134.73 182.55,208.47 182.55,242.69 
			241.27,371.67 241.57,371.67 243.6,371.67 264.4,371.67 265.45,371.67 266.73,371.67 325.45,242.69 325.45,208.47 275.18,134.73 
					"/>
		<polygon class="st1" points="224.32,147.2 219.09,154.87 288.91,154.87 283.68,147.2 		"/>
		<polygon class="st1" points="210.54,167.4 205.32,175.07 302.68,175.07 297.46,167.4 		"/>
		<polygon class="st1" points="196.77,187.61 191.54,195.27 316.46,195.27 311.23,187.61 		"/>
		<polygon class="st1" points="183,207.81 182.55,208.47 182.55,215.47 325.45,215.47 325.45,208.47 325,207.81 		"/>
		<rect x="182.55" y="228.01" class="st1" width="142.9" height="7.67"/>
		<polygon class="st1" points="188.55,255.87 319.45,255.87 322.94,248.21 185.06,248.21 		"/>
		<polygon class="st1" points="197.75,276.07 310.25,276.07 313.74,268.41 194.26,268.41 		"/>
		<polygon class="st1" points="206.95,296.27 301.05,296.27 304.55,288.61 203.45,288.61 		"/>
		<polygon class="st1" points="216.14,316.48 291.86,316.48 295.35,308.81 212.65,308.81 		"/>
		<polygon class="st1" points="225.34,336.68 282.66,336.68 286.15,329.01 221.85,329.01 		"/>
		<polygon class="st1" points="234.53,356.88 273.47,356.88 276.96,349.21 231.04,349.21 		"/>
	</g>
	<path class="st2" d="M283.09,122.39c-3.37-4.6-8.73-7.32-14.43-7.32h-29.32c-5.7,0-11.06,2.72-14.43,7.32l-53.05,72.5
		c-2.24,3.06-3.45,6.76-3.45,10.56v31.29c0,2.55,0.55,5.07,1.6,7.39l62.11,136.71c2.9,6.38,9.26,10.48,16.28,10.48h11.21
		c7.01,0,13.38-4.1,16.28-10.48l62.11-136.71c1.06-2.32,1.6-4.84,1.6-7.39v-31.29c0-3.8-1.21-7.49-3.45-10.56L283.09,122.39z
		 M243.61,371.67h-2.33l-58.72-128.99v-34.22l50.27-73.74h10.78V371.67z M325.45,242.69l-58.72,128.99h-2.33V134.73h10.78
		l50.27,73.74V242.69z"/>
	<g>
		<g>
			<path class="st3" d="M243.67,132.61h-11.52c-0.54,0-1.04,0.27-1.34,0.71l-50.42,73.95l-0.37,0.54v35.33l59.48,130.64h5.8V134.24
				C245.29,133.34,244.56,132.61,243.67,132.61z M241.06,359.56c0,1.75-2.38,2.26-3.1,0.67l-53.58-117.68
				c-0.1-0.21-0.15-0.44-0.15-0.67v-32.26c0-0.33,0.1-0.65,0.28-0.91l48.51-71.15c0.3-0.44,0.81-0.71,1.34-0.71h5.06
				c0.9,0,1.62,0.73,1.62,1.62V359.56z"/>
		</g>
	</g>
	<g>
		<g>
			<path class="st3" d="M277.28,133.32c-0.3-0.44-0.8-0.71-1.34-0.71h-11.52c-0.9,0-1.62,0.73-1.62,1.62v239.55h5.8l59.48-130.64
				v-35.33l-0.37-0.54L277.28,133.32z M323.84,241.88c0,0.23-0.05,0.46-0.15,0.67l-53.58,117.68c-0.72,1.59-3.1,1.07-3.1-0.67
				v-221.1c0-0.9,0.73-1.62,1.62-1.62h5.06c0.54,0,1.04,0.27,1.34,0.71l48.51,71.15c0.18,0.27,0.28,0.59,0.28,0.91V241.88z"/>
		</g>
	</g>
	<path class="st4" d="M258.04,205.62c-1.93-2.87-6.15-2.87-8.08,0l-24.51,36.45c-0.87,1.3-1.07,2.93-0.53,4.4l24.51,66.78
		c1.56,4.26,7.58,4.26,9.15,0l24.51-66.78c0.54-1.47,0.34-3.1-0.53-4.4L258.04,205.62z"/>
	<g>
		<path class="st3" d="M259.8,204.44c-1.3-1.93-3.47-3.09-5.8-3.09c-2.33,0-4.5,1.15-5.8,3.09l-24.51,36.45
			c-1.25,1.85-1.53,4.21-0.76,6.3l24.51,66.78c1.02,2.78,3.59,4.58,6.56,4.58c2.96,0,5.54-1.8,6.56-4.58l24.51-66.78
			c0.77-2.1,0.48-4.45-0.76-6.3L259.8,204.44z M281.1,245.74l-24.51,66.78c-0.62,1.68-2.14,1.81-2.59,1.81
			c-0.45,0-1.97-0.13-2.59-1.81l-24.51-66.78c-0.3-0.83-0.19-1.76,0.3-2.49l24.51-36.45c0.52-0.77,1.36-1.22,2.29-1.22
			c0.93,0,1.77,0.44,2.29,1.22l24.51,36.45C281.29,243.98,281.4,244.91,281.1,245.74z"/>
	</g>
	<path class="st5" d="M224.91,122.39l-53.05,72.5c-2.24,3.06-3.45,6.76-3.45,10.56v31.29c0,2.55,0.55,5.07,1.6,7.39l62.11,136.71
		c2.9,6.38,9.26,10.48,16.28,10.48h5.6V115.07h-14.66C233.64,115.07,228.28,117.79,224.91,122.39z"/>
</g>
</svg>
