<?xml version="1.0" encoding="utf-8"?>
<!-- Generator: Adobe Illustrator 24.0.1, SVG Export Plug-In . SVG Version: 6.00 Build 0)  -->
<svg version="1.1" id="Camada_1" xmlns="http://www.w3.org/2000/svg" xmlns:xlink="http://www.w3.org/1999/xlink" x="0px" y="0px"
	 viewBox="0 0 500 500" style="enable-background:new 0 0 500 500;" xml:space="preserve">
<style type="text/css">
	.st0{fill:#D28A47;}
	.st1{fill:#A8662F;}
	.st2{fill:#B7DBEB;}
	.st3{fill:#7893A1;}
	.st4{fill:#AACBDA;}
	.st5{opacity:0.1;fill:#333B40;}
	.st6{fill:#FDB232;}
	.st7{fill:#6C392C;}
	.st8{fill:#C7ECFD;}
	.st9{fill:#FDC63D;}
	.st10{fill:#FDDF5A;}
	.st11{fill:#FD5A4E;}
	.st12{fill:#FD7E68;}
	.st13{opacity:0.1;fill:#4A340E;}
	.st14{fill:#FDD555;}
	.st15{fill:#705F25;}
	.st16{opacity:0.1;fill:#455359;}
	.st17{fill:#E2E8F4;}
	.st18{fill:#D4D9E9;}
	.st19{fill:#76C1FB;}
	.st20{opacity:0.1;fill:#2D2E30;}
	.st21{fill:#F7C709;}
	.st22{fill:#EDE8E4;}
	.st23{fill:#876746;}
	.st24{fill:#DEB307;}
	.st25{fill:#B06E30;}
	.st26{opacity:0.1;fill:#3B3002;}
	.st27{fill:#ED5540;}
	.st28{fill:#CEC4DC;}
	.st29{opacity:0.1;fill:#3D3010;}
	.st30{fill:#526D8A;}
	.st31{fill:#8CD0F3;}
	.st32{fill:#CDE6F3;}
	.st33{fill:#394B61;}
	.st34{opacity:0.1;fill:#283645;}
	.st35{fill:#DFE1E6;}
	.st36{fill:#717114;}
	.st37{fill:#C7C8CD;}
	.st38{opacity:0.1;fill:#2A2A2B;}
	.st39{fill:#E0F2FC;}
	.st40{fill:#D0DFE9;}
	.st41{opacity:0.1;fill:#666E73;}
	.st42{fill:#FDBC07;}
	.st43{fill:#E6AB07;}
	.st44{fill:#FBC068;}
	.st45{fill:#FCE680;}
	.st46{fill:#B58A4B;}
	.st47{fill:#FDEFA9;}
	.st48{fill:#EE5226;}
	.st49{fill:#A72E23;}
	.st50{opacity:0.1;}
	.st51{fill:#4F4728;}
	.st52{fill:#94C9F3;}
	.st53{fill:#BDE1FD;}
	.st54{fill:#56748A;}
	.st55{fill:#B746BD;}
	.st56{fill:#DA53E1;}
	.st57{opacity:0.1;fill:#411842;}
	.st58{fill:#CA722D;}
	.st59{fill:#B05927;}
	.st60{fill:#FCD21B;}
	.st61{fill:#ECC51C;}
	.st62{fill:#F8A623;}
	.st63{fill:#D7E1E6;}
	.st64{fill:#C1CFD6;}
	.st65{fill:#333333;}
	.st66{fill:#CACACA;}
	.st67{fill:#D68747;}
	.st68{fill:#B1B2B2;}
	.st69{fill:#C2783F;}
	.st70{fill:#D69D55;}
	.st71{fill:#EDB96A;}
	.st72{fill:#A56B37;}
	.st73{fill:#F2CD28;}
	.st74{fill:#E4E4E4;}
	.st75{fill:#F17B65;}
	.st76{opacity:0.1;fill:#7B3E33;}
	.st77{fill:#AA5748;}
	.st78{fill:#A63F12;}
	.st79{fill:#EB5919;}
	.st80{fill:#F68688;}
	.st81{fill:#86330E;}
	.st82{fill:#F36968;}
	.st83{fill:#FFEBEE;}
	.st84{fill:#FFCDD2;}
	.st85{fill:#CFD8DC;}
	.st86{fill:#90A4AE;}
	.st87{fill:#B0BEC5;}
	.st88{fill:#FBE9E7;}
	.st89{fill:#E0F2F1;}
	.st90{fill:#B2DFDB;}
	.st91{fill:#ECEFF1;}
	.st92{fill:#EDE7F6;}
	.st93{fill:#D1C4E9;}
	.st94{fill:#78909C;}
	.st95{fill:#62808C;}
	.st96{fill:#FFF3E0;}
	.st97{fill:#FFE0B2;}
	.st98{fill:#E1E6EA;}
	.st99{fill:#E0F7FA;}
	.st100{fill:#B2EBF2;}
	.st101{fill:#E3F2FD;}
	.st102{fill:#BBDEFB;}
	.st103{fill:#A4B5BC;}
	.st104{fill:#F4D9BE;}
	.st105{fill:#AC9173;stroke:#876A54;stroke-miterlimit:10;}
	.st106{fill:#6AA6AB;}
	.st107{fill:#FFFFFF;}
	.st108{fill:#FFC2C4;}
	.st109{fill:#4A311A;}
	.st110{fill:#FFFFA4;}
	.st111{fill:#8192A4;}
	.st112{fill:#425059;}
	.st113{opacity:0.3;fill:#8192A4;enable-background:new    ;}
	.st114{opacity:0.4;fill:#8192A4;enable-background:new    ;}
	.st115{fill:#9BB3C9;}
	.st116{fill:#6F774B;}
	.st117{fill:#8D9968;}
	.st118{fill:#E94E1B;}
	.st119{fill:#F9B233;}
	.st120{fill:#FFF9AE;}
	.st121{fill:#F39200;}
	.st122{fill:#936037;}
	.st123{fill:#CA9E67;}
	.st124{fill:#7D4E24;}
	.st125{opacity:0.3;fill:#CA9E67;enable-background:new    ;}
	.st126{opacity:0.4;fill:#CA9E67;enable-background:new    ;}
	.st127{fill:#A3B9CC;}
	.st128{fill:#E30613;}
	.st129{fill:#566872;}
	.st130{fill:#B17F4A;}
	.st131{fill:#EDEDED;}
	.st132{fill:#00FFFF;}
	.st133{fill:#996483;}
	.st134{fill:#845A78;}
	.st135{fill:#FFED00;}
	.st136{fill:url(#SVGID_1_);}
</style>
<g>
	
		<ellipse transform="matrix(0.7071 -0.7071 0.7071 0.7071 -101.5995 244.7172)" class="st92" cx="244.6" cy="245" rx="176.42" ry="176.42"/>
	<g>
		<path class="st93" d="M418.65,273.9L244.6,99.85l0,196.34l-75.88,18.08l38.2,38.2l-15.97,15.46l53.49,53.49c0.05,0,0.11,0,0.16,0
			C332.19,421.42,404.86,357.58,418.65,273.9z"/>
	</g>
	<g>
		<g>
			<path class="st94" d="M244.6,99.85L244.6,99.85c-4.9,0-8.87,3.97-8.87,8.87v46.08h17.75v-46.08
				C253.47,103.82,249.5,99.85,244.6,99.85z"/>
			<rect x="235.73" y="154.81" class="st87" width="17.75" height="120.79"/>
			<path class="st85" d="M260.65,163.73h-32.1c-3.47,0-6.29-2.82-6.29-6.29v-0.87c0-3.47,2.82-6.29,6.29-6.29h32.1
				c3.47,0,6.29,2.82,6.29,6.29v0.87C266.94,160.92,264.13,163.73,260.65,163.73z"/>
			<g>
				<g>
					<polygon class="st94" points="232.99,352.94 244.6,390.15 256.21,352.94 					"/>
				</g>
			</g>
			<g>
				<g>
					<polygon class="st94" points="209.05,333.4 190.94,367.92 225.47,349.82 					"/>
				</g>
				<g>
					<polygon class="st94" points="263.73,278.71 298.26,260.61 280.15,295.13 					"/>
				</g>
			</g>
			<g>
				<g>
					<polygon class="st94" points="205.93,302.66 168.72,314.27 205.93,325.88 					"/>
				</g>
				<g>
					<polygon class="st94" points="283.27,302.66 320.48,314.27 283.27,325.88 					"/>
				</g>
			</g>
			<g>
				<g>
					<polygon class="st94" points="225.47,278.71 190.94,260.61 209.05,295.13 					"/>
				</g>
				<g>
					<polygon class="st94" points="280.15,333.4 298.26,367.92 263.73,349.82 					"/>
				</g>
			</g>
			<circle class="st86" cx="244.6" cy="314.19" r="44.38"/>
			
				<ellipse transform="matrix(0.2298 -0.9732 0.9732 0.2298 -117.378 480.0564)" class="st94" cx="244.6" cy="314.19" rx="7.52" ry="7.52"/>
			<g>
				<circle class="st94" cx="244.6" cy="288.67" r="7.52"/>
				
					<ellipse transform="matrix(0.7071 -0.7071 0.7071 0.7071 -168.5638 272.4547)" class="st94" cx="244.6" cy="339.7" rx="7.52" ry="7.52"/>
			</g>
			<g>
				
					<ellipse transform="matrix(0.7071 -0.7071 0.7071 0.7071 -143.0469 283.0242)" class="st94" cx="270.12" cy="314.19" rx="7.52" ry="7.52"/>
				
					<ellipse transform="matrix(0.2298 -0.9732 0.9732 0.2298 -137.0323 455.2221)" class="st94" cx="219.08" cy="314.19" rx="7.52" ry="7.52"/>
			</g>
		</g>
		<g>
			<rect x="235.73" y="140.22" class="st95" width="17.75" height="3.29"/>
			<rect x="235.73" y="130.53" class="st95" width="17.75" height="3.29"/>
			<rect x="235.73" y="120.84" class="st95" width="17.75" height="3.29"/>
			<rect x="235.73" y="111.15" class="st95" width="17.75" height="3.29"/>
		</g>
	</g>
</g>
</svg>
