<?xml version="1.0" encoding="utf-8"?>
<!-- Generator: Adobe Illustrator 24.0.1, SVG Export Plug-In . SVG Version: 6.00 Build 0)  -->
<svg version="1.1" id="Camada_1" xmlns="http://www.w3.org/2000/svg" xmlns:xlink="http://www.w3.org/1999/xlink" x="0px" y="0px"
	 viewBox="0 0 500 500" style="enable-background:new 0 0 500 500;" xml:space="preserve">
<style type="text/css">
	.st0{fill:#D28A47;}
	.st1{fill:#A8662F;}
	.st2{fill:#B7DBEB;}
	.st3{fill:#7893A1;}
	.st4{fill:#AACBDA;}
	.st5{opacity:0.1;fill:#333B40;}
	.st6{fill:#FDB232;}
	.st7{fill:#6C392C;}
	.st8{fill:#C7ECFD;}
	.st9{fill:#FDC63D;}
	.st10{fill:#FDDF5A;}
	.st11{fill:#FD5A4E;}
	.st12{fill:#FD7E68;}
	.st13{opacity:0.1;fill:#4A340E;}
	.st14{fill:#FDD555;}
	.st15{fill:#705F25;}
	.st16{opacity:0.1;fill:#455359;}
	.st17{fill:#E2E8F4;}
	.st18{fill:#D4D9E9;}
	.st19{fill:#76C1FB;}
	.st20{opacity:0.1;fill:#2D2E30;}
	.st21{fill:#F7C709;}
	.st22{fill:#EDE8E4;}
	.st23{fill:#876746;}
	.st24{fill:#DEB307;}
	.st25{fill:#B06E30;}
	.st26{opacity:0.1;fill:#3B3002;}
	.st27{fill:#ED5540;}
	.st28{fill:#CEC4DC;}
	.st29{opacity:0.1;fill:#3D3010;}
	.st30{fill:#526D8A;}
	.st31{fill:#8CD0F3;}
	.st32{fill:#CDE6F3;}
	.st33{fill:#394B61;}
	.st34{opacity:0.1;fill:#283645;}
	.st35{fill:#DFE1E6;}
	.st36{fill:#717114;}
	.st37{fill:#C7C8CD;}
	.st38{opacity:0.1;fill:#2A2A2B;}
	.st39{fill:#E0F2FC;}
	.st40{fill:#D0DFE9;}
	.st41{opacity:0.1;fill:#666E73;}
	.st42{fill:#FDBC07;}
	.st43{fill:#E6AB07;}
	.st44{fill:#FBC068;}
	.st45{fill:#FCE680;}
	.st46{fill:#B58A4B;}
	.st47{fill:#FDEFA9;}
	.st48{fill:#EE5226;}
	.st49{fill:#A72E23;}
	.st50{opacity:0.1;}
	.st51{fill:#4F4728;}
	.st52{fill:#94C9F3;}
	.st53{fill:#BDE1FD;}
	.st54{fill:#56748A;}
	.st55{fill:#B746BD;}
	.st56{fill:#DA53E1;}
	.st57{opacity:0.1;fill:#411842;}
	.st58{fill:#CA722D;}
	.st59{fill:#B05927;}
	.st60{fill:#FCD21B;}
	.st61{fill:#ECC51C;}
	.st62{fill:#F8A623;}
	.st63{fill:#D7E1E6;}
	.st64{fill:#C1CFD6;}
	.st65{fill:#333333;}
	.st66{fill:#CACACA;}
	.st67{fill:#D68747;}
	.st68{fill:#B1B2B2;}
	.st69{fill:#C2783F;}
	.st70{fill:#D69D55;}
	.st71{fill:#EDB96A;}
	.st72{fill:#A56B37;}
	.st73{fill:#F2CD28;}
	.st74{fill:#E4E4E4;}
	.st75{fill:#F17B65;}
	.st76{opacity:0.1;fill:#7B3E33;}
	.st77{fill:#AA5748;}
	.st78{fill:#A63F12;}
	.st79{fill:#EB5919;}
	.st80{fill:#F68688;}
	.st81{fill:#86330E;}
	.st82{fill:#F36968;}
	.st83{fill:#FFEBEE;}
	.st84{fill:#FFCDD2;}
	.st85{fill:#CFD8DC;}
	.st86{fill:#90A4AE;}
	.st87{fill:#B0BEC5;}
	.st88{fill:#FBE9E7;}
	.st89{fill:#E0F2F1;}
	.st90{fill:#B2DFDB;}
	.st91{fill:#ECEFF1;}
	.st92{fill:#EDE7F6;}
	.st93{fill:#D1C4E9;}
	.st94{fill:#78909C;}
	.st95{fill:#62808C;}
	.st96{fill:#FFF3E0;}
	.st97{fill:#FFE0B2;}
	.st98{fill:#E1E6EA;}
	.st99{fill:#E0F7FA;}
	.st100{fill:#B2EBF2;}
	.st101{fill:#E3F2FD;}
	.st102{fill:#BBDEFB;}
	.st103{fill:#A4B5BC;}
	.st104{fill:#F4D9BE;}
	.st105{fill:#AC9173;stroke:#876A54;stroke-miterlimit:10;}
	.st106{fill:#6AA6AB;}
	.st107{fill:#FFFFFF;}
	.st108{fill:#FFC2C4;}
	.st109{fill:#4A311A;}
	.st110{fill:#FFFFA4;}
	.st111{fill:#8192A4;}
	.st112{fill:#425059;}
	.st113{opacity:0.3;fill:#8192A4;enable-background:new    ;}
	.st114{opacity:0.4;fill:#8192A4;enable-background:new    ;}
	.st115{fill:#9BB3C9;}
	.st116{fill:#6F774B;}
	.st117{fill:#8D9968;}
	.st118{fill:#E94E1B;}
	.st119{fill:#F9B233;}
	.st120{fill:#FFF9AE;}
	.st121{fill:#F39200;}
	.st122{fill:#936037;}
	.st123{fill:#CA9E67;}
	.st124{fill:#7D4E24;}
	.st125{opacity:0.3;fill:#CA9E67;enable-background:new    ;}
	.st126{opacity:0.4;fill:#CA9E67;enable-background:new    ;}
	.st127{fill:#A3B9CC;}
	.st128{fill:#E30613;}
	.st129{fill:#566872;}
	.st130{fill:#B17F4A;}
	.st131{fill:#EDEDED;}
	.st132{fill:#00FFFF;}
	.st133{fill:#996483;}
	.st134{fill:#845A78;}
	.st135{fill:#FFED00;}
	.st136{fill:url(#SVGID_1_);}
</style>
<g>
	<path class="st44" d="M214.02,118.6c-18.03,0-32.7,14.67-32.7,32.7c0,6.17-0.06,140.89-0.07,161.07v33.42h120.31
		c18.03,0,32.7-14.67,32.7-32.7c0-6.07,0.07-170.73,0.07-170.73c0-13.07,10.56-23.68,23.61-23.76l0,0H214.02z"/>
	<path class="st45" d="M300.11,345.8h0.79v-0.02C300.64,345.78,300.38,345.8,300.11,345.8L300.11,345.8z"/>
	<path class="st46" d="M334.33,142.37c0-13.12,10.64-23.76,23.76-23.76c10.76,0,19.86,7.16,22.78,16.98
		c1.01,3.39-1.55,6.79-5.08,6.79H334.33L334.33,142.37z"/>
	<path class="st47" d="M299.29,187.48L299.29,187.48c0,4.01-3.25,7.27-7.27,7.27h-68.46c-4.01,0-7.27-3.25-7.27-7.27l0,0
		c0-4.01,3.25-7.27,7.27-7.27h68.46C296.03,180.21,299.29,183.46,299.29,187.48z"/>
	<path class="st47" d="M299.29,161.63L299.29,161.63c0,4.01-3.25,7.27-7.27,7.27h-26.96c-4.01,0-7.27-3.25-7.27-7.27l0,0
		c0-4.01,3.25-7.27,7.27-7.27h26.96C296.03,154.36,299.29,157.61,299.29,161.63z"/>
	<path class="st47" d="M299.29,213.32L299.29,213.32c0,4.01-3.25,7.27-7.27,7.27h-68.46c-4.01,0-7.27-3.25-7.27-7.27l0,0
		c0-4.01,3.25-7.27,7.27-7.27h68.46C296.03,206.05,299.29,209.31,299.29,213.32z"/>
	<path class="st45" d="M265.06,268.83v16.32c0,2.18-1.76,3.94-3.94,3.94h-6.66c-2.18,0-3.94-1.76-3.94-3.94v-16.32
		c0-2.18,1.76-3.94,3.94-3.94h6.66C263.29,264.89,265.06,266.66,265.06,268.83z"/>
	<path class="st48" d="M257.79,270.44c-10.69,0-19.38-8.7-19.38-19.39c0-10.69,8.7-19.38,19.38-19.38c10.69,0,19.38,8.7,19.38,19.38
		C277.17,261.75,268.48,270.44,257.79,270.44L257.79,270.44z"/>
	<path class="st49" d="M257.79,260.1c-4.99,0-9.05-4.06-9.05-9.05c0-4.99,4.06-9.05,9.05-9.05c4.99,0,9.05,4.06,9.05,9.05
		C266.83,256.05,262.78,260.1,257.79,260.1L257.79,260.1z"/>
	<path class="st45" d="M300.11,345.8h0.79v-0.02C300.64,345.78,300.38,345.8,300.11,345.8L300.11,345.8z"/>
	<path class="st45" d="M265.7,311.39c0-0.19,0-2.03,0.01-4.23c0.01-4.39-3.54-7.95-7.93-7.95H141.65c-4.38,0-7.93,3.55-7.93,7.93
		v7.74c0,17.08,13.84,30.92,30.92,30.92h135.47C281.11,345.8,265.7,330.39,265.7,311.39L265.7,311.39z"/>
	<g class="st50">
		<path class="st51" d="M202.45,151.3c0-18.03,14.67-32.7,32.7-32.7h-21.13c-18.03,0-32.7,14.67-32.7,32.7
			c0,5.37-0.05,107.99-0.07,147.9h21.13C202.4,259.3,202.45,156.67,202.45,151.3z"/>
		<path class="st51" d="M154.85,314.88v-7.74c0-4.38,3.55-7.93,7.93-7.93h-21.13c-4.38,0-7.93,3.55-7.93,7.93v7.74
			c0,17.08,13.84,30.92,30.92,30.92h16.6h4.53C168.7,345.8,154.85,331.95,154.85,314.88z"/>
	</g>
</g>
</svg>
