<?xml version="1.0" encoding="utf-8"?>
<!-- Generator: Adobe Illustrator 24.0.1, SVG Export Plug-In . SVG Version: 6.00 Build 0)  -->
<svg version="1.1" id="Camada_1" xmlns="http://www.w3.org/2000/svg" xmlns:xlink="http://www.w3.org/1999/xlink" x="0px" y="0px"
	 viewBox="0 0 500 500" style="enable-background:new 0 0 500 500;" xml:space="preserve">
<style type="text/css">
	.st0{fill:#D28A47;}
	.st1{fill:#A8662F;}
	.st2{fill:#B7DBEB;}
	.st3{fill:#7893A1;}
	.st4{fill:#AACBDA;}
	.st5{opacity:0.1;fill:#333B40;}
	.st6{fill:#FDB232;}
	.st7{fill:#6C392C;}
	.st8{fill:#C7ECFD;}
	.st9{fill:#FDC63D;}
	.st10{fill:#FDDF5A;}
	.st11{fill:#FD5A4E;}
	.st12{fill:#FD7E68;}
	.st13{opacity:0.1;fill:#4A340E;}
	.st14{fill:#FDD555;}
	.st15{fill:#705F25;}
	.st16{opacity:0.1;fill:#455359;}
	.st17{fill:#E2E8F4;}
	.st18{fill:#D4D9E9;}
	.st19{fill:#76C1FB;}
	.st20{opacity:0.1;fill:#2D2E30;}
	.st21{fill:#F7C709;}
	.st22{fill:#EDE8E4;}
	.st23{fill:#876746;}
	.st24{fill:#DEB307;}
	.st25{fill:#B06E30;}
	.st26{opacity:0.1;fill:#3B3002;}
	.st27{fill:#ED5540;}
	.st28{fill:#CEC4DC;}
	.st29{opacity:0.1;fill:#3D3010;}
	.st30{fill:#526D8A;}
	.st31{fill:#8CD0F3;}
	.st32{fill:#CDE6F3;}
	.st33{fill:#394B61;}
	.st34{opacity:0.1;fill:#283645;}
	.st35{fill:#DFE1E6;}
	.st36{fill:#717114;}
	.st37{fill:#C7C8CD;}
	.st38{opacity:0.1;fill:#2A2A2B;}
	.st39{fill:#E0F2FC;}
	.st40{fill:#D0DFE9;}
	.st41{opacity:0.1;fill:#666E73;}
	.st42{fill:#FDBC07;}
	.st43{fill:#E6AB07;}
	.st44{fill:#FBC068;}
	.st45{fill:#FCE680;}
	.st46{fill:#B58A4B;}
	.st47{fill:#FDEFA9;}
	.st48{fill:#EE5226;}
	.st49{fill:#A72E23;}
	.st50{opacity:0.1;}
	.st51{fill:#4F4728;}
	.st52{fill:#94C9F3;}
	.st53{fill:#BDE1FD;}
	.st54{fill:#56748A;}
	.st55{fill:#B746BD;}
	.st56{fill:#DA53E1;}
	.st57{opacity:0.1;fill:#411842;}
	.st58{fill:#CA722D;}
	.st59{fill:#B05927;}
	.st60{fill:#FCD21B;}
	.st61{fill:#ECC51C;}
	.st62{fill:#F8A623;}
	.st63{fill:#D7E1E6;}
	.st64{fill:#C1CFD6;}
	.st65{fill:#333333;}
	.st66{fill:#CACACA;}
	.st67{fill:#D68747;}
	.st68{fill:#B1B2B2;}
	.st69{fill:#C2783F;}
	.st70{fill:#D69D55;}
	.st71{fill:#EDB96A;}
	.st72{fill:#A56B37;}
	.st73{fill:#F2CD28;}
	.st74{fill:#E4E4E4;}
	.st75{fill:#F17B65;}
	.st76{opacity:0.1;fill:#7B3E33;}
	.st77{fill:#AA5748;}
	.st78{fill:#A63F12;}
	.st79{fill:#EB5919;}
	.st80{fill:#F68688;}
	.st81{fill:#86330E;}
	.st82{fill:#F36968;}
	.st83{fill:#FFEBEE;}
	.st84{fill:#FFCDD2;}
	.st85{fill:#CFD8DC;}
	.st86{fill:#90A4AE;}
	.st87{fill:#B0BEC5;}
	.st88{fill:#FBE9E7;}
	.st89{fill:#E0F2F1;}
	.st90{fill:#B2DFDB;}
	.st91{fill:#ECEFF1;}
	.st92{fill:#EDE7F6;}
	.st93{fill:#D1C4E9;}
	.st94{fill:#78909C;}
	.st95{fill:#62808C;}
	.st96{fill:#FFF3E0;}
	.st97{fill:#FFE0B2;}
	.st98{fill:#E1E6EA;}
	.st99{fill:#E0F7FA;}
	.st100{fill:#B2EBF2;}
	.st101{fill:#E3F2FD;}
	.st102{fill:#BBDEFB;}
	.st103{fill:#A4B5BC;}
	.st104{fill:#F4D9BE;}
	.st105{fill:#AC9173;stroke:#876A54;stroke-miterlimit:10;}
	.st106{fill:#6AA6AB;}
	.st107{fill:#FFFFFF;}
	.st108{fill:#FFC2C4;}
	.st109{fill:#4A311A;}
	.st110{fill:#FFFFA4;}
	.st111{fill:#8192A4;}
	.st112{fill:#425059;}
	.st113{opacity:0.3;fill:#8192A4;enable-background:new    ;}
	.st114{opacity:0.4;fill:#8192A4;enable-background:new    ;}
	.st115{fill:#9BB3C9;}
	.st116{fill:#6F774B;}
	.st117{fill:#8D9968;}
	.st118{fill:#E94E1B;}
	.st119{fill:#F9B233;}
	.st120{fill:#FFF9AE;}
	.st121{fill:#F39200;}
	.st122{fill:#936037;}
	.st123{fill:#CA9E67;}
	.st124{fill:#7D4E24;}
	.st125{opacity:0.3;fill:#CA9E67;enable-background:new    ;}
	.st126{opacity:0.4;fill:#CA9E67;enable-background:new    ;}
	.st127{fill:#A3B9CC;}
	.st128{fill:#E30613;}
	.st129{fill:#566872;}
	.st130{fill:#B17F4A;}
	.st131{fill:#EDEDED;}
	.st132{fill:#00FFFF;}
	.st133{fill:#996483;}
	.st134{fill:#845A78;}
	.st135{fill:#FFED00;}
	.st136{fill:url(#SVGID_1_);}
</style>
<polygon class="st127" points="377.2,131.9 373.8,107.2 390.7,73.2 397.1,112.8 389.3,136 "/>
<rect x="231.4" y="105.9" class="st127" width="23.6" height="11.1"/>
<polygon class="st112" points="177.6,229.6 205.8,381.4 228.3,378.7 238.3,340.7 251.8,340.7 269.8,380.6 282.8,381.6 306.5,229.6 
	"/>
<path class="st112" d="M177.6,229.6c0,0-41.3,99.3-25.8,114.8l32.1-12.4c0,0-1.2-58.6,9.2-88.9"/>
<path class="st112" d="M354.6,265.5c22.2-1.8,29.2,15.6,24,32.3s-24,2.3-24,2.3"/>
<polygon class="st123" points="375.6,135.9 359.9,387.6 370,387.6 390.3,139.4 "/>
<path class="st112" d="M360.7,272.3c0,0,10.1,2.1,10.1,9.4c0,7.3-14.1,14.6-21.9-4.7"/>
<path class="st112" d="M306.5,229.6c0,0,29.6,33.4,48.1,35.9v34.7c0,0-26.3,5.6-72.3-40.4"/>
<rect x="197.4" y="143.8" class="st112" width="91.7" height="109.7"/>
<path class="st128" d="M231.3,184.7c5.3,0,9.6-4.3,9.6-9.6h-19.2C221.7,180.4,226,184.7,231.3,184.7z"/>
<path class="st128" d="M275.1,184.7c5.3,0,9.6-4.3,9.6-9.6h-19.2C265.5,180.4,269.8,184.7,275.1,184.7z"/>
<path class="st112" d="M385.3,272.3c-1.9-2.6-11.8-9.8-11.8,5.2s-3.8,33.4,3.5,33.4S395.8,286.2,385.3,272.3z"/>
<polyline class="st123" points="354.6,303.3 354.6,263.4 348.9,261.9 347.1,300.2 "/>
<polygon class="st129" points="198.3,274.2 244.3,274.2 248.3,253.8 255.3,274.2 292.6,277.3 252.1,278 249.7,273.4 245.5,279.4 "/>
<polygon class="st111" points="191.1,313.5 293.2,318.1 298.9,351.2 177.6,344.6 "/>
<polyline class="st112" points="282.8,381.6 298.9,385.7 270.3,385.7 265.8,371.8 "/>
<path class="st104" d="M158,309.2c0,0-4.7,26.9,17.6,26.9s-7.4-37.2-7.4-37.2"/>
<polyline class="st112" points="181.4,343.9 166.7,347.3 197.8,347.3 199.3,341.8 "/>
<circle class="st123" cx="175.7" cy="322.1" r="52.8"/>
<circle class="st130" cx="175.7" cy="322.1" r="47"/>
<polyline class="st125" points="125.2,306.5 170.8,370.8 138.8,288.1 188.5,369.1 144.3,279.6 211,357.6 222.5,341.9 173.1,271.3 
	153.6,276.1 130.9,294.1 "/>
<polyline class="st126" points="126.9,308.9 168.2,373 172.2,373.3 130.8,298.9 136.7,286.5 187.6,367.6 141.3,284.2 147,279.6 
	207.6,359.8 216.5,350.1 159.8,274.5 137.9,285.2 "/>
<circle class="st123" cx="175.7" cy="322.1" r="25.3"/>
<circle class="st130" cx="175.7" cy="322.1" r="19.8"/>
<circle class="st123" cx="175.7" cy="322.1" r="12.1"/>
<path class="st111" d="M290.4,160.5c1.4-4.6,2.2-9.6,2.2-14.7c0-27.3-22.1-34.4-49.4-34.4s-49.4,7.1-49.4,34.4
	c0,5.1,0.8,10,2.2,14.7H290.4z"/>
<polyline class="st112" points="228.3,378.7 227.3,385.7 195.5,385.7 205.8,381.4 "/>
<path class="st109" d="M250.3,195.2c0,0-6.2,7.7-3.4,10.4S254.2,199,250.3,195.2z"/>
<path class="st109" d="M259.5,195.2c0,0,6.2,7.7,3.4,10.4S255.6,199,259.5,195.2z"/>
<rect x="189" y="145.8" class="st127" width="108.4" height="19.5"/>
<polyline class="st111" points="237.7,105.9 243.3,83.6 249,105.9 "/>
<polygon class="st111" points="368.2,159 392.4,166.7 395.5,136 369.8,129.1 "/>
</svg>
