<?xml version="1.0" encoding="utf-8"?>
<!-- Generator: Adobe Illustrator 24.0.1, SVG Export Plug-In . SVG Version: 6.00 Build 0)  -->
<svg version="1.1" id="Camada_1" xmlns="http://www.w3.org/2000/svg" xmlns:xlink="http://www.w3.org/1999/xlink" x="0px" y="0px"
	 viewBox="0 0 500 500" style="enable-background:new 0 0 500 500;" xml:space="preserve">
<style type="text/css">
	.st0{fill:#D28A47;}
	.st1{fill:#A8662F;}
	.st2{fill:#B7DBEB;}
	.st3{fill:#7893A1;}
	.st4{fill:#AACBDA;}
	.st5{opacity:0.1;fill:#333B40;}
	.st6{fill:#FDB232;}
	.st7{fill:#6C392C;}
	.st8{fill:#C7ECFD;}
	.st9{fill:#FDC63D;}
	.st10{fill:#FDDF5A;}
	.st11{fill:#FD5A4E;}
	.st12{fill:#FD7E68;}
	.st13{opacity:0.1;fill:#4A340E;}
	.st14{fill:#FDD555;}
	.st15{fill:#705F25;}
	.st16{opacity:0.1;fill:#455359;}
	.st17{fill:#E2E8F4;}
	.st18{fill:#D4D9E9;}
	.st19{fill:#76C1FB;}
	.st20{opacity:0.1;fill:#2D2E30;}
	.st21{fill:#F7C709;}
	.st22{fill:#EDE8E4;}
	.st23{fill:#876746;}
	.st24{fill:#DEB307;}
	.st25{fill:#B06E30;}
	.st26{opacity:0.1;fill:#3B3002;}
	.st27{fill:#ED5540;}
	.st28{fill:#CEC4DC;}
	.st29{opacity:0.1;fill:#3D3010;}
	.st30{fill:#526D8A;}
	.st31{fill:#8CD0F3;}
	.st32{fill:#CDE6F3;}
	.st33{fill:#394B61;}
	.st34{opacity:0.1;fill:#283645;}
	.st35{fill:#DFE1E6;}
	.st36{fill:#717114;}
	.st37{fill:#C7C8CD;}
	.st38{opacity:0.1;fill:#2A2A2B;}
	.st39{fill:#E0F2FC;}
	.st40{fill:#D0DFE9;}
	.st41{opacity:0.1;fill:#666E73;}
	.st42{fill:#FDBC07;}
	.st43{fill:#E6AB07;}
	.st44{fill:#FBC068;}
	.st45{fill:#FCE680;}
	.st46{fill:#B58A4B;}
	.st47{fill:#FDEFA9;}
	.st48{fill:#EE5226;}
	.st49{fill:#A72E23;}
	.st50{opacity:0.1;}
	.st51{fill:#4F4728;}
	.st52{fill:#94C9F3;}
	.st53{fill:#BDE1FD;}
	.st54{fill:#56748A;}
	.st55{fill:#B746BD;}
	.st56{fill:#DA53E1;}
	.st57{opacity:0.1;fill:#411842;}
	.st58{fill:#CA722D;}
	.st59{fill:#B05927;}
	.st60{fill:#FCD21B;}
	.st61{fill:#ECC51C;}
	.st62{fill:#F8A623;}
	.st63{fill:#D7E1E6;}
	.st64{fill:#C1CFD6;}
	.st65{fill:#333333;}
	.st66{fill:#CACACA;}
	.st67{fill:#D68747;}
	.st68{fill:#B1B2B2;}
	.st69{fill:#C2783F;}
	.st70{fill:#D69D55;}
	.st71{fill:#EDB96A;}
	.st72{fill:#A56B37;}
	.st73{fill:#F2CD28;}
	.st74{fill:#E4E4E4;}
	.st75{fill:#F17B65;}
	.st76{opacity:0.1;fill:#7B3E33;}
	.st77{fill:#AA5748;}
	.st78{fill:#A63F12;}
	.st79{fill:#EB5919;}
	.st80{fill:#F68688;}
	.st81{fill:#86330E;}
	.st82{fill:#F36968;}
	.st83{fill:#FFEBEE;}
	.st84{fill:#FFCDD2;}
	.st85{fill:#CFD8DC;}
	.st86{fill:#90A4AE;}
	.st87{fill:#B0BEC5;}
	.st88{fill:#FBE9E7;}
	.st89{fill:#E0F2F1;}
	.st90{fill:#B2DFDB;}
	.st91{fill:#ECEFF1;}
	.st92{fill:#EDE7F6;}
	.st93{fill:#D1C4E9;}
	.st94{fill:#78909C;}
	.st95{fill:#62808C;}
	.st96{fill:#FFF3E0;}
	.st97{fill:#FFE0B2;}
	.st98{fill:#E1E6EA;}
	.st99{fill:#E0F7FA;}
	.st100{fill:#B2EBF2;}
	.st101{fill:#E3F2FD;}
	.st102{fill:#BBDEFB;}
	.st103{fill:#A4B5BC;}
	.st104{fill:#F4D9BE;}
	.st105{fill:#AC9173;stroke:#876A54;stroke-miterlimit:10;}
	.st106{fill:#6AA6AB;}
	.st107{fill:#FFFFFF;}
	.st108{fill:#FFC2C4;}
	.st109{fill:#4A311A;}
	.st110{fill:#FFFFA4;}
	.st111{fill:#8192A4;}
	.st112{fill:#425059;}
	.st113{opacity:0.3;fill:#8192A4;enable-background:new    ;}
	.st114{opacity:0.4;fill:#8192A4;enable-background:new    ;}
	.st115{fill:#9BB3C9;}
	.st116{fill:#6F774B;}
	.st117{fill:#8D9968;}
	.st118{fill:#E94E1B;}
	.st119{fill:#F9B233;}
	.st120{fill:#FFF9AE;}
	.st121{fill:#F39200;}
	.st122{fill:#936037;}
	.st123{fill:#CA9E67;}
	.st124{fill:#7D4E24;}
	.st125{opacity:0.3;fill:#CA9E67;enable-background:new    ;}
	.st126{opacity:0.4;fill:#CA9E67;enable-background:new    ;}
	.st127{fill:#A3B9CC;}
	.st128{fill:#E30613;}
	.st129{fill:#566872;}
	.st130{fill:#B17F4A;}
	.st131{fill:#EDEDED;}
	.st132{fill:#00FFFF;}
	.st133{fill:#996483;}
	.st134{fill:#845A78;}
	.st135{fill:#FFED00;}
	.st136{fill:url(#SVGID_1_);}
</style>
<g>
	<path class="st6" d="M354.1,170.67c-16.65-5.89-54.73-16.74-109.1-16.74s-92.45,10.86-109.1,16.74c-5.57,1.97-8.96,7.64-8.01,13.47
		c13.68,84.39,64.61,159.43,109.77,193.45c4.34,3.27,10.34,3.27,14.69,0c45.16-34.02,96.09-109.07,109.77-193.45
		C363.06,178.31,359.67,172.64,354.1,170.67z"/>
	<path class="st7" d="M329.08,188.69c-18.59-4.89-47.33-10.24-84.07-10.24c-36.74,0-65.47,5.35-84.08,10.25
		c-3.94,1.04-6.32,5.02-5.41,9c14.39,62.65,49.87,118.4,84.43,149.97c2.86,2.61,7.25,2.61,10.11,0
		c34.56-31.57,70.05-87.32,84.43-149.97C335.4,193.72,333.02,189.73,329.08,188.69z"/>
	<path class="st8" d="M245,162.1c-2.26,0-4.09,1.83-4.09,4.09c0,2.26,1.83,4.09,4.09,4.09c2.26,0,4.09-1.83,4.09-4.09
		C249.09,163.93,247.26,162.1,245,162.1z"/>
	<path class="st8" d="M245,362.37c-2.26,0-4.09,1.83-4.09,4.09c0,2.26,1.83,4.09,4.09,4.09c2.26,0,4.09-1.83,4.09-4.09
		C249.09,364.2,247.26,362.37,245,362.37z"/>
	<path class="st8" d="M282.97,164.32c-2.26,0-4.09,1.83-4.09,4.09c0,2.26,1.83,4.09,4.09,4.09c2.26,0,4.09-1.83,4.09-4.09
		C287.06,166.15,285.23,164.32,282.97,164.32z"/>
	<path class="st8" d="M314.99,168.87c-2.26,0-4.09,1.83-4.09,4.09c0,2.26,1.83,4.09,4.09,4.09c2.26,0,4.09-1.83,4.09-4.09
		C319.08,170.7,317.25,168.87,314.99,168.87z"/>
	<path class="st8" d="M335.59,231.92c-2.26,0-4.09,1.83-4.09,4.09c0,2.26,1.83,4.09,4.09,4.09c2.26,0,4.09-1.83,4.09-4.09
		C339.68,233.76,337.85,231.92,335.59,231.92z"/>
	<path class="st8" d="M272.59,337.97c-2.26,0-4.09,1.83-4.09,4.09c0,2.26,1.83,4.09,4.09,4.09c2.26,0,4.09-1.83,4.09-4.09
		C276.67,339.8,274.85,337.97,272.59,337.97z"/>
	<path class="st8" d="M310.56,284.74c-2.26,0-4.09,1.83-4.09,4.09c0,2.26,1.83,4.09,4.09,4.09c2.26,0,4.09-1.83,4.09-4.09
		C314.65,286.57,312.82,284.74,310.56,284.74z"/>
	<path class="st8" d="M344.11,204.98c-2.26,0-4.09,1.83-4.09,4.09c0,2.26,1.83,4.09,4.09,4.09c2.26,0,4.09-1.83,4.09-4.09
		C348.2,206.81,346.37,204.98,344.11,204.98z"/>
	<path class="st8" d="M323.84,258.81c-2.26,0-4.09,1.83-4.09,4.09c0,2.26,1.83,4.09,4.09,4.09c2.26,0,4.09-1.83,4.09-4.09
		C327.93,260.64,326.1,258.81,323.84,258.81z"/>
	<path class="st8" d="M293.7,311.18c-2.26,0-4.09,1.83-4.09,4.09c0,2.26,1.83,4.09,4.09,4.09c2.26,0,4.09-1.83,4.09-4.09
		C297.79,313.01,295.96,311.18,293.7,311.18z"/>
	<path class="st8" d="M347.18,178.45c-2.26,0-4.09,1.83-4.09,4.09c0,2.26,1.83,4.09,4.09,4.09c2.26,0,4.09-1.83,4.09-4.09
		C351.26,180.28,349.43,178.45,347.18,178.45z"/>
	<path class="st8" d="M207.03,164.32c-2.26,0-4.09,1.83-4.09,4.09c0,2.26,1.83,4.09,4.09,4.09c2.26,0,4.09-1.83,4.09-4.09
		C211.11,166.15,209.29,164.32,207.03,164.32z"/>
	<path class="st8" d="M175.01,168.87c-2.26,0-4.09,1.83-4.09,4.09c0,2.26,1.83,4.09,4.09,4.09c2.26,0,4.09-1.83,4.09-4.09
		C179.1,170.7,177.27,168.87,175.01,168.87z"/>
	<path class="st8" d="M154.41,231.92c-2.26,0-4.09,1.83-4.09,4.09c0,2.26,1.83,4.09,4.09,4.09c2.26,0,4.09-1.83,4.09-4.09
		C158.49,233.76,156.66,231.92,154.41,231.92z"/>
	<path class="st8" d="M217.41,337.97c-2.26,0-4.09,1.83-4.09,4.09c0,2.26,1.83,4.09,4.09,4.09c2.26,0,4.09-1.83,4.09-4.09
		C221.5,339.8,219.67,337.97,217.41,337.97z"/>
	<path class="st8" d="M179.44,284.74c-2.26,0-4.09,1.83-4.09,4.09c0,2.26,1.83,4.09,4.09,4.09c2.26,0,4.09-1.83,4.09-4.09
		C183.53,286.57,181.7,284.74,179.44,284.74z"/>
	<path class="st8" d="M145.89,204.98c-2.26,0-4.09,1.83-4.09,4.09c0,2.26,1.83,4.09,4.09,4.09c2.26,0,4.09-1.83,4.09-4.09
		C149.98,206.81,148.15,204.98,145.89,204.98z"/>
	<path class="st8" d="M166.16,258.81c-2.26,0-4.09,1.83-4.09,4.09c0,2.26,1.83,4.09,4.09,4.09c2.26,0,4.09-1.83,4.09-4.09
		C170.24,260.64,168.42,258.81,166.16,258.81z"/>
	<path class="st8" d="M196.3,311.18c-2.26,0-4.09,1.83-4.09,4.09c0,2.26,1.83,4.09,4.09,4.09c2.26,0,4.09-1.83,4.09-4.09
		C200.38,313.01,198.56,311.18,196.3,311.18z"/>
	<path class="st8" d="M142.82,178.45c-2.26,0-4.08,1.83-4.08,4.09c0,2.26,1.83,4.09,4.08,4.09c2.26,0,4.09-1.83,4.09-4.09
		C146.91,180.28,145.08,178.45,142.82,178.45z"/>
	<path class="st9" d="M315.3,194.34c-18.51-3.65-42.14-6.57-70.3-6.57c-28.16,0-51.79,2.93-70.3,6.58
		c-4.82,0.95-7.77,5.85-6.38,10.57c15.24,51.42,43.25,96.4,70.56,125.96c3.29,3.56,8.93,3.56,12.23,0
		c27.31-29.56,55.32-74.54,70.56-125.97C323.07,200.19,320.12,195.29,315.3,194.34z"/>
	<path class="st6" d="M245,211.15c-20.31,0-36.78,16.47-36.78,36.78c0,20.32,16.47,36.78,36.78,36.78
		c20.31,0,36.78-16.47,36.78-36.78C281.78,227.62,265.31,211.15,245,211.15z"/>
	<path class="st10" d="M247.37,221.69c-1.31-1.31-3.43-1.31-4.74,0l-23.87,23.87c-1.31,1.31-1.31,3.43,0,4.74l23.87,23.87
		c1.31,1.31,3.43,1.31,4.74,0l23.87-23.87c1.31-1.31,1.31-3.43,0-4.74L247.37,221.69z"/>
	
		<rect x="233.44" y="236.37" transform="matrix(0.7071 -0.7072 0.7072 0.7071 -103.555 245.8832)" class="st6" width="23.12" height="23.12"/>
	<path class="st11" d="M248.01,230.51c-1.66-1.66-4.35-1.66-6.01,0l-14.42,14.42c-1.66,1.66-1.66,4.35,0,6.01L242,265.36
		c1.66,1.66,4.35,1.66,6.01,0l14.42-14.42c1.66-1.66,1.66-4.35,0-6.01L248.01,230.51z"/>
	<path class="st12" d="M245,239.76c-4.51,0-8.17,3.66-8.17,8.17c0,4.51,3.66,8.17,8.17,8.17c4.51,0,8.17-3.66,8.17-8.17
		C253.18,243.42,249.52,239.76,245,239.76z"/>
	<path class="st13" d="M127.89,184.14c13.68,84.39,64.61,159.43,109.77,193.45c2.17,1.64,4.76,2.45,7.34,2.45V153.93
		c-54.36,0-92.44,10.86-109.1,16.74C130.33,172.64,126.94,178.31,127.89,184.14z"/>
</g>
</svg>
