<?xml version="1.0" encoding="utf-8"?>
<!-- Generator: Adobe Illustrator 24.0.1, SVG Export Plug-In . SVG Version: 6.00 Build 0)  -->
<svg version="1.1" id="Camada_1" xmlns="http://www.w3.org/2000/svg" xmlns:xlink="http://www.w3.org/1999/xlink" x="0px" y="0px"
	 viewBox="0 0 500 500" style="enable-background:new 0 0 500 500;" xml:space="preserve">
<style type="text/css">
	.st0{fill:#D28A47;}
	.st1{fill:#A8662F;}
	.st2{fill:#B7DBEB;}
	.st3{fill:#7893A1;}
	.st4{fill:#AACBDA;}
	.st5{opacity:0.1;fill:#333B40;}
	.st6{fill:#FDB232;}
	.st7{fill:#6C392C;}
	.st8{fill:#C7ECFD;}
	.st9{fill:#FDC63D;}
	.st10{fill:#FDDF5A;}
	.st11{fill:#FD5A4E;}
	.st12{fill:#FD7E68;}
	.st13{opacity:0.1;fill:#4A340E;}
	.st14{fill:#FDD555;}
	.st15{fill:#705F25;}
	.st16{opacity:0.1;fill:#455359;}
	.st17{fill:#E2E8F4;}
	.st18{fill:#D4D9E9;}
	.st19{fill:#76C1FB;}
	.st20{opacity:0.1;fill:#2D2E30;}
	.st21{fill:#F7C709;}
	.st22{fill:#EDE8E4;}
	.st23{fill:#876746;}
	.st24{fill:#DEB307;}
	.st25{fill:#B06E30;}
	.st26{opacity:0.1;fill:#3B3002;}
	.st27{fill:#ED5540;}
	.st28{fill:#CEC4DC;}
	.st29{opacity:0.1;fill:#3D3010;}
	.st30{fill:#526D8A;}
	.st31{fill:#8CD0F3;}
	.st32{fill:#CDE6F3;}
	.st33{fill:#394B61;}
	.st34{opacity:0.1;fill:#283645;}
	.st35{fill:#DFE1E6;}
	.st36{fill:#717114;}
	.st37{fill:#C7C8CD;}
	.st38{opacity:0.1;fill:#2A2A2B;}
	.st39{fill:#E0F2FC;}
	.st40{fill:#D0DFE9;}
	.st41{opacity:0.1;fill:#666E73;}
	.st42{fill:#FDBC07;}
	.st43{fill:#E6AB07;}
	.st44{fill:#FBC068;}
	.st45{fill:#FCE680;}
	.st46{fill:#B58A4B;}
	.st47{fill:#FDEFA9;}
	.st48{fill:#EE5226;}
	.st49{fill:#A72E23;}
	.st50{opacity:0.1;}
	.st51{fill:#4F4728;}
	.st52{fill:#94C9F3;}
	.st53{fill:#BDE1FD;}
	.st54{fill:#56748A;}
	.st55{fill:#B746BD;}
	.st56{fill:#DA53E1;}
	.st57{opacity:0.1;fill:#411842;}
	.st58{fill:#CA722D;}
	.st59{fill:#B05927;}
	.st60{fill:#FCD21B;}
	.st61{fill:#ECC51C;}
	.st62{fill:#F8A623;}
	.st63{fill:#D7E1E6;}
	.st64{fill:#C1CFD6;}
	.st65{fill:#333333;}
	.st66{fill:#CACACA;}
	.st67{fill:#D68747;}
	.st68{fill:#B1B2B2;}
	.st69{fill:#C2783F;}
	.st70{fill:#D69D55;}
	.st71{fill:#EDB96A;}
	.st72{fill:#A56B37;}
	.st73{fill:#F2CD28;}
	.st74{fill:#E4E4E4;}
	.st75{fill:#F17B65;}
	.st76{opacity:0.1;fill:#7B3E33;}
	.st77{fill:#AA5748;}
	.st78{fill:#A63F12;}
	.st79{fill:#EB5919;}
	.st80{fill:#F68688;}
	.st81{fill:#86330E;}
	.st82{fill:#F36968;}
	.st83{fill:#FFEBEE;}
	.st84{fill:#FFCDD2;}
	.st85{fill:#CFD8DC;}
	.st86{fill:#90A4AE;}
	.st87{fill:#B0BEC5;}
	.st88{fill:#FBE9E7;}
	.st89{fill:#E0F2F1;}
	.st90{fill:#B2DFDB;}
	.st91{fill:#ECEFF1;}
	.st92{fill:#EDE7F6;}
	.st93{fill:#D1C4E9;}
	.st94{fill:#78909C;}
	.st95{fill:#62808C;}
	.st96{fill:#FFF3E0;}
	.st97{fill:#FFE0B2;}
	.st98{fill:#E1E6EA;}
	.st99{fill:#E0F7FA;}
	.st100{fill:#B2EBF2;}
	.st101{fill:#E3F2FD;}
	.st102{fill:#BBDEFB;}
	.st103{fill:#A4B5BC;}
	.st104{fill:#F4D9BE;}
	.st105{fill:#AC9173;stroke:#876A54;stroke-miterlimit:10;}
	.st106{fill:#6AA6AB;}
	.st107{fill:#FFFFFF;}
	.st108{fill:#FFC2C4;}
	.st109{fill:#4A311A;}
	.st110{fill:#FFFFA4;}
	.st111{fill:#8192A4;}
	.st112{fill:#425059;}
	.st113{opacity:0.3;fill:#8192A4;enable-background:new    ;}
	.st114{opacity:0.4;fill:#8192A4;enable-background:new    ;}
	.st115{fill:#9BB3C9;}
	.st116{fill:#6F774B;}
	.st117{fill:#8D9968;}
	.st118{fill:#E94E1B;}
	.st119{fill:#F9B233;}
	.st120{fill:#FFF9AE;}
	.st121{fill:#F39200;}
	.st122{fill:#936037;}
	.st123{fill:#CA9E67;}
	.st124{fill:#7D4E24;}
	.st125{opacity:0.3;fill:#CA9E67;enable-background:new    ;}
	.st126{opacity:0.4;fill:#CA9E67;enable-background:new    ;}
	.st127{fill:#A3B9CC;}
	.st128{fill:#E30613;}
	.st129{fill:#566872;}
	.st130{fill:#B17F4A;}
	.st131{fill:#EDEDED;}
	.st132{fill:#00FFFF;}
	.st133{fill:#996483;}
	.st134{fill:#845A78;}
	.st135{fill:#FFED00;}
	.st136{fill:url(#SVGID_1_);}
</style>
<g>
	<path class="st104" d="M141.6,331.7c0,0-20,14.1-5.9,28.2c14.2,14.2,18.9-28.3,18.9-28.3"/>
	<polyline class="st104" points="255.2,219.4 227.3,257.7 194.6,219.4 214.6,205.3 189.6,259.4 152.6,343.9 139.9,334.7 
		185.5,202.2 205.9,202.2 215.1,215.1 	"/>
	<path class="st131" d="M227,97.3c0,0-34.2-10.6-38.7,15.5s0,138.8,0,138.8h79.2c0,0,2.1-135.5-4.3-143.3
		C256.8,100.4,254.3,90.2,227,97.3z"/>
	<path class="st104" d="M338,263.1c0,0,18.8,11.4,24-1.9c5.2-13.2-1.8-27.1-24-25.7"/>
	<polygon class="st132" points="347.3,420.5 364.8,420.5 356.1,117.2 	"/>
	<path class="st104" d="M348.6,240.5c0,0,7.5,1.5,7.5,6.9s-10.4,10.8-16.2-3.5"/>
	<polyline class="st133" points="264.2,204.8 344.8,219.4 341.7,299.3 247.5,250 	"/>
	<polyline class="st133" points="185.5,202.2 170.4,420.5 284.2,420.5 264.2,204.8 	"/>
	<rect x="198" y="109.7" class="st104" width="57.1" height="109.7"/>
	<polygon class="st108" points="230.8,157.1 241.7,165.9 230.8,179.6 	"/>
	<path class="st109" d="M214.6,150.7c5.3,0,9.6-4.3,9.6-9.6H205C205,146.4,209.3,150.7,214.6,150.7z"/>
	<path class="st109" d="M241.7,150.7c5.3,0,9.6-4.3,9.6-9.6h-19.2C232.1,146.4,236.4,150.7,241.7,150.7z"/>
	<path class="st104" d="M367,244.9c-1.2-1.6-7.3-6-7.3,3.2s-2.3,20.5,2.1,20.5C366.4,268.6,373.5,253.5,367,244.9z"/>
	<path class="st134" d="M242.6,257.5c-6.5,0-12.2-3.5-15.3-8.7c-3.1,5.2-8.8,8.7-15.3,8.7c-9,0-16.5-6.7-17.6-15.5
		c-0.1,0.8-0.2,1.5-0.2,2.3c0,9.8,8,17.8,17.8,17.8c6.5,0,12.2-3.5,15.3-8.7c3.1,5.2,8.8,8.7,15.3,8.7c9.8,0,17.8-8,17.8-17.8
		c0-0.8-0.1-1.6-0.2-2.3C259.1,250.7,251.7,257.5,242.6,257.5z"/>
	<path class="st107" d="M194.2,137.1h66.2c0,0,9.5-22.8,0-32.3c-9.5-9.5-61.1-11.5-68.4,3.1S194.2,137.1,194.2,137.1z"/>
	<polyline class="st133" points="198,203 227.3,219.4 255.2,204.8 260.4,221.2 229,228.5 197.6,224.7 	"/>
	<circle class="st135" cx="355.1" cy="137.1" r="23.7"/>
	
		<radialGradient id="SVGID_1_" cx="355.1" cy="-4315.1001" r="43.7" gradientTransform="matrix(1 0 0 -1 0 -4178)" gradientUnits="userSpaceOnUse">
		<stop  offset="0" style="stop-color:#FFED00"/>
		<stop  offset="1" style="stop-color:#FFED00;stop-opacity:0"/>
	</radialGradient>
	<circle class="st136" cx="355.1" cy="137.1" r="43.7"/>
	<circle class="st119" cx="355.1" cy="137.1" r="14.5"/>
	<circle class="st107" cx="355.1" cy="137.1" r="8.5"/>
	<path class="st132" d="M251.6,204.8c-2,14.9-12.1,26.3-24.3,26.3s-22.5-13-24.5-27.9l-6.1-0.7c2.1,18.4,15,34.8,30.6,34.8
		s28.5-14.9,30.6-33.3L251.6,204.8z"/>
	<circle class="st135" cx="227.3" cy="234.4" r="9.7"/>
	<circle class="st107" cx="231.5" cy="230.2" r="2.9"/>
	<circle class="st107" cx="222.3" cy="239.4" r="2"/>
</g>
</svg>
