<?xml version="1.0" encoding="utf-8"?>
<!-- Generator: Adobe Illustrator 24.0.1, SVG Export Plug-In . SVG Version: 6.00 Build 0)  -->
<svg version="1.1" id="Camada_1" xmlns="http://www.w3.org/2000/svg" xmlns:xlink="http://www.w3.org/1999/xlink" x="0px" y="0px"
	 viewBox="0 0 500 500" style="enable-background:new 0 0 500 500;" xml:space="preserve">
<style type="text/css">
	.st0{fill:#D28A47;}
	.st1{fill:#A8662F;}
	.st2{fill:#B7DBEB;}
	.st3{fill:#7893A1;}
	.st4{fill:#AACBDA;}
	.st5{opacity:0.1;fill:#333B40;}
	.st6{fill:#FDB232;}
	.st7{fill:#6C392C;}
	.st8{fill:#C7ECFD;}
	.st9{fill:#FDC63D;}
	.st10{fill:#FDDF5A;}
	.st11{fill:#FD5A4E;}
	.st12{fill:#FD7E68;}
	.st13{opacity:0.1;fill:#4A340E;}
	.st14{fill:#FDD555;}
	.st15{fill:#705F25;}
	.st16{opacity:0.1;fill:#455359;}
	.st17{fill:#E2E8F4;}
	.st18{fill:#D4D9E9;}
	.st19{fill:#76C1FB;}
	.st20{opacity:0.1;fill:#2D2E30;}
	.st21{fill:#F7C709;}
	.st22{fill:#EDE8E4;}
	.st23{fill:#876746;}
	.st24{fill:#DEB307;}
	.st25{fill:#B06E30;}
	.st26{opacity:0.1;fill:#3B3002;}
	.st27{fill:#ED5540;}
	.st28{fill:#CEC4DC;}
	.st29{opacity:0.1;fill:#3D3010;}
	.st30{fill:#526D8A;}
	.st31{fill:#8CD0F3;}
	.st32{fill:#CDE6F3;}
	.st33{fill:#394B61;}
	.st34{opacity:0.1;fill:#283645;}
	.st35{fill:#DFE1E6;}
	.st36{fill:#717114;}
	.st37{fill:#C7C8CD;}
	.st38{opacity:0.1;fill:#2A2A2B;}
	.st39{fill:#E0F2FC;}
	.st40{fill:#D0DFE9;}
	.st41{opacity:0.1;fill:#666E73;}
	.st42{fill:#FDBC07;}
	.st43{fill:#E6AB07;}
	.st44{fill:#FBC068;}
	.st45{fill:#FCE680;}
	.st46{fill:#B58A4B;}
	.st47{fill:#FDEFA9;}
	.st48{fill:#EE5226;}
	.st49{fill:#A72E23;}
	.st50{opacity:0.1;}
	.st51{fill:#4F4728;}
	.st52{fill:#94C9F3;}
	.st53{fill:#BDE1FD;}
	.st54{fill:#56748A;}
	.st55{fill:#B746BD;}
	.st56{fill:#DA53E1;}
	.st57{opacity:0.1;fill:#411842;}
	.st58{fill:#CA722D;}
	.st59{fill:#B05927;}
	.st60{fill:#FCD21B;}
	.st61{fill:#ECC51C;}
	.st62{fill:#F8A623;}
	.st63{fill:#D7E1E6;}
	.st64{fill:#C1CFD6;}
	.st65{fill:#333333;}
	.st66{fill:#CACACA;}
	.st67{fill:#D68747;}
	.st68{fill:#B1B2B2;}
	.st69{fill:#C2783F;}
	.st70{fill:#D69D55;}
	.st71{fill:#EDB96A;}
	.st72{fill:#A56B37;}
	.st73{fill:#F2CD28;}
	.st74{fill:#E4E4E4;}
	.st75{fill:#F17B65;}
	.st76{opacity:0.1;fill:#7B3E33;}
	.st77{fill:#AA5748;}
	.st78{fill:#A63F12;}
	.st79{fill:#EB5919;}
	.st80{fill:#F68688;}
	.st81{fill:#86330E;}
	.st82{fill:#F36968;}
	.st83{fill:#FFEBEE;}
	.st84{fill:#FFCDD2;}
	.st85{fill:#CFD8DC;}
	.st86{fill:#90A4AE;}
	.st87{fill:#B0BEC5;}
	.st88{fill:#FBE9E7;}
	.st89{fill:#E0F2F1;}
	.st90{fill:#B2DFDB;}
	.st91{fill:#ECEFF1;}
	.st92{fill:#EDE7F6;}
	.st93{fill:#D1C4E9;}
	.st94{fill:#78909C;}
	.st95{fill:#62808C;}
	.st96{fill:#FFF3E0;}
	.st97{fill:#FFE0B2;}
	.st98{fill:#E1E6EA;}
	.st99{fill:#E0F7FA;}
	.st100{fill:#B2EBF2;}
	.st101{fill:#E3F2FD;}
	.st102{fill:#BBDEFB;}
	.st103{fill:#A4B5BC;}
	.st104{fill:#F4D9BE;}
	.st105{fill:#AC9173;stroke:#876A54;stroke-miterlimit:10;}
	.st106{fill:#6AA6AB;}
	.st107{fill:#FFFFFF;}
	.st108{fill:#FFC2C4;}
	.st109{fill:#4A311A;}
	.st110{fill:#FFFFA4;}
	.st111{fill:#8192A4;}
	.st112{fill:#425059;}
	.st113{opacity:0.3;fill:#8192A4;enable-background:new    ;}
	.st114{opacity:0.4;fill:#8192A4;enable-background:new    ;}
	.st115{fill:#9BB3C9;}
	.st116{fill:#6F774B;}
	.st117{fill:#8D9968;}
	.st118{fill:#E94E1B;}
	.st119{fill:#F9B233;}
	.st120{fill:#FFF9AE;}
	.st121{fill:#F39200;}
	.st122{fill:#936037;}
	.st123{fill:#CA9E67;}
	.st124{fill:#7D4E24;}
	.st125{opacity:0.3;fill:#CA9E67;enable-background:new    ;}
	.st126{opacity:0.4;fill:#CA9E67;enable-background:new    ;}
	.st127{fill:#A3B9CC;}
	.st128{fill:#E30613;}
	.st129{fill:#566872;}
	.st130{fill:#B17F4A;}
	.st131{fill:#EDEDED;}
	.st132{fill:#00FFFF;}
	.st133{fill:#996483;}
	.st134{fill:#845A78;}
	.st135{fill:#FFED00;}
	.st136{fill:url(#SVGID_1_);}
</style>
<g>
	<path class="st30" d="M356.87,153.73c-18.79-7.23-82.33-31.67-96.92-37.28c-1.9-0.73-3.99-0.73-5.89,0
		c-14.52,5.59-78.15,30.01-96.95,37.26c-3.16,1.22-5.24,4.26-5.24,7.65v68.79c0,51.12,14.51,117.75,102.88,143.31
		c1.46,0.42,3.02,0.42,4.48,0c88.17-25.58,102.68-93.39,102.68-143.3c0.16-20.21,0.19-55.17,0.2-68.76
		C362.13,157.99,360.04,154.95,356.87,153.73z"/>
	<path class="st31" d="M256.8,135.53c-1.82,0.61-85.11,32.75-84.91,32.55v62.47c0,43.26,8.49,102.3,84.91,123.32
		c76.22-21.02,84.91-81.07,84.91-123.32c0.2-21.43,0.2-60.85,0-60.85C341.91,169.7,259.02,136.34,256.8,135.53z"/>
	<path class="st32" d="M296.49,147.26c-23.32-8.97-37.66-14.48-38.52-14.77l-1.06-0.35l-0.03,0.01l-0.03-0.01l-1.06,0.35
		c-0.86,0.29-15.2,5.8-38.52,14.77c-17.69,6.81-40.94,15.91-47.62,18.45l-0.96,64.85c0,43.96,9.05,104.89,87.27,126.41l0.85,0.23
		l0.07-0.02l0.07,0.02l0.85-0.23c78.22-21.52,87.27-82.45,87.27-126.41l-0.96-64.85C337.43,163.18,314.18,154.07,296.49,147.26z
		 M338.65,230.55c0,45.22-9.31,99.67-81.7,119.99c-0.03-0.01-0.05-0.02-0.08-0.02c-0.03,0.01-0.05,0.02-0.08,0.02
		c-72.39-20.32-81.7-74.77-81.7-119.99v-60.24c0.58-0.22,1.27-0.48,2.06-0.78c2.61-0.99,6.32-2.41,10.73-4.11
		c8.82-3.38,20.44-7.85,31.68-12.18c16.18-6.22,32.85-12.64,37.21-14.28c0.03,0.01,0.07,0.03,0.11,0.04
		c0.03-0.01,0.07-0.03,0.11-0.04c4.35,1.65,21.02,8.06,37.21,14.28c11.24,4.32,22.86,8.79,31.68,12.18
		c4.41,1.69,8.12,3.11,10.73,4.11c0.79,0.3,1.48,0.56,2.06,0.78V230.55z"/>
	
		<ellipse transform="matrix(0.3827 -0.9239 0.9239 0.3827 -67.4263 388.4969)" class="st33" cx="257" cy="244.7" rx="38.21" ry="38.21"/>
	<path class="st34" d="M157.12,153.71c-3.16,1.22-5.24,4.26-5.24,7.65v68.79c0,51.12,14.51,117.75,102.88,143.31
		c0.73,0.21,1.49,0.32,2.24,0.32V115.91c-1,0-1.99,0.18-2.94,0.55C239.55,122.04,175.91,146.46,157.12,153.71z"/>
</g>
</svg>
