<?xml version="1.0" encoding="utf-8"?>
<!-- Generator: Adobe Illustrator 24.0.1, SVG Export Plug-In . SVG Version: 6.00 Build 0)  -->
<svg version="1.1" id="Camada_1" xmlns="http://www.w3.org/2000/svg" xmlns:xlink="http://www.w3.org/1999/xlink" x="0px" y="0px"
	 viewBox="0 0 500 500" style="enable-background:new 0 0 500 500;" xml:space="preserve">
<style type="text/css">
	.st0{fill:#D28A47;}
	.st1{fill:#A8662F;}
	.st2{fill:#B7DBEB;}
	.st3{fill:#7893A1;}
	.st4{fill:#AACBDA;}
	.st5{opacity:0.1;fill:#333B40;}
	.st6{fill:#FDB232;}
	.st7{fill:#6C392C;}
	.st8{fill:#C7ECFD;}
	.st9{fill:#FDC63D;}
	.st10{fill:#FDDF5A;}
	.st11{fill:#FD5A4E;}
	.st12{fill:#FD7E68;}
	.st13{opacity:0.1;fill:#4A340E;}
	.st14{fill:#FDD555;}
	.st15{fill:#705F25;}
	.st16{opacity:0.1;fill:#455359;}
	.st17{fill:#E2E8F4;}
	.st18{fill:#D4D9E9;}
	.st19{fill:#76C1FB;}
	.st20{opacity:0.1;fill:#2D2E30;}
	.st21{fill:#F7C709;}
	.st22{fill:#EDE8E4;}
	.st23{fill:#876746;}
	.st24{fill:#DEB307;}
	.st25{fill:#B06E30;}
	.st26{opacity:0.1;fill:#3B3002;}
	.st27{fill:#ED5540;}
	.st28{fill:#CEC4DC;}
	.st29{opacity:0.1;fill:#3D3010;}
	.st30{fill:#526D8A;}
	.st31{fill:#8CD0F3;}
	.st32{fill:#CDE6F3;}
	.st33{fill:#394B61;}
	.st34{opacity:0.1;fill:#283645;}
	.st35{fill:#DFE1E6;}
	.st36{fill:#717114;}
	.st37{fill:#C7C8CD;}
	.st38{opacity:0.1;fill:#2A2A2B;}
	.st39{fill:#E0F2FC;}
	.st40{fill:#D0DFE9;}
	.st41{opacity:0.1;fill:#666E73;}
	.st42{fill:#FDBC07;}
	.st43{fill:#E6AB07;}
	.st44{fill:#FBC068;}
	.st45{fill:#FCE680;}
	.st46{fill:#B58A4B;}
	.st47{fill:#FDEFA9;}
	.st48{fill:#EE5226;}
	.st49{fill:#A72E23;}
	.st50{opacity:0.1;}
	.st51{fill:#4F4728;}
	.st52{fill:#94C9F3;}
	.st53{fill:#BDE1FD;}
	.st54{fill:#56748A;}
	.st55{fill:#B746BD;}
	.st56{fill:#DA53E1;}
	.st57{opacity:0.1;fill:#411842;}
	.st58{fill:#CA722D;}
	.st59{fill:#B05927;}
	.st60{fill:#FCD21B;}
	.st61{fill:#ECC51C;}
	.st62{fill:#F8A623;}
	.st63{fill:#D7E1E6;}
	.st64{fill:#C1CFD6;}
	.st65{fill:#333333;}
	.st66{fill:#CACACA;}
	.st67{fill:#D68747;}
	.st68{fill:#B1B2B2;}
	.st69{fill:#C2783F;}
	.st70{fill:#D69D55;}
	.st71{fill:#EDB96A;}
	.st72{fill:#A56B37;}
	.st73{fill:#F2CD28;}
	.st74{fill:#E4E4E4;}
	.st75{fill:#F17B65;}
	.st76{opacity:0.1;fill:#7B3E33;}
	.st77{fill:#AA5748;}
	.st78{fill:#A63F12;}
	.st79{fill:#EB5919;}
	.st80{fill:#F68688;}
	.st81{fill:#86330E;}
	.st82{fill:#F36968;}
	.st83{fill:#FFEBEE;}
	.st84{fill:#FFCDD2;}
	.st85{fill:#CFD8DC;}
	.st86{fill:#90A4AE;}
	.st87{fill:#B0BEC5;}
	.st88{fill:#FBE9E7;}
	.st89{fill:#E0F2F1;}
	.st90{fill:#B2DFDB;}
	.st91{fill:#ECEFF1;}
	.st92{fill:#EDE7F6;}
	.st93{fill:#D1C4E9;}
	.st94{fill:#78909C;}
	.st95{fill:#62808C;}
	.st96{fill:#FFF3E0;}
	.st97{fill:#FFE0B2;}
	.st98{fill:#E1E6EA;}
	.st99{fill:#E0F7FA;}
	.st100{fill:#B2EBF2;}
	.st101{fill:#E3F2FD;}
	.st102{fill:#BBDEFB;}
	.st103{fill:#A4B5BC;}
	.st104{fill:#F4D9BE;}
	.st105{fill:#AC9173;stroke:#876A54;stroke-miterlimit:10;}
	.st106{fill:#6AA6AB;}
	.st107{fill:#FFFFFF;}
	.st108{fill:#FFC2C4;}
	.st109{fill:#4A311A;}
	.st110{fill:#FFFFA4;}
	.st111{fill:#8192A4;}
	.st112{fill:#425059;}
	.st113{opacity:0.3;fill:#8192A4;enable-background:new    ;}
	.st114{opacity:0.4;fill:#8192A4;enable-background:new    ;}
	.st115{fill:#9BB3C9;}
	.st116{fill:#6F774B;}
	.st117{fill:#8D9968;}
	.st118{fill:#E94E1B;}
	.st119{fill:#F9B233;}
	.st120{fill:#FFF9AE;}
	.st121{fill:#F39200;}
	.st122{fill:#936037;}
	.st123{fill:#CA9E67;}
	.st124{fill:#7D4E24;}
	.st125{opacity:0.3;fill:#CA9E67;enable-background:new    ;}
	.st126{opacity:0.4;fill:#CA9E67;enable-background:new    ;}
	.st127{fill:#A3B9CC;}
	.st128{fill:#E30613;}
	.st129{fill:#566872;}
	.st130{fill:#B17F4A;}
	.st131{fill:#EDEDED;}
	.st132{fill:#00FFFF;}
	.st133{fill:#996483;}
	.st134{fill:#845A78;}
	.st135{fill:#FFED00;}
	.st136{fill:url(#SVGID_1_);}
</style>
<g>
	<g>
		<g>
			<g>
				<polyline class="st116" points="118.25,147.4 113.65,146.1 117.55,153.3 122.95,155 				"/>
				<polyline class="st116" points="119.45,146.8 120.85,142.2 124.75,149.5 123.15,154.9 				"/>
				<polyline class="st109" points="125.15,160.3 118.25,147.4 119.55,146.7 130.15,166.4 				"/>
			</g>
			<g>
				<polyline class="st116" points="130.85,140.6 126.35,139.3 130.25,146.5 135.65,148.2 				"/>
				<polyline class="st116" points="132.15,140 133.45,135.4 137.35,142.7 135.75,148.1 				"/>
				<polyline class="st109" points="137.75,153.5 130.85,140.6 132.25,139.9 142.85,159.6 				"/>
			</g>
			<g>
				<polyline class="st116" points="143.55,133.8 138.95,132.5 142.85,139.7 148.25,141.4 				"/>
				<polyline class="st116" points="144.75,133.2 146.15,128.6 150.05,135.9 148.45,141.3 				"/>
				<polyline class="st109" points="150.45,146.7 143.55,133.8 144.95,133.1 155.55,152.8 				"/>
			</g>
		</g>
		<g>
			<g>
				<polyline class="st117" points="107.15,142.6 100.45,140.6 106.25,151.4 114.25,153.8 				"/>
				<polyline class="st117" points="109.05,141.6 111.05,134.8 116.95,145.7 114.45,153.7 				"/>
				<polyline class="st109" points="117.45,161.8 107.15,142.6 109.25,141.5 125.05,171 				"/>
			</g>
			<g>
				<polyline class="st117" points="119.75,135.8 113.05,133.8 118.85,144.6 126.85,147.1 				"/>
				<polyline class="st117" points="121.65,134.8 123.65,128.1 129.55,138.9 127.05,147 				"/>
				<polyline class="st109" points="130.05,155 119.75,135.8 121.85,134.7 137.65,164.2 				"/>
			</g>
			<g>
				<polyline class="st117" points="132.35,129.1 125.65,127 131.45,137.9 139.45,140.3 				"/>
				<polyline class="st117" points="134.25,128.1 136.25,121.3 142.05,132.2 139.65,140.2 				"/>
				<polyline class="st109" points="142.65,148.2 132.35,129.1 134.45,128 150.25,157.4 				"/>
			</g>
			<g>
				<polyline class="st117" points="144.95,122.3 138.25,120.3 144.05,131.1 152.05,133.5 				"/>
				<polyline class="st117" points="146.85,121.3 148.85,114.6 154.65,125.4 152.25,133.4 				"/>
				<polyline class="st109" points="155.25,141.5 144.95,122.3 147.05,121.2 162.85,150.7 				"/>
			</g>
		</g>
		<g>
			
				<rect x="143.61" y="154.92" transform="matrix(0.881 -0.473 0.473 0.881 -78.5012 104.161)" class="st118" width="48.5" height="106.49"/>
			<circle class="st119" cx="193.15" cy="255.1" r="24.2"/>
			
				<rect x="110.09" y="147.4" transform="matrix(0.881 -0.473 0.473 0.881 -59.2801 86.6697)" class="st119" width="65.2" height="27.6"/>
		</g>
	</g>
	<path class="st120" d="M177.55,107c0,0-21.3,37.8-9.6,77.6l97.7,6.5c0,0-18.8-36.2-14.1-87.8"/>
	<polyline class="st117" points="176.65,89.3 163.65,89.3 162.25,86.7 154.65,83.5 156.35,82.2 147.25,77.4 145.05,70.9 156.65,72 
		162.05,77 162.05,73.2 169.35,79.1 171.25,77 177.55,86.7 	"/>
	<polygon class="st117" points="158.55,178.3 182.55,402.9 201.85,398.9 210.35,342.7 221.95,342.7 237.25,401.8 248.45,403.2 
		268.65,178.3 	"/>
	<polygon class="st116" points="170.05,302.5 257.25,305.1 272.25,348.2 158.55,349.6 	"/>
	<path class="st104" d="M147.75,286.2c0,0-5.9,34,22.3,34s-9.4-47-9.4-47"/>
	<path class="st117" d="M158.55,178.3c0,0-42.9,83.5-9.8,116.6l24.3-8.7c0,0-25.9-34.2,0-84.1"/>
	<path class="st104" d="M326.15,214.2c22.2-1.8,29.2,15.6,24,32.3c-5.2,16.7-24,2.3-24,2.3"/>
	<path class="st109" d="M294.15,107c0,0,131.8,105.3,0,288.1C294.15,395.1,388.45,233.1,294.15,107z"/>
	<path class="st104" d="M332.25,220.9c0,0,10.1,2.1,10.1,9.4s-14.1,14.6-21.9-4.7"/>
	<path class="st117" d="M268.65,178.3c0,0,39,33.4,57.5,35.9v34.7c0,0-18-0.8-64-46.7"/>
	<polygon class="st104" points="243.35,202.1 186.25,202.1 186.25,92.4 243.35,93.2 	"/>
	<path class="st109" d="M202.75,133.4c5.3,0,9.6-4.3,9.6-9.6h-19.2C193.15,129.1,197.45,133.4,202.75,133.4z"/>
	<path class="st109" d="M229.85,133.4c5.3,0,9.6-4.3,9.6-9.6h-19.2C220.25,129.1,224.55,133.4,229.85,133.4z"/>
	<path class="st104" d="M356.85,220.9c-1.9-2.6-11.8-9.8-11.8,5.2s-3.8,33.4,3.5,33.4C355.85,259.6,367.35,234.9,356.85,220.9z"/>
	<polyline class="st117" points="248.45,403.2 262.15,409.2 237.75,409.2 233.85,388.6 	"/>
	<polyline class="st117" points="182.55,402.9 166.75,409.2 200.25,409.2 201.85,398.9 	"/>
	<polygon class="st108" points="218.95,139.8 239.45,147.3 218.95,162.3 	"/>
	<polygon class="st116" points="169.35,107 272.25,107 189.85,66.4 182.25,95.9 	"/>
	<polyline class="st116" points="187.45,95.4 151.75,75.3 188.65,92.4 	"/>
	<rect x="181.85" y="178.3" class="st117" width="23.1" height="38.7"/>
	<rect x="224.55" y="178.3" class="st117" width="22.7" height="38.7"/>
	<rect x="209.65" y="202.1" class="st116" width="9.8" height="30.4"/>
	<polyline class="st119" points="158.55,178.3 257.25,305.1 260.45,269.4 185.25,178.3 	"/>
	<polyline class="st109" points="294.15,107 294.15,395.1 297.35,111.5 	"/>
</g>
</svg>
