<?xml version="1.0" encoding="utf-8"?>
<!-- Generator: Adobe Illustrator 24.0.1, SVG Export Plug-In . SVG Version: 6.00 Build 0)  -->
<svg version="1.1" id="Camada_1" xmlns="http://www.w3.org/2000/svg" xmlns:xlink="http://www.w3.org/1999/xlink" x="0px" y="0px"
	 viewBox="0 0 500 500" style="enable-background:new 0 0 500 500;" xml:space="preserve">
<style type="text/css">
	.st0{fill:#D28A47;}
	.st1{fill:#A8662F;}
	.st2{fill:#B7DBEB;}
	.st3{fill:#7893A1;}
	.st4{fill:#AACBDA;}
	.st5{opacity:0.1;fill:#333B40;}
	.st6{fill:#FDB232;}
	.st7{fill:#6C392C;}
	.st8{fill:#C7ECFD;}
	.st9{fill:#FDC63D;}
	.st10{fill:#FDDF5A;}
	.st11{fill:#FD5A4E;}
	.st12{fill:#FD7E68;}
	.st13{opacity:0.1;fill:#4A340E;}
	.st14{fill:#FDD555;}
	.st15{fill:#705F25;}
	.st16{opacity:0.1;fill:#455359;}
	.st17{fill:#E2E8F4;}
	.st18{fill:#D4D9E9;}
	.st19{fill:#76C1FB;}
	.st20{opacity:0.1;fill:#2D2E30;}
	.st21{fill:#F7C709;}
	.st22{fill:#EDE8E4;}
	.st23{fill:#876746;}
	.st24{fill:#DEB307;}
	.st25{fill:#B06E30;}
	.st26{opacity:0.1;fill:#3B3002;}
	.st27{fill:#ED5540;}
	.st28{fill:#CEC4DC;}
	.st29{opacity:0.1;fill:#3D3010;}
	.st30{fill:#526D8A;}
	.st31{fill:#8CD0F3;}
	.st32{fill:#CDE6F3;}
	.st33{fill:#394B61;}
	.st34{opacity:0.1;fill:#283645;}
	.st35{fill:#DFE1E6;}
	.st36{fill:#717114;}
	.st37{fill:#C7C8CD;}
	.st38{opacity:0.1;fill:#2A2A2B;}
	.st39{fill:#E0F2FC;}
	.st40{fill:#D0DFE9;}
	.st41{opacity:0.1;fill:#666E73;}
	.st42{fill:#FDBC07;}
	.st43{fill:#E6AB07;}
	.st44{fill:#FBC068;}
	.st45{fill:#FCE680;}
	.st46{fill:#B58A4B;}
	.st47{fill:#FDEFA9;}
	.st48{fill:#EE5226;}
	.st49{fill:#A72E23;}
	.st50{opacity:0.1;}
	.st51{fill:#4F4728;}
	.st52{fill:#94C9F3;}
	.st53{fill:#BDE1FD;}
	.st54{fill:#56748A;}
	.st55{fill:#B746BD;}
	.st56{fill:#DA53E1;}
	.st57{opacity:0.1;fill:#411842;}
	.st58{fill:#CA722D;}
	.st59{fill:#B05927;}
	.st60{fill:#FCD21B;}
	.st61{fill:#ECC51C;}
	.st62{fill:#F8A623;}
	.st63{fill:#D7E1E6;}
	.st64{fill:#C1CFD6;}
	.st65{fill:#333333;}
	.st66{fill:#CACACA;}
	.st67{fill:#D68747;}
	.st68{fill:#B1B2B2;}
	.st69{fill:#C2783F;}
	.st70{fill:#D69D55;}
	.st71{fill:#EDB96A;}
	.st72{fill:#A56B37;}
	.st73{fill:#F2CD28;}
	.st74{fill:#E4E4E4;}
	.st75{fill:#F17B65;}
	.st76{opacity:0.1;fill:#7B3E33;}
	.st77{fill:#AA5748;}
	.st78{fill:#A63F12;}
	.st79{fill:#EB5919;}
	.st80{fill:#F68688;}
	.st81{fill:#86330E;}
	.st82{fill:#F36968;}
	.st83{fill:#FFEBEE;}
	.st84{fill:#FFCDD2;}
	.st85{fill:#CFD8DC;}
	.st86{fill:#90A4AE;}
	.st87{fill:#B0BEC5;}
	.st88{fill:#FBE9E7;}
	.st89{fill:#E0F2F1;}
	.st90{fill:#B2DFDB;}
	.st91{fill:#ECEFF1;}
	.st92{fill:#EDE7F6;}
	.st93{fill:#D1C4E9;}
	.st94{fill:#78909C;}
	.st95{fill:#62808C;}
	.st96{fill:#FFF3E0;}
	.st97{fill:#FFE0B2;}
	.st98{fill:#E1E6EA;}
	.st99{fill:#E0F7FA;}
	.st100{fill:#B2EBF2;}
	.st101{fill:#E3F2FD;}
	.st102{fill:#BBDEFB;}
	.st103{fill:#A4B5BC;}
	.st104{fill:#F4D9BE;}
	.st105{fill:#AC9173;stroke:#876A54;stroke-miterlimit:10;}
	.st106{fill:#6AA6AB;}
	.st107{fill:#FFFFFF;}
	.st108{fill:#FFC2C4;}
	.st109{fill:#4A311A;}
	.st110{fill:#FFFFA4;}
	.st111{fill:#8192A4;}
	.st112{fill:#425059;}
	.st113{opacity:0.3;fill:#8192A4;enable-background:new    ;}
	.st114{opacity:0.4;fill:#8192A4;enable-background:new    ;}
	.st115{fill:#9BB3C9;}
	.st116{fill:#6F774B;}
	.st117{fill:#8D9968;}
	.st118{fill:#E94E1B;}
	.st119{fill:#F9B233;}
	.st120{fill:#FFF9AE;}
	.st121{fill:#F39200;}
	.st122{fill:#936037;}
	.st123{fill:#CA9E67;}
	.st124{fill:#7D4E24;}
	.st125{opacity:0.3;fill:#CA9E67;enable-background:new    ;}
	.st126{opacity:0.4;fill:#CA9E67;enable-background:new    ;}
	.st127{fill:#A3B9CC;}
	.st128{fill:#E30613;}
	.st129{fill:#566872;}
	.st130{fill:#B17F4A;}
	.st131{fill:#EDEDED;}
	.st132{fill:#00FFFF;}
	.st133{fill:#996483;}
	.st134{fill:#845A78;}
	.st135{fill:#FFED00;}
	.st136{fill:url(#SVGID_1_);}
</style>
<g>
	<path class="st21" d="M369.08,158.2L261.42,95.08c-2.9-1.79-6.56-1.78-9.46,0.01L144.33,158.2c-3.24,1.9-4.96,5.62-4.3,9.32
		c18.49,104.16,16.12,115.8,111.41,182.11c3.14,2.27,7.35,2.26,10.47,0.05c95.38-66.37,93.01-78.12,111.47-182.15
		C374.04,163.83,372.32,160.11,369.08,158.2z"/>
	<path class="st22" d="M358.49,164.27l-97.51-57.17c-2.63-1.62-5.95-1.61-8.56,0.01l-97.49,57.16c-2.94,1.72-4.49,5.09-3.9,8.44
		c16.75,94.34,14.6,104.89,100.91,164.95c2.84,2.06,6.66,2.05,9.49,0.04c86.39-60.11,84.25-70.76,100.97-164.99
		C362.98,169.36,361.42,165.99,358.49,164.27z"/>
	<g>
		<path class="st23" d="M222.31,293.75c-2.17-1.74-5.33-1.39-7.07,0.77c-1.74,2.17-1.39,5.33,0.77,7.07
			c0.93,0.74,2.04,1.11,3.14,1.11c1.47,0,2.93-0.64,3.93-1.88C224.82,298.66,224.48,295.49,222.31,293.75z"/>
		<path class="st23" d="M187.37,264.09c-2.29,1.56-2.88,4.7-1.31,6.99c0.98,1.42,2.55,2.19,4.16,2.19c0.98,0,1.96-0.28,2.83-0.88
			c2.29-1.57,2.88-4.7,1.31-6.99C192.8,263.11,189.66,262.52,187.37,264.09z"/>
		<path class="st23" d="M221.51,135.2c-2.39,1.4-3.2,4.49-1.79,6.89c0.94,1.59,2.62,2.49,4.34,2.49c0.87,0,1.74-0.22,2.54-0.69
			c2.4-1.4,3.2-4.49,1.8-6.88C226.99,134.6,223.91,133.8,221.51,135.2z"/>
		<path class="st23" d="M173.58,225.2c-2.71,0.64-4.38,3.35-3.74,6.05c0.55,2.31,2.61,3.88,4.9,3.88c0.38,0,0.77-0.05,1.16-0.14
			c2.7-0.64,4.38-3.35,3.74-6.05C179,226.23,176.29,224.56,173.58,225.2z"/>
		<path class="st23" d="M190.78,164.88c2.4-1.4,3.2-4.49,1.8-6.89c-1.4-2.39-4.49-3.2-6.88-1.8c-2.4,1.41-3.2,4.49-1.8,6.89
			c0.94,1.59,2.62,2.49,4.34,2.49C189.11,165.57,189.98,165.35,190.78,164.88z"/>
		<path class="st23" d="M171.9,188.5c-0.48-2.74-3.09-4.57-5.83-4.09c-2.74,0.48-4.57,3.09-4.09,5.83c0.43,2.45,2.55,4.16,4.95,4.17
			c0.29,0,0.58-0.03,0.87-0.08C170.55,193.85,172.38,191.24,171.9,188.5z"/>
		<path class="st23" d="M255.68,318.26c-0.03-0.02-0.06-0.04-0.09-0.05c-0.05-0.03-0.1-0.08-0.15-0.11
			c-2.28-1.58-5.42-1.02-7.01,1.26c-1.58,2.28-1.02,5.41,1.26,7c0.14,0.1,0.28,0.18,0.42,0.26c0.15,0.11,0.31,0.22,0.47,0.32
			c0.8,0.47,1.68,0.69,2.55,0.69c1.73,0,3.41-0.89,4.34-2.49C258.88,322.74,258.08,319.66,255.68,318.26z"/>
		<path class="st23" d="M336.54,167.21c1.4-2.39,0.6-5.48-1.8-6.88c-2.39-1.41-5.48-0.6-6.88,1.8c-1.41,2.39-0.6,5.48,1.79,6.88
			c0.8,0.47,1.68,0.69,2.54,0.69C333.92,169.7,335.6,168.81,336.54,167.21z"/>
		<path class="st23" d="M314.41,271.54c-1.76,2.15-1.45,5.32,0.7,7.08c0.94,0.76,2.06,1.14,3.18,1.14c1.46,0,2.9-0.63,3.89-1.84
			c1.76-2.15,1.45-5.32-0.7-7.08C319.34,269.08,316.17,269.39,314.41,271.54z"/>
		<path class="st23" d="M263.11,118.33c-2.4-1.4-5.48-0.6-6.89,1.8c-1.4,2.39-0.6,5.48,1.8,6.88c0.8,0.47,1.68,0.69,2.54,0.69
			c1.73,0,3.41-0.89,4.34-2.49C266.31,122.81,265.5,119.73,263.11,118.33z"/>
		<path class="st23" d="M345.92,192.44c-2.74-0.48-5.34,1.34-5.83,4.08c-0.48,2.74,1.34,5.35,4.08,5.83
			c0.3,0.05,0.59,0.08,0.88,0.08c2.4,0,4.52-1.72,4.95-4.16C350.49,195.53,348.66,192.92,345.92,192.44z"/>
		<path class="st23" d="M338,233.13c-2.68-0.75-5.45,0.81-6.2,3.49c-0.75,2.68,0.82,5.45,3.49,6.2c0.45,0.13,0.91,0.19,1.35,0.19
			c2.2,0,4.23-1.45,4.85-3.68C342.25,236.65,340.68,233.87,338,233.13z"/>
		<path class="st23" d="M298.92,139.33c-2.39-1.4-5.48-0.6-6.88,1.8c-1.4,2.4-0.6,5.48,1.8,6.89c0.8,0.47,1.68,0.69,2.54,0.69
			c1.73,0,3.41-0.89,4.34-2.49C302.13,143.81,301.32,140.73,298.92,139.33z"/>
		<path class="st23" d="M284.78,298.7c-2.21,1.69-2.63,4.85-0.94,7.06c0.99,1.29,2.49,1.97,4,1.97c1.07,0,2.14-0.34,3.05-1.04
			c2.21-1.69,2.63-4.85,0.94-7.05C290.14,297.42,286.98,297,284.78,298.7z"/>
	</g>
	<path class="st24" d="M329.31,176.56l-68.07-39.91c-2.81-1.65-6.28-1.65-9.09,0l-68.07,39.91c-3.24,1.9-4.96,5.62-4.3,9.32
		c10.33,58.2,11.13,77.86,71.78,120.06c3.08,2.15,7.18,2.15,10.26,0c60.71-42.24,61.5-62.13,71.78-120.06
		C334.27,182.18,332.56,178.46,329.31,176.56z"/>
	<circle class="st25" cx="256.7" cy="218.35" r="33.54"/>
	<path class="st26" d="M144.33,158.2c-3.24,1.9-4.96,5.62-4.3,9.32c18.49,104.16,16.12,115.8,111.41,182.11
		c1.38,1,2.96,1.55,4.57,1.68V93.8c-1.41,0.11-2.79,0.53-4.04,1.3L144.33,158.2z"/>
</g>
</svg>
