<?xml version="1.0" encoding="utf-8"?>
<!-- Generator: Adobe Illustrator 24.0.1, SVG Export Plug-In . SVG Version: 6.00 Build 0)  -->
<svg version="1.1" id="Camada_1" xmlns="http://www.w3.org/2000/svg" xmlns:xlink="http://www.w3.org/1999/xlink" x="0px" y="0px"
	 viewBox="0 0 500 500" style="enable-background:new 0 0 500 500;" xml:space="preserve">
<style type="text/css">
	.st0{fill:#D28A47;}
	.st1{fill:#A8662F;}
	.st2{fill:#B7DBEB;}
	.st3{fill:#7893A1;}
	.st4{fill:#AACBDA;}
	.st5{opacity:0.1;fill:#333B40;}
	.st6{fill:#FDB232;}
	.st7{fill:#6C392C;}
	.st8{fill:#C7ECFD;}
	.st9{fill:#FDC63D;}
	.st10{fill:#FDDF5A;}
	.st11{fill:#FD5A4E;}
	.st12{fill:#FD7E68;}
	.st13{opacity:0.1;fill:#4A340E;}
	.st14{fill:#FDD555;}
	.st15{fill:#705F25;}
	.st16{opacity:0.1;fill:#455359;}
	.st17{fill:#E2E8F4;}
	.st18{fill:#D4D9E9;}
	.st19{fill:#76C1FB;}
	.st20{opacity:0.1;fill:#2D2E30;}
	.st21{fill:#F7C709;}
	.st22{fill:#EDE8E4;}
	.st23{fill:#876746;}
	.st24{fill:#DEB307;}
	.st25{fill:#B06E30;}
	.st26{opacity:0.1;fill:#3B3002;}
	.st27{fill:#ED5540;}
	.st28{fill:#CEC4DC;}
	.st29{opacity:0.1;fill:#3D3010;}
	.st30{fill:#526D8A;}
	.st31{fill:#8CD0F3;}
	.st32{fill:#CDE6F3;}
	.st33{fill:#394B61;}
	.st34{opacity:0.1;fill:#283645;}
	.st35{fill:#DFE1E6;}
	.st36{fill:#717114;}
	.st37{fill:#C7C8CD;}
	.st38{opacity:0.1;fill:#2A2A2B;}
	.st39{fill:#E0F2FC;}
	.st40{fill:#D0DFE9;}
	.st41{opacity:0.1;fill:#666E73;}
	.st42{fill:#FDBC07;}
	.st43{fill:#E6AB07;}
	.st44{fill:#FBC068;}
	.st45{fill:#FCE680;}
	.st46{fill:#B58A4B;}
	.st47{fill:#FDEFA9;}
	.st48{fill:#EE5226;}
	.st49{fill:#A72E23;}
	.st50{opacity:0.1;}
	.st51{fill:#4F4728;}
	.st52{fill:#94C9F3;}
	.st53{fill:#BDE1FD;}
	.st54{fill:#56748A;}
	.st55{fill:#B746BD;}
	.st56{fill:#DA53E1;}
	.st57{opacity:0.1;fill:#411842;}
	.st58{fill:#CA722D;}
	.st59{fill:#B05927;}
	.st60{fill:#FCD21B;}
	.st61{fill:#ECC51C;}
	.st62{fill:#F8A623;}
	.st63{fill:#D7E1E6;}
	.st64{fill:#C1CFD6;}
	.st65{fill:#333333;}
	.st66{fill:#CACACA;}
	.st67{fill:#D68747;}
	.st68{fill:#B1B2B2;}
	.st69{fill:#C2783F;}
	.st70{fill:#D69D55;}
	.st71{fill:#EDB96A;}
	.st72{fill:#A56B37;}
	.st73{fill:#F2CD28;}
	.st74{fill:#E4E4E4;}
	.st75{fill:#F17B65;}
	.st76{opacity:0.1;fill:#7B3E33;}
	.st77{fill:#AA5748;}
	.st78{fill:#A63F12;}
	.st79{fill:#EB5919;}
	.st80{fill:#F68688;}
	.st81{fill:#86330E;}
	.st82{fill:#F36968;}
	.st83{fill:#FFEBEE;}
	.st84{fill:#FFCDD2;}
	.st85{fill:#CFD8DC;}
	.st86{fill:#90A4AE;}
	.st87{fill:#B0BEC5;}
	.st88{fill:#FBE9E7;}
	.st89{fill:#E0F2F1;}
	.st90{fill:#B2DFDB;}
	.st91{fill:#ECEFF1;}
	.st92{fill:#EDE7F6;}
	.st93{fill:#D1C4E9;}
	.st94{fill:#78909C;}
	.st95{fill:#62808C;}
	.st96{fill:#FFF3E0;}
	.st97{fill:#FFE0B2;}
	.st98{fill:#E1E6EA;}
	.st99{fill:#E0F7FA;}
	.st100{fill:#B2EBF2;}
	.st101{fill:#E3F2FD;}
	.st102{fill:#BBDEFB;}
	.st103{fill:#A4B5BC;}
	.st104{fill:#F4D9BE;}
	.st105{fill:#AC9173;stroke:#876A54;stroke-miterlimit:10;}
	.st106{fill:#6AA6AB;}
	.st107{fill:#FFFFFF;}
	.st108{fill:#FFC2C4;}
	.st109{fill:#4A311A;}
	.st110{fill:#FFFFA4;}
	.st111{fill:#8192A4;}
	.st112{fill:#425059;}
	.st113{opacity:0.3;fill:#8192A4;enable-background:new    ;}
	.st114{opacity:0.4;fill:#8192A4;enable-background:new    ;}
	.st115{fill:#9BB3C9;}
	.st116{fill:#6F774B;}
	.st117{fill:#8D9968;}
	.st118{fill:#E94E1B;}
	.st119{fill:#F9B233;}
	.st120{fill:#FFF9AE;}
	.st121{fill:#F39200;}
	.st122{fill:#936037;}
	.st123{fill:#CA9E67;}
	.st124{fill:#7D4E24;}
	.st125{opacity:0.3;fill:#CA9E67;enable-background:new    ;}
	.st126{opacity:0.4;fill:#CA9E67;enable-background:new    ;}
	.st127{fill:#A3B9CC;}
	.st128{fill:#E30613;}
	.st129{fill:#566872;}
	.st130{fill:#B17F4A;}
	.st131{fill:#EDEDED;}
	.st132{fill:#00FFFF;}
	.st133{fill:#996483;}
	.st134{fill:#845A78;}
	.st135{fill:#FFED00;}
	.st136{fill:url(#SVGID_1_);}
</style>
<g>
	<path class="st35" d="M355.89,113.34l-30.51,32.34H249.8h-75.58l-30.51-32.34c-2.93-3.11-8.16-1.03-8.16,3.24v117.38
		c0,1,0.32,1.98,0.91,2.79l109.53,149.64c1.89,2.58,5.74,2.58,7.62,0l109.53-149.64c0.59-0.81,0.91-1.79,0.91-2.79V116.58
		C364.05,112.3,358.83,110.23,355.89,113.34z"/>
	<path class="st36" d="M330.96,169.52H168.64c-4.46,0-8.08,3.62-8.08,8.08v58.25c0,1.7,0.54,3.36,1.54,4.74l84.73,116.94
		c1.47,2.01,4.48,2.01,5.95,0L337.5,240.6c1-1.38,1.54-3.04,1.54-4.74v-58.25C339.04,173.14,335.42,169.52,330.96,169.52z"/>
	<g>
		<path class="st37" d="M330.96,167.28H168.64c-5.69,0-10.33,4.63-10.33,10.33v58.25c0,2.19,0.68,4.28,1.96,6.06l84.73,116.95
			c1.13,1.54,2.87,2.43,4.79,2.43c1.91,0,3.66-0.89,4.79-2.44l84.73-116.94c1.29-1.77,1.96-3.87,1.96-6.06v-58.25
			C341.28,171.91,336.65,167.28,330.96,167.28z M336.8,235.86c0,1.24-0.38,2.42-1.11,3.43l-84.72,116.93
			c-0.28,0.38-0.7,0.59-1.17,0.59c-0.47,0-0.89-0.22-1.16-0.58l-84.73-116.94c-0.73-1-1.11-2.19-1.11-3.43v-58.25
			c0-3.22,2.62-5.84,5.84-5.84h162.31c3.22,0,5.84,2.62,5.84,5.84V235.86z"/>
	</g>
	<path class="st35" d="M263.04,210.49h-26.49c-3.53,0-6.39,2.86-6.39,6.39v48.3c0,1.36,0.43,2.68,1.23,3.77l13.24,18.1
		c2.55,3.49,7.76,3.49,10.32,0l13.24-18.1c0.8-1.1,1.23-2.42,1.23-3.77v-48.3C269.44,213.36,266.57,210.49,263.04,210.49z"/>
	<path class="st37" d="M189.84,149.38c-4.04,0-7.31,3.27-7.31,7.31c0,4.04,3.27,7.31,7.31,7.31c4.04,0,7.31-3.27,7.31-7.31
		C197.15,152.65,193.88,149.38,189.84,149.38z"/>
	<path class="st37" d="M229.81,149.38c-4.04,0-7.31,3.27-7.31,7.31c0,4.04,3.27,7.31,7.31,7.31c4.04,0,7.31-3.27,7.31-7.31
		C237.13,152.65,233.85,149.38,229.81,149.38z"/>
	<path class="st37" d="M269.79,149.38c-4.04,0-7.31,3.27-7.31,7.31c0,4.04,3.27,7.31,7.31,7.31c4.04,0,7.31-3.27,7.31-7.31
		C277.1,152.65,273.83,149.38,269.79,149.38z"/>
	<path class="st37" d="M309.76,149.38c-4.04,0-7.31,3.27-7.31,7.31c0,4.04,3.27,7.31,7.31,7.31c4.04,0,7.31-3.27,7.31-7.31
		C317.07,152.65,313.8,149.38,309.76,149.38z"/>
	<path class="st38" d="M143.71,113.34c-2.93-3.11-8.16-1.03-8.16,3.24v117.38c0,1,0.32,1.98,0.91,2.79l109.53,149.64
		c0.94,1.29,2.38,1.93,3.81,1.93V145.67h-75.58L143.71,113.34z"/>
</g>
</svg>
