<?xml version="1.0" encoding="utf-8"?>
<!-- Generator: Adobe Illustrator 24.0.1, SVG Export Plug-In . SVG Version: 6.00 Build 0)  -->
<svg version="1.1" id="Camada_1" xmlns="http://www.w3.org/2000/svg" xmlns:xlink="http://www.w3.org/1999/xlink" x="0px" y="0px"
	 viewBox="0 0 500 500" style="enable-background:new 0 0 500 500;" xml:space="preserve">
<style type="text/css">
	.st0{fill:#D28A47;}
	.st1{fill:#A8662F;}
	.st2{fill:#B7DBEB;}
	.st3{fill:#7893A1;}
	.st4{fill:#AACBDA;}
	.st5{opacity:0.1;fill:#333B40;}
	.st6{fill:#FDB232;}
	.st7{fill:#6C392C;}
	.st8{fill:#C7ECFD;}
	.st9{fill:#FDC63D;}
	.st10{fill:#FDDF5A;}
	.st11{fill:#FD5A4E;}
	.st12{fill:#FD7E68;}
	.st13{opacity:0.1;fill:#4A340E;}
	.st14{fill:#FDD555;}
	.st15{fill:#705F25;}
	.st16{opacity:0.1;fill:#455359;}
	.st17{fill:#E2E8F4;}
	.st18{fill:#D4D9E9;}
	.st19{fill:#76C1FB;}
	.st20{opacity:0.1;fill:#2D2E30;}
	.st21{fill:#F7C709;}
	.st22{fill:#EDE8E4;}
	.st23{fill:#876746;}
	.st24{fill:#DEB307;}
	.st25{fill:#B06E30;}
	.st26{opacity:0.1;fill:#3B3002;}
	.st27{fill:#ED5540;}
	.st28{fill:#CEC4DC;}
	.st29{opacity:0.1;fill:#3D3010;}
	.st30{fill:#526D8A;}
	.st31{fill:#8CD0F3;}
	.st32{fill:#CDE6F3;}
	.st33{fill:#394B61;}
	.st34{opacity:0.1;fill:#283645;}
	.st35{fill:#DFE1E6;}
	.st36{fill:#717114;}
	.st37{fill:#C7C8CD;}
	.st38{opacity:0.1;fill:#2A2A2B;}
	.st39{fill:#E0F2FC;}
	.st40{fill:#D0DFE9;}
	.st41{opacity:0.1;fill:#666E73;}
	.st42{fill:#FDBC07;}
	.st43{fill:#E6AB07;}
	.st44{fill:#FBC068;}
	.st45{fill:#FCE680;}
	.st46{fill:#B58A4B;}
	.st47{fill:#FDEFA9;}
	.st48{fill:#EE5226;}
	.st49{fill:#A72E23;}
	.st50{opacity:0.1;}
	.st51{fill:#4F4728;}
	.st52{fill:#94C9F3;}
	.st53{fill:#BDE1FD;}
	.st54{fill:#56748A;}
	.st55{fill:#B746BD;}
	.st56{fill:#DA53E1;}
	.st57{opacity:0.1;fill:#411842;}
	.st58{fill:#CA722D;}
	.st59{fill:#B05927;}
	.st60{fill:#FCD21B;}
	.st61{fill:#ECC51C;}
	.st62{fill:#F8A623;}
	.st63{fill:#D7E1E6;}
	.st64{fill:#C1CFD6;}
	.st65{fill:#333333;}
	.st66{fill:#CACACA;}
	.st67{fill:#D68747;}
	.st68{fill:#B1B2B2;}
	.st69{fill:#C2783F;}
	.st70{fill:#D69D55;}
	.st71{fill:#EDB96A;}
	.st72{fill:#A56B37;}
	.st73{fill:#F2CD28;}
	.st74{fill:#E4E4E4;}
	.st75{fill:#F17B65;}
	.st76{opacity:0.1;fill:#7B3E33;}
	.st77{fill:#AA5748;}
	.st78{fill:#A63F12;}
	.st79{fill:#EB5919;}
	.st80{fill:#F68688;}
	.st81{fill:#86330E;}
	.st82{fill:#F36968;}
	.st83{fill:#FFEBEE;}
	.st84{fill:#FFCDD2;}
	.st85{fill:#CFD8DC;}
	.st86{fill:#90A4AE;}
	.st87{fill:#B0BEC5;}
	.st88{fill:#FBE9E7;}
	.st89{fill:#E0F2F1;}
	.st90{fill:#B2DFDB;}
	.st91{fill:#ECEFF1;}
	.st92{fill:#EDE7F6;}
	.st93{fill:#D1C4E9;}
	.st94{fill:#78909C;}
	.st95{fill:#62808C;}
	.st96{fill:#FFF3E0;}
	.st97{fill:#FFE0B2;}
	.st98{fill:#E1E6EA;}
	.st99{fill:#E0F7FA;}
	.st100{fill:#B2EBF2;}
	.st101{fill:#E3F2FD;}
	.st102{fill:#BBDEFB;}
	.st103{fill:#A4B5BC;}
	.st104{fill:#F4D9BE;}
	.st105{fill:#AC9173;stroke:#876A54;stroke-miterlimit:10;}
	.st106{fill:#6AA6AB;}
	.st107{fill:#FFFFFF;}
	.st108{fill:#FFC2C4;}
	.st109{fill:#4A311A;}
	.st110{fill:#FFFFA4;}
	.st111{fill:#8192A4;}
	.st112{fill:#425059;}
	.st113{opacity:0.3;fill:#8192A4;enable-background:new    ;}
	.st114{opacity:0.4;fill:#8192A4;enable-background:new    ;}
	.st115{fill:#9BB3C9;}
	.st116{fill:#6F774B;}
	.st117{fill:#8D9968;}
	.st118{fill:#E94E1B;}
	.st119{fill:#F9B233;}
	.st120{fill:#FFF9AE;}
	.st121{fill:#F39200;}
	.st122{fill:#936037;}
	.st123{fill:#CA9E67;}
	.st124{fill:#7D4E24;}
	.st125{opacity:0.3;fill:#CA9E67;enable-background:new    ;}
	.st126{opacity:0.4;fill:#CA9E67;enable-background:new    ;}
	.st127{fill:#A3B9CC;}
	.st128{fill:#E30613;}
	.st129{fill:#566872;}
	.st130{fill:#B17F4A;}
	.st131{fill:#EDEDED;}
	.st132{fill:#00FFFF;}
	.st133{fill:#996483;}
	.st134{fill:#845A78;}
	.st135{fill:#FFED00;}
	.st136{fill:url(#SVGID_1_);}
</style>
<g>
	
		<ellipse transform="matrix(0.7071 -0.7071 0.7071 0.7071 -104.4445 253.8485)" class="st83" cx="254.2" cy="253" rx="176.42" ry="176.42"/>
	<path class="st84" d="M430.62,253c0-6.12-0.31-12.17-0.92-18.14l-72.93-72.93l5.75,73.85l-56.22,56.75L146.5,350.04l76.65,76.65
		c10.08,1.79,20.45,2.73,31.05,2.73c30.75,0,59.67-7.88,84.84-21.71l15.08-9.31C400.32,366.58,430.62,313.33,430.62,253z"/>
	<g>
		<g>
			<path class="st85" d="M198.41,279.48c-61.98-30.57-53.23-101.38-29.13-125.47c-60.68,14.14-63.42,129.58,19.62,156.95
				C195.95,295.23,198.41,279.48,198.41,279.48z"/>
			<path class="st85" d="M309.99,279.48c61.98-30.57,53.23-101.38,29.13-125.47c60.68,14.14,63.42,129.58-19.62,156.95
				C312.45,295.23,309.99,279.48,309.99,279.48z"/>
		</g>
		<path class="st86" d="M254.2,225.77c-56.64,0-102.56,45.92-102.56,102.56h205.12C356.76,271.69,310.84,225.77,254.2,225.77z"/>
		<g>
			<path class="st87" d="M239.95,224.4v110.46h28.49V224.4c0-3.27-2.65-5.93-5.93-5.93h-16.64
				C242.61,218.47,239.95,221.13,239.95,224.4z"/>
			<g>
				<circle class="st86" cx="254.2" cy="238.1" r="7.76"/>
				<circle class="st86" cx="254.2" cy="276.66" r="7.76"/>
				<circle class="st86" cx="254.2" cy="315.23" r="7.76"/>
			</g>
		</g>
		<path class="st87" d="M357.06,351.99H151.34c-3.87,0-7-3.13-7-7V330.5c0-3.87,3.13-7,7-7h205.71c3.87,0,7,3.13,7,7v14.49
			C364.06,348.86,360.92,351.99,357.06,351.99z"/>
		<g>
			<circle class="st86" cx="170.13" cy="337.74" r="7.76"/>
			<circle class="st86" cx="212.17" cy="337.74" r="7.76"/>
			<circle class="st86" cx="254.2" cy="337.74" r="7.76"/>
			<circle class="st86" cx="296.23" cy="337.74" r="7.76"/>
			<circle class="st86" cx="338.27" cy="337.74" r="7.76"/>
		</g>
	</g>
	<g>
		<path class="st88" d="M339.04,407.71c5.19-2.85,10.22-5.96,15.08-9.31L339.04,407.71z"/>
	</g>
</g>
</svg>
