<?xml version="1.0" encoding="utf-8"?>
<!-- Generator: Adobe Illustrator 24.0.1, SVG Export Plug-In . SVG Version: 6.00 Build 0)  -->
<svg version="1.1" id="Camada_1" xmlns="http://www.w3.org/2000/svg" xmlns:xlink="http://www.w3.org/1999/xlink" x="0px" y="0px"
	 viewBox="0 0 100 100" style="enable-background:new 0 0 100 100;" xml:space="preserve">
<style type="text/css">
	.st0{fill:#E0E0E0;}
</style>
<path class="st0" d="M50,11c-21.5,0-39,17.5-39,39s17.5,39,39,39s39-17.5,39-39S71.5,11,50,11z M40,23h20c9.38,0,17,7.63,17,17v20
	c0,9.38-7.63,17-17,17H40c-9.38,0-17-7.63-17-17V40C23,30.63,30.63,23,40,23z M40,29c-6.06,0-11,4.94-11,11v20c0,6.06,4.94,11,11,11
	h20c6.06,0,11-4.94,11-11V40c0-6.06-4.94-11-11-11H40z M64,34c1.1,0,2,0.89,2,2s-0.89,2-2,2c-1.1,0-2-0.9-2-2S62.9,34,64,34z M50,35
	c8.27,0,15,6.73,15,15s-6.73,15-15,15s-15-6.73-15-15S41.73,35,50,35z M50,41c-4.97,0-9,4.03-9,9s4.03,9,9,9s9-4.03,9-9
	S54.97,41,50,41z"/>
</svg>
