<?xml version="1.0" encoding="utf-8"?>
<!-- Generator: Adobe Illustrator 24.0.1, SVG Export Plug-In . SVG Version: 6.00 Build 0)  -->
<svg version="1.1" id="Camada_1" xmlns="http://www.w3.org/2000/svg" xmlns:xlink="http://www.w3.org/1999/xlink" x="0px" y="0px"
	 viewBox="0 0 100 100" style="enable-background:new 0 0 100 100;" xml:space="preserve">
<style type="text/css">
	.st0{fill:#E0E0E0;}
</style>
<path class="st0" d="M40.07,87.88c1.28-0.55,2.18-1.82,2.18-3.3v-9.72c0-0.35,0.03-0.72,0.07-1.1c-0.03,0.01-0.05,0.01-0.07,0.02
	c0,0-5.4,0-6.48,0c-2.7,0-5.04-1.08-6.12-3.24c-1.26-2.34-1.8-6.3-5.04-8.46c-0.54-0.36-0.18-0.9,0.9-0.9
	c1.08,0.18,3.42,1.62,4.86,3.6c1.62,1.98,3.24,3.6,6.12,3.6c4.48,0,6.88-0.23,8.32-1c1.68-2.5,4.01-4.4,6.44-4.4v-0.05
	c-10.2-0.33-16.72-3.72-19.75-8.95c-6.6,0.08-12.34,0.73-15.62,1.27c-0.1-0.59-0.19-1.18-0.27-1.78c3.23-0.53,8.72-1.16,15.02-1.29
	c-0.2-0.5-0.38-1.01-0.52-1.53c-6.32-0.32-11.77-0.07-14.74,0.17c-0.04-0.6-0.08-1.19-0.09-1.8c2.97-0.24,8.27-0.49,14.43-0.2
	c-0.14-0.9-0.23-1.82-0.23-2.78c0-3.06,1.08-6.3,3.06-9c-0.9-3.06-2.16-9.54,0.36-11.88c4.86,0,8.28,2.34,9.9,3.78
	c3.06-1.26,6.48-1.98,10.26-1.98c3.78,0,7.2,0.72,10.08,1.98c1.62-1.44,5.04-3.78,9.9-3.78c2.7,2.52,1.26,9,0.36,11.88
	c1.98,2.7,3.06,5.76,2.88,9c0,0.87-0.08,1.71-0.2,2.54c6.3-0.31,11.75-0.06,14.77,0.18c0,0.61-0.06,1.2-0.09,1.8
	c-3.01-0.25-8.6-0.5-15.05-0.16c-0.16,0.6-0.35,1.19-0.58,1.76c6.38,0.08,12,0.7,15.39,1.24c-0.08,0.6-0.17,1.19-0.27,1.78
	c-3.44-0.55-9.31-1.2-15.98-1.23c-3,5.18-9.4,8.56-19.4,8.95v0.06c4.68,0,9,7.02,9,11.88v9.72c0,1.48,0.9,2.75,2.18,3.3
	c16.49-5.46,28.42-21.01,28.42-39.3c0-22.83-18.57-41.4-41.4-41.4s-41.4,18.57-41.4,41.4C11.64,66.87,23.58,82.43,40.07,87.88z"/>
</svg>
