<?xml version="1.0" encoding="utf-8"?>
<!-- Generator: Adobe Illustrator 25.0.0, SVG Export Plug-In . SVG Version: 6.00 Build 0)  -->
<svg version="1.1" id="Camada_1" xmlns="http://www.w3.org/2000/svg" xmlns:xlink="http://www.w3.org/1999/xlink" x="0px" y="0px"
	 viewBox="0 0 200 200" style="enable-background:new 0 0 200 200;" xml:space="preserve">
<style type="text/css">
	.st0{fill:#FBC068;}
	.st1{fill:#FCE680;}
	.st2{fill:#B58A4B;}
	.st3{opacity:0.1;}
	.st4{fill:#4F4728;}
	.st5{fill:none;}
	.st6{font-family:'MyriadPro-Regular';}
	.st7{font-size:14px;}
</style>
<g>
	<path class="st0" d="M65.6,8.4C51.3,8.4,39.7,20,39.7,34.3c0,4.9,0,111.6-0.1,127.6v26.5H135c14.3,0,25.9-11.6,25.9-25.9
		c0-4.8,0.1-135.3,0.1-135.3c0-10.4,8.4-18.8,18.7-18.8l0,0L65.6,8.4L65.6,8.4z"/>
	<path class="st1" d="M133.8,188.4h0.6l0,0C134.3,188.4,134.1,188.4,133.8,188.4L133.8,188.4z"/>
	<path class="st2" d="M160.9,27.2c0-10.4,8.4-18.8,18.8-18.8c8.5,0,15.7,5.7,18.1,13.4c0.8,2.7-1.2,5.4-4,5.4H160.9L160.9,27.2z"/>
	<path class="st1" d="M133.8,188.4h0.6l0,0C134.3,188.4,134.1,188.4,133.8,188.4L133.8,188.4z"/>
	<path class="st1" d="M106.6,161.1c0-0.1,0-1.6,0-3.4c0-3.5-2.8-6.3-6.3-6.3h-92c-3.5,0-6.3,2.8-6.3,6.3v6.1
		c0,13.5,11,24.5,24.5,24.5h107.3C118.8,188.4,106.6,176.2,106.6,161.1L106.6,161.1z"/>
	<g class="st3">
		<path class="st4" d="M56.5,34.3C56.5,20,68.1,8.4,82.4,8.4H65.6C51.3,8.4,39.7,20,39.7,34.3c0,4.3,0,85.6,0,117.2h16.7
			C56.4,119.9,56.5,38.6,56.5,34.3z"/>
		<path class="st4" d="M18.7,163.9v-6.1c0-3.5,2.8-6.3,6.3-6.3H8.3c-3.5,0-6.3,2.8-6.3,6.3v6.1c0,13.5,11,24.5,24.5,24.5h13.2h3.6
			C29.7,188.4,18.7,177.4,18.7,163.9z"/>
	</g>
</g>
<rect x="61.5" y="19.8" class="st5" width="96" height="140.4"/>
<text transform="matrix(1 0 0 1 61.7668 29.7397)"><tspan x="0" y="0" class="st6 st7">Falta apenas um </tspan><tspan x="16.4" y="16.8" class="st6 st7">passo para </tspan><tspan x="21.1" y="33.6" class="st6 st7">terminar,</tspan><tspan x="9.9" y="50.4" class="st6 st7">confirme seu</tspan><tspan x="13.4" y="67.2" class="st6 st7">cadastro no</tspan><tspan x="18.9" y="84" class="st6 st7">email que</tspan><tspan x="5" y="100.8" class="st6 st7">enviamos para</tspan><tspan x="32.2" y="117.6" class="st6 st7">você!</tspan></text>
</svg>
