<?xml version="1.0" encoding="utf-8"?>
<!-- Generator: Adobe Illustrator 25.0.0, SVG Export Plug-In . SVG Version: 6.00 Build 0)  -->
<svg version="1.1" id="Camada_1" xmlns="http://www.w3.org/2000/svg" xmlns:xlink="http://www.w3.org/1999/xlink" x="0px" y="0px"
	 viewBox="0 0 200 200" style="enable-background:new 0 0 200 200;" xml:space="preserve">
<style type="text/css">
	.st0{fill:#FBC169;}
	.st1{fill:#FCE782;}
	.st2{fill:#B58A4A;}
	.st3{opacity:0.1;}
	.st4{fill:#504828;}
	.st5{fill:none;}
	.st6{fill:#020203;}
</style>
<g>
	<path class="st0" d="M65.6,10c-14.3,0-25.9,11.6-25.9,25.9c0,4.9,0,111.6-0.1,127.6V190H135c14.3,0,25.9-11.6,25.9-25.9
		c0-4.8,0.1-135.3,0.1-135.3c0-10.4,8.4-18.8,18.7-18.8l0,0L65.6,10L65.6,10z"/>
	<path class="st1" d="M133.8,190h0.6l0,0C134.3,190,134.1,190,133.8,190L133.8,190z"/>
	<path class="st2" d="M160.9,28.8c0-10.4,8.4-18.8,18.8-18.8c8.5,0,15.7,5.7,18.1,13.4c0.8,2.7-1.2,5.4-4,5.4H160.9L160.9,28.8z"/>
	<path class="st1" d="M133.8,190h0.6l0,0C134.3,190,134.1,190,133.8,190L133.8,190z"/>
	<path class="st1" d="M106.6,162.7c0-0.1,0-1.6,0-3.4c0-3.5-2.8-6.3-6.3-6.3h-92c-3.5,0-6.3,2.8-6.3,6.3v6.1
		c0,13.5,11,24.5,24.5,24.5h107.3C118.8,190,106.6,177.8,106.6,162.7L106.6,162.7z"/>
	<g class="st3">
		<path class="st4" d="M56.5,35.9C56.5,21.6,68.1,10,82.4,10H65.6c-14.3,0-25.9,11.6-25.9,25.9c0,4.3,0,85.6,0,117.2h16.7
			C56.4,121.5,56.5,40.2,56.5,35.9z"/>
		<path class="st4" d="M18.7,165.5v-6.1c0-3.5,2.8-6.3,6.3-6.3H8.3c-3.5,0-6.3,2.8-6.3,6.3v6.1C2,179,13,190,26.5,190h13.2h3.6
			C29.7,190,18.7,179,18.7,165.5z"/>
	</g>
</g>
<rect x="81.3" y="7.4" class="st5" width="62.1" height="134.1"/>
<g>
	<path class="st6" d="M69.6,28.7h-2.7v3.8c0,0.4-0.1,0.6-0.3,0.8c-0.2,0.2-0.5,0.2-0.8,0.2c-0.4,0-0.7-0.1-0.8-0.2s-0.3-0.4-0.3-0.8
		v-3.8h-1.1v-0.6h1.1v-4.3c-0.1,0-0.3,0-0.5,0.1c-0.2,0-0.4,0.1-0.6,0.2c-0.2,0.1-0.4,0.2-0.6,0.2s-0.4,0.2-0.5,0.3
		s-0.3,0.3-0.4,0.4C62,25.2,62,25.3,62,25.5c0,0.1,0,0.3,0.1,0.3c0,0.1,0.1,0.2,0.1,0.2s0.1,0.1,0.2,0.1c0.1,0,0.1,0,0.1,0
		c0.1,0,0.2,0,0.3-0.1s0.1-0.1,0.2-0.1s0.1-0.1,0.2-0.1c0.1,0,0.1-0.1,0.2-0.1c0.1,0,0.1,0,0.2,0c0.1,0,0.1,0.1,0.2,0.1
		c0.1,0.1,0.1,0.1,0.1,0.2s0.1,0.2,0.1,0.3c0,0.2,0,0.3-0.1,0.5c-0.1,0.1-0.2,0.2-0.3,0.3c-0.1,0.1-0.2,0.2-0.4,0.2
		c-0.1,0-0.3,0.1-0.4,0.1c-0.2,0-0.4,0-0.6-0.1c-0.2-0.1-0.3-0.2-0.4-0.3s-0.2-0.3-0.3-0.5s-0.1-0.4-0.1-0.6c0-0.5,0.1-1,0.4-1.4
		c0.3-0.4,0.7-0.7,1.2-0.9s1.1-0.4,1.8-0.5s1.4-0.2,2.2-0.2c0.3,0,0.6,0,1,0s0.7,0,1,0c0.3,0,0.6,0,0.8,0s0.4,0,0.5,0.1
		c0.1,0,0.2,0,0.2,0.1s0.1,0.1,0.1,0.1s0,0.1,0.1,0.1s0,0.1,0,0.2c0,0.1,0,0.1,0,0.2s0,0.1-0.1,0.2s-0.1,0.1-0.1,0.1
		s-0.1,0.1-0.2,0.1c0,0-0.1,0-0.1,0c0,0-0.1-0.1-0.2-0.1c-0.1-0.1-0.2-0.1-0.3-0.2c-0.1-0.1-0.3-0.1-0.5-0.2
		c-0.2-0.1-0.5-0.1-0.8-0.1c-0.3,0-0.7,0-1.2,0v4.4h2.7V28.7z"/>
	<path class="st6" d="M72.7,26.8c-0.2,0-0.3,0-0.4,0.1S72.1,27,72,27s-0.2,0.1-0.2,0.2s-0.1,0.1-0.1,0.2c0,0.1,0,0.1,0.1,0.1
		c0.1,0,0.1,0.1,0.2,0.1s0.2,0.1,0.2,0.2c0.1,0.1,0.1,0.2,0.1,0.3c0,0.1,0,0.2-0.1,0.3c0,0.1-0.1,0.2-0.2,0.2
		c-0.1,0.1-0.1,0.1-0.2,0.1c-0.1,0-0.2,0.1-0.3,0.1c-0.3,0-0.5-0.1-0.6-0.3c-0.2-0.2-0.2-0.4-0.2-0.7c0-0.3,0.1-0.5,0.2-0.7
		s0.3-0.4,0.6-0.5c0.2-0.1,0.5-0.2,0.8-0.3s0.6-0.1,0.9-0.1c0.4,0,0.7,0,1,0.1s0.6,0.2,0.9,0.4c0.2,0.2,0.4,0.4,0.6,0.6
		c0.1,0.3,0.2,0.6,0.2,0.9v3.9c0,0,0,0.1,0,0.1s0,0.1,0,0.1s0,0.1,0.1,0.1s0.1,0,0.2,0c0.1,0,0.2,0,0.2-0.1c0.1-0.1,0.1-0.1,0.2-0.2
		l0.2,0.1c-0.1,0.1-0.2,0.2-0.2,0.3s-0.2,0.2-0.3,0.3s-0.3,0.2-0.5,0.3s-0.4,0.1-0.6,0.1c-0.3,0-0.5-0.1-0.8-0.3s-0.4-0.4-0.4-0.8
		c-0.1,0.2-0.3,0.4-0.5,0.5c-0.2,0.1-0.3,0.2-0.5,0.3s-0.3,0.1-0.5,0.2c-0.2,0-0.3,0.1-0.5,0.1c-0.2,0-0.4,0-0.6-0.1
		s-0.4-0.2-0.6-0.3c-0.2-0.1-0.3-0.3-0.4-0.6c-0.1-0.2-0.1-0.5-0.1-0.9c0-0.4,0.1-0.8,0.2-1s0.4-0.5,0.6-0.7
		c0.3-0.2,0.6-0.3,0.9-0.5c0.3-0.1,0.7-0.3,1-0.4c0.3-0.1,0.5-0.3,0.6-0.5c0.1-0.2,0.2-0.4,0.2-0.6c0-0.3-0.1-0.6-0.3-0.8
		C73.3,26.9,73.1,26.8,72.7,26.8z M73.8,29.8c0-0.1,0-0.2-0.1-0.3s-0.2-0.1-0.3-0.1c-0.2,0-0.3,0-0.5,0.1c-0.1,0.1-0.3,0.2-0.4,0.3
		s-0.2,0.3-0.3,0.5s-0.1,0.4-0.1,0.7c0,0.3,0,0.5,0.1,0.7c0,0.2,0.1,0.3,0.2,0.4c0.1,0.1,0.1,0.2,0.2,0.2s0.2,0.1,0.3,0.1
		c0.1,0,0.2,0,0.3-0.1s0.2-0.1,0.3-0.2s0.1-0.2,0.2-0.3s0.1-0.2,0.1-0.4V29.8z"/>
	<path class="st6" d="M79.8,32.8c0,0.1,0,0.1,0,0.2c0,0.1-0.1,0.2-0.1,0.2c-0.1,0.1-0.2,0.1-0.3,0.2c-0.1,0.1-0.3,0.1-0.6,0.1
		s-0.4,0-0.6-0.1s-0.2-0.1-0.3-0.2c-0.1-0.1-0.1-0.2-0.1-0.2c0-0.1,0-0.1,0-0.2v-8.8c0-0.1,0-0.2-0.1-0.3c-0.1-0.1-0.2-0.1-0.3-0.1
		c-0.1,0-0.1,0-0.2,0c-0.1,0-0.1,0.1-0.2,0.1l-0.1-0.2c0.1-0.1,0.2-0.2,0.3-0.3s0.3-0.2,0.4-0.2c0.2-0.1,0.3-0.1,0.5-0.2
		s0.4-0.1,0.5-0.1c0.3,0,0.5,0,0.7,0.1s0.3,0.2,0.4,0.3s0.1,0.2,0.1,0.4c0,0.1,0,0.2,0,0.3V32.8z"/>
	<path class="st6" d="M83.8,26.9v5.1c0,0.2,0,0.4,0.1,0.5s0.2,0.1,0.4,0.1c0.1,0,0.2,0,0.3-0.1s0.2-0.1,0.2-0.2
		c0.1-0.1,0.2-0.2,0.2-0.3l0.2,0.1c-0.1,0.1-0.1,0.3-0.2,0.5c-0.1,0.2-0.2,0.3-0.4,0.5s-0.3,0.3-0.6,0.4c-0.2,0.1-0.5,0.2-0.9,0.2
		c-0.2,0-0.4,0-0.6-0.1c-0.2-0.1-0.3-0.2-0.5-0.3c-0.1-0.1-0.3-0.3-0.3-0.5s-0.1-0.4-0.1-0.7v-5.1h-0.8v-0.5c0.1,0,0.3,0,0.5-0.1
		s0.5-0.2,0.7-0.3c0.2-0.2,0.5-0.4,0.7-0.6s0.4-0.6,0.4-1h0.5v2h1.1c0.4,0,0.5-0.1,0.5-0.2c0,0,0-0.1-0.1-0.1s-0.1,0-0.2-0.1
		c-0.1,0-0.1-0.1-0.2-0.1S85,25.8,85,25.7c0-0.1,0-0.2,0.1-0.3c0.1-0.1,0.2-0.1,0.3-0.1c0.1,0,0.2,0,0.2,0.1c0.1,0,0.1,0.1,0.2,0.1
		s0.1,0.1,0.1,0.2c0,0.1,0,0.1,0,0.2c0,0.3-0.1,0.5-0.3,0.7c-0.2,0.2-0.4,0.3-0.8,0.3H83.8z"/>
	<path class="st6" d="M88.3,26.8c-0.2,0-0.3,0-0.4,0.1S87.6,27,87.5,27s-0.2,0.1-0.2,0.2s-0.1,0.1-0.1,0.2c0,0.1,0,0.1,0.1,0.1
		c0.1,0,0.1,0.1,0.2,0.1s0.2,0.1,0.2,0.2c0.1,0.1,0.1,0.2,0.1,0.3c0,0.1,0,0.2-0.1,0.3c0,0.1-0.1,0.2-0.2,0.2
		c-0.1,0.1-0.1,0.1-0.2,0.1c-0.1,0-0.2,0.1-0.3,0.1c-0.3,0-0.5-0.1-0.6-0.3c-0.2-0.2-0.2-0.4-0.2-0.7c0-0.3,0.1-0.5,0.2-0.7
		s0.3-0.4,0.6-0.5c0.2-0.1,0.5-0.2,0.8-0.3s0.6-0.1,0.9-0.1c0.4,0,0.7,0,1,0.1s0.6,0.2,0.9,0.4c0.2,0.2,0.4,0.4,0.6,0.6
		c0.1,0.3,0.2,0.6,0.2,0.9v3.9c0,0,0,0.1,0,0.1s0,0.1,0,0.1s0,0.1,0.1,0.1s0.1,0,0.2,0c0.1,0,0.2,0,0.2-0.1c0.1-0.1,0.1-0.1,0.2-0.2
		l0.2,0.1c-0.1,0.1-0.2,0.2-0.2,0.3s-0.2,0.2-0.3,0.3s-0.3,0.2-0.5,0.3s-0.4,0.1-0.6,0.1c-0.3,0-0.5-0.1-0.8-0.3s-0.4-0.4-0.4-0.8
		c-0.1,0.2-0.3,0.4-0.5,0.5c-0.2,0.1-0.3,0.2-0.5,0.3s-0.3,0.1-0.5,0.2c-0.2,0-0.3,0.1-0.5,0.1c-0.2,0-0.4,0-0.6-0.1
		s-0.4-0.2-0.6-0.3c-0.2-0.1-0.3-0.3-0.4-0.6c-0.1-0.2-0.1-0.5-0.1-0.9c0-0.4,0.1-0.8,0.2-1s0.4-0.5,0.6-0.7
		c0.3-0.2,0.6-0.3,0.9-0.5c0.3-0.1,0.7-0.3,1-0.4c0.3-0.1,0.5-0.3,0.6-0.5c0.1-0.2,0.2-0.4,0.2-0.6c0-0.3-0.1-0.6-0.3-0.8
		C88.9,26.9,88.6,26.8,88.3,26.8z M89.3,29.8c0-0.1,0-0.2-0.1-0.3s-0.2-0.1-0.3-0.1c-0.2,0-0.3,0-0.5,0.1c-0.1,0.1-0.3,0.2-0.4,0.3
		s-0.2,0.3-0.3,0.5s-0.1,0.4-0.1,0.7c0,0.3,0,0.5,0.1,0.7c0,0.2,0.1,0.3,0.2,0.4c0.1,0.1,0.1,0.2,0.2,0.2s0.2,0.1,0.3,0.1
		c0.1,0,0.2,0,0.3-0.1s0.2-0.1,0.3-0.2s0.1-0.2,0.2-0.3s0.1-0.2,0.1-0.4V29.8z"/>
	<path class="st6" d="M98.4,26.8c-0.2,0-0.3,0-0.4,0.1S97.7,27,97.6,27s-0.2,0.1-0.2,0.2s-0.1,0.1-0.1,0.2c0,0.1,0,0.1,0.1,0.1
		c0.1,0,0.1,0.1,0.2,0.1s0.2,0.1,0.2,0.2c0.1,0.1,0.1,0.2,0.1,0.3c0,0.1,0,0.2-0.1,0.3c0,0.1-0.1,0.2-0.2,0.2
		c-0.1,0.1-0.1,0.1-0.2,0.1c-0.1,0-0.2,0.1-0.3,0.1c-0.3,0-0.5-0.1-0.6-0.3c-0.2-0.2-0.2-0.4-0.2-0.7c0-0.3,0.1-0.5,0.2-0.7
		s0.3-0.4,0.6-0.5c0.2-0.1,0.5-0.2,0.8-0.3s0.6-0.1,0.9-0.1c0.4,0,0.7,0,1,0.1s0.6,0.2,0.9,0.4c0.2,0.2,0.4,0.4,0.6,0.6
		c0.1,0.3,0.2,0.6,0.2,0.9v3.9c0,0,0,0.1,0,0.1s0,0.1,0,0.1s0,0.1,0.1,0.1s0.1,0,0.2,0c0.1,0,0.2,0,0.2-0.1c0.1-0.1,0.1-0.1,0.2-0.2
		l0.2,0.1c-0.1,0.1-0.2,0.2-0.2,0.3s-0.2,0.2-0.3,0.3s-0.3,0.2-0.5,0.3s-0.4,0.1-0.6,0.1c-0.3,0-0.5-0.1-0.8-0.3s-0.4-0.4-0.4-0.8
		c-0.1,0.2-0.3,0.4-0.5,0.5c-0.2,0.1-0.3,0.2-0.5,0.3s-0.3,0.1-0.5,0.2c-0.2,0-0.3,0.1-0.5,0.1c-0.2,0-0.4,0-0.6-0.1
		s-0.4-0.2-0.6-0.3c-0.2-0.1-0.3-0.3-0.4-0.6c-0.1-0.2-0.1-0.5-0.1-0.9c0-0.4,0.1-0.8,0.2-1s0.4-0.5,0.6-0.7
		c0.3-0.2,0.6-0.3,0.9-0.5c0.3-0.1,0.7-0.3,1-0.4c0.3-0.1,0.5-0.3,0.6-0.5c0.1-0.2,0.2-0.4,0.2-0.6c0-0.3-0.1-0.6-0.3-0.8
		C99,26.9,98.7,26.8,98.4,26.8z M99.5,29.8c0-0.1,0-0.2-0.1-0.3s-0.2-0.1-0.3-0.1c-0.2,0-0.3,0-0.5,0.1c-0.1,0.1-0.3,0.2-0.4,0.3
		S98,30.2,98,30.4s-0.1,0.4-0.1,0.7c0,0.3,0,0.5,0.1,0.7c0,0.2,0.1,0.3,0.2,0.4c0.1,0.1,0.1,0.2,0.2,0.2s0.2,0.1,0.3,0.1
		c0.1,0,0.2,0,0.3-0.1s0.2-0.1,0.3-0.2s0.1-0.2,0.2-0.3s0.1-0.2,0.1-0.4V29.8z"/>
	<path class="st6" d="M103.4,27.5c0-0.1,0-0.2-0.1-0.3c-0.1-0.1-0.2-0.1-0.3-0.1c-0.1,0-0.1,0-0.2,0s-0.1,0.1-0.2,0.1l-0.1-0.2
		c0.1-0.1,0.2-0.2,0.4-0.3c0.1-0.1,0.3-0.2,0.4-0.2s0.3-0.1,0.5-0.2s0.4-0.1,0.5-0.1c0.2,0,0.4,0,0.5,0.1s0.3,0.1,0.4,0.2
		c0.1,0.1,0.2,0.2,0.2,0.3s0.1,0.2,0.1,0.2c0.1-0.1,0.2-0.2,0.3-0.3c0.1-0.1,0.3-0.2,0.4-0.3c0.1-0.1,0.3-0.1,0.5-0.2
		c0.2,0,0.3-0.1,0.5-0.1c0.4,0,0.7,0.1,1,0.2s0.5,0.4,0.8,0.7c0.2,0.3,0.4,0.7,0.5,1.1s0.2,0.9,0.2,1.5c0,0.7-0.1,1.2-0.2,1.7
		c-0.1,0.5-0.3,0.8-0.5,1.1c-0.2,0.3-0.5,0.5-0.8,0.6c-0.3,0.1-0.6,0.2-0.9,0.2c-0.3,0-0.5,0-0.7-0.1c-0.2-0.1-0.4-0.1-0.5-0.2
		s-0.3-0.1-0.3-0.2s-0.2-0.1-0.2-0.2v3.3c0,0.1,0,0.1,0,0.2s-0.1,0.2-0.1,0.2c-0.1,0.1-0.2,0.1-0.3,0.2c-0.1,0.1-0.3,0.1-0.6,0.1
		s-0.4,0-0.6-0.1c-0.1-0.1-0.2-0.1-0.3-0.2s-0.1-0.2-0.1-0.2s0-0.1,0-0.2V27.5z M105.5,31.8c0,0,0,0.1,0,0.2s0.1,0.2,0.2,0.3
		s0.2,0.2,0.3,0.3c0.1,0.1,0.2,0.1,0.4,0.1c0.2,0,0.4-0.1,0.5-0.2s0.3-0.4,0.3-0.6s0.2-0.6,0.2-0.9s0.1-0.7,0.1-1.1
		c0-0.5,0-0.9-0.1-1.2c-0.1-0.3-0.1-0.6-0.2-0.8s-0.2-0.4-0.4-0.5c-0.1-0.1-0.3-0.1-0.5-0.1c-0.1,0-0.2,0-0.3,0.1s-0.2,0.1-0.3,0.2
		c-0.1,0.1-0.1,0.2-0.2,0.3s-0.1,0.2-0.1,0.3V31.8z"/>
	<path class="st6" d="M112.7,30.2c0,0.1,0,0.3,0.1,0.5c0,0.2,0.1,0.3,0.2,0.5s0.2,0.3,0.3,0.5c0.1,0.2,0.3,0.3,0.4,0.4
		c0.2,0.1,0.3,0.2,0.5,0.3s0.4,0.1,0.6,0.1c0.2,0,0.3,0,0.4-0.1s0.3-0.1,0.4-0.2s0.2-0.1,0.3-0.2s0.2-0.2,0.3-0.3l0.2,0.2
		c-0.1,0.1-0.2,0.3-0.4,0.5s-0.4,0.3-0.6,0.5s-0.5,0.3-0.8,0.4s-0.7,0.1-1.1,0.1s-0.8-0.1-1.2-0.2c-0.4-0.1-0.7-0.4-1-0.6
		s-0.5-0.6-0.7-1.1c-0.2-0.4-0.3-0.9-0.3-1.5c0-0.4,0.1-0.8,0.2-1.1s0.2-0.7,0.4-0.9c0.2-0.3,0.4-0.5,0.6-0.7
		c0.2-0.2,0.5-0.4,0.8-0.5s0.5-0.2,0.8-0.3c0.3-0.1,0.5-0.1,0.8-0.1c0.3,0,0.6,0,0.9,0.1s0.5,0.2,0.6,0.3c0.2,0.1,0.3,0.3,0.4,0.4
		s0.1,0.3,0.1,0.5c0,0.2-0.1,0.4-0.2,0.6s-0.3,0.3-0.5,0.4L112.7,30.2z M114.1,28.8c0.1,0,0.1-0.1,0.1-0.1c0,0,0.1-0.1,0.1-0.1
		s0-0.1,0.1-0.2c0-0.1,0-0.2,0-0.3c0-0.1,0-0.2,0-0.4c0-0.1-0.1-0.3-0.1-0.4s-0.1-0.2-0.2-0.3s-0.2-0.1-0.3-0.1
		c-0.2,0-0.3,0-0.4,0.1c-0.1,0.1-0.2,0.2-0.3,0.4c-0.1,0.2-0.1,0.3-0.2,0.5c0,0.2-0.1,0.4-0.1,0.6s0,0.4,0,0.6s0,0.3,0,0.5
		L114.1,28.8z"/>
	<path class="st6" d="M121.5,30c0-0.6,0-1-0.1-1.4c-0.1-0.3-0.1-0.6-0.2-0.8s-0.2-0.3-0.3-0.4s-0.2-0.1-0.3-0.1
		c-0.1,0-0.2,0-0.4,0.1c-0.1,0.1-0.2,0.2-0.3,0.2c-0.1,0.1-0.1,0.2-0.2,0.3c-0.1,0.1-0.1,0.2-0.1,0.2v4.6c0,0.1,0,0.1,0,0.2
		s-0.1,0.2-0.1,0.2c-0.1,0.1-0.2,0.1-0.3,0.2c-0.1,0.1-0.3,0.1-0.6,0.1s-0.4,0-0.6-0.1c-0.1-0.1-0.2-0.1-0.3-0.2s-0.1-0.2-0.1-0.2
		s0-0.1,0-0.2v-5.3c0-0.1,0-0.2-0.1-0.3c-0.1-0.1-0.2-0.1-0.3-0.1c-0.1,0-0.1,0-0.2,0s-0.1,0.1-0.2,0.1l-0.1-0.2
		c0.1-0.1,0.2-0.2,0.4-0.3c0.1-0.1,0.3-0.2,0.4-0.2s0.3-0.1,0.5-0.2s0.4-0.1,0.5-0.1c0.3,0,0.5,0,0.7,0.1s0.3,0.2,0.4,0.4
		s0.1,0.3,0.1,0.4c0,0.1,0,0.3,0,0.4c0.2-0.2,0.4-0.5,0.6-0.6c0.1-0.1,0.2-0.2,0.3-0.2c0.1-0.1,0.2-0.1,0.3-0.2
		c0.1-0.1,0.2-0.1,0.4-0.1c0.1,0,0.3-0.1,0.4-0.1c0.3,0,0.6,0.1,0.8,0.2c0.2,0.1,0.4,0.3,0.6,0.6s0.3,0.6,0.4,1.1s0.1,1,0.1,1.7
		c0,0.7-0.1,1.2-0.2,1.7s-0.3,0.9-0.5,1.2s-0.4,0.6-0.6,0.8s-0.5,0.4-0.7,0.5s-0.5,0.2-0.7,0.3c-0.2,0-0.4,0.1-0.6,0.1l-0.1-0.3
		c0.1,0,0.3-0.1,0.4-0.2c0.1-0.1,0.2-0.2,0.3-0.3s0.2-0.3,0.3-0.5s0.1-0.5,0.2-0.8c0.1-0.3,0.1-0.7,0.1-1.1
		C121.5,31,121.5,30.5,121.5,30z"/>
	<path class="st6" d="M127,26.8c-0.2,0-0.3,0-0.4,0.1s-0.2,0.1-0.3,0.1s-0.2,0.1-0.2,0.2s-0.1,0.1-0.1,0.2c0,0.1,0,0.1,0.1,0.1
		c0.1,0,0.1,0.1,0.2,0.1s0.2,0.1,0.2,0.2c0.1,0.1,0.1,0.2,0.1,0.3c0,0.1,0,0.2-0.1,0.3c0,0.1-0.1,0.2-0.2,0.2
		c-0.1,0.1-0.1,0.1-0.2,0.1c-0.1,0-0.2,0.1-0.3,0.1c-0.3,0-0.5-0.1-0.6-0.3c-0.2-0.2-0.2-0.4-0.2-0.7c0-0.3,0.1-0.5,0.2-0.7
		s0.3-0.4,0.6-0.5c0.2-0.1,0.5-0.2,0.8-0.3s0.6-0.1,0.9-0.1c0.4,0,0.7,0,1,0.1s0.6,0.2,0.9,0.4c0.2,0.2,0.4,0.4,0.6,0.6
		c0.1,0.3,0.2,0.6,0.2,0.9v3.9c0,0,0,0.1,0,0.1s0,0.1,0,0.1s0,0.1,0.1,0.1s0.1,0,0.2,0c0.1,0,0.2,0,0.2-0.1c0.1-0.1,0.1-0.1,0.2-0.2
		l0.2,0.1c-0.1,0.1-0.2,0.2-0.2,0.3s-0.2,0.2-0.3,0.3s-0.3,0.2-0.5,0.3s-0.4,0.1-0.6,0.1c-0.3,0-0.5-0.1-0.8-0.3s-0.4-0.4-0.4-0.8
		c-0.1,0.2-0.3,0.4-0.5,0.5c-0.2,0.1-0.3,0.2-0.5,0.3s-0.3,0.1-0.5,0.2c-0.2,0-0.3,0.1-0.5,0.1c-0.2,0-0.4,0-0.6-0.1
		s-0.4-0.2-0.6-0.3c-0.2-0.1-0.3-0.3-0.4-0.6c-0.1-0.2-0.1-0.5-0.1-0.9c0-0.4,0.1-0.8,0.2-1s0.4-0.5,0.6-0.7
		c0.3-0.2,0.6-0.3,0.9-0.5c0.3-0.1,0.7-0.3,1-0.4c0.3-0.1,0.5-0.3,0.6-0.5c0.1-0.2,0.2-0.4,0.2-0.6c0-0.3-0.1-0.6-0.3-0.8
		C127.6,26.9,127.3,26.8,127,26.8z M128.1,29.8c0-0.1,0-0.2-0.1-0.3s-0.2-0.1-0.3-0.1c-0.2,0-0.3,0-0.5,0.1
		c-0.1,0.1-0.3,0.2-0.4,0.3s-0.2,0.3-0.3,0.5s-0.1,0.4-0.1,0.7c0,0.3,0,0.5,0.1,0.7c0,0.2,0.1,0.3,0.2,0.4c0.1,0.1,0.1,0.2,0.2,0.2
		s0.2,0.1,0.3,0.1c0.1,0,0.2,0,0.3-0.1s0.2-0.1,0.3-0.2s0.1-0.2,0.2-0.3s0.1-0.2,0.1-0.4V29.8z"/>
	<path class="st6" d="M134.1,26.8c-0.1,0-0.2,0-0.3,0c-0.1,0-0.2,0.1-0.2,0.1s-0.1,0.1-0.2,0.2s-0.1,0.2-0.1,0.3
		c0,0.2,0.1,0.4,0.2,0.5c0.1,0.2,0.3,0.4,0.5,0.5c0.2,0.2,0.4,0.4,0.6,0.6c0.2,0.2,0.4,0.4,0.6,0.6c0.2,0.2,0.4,0.5,0.5,0.7
		c0.1,0.3,0.2,0.5,0.2,0.8c0,0.3-0.1,0.6-0.2,0.9c-0.1,0.3-0.3,0.5-0.5,0.6c-0.2,0.2-0.5,0.3-0.8,0.4c-0.3,0.1-0.6,0.1-1,0.1
		c-0.3,0-0.6,0-0.9-0.1s-0.5-0.2-0.7-0.3c-0.2-0.1-0.4-0.3-0.5-0.4s-0.3-0.3-0.3-0.4l0.2-0.2c0.1,0.1,0.1,0.1,0.2,0.2
		s0.2,0.2,0.3,0.2c0.1,0.1,0.2,0.1,0.4,0.2s0.3,0.1,0.4,0.1c0.3,0,0.6-0.1,0.8-0.2s0.3-0.4,0.3-0.7c0-0.2-0.1-0.4-0.2-0.5
		s-0.3-0.4-0.4-0.6s-0.4-0.4-0.6-0.6s-0.4-0.4-0.6-0.6s-0.3-0.5-0.4-0.7s-0.2-0.5-0.2-0.7c0-0.3,0.1-0.5,0.2-0.8
		c0.1-0.2,0.3-0.4,0.5-0.5c0.2-0.1,0.4-0.2,0.7-0.3c0.2-0.1,0.5-0.1,0.8-0.1c0.3,0,0.6,0,0.8,0.1s0.5,0.1,0.6,0.2
		c0.2,0.1,0.3,0.3,0.4,0.4c0.1,0.2,0.1,0.4,0.1,0.6c0,0.2-0.1,0.3-0.2,0.5s-0.3,0.2-0.5,0.2c-0.2,0-0.3,0-0.4-0.1
		c-0.1-0.1-0.2-0.2-0.2-0.3c0-0.1,0-0.2,0.1-0.2c0-0.1,0.1-0.1,0.2-0.1s0.1-0.1,0.2-0.1c0,0,0.1-0.1,0.1-0.1c0-0.1-0.1-0.2-0.2-0.3
		S134.4,26.8,134.1,26.8z"/>
	<path class="st6" d="M146.4,32.2c0,0,0,0.1,0,0.1s0,0.1,0,0.1s0,0.1,0.1,0.1s0.1,0,0.2,0c0.1,0,0.2,0,0.2-0.1s0.1-0.1,0.2-0.2
		l0.2,0.1c-0.1,0.1-0.2,0.2-0.3,0.3c-0.1,0.1-0.2,0.2-0.4,0.3s-0.3,0.2-0.5,0.3s-0.4,0.1-0.6,0.1c-0.2,0-0.4,0-0.5-0.1
		c-0.1-0.1-0.3-0.1-0.4-0.2c-0.1-0.1-0.2-0.2-0.2-0.3s-0.1-0.2-0.1-0.4v-0.3c-0.2,0.2-0.5,0.5-0.7,0.6c-0.1,0.1-0.2,0.2-0.3,0.2
		s-0.3,0.1-0.4,0.2s-0.3,0.1-0.4,0.1s-0.3,0.1-0.4,0.1c-0.3,0-0.5,0-0.7-0.1c-0.2-0.1-0.3-0.2-0.5-0.4s-0.2-0.3-0.3-0.5
		s-0.1-0.4-0.1-0.6v-4.2c0,0,0-0.1,0-0.1s0-0.1,0-0.1s0-0.1-0.1-0.1s-0.1,0-0.2,0c-0.1,0-0.2,0-0.2,0.1c-0.1,0.1-0.1,0.1-0.2,0.2
		l-0.2-0.1c0.1-0.1,0.2-0.2,0.3-0.3c0.1-0.1,0.2-0.2,0.4-0.3s0.3-0.2,0.5-0.3c0.2-0.1,0.4-0.1,0.6-0.1c0.2,0,0.4,0,0.5,0.1
		s0.3,0.1,0.4,0.2s0.2,0.2,0.2,0.3s0.1,0.2,0.1,0.4v4.6c0,0.1,0,0.1,0,0.2c0,0.1,0,0.1,0.1,0.2c0,0.1,0.1,0.1,0.1,0.1
		s0.1,0.1,0.2,0.1c0.1,0,0.3,0,0.4-0.1s0.3-0.1,0.4-0.2s0.2-0.2,0.3-0.3c0.1-0.1,0.1-0.2,0.2-0.2v-4c0,0,0-0.1,0-0.1s0-0.1,0-0.1
		s0-0.1-0.1-0.1s-0.1,0-0.2,0c-0.1,0-0.2,0-0.2,0.1c-0.1,0.1-0.1,0.1-0.2,0.2l-0.2-0.1c0.1-0.1,0.2-0.2,0.3-0.3
		c0.1-0.1,0.2-0.2,0.4-0.3s0.3-0.2,0.5-0.3c0.2-0.1,0.4-0.1,0.6-0.1c0.2,0,0.4,0,0.5,0.1s0.3,0.1,0.4,0.2s0.2,0.2,0.2,0.3
		s0.1,0.2,0.1,0.4V32.2z"/>
	<path class="st6" d="M154,32.8c0,0.1,0,0.1,0,0.2s-0.1,0.2-0.1,0.2c-0.1,0.1-0.2,0.1-0.3,0.2s-0.3,0.1-0.6,0.1s-0.4,0-0.6-0.1
		c-0.1-0.1-0.2-0.1-0.3-0.2c-0.1-0.1-0.1-0.2-0.1-0.2s0-0.1,0-0.2v-4.8c0-0.1,0-0.1,0-0.2s0-0.1-0.1-0.2s-0.1-0.1-0.1-0.1
		s-0.1-0.1-0.2-0.1c-0.1,0-0.2,0-0.4,0.1s-0.2,0.2-0.3,0.2c-0.1,0.1-0.2,0.2-0.3,0.3c-0.1,0.1-0.1,0.2-0.2,0.2v4.6
		c0,0.1,0,0.1,0,0.2s-0.1,0.2-0.1,0.2c-0.1,0.1-0.2,0.1-0.3,0.2c-0.1,0.1-0.3,0.1-0.6,0.1s-0.4,0-0.6-0.1c-0.1-0.1-0.2-0.1-0.3-0.2
		s-0.1-0.2-0.1-0.2s0-0.1,0-0.2v-5.3c0-0.1,0-0.2-0.1-0.3c-0.1-0.1-0.2-0.1-0.3-0.1c-0.1,0-0.1,0-0.2,0s-0.1,0.1-0.2,0.1l-0.1-0.2
		c0.1-0.1,0.2-0.2,0.4-0.3c0.1-0.1,0.3-0.2,0.4-0.2s0.3-0.1,0.5-0.2s0.4-0.1,0.5-0.1c0.3,0,0.5,0,0.7,0.1s0.3,0.2,0.4,0.4
		s0.1,0.3,0.1,0.4c0,0.1,0,0.3,0,0.4c0.2-0.2,0.4-0.5,0.7-0.6c0.1-0.1,0.2-0.2,0.3-0.2c0.1-0.1,0.2-0.1,0.4-0.2s0.3-0.1,0.4-0.1
		s0.3-0.1,0.4-0.1c0.3,0,0.5,0,0.7,0.1s0.3,0.2,0.5,0.3s0.2,0.3,0.2,0.4c0.1,0.1,0.1,0.3,0.1,0.4c0.2-0.2,0.4-0.5,0.7-0.6
		c0.1-0.1,0.2-0.2,0.3-0.2s0.2-0.1,0.4-0.2c0.1-0.1,0.3-0.1,0.4-0.1c0.1,0,0.3-0.1,0.4-0.1c0.3,0,0.5,0,0.7,0.1s0.3,0.2,0.5,0.4
		s0.2,0.3,0.2,0.5c0.1,0.2,0.1,0.4,0.1,0.6v4.2c0,0,0,0.1,0,0.1s0,0.1,0,0.1s0,0.1,0.1,0.1c0,0,0.1,0,0.2,0c0.1,0,0.2,0,0.2-0.1
		s0.1-0.1,0.2-0.2l0.2,0.1c-0.1,0.1-0.1,0.2-0.3,0.3s-0.2,0.2-0.4,0.3c-0.1,0.1-0.3,0.2-0.5,0.3c-0.2,0.1-0.4,0.1-0.6,0.1
		c-0.2,0-0.4,0-0.5-0.1c-0.1-0.1-0.3-0.1-0.4-0.2c-0.1-0.1-0.2-0.2-0.2-0.3s-0.1-0.2-0.1-0.4v-4.6c0-0.1,0-0.1,0-0.2s0-0.1-0.1-0.2
		c0-0.1-0.1-0.1-0.1-0.1s-0.1-0.1-0.2-0.1c-0.1,0-0.2,0-0.4,0.1c-0.1,0.1-0.2,0.2-0.3,0.2c-0.1,0.1-0.2,0.2-0.3,0.3
		s-0.1,0.2-0.2,0.2V32.8z"/>
	<path class="st6" d="M79.7,44.3c0-0.1,0-0.2-0.1-0.3c-0.1-0.1-0.2-0.1-0.3-0.1c-0.1,0-0.1,0-0.2,0s-0.1,0.1-0.2,0.1l-0.1-0.2
		c0.1-0.1,0.2-0.2,0.4-0.3c0.1-0.1,0.3-0.2,0.4-0.2s0.3-0.1,0.5-0.2s0.4-0.1,0.5-0.1c0.2,0,0.4,0,0.5,0.1s0.3,0.1,0.4,0.2
		c0.1,0.1,0.2,0.2,0.2,0.3s0.1,0.2,0.1,0.2c0.1-0.1,0.2-0.2,0.3-0.3c0.1-0.1,0.3-0.2,0.4-0.3c0.1-0.1,0.3-0.1,0.5-0.2
		c0.2,0,0.3-0.1,0.5-0.1c0.4,0,0.7,0.1,1,0.2s0.5,0.4,0.8,0.7c0.2,0.3,0.4,0.7,0.5,1.1s0.2,0.9,0.2,1.5c0,0.7-0.1,1.2-0.2,1.7
		c-0.1,0.5-0.3,0.8-0.5,1.1c-0.2,0.3-0.5,0.5-0.8,0.6c-0.3,0.1-0.6,0.2-0.9,0.2c-0.3,0-0.5,0-0.7-0.1c-0.2-0.1-0.4-0.1-0.5-0.2
		s-0.3-0.1-0.3-0.2s-0.2-0.1-0.2-0.2v3.3c0,0.1,0,0.1,0,0.2s-0.1,0.2-0.1,0.2c-0.1,0.1-0.2,0.1-0.3,0.2c-0.1,0.1-0.3,0.1-0.6,0.1
		s-0.4,0-0.6-0.1c-0.1-0.1-0.2-0.1-0.3-0.2s-0.1-0.2-0.1-0.2s0-0.1,0-0.2V44.3z M81.8,48.6c0,0,0,0.1,0,0.2s0.1,0.2,0.2,0.3
		s0.2,0.2,0.3,0.3c0.1,0.1,0.2,0.1,0.4,0.1c0.2,0,0.4-0.1,0.5-0.2s0.3-0.4,0.3-0.6s0.2-0.6,0.2-0.9s0.1-0.7,0.1-1.1
		c0-0.5,0-0.9-0.1-1.2c-0.1-0.3-0.1-0.6-0.2-0.8s-0.2-0.4-0.4-0.5c-0.1-0.1-0.3-0.1-0.5-0.1c-0.1,0-0.2,0-0.3,0.1s-0.2,0.1-0.3,0.2
		c-0.1,0.1-0.1,0.2-0.2,0.3s-0.1,0.2-0.1,0.3V48.6z"/>
	<path class="st6" d="M89.2,43.6c-0.2,0-0.3,0-0.4,0.1s-0.2,0.1-0.3,0.1s-0.2,0.1-0.2,0.2s-0.1,0.1-0.1,0.2c0,0.1,0,0.1,0.1,0.1
		c0.1,0,0.1,0.1,0.2,0.1s0.2,0.1,0.2,0.2c0.1,0.1,0.1,0.2,0.1,0.3c0,0.1,0,0.2-0.1,0.3c0,0.1-0.1,0.2-0.2,0.2
		c-0.1,0.1-0.1,0.1-0.2,0.1c-0.1,0-0.2,0.1-0.3,0.1c-0.3,0-0.5-0.1-0.6-0.3c-0.2-0.2-0.2-0.4-0.2-0.7c0-0.3,0.1-0.5,0.2-0.7
		s0.3-0.4,0.6-0.5c0.2-0.1,0.5-0.2,0.8-0.3s0.6-0.1,0.9-0.1c0.4,0,0.7,0,1,0.1s0.6,0.2,0.9,0.4c0.2,0.2,0.4,0.4,0.6,0.6
		c0.1,0.3,0.2,0.6,0.2,0.9V49c0,0,0,0.1,0,0.1s0,0.1,0,0.1s0,0.1,0.1,0.1s0.1,0,0.2,0c0.1,0,0.2,0,0.2-0.1c0.1-0.1,0.1-0.1,0.2-0.2
		l0.2,0.1c-0.1,0.1-0.2,0.2-0.2,0.3s-0.2,0.2-0.3,0.3s-0.3,0.2-0.5,0.3s-0.4,0.1-0.6,0.1c-0.3,0-0.5-0.1-0.8-0.3s-0.4-0.4-0.4-0.8
		c-0.1,0.2-0.3,0.4-0.5,0.5c-0.2,0.1-0.3,0.2-0.5,0.3s-0.3,0.1-0.5,0.2c-0.2,0-0.3,0.1-0.5,0.1c-0.2,0-0.4,0-0.6-0.1
		s-0.4-0.2-0.6-0.3c-0.2-0.1-0.3-0.3-0.4-0.6c-0.1-0.2-0.1-0.5-0.1-0.9c0-0.4,0.1-0.8,0.2-1s0.4-0.5,0.6-0.7
		c0.3-0.2,0.6-0.3,0.9-0.5c0.3-0.1,0.7-0.3,1-0.4c0.3-0.1,0.5-0.3,0.6-0.5c0.1-0.2,0.2-0.4,0.2-0.6c0-0.3-0.1-0.6-0.3-0.8
		C89.8,43.7,89.5,43.6,89.2,43.6z M90.3,46.6c0-0.1,0-0.2-0.1-0.3s-0.2-0.1-0.3-0.1c-0.2,0-0.3,0-0.5,0.1c-0.1,0.1-0.3,0.2-0.4,0.3
		s-0.2,0.3-0.3,0.5s-0.1,0.4-0.1,0.7c0,0.3,0,0.5,0.1,0.7c0,0.2,0.1,0.3,0.2,0.4c0.1,0.1,0.1,0.2,0.2,0.2s0.2,0.1,0.3,0.1
		c0.1,0,0.2,0,0.3-0.1s0.2-0.1,0.3-0.2s0.1-0.2,0.2-0.3s0.1-0.2,0.1-0.4V46.6z"/>
	<path class="st6" d="M96.3,43.6c-0.1,0-0.2,0-0.3,0c-0.1,0-0.2,0.1-0.2,0.1s-0.1,0.1-0.2,0.2s-0.1,0.2-0.1,0.3
		c0,0.2,0.1,0.4,0.2,0.5c0.1,0.2,0.3,0.4,0.5,0.5c0.2,0.2,0.4,0.4,0.6,0.6c0.2,0.2,0.4,0.4,0.6,0.6c0.2,0.2,0.4,0.5,0.5,0.7
		c0.1,0.3,0.2,0.5,0.2,0.8c0,0.3-0.1,0.6-0.2,0.9c-0.1,0.3-0.3,0.5-0.5,0.6c-0.2,0.2-0.5,0.3-0.8,0.4c-0.3,0.1-0.6,0.1-1,0.1
		c-0.3,0-0.6,0-0.9-0.1s-0.5-0.2-0.7-0.3c-0.2-0.1-0.4-0.3-0.5-0.4s-0.3-0.3-0.3-0.4l0.2-0.2c0.1,0.1,0.1,0.1,0.2,0.2
		s0.2,0.2,0.3,0.2c0.1,0.1,0.2,0.1,0.4,0.2s0.3,0.1,0.4,0.1c0.3,0,0.6-0.1,0.8-0.2s0.3-0.4,0.3-0.7c0-0.2-0.1-0.4-0.2-0.5
		s-0.3-0.4-0.4-0.6s-0.4-0.4-0.6-0.6s-0.4-0.4-0.6-0.6s-0.3-0.5-0.4-0.7s-0.2-0.5-0.2-0.7c0-0.3,0.1-0.5,0.2-0.8
		c0.1-0.2,0.3-0.4,0.5-0.5c0.2-0.1,0.4-0.2,0.7-0.3c0.2-0.1,0.5-0.1,0.8-0.1c0.3,0,0.6,0,0.8,0.1s0.5,0.1,0.6,0.2
		c0.2,0.1,0.3,0.3,0.4,0.4c0.1,0.2,0.1,0.4,0.1,0.6c0,0.2-0.1,0.3-0.2,0.5s-0.3,0.2-0.5,0.2c-0.2,0-0.3,0-0.4-0.1
		c-0.1-0.1-0.2-0.2-0.2-0.3c0-0.1,0-0.2,0.1-0.2c0-0.1,0.1-0.1,0.2-0.1s0.1-0.1,0.2-0.1c0,0,0.1-0.1,0.1-0.1c0-0.1-0.1-0.2-0.2-0.3
		S96.6,43.6,96.3,43.6z"/>
	<path class="st6" d="M101.5,43.6c-0.1,0-0.2,0-0.3,0c-0.1,0-0.2,0.1-0.3,0.1c-0.1,0.1-0.1,0.1-0.2,0.2s-0.1,0.2-0.1,0.3
		c0,0.2,0.1,0.4,0.2,0.5c0.1,0.2,0.3,0.4,0.5,0.5c0.2,0.2,0.4,0.4,0.6,0.6c0.2,0.2,0.4,0.4,0.6,0.6c0.2,0.2,0.4,0.5,0.5,0.7
		c0.1,0.3,0.2,0.5,0.2,0.8c0,0.3-0.1,0.6-0.2,0.9c-0.1,0.3-0.3,0.5-0.5,0.6c-0.2,0.2-0.5,0.3-0.8,0.4c-0.3,0.1-0.6,0.1-1,0.1
		c-0.3,0-0.6,0-0.9-0.1s-0.5-0.2-0.7-0.3c-0.2-0.1-0.4-0.3-0.5-0.4s-0.3-0.3-0.3-0.4l0.2-0.2c0.1,0.1,0.1,0.1,0.2,0.2
		s0.2,0.2,0.3,0.2c0.1,0.1,0.2,0.1,0.4,0.2s0.3,0.1,0.4,0.1c0.3,0,0.6-0.1,0.8-0.2c0.2-0.2,0.3-0.4,0.3-0.7c0-0.2-0.1-0.4-0.2-0.5
		c-0.1-0.2-0.3-0.4-0.4-0.6s-0.4-0.4-0.6-0.6s-0.4-0.4-0.6-0.6s-0.3-0.5-0.4-0.7s-0.2-0.5-0.2-0.7c0-0.3,0.1-0.5,0.2-0.8
		c0.1-0.2,0.3-0.4,0.5-0.5c0.2-0.1,0.4-0.2,0.7-0.3c0.2-0.1,0.5-0.1,0.8-0.1c0.3,0,0.6,0,0.8,0.1s0.5,0.1,0.6,0.2
		c0.2,0.1,0.3,0.3,0.4,0.4c0.1,0.2,0.1,0.4,0.1,0.6c0,0.2-0.1,0.3-0.2,0.5s-0.3,0.2-0.5,0.2c-0.2,0-0.3,0-0.4-0.1
		c-0.1-0.1-0.2-0.2-0.2-0.3c0-0.1,0-0.2,0.1-0.2c0-0.1,0.1-0.1,0.2-0.1s0.1-0.1,0.2-0.1c0,0,0.1-0.1,0.1-0.1c0-0.1-0.1-0.2-0.2-0.3
		S101.7,43.6,101.5,43.6z"/>
	<path class="st6" d="M104.2,46.7c0-0.6,0.1-1.1,0.3-1.6s0.4-0.8,0.7-1.1c0.3-0.3,0.6-0.5,1-0.7s0.8-0.2,1.2-0.2s0.8,0.1,1.2,0.2
		s0.7,0.4,1,0.6c0.3,0.3,0.5,0.7,0.7,1.1s0.3,1,0.3,1.6c0,0.6-0.1,1.1-0.3,1.6s-0.4,0.8-0.7,1.2c-0.3,0.3-0.6,0.6-1,0.7
		s-0.8,0.2-1.2,0.2s-0.8-0.1-1.2-0.2s-0.7-0.4-1-0.7c-0.3-0.3-0.5-0.7-0.7-1.1S104.2,47.3,104.2,46.7z M108.4,46.6
		c0-0.4,0-0.7,0-1.1c0-0.3-0.1-0.6-0.1-0.9s-0.2-0.5-0.3-0.6s-0.3-0.2-0.5-0.2s-0.4,0.1-0.5,0.2s-0.2,0.4-0.3,0.7s-0.1,0.6-0.1,0.9
		s0,0.7,0,1.1s0,0.7,0,1.1s0.1,0.7,0.1,0.9s0.2,0.5,0.3,0.7s0.3,0.2,0.5,0.2s0.4-0.1,0.5-0.3s0.2-0.4,0.3-0.7s0.1-0.6,0.1-1
		C108.4,47.3,108.4,47,108.4,46.6z"/>
	<path class="st6" d="M115,44.3c0-0.1,0-0.2-0.1-0.3c-0.1-0.1-0.2-0.1-0.3-0.1c-0.1,0-0.1,0-0.2,0s-0.1,0.1-0.2,0.1l-0.1-0.2
		c0.1-0.1,0.2-0.2,0.4-0.3c0.1-0.1,0.3-0.2,0.4-0.2s0.3-0.1,0.5-0.2s0.4-0.1,0.5-0.1c0.2,0,0.4,0,0.5,0.1s0.3,0.1,0.4,0.2
		c0.1,0.1,0.2,0.2,0.2,0.3s0.1,0.2,0.1,0.2c0.1-0.1,0.2-0.2,0.3-0.3c0.1-0.1,0.3-0.2,0.4-0.3c0.1-0.1,0.3-0.1,0.5-0.2
		c0.2,0,0.3-0.1,0.5-0.1c0.4,0,0.7,0.1,1,0.2s0.5,0.4,0.8,0.7c0.2,0.3,0.4,0.7,0.5,1.1s0.2,0.9,0.2,1.5c0,0.7-0.1,1.2-0.2,1.7
		c-0.1,0.5-0.3,0.8-0.5,1.1c-0.2,0.3-0.5,0.5-0.8,0.6c-0.3,0.1-0.6,0.2-0.9,0.2c-0.3,0-0.5,0-0.7-0.1c-0.2-0.1-0.4-0.1-0.5-0.2
		s-0.3-0.1-0.3-0.2s-0.2-0.1-0.2-0.2v3.3c0,0.1,0,0.1,0,0.2s-0.1,0.2-0.1,0.2c-0.1,0.1-0.2,0.1-0.3,0.2c-0.1,0.1-0.3,0.1-0.6,0.1
		s-0.4,0-0.6-0.1c-0.1-0.1-0.2-0.1-0.3-0.2s-0.1-0.2-0.1-0.2s0-0.1,0-0.2V44.3z M117.1,48.6c0,0,0,0.1,0,0.2s0.1,0.2,0.2,0.3
		s0.2,0.2,0.3,0.3c0.1,0.1,0.2,0.1,0.4,0.1c0.2,0,0.4-0.1,0.5-0.2s0.3-0.4,0.3-0.6s0.2-0.6,0.2-0.9s0.1-0.7,0.1-1.1
		c0-0.5,0-0.9-0.1-1.2c-0.1-0.3-0.1-0.6-0.2-0.8s-0.2-0.4-0.4-0.5c-0.1-0.1-0.3-0.1-0.5-0.1c-0.1,0-0.2,0-0.3,0.1s-0.2,0.1-0.3,0.2
		c-0.1,0.1-0.1,0.2-0.2,0.3s-0.1,0.2-0.1,0.3V48.6z"/>
	<path class="st6" d="M124.5,43.6c-0.2,0-0.3,0-0.4,0.1s-0.2,0.1-0.3,0.1s-0.2,0.1-0.2,0.2s-0.1,0.1-0.1,0.2c0,0.1,0,0.1,0.1,0.1
		c0.1,0,0.1,0.1,0.2,0.1s0.2,0.1,0.2,0.2c0.1,0.1,0.1,0.2,0.1,0.3c0,0.1,0,0.2-0.1,0.3c0,0.1-0.1,0.2-0.2,0.2
		c-0.1,0.1-0.1,0.1-0.2,0.1c-0.1,0-0.2,0.1-0.3,0.1c-0.3,0-0.5-0.1-0.6-0.3c-0.2-0.2-0.2-0.4-0.2-0.7c0-0.3,0.1-0.5,0.2-0.7
		s0.3-0.4,0.6-0.5c0.2-0.1,0.5-0.2,0.8-0.3s0.6-0.1,0.9-0.1c0.4,0,0.7,0,1,0.1s0.6,0.2,0.9,0.4c0.2,0.2,0.4,0.4,0.6,0.6
		c0.1,0.3,0.2,0.6,0.2,0.9V49c0,0,0,0.1,0,0.1s0,0.1,0,0.1s0,0.1,0.1,0.1s0.1,0,0.2,0c0.1,0,0.2,0,0.2-0.1c0.1-0.1,0.1-0.1,0.2-0.2
		l0.2,0.1c-0.1,0.1-0.2,0.2-0.2,0.3s-0.2,0.2-0.3,0.3s-0.3,0.2-0.5,0.3s-0.4,0.1-0.6,0.1c-0.3,0-0.5-0.1-0.8-0.3s-0.4-0.4-0.4-0.8
		c-0.1,0.2-0.3,0.4-0.5,0.5c-0.2,0.1-0.3,0.2-0.5,0.3s-0.3,0.1-0.5,0.2c-0.2,0-0.3,0.1-0.5,0.1c-0.2,0-0.4,0-0.6-0.1
		s-0.4-0.2-0.6-0.3c-0.2-0.1-0.3-0.3-0.4-0.6c-0.1-0.2-0.1-0.5-0.1-0.9c0-0.4,0.1-0.8,0.2-1s0.4-0.5,0.6-0.7
		c0.3-0.2,0.6-0.3,0.9-0.5c0.3-0.1,0.7-0.3,1-0.4c0.3-0.1,0.5-0.3,0.6-0.5c0.1-0.2,0.2-0.4,0.2-0.6c0-0.3-0.1-0.6-0.3-0.8
		C125.1,43.7,124.9,43.6,124.5,43.6z M125.6,46.6c0-0.1,0-0.2-0.1-0.3s-0.2-0.1-0.3-0.1c-0.2,0-0.3,0-0.5,0.1
		c-0.1,0.1-0.3,0.2-0.4,0.3s-0.2,0.3-0.3,0.5S124,47.7,124,48c0,0.3,0,0.5,0.1,0.7c0,0.2,0.1,0.3,0.2,0.4c0.1,0.1,0.1,0.2,0.2,0.2
		s0.2,0.1,0.3,0.1c0.1,0,0.2,0,0.3-0.1s0.2-0.1,0.3-0.2s0.1-0.2,0.2-0.3s0.1-0.2,0.1-0.4V46.6z"/>
	<path class="st6" d="M131.7,44.5c0.2-0.3,0.4-0.5,0.6-0.7c0.1-0.1,0.2-0.2,0.3-0.3s0.2-0.2,0.3-0.2c0.1-0.1,0.2-0.1,0.3-0.2
		s0.2-0.1,0.3-0.1c0.2,0,0.4,0.1,0.5,0.2s0.2,0.3,0.2,0.6c0,0.2,0,0.3,0,0.4c0,0.1-0.1,0.3-0.1,0.5h-0.2c0-0.1-0.1-0.3-0.2-0.4
		s-0.2-0.1-0.4-0.1c-0.1,0-0.3,0-0.4,0.1s-0.3,0.1-0.4,0.2c-0.1,0.1-0.3,0.2-0.4,0.3c-0.1,0.1-0.2,0.2-0.3,0.3v4.4
		c0,0.1,0,0.1,0,0.2s-0.1,0.2-0.1,0.2c-0.1,0.1-0.2,0.1-0.3,0.2c-0.1,0.1-0.3,0.1-0.6,0.1s-0.4,0-0.6-0.1c-0.1-0.1-0.2-0.1-0.3-0.2
		s-0.1-0.2-0.1-0.2s0-0.1,0-0.2v-5.3c0-0.1,0-0.2-0.1-0.3c-0.1-0.1-0.2-0.1-0.3-0.1c-0.1,0-0.1,0-0.2,0s-0.1,0.1-0.2,0.1l-0.1-0.2
		c0.1-0.1,0.2-0.2,0.4-0.3c0.1-0.1,0.3-0.2,0.4-0.2s0.3-0.1,0.5-0.2s0.4-0.1,0.5-0.1c0.2,0,0.4,0,0.5,0.1c0.1,0.1,0.3,0.1,0.3,0.2
		c0.1,0.1,0.2,0.2,0.2,0.3s0.1,0.2,0.1,0.3c0,0.1,0,0.2,0,0.3S131.7,44.5,131.7,44.5z"/>
	<path class="st6" d="M136.9,43.6c-0.2,0-0.3,0-0.4,0.1s-0.2,0.1-0.3,0.1s-0.2,0.1-0.2,0.2s-0.1,0.1-0.1,0.2c0,0.1,0,0.1,0.1,0.1
		c0.1,0,0.1,0.1,0.2,0.1s0.2,0.1,0.2,0.2c0.1,0.1,0.1,0.2,0.1,0.3c0,0.1,0,0.2-0.1,0.3c0,0.1-0.1,0.2-0.2,0.2
		c-0.1,0.1-0.1,0.1-0.2,0.1c-0.1,0-0.2,0.1-0.3,0.1c-0.3,0-0.5-0.1-0.6-0.3c-0.2-0.2-0.2-0.4-0.2-0.7c0-0.3,0.1-0.5,0.2-0.7
		s0.3-0.4,0.6-0.5c0.2-0.1,0.5-0.2,0.8-0.3s0.6-0.1,0.9-0.1c0.4,0,0.7,0,1,0.1s0.6,0.2,0.9,0.4c0.2,0.2,0.4,0.4,0.6,0.6
		c0.1,0.3,0.2,0.6,0.2,0.9V49c0,0,0,0.1,0,0.1s0,0.1,0,0.1s0,0.1,0.1,0.1s0.1,0,0.2,0c0.1,0,0.2,0,0.2-0.1c0.1-0.1,0.1-0.1,0.2-0.2
		l0.2,0.1c-0.1,0.1-0.2,0.2-0.2,0.3s-0.2,0.2-0.3,0.3s-0.3,0.2-0.5,0.3s-0.4,0.1-0.6,0.1c-0.3,0-0.5-0.1-0.8-0.3s-0.4-0.4-0.4-0.8
		c-0.1,0.2-0.3,0.4-0.5,0.5c-0.2,0.1-0.3,0.2-0.5,0.3s-0.3,0.1-0.5,0.2c-0.2,0-0.3,0.1-0.5,0.1c-0.2,0-0.4,0-0.6-0.1
		s-0.4-0.2-0.6-0.3c-0.2-0.1-0.3-0.3-0.4-0.6c-0.1-0.2-0.1-0.5-0.1-0.9c0-0.4,0.1-0.8,0.2-1s0.4-0.5,0.6-0.7
		c0.3-0.2,0.6-0.3,0.9-0.5c0.3-0.1,0.7-0.3,1-0.4c0.3-0.1,0.5-0.3,0.6-0.5c0.1-0.2,0.2-0.4,0.2-0.6c0-0.3-0.1-0.6-0.3-0.8
		C137.5,43.7,137.3,43.6,136.9,43.6z M138,46.6c0-0.1,0-0.2-0.1-0.3s-0.2-0.1-0.3-0.1c-0.2,0-0.3,0-0.5,0.1
		c-0.1,0.1-0.3,0.2-0.4,0.3s-0.2,0.3-0.3,0.5s-0.1,0.4-0.1,0.7c0,0.3,0,0.5,0.1,0.7c0,0.2,0.1,0.3,0.2,0.4c0.1,0.1,0.1,0.2,0.2,0.2
		s0.2,0.1,0.3,0.1c0.1,0,0.2,0,0.3-0.1s0.2-0.1,0.3-0.2s0.1-0.2,0.2-0.3s0.1-0.2,0.1-0.4V46.6z"/>
	<path class="st6" d="M85.1,60.5v5.1c0,0.2,0,0.4,0.1,0.5s0.2,0.1,0.4,0.1c0.1,0,0.2,0,0.3-0.1s0.2-0.1,0.2-0.2
		c0.1-0.1,0.2-0.2,0.2-0.3l0.2,0.1c-0.1,0.1-0.1,0.3-0.2,0.5c-0.1,0.2-0.2,0.3-0.4,0.5s-0.3,0.3-0.6,0.4c-0.2,0.1-0.5,0.2-0.9,0.2
		c-0.2,0-0.4,0-0.6-0.1c-0.2-0.1-0.3-0.2-0.5-0.3c-0.1-0.1-0.3-0.3-0.3-0.5S83,65.8,83,65.5v-5.1h-0.8V60c0.1,0,0.3,0,0.5-0.1
		s0.5-0.2,0.7-0.3c0.2-0.2,0.5-0.4,0.7-0.6s0.4-0.6,0.4-1h0.5v2h1.1c0.4,0,0.5-0.1,0.5-0.2c0,0,0-0.1-0.1-0.1s-0.1,0-0.2-0.1
		c-0.1,0-0.1-0.1-0.2-0.1s-0.1-0.1-0.1-0.2c0-0.1,0-0.2,0.1-0.3c0.1-0.1,0.2-0.1,0.3-0.1c0.1,0,0.2,0,0.2,0.1c0.1,0,0.1,0.1,0.2,0.1
		s0.1,0.1,0.1,0.2c0,0.1,0,0.1,0,0.2c0,0.3-0.1,0.5-0.3,0.7c-0.2,0.2-0.4,0.3-0.8,0.3H85.1z"/>
	<path class="st6" d="M89.2,63.8c0,0.1,0,0.3,0.1,0.5c0,0.2,0.1,0.3,0.2,0.5s0.2,0.3,0.3,0.5c0.1,0.2,0.3,0.3,0.4,0.4
		c0.2,0.1,0.3,0.2,0.5,0.3s0.4,0.1,0.6,0.1c0.2,0,0.3,0,0.4-0.1s0.3-0.1,0.4-0.2s0.2-0.1,0.3-0.2s0.2-0.2,0.3-0.3l0.2,0.2
		c-0.1,0.1-0.2,0.3-0.4,0.5s-0.4,0.3-0.6,0.5s-0.5,0.3-0.8,0.4s-0.7,0.1-1.1,0.1S89.4,67,89,66.9c-0.4-0.1-0.7-0.4-1-0.6
		s-0.5-0.6-0.7-1.1c-0.2-0.4-0.3-0.9-0.3-1.5c0-0.4,0.1-0.8,0.2-1.1s0.2-0.7,0.4-0.9c0.2-0.3,0.4-0.5,0.6-0.7
		c0.2-0.2,0.5-0.4,0.8-0.5s0.5-0.2,0.8-0.3c0.3-0.1,0.5-0.1,0.8-0.1c0.3,0,0.6,0,0.9,0.1s0.5,0.2,0.6,0.3c0.2,0.1,0.3,0.3,0.4,0.4
		s0.1,0.3,0.1,0.5c0,0.2-0.1,0.4-0.2,0.6s-0.3,0.3-0.5,0.4L89.2,63.8z M90.6,62.4c0.1,0,0.1-0.1,0.1-0.1c0,0,0.1-0.1,0.1-0.1
		s0-0.1,0.1-0.2c0-0.1,0-0.2,0-0.3c0-0.1,0-0.2,0-0.4c0-0.1-0.1-0.3-0.1-0.4s-0.1-0.2-0.2-0.3s-0.2-0.1-0.3-0.1
		c-0.2,0-0.3,0-0.4,0.1c-0.1,0.1-0.2,0.2-0.3,0.4c-0.1,0.2-0.1,0.3-0.2,0.5c0,0.2-0.1,0.4-0.1,0.6s0,0.4,0,0.6s0,0.3,0,0.5
		L90.6,62.4z"/>
	<path class="st6" d="M96.1,61.3c0.2-0.3,0.4-0.5,0.6-0.7c0.1-0.1,0.2-0.2,0.3-0.3s0.2-0.2,0.3-0.2c0.1-0.1,0.2-0.1,0.3-0.2
		s0.2-0.1,0.3-0.1c0.2,0,0.4,0.1,0.5,0.2s0.2,0.3,0.2,0.6c0,0.2,0,0.3,0,0.4c0,0.1-0.1,0.3-0.1,0.5h-0.2c0-0.1-0.1-0.3-0.2-0.4
		s-0.2-0.1-0.4-0.1c-0.1,0-0.3,0-0.4,0.1s-0.3,0.1-0.4,0.2c-0.1,0.1-0.3,0.2-0.4,0.3c-0.1,0.1-0.2,0.2-0.3,0.3v4.4
		c0,0.1,0,0.1,0,0.2S96,66.7,96,66.8c-0.1,0.1-0.2,0.1-0.3,0.2c-0.1,0.1-0.3,0.1-0.6,0.1s-0.4,0-0.6-0.1c-0.1-0.1-0.2-0.1-0.3-0.2
		s-0.1-0.2-0.1-0.2s0-0.1,0-0.2v-5.3c0-0.1,0-0.2-0.1-0.3c-0.1-0.1-0.2-0.1-0.3-0.1c-0.1,0-0.1,0-0.2,0s-0.1,0.1-0.2,0.1l-0.1-0.2
		c0.1-0.1,0.2-0.2,0.4-0.3c0.1-0.1,0.3-0.2,0.4-0.2s0.3-0.1,0.5-0.2s0.4-0.1,0.5-0.1c0.2,0,0.4,0,0.5,0.1c0.1,0.1,0.3,0.1,0.3,0.2
		c0.1,0.1,0.2,0.2,0.2,0.3s0.1,0.2,0.1,0.3c0,0.1,0,0.2,0,0.3S96.1,61.3,96.1,61.3z"/>
	<path class="st6" d="M105.3,66.4c0,0.1,0,0.1,0,0.2s-0.1,0.2-0.1,0.2c-0.1,0.1-0.2,0.1-0.3,0.2s-0.3,0.1-0.6,0.1s-0.4,0-0.6-0.1
		c-0.1-0.1-0.2-0.1-0.3-0.2c-0.1-0.1-0.1-0.2-0.1-0.2s0-0.1,0-0.2v-4.8c0-0.1,0-0.1,0-0.2s0-0.1-0.1-0.2S103,61,103,61
		s-0.1-0.1-0.2-0.1c-0.1,0-0.2,0-0.4,0.1s-0.2,0.2-0.3,0.2c-0.1,0.1-0.2,0.2-0.3,0.3c-0.1,0.1-0.1,0.2-0.2,0.2v4.6
		c0,0.1,0,0.1,0,0.2s-0.1,0.2-0.1,0.2c-0.1,0.1-0.2,0.1-0.3,0.2c-0.1,0.1-0.3,0.1-0.6,0.1s-0.4,0-0.6-0.1c-0.1-0.1-0.2-0.1-0.3-0.2
		s-0.1-0.2-0.1-0.2s0-0.1,0-0.2v-5.3c0-0.1,0-0.2-0.1-0.3c-0.1-0.1-0.2-0.1-0.3-0.1c-0.1,0-0.1,0-0.2,0s-0.1,0.1-0.2,0.1l-0.1-0.2
		c0.1-0.1,0.2-0.2,0.4-0.3c0.1-0.1,0.3-0.2,0.4-0.2s0.3-0.1,0.5-0.2s0.4-0.1,0.5-0.1c0.3,0,0.5,0,0.7,0.1c0.2,0.1,0.3,0.2,0.4,0.4
		s0.1,0.3,0.1,0.4c0,0.1,0,0.3,0,0.4c0.2-0.2,0.4-0.5,0.7-0.6c0.1-0.1,0.2-0.2,0.3-0.2c0.1-0.1,0.2-0.1,0.4-0.2s0.3-0.1,0.4-0.1
		s0.3-0.1,0.4-0.1c0.3,0,0.5,0,0.7,0.1s0.3,0.2,0.5,0.3s0.2,0.3,0.2,0.4c0.1,0.1,0.1,0.3,0.1,0.4c0.2-0.2,0.4-0.5,0.7-0.6
		c0.1-0.1,0.2-0.2,0.3-0.2s0.2-0.1,0.4-0.2c0.1-0.1,0.3-0.1,0.4-0.1c0.1,0,0.3-0.1,0.4-0.1c0.3,0,0.5,0,0.7,0.1s0.3,0.2,0.5,0.4
		s0.2,0.3,0.2,0.5c0.1,0.2,0.1,0.4,0.1,0.6v4.2c0,0,0,0.1,0,0.1s0,0.1,0,0.1s0,0.1,0.1,0.1c0,0,0.1,0,0.2,0c0.1,0,0.2,0,0.2-0.1
		s0.1-0.1,0.2-0.2l0.2,0.1c-0.1,0.1-0.1,0.2-0.3,0.3s-0.2,0.2-0.4,0.3c-0.1,0.1-0.3,0.2-0.5,0.3c-0.2,0.1-0.4,0.1-0.6,0.1
		c-0.2,0-0.4,0-0.5-0.1c-0.1-0.1-0.3-0.1-0.4-0.2c-0.1-0.1-0.2-0.2-0.2-0.3s-0.1-0.2-0.1-0.4v-4.6c0-0.1,0-0.1,0-0.2s0-0.1-0.1-0.2
		c0-0.1-0.1-0.1-0.1-0.1s-0.1-0.1-0.2-0.1c-0.1,0-0.2,0-0.4,0.1c-0.1,0.1-0.2,0.2-0.3,0.2c-0.1,0.1-0.2,0.2-0.3,0.3
		s-0.1,0.2-0.2,0.2V66.4z"/>
	<path class="st6" d="M113,66.4c0,0.1,0,0.1,0,0.2c0,0.1-0.1,0.2-0.1,0.2c-0.1,0.1-0.2,0.1-0.3,0.2s-0.3,0.1-0.6,0.1s-0.4,0-0.6-0.1
		s-0.2-0.1-0.3-0.2s-0.1-0.2-0.1-0.2c0-0.1,0-0.1,0-0.2v-5.3c0-0.1,0-0.2-0.1-0.3c-0.1-0.1-0.2-0.1-0.3-0.1c-0.1,0-0.1,0-0.2,0
		s-0.1,0.1-0.2,0.1l-0.1-0.2c0.1-0.1,0.2-0.2,0.4-0.3c0.1-0.1,0.3-0.2,0.4-0.2s0.3-0.1,0.5-0.2s0.4-0.1,0.5-0.1c0.3,0,0.5,0,0.7,0.1
		s0.3,0.2,0.4,0.3s0.1,0.2,0.1,0.4c0,0.1,0,0.2,0,0.3V66.4z M110.7,58.3c0-0.1,0-0.2,0.1-0.4c0.1-0.1,0.1-0.2,0.2-0.3
		c0.1-0.1,0.2-0.2,0.4-0.2c0.1-0.1,0.3-0.1,0.4-0.1c0.2,0,0.3,0,0.4,0.1c0.1,0.1,0.3,0.1,0.4,0.2s0.2,0.2,0.2,0.3
		c0.1,0.1,0.1,0.2,0.1,0.4c0,0.1,0,0.3-0.1,0.4c-0.1,0.1-0.1,0.2-0.2,0.3s-0.2,0.2-0.4,0.2c-0.1,0.1-0.3,0.1-0.4,0.1
		c-0.2,0-0.3,0-0.4-0.1c-0.1-0.1-0.3-0.1-0.4-0.2c-0.1-0.1-0.2-0.2-0.2-0.3C110.7,58.6,110.7,58.5,110.7,58.3z"/>
	<path class="st6" d="M118.7,63.6c0-0.6,0-1-0.1-1.4c-0.1-0.3-0.1-0.6-0.2-0.8s-0.2-0.3-0.3-0.4s-0.2-0.1-0.3-0.1
		c-0.1,0-0.2,0-0.4,0.1c-0.1,0.1-0.2,0.2-0.3,0.2c-0.1,0.1-0.1,0.2-0.2,0.3c-0.1,0.1-0.1,0.2-0.1,0.2v4.6c0,0.1,0,0.1,0,0.2
		s-0.1,0.2-0.1,0.2c-0.1,0.1-0.2,0.1-0.3,0.2c-0.1,0.1-0.3,0.1-0.6,0.1s-0.4,0-0.6-0.1c-0.1-0.1-0.2-0.1-0.3-0.2s-0.1-0.2-0.1-0.2
		s0-0.1,0-0.2v-5.3c0-0.1,0-0.2-0.1-0.3c-0.1-0.1-0.2-0.1-0.3-0.1c-0.1,0-0.1,0-0.2,0s-0.1,0.1-0.2,0.1l-0.1-0.2
		c0.1-0.1,0.2-0.2,0.4-0.3c0.1-0.1,0.3-0.2,0.4-0.2s0.3-0.1,0.5-0.2s0.4-0.1,0.5-0.1c0.3,0,0.5,0,0.7,0.1s0.3,0.2,0.4,0.4
		s0.1,0.3,0.1,0.4c0,0.1,0,0.3,0,0.4c0.2-0.2,0.4-0.5,0.6-0.6c0.1-0.1,0.2-0.2,0.3-0.2c0.1-0.1,0.2-0.1,0.3-0.2
		c0.1-0.1,0.2-0.1,0.4-0.1c0.1,0,0.3-0.1,0.4-0.1c0.3,0,0.6,0.1,0.8,0.2c0.2,0.1,0.4,0.3,0.6,0.6s0.3,0.6,0.4,1.1s0.1,1,0.1,1.7
		c0,0.7-0.1,1.2-0.2,1.7s-0.3,0.9-0.5,1.2s-0.4,0.6-0.6,0.8s-0.5,0.4-0.7,0.5s-0.5,0.2-0.7,0.3c-0.2,0-0.4,0.1-0.6,0.1l-0.1-0.3
		c0.1,0,0.3-0.1,0.4-0.2c0.1-0.1,0.2-0.2,0.3-0.3s0.2-0.3,0.3-0.5s0.1-0.5,0.2-0.8c0.1-0.3,0.1-0.7,0.1-1.1
		C118.7,64.6,118.7,64.1,118.7,63.6z"/>
	<path class="st6" d="M124.2,60.4c-0.2,0-0.3,0-0.4,0.1s-0.2,0.1-0.3,0.1s-0.2,0.1-0.2,0.2s-0.1,0.1-0.1,0.2c0,0.1,0,0.1,0.1,0.1
		c0.1,0,0.1,0.1,0.2,0.1s0.2,0.1,0.2,0.2c0.1,0.1,0.1,0.2,0.1,0.3c0,0.1,0,0.2-0.1,0.3c0,0.1-0.1,0.2-0.2,0.2
		c-0.1,0.1-0.1,0.1-0.2,0.1c-0.1,0-0.2,0.1-0.3,0.1c-0.3,0-0.5-0.1-0.6-0.3c-0.2-0.2-0.2-0.4-0.2-0.7c0-0.3,0.1-0.5,0.2-0.7
		s0.3-0.4,0.6-0.5c0.2-0.1,0.5-0.2,0.8-0.3s0.6-0.1,0.9-0.1c0.4,0,0.7,0,1,0.1s0.6,0.2,0.9,0.4c0.2,0.2,0.4,0.4,0.6,0.6
		c0.1,0.3,0.2,0.6,0.2,0.9v3.9c0,0,0,0.1,0,0.1s0,0.1,0,0.1s0,0.1,0.1,0.1s0.1,0,0.2,0c0.1,0,0.2,0,0.2-0.1c0.1-0.1,0.1-0.1,0.2-0.2
		l0.2,0.1c-0.1,0.1-0.2,0.2-0.2,0.3s-0.2,0.2-0.3,0.3s-0.3,0.2-0.5,0.3s-0.4,0.1-0.6,0.1c-0.3,0-0.5-0.1-0.8-0.3s-0.4-0.4-0.4-0.8
		c-0.1,0.2-0.3,0.4-0.5,0.5c-0.2,0.1-0.3,0.2-0.5,0.3s-0.3,0.1-0.5,0.2c-0.2,0-0.3,0.1-0.5,0.1c-0.2,0-0.4,0-0.6-0.1
		s-0.4-0.2-0.6-0.3c-0.2-0.1-0.3-0.3-0.4-0.6c-0.1-0.2-0.1-0.5-0.1-0.9c0-0.4,0.1-0.8,0.2-1s0.4-0.5,0.6-0.7
		c0.3-0.2,0.6-0.3,0.9-0.5c0.3-0.1,0.7-0.3,1-0.4c0.3-0.1,0.5-0.3,0.6-0.5c0.1-0.2,0.2-0.4,0.2-0.6c0-0.3-0.1-0.6-0.3-0.8
		C124.8,60.5,124.6,60.4,124.2,60.4z M125.3,63.4c0-0.1,0-0.2-0.1-0.3s-0.2-0.1-0.3-0.1c-0.2,0-0.3,0-0.5,0.1
		c-0.1,0.1-0.3,0.2-0.4,0.3s-0.2,0.3-0.3,0.5s-0.1,0.4-0.1,0.7c0,0.3,0,0.5,0.1,0.7c0,0.2,0.1,0.3,0.2,0.4c0.1,0.1,0.1,0.2,0.2,0.2
		s0.2,0.1,0.3,0.1c0.1,0,0.2,0,0.3-0.1s0.2-0.1,0.3-0.2s0.1-0.2,0.2-0.3s0.1-0.2,0.1-0.4V63.4z"/>
	<path class="st6" d="M131.4,61.3c0.2-0.3,0.4-0.5,0.6-0.7c0.1-0.1,0.2-0.2,0.3-0.3s0.2-0.2,0.3-0.2c0.1-0.1,0.2-0.1,0.3-0.2
		s0.2-0.1,0.3-0.1c0.2,0,0.4,0.1,0.5,0.2s0.2,0.3,0.2,0.6c0,0.2,0,0.3,0,0.4c0,0.1-0.1,0.3-0.1,0.5h-0.2c0-0.1-0.1-0.3-0.2-0.4
		s-0.2-0.1-0.4-0.1c-0.1,0-0.3,0-0.4,0.1s-0.3,0.1-0.4,0.2c-0.1,0.1-0.3,0.2-0.4,0.3c-0.1,0.1-0.2,0.2-0.3,0.3v4.4
		c0,0.1,0,0.1,0,0.2s-0.1,0.2-0.1,0.2c-0.1,0.1-0.2,0.1-0.3,0.2c-0.1,0.1-0.3,0.1-0.6,0.1s-0.4,0-0.6-0.1c-0.1-0.1-0.2-0.1-0.3-0.2
		s-0.1-0.2-0.1-0.2s0-0.1,0-0.2v-5.3c0-0.1,0-0.2-0.1-0.3c-0.1-0.1-0.2-0.1-0.3-0.1c-0.1,0-0.1,0-0.2,0s-0.1,0.1-0.2,0.1l-0.1-0.2
		c0.1-0.1,0.2-0.2,0.4-0.3c0.1-0.1,0.3-0.2,0.4-0.2s0.3-0.1,0.5-0.2s0.4-0.1,0.5-0.1c0.2,0,0.4,0,0.5,0.1c0.1,0.1,0.3,0.1,0.3,0.2
		c0.1,0.1,0.2,0.2,0.2,0.3s0.1,0.2,0.1,0.3c0,0.1,0,0.2,0,0.3S131.4,61.3,131.4,61.3z"/>
	<path class="st6" d="M134.7,69.3c0.3-0.2,0.5-0.5,0.6-0.8c0.1-0.3,0.2-0.6,0.2-0.8c0-0.3-0.1-0.5-0.2-0.7c-0.1-0.2-0.2-0.4-0.4-0.6
		c-0.1-0.1-0.1-0.2-0.1-0.3c0-0.1,0-0.3,0.1-0.4s0.2-0.3,0.3-0.4c0.1-0.1,0.2-0.2,0.4-0.3s0.3-0.1,0.5-0.1c0.2,0,0.3,0.1,0.4,0.2
		s0.2,0.3,0.3,0.4s0.1,0.3,0.2,0.5s0,0.4,0,0.5c0,0.3-0.1,0.6-0.2,0.9s-0.3,0.6-0.4,0.8c-0.2,0.3-0.4,0.5-0.6,0.7s-0.5,0.4-0.8,0.6
		L134.7,69.3z"/>
	<path class="st6" d="M77.4,79c-0.1,0-0.3,0-0.4-0.1s-0.2-0.1-0.2-0.2s-0.1-0.2-0.1-0.2s0-0.2,0-0.3c0-0.1,0-0.2,0-0.4
		c0-0.1,0-0.2,0-0.3c0-0.1,0-0.2-0.1-0.2s-0.2-0.1-0.3-0.1c-0.2,0-0.3,0-0.5,0.1s-0.3,0.2-0.5,0.4s-0.3,0.4-0.4,0.8
		s-0.1,0.7-0.1,1.1c0,0.5,0,0.9,0.1,1.3c0.1,0.4,0.2,0.7,0.4,1s0.4,0.5,0.7,0.6s0.6,0.2,0.9,0.2c0.2,0,0.3,0,0.5-0.1
		c0.1,0,0.3-0.1,0.4-0.2s0.2-0.1,0.4-0.2c0.1-0.1,0.2-0.2,0.3-0.3l0.2,0.2c-0.1,0.1-0.2,0.3-0.4,0.5s-0.4,0.3-0.6,0.5
		s-0.5,0.3-0.8,0.4s-0.7,0.1-1.1,0.1s-0.8-0.1-1.2-0.2c-0.4-0.2-0.7-0.4-1-0.7s-0.5-0.6-0.7-1.1c-0.2-0.4-0.3-0.9-0.3-1.4
		c0-0.4,0.1-0.8,0.2-1.1s0.2-0.7,0.4-0.9c0.2-0.3,0.4-0.5,0.6-0.7c0.2-0.2,0.5-0.4,0.8-0.5s0.5-0.3,0.8-0.3c0.3-0.1,0.5-0.1,0.8-0.1
		c0.3,0,0.6,0,0.9,0.1s0.5,0.2,0.6,0.3c0.2,0.1,0.3,0.3,0.4,0.4s0.1,0.3,0.1,0.5c0,0.1,0,0.3-0.1,0.4c0,0.1-0.1,0.2-0.2,0.3
		c-0.1,0.1-0.1,0.2-0.2,0.2S77.5,79,77.4,79z"/>
	<path class="st6" d="M79.1,80.3c0-0.6,0.1-1.1,0.3-1.6s0.4-0.8,0.7-1.1c0.3-0.3,0.6-0.5,1-0.7s0.8-0.2,1.2-0.2s0.8,0.1,1.2,0.2
		s0.7,0.4,1,0.6c0.3,0.3,0.5,0.7,0.7,1.1s0.3,1,0.3,1.6c0,0.6-0.1,1.1-0.3,1.6s-0.4,0.8-0.7,1.2c-0.3,0.3-0.6,0.6-1,0.7
		s-0.8,0.2-1.2,0.2s-0.8-0.1-1.2-0.2s-0.7-0.4-1-0.7c-0.3-0.3-0.5-0.7-0.7-1.1S79.1,80.9,79.1,80.3z M83.3,80.2c0-0.4,0-0.7,0-1.1
		c0-0.3-0.1-0.6-0.1-0.9s-0.2-0.5-0.3-0.6s-0.3-0.2-0.5-0.2s-0.4,0.1-0.5,0.2s-0.2,0.4-0.3,0.7s-0.1,0.6-0.1,0.9s0,0.7,0,1.1
		s0,0.7,0,1.1s0.1,0.7,0.1,0.9s0.2,0.5,0.3,0.7s0.3,0.2,0.5,0.2s0.4-0.1,0.5-0.3s0.2-0.4,0.3-0.7s0.1-0.6,0.1-1
		C83.3,80.9,83.3,80.6,83.3,80.2z"/>
	<path class="st6" d="M90.7,80.4c0-0.6,0-1-0.1-1.4c-0.1-0.3-0.1-0.6-0.2-0.8s-0.2-0.3-0.3-0.4s-0.2-0.1-0.3-0.1
		c-0.1,0-0.2,0-0.4,0.1c-0.1,0.1-0.2,0.2-0.3,0.2c-0.1,0.1-0.1,0.2-0.2,0.3c-0.1,0.1-0.1,0.2-0.1,0.2v4.6c0,0.1,0,0.1,0,0.2
		s-0.1,0.2-0.1,0.2c-0.1,0.1-0.2,0.1-0.3,0.2c-0.1,0.1-0.3,0.1-0.6,0.1s-0.4,0-0.6-0.1c-0.1-0.1-0.2-0.1-0.3-0.2s-0.1-0.2-0.1-0.2
		s0-0.1,0-0.2v-5.3c0-0.1,0-0.2-0.1-0.3c-0.1-0.1-0.2-0.1-0.3-0.1c-0.1,0-0.1,0-0.2,0s-0.1,0.1-0.2,0.1l-0.1-0.2
		c0.1-0.1,0.2-0.2,0.4-0.3c0.1-0.1,0.3-0.2,0.4-0.2s0.3-0.1,0.5-0.2s0.4-0.1,0.5-0.1c0.3,0,0.5,0,0.7,0.1s0.3,0.2,0.4,0.4
		s0.1,0.3,0.1,0.4c0,0.1,0,0.3,0,0.4c0.2-0.2,0.4-0.5,0.6-0.6c0.1-0.1,0.2-0.2,0.3-0.2c0.1-0.1,0.2-0.1,0.3-0.2
		c0.1-0.1,0.2-0.1,0.4-0.1c0.1,0,0.3-0.1,0.4-0.1c0.3,0,0.6,0.1,0.8,0.2c0.2,0.1,0.4,0.3,0.6,0.6s0.3,0.6,0.4,1.1s0.1,1,0.1,1.7
		c0,0.7-0.1,1.2-0.2,1.7s-0.3,0.9-0.5,1.2s-0.4,0.6-0.6,0.8s-0.5,0.4-0.7,0.5s-0.5,0.2-0.7,0.3c-0.2,0-0.4,0.1-0.6,0.1l-0.1-0.3
		c0.1,0,0.3-0.1,0.4-0.2c0.1-0.1,0.2-0.2,0.3-0.3s0.2-0.3,0.3-0.5s0.1-0.5,0.2-0.8c0.1-0.3,0.1-0.7,0.1-1.1
		C90.7,81.4,90.7,80.9,90.7,80.4z"/>
	<path class="st6" d="M93.3,76.8h1.3V76c0-0.5,0.1-1,0.3-1.3s0.4-0.6,0.7-0.9s0.6-0.4,1-0.5c0.4-0.1,0.7-0.1,1.1-0.1
		c0.3,0,0.5,0,0.8,0.1c0.3,0,0.5,0.1,0.7,0.2s0.4,0.2,0.5,0.4s0.2,0.4,0.2,0.6c0,0.1,0,0.2-0.1,0.3c0,0.1-0.1,0.2-0.1,0.2
		c-0.1,0.1-0.1,0.1-0.2,0.2c-0.1,0-0.2,0.1-0.3,0.1c-0.1,0-0.2,0-0.2-0.1s-0.1-0.2-0.2-0.3s-0.1-0.2-0.2-0.4s-0.1-0.3-0.2-0.4
		s-0.2-0.2-0.3-0.3c-0.1-0.1-0.2-0.1-0.4-0.1c-0.1,0-0.3,0-0.4,0.1s-0.2,0.1-0.3,0.2s-0.2,0.3-0.2,0.5s-0.1,0.5-0.1,0.8v1.6h2.8
		c0.3,0,0.5,0,0.7,0.1s0.3,0.2,0.4,0.3s0.1,0.2,0.1,0.4c0,0.1,0,0.2,0,0.3v5.3c0,0.1,0,0.1,0,0.2c0,0.1-0.1,0.2-0.1,0.2
		c-0.1,0.1-0.2,0.1-0.3,0.2c-0.1,0-0.3,0.1-0.6,0.1s-0.4,0-0.6-0.1s-0.2-0.1-0.3-0.2c-0.1-0.1-0.1-0.2-0.1-0.2c0-0.1,0-0.1,0-0.2
		v-5.4c0-0.1,0-0.2-0.1-0.3c-0.1-0.1-0.2-0.1-0.3-0.1h-1.5v5.4c0,0.6-0.1,1.2-0.2,1.7c-0.2,0.5-0.4,1-0.7,1.4s-0.7,0.7-1.2,0.9
		s-1.1,0.3-1.7,0.3c-0.2,0-0.5,0-0.7-0.1s-0.4-0.1-0.6-0.2s-0.3-0.1-0.4-0.2C91,86.4,91,86.3,91,86.2c0-0.1,0-0.2,0-0.2
		s0.1-0.2,0.1-0.2s0.1-0.1,0.2-0.2c0.1,0,0.1-0.1,0.2-0.1c0,0,0.1,0,0.1,0.1c0,0.1,0.1,0.1,0.1,0.2s0.1,0.2,0.1,0.2
		c0.1,0.1,0.1,0.2,0.2,0.2s0.2,0.1,0.3,0.2c0.1,0.1,0.3,0.1,0.4,0.1c0.2,0,0.4,0,0.6-0.1s0.3-0.2,0.5-0.4s0.2-0.4,0.3-0.6
		s0.2-0.5,0.2-0.7s0.1-0.5,0.1-0.8c0-0.3,0-0.6,0-0.8v-5.7h-1.3V76.8z"/>
	<path class="st6" d="M104.6,78.1c0.2-0.3,0.4-0.5,0.6-0.7c0.1-0.1,0.2-0.2,0.3-0.3s0.2-0.2,0.3-0.2c0.1-0.1,0.2-0.1,0.3-0.2
		s0.2-0.1,0.3-0.1c0.2,0,0.4,0.1,0.5,0.2s0.2,0.3,0.2,0.6c0,0.2,0,0.3,0,0.4c0,0.1-0.1,0.3-0.1,0.5h-0.2c0-0.1-0.1-0.3-0.2-0.4
		s-0.2-0.1-0.4-0.1c-0.1,0-0.3,0-0.4,0.1s-0.3,0.1-0.4,0.2c-0.1,0.1-0.3,0.2-0.4,0.3c-0.1,0.1-0.2,0.2-0.3,0.3v4.4
		c0,0.1,0,0.1,0,0.2s-0.1,0.2-0.1,0.2c-0.1,0.1-0.2,0.1-0.3,0.2c-0.1,0.1-0.3,0.1-0.6,0.1s-0.4,0-0.6-0.1c-0.1-0.1-0.2-0.1-0.3-0.2
		s-0.1-0.2-0.1-0.2s0-0.1,0-0.2v-5.3c0-0.1,0-0.2-0.1-0.3c-0.1-0.1-0.2-0.1-0.3-0.1c-0.1,0-0.1,0-0.2,0s-0.1,0.1-0.2,0.1l-0.1-0.2
		c0.1-0.1,0.2-0.2,0.4-0.3c0.1-0.1,0.3-0.2,0.4-0.2s0.3-0.1,0.5-0.2s0.4-0.1,0.5-0.1c0.2,0,0.4,0,0.5,0.1c0.1,0.1,0.3,0.1,0.3,0.2
		c0.1,0.1,0.2,0.2,0.2,0.3s0.1,0.2,0.1,0.3c0,0.1,0,0.2,0,0.3S104.6,78.1,104.6,78.1z"/>
	<path class="st6" d="M113.8,83.2c0,0.1,0,0.1,0,0.2s-0.1,0.2-0.1,0.2c-0.1,0.1-0.2,0.1-0.3,0.2s-0.3,0.1-0.6,0.1s-0.4,0-0.6-0.1
		c-0.1-0.1-0.2-0.1-0.3-0.2c-0.1-0.1-0.1-0.2-0.1-0.2s0-0.1,0-0.2v-4.8c0-0.1,0-0.1,0-0.2s0-0.1-0.1-0.2s-0.1-0.1-0.1-0.1
		s-0.1-0.1-0.2-0.1c-0.1,0-0.2,0-0.4,0.1s-0.2,0.2-0.3,0.2c-0.1,0.1-0.2,0.2-0.3,0.3c-0.1,0.1-0.1,0.2-0.2,0.2v4.6
		c0,0.1,0,0.1,0,0.2s-0.1,0.2-0.1,0.2c-0.1,0.1-0.2,0.1-0.3,0.2c-0.1,0.1-0.3,0.1-0.6,0.1s-0.4,0-0.6-0.1c-0.1-0.1-0.2-0.1-0.3-0.2
		s-0.1-0.2-0.1-0.2s0-0.1,0-0.2v-5.3c0-0.1,0-0.2-0.1-0.3c-0.1-0.1-0.2-0.1-0.3-0.1c-0.1,0-0.1,0-0.2,0s-0.1,0.1-0.2,0.1l-0.1-0.2
		c0.1-0.1,0.2-0.2,0.4-0.3c0.1-0.1,0.3-0.2,0.4-0.2s0.3-0.1,0.5-0.2s0.4-0.1,0.5-0.1c0.3,0,0.5,0,0.7,0.1s0.3,0.2,0.4,0.4
		s0.1,0.3,0.1,0.4c0,0.1,0,0.3,0,0.4c0.2-0.2,0.4-0.5,0.7-0.6c0.1-0.1,0.2-0.2,0.3-0.2c0.1-0.1,0.2-0.1,0.4-0.2s0.3-0.1,0.4-0.1
		s0.3-0.1,0.4-0.1c0.3,0,0.5,0,0.7,0.1s0.3,0.2,0.5,0.3s0.2,0.3,0.2,0.4c0.1,0.1,0.1,0.3,0.1,0.4c0.2-0.2,0.4-0.5,0.7-0.6
		c0.1-0.1,0.2-0.2,0.3-0.2s0.2-0.1,0.4-0.2c0.1-0.1,0.3-0.1,0.4-0.1c0.1,0,0.3-0.1,0.4-0.1c0.3,0,0.5,0,0.7,0.1s0.3,0.2,0.5,0.4
		s0.2,0.3,0.2,0.5c0.1,0.2,0.1,0.4,0.1,0.6v4.2c0,0,0,0.1,0,0.1s0,0.1,0,0.1s0,0.1,0.1,0.1c0,0,0.1,0,0.2,0c0.1,0,0.2,0,0.2-0.1
		s0.1-0.1,0.2-0.2l0.2,0.1c-0.1,0.1-0.1,0.2-0.3,0.3s-0.2,0.2-0.4,0.3c-0.1,0.1-0.3,0.2-0.5,0.3c-0.2,0.1-0.4,0.1-0.6,0.1
		c-0.2,0-0.4,0-0.5-0.1c-0.1-0.1-0.3-0.1-0.4-0.2c-0.1-0.1-0.2-0.2-0.2-0.3s-0.1-0.2-0.1-0.4v-4.6c0-0.1,0-0.1,0-0.2s0-0.1-0.1-0.2
		c0-0.1-0.1-0.1-0.1-0.1s-0.1-0.1-0.2-0.1c-0.1,0-0.2,0-0.4,0.1c-0.1,0.1-0.2,0.2-0.3,0.2c-0.1,0.1-0.2,0.2-0.3,0.3
		s-0.1,0.2-0.2,0.2V83.2z"/>
	<path class="st6" d="M121,80.6c0,0.1,0,0.3,0.1,0.5c0,0.2,0.1,0.3,0.2,0.5s0.2,0.3,0.3,0.5c0.1,0.2,0.3,0.3,0.4,0.4
		c0.2,0.1,0.3,0.2,0.5,0.3s0.4,0.1,0.6,0.1c0.2,0,0.3,0,0.4-0.1s0.3-0.1,0.4-0.2s0.2-0.1,0.3-0.2s0.2-0.2,0.3-0.3l0.2,0.2
		c-0.1,0.1-0.2,0.3-0.4,0.5s-0.4,0.3-0.6,0.5s-0.5,0.3-0.8,0.4s-0.7,0.1-1.1,0.1s-0.8-0.1-1.2-0.2c-0.4-0.1-0.7-0.4-1-0.6
		s-0.5-0.6-0.7-1.1c-0.2-0.4-0.3-0.9-0.3-1.5c0-0.4,0.1-0.8,0.2-1.1s0.2-0.7,0.4-0.9c0.2-0.3,0.4-0.5,0.6-0.7
		c0.2-0.2,0.5-0.4,0.8-0.5s0.5-0.2,0.8-0.3c0.3-0.1,0.5-0.1,0.8-0.1c0.3,0,0.6,0,0.9,0.1s0.5,0.2,0.6,0.3c0.2,0.1,0.3,0.3,0.4,0.4
		s0.1,0.3,0.1,0.5c0,0.2-0.1,0.4-0.2,0.6s-0.3,0.3-0.5,0.4L121,80.6z M122.4,79.2c0.1,0,0.1-0.1,0.1-0.1c0,0,0.1-0.1,0.1-0.1
		s0-0.1,0.1-0.2c0-0.1,0-0.2,0-0.3c0-0.1,0-0.2,0-0.4c0-0.1-0.1-0.3-0.1-0.4s-0.1-0.2-0.2-0.3s-0.2-0.1-0.3-0.1
		c-0.2,0-0.3,0-0.4,0.1c-0.1,0.1-0.2,0.2-0.3,0.4c-0.1,0.2-0.1,0.3-0.2,0.5c0,0.2-0.1,0.4-0.1,0.6s0,0.4,0,0.6s0,0.3,0,0.5
		L122.4,79.2z"/>
	<path class="st6" d="M131.1,77.2c-0.1,0-0.2,0-0.3,0c-0.1,0-0.2,0.1-0.2,0.1s-0.1,0.1-0.2,0.2s-0.1,0.2-0.1,0.3
		c0,0.2,0.1,0.4,0.2,0.5c0.1,0.2,0.3,0.4,0.5,0.5c0.2,0.2,0.4,0.4,0.6,0.6c0.2,0.2,0.4,0.4,0.6,0.6c0.2,0.2,0.4,0.5,0.5,0.7
		c0.1,0.3,0.2,0.5,0.2,0.8c0,0.3-0.1,0.6-0.2,0.9c-0.1,0.3-0.3,0.5-0.5,0.6c-0.2,0.2-0.5,0.3-0.8,0.4c-0.3,0.1-0.6,0.1-1,0.1
		c-0.3,0-0.6,0-0.9-0.1s-0.5-0.2-0.7-0.3c-0.2-0.1-0.4-0.3-0.5-0.4s-0.3-0.3-0.3-0.4l0.2-0.2c0.1,0.1,0.1,0.1,0.2,0.2
		s0.2,0.2,0.3,0.2c0.1,0.1,0.2,0.1,0.4,0.2s0.3,0.1,0.4,0.1c0.3,0,0.6-0.1,0.8-0.2s0.3-0.4,0.3-0.7c0-0.2-0.1-0.4-0.2-0.5
		s-0.3-0.4-0.4-0.6s-0.4-0.4-0.6-0.6s-0.4-0.4-0.6-0.6s-0.3-0.5-0.4-0.7s-0.2-0.5-0.2-0.7c0-0.3,0.1-0.5,0.2-0.8
		c0.1-0.2,0.3-0.4,0.5-0.5c0.2-0.1,0.4-0.2,0.7-0.3c0.2-0.1,0.5-0.1,0.8-0.1c0.3,0,0.6,0,0.8,0.1s0.5,0.1,0.6,0.2
		c0.2,0.1,0.3,0.3,0.4,0.4c0.1,0.2,0.1,0.4,0.1,0.6c0,0.2-0.1,0.3-0.2,0.5s-0.3,0.2-0.5,0.2c-0.2,0-0.3,0-0.4-0.1
		c-0.1-0.1-0.2-0.2-0.2-0.3c0-0.1,0-0.2,0.1-0.2c0-0.1,0.1-0.1,0.2-0.1s0.1-0.1,0.2-0.1c0,0,0.1-0.1,0.1-0.1c0-0.1-0.1-0.2-0.2-0.3
		S131.3,77.2,131.1,77.2z"/>
	<path class="st6" d="M135.9,80.6c0,0.1,0,0.3,0.1,0.5c0,0.2,0.1,0.3,0.2,0.5s0.2,0.3,0.3,0.5c0.1,0.2,0.3,0.3,0.4,0.4
		c0.2,0.1,0.3,0.2,0.5,0.3s0.4,0.1,0.6,0.1c0.2,0,0.3,0,0.4-0.1s0.3-0.1,0.4-0.2s0.2-0.1,0.3-0.2s0.2-0.2,0.3-0.3l0.2,0.2
		c-0.1,0.1-0.2,0.3-0.4,0.5s-0.4,0.3-0.6,0.5s-0.5,0.3-0.8,0.4s-0.7,0.1-1.1,0.1s-0.8-0.1-1.2-0.2c-0.4-0.1-0.7-0.4-1-0.6
		s-0.5-0.6-0.7-1.1c-0.2-0.4-0.3-0.9-0.3-1.5c0-0.4,0.1-0.8,0.2-1.1s0.2-0.7,0.4-0.9c0.2-0.3,0.4-0.5,0.6-0.7
		c0.2-0.2,0.5-0.4,0.8-0.5s0.5-0.2,0.8-0.3c0.3-0.1,0.5-0.1,0.8-0.1c0.3,0,0.6,0,0.9,0.1s0.5,0.2,0.6,0.3c0.2,0.1,0.3,0.3,0.4,0.4
		s0.1,0.3,0.1,0.5c0,0.2-0.1,0.4-0.2,0.6s-0.3,0.3-0.5,0.4L135.9,80.6z M137.3,79.2c0.1,0,0.1-0.1,0.1-0.1c0,0,0.1-0.1,0.1-0.1
		s0-0.1,0.1-0.2c0-0.1,0-0.2,0-0.3c0-0.1,0-0.2,0-0.4c0-0.1-0.1-0.3-0.1-0.4s-0.1-0.2-0.2-0.3s-0.2-0.1-0.3-0.1
		c-0.2,0-0.3,0-0.4,0.1c-0.1,0.1-0.2,0.2-0.3,0.4c-0.1,0.2-0.1,0.3-0.2,0.5c0,0.2-0.1,0.4-0.1,0.6s0,0.4,0,0.6s0,0.3,0,0.5
		L137.3,79.2z"/>
	<path class="st6" d="M146.6,82.6c0,0,0,0.1,0,0.1s0,0.1,0,0.1s0,0.1,0.1,0.1s0.1,0,0.2,0c0.1,0,0.2,0,0.2-0.1s0.1-0.1,0.2-0.2
		l0.2,0.1c-0.1,0.1-0.2,0.2-0.3,0.3c-0.1,0.1-0.2,0.2-0.4,0.3s-0.3,0.2-0.5,0.3s-0.4,0.1-0.6,0.1c-0.2,0-0.4,0-0.5-0.1
		c-0.1-0.1-0.3-0.1-0.4-0.2c-0.1-0.1-0.2-0.2-0.2-0.3s-0.1-0.2-0.1-0.4v-0.3c-0.2,0.2-0.5,0.5-0.7,0.6c-0.1,0.1-0.2,0.2-0.3,0.2
		s-0.3,0.1-0.4,0.2s-0.3,0.1-0.4,0.1s-0.3,0.1-0.4,0.1c-0.3,0-0.5,0-0.7-0.1c-0.2-0.1-0.3-0.2-0.5-0.4s-0.2-0.3-0.3-0.5
		s-0.1-0.4-0.1-0.6V78c0,0,0-0.1,0-0.1s0-0.1,0-0.1s0-0.1-0.1-0.1s-0.1,0-0.2,0c-0.1,0-0.2,0-0.2,0.1c-0.1,0.1-0.1,0.1-0.2,0.2
		l-0.2-0.1c0.1-0.1,0.2-0.2,0.3-0.3c0.1-0.1,0.2-0.2,0.4-0.3s0.3-0.2,0.5-0.3c0.2-0.1,0.4-0.1,0.6-0.1c0.2,0,0.4,0,0.5,0.1
		s0.3,0.1,0.4,0.2s0.2,0.2,0.2,0.3s0.1,0.2,0.1,0.4v4.6c0,0.1,0,0.1,0,0.2c0,0.1,0,0.1,0.1,0.2c0,0.1,0.1,0.1,0.1,0.1
		s0.1,0.1,0.2,0.1c0.1,0,0.3,0,0.4-0.1s0.3-0.1,0.4-0.2s0.2-0.2,0.3-0.3c0.1-0.1,0.1-0.2,0.2-0.2v-4c0,0,0-0.1,0-0.1s0-0.1,0-0.1
		s0-0.1-0.1-0.1s-0.1,0-0.2,0c-0.1,0-0.2,0-0.2,0.1c-0.1,0.1-0.1,0.1-0.2,0.2l-0.2-0.1c0.1-0.1,0.2-0.2,0.3-0.3
		c0.1-0.1,0.2-0.2,0.4-0.3s0.3-0.2,0.5-0.3c0.2-0.1,0.4-0.1,0.6-0.1c0.2,0,0.4,0,0.5,0.1s0.3,0.1,0.4,0.2s0.2,0.2,0.2,0.3
		s0.1,0.2,0.1,0.4V82.6z"/>
	<path class="st6" d="M81.2,95.8c-0.1,0-0.3,0-0.4-0.1s-0.2-0.1-0.2-0.2s-0.1-0.2-0.1-0.2s0-0.2,0-0.3c0-0.1,0-0.2,0-0.4
		c0-0.1,0-0.2,0-0.3c0-0.1,0-0.2-0.1-0.2s-0.2-0.1-0.3-0.1c-0.2,0-0.3,0-0.5,0.1s-0.3,0.2-0.5,0.4s-0.3,0.4-0.4,0.8
		s-0.1,0.7-0.1,1.1c0,0.5,0,0.9,0.1,1.3c0.1,0.4,0.2,0.7,0.4,1s0.4,0.5,0.7,0.6s0.6,0.2,0.9,0.2c0.2,0,0.3,0,0.5-0.1
		c0.1,0,0.3-0.1,0.4-0.2s0.2-0.1,0.4-0.2c0.1-0.1,0.2-0.2,0.3-0.3l0.2,0.2c-0.1,0.1-0.2,0.3-0.4,0.5s-0.4,0.3-0.6,0.5
		s-0.5,0.3-0.8,0.4s-0.7,0.1-1.1,0.1s-0.8-0.1-1.2-0.2c-0.4-0.2-0.7-0.4-1-0.7s-0.5-0.6-0.7-1.1c-0.2-0.4-0.3-0.9-0.3-1.4
		c0-0.4,0.1-0.8,0.2-1.1s0.2-0.7,0.4-0.9c0.2-0.3,0.4-0.5,0.6-0.7c0.2-0.2,0.5-0.4,0.8-0.5s0.5-0.3,0.8-0.3c0.3-0.1,0.5-0.1,0.8-0.1
		c0.3,0,0.6,0,0.9,0.1s0.5,0.2,0.6,0.3c0.2,0.1,0.3,0.3,0.4,0.4s0.1,0.3,0.1,0.5c0,0.1,0,0.3-0.1,0.4c0,0.1-0.1,0.2-0.2,0.3
		c-0.1,0.1-0.1,0.2-0.2,0.2S81.3,95.8,81.2,95.8z"/>
	<path class="st6" d="M85.3,94c-0.2,0-0.3,0-0.4,0.1s-0.2,0.1-0.3,0.1s-0.2,0.1-0.2,0.2s-0.1,0.1-0.1,0.2c0,0.1,0,0.1,0.1,0.1
		c0.1,0,0.1,0.1,0.2,0.1s0.2,0.1,0.2,0.2c0.1,0.1,0.1,0.2,0.1,0.3c0,0.1,0,0.2-0.1,0.3c0,0.1-0.1,0.2-0.2,0.2
		c-0.1,0.1-0.1,0.1-0.2,0.1c-0.1,0-0.2,0.1-0.3,0.1c-0.3,0-0.5-0.1-0.6-0.3c-0.2-0.2-0.2-0.4-0.2-0.7c0-0.3,0.1-0.5,0.2-0.7
		s0.3-0.4,0.6-0.5c0.2-0.1,0.5-0.2,0.8-0.3s0.6-0.1,0.9-0.1c0.4,0,0.7,0,1,0.1s0.6,0.2,0.9,0.4c0.2,0.2,0.4,0.4,0.6,0.6
		c0.1,0.3,0.2,0.6,0.2,0.9v3.9c0,0,0,0.1,0,0.1s0,0.1,0,0.1s0,0.1,0.1,0.1s0.1,0,0.2,0c0.1,0,0.2,0,0.2-0.1c0.1-0.1,0.1-0.1,0.2-0.2
		l0.2,0.1c-0.1,0.1-0.2,0.2-0.2,0.3s-0.2,0.2-0.3,0.3s-0.3,0.2-0.5,0.3s-0.4,0.1-0.6,0.1c-0.3,0-0.5-0.1-0.8-0.3s-0.4-0.4-0.4-0.8
		c-0.1,0.2-0.3,0.4-0.5,0.5c-0.2,0.1-0.3,0.2-0.5,0.3s-0.3,0.1-0.5,0.2c-0.2,0-0.3,0.1-0.5,0.1c-0.2,0-0.4,0-0.6-0.1
		s-0.4-0.2-0.6-0.3c-0.2-0.1-0.3-0.3-0.4-0.6c-0.1-0.2-0.1-0.5-0.1-0.9c0-0.4,0.1-0.8,0.2-1s0.4-0.5,0.6-0.7
		c0.3-0.2,0.6-0.3,0.9-0.5c0.3-0.1,0.7-0.3,1-0.4c0.3-0.1,0.5-0.3,0.6-0.5c0.1-0.2,0.2-0.4,0.2-0.6c0-0.3-0.1-0.6-0.3-0.8
		C85.9,94.1,85.6,94,85.3,94z M86.4,97c0-0.1,0-0.2-0.1-0.3s-0.2-0.1-0.3-0.1c-0.2,0-0.3,0-0.5,0.1c-0.1,0.1-0.3,0.2-0.4,0.3
		s-0.2,0.3-0.3,0.5s-0.1,0.4-0.1,0.7c0,0.3,0,0.5,0.1,0.7c0,0.2,0.1,0.3,0.2,0.4c0.1,0.1,0.1,0.2,0.2,0.2s0.2,0.1,0.3,0.1
		c0.1,0,0.2,0,0.3-0.1s0.2-0.1,0.3-0.2s0.1-0.2,0.2-0.3s0.1-0.2,0.1-0.4V97z"/>
	<path class="st6" d="M94,93.9c-0.1-0.5-0.2-0.9-0.4-1.3s-0.3-0.7-0.6-1c-0.2-0.3-0.5-0.5-0.7-0.7c-0.3-0.2-0.6-0.2-0.9-0.2
		c-0.2,0-0.3,0-0.5,0.1c-0.1,0-0.3,0.1-0.4,0.2S90.4,91,90.3,91c-0.1,0.1-0.1,0.1-0.2,0.1L90,90.9c0.1-0.1,0.2-0.3,0.4-0.4
		c0.2-0.1,0.3-0.2,0.5-0.3s0.4-0.2,0.6-0.2c0.2-0.1,0.4-0.1,0.6-0.1c0.7,0,1.3,0.1,1.8,0.4s0.9,0.7,1.3,1.2s0.6,1.2,0.8,1.9
		s0.3,1.6,0.3,2.5c0,0.8-0.1,1.4-0.2,2c-0.2,0.6-0.4,1-0.7,1.4s-0.6,0.7-1,0.9c-0.4,0.2-0.9,0.3-1.4,0.3c-0.4,0-0.7-0.1-1.1-0.2
		c-0.4-0.1-0.7-0.3-1-0.6c-0.3-0.3-0.5-0.7-0.7-1.1s-0.3-1-0.3-1.7c0-0.6,0.1-1.1,0.2-1.5c0.2-0.4,0.4-0.8,0.7-1.1s0.6-0.5,1-0.7
		s0.7-0.2,1.1-0.2c0.2,0,0.3,0,0.4,0s0.2,0.1,0.3,0.1s0.2,0.1,0.2,0.1S93.9,93.8,94,93.9z M94.1,96.9c0-0.1,0-0.2,0-0.3s0-0.3,0-0.5
		s0-0.4,0-0.6S94,95,93.9,94.8c-0.1-0.1-0.2-0.3-0.4-0.4c-0.1-0.1-0.3-0.2-0.5-0.2c-0.4,0-0.6,0.2-0.8,0.7c-0.2,0.5-0.2,1.2-0.2,2.2
		c0,0.4,0,0.8,0.1,1.2c0,0.4,0.1,0.7,0.2,0.9c0.1,0.3,0.2,0.5,0.3,0.6c0.1,0.1,0.3,0.2,0.4,0.2C93.7,100,94.1,98.9,94.1,96.9z"/>
	<path class="st6" d="M99.3,94c-0.2,0-0.3,0-0.4,0.1s-0.2,0.1-0.3,0.1s-0.2,0.1-0.2,0.2s-0.1,0.1-0.1,0.2c0,0.1,0,0.1,0.1,0.1
		c0.1,0,0.1,0.1,0.2,0.1s0.2,0.1,0.2,0.2c0.1,0.1,0.1,0.2,0.1,0.3c0,0.1,0,0.2-0.1,0.3c0,0.1-0.1,0.2-0.2,0.2
		c-0.1,0.1-0.1,0.1-0.2,0.1c-0.1,0-0.2,0.1-0.3,0.1c-0.3,0-0.5-0.1-0.6-0.3c-0.2-0.2-0.2-0.4-0.2-0.7c0-0.3,0.1-0.5,0.2-0.7
		s0.3-0.4,0.6-0.5c0.2-0.1,0.5-0.2,0.8-0.3s0.6-0.1,0.9-0.1c0.4,0,0.7,0,1,0.1c0.3,0.1,0.6,0.2,0.9,0.4c0.2,0.2,0.4,0.4,0.6,0.6
		c0.1,0.3,0.2,0.6,0.2,0.9v3.9c0,0,0,0.1,0,0.1s0,0.1,0,0.1s0,0.1,0.1,0.1s0.1,0,0.2,0c0.1,0,0.2,0,0.2-0.1c0.1-0.1,0.1-0.1,0.2-0.2
		l0.2,0.1c-0.1,0.1-0.2,0.2-0.2,0.3s-0.2,0.2-0.3,0.3s-0.3,0.2-0.5,0.3s-0.4,0.1-0.6,0.1c-0.3,0-0.5-0.1-0.8-0.3
		c-0.2-0.2-0.4-0.4-0.4-0.8c-0.1,0.2-0.3,0.4-0.5,0.5c-0.2,0.1-0.3,0.2-0.5,0.3s-0.3,0.1-0.5,0.2c-0.2,0-0.3,0.1-0.5,0.1
		c-0.2,0-0.4,0-0.6-0.1s-0.4-0.2-0.6-0.3c-0.2-0.1-0.3-0.3-0.4-0.6c-0.1-0.2-0.1-0.5-0.1-0.9c0-0.4,0.1-0.8,0.2-1s0.4-0.5,0.6-0.7
		c0.3-0.2,0.6-0.3,0.9-0.5c0.3-0.1,0.7-0.3,1-0.4c0.3-0.1,0.5-0.3,0.6-0.5c0.1-0.2,0.2-0.4,0.2-0.6c0-0.3-0.1-0.6-0.3-0.8
		C99.9,94.1,99.7,94,99.3,94z M100.4,97c0-0.1,0-0.2-0.1-0.3s-0.2-0.1-0.3-0.1c-0.2,0-0.3,0-0.5,0.1c-0.1,0.1-0.3,0.2-0.4,0.3
		s-0.2,0.3-0.3,0.5s-0.1,0.4-0.1,0.7c0,0.3,0,0.5,0.1,0.7c0,0.2,0.1,0.3,0.2,0.4c0.1,0.1,0.1,0.2,0.2,0.2s0.2,0.1,0.3,0.1
		c0.1,0,0.2,0,0.3-0.1s0.2-0.1,0.3-0.2s0.1-0.2,0.2-0.3s0.1-0.2,0.1-0.4V97z"/>
	<path class="st6" d="M106.5,94c-0.1,0-0.2,0-0.3,0c-0.1,0-0.2,0.1-0.2,0.1s-0.1,0.1-0.2,0.2s-0.1,0.2-0.1,0.3
		c0,0.2,0.1,0.4,0.2,0.5c0.1,0.2,0.3,0.4,0.5,0.5c0.2,0.2,0.4,0.4,0.6,0.6c0.2,0.2,0.4,0.4,0.6,0.6c0.2,0.2,0.4,0.5,0.5,0.7
		c0.1,0.3,0.2,0.5,0.2,0.8c0,0.3-0.1,0.6-0.2,0.9c-0.1,0.3-0.3,0.5-0.5,0.6c-0.2,0.2-0.5,0.3-0.8,0.4c-0.3,0.1-0.6,0.1-1,0.1
		c-0.3,0-0.6,0-0.9-0.1s-0.5-0.2-0.7-0.3c-0.2-0.1-0.4-0.3-0.5-0.4s-0.3-0.3-0.3-0.4l0.2-0.2c0.1,0.1,0.1,0.1,0.2,0.2
		s0.2,0.2,0.3,0.2c0.1,0.1,0.2,0.1,0.4,0.2s0.3,0.1,0.4,0.1c0.3,0,0.6-0.1,0.8-0.2s0.3-0.4,0.3-0.7c0-0.2-0.1-0.4-0.2-0.5
		s-0.3-0.4-0.4-0.6s-0.4-0.4-0.6-0.6s-0.4-0.4-0.6-0.6s-0.3-0.5-0.4-0.7s-0.2-0.5-0.2-0.7c0-0.3,0.1-0.5,0.2-0.8
		c0.1-0.2,0.3-0.4,0.5-0.5c0.2-0.1,0.4-0.2,0.7-0.3c0.2-0.1,0.5-0.1,0.8-0.1c0.3,0,0.6,0,0.8,0.1s0.5,0.1,0.6,0.2
		c0.2,0.1,0.3,0.3,0.4,0.4c0.1,0.2,0.1,0.4,0.1,0.6c0,0.2-0.1,0.3-0.2,0.5s-0.3,0.2-0.5,0.2c-0.2,0-0.3,0-0.4-0.1
		c-0.1-0.1-0.2-0.2-0.2-0.3c0-0.1,0-0.2,0.1-0.2c0-0.1,0.1-0.1,0.2-0.1s0.1-0.1,0.2-0.1c0,0,0.1-0.1,0.1-0.1c0-0.1-0.1-0.2-0.2-0.3
		S106.7,94,106.5,94z"/>
	<path class="st6" d="M111.7,94.1v5.1c0,0.2,0,0.4,0.1,0.5s0.2,0.1,0.4,0.1c0.1,0,0.2,0,0.3-0.1s0.2-0.1,0.2-0.2
		c0.1-0.1,0.2-0.2,0.2-0.3l0.2,0.1c-0.1,0.1-0.1,0.3-0.2,0.5c-0.1,0.2-0.2,0.3-0.4,0.5s-0.3,0.3-0.6,0.4c-0.2,0.1-0.5,0.2-0.9,0.2
		c-0.2,0-0.4,0-0.6-0.1c-0.2-0.1-0.3-0.2-0.5-0.3c-0.1-0.1-0.3-0.3-0.3-0.5s-0.1-0.4-0.1-0.7v-5.1h-0.8v-0.5c0.1,0,0.3,0,0.5-0.1
		s0.5-0.2,0.7-0.3c0.2-0.2,0.5-0.4,0.7-0.6s0.4-0.6,0.4-1h0.5v2h1.1c0.4,0,0.5-0.1,0.5-0.2c0,0,0-0.1-0.1-0.1s-0.1,0-0.2-0.1
		c-0.1,0-0.1-0.1-0.2-0.1s-0.1-0.1-0.1-0.2c0-0.1,0-0.2,0.1-0.3c0.1-0.1,0.2-0.1,0.3-0.1c0.1,0,0.2,0,0.2,0.1c0.1,0,0.1,0.1,0.2,0.1
		s0.1,0.1,0.1,0.2c0,0.1,0,0.1,0,0.2c0,0.3-0.1,0.5-0.3,0.7c-0.2,0.2-0.4,0.3-0.8,0.3H111.7z"/>
	<path class="st6" d="M116.4,94.9c0.2-0.3,0.4-0.5,0.6-0.7c0.1-0.1,0.2-0.2,0.3-0.3s0.2-0.2,0.3-0.2c0.1-0.1,0.2-0.1,0.3-0.2
		s0.2-0.1,0.3-0.1c0.2,0,0.4,0.1,0.5,0.2s0.2,0.3,0.2,0.6c0,0.2,0,0.3,0,0.4c0,0.1-0.1,0.3-0.1,0.5h-0.2c0-0.1-0.1-0.3-0.2-0.4
		s-0.2-0.1-0.4-0.1c-0.1,0-0.3,0-0.4,0.1s-0.3,0.1-0.4,0.2c-0.1,0.1-0.3,0.2-0.4,0.3c-0.1,0.1-0.2,0.2-0.3,0.3v4.4
		c0,0.1,0,0.1,0,0.2s-0.1,0.2-0.1,0.2c-0.1,0.1-0.2,0.1-0.3,0.2c-0.1,0.1-0.3,0.1-0.6,0.1s-0.4,0-0.6-0.1c-0.1-0.1-0.2-0.1-0.3-0.2
		s-0.1-0.2-0.1-0.2s0-0.1,0-0.2v-5.3c0-0.1,0-0.2-0.1-0.3c-0.1-0.1-0.2-0.1-0.3-0.1c-0.1,0-0.1,0-0.2,0s-0.1,0.1-0.2,0.1l-0.1-0.2
		c0.1-0.1,0.2-0.2,0.4-0.3c0.1-0.1,0.3-0.2,0.4-0.2s0.3-0.1,0.5-0.2s0.4-0.1,0.5-0.1c0.2,0,0.4,0,0.5,0.1c0.1,0.1,0.3,0.1,0.3,0.2
		c0.1,0.1,0.2,0.2,0.2,0.3s0.1,0.2,0.1,0.3c0,0.1,0,0.2,0,0.3S116.4,94.9,116.4,94.9z"/>
	<path class="st6" d="M119.2,97.1c0-0.6,0.1-1.1,0.3-1.6s0.4-0.8,0.7-1.1c0.3-0.3,0.6-0.5,1-0.7s0.8-0.2,1.2-0.2s0.8,0.1,1.2,0.2
		s0.7,0.4,1,0.6c0.3,0.3,0.5,0.7,0.7,1.1s0.3,1,0.3,1.6c0,0.6-0.1,1.1-0.3,1.6s-0.4,0.8-0.7,1.2c-0.3,0.3-0.6,0.6-1,0.7
		s-0.8,0.2-1.2,0.2s-0.8-0.1-1.2-0.2s-0.7-0.4-1-0.7c-0.3-0.3-0.5-0.7-0.7-1.1S119.2,97.7,119.2,97.1z M123.4,97c0-0.4,0-0.7,0-1.1
		c0-0.3-0.1-0.6-0.1-0.9s-0.2-0.5-0.3-0.6s-0.3-0.2-0.5-0.2s-0.4,0.1-0.5,0.2s-0.2,0.4-0.3,0.7s-0.1,0.6-0.1,0.9s0,0.7,0,1.1
		s0,0.7,0,1.1s0.1,0.7,0.1,0.9s0.2,0.5,0.3,0.7s0.3,0.2,0.5,0.2s0.4-0.1,0.5-0.3s0.2-0.4,0.3-0.7s0.1-0.6,0.1-1
		C123.4,97.7,123.4,97.4,123.4,97z"/>
	<path class="st6" d="M134,97.2c0-0.6,0-1-0.1-1.4c-0.1-0.3-0.1-0.6-0.2-0.8s-0.2-0.3-0.3-0.4s-0.2-0.1-0.3-0.1
		c-0.1,0-0.2,0-0.4,0.1c-0.1,0.1-0.2,0.2-0.3,0.2c-0.1,0.1-0.1,0.2-0.2,0.3c-0.1,0.1-0.1,0.2-0.1,0.2v4.6c0,0.1,0,0.1,0,0.2
		s-0.1,0.2-0.1,0.2c-0.1,0.1-0.2,0.1-0.3,0.2c-0.1,0.1-0.3,0.1-0.6,0.1s-0.4,0-0.6-0.1c-0.1-0.1-0.2-0.1-0.3-0.2s-0.1-0.2-0.1-0.2
		s0-0.1,0-0.2v-5.3c0-0.1,0-0.2-0.1-0.3c-0.1-0.1-0.2-0.1-0.3-0.1c-0.1,0-0.1,0-0.2,0s-0.1,0.1-0.2,0.1l-0.1-0.2
		c0.1-0.1,0.2-0.2,0.4-0.3c0.1-0.1,0.3-0.2,0.4-0.2s0.3-0.1,0.5-0.2s0.4-0.1,0.5-0.1c0.3,0,0.5,0,0.7,0.1s0.3,0.2,0.4,0.4
		s0.1,0.3,0.1,0.4c0,0.1,0,0.3,0,0.4c0.2-0.2,0.4-0.5,0.6-0.6c0.1-0.1,0.2-0.2,0.3-0.2c0.1-0.1,0.2-0.1,0.3-0.2
		c0.1-0.1,0.2-0.1,0.4-0.1c0.1,0,0.3-0.1,0.4-0.1c0.3,0,0.6,0.1,0.8,0.2c0.2,0.1,0.4,0.3,0.6,0.6s0.3,0.6,0.4,1.1s0.1,1,0.1,1.7
		c0,0.7-0.1,1.2-0.2,1.7s-0.3,0.9-0.5,1.2s-0.4,0.6-0.6,0.8c-0.2,0.2-0.5,0.4-0.7,0.5s-0.5,0.2-0.7,0.3c-0.2,0-0.4,0.1-0.6,0.1
		l-0.1-0.3c0.1,0,0.3-0.1,0.4-0.2c0.1-0.1,0.2-0.2,0.3-0.3s0.2-0.3,0.3-0.5s0.1-0.5,0.2-0.8c0.1-0.3,0.1-0.7,0.1-1.1
		C134,98.2,134,97.7,134,97.2z"/>
	<path class="st6" d="M137,97.1c0-0.6,0.1-1.1,0.3-1.6s0.4-0.8,0.7-1.1c0.3-0.3,0.6-0.5,1-0.7s0.8-0.2,1.2-0.2s0.8,0.1,1.2,0.2
		s0.7,0.4,1,0.6c0.3,0.3,0.5,0.7,0.7,1.1s0.3,1,0.3,1.6c0,0.6-0.1,1.1-0.3,1.6s-0.4,0.8-0.7,1.2c-0.3,0.3-0.6,0.6-1,0.7
		s-0.8,0.2-1.2,0.2s-0.8-0.1-1.2-0.2s-0.7-0.4-1-0.7c-0.3-0.3-0.5-0.7-0.7-1.1S137,97.7,137,97.1z M141.2,97c0-0.4,0-0.7,0-1.1
		c0-0.3-0.1-0.6-0.1-0.9s-0.2-0.5-0.3-0.6s-0.3-0.2-0.5-0.2s-0.4,0.1-0.5,0.2s-0.2,0.4-0.3,0.7s-0.1,0.6-0.1,0.9s0,0.7,0,1.1
		s0,0.7,0,1.1s0.1,0.7,0.1,0.9s0.2,0.5,0.3,0.7s0.3,0.2,0.5,0.2s0.4-0.1,0.5-0.3s0.2-0.4,0.3-0.7s0.1-0.6,0.1-1
		C141.2,97.7,141.2,97.4,141.2,97z"/>
	<path class="st6" d="M84,114.2c0,0.1,0,0.3,0.1,0.5c0,0.2,0.1,0.3,0.2,0.5s0.2,0.3,0.3,0.5c0.1,0.2,0.3,0.3,0.4,0.4
		c0.2,0.1,0.3,0.2,0.5,0.3s0.4,0.1,0.6,0.1c0.2,0,0.3,0,0.4-0.1s0.3-0.1,0.4-0.2s0.2-0.1,0.3-0.2c0.1-0.1,0.2-0.2,0.3-0.3l0.2,0.2
		c-0.1,0.1-0.2,0.3-0.4,0.5s-0.4,0.3-0.6,0.5c-0.2,0.1-0.5,0.3-0.8,0.4c-0.3,0.1-0.7,0.1-1.1,0.1s-0.8-0.1-1.2-0.2
		c-0.4-0.1-0.7-0.4-1-0.6s-0.5-0.6-0.7-1.1c-0.2-0.4-0.3-0.9-0.3-1.5c0-0.4,0.1-0.8,0.2-1.1s0.2-0.7,0.4-0.9
		c0.2-0.3,0.4-0.5,0.6-0.7c0.2-0.2,0.5-0.4,0.8-0.5c0.3-0.1,0.5-0.2,0.8-0.3c0.3-0.1,0.5-0.1,0.8-0.1c0.3,0,0.6,0,0.9,0.1
		s0.5,0.2,0.6,0.3c0.2,0.1,0.3,0.3,0.4,0.4c0.1,0.2,0.1,0.3,0.1,0.5c0,0.2-0.1,0.4-0.2,0.6c-0.1,0.2-0.3,0.3-0.5,0.4L84,114.2z
		 M85.4,112.8c0.1,0,0.1-0.1,0.1-0.1c0,0,0.1-0.1,0.1-0.1c0,0,0-0.1,0.1-0.2c0-0.1,0-0.2,0-0.3c0-0.1,0-0.2,0-0.4
		c0-0.1-0.1-0.3-0.1-0.4s-0.1-0.2-0.2-0.3s-0.2-0.1-0.3-0.1c-0.2,0-0.3,0-0.4,0.1c-0.1,0.1-0.2,0.2-0.3,0.4
		c-0.1,0.2-0.1,0.3-0.2,0.5c0,0.2-0.1,0.4-0.1,0.6s0,0.4,0,0.6c0,0.2,0,0.3,0,0.5L85.4,112.8z"/>
	<path class="st6" d="M94.5,116.8c0,0.1,0,0.1,0,0.2s-0.1,0.2-0.1,0.2c-0.1,0.1-0.2,0.1-0.3,0.2c-0.1,0.1-0.3,0.1-0.6,0.1
		s-0.4,0-0.6-0.1c-0.1-0.1-0.2-0.1-0.3-0.2c-0.1-0.1-0.1-0.2-0.1-0.2s0-0.1,0-0.2v-4.8c0-0.1,0-0.1,0-0.2c0-0.1,0-0.1-0.1-0.2
		s-0.1-0.1-0.1-0.1c-0.1,0-0.1-0.1-0.2-0.1c-0.1,0-0.2,0-0.4,0.1c-0.1,0.1-0.2,0.2-0.3,0.2c-0.1,0.1-0.2,0.2-0.3,0.3
		c-0.1,0.1-0.1,0.2-0.2,0.2v4.6c0,0.1,0,0.1,0,0.2s-0.1,0.2-0.1,0.2c-0.1,0.1-0.2,0.1-0.3,0.2c-0.1,0.1-0.3,0.1-0.6,0.1
		s-0.4,0-0.6-0.1c-0.1-0.1-0.2-0.1-0.3-0.2s-0.1-0.2-0.1-0.2s0-0.1,0-0.2v-5.3c0-0.1,0-0.2-0.1-0.3c-0.1-0.1-0.2-0.1-0.3-0.1
		c-0.1,0-0.1,0-0.2,0s-0.1,0.1-0.2,0.1l-0.1-0.2c0.1-0.1,0.2-0.2,0.4-0.3c0.1-0.1,0.3-0.2,0.4-0.2s0.3-0.1,0.5-0.2s0.4-0.1,0.5-0.1
		c0.3,0,0.5,0,0.7,0.1c0.2,0.1,0.3,0.2,0.4,0.4s0.1,0.3,0.1,0.4c0,0.1,0,0.3,0,0.4c0.2-0.2,0.4-0.5,0.7-0.6c0.1-0.1,0.2-0.2,0.3-0.2
		c0.1-0.1,0.2-0.1,0.4-0.2c0.1-0.1,0.3-0.1,0.4-0.1s0.3-0.1,0.4-0.1c0.3,0,0.5,0,0.7,0.1s0.3,0.2,0.5,0.3c0.1,0.1,0.2,0.3,0.2,0.4
		c0.1,0.1,0.1,0.3,0.1,0.4c0.2-0.2,0.4-0.5,0.7-0.6c0.1-0.1,0.2-0.2,0.3-0.2s0.2-0.1,0.4-0.2c0.1-0.1,0.3-0.1,0.4-0.1
		c0.1,0,0.3-0.1,0.4-0.1c0.3,0,0.5,0,0.7,0.1c0.2,0.1,0.3,0.2,0.5,0.4s0.2,0.3,0.2,0.5c0.1,0.2,0.1,0.4,0.1,0.6v4.2c0,0,0,0.1,0,0.1
		c0,0,0,0.1,0,0.1c0,0,0,0.1,0.1,0.1c0,0,0.1,0,0.2,0c0.1,0,0.2,0,0.2-0.1c0.1-0.1,0.1-0.1,0.2-0.2l0.2,0.1
		c-0.1,0.1-0.1,0.2-0.3,0.3c-0.1,0.1-0.2,0.2-0.4,0.3c-0.1,0.1-0.3,0.2-0.5,0.3c-0.2,0.1-0.4,0.1-0.6,0.1c-0.2,0-0.4,0-0.5-0.1
		c-0.1-0.1-0.3-0.1-0.4-0.2c-0.1-0.1-0.2-0.2-0.2-0.3c0-0.1-0.1-0.2-0.1-0.4v-4.6c0-0.1,0-0.1,0-0.2c0-0.1,0-0.1-0.1-0.2
		c0-0.1-0.1-0.1-0.1-0.1c-0.1,0-0.1-0.1-0.2-0.1c-0.1,0-0.2,0-0.4,0.1c-0.1,0.1-0.2,0.2-0.3,0.2c-0.1,0.1-0.2,0.2-0.3,0.3
		s-0.1,0.2-0.2,0.2V116.8z"/>
	<path class="st6" d="M102,110.8c-0.2,0-0.3,0-0.4,0.1s-0.2,0.1-0.3,0.1s-0.2,0.1-0.2,0.2c-0.1,0.1-0.1,0.1-0.1,0.2
		c0,0.1,0,0.1,0.1,0.1c0.1,0,0.1,0.1,0.2,0.1c0.1,0,0.2,0.1,0.2,0.2c0.1,0.1,0.1,0.2,0.1,0.3c0,0.1,0,0.2-0.1,0.3
		c0,0.1-0.1,0.2-0.2,0.2c-0.1,0.1-0.1,0.1-0.2,0.1c-0.1,0-0.2,0.1-0.3,0.1c-0.3,0-0.5-0.1-0.6-0.3c-0.2-0.2-0.2-0.4-0.2-0.7
		c0-0.3,0.1-0.5,0.2-0.7c0.1-0.2,0.3-0.4,0.6-0.5c0.2-0.1,0.5-0.2,0.8-0.3c0.3-0.1,0.6-0.1,0.9-0.1c0.4,0,0.7,0,1,0.1
		s0.6,0.2,0.9,0.4c0.2,0.2,0.4,0.4,0.6,0.6c0.1,0.3,0.2,0.6,0.2,0.9v3.9c0,0,0,0.1,0,0.1s0,0.1,0,0.1s0,0.1,0.1,0.1s0.1,0,0.2,0
		c0.1,0,0.2,0,0.2-0.1c0.1-0.1,0.1-0.1,0.2-0.2l0.2,0.1c-0.1,0.1-0.2,0.2-0.2,0.3s-0.2,0.2-0.3,0.3s-0.3,0.2-0.5,0.3
		s-0.4,0.1-0.6,0.1c-0.3,0-0.5-0.1-0.8-0.3c-0.2-0.2-0.4-0.4-0.4-0.8c-0.1,0.2-0.3,0.4-0.5,0.5c-0.2,0.1-0.3,0.2-0.5,0.3
		s-0.3,0.1-0.5,0.2c-0.2,0-0.3,0.1-0.5,0.1c-0.2,0-0.4,0-0.6-0.1s-0.4-0.2-0.6-0.3c-0.2-0.1-0.3-0.3-0.4-0.6
		c-0.1-0.2-0.1-0.5-0.1-0.9c0-0.4,0.1-0.8,0.2-1s0.4-0.5,0.6-0.7c0.3-0.2,0.6-0.3,0.9-0.5c0.3-0.1,0.7-0.3,1-0.4
		c0.3-0.1,0.5-0.3,0.6-0.5c0.1-0.2,0.2-0.4,0.2-0.6c0-0.3-0.1-0.6-0.3-0.8C102.6,110.9,102.3,110.8,102,110.8z M103.1,113.8
		c0-0.1,0-0.2-0.1-0.3s-0.2-0.1-0.3-0.1c-0.2,0-0.3,0-0.5,0.1c-0.1,0.1-0.3,0.2-0.4,0.3s-0.2,0.3-0.3,0.5c-0.1,0.2-0.1,0.4-0.1,0.7
		c0,0.3,0,0.5,0.1,0.7c0,0.2,0.1,0.3,0.2,0.4c0.1,0.1,0.1,0.2,0.2,0.2s0.2,0.1,0.3,0.1c0.1,0,0.2,0,0.3-0.1c0.1-0.1,0.2-0.1,0.3-0.2
		s0.1-0.2,0.2-0.3s0.1-0.2,0.1-0.4V113.8z"/>
	<path class="st6" d="M109.1,116.8c0,0.1,0,0.1,0,0.2c0,0.1-0.1,0.2-0.1,0.2c-0.1,0.1-0.2,0.1-0.3,0.2c-0.1,0.1-0.3,0.1-0.6,0.1
		s-0.4,0-0.6-0.1c-0.1-0.1-0.2-0.1-0.3-0.2s-0.1-0.2-0.1-0.2c0-0.1,0-0.1,0-0.2v-5.3c0-0.1,0-0.2-0.1-0.3c-0.1-0.1-0.2-0.1-0.3-0.1
		c-0.1,0-0.1,0-0.2,0s-0.1,0.1-0.2,0.1l-0.1-0.2c0.1-0.1,0.2-0.2,0.4-0.3c0.1-0.1,0.3-0.2,0.4-0.2s0.3-0.1,0.5-0.2s0.4-0.1,0.5-0.1
		c0.3,0,0.5,0,0.7,0.1c0.2,0.1,0.3,0.2,0.4,0.3c0.1,0.1,0.1,0.2,0.1,0.4c0,0.1,0,0.2,0,0.3V116.8z M106.8,108.7c0-0.1,0-0.2,0.1-0.4
		c0.1-0.1,0.1-0.2,0.2-0.3c0.1-0.1,0.2-0.2,0.4-0.2c0.1,0,0.3-0.1,0.4-0.1c0.2,0,0.3,0,0.4,0.1c0.1,0,0.3,0.1,0.4,0.2
		s0.2,0.2,0.2,0.3c0.1,0.1,0.1,0.2,0.1,0.4c0,0.1,0,0.3-0.1,0.4c-0.1,0.1-0.1,0.2-0.2,0.3c-0.1,0.1-0.2,0.2-0.4,0.2
		c-0.1,0-0.3,0.1-0.4,0.1c-0.2,0-0.3,0-0.4-0.1c-0.1,0-0.3-0.1-0.4-0.2c-0.1-0.1-0.2-0.2-0.2-0.3C106.9,109,106.8,108.9,106.8,108.7
		z"/>
	<path class="st6" d="M113,116.8c0,0.1,0,0.1,0,0.2c0,0.1-0.1,0.2-0.1,0.2c-0.1,0.1-0.2,0.1-0.3,0.2c-0.1,0.1-0.3,0.1-0.6,0.1
		s-0.4,0-0.6-0.1c-0.1-0.1-0.2-0.1-0.3-0.2c-0.1-0.1-0.1-0.2-0.1-0.2c0-0.1,0-0.1,0-0.2v-8.8c0-0.1,0-0.2-0.1-0.3
		c-0.1-0.1-0.2-0.1-0.3-0.1c-0.1,0-0.1,0-0.2,0c-0.1,0-0.1,0.1-0.2,0.1l-0.1-0.2c0.1-0.1,0.2-0.2,0.3-0.3c0.1-0.1,0.3-0.2,0.4-0.2
		c0.2-0.1,0.3-0.1,0.5-0.2s0.4-0.1,0.5-0.1c0.3,0,0.5,0,0.7,0.1c0.2,0.1,0.3,0.2,0.4,0.3s0.1,0.2,0.1,0.4c0,0.1,0,0.2,0,0.3V116.8z"
		/>
	<path class="st6" d="M117.4,113.9c0-0.6,0.1-1.1,0.3-1.6c0.2-0.4,0.4-0.8,0.7-1.1c0.3-0.3,0.6-0.5,1-0.7s0.8-0.2,1.2-0.2
		s0.8,0.1,1.2,0.2c0.4,0.1,0.7,0.4,1,0.6c0.3,0.3,0.5,0.7,0.7,1.1c0.2,0.4,0.3,1,0.3,1.6c0,0.6-0.1,1.1-0.3,1.6s-0.4,0.8-0.7,1.2
		c-0.3,0.3-0.6,0.6-1,0.7c-0.4,0.2-0.8,0.2-1.2,0.2h0c0.3,0.1,0.5,0.2,0.8,0.3c0.3,0.1,0.6,0.3,0.9,0.4c0.3,0.1,0.7,0.3,1,0.4
		c0.3,0.2,0.7,0.3,1,0.4s0.6,0.2,0.9,0.3c0.3,0.1,0.5,0.1,0.7,0.1c0.1,0,0.3,0,0.4,0c0.1,0,0.2-0.1,0.3-0.1s0.1-0.1,0.2-0.1
		c0-0.1,0.1-0.1,0.1-0.2l0.2,0c0,0.3-0.1,0.5-0.2,0.7c-0.1,0.2-0.2,0.4-0.3,0.5c-0.1,0.2-0.3,0.3-0.5,0.4c-0.2,0.1-0.4,0.1-0.7,0.1
		c-0.3,0-0.6-0.1-1-0.2s-0.7-0.3-1.1-0.4c-0.4-0.2-0.7-0.4-1.1-0.6c-0.4-0.2-0.8-0.4-1.1-0.6c-0.4-0.2-0.7-0.3-1-0.4
		c-0.3-0.1-0.6-0.2-0.9-0.2c-0.3,0-0.5,0.1-0.6,0.3l-0.2-0.1c0-0.1,0-0.2,0.1-0.3s0.1-0.3,0.3-0.4s0.3-0.3,0.4-0.4
		c0.2-0.1,0.4-0.2,0.7-0.2c-0.3-0.1-0.6-0.2-0.9-0.4c-0.3-0.2-0.5-0.4-0.7-0.7s-0.4-0.6-0.5-1C117.5,114.8,117.4,114.4,117.4,113.9z
		 M121.6,113.8c0-0.4,0-0.7,0-1.1c0-0.3-0.1-0.6-0.1-0.9s-0.2-0.5-0.3-0.6c-0.1-0.2-0.3-0.2-0.5-0.2s-0.4,0.1-0.5,0.2
		c-0.1,0.2-0.2,0.4-0.3,0.7c-0.1,0.3-0.1,0.6-0.1,0.9s0,0.7,0,1.1s0,0.7,0,1.1c0,0.3,0.1,0.7,0.1,0.9s0.2,0.5,0.3,0.7
		c0.1,0.2,0.3,0.2,0.5,0.2s0.4-0.1,0.5-0.3s0.2-0.4,0.3-0.7s0.1-0.6,0.1-1C121.6,114.5,121.6,114.2,121.6,113.8z"/>
	<path class="st6" d="M131,116.2c0,0,0,0.1,0,0.1c0,0,0,0.1,0,0.1c0,0,0,0.1,0.1,0.1s0.1,0,0.2,0c0.1,0,0.2,0,0.2-0.1
		c0.1-0.1,0.1-0.1,0.2-0.2l0.2,0.1c-0.1,0.1-0.2,0.2-0.3,0.3c-0.1,0.1-0.2,0.2-0.4,0.3s-0.3,0.2-0.5,0.3c-0.2,0.1-0.4,0.1-0.6,0.1
		c-0.2,0-0.4,0-0.5-0.1c-0.1-0.1-0.3-0.1-0.4-0.2c-0.1-0.1-0.2-0.2-0.2-0.3c0-0.1-0.1-0.2-0.1-0.4v-0.3c-0.2,0.2-0.5,0.5-0.7,0.6
		c-0.1,0.1-0.2,0.2-0.3,0.2s-0.3,0.1-0.4,0.2c-0.1,0.1-0.3,0.1-0.4,0.1s-0.3,0.1-0.4,0.1c-0.3,0-0.5,0-0.7-0.1
		c-0.2-0.1-0.3-0.2-0.5-0.4s-0.2-0.3-0.3-0.5s-0.1-0.4-0.1-0.6v-4.2c0,0,0-0.1,0-0.1c0,0,0-0.1,0-0.1c0,0,0-0.1-0.1-0.1
		s-0.1,0-0.2,0c-0.1,0-0.2,0-0.2,0.1c-0.1,0.1-0.1,0.1-0.2,0.2l-0.2-0.1c0.1-0.1,0.2-0.2,0.3-0.3c0.1-0.1,0.2-0.2,0.4-0.3
		s0.3-0.2,0.5-0.3c0.2-0.1,0.4-0.1,0.6-0.1c0.2,0,0.4,0,0.5,0.1c0.2,0.1,0.3,0.1,0.4,0.2c0.1,0.1,0.2,0.2,0.2,0.3
		c0,0.1,0.1,0.2,0.1,0.4v4.6c0,0.1,0,0.1,0,0.2c0,0.1,0,0.1,0.1,0.2c0,0.1,0.1,0.1,0.1,0.1c0.1,0,0.1,0.1,0.2,0.1
		c0.1,0,0.3,0,0.4-0.1s0.3-0.1,0.4-0.2c0.1-0.1,0.2-0.2,0.3-0.3c0.1-0.1,0.1-0.2,0.2-0.2v-4c0,0,0-0.1,0-0.1c0,0,0-0.1,0-0.1
		c0,0,0-0.1-0.1-0.1s-0.1,0-0.2,0c-0.1,0-0.2,0-0.2,0.1c-0.1,0.1-0.1,0.1-0.2,0.2l-0.2-0.1c0.1-0.1,0.2-0.2,0.3-0.3
		c0.1-0.1,0.2-0.2,0.4-0.3s0.3-0.2,0.5-0.3c0.2-0.1,0.4-0.1,0.6-0.1c0.2,0,0.4,0,0.5,0.1c0.2,0.1,0.3,0.1,0.4,0.2
		c0.1,0.1,0.2,0.2,0.2,0.3c0,0.1,0.1,0.2,0.1,0.4V116.2z"/>
	<path class="st6" d="M134.6,114.2c0,0.1,0,0.3,0.1,0.5c0,0.2,0.1,0.3,0.2,0.5s0.2,0.3,0.3,0.5c0.1,0.2,0.3,0.3,0.4,0.4
		c0.2,0.1,0.3,0.2,0.5,0.3s0.4,0.1,0.6,0.1c0.2,0,0.3,0,0.4-0.1s0.3-0.1,0.4-0.2s0.2-0.1,0.3-0.2c0.1-0.1,0.2-0.2,0.3-0.3l0.2,0.2
		c-0.1,0.1-0.2,0.3-0.4,0.5s-0.4,0.3-0.6,0.5c-0.2,0.1-0.5,0.3-0.8,0.4c-0.3,0.1-0.7,0.1-1.1,0.1s-0.8-0.1-1.2-0.2
		c-0.4-0.1-0.7-0.4-1-0.6s-0.5-0.6-0.7-1.1c-0.2-0.4-0.3-0.9-0.3-1.5c0-0.4,0.1-0.8,0.2-1.1s0.2-0.7,0.4-0.9
		c0.2-0.3,0.4-0.5,0.6-0.7c0.2-0.2,0.5-0.4,0.8-0.5c0.3-0.1,0.5-0.2,0.8-0.3c0.3-0.1,0.5-0.1,0.8-0.1c0.3,0,0.6,0,0.9,0.1
		s0.5,0.2,0.6,0.3c0.2,0.1,0.3,0.3,0.4,0.4c0.1,0.2,0.1,0.3,0.1,0.5c0,0.2-0.1,0.4-0.2,0.6c-0.1,0.2-0.3,0.3-0.5,0.4L134.6,114.2z
		 M135.9,112.8c0.1,0,0.1-0.1,0.1-0.1c0,0,0.1-0.1,0.1-0.1c0,0,0-0.1,0.1-0.2c0-0.1,0-0.2,0-0.3c0-0.1,0-0.2,0-0.4
		c0-0.1-0.1-0.3-0.1-0.4s-0.1-0.2-0.2-0.3s-0.2-0.1-0.3-0.1c-0.2,0-0.3,0-0.4,0.1c-0.1,0.1-0.2,0.2-0.3,0.4
		c-0.1,0.2-0.1,0.3-0.2,0.5c0,0.2-0.1,0.4-0.1,0.6s0,0.4,0,0.6c0,0.2,0,0.3,0,0.5L135.9,112.8z"/>
	<path class="st6" d="M69.8,131c0,0.1,0,0.3,0.1,0.5c0,0.2,0.1,0.3,0.2,0.5s0.2,0.3,0.3,0.5c0.1,0.2,0.3,0.3,0.4,0.4
		c0.2,0.1,0.3,0.2,0.5,0.3s0.4,0.1,0.6,0.1c0.2,0,0.3,0,0.4-0.1s0.3-0.1,0.4-0.2s0.2-0.1,0.3-0.2c0.1-0.1,0.2-0.2,0.3-0.3l0.2,0.2
		c-0.1,0.1-0.2,0.3-0.4,0.5s-0.4,0.3-0.6,0.5c-0.2,0.1-0.5,0.3-0.8,0.4c-0.3,0.1-0.7,0.1-1.1,0.1s-0.8-0.1-1.2-0.2
		c-0.4-0.1-0.7-0.4-1-0.6s-0.5-0.6-0.7-1.1c-0.2-0.4-0.3-0.9-0.3-1.5c0-0.4,0.1-0.8,0.2-1.1s0.2-0.7,0.4-0.9
		c0.2-0.3,0.4-0.5,0.6-0.7c0.2-0.2,0.5-0.4,0.8-0.5c0.3-0.1,0.5-0.2,0.8-0.3c0.3-0.1,0.5-0.1,0.8-0.1c0.3,0,0.6,0,0.9,0.1
		s0.5,0.2,0.6,0.3c0.2,0.1,0.3,0.3,0.4,0.4c0.1,0.2,0.1,0.3,0.1,0.5c0,0.2-0.1,0.4-0.2,0.6c-0.1,0.2-0.3,0.3-0.5,0.4L69.8,131z
		 M71.2,129.6c0.1,0,0.1-0.1,0.1-0.1c0,0,0.1-0.1,0.1-0.1c0,0,0-0.1,0.1-0.2c0-0.1,0-0.2,0-0.3c0-0.1,0-0.2,0-0.4
		c0-0.1-0.1-0.3-0.1-0.4s-0.1-0.2-0.2-0.3s-0.2-0.1-0.3-0.1c-0.2,0-0.3,0-0.4,0.1c-0.1,0.1-0.2,0.2-0.3,0.4
		c-0.1,0.2-0.1,0.3-0.2,0.5c0,0.2-0.1,0.4-0.1,0.6s0,0.4,0,0.6c0,0.2,0,0.3,0,0.5L71.2,129.6z"/>
	<path class="st6" d="M78.5,130.8c0-0.6,0-1-0.1-1.4c-0.1-0.3-0.1-0.6-0.2-0.8c-0.1-0.2-0.2-0.3-0.3-0.4c-0.1-0.1-0.2-0.1-0.3-0.1
		c-0.1,0-0.2,0-0.4,0.1c-0.1,0.1-0.2,0.2-0.3,0.2c-0.1,0.1-0.1,0.2-0.2,0.3c-0.1,0.1-0.1,0.2-0.1,0.2v4.6c0,0.1,0,0.1,0,0.2
		c0,0.1-0.1,0.2-0.1,0.2c-0.1,0.1-0.2,0.1-0.3,0.2c-0.1,0.1-0.3,0.1-0.6,0.1s-0.4,0-0.6-0.1c-0.1-0.1-0.2-0.1-0.3-0.2
		s-0.1-0.2-0.1-0.2s0-0.1,0-0.2v-5.3c0-0.1,0-0.2-0.1-0.3c-0.1-0.1-0.2-0.1-0.3-0.1c-0.1,0-0.1,0-0.2,0s-0.1,0.1-0.2,0.1l-0.1-0.2
		c0.1-0.1,0.2-0.2,0.4-0.3c0.1-0.1,0.3-0.2,0.4-0.2s0.3-0.1,0.5-0.2s0.4-0.1,0.5-0.1c0.3,0,0.5,0,0.7,0.1c0.2,0.1,0.3,0.2,0.4,0.4
		s0.1,0.3,0.1,0.4c0,0.1,0,0.3,0,0.4c0.2-0.2,0.4-0.5,0.6-0.6c0.1-0.1,0.2-0.2,0.3-0.2c0.1-0.1,0.2-0.1,0.3-0.2
		c0.1-0.1,0.2-0.1,0.4-0.1c0.1,0,0.3-0.1,0.4-0.1c0.3,0,0.6,0.1,0.8,0.2c0.2,0.1,0.4,0.3,0.6,0.6s0.3,0.6,0.4,1.1
		c0.1,0.5,0.1,1,0.1,1.7c0,0.7-0.1,1.2-0.2,1.7s-0.3,0.9-0.5,1.2s-0.4,0.6-0.6,0.8c-0.2,0.2-0.5,0.4-0.7,0.5s-0.5,0.2-0.7,0.3
		c-0.2,0-0.4,0.1-0.6,0.1l-0.1-0.3c0.1,0,0.3-0.1,0.4-0.2c0.1-0.1,0.2-0.2,0.3-0.3s0.2-0.3,0.3-0.5c0.1-0.2,0.1-0.5,0.2-0.8
		c0.1-0.3,0.1-0.7,0.1-1.1C78.5,131.8,78.5,131.3,78.5,130.8z"/>
	<path class="st6" d="M81.8,128.4c0-0.2-0.1-0.3-0.1-0.4c-0.1-0.1-0.2-0.2-0.3-0.2c-0.1,0-0.1,0-0.2,0c-0.1,0-0.1,0.1-0.2,0.1
		l-0.1-0.2c0.1-0.1,0.2-0.2,0.4-0.3c0.1-0.1,0.3-0.2,0.4-0.2s0.3-0.1,0.5-0.2s0.4-0.1,0.5-0.1c0.3,0,0.5,0,0.7,0.1
		c0.2,0.1,0.3,0.2,0.4,0.3c0.1,0.1,0.2,0.3,0.2,0.4s0.1,0.3,0.1,0.4c0.2,1.4,0.4,2.4,0.6,3.1s0.5,1.1,0.7,1.1c0.2,0,0.3-0.1,0.5-0.3
		c0.1-0.2,0.3-0.4,0.4-0.7c0.1-0.3,0.2-0.7,0.3-1.1s0.1-0.8,0.1-1.3c0-0.3,0-0.6-0.1-0.8c0-0.2-0.1-0.4-0.1-0.5s-0.1-0.3-0.1-0.4
		c0-0.1-0.1-0.2-0.1-0.2c0-0.1,0-0.1,0.1-0.2s0.1-0.1,0.2-0.1c0.1,0,0.2-0.1,0.2-0.1c0.1,0,0.1,0,0.2,0c0.1,0,0.2,0,0.3,0.1
		s0.1,0.1,0.1,0.2c0,0.1,0.1,0.3,0.1,0.5c0,0.2,0,0.4,0,0.7c0,0.4,0,0.7-0.1,1.2c0,0.4-0.1,0.8-0.2,1.3c-0.1,0.4-0.2,0.8-0.4,1.2
		s-0.3,0.7-0.5,1.1c-0.2,0.3-0.4,0.6-0.7,0.7c-0.3,0.2-0.6,0.3-0.9,0.3c-0.4,0-0.7-0.1-1-0.3s-0.5-0.5-0.7-0.9
		c-0.2-0.4-0.4-0.7-0.5-1.2s-0.2-0.9-0.3-1.3c-0.1-0.4-0.1-0.9-0.2-1.2C81.9,129,81.9,128.6,81.8,128.4z"/>
	<path class="st6" d="M90.9,133.6c0,0.1,0,0.1,0,0.2c0,0.1-0.1,0.2-0.1,0.2c-0.1,0.1-0.2,0.1-0.3,0.2c-0.1,0.1-0.3,0.1-0.6,0.1
		s-0.4,0-0.6-0.1c-0.1-0.1-0.2-0.1-0.3-0.2s-0.1-0.2-0.1-0.2c0-0.1,0-0.1,0-0.2v-5.3c0-0.1,0-0.2-0.1-0.3c-0.1-0.1-0.2-0.1-0.3-0.1
		c-0.1,0-0.1,0-0.2,0s-0.1,0.1-0.2,0.1l-0.1-0.2c0.1-0.1,0.2-0.2,0.4-0.3c0.1-0.1,0.3-0.2,0.4-0.2s0.3-0.1,0.5-0.2s0.4-0.1,0.5-0.1
		c0.3,0,0.5,0,0.7,0.1c0.2,0.1,0.3,0.2,0.4,0.3c0.1,0.1,0.1,0.2,0.1,0.4c0,0.1,0,0.2,0,0.3V133.6z M88.6,125.5c0-0.1,0-0.2,0.1-0.4
		c0.1-0.1,0.1-0.2,0.2-0.3c0.1-0.1,0.2-0.2,0.4-0.2c0.1,0,0.3-0.1,0.4-0.1c0.2,0,0.3,0,0.4,0.1c0.1,0,0.3,0.1,0.4,0.2
		s0.2,0.2,0.2,0.3c0.1,0.1,0.1,0.2,0.1,0.4c0,0.1,0,0.3-0.1,0.4c-0.1,0.1-0.1,0.2-0.2,0.3c-0.1,0.1-0.2,0.2-0.4,0.2
		c-0.1,0-0.3,0.1-0.4,0.1c-0.2,0-0.3,0-0.4-0.1c-0.1,0-0.3-0.1-0.4-0.2c-0.1-0.1-0.2-0.2-0.2-0.3C88.6,125.8,88.6,125.7,88.6,125.5z
		"/>
	<path class="st6" d="M94.6,127.6c-0.2,0-0.3,0-0.4,0.1s-0.2,0.1-0.3,0.1s-0.2,0.1-0.2,0.2c-0.1,0.1-0.1,0.1-0.1,0.2
		c0,0.1,0,0.1,0.1,0.1c0.1,0,0.1,0.1,0.2,0.1c0.1,0,0.2,0.1,0.2,0.2c0.1,0.1,0.1,0.2,0.1,0.3c0,0.1,0,0.2-0.1,0.3
		c0,0.1-0.1,0.2-0.2,0.2c-0.1,0.1-0.1,0.1-0.2,0.1c-0.1,0-0.2,0.1-0.3,0.1c-0.3,0-0.5-0.1-0.6-0.3c-0.2-0.2-0.2-0.4-0.2-0.7
		c0-0.3,0.1-0.5,0.2-0.7c0.1-0.2,0.3-0.4,0.6-0.5c0.2-0.1,0.5-0.2,0.8-0.3c0.3-0.1,0.6-0.1,0.9-0.1c0.4,0,0.7,0,1,0.1
		s0.6,0.2,0.9,0.4c0.2,0.2,0.4,0.4,0.6,0.6c0.1,0.3,0.2,0.6,0.2,0.9v3.9c0,0,0,0.1,0,0.1s0,0.1,0,0.1s0,0.1,0.1,0.1s0.1,0,0.2,0
		c0.1,0,0.2,0,0.2-0.1c0.1-0.1,0.1-0.1,0.2-0.2l0.2,0.1c-0.1,0.1-0.2,0.2-0.2,0.3s-0.2,0.2-0.3,0.3s-0.3,0.2-0.5,0.3
		s-0.4,0.1-0.6,0.1c-0.3,0-0.5-0.1-0.8-0.3c-0.2-0.2-0.4-0.4-0.4-0.8c-0.1,0.2-0.3,0.4-0.5,0.5c-0.2,0.1-0.3,0.2-0.5,0.3
		s-0.3,0.1-0.5,0.2c-0.2,0-0.3,0.1-0.5,0.1c-0.2,0-0.4,0-0.6-0.1s-0.4-0.2-0.6-0.3c-0.2-0.1-0.3-0.3-0.4-0.6
		c-0.1-0.2-0.1-0.5-0.1-0.9c0-0.4,0.1-0.8,0.2-1s0.4-0.5,0.6-0.7c0.3-0.2,0.6-0.3,0.9-0.5c0.3-0.1,0.7-0.3,1-0.4
		c0.3-0.1,0.5-0.3,0.6-0.5c0.1-0.2,0.2-0.4,0.2-0.6c0-0.3-0.1-0.6-0.3-0.8C95.2,127.7,94.9,127.6,94.6,127.6z M95.7,130.6
		c0-0.1,0-0.2-0.1-0.3s-0.2-0.1-0.3-0.1c-0.2,0-0.3,0-0.5,0.1c-0.1,0.1-0.3,0.2-0.4,0.3s-0.2,0.3-0.3,0.5c-0.1,0.2-0.1,0.4-0.1,0.7
		c0,0.3,0,0.5,0.1,0.7c0,0.2,0.1,0.3,0.2,0.4c0.1,0.1,0.1,0.2,0.2,0.2s0.2,0.1,0.3,0.1c0.1,0,0.2,0,0.3-0.1c0.1-0.1,0.2-0.1,0.3-0.2
		s0.1-0.2,0.2-0.3s0.1-0.2,0.1-0.4V130.6z"/>
	<path class="st6" d="M105.4,133.6c0,0.1,0,0.1,0,0.2s-0.1,0.2-0.1,0.2c-0.1,0.1-0.2,0.1-0.3,0.2c-0.1,0.1-0.3,0.1-0.6,0.1
		s-0.4,0-0.6-0.1c-0.1-0.1-0.2-0.1-0.3-0.2c-0.1-0.1-0.1-0.2-0.1-0.2s0-0.1,0-0.2v-4.8c0-0.1,0-0.1,0-0.2c0-0.1,0-0.1-0.1-0.2
		s-0.1-0.1-0.1-0.1c-0.1,0-0.1-0.1-0.2-0.1c-0.1,0-0.2,0-0.4,0.1c-0.1,0.1-0.2,0.2-0.3,0.2c-0.1,0.1-0.2,0.2-0.3,0.3
		c-0.1,0.1-0.1,0.2-0.2,0.2v4.6c0,0.1,0,0.1,0,0.2s-0.1,0.2-0.1,0.2c-0.1,0.1-0.2,0.1-0.3,0.2c-0.1,0.1-0.3,0.1-0.6,0.1
		s-0.4,0-0.6-0.1c-0.1-0.1-0.2-0.1-0.3-0.2s-0.1-0.2-0.1-0.2s0-0.1,0-0.2v-5.3c0-0.1,0-0.2-0.1-0.3c-0.1-0.1-0.2-0.1-0.3-0.1
		c-0.1,0-0.1,0-0.2,0s-0.1,0.1-0.2,0.1l-0.1-0.2c0.1-0.1,0.2-0.2,0.4-0.3c0.1-0.1,0.3-0.2,0.4-0.2s0.3-0.1,0.5-0.2s0.4-0.1,0.5-0.1
		c0.3,0,0.5,0,0.7,0.1c0.2,0.1,0.3,0.2,0.4,0.4s0.1,0.3,0.1,0.4c0,0.1,0,0.3,0,0.4c0.2-0.2,0.4-0.5,0.7-0.6c0.1-0.1,0.2-0.2,0.3-0.2
		c0.1-0.1,0.2-0.1,0.4-0.2c0.1-0.1,0.3-0.1,0.4-0.1s0.3-0.1,0.4-0.1c0.3,0,0.5,0,0.7,0.1s0.3,0.2,0.5,0.3c0.1,0.1,0.2,0.3,0.2,0.4
		c0.1,0.1,0.1,0.3,0.1,0.4c0.2-0.2,0.4-0.5,0.7-0.6c0.1-0.1,0.2-0.2,0.3-0.2s0.2-0.1,0.4-0.2c0.1-0.1,0.3-0.1,0.4-0.1
		c0.1,0,0.3-0.1,0.4-0.1c0.3,0,0.5,0,0.7,0.1c0.2,0.1,0.3,0.2,0.5,0.4s0.2,0.3,0.2,0.5c0.1,0.2,0.1,0.4,0.1,0.6v4.2c0,0,0,0.1,0,0.1
		c0,0,0,0.1,0,0.1c0,0,0,0.1,0.1,0.1c0,0,0.1,0,0.2,0c0.1,0,0.2,0,0.2-0.1c0.1-0.1,0.1-0.1,0.2-0.2l0.2,0.1
		c-0.1,0.1-0.1,0.2-0.3,0.3c-0.1,0.1-0.2,0.2-0.4,0.3c-0.1,0.1-0.3,0.2-0.5,0.3c-0.2,0.1-0.4,0.1-0.6,0.1c-0.2,0-0.4,0-0.5-0.1
		c-0.1-0.1-0.3-0.1-0.4-0.2c-0.1-0.1-0.2-0.2-0.2-0.3c0-0.1-0.1-0.2-0.1-0.4v-4.6c0-0.1,0-0.1,0-0.2c0-0.1,0-0.1-0.1-0.2
		c0-0.1-0.1-0.1-0.1-0.1c-0.1,0-0.1-0.1-0.2-0.1c-0.1,0-0.2,0-0.4,0.1c-0.1,0.1-0.2,0.2-0.3,0.2c-0.1,0.1-0.2,0.2-0.3,0.3
		s-0.1,0.2-0.2,0.2V133.6z"/>
	<path class="st6" d="M110.4,130.7c0-0.6,0.1-1.1,0.3-1.6c0.2-0.4,0.4-0.8,0.7-1.1c0.3-0.3,0.6-0.5,1-0.7s0.8-0.2,1.2-0.2
		s0.8,0.1,1.2,0.2c0.4,0.1,0.7,0.4,1,0.6c0.3,0.3,0.5,0.7,0.7,1.1c0.2,0.4,0.3,1,0.3,1.6c0,0.6-0.1,1.1-0.3,1.6s-0.4,0.8-0.7,1.2
		c-0.3,0.3-0.6,0.6-1,0.7c-0.4,0.2-0.8,0.2-1.2,0.2s-0.8-0.1-1.2-0.2c-0.4-0.2-0.7-0.4-1-0.7c-0.3-0.3-0.5-0.7-0.7-1.1
		S110.4,131.3,110.4,130.7z M114.6,130.6c0-0.4,0-0.7,0-1.1c0-0.3-0.1-0.6-0.1-0.9s-0.2-0.5-0.3-0.6c-0.1-0.2-0.3-0.2-0.5-0.2
		s-0.4,0.1-0.5,0.2c-0.1,0.2-0.2,0.4-0.3,0.7c-0.1,0.3-0.1,0.6-0.1,0.9s0,0.7,0,1.1s0,0.7,0,1.1c0,0.3,0.1,0.7,0.1,0.9
		s0.2,0.5,0.3,0.7c0.1,0.2,0.3,0.2,0.5,0.2s0.4-0.1,0.5-0.3s0.2-0.4,0.3-0.7s0.1-0.6,0.1-1C114.6,131.3,114.6,131,114.6,130.6z"/>
	<path class="st6" d="M120.2,127.6c-0.1,0-0.2,0-0.3,0c-0.1,0-0.2,0.1-0.2,0.1c-0.1,0.1-0.1,0.1-0.2,0.2c0,0.1-0.1,0.2-0.1,0.3
		c0,0.2,0.1,0.4,0.2,0.5c0.1,0.2,0.3,0.4,0.5,0.5c0.2,0.2,0.4,0.4,0.6,0.6c0.2,0.2,0.4,0.4,0.6,0.6c0.2,0.2,0.4,0.5,0.5,0.7
		c0.1,0.3,0.2,0.5,0.2,0.8c0,0.3-0.1,0.6-0.2,0.9c-0.1,0.3-0.3,0.5-0.5,0.6c-0.2,0.2-0.5,0.3-0.8,0.4c-0.3,0.1-0.6,0.1-1,0.1
		c-0.3,0-0.6,0-0.9-0.1c-0.3-0.1-0.5-0.2-0.7-0.3c-0.2-0.1-0.4-0.3-0.5-0.4s-0.3-0.3-0.3-0.4l0.2-0.2c0.1,0.1,0.1,0.1,0.2,0.2
		c0.1,0.1,0.2,0.2,0.3,0.2c0.1,0.1,0.2,0.1,0.4,0.2c0.1,0,0.3,0.1,0.4,0.1c0.3,0,0.6-0.1,0.8-0.2c0.2-0.2,0.3-0.4,0.3-0.7
		c0-0.2-0.1-0.4-0.2-0.5c-0.1-0.2-0.3-0.4-0.4-0.6s-0.4-0.4-0.6-0.6s-0.4-0.4-0.6-0.6s-0.3-0.5-0.4-0.7s-0.2-0.5-0.2-0.7
		c0-0.3,0.1-0.5,0.2-0.8c0.1-0.2,0.3-0.4,0.5-0.5c0.2-0.1,0.4-0.2,0.7-0.3c0.2-0.1,0.5-0.1,0.8-0.1c0.3,0,0.6,0,0.8,0.1
		s0.5,0.1,0.6,0.2c0.2,0.1,0.3,0.3,0.4,0.4c0.1,0.2,0.1,0.4,0.1,0.6c0,0.2-0.1,0.3-0.2,0.5s-0.3,0.2-0.5,0.2c-0.2,0-0.3,0-0.4-0.1
		c-0.1-0.1-0.2-0.2-0.2-0.3c0-0.1,0-0.2,0.1-0.2c0-0.1,0.1-0.1,0.2-0.1c0.1,0,0.1-0.1,0.2-0.1c0,0,0.1-0.1,0.1-0.1
		c0-0.1-0.1-0.2-0.2-0.3C120.6,127.7,120.5,127.6,120.2,127.6z"/>
	<path class="st6" d="M126.6,128.3c0-0.1,0-0.2-0.1-0.3c-0.1-0.1-0.2-0.1-0.3-0.1c-0.1,0-0.1,0-0.2,0s-0.1,0.1-0.2,0.1l-0.1-0.2
		c0.1-0.1,0.2-0.2,0.4-0.3c0.1-0.1,0.3-0.2,0.4-0.2s0.3-0.1,0.5-0.2s0.4-0.1,0.5-0.1c0.2,0,0.4,0,0.5,0.1s0.3,0.1,0.4,0.2
		c0.1,0.1,0.2,0.2,0.2,0.3c0,0.1,0.1,0.2,0.1,0.2c0.1-0.1,0.2-0.2,0.3-0.3c0.1-0.1,0.3-0.2,0.4-0.3c0.1-0.1,0.3-0.1,0.5-0.2
		c0.2,0,0.3-0.1,0.5-0.1c0.4,0,0.7,0.1,1,0.2s0.5,0.4,0.8,0.7c0.2,0.3,0.4,0.7,0.5,1.1s0.2,0.9,0.2,1.5c0,0.7-0.1,1.2-0.2,1.7
		c-0.1,0.5-0.3,0.8-0.5,1.1c-0.2,0.3-0.5,0.5-0.8,0.6c-0.3,0.1-0.6,0.2-0.9,0.2c-0.3,0-0.5,0-0.7-0.1c-0.2,0-0.4-0.1-0.5-0.2
		s-0.3-0.1-0.3-0.2c-0.1-0.1-0.2-0.1-0.2-0.2v3.3c0,0.1,0,0.1,0,0.2s-0.1,0.2-0.1,0.2c-0.1,0.1-0.2,0.1-0.3,0.2
		c-0.1,0.1-0.3,0.1-0.6,0.1s-0.4,0-0.6-0.1c-0.1-0.1-0.2-0.1-0.3-0.2c-0.1-0.1-0.1-0.2-0.1-0.2c0-0.1,0-0.1,0-0.2V128.3z
		 M128.7,132.6c0,0,0,0.1,0,0.2s0.1,0.2,0.2,0.3s0.2,0.2,0.3,0.3c0.1,0.1,0.2,0.1,0.4,0.1c0.2,0,0.4-0.1,0.5-0.2
		c0.1-0.2,0.3-0.4,0.3-0.6c0.1-0.3,0.2-0.6,0.2-0.9c0-0.3,0.1-0.7,0.1-1.1c0-0.5,0-0.9-0.1-1.2c-0.1-0.3-0.1-0.6-0.2-0.8
		c-0.1-0.2-0.2-0.4-0.4-0.5c-0.1-0.1-0.3-0.1-0.5-0.1c-0.1,0-0.2,0-0.3,0.1c-0.1,0.1-0.2,0.1-0.3,0.2c-0.1,0.1-0.1,0.2-0.2,0.3
		s-0.1,0.2-0.1,0.3V132.6z"/>
	<path class="st6" d="M136.1,127.6c-0.2,0-0.3,0-0.4,0.1s-0.2,0.1-0.3,0.1s-0.2,0.1-0.2,0.2c-0.1,0.1-0.1,0.1-0.1,0.2
		c0,0.1,0,0.1,0.1,0.1c0.1,0,0.1,0.1,0.2,0.1c0.1,0,0.2,0.1,0.2,0.2c0.1,0.1,0.1,0.2,0.1,0.3c0,0.1,0,0.2-0.1,0.3
		c0,0.1-0.1,0.2-0.2,0.2c-0.1,0.1-0.1,0.1-0.2,0.1c-0.1,0-0.2,0.1-0.3,0.1c-0.3,0-0.5-0.1-0.6-0.3c-0.2-0.2-0.2-0.4-0.2-0.7
		c0-0.3,0.1-0.5,0.2-0.7c0.1-0.2,0.3-0.4,0.6-0.5c0.2-0.1,0.5-0.2,0.8-0.3c0.3-0.1,0.6-0.1,0.9-0.1c0.4,0,0.7,0,1,0.1
		s0.6,0.2,0.9,0.4c0.2,0.2,0.4,0.4,0.6,0.6c0.1,0.3,0.2,0.6,0.2,0.9v3.9c0,0,0,0.1,0,0.1s0,0.1,0,0.1s0,0.1,0.1,0.1s0.1,0,0.2,0
		c0.1,0,0.2,0,0.2-0.1c0.1-0.1,0.1-0.1,0.2-0.2l0.2,0.1c-0.1,0.1-0.2,0.2-0.2,0.3s-0.2,0.2-0.3,0.3s-0.3,0.2-0.5,0.3
		s-0.4,0.1-0.6,0.1c-0.3,0-0.5-0.1-0.8-0.3c-0.2-0.2-0.4-0.4-0.4-0.8c-0.1,0.2-0.3,0.4-0.5,0.5c-0.2,0.1-0.3,0.2-0.5,0.3
		s-0.3,0.1-0.5,0.2c-0.2,0-0.3,0.1-0.5,0.1c-0.2,0-0.4,0-0.6-0.1s-0.4-0.2-0.6-0.3c-0.2-0.1-0.3-0.3-0.4-0.6
		c-0.1-0.2-0.1-0.5-0.1-0.9c0-0.4,0.1-0.8,0.2-1s0.4-0.5,0.6-0.7c0.3-0.2,0.6-0.3,0.9-0.5c0.3-0.1,0.7-0.3,1-0.4
		c0.3-0.1,0.5-0.3,0.6-0.5c0.1-0.2,0.2-0.4,0.2-0.6c0-0.3-0.1-0.6-0.3-0.8C136.7,127.7,136.4,127.6,136.1,127.6z M137.2,130.6
		c0-0.1,0-0.2-0.1-0.3s-0.2-0.1-0.3-0.1c-0.2,0-0.3,0-0.5,0.1c-0.1,0.1-0.3,0.2-0.4,0.3s-0.2,0.3-0.3,0.5c-0.1,0.2-0.1,0.4-0.1,0.7
		c0,0.3,0,0.5,0.1,0.7c0,0.2,0.1,0.3,0.2,0.4c0.1,0.1,0.1,0.2,0.2,0.2s0.2,0.1,0.3,0.1c0.1,0,0.2,0,0.3-0.1c0.1-0.1,0.2-0.1,0.3-0.2
		s0.1-0.2,0.2-0.3s0.1-0.2,0.1-0.4V130.6z"/>
	<path class="st6" d="M143.3,128.5c0.2-0.3,0.4-0.5,0.6-0.7c0.1-0.1,0.2-0.2,0.3-0.3s0.2-0.2,0.3-0.2c0.1-0.1,0.2-0.1,0.3-0.2
		s0.2-0.1,0.3-0.1c0.2,0,0.4,0.1,0.5,0.2c0.1,0.1,0.2,0.3,0.2,0.6c0,0.2,0,0.3,0,0.4c0,0.1-0.1,0.3-0.1,0.5h-0.2
		c0-0.1-0.1-0.3-0.2-0.4c-0.1-0.1-0.2-0.1-0.4-0.1c-0.1,0-0.3,0-0.4,0.1c-0.1,0.1-0.3,0.1-0.4,0.2c-0.1,0.1-0.3,0.2-0.4,0.3
		c-0.1,0.1-0.2,0.2-0.3,0.3v4.4c0,0.1,0,0.1,0,0.2s-0.1,0.2-0.1,0.2c-0.1,0.1-0.2,0.1-0.3,0.2c-0.1,0.1-0.3,0.1-0.6,0.1
		s-0.4,0-0.6-0.1c-0.1-0.1-0.2-0.1-0.3-0.2s-0.1-0.2-0.1-0.2s0-0.1,0-0.2v-5.3c0-0.1,0-0.2-0.1-0.3c-0.1-0.1-0.2-0.1-0.3-0.1
		c-0.1,0-0.1,0-0.2,0s-0.1,0.1-0.2,0.1l-0.1-0.2c0.1-0.1,0.2-0.2,0.4-0.3c0.1-0.1,0.3-0.2,0.4-0.2s0.3-0.1,0.5-0.2s0.4-0.1,0.5-0.1
		c0.2,0,0.4,0,0.5,0.1c0.1,0.1,0.3,0.1,0.3,0.2c0.1,0.1,0.2,0.2,0.2,0.3s0.1,0.2,0.1,0.3c0,0.1,0,0.2,0,0.3
		C143.3,128.4,143.3,128.5,143.3,128.5z"/>
	<path class="st6" d="M148.5,127.6c-0.2,0-0.3,0-0.4,0.1s-0.2,0.1-0.3,0.1s-0.2,0.1-0.2,0.2c-0.1,0.1-0.1,0.1-0.1,0.2
		c0,0.1,0,0.1,0.1,0.1c0.1,0,0.1,0.1,0.2,0.1c0.1,0,0.2,0.1,0.2,0.2c0.1,0.1,0.1,0.2,0.1,0.3c0,0.1,0,0.2-0.1,0.3
		c0,0.1-0.1,0.2-0.2,0.2c-0.1,0.1-0.1,0.1-0.2,0.1c-0.1,0-0.2,0.1-0.3,0.1c-0.3,0-0.5-0.1-0.6-0.3c-0.2-0.2-0.2-0.4-0.2-0.7
		c0-0.3,0.1-0.5,0.2-0.7c0.1-0.2,0.3-0.4,0.6-0.5c0.2-0.1,0.5-0.2,0.8-0.3c0.3-0.1,0.6-0.1,0.9-0.1c0.4,0,0.7,0,1,0.1
		s0.6,0.2,0.9,0.4c0.2,0.2,0.4,0.4,0.6,0.6c0.1,0.3,0.2,0.6,0.2,0.9v3.9c0,0,0,0.1,0,0.1s0,0.1,0,0.1s0,0.1,0.1,0.1s0.1,0,0.2,0
		c0.1,0,0.2,0,0.2-0.1c0.1-0.1,0.1-0.1,0.2-0.2l0.2,0.1c-0.1,0.1-0.2,0.2-0.2,0.3s-0.2,0.2-0.3,0.3s-0.3,0.2-0.5,0.3
		s-0.4,0.1-0.6,0.1c-0.3,0-0.5-0.1-0.8-0.3c-0.2-0.2-0.4-0.4-0.4-0.8c-0.1,0.2-0.3,0.4-0.5,0.5c-0.2,0.1-0.3,0.2-0.5,0.3
		s-0.3,0.1-0.5,0.2c-0.2,0-0.3,0.1-0.5,0.1c-0.2,0-0.4,0-0.6-0.1s-0.4-0.2-0.6-0.3c-0.2-0.1-0.3-0.3-0.4-0.6
		c-0.1-0.2-0.1-0.5-0.1-0.9c0-0.4,0.1-0.8,0.2-1s0.4-0.5,0.6-0.7c0.3-0.2,0.6-0.3,0.9-0.5c0.3-0.1,0.7-0.3,1-0.4
		c0.3-0.1,0.5-0.3,0.6-0.5c0.1-0.2,0.2-0.4,0.2-0.6c0-0.3-0.1-0.6-0.3-0.8C149.1,127.7,148.8,127.6,148.5,127.6z M149.6,130.6
		c0-0.1,0-0.2-0.1-0.3s-0.2-0.1-0.3-0.1c-0.2,0-0.3,0-0.5,0.1c-0.1,0.1-0.3,0.2-0.4,0.3s-0.2,0.3-0.3,0.5c-0.1,0.2-0.1,0.4-0.1,0.7
		c0,0.3,0,0.5,0.1,0.7c0,0.2,0.1,0.3,0.2,0.4c0.1,0.1,0.1,0.2,0.2,0.2s0.2,0.1,0.3,0.1c0.1,0,0.2,0,0.3-0.1c0.1-0.1,0.2-0.1,0.3-0.2
		s0.1-0.2,0.2-0.3s0.1-0.2,0.1-0.4V130.6z"/>
	<path class="st6" d="M94.6,145.2c0-0.2-0.1-0.3-0.1-0.4c-0.1-0.1-0.2-0.2-0.3-0.2c-0.1,0-0.1,0-0.2,0c-0.1,0-0.1,0.1-0.2,0.1
		l-0.1-0.2c0.1-0.1,0.2-0.2,0.4-0.3c0.1-0.1,0.3-0.2,0.4-0.2s0.3-0.1,0.5-0.2s0.4-0.1,0.5-0.1c0.3,0,0.5,0,0.7,0.1
		c0.2,0.1,0.3,0.2,0.4,0.3c0.1,0.1,0.2,0.3,0.2,0.4s0.1,0.3,0.1,0.4c0.2,1.4,0.4,2.4,0.6,3.1s0.5,1.1,0.7,1.1c0.2,0,0.3-0.1,0.5-0.3
		c0.1-0.2,0.3-0.4,0.4-0.7c0.1-0.3,0.2-0.7,0.3-1.1s0.1-0.8,0.1-1.3c0-0.3,0-0.6-0.1-0.8c0-0.2-0.1-0.4-0.1-0.5s-0.1-0.3-0.1-0.4
		c0-0.1-0.1-0.2-0.1-0.2c0-0.1,0-0.1,0.1-0.2s0.1-0.1,0.2-0.1c0.1,0,0.2-0.1,0.2-0.1c0.1,0,0.1,0,0.2,0c0.1,0,0.2,0,0.3,0.1
		s0.1,0.1,0.1,0.2c0,0.1,0.1,0.3,0.1,0.5c0,0.2,0,0.4,0,0.7c0,0.4,0,0.7-0.1,1.2c0,0.4-0.1,0.8-0.2,1.3c-0.1,0.4-0.2,0.8-0.4,1.2
		s-0.3,0.7-0.5,1.1c-0.2,0.3-0.4,0.6-0.7,0.7c-0.3,0.2-0.6,0.3-0.9,0.3c-0.4,0-0.7-0.1-1-0.3s-0.5-0.5-0.7-0.9
		c-0.2-0.4-0.4-0.7-0.5-1.2s-0.2-0.9-0.3-1.3c-0.1-0.4-0.1-0.9-0.2-1.2C94.7,145.8,94.6,145.4,94.6,145.2z"/>
	<path class="st6" d="M101,147.5c0-0.6,0.1-1.1,0.3-1.6c0.2-0.4,0.4-0.8,0.7-1.1c0.3-0.3,0.6-0.5,1-0.7s0.8-0.2,1.2-0.2
		s0.8,0.1,1.2,0.2c0.4,0.1,0.7,0.4,1,0.6c0.3,0.3,0.5,0.7,0.7,1.1c0.2,0.4,0.3,1,0.3,1.6c0,0.6-0.1,1.1-0.3,1.6s-0.4,0.8-0.7,1.2
		c-0.3,0.3-0.6,0.6-1,0.7c-0.4,0.2-0.8,0.2-1.2,0.2s-0.8-0.1-1.2-0.2c-0.4-0.2-0.7-0.4-1-0.7c-0.3-0.3-0.5-0.7-0.7-1.1
		S101,148.1,101,147.5z M105.2,147.4c0-0.4,0-0.7,0-1.1c0-0.3-0.1-0.6-0.1-0.9s-0.2-0.5-0.3-0.6c-0.1-0.2-0.3-0.2-0.5-0.2
		s-0.4,0.1-0.5,0.2c-0.1,0.2-0.2,0.4-0.3,0.7c-0.1,0.3-0.1,0.6-0.1,0.9s0,0.7,0,1.1s0,0.7,0,1.1c0,0.3,0.1,0.7,0.1,0.9
		s0.2,0.5,0.3,0.7c0.1,0.2,0.3,0.2,0.5,0.2s0.4-0.1,0.5-0.3s0.2-0.4,0.3-0.7s0.1-0.6,0.1-1C105.2,148.1,105.2,147.8,105.2,147.4z"/>
	<path class="st6" d="M113,146.2c-0.1,0-0.3,0-0.4-0.1c-0.1,0-0.2-0.1-0.2-0.2s-0.1-0.2-0.1-0.2c0-0.1,0-0.2,0-0.3
		c0-0.1,0-0.2,0-0.4c0-0.1,0-0.2,0-0.3c0-0.1,0-0.2-0.1-0.2s-0.2-0.1-0.3-0.1c-0.2,0-0.3,0-0.5,0.1s-0.3,0.2-0.5,0.4
		s-0.3,0.4-0.4,0.8c-0.1,0.3-0.1,0.7-0.1,1.1c0,0.5,0,0.9,0.1,1.3c0.1,0.4,0.2,0.7,0.4,1s0.4,0.5,0.7,0.6c0.3,0.2,0.6,0.2,0.9,0.2
		c0.2,0,0.3,0,0.5-0.1c0.1,0,0.3-0.1,0.4-0.2s0.2-0.1,0.4-0.2c0.1-0.1,0.2-0.2,0.3-0.3l0.2,0.2c-0.1,0.1-0.2,0.3-0.4,0.5
		s-0.4,0.3-0.6,0.5c-0.2,0.1-0.5,0.3-0.8,0.4c-0.3,0.1-0.7,0.1-1.1,0.1s-0.8-0.1-1.2-0.2c-0.4-0.2-0.7-0.4-1-0.7s-0.5-0.6-0.7-1.1
		c-0.2-0.4-0.3-0.9-0.3-1.4c0-0.4,0.1-0.8,0.2-1.1c0.1-0.3,0.2-0.7,0.4-0.9c0.2-0.3,0.4-0.5,0.6-0.7c0.2-0.2,0.5-0.4,0.8-0.5
		c0.3-0.1,0.5-0.3,0.8-0.3c0.3-0.1,0.5-0.1,0.8-0.1c0.3,0,0.6,0,0.9,0.1s0.5,0.2,0.6,0.3c0.2,0.1,0.3,0.3,0.4,0.4
		c0.1,0.2,0.1,0.3,0.1,0.5c0,0.1,0,0.3-0.1,0.4c0,0.1-0.1,0.2-0.2,0.3c-0.1,0.1-0.1,0.2-0.2,0.2C113.2,146.2,113.1,146.2,113,146.2z
		"/>
	<path class="st6" d="M116.9,147.8c0,0.1,0,0.3,0.1,0.5c0,0.2,0.1,0.3,0.2,0.5s0.2,0.3,0.3,0.5c0.1,0.2,0.3,0.3,0.4,0.4
		c0.2,0.1,0.3,0.2,0.5,0.3s0.4,0.1,0.6,0.1c0.2,0,0.3,0,0.4-0.1s0.3-0.1,0.4-0.2s0.2-0.1,0.3-0.2c0.1-0.1,0.2-0.2,0.3-0.3l0.2,0.2
		c-0.1,0.1-0.2,0.3-0.4,0.5s-0.4,0.3-0.6,0.5c-0.2,0.1-0.5,0.3-0.8,0.4c-0.3,0.1-0.7,0.1-1.1,0.1s-0.8-0.1-1.2-0.2
		c-0.4-0.1-0.7-0.4-1-0.6s-0.5-0.6-0.7-1.1c-0.2-0.4-0.3-0.9-0.3-1.5c0-0.4,0.1-0.8,0.2-1.1s0.2-0.7,0.4-0.9
		c0.2-0.3,0.4-0.5,0.6-0.7c0.2-0.2,0.5-0.4,0.8-0.5c0.3-0.1,0.5-0.2,0.8-0.3c0.3-0.1,0.5-0.1,0.8-0.1c0.3,0,0.6,0,0.9,0.1
		s0.5,0.2,0.6,0.3c0.2,0.1,0.3,0.3,0.4,0.4c0.1,0.2,0.1,0.3,0.1,0.5c0,0.2-0.1,0.4-0.2,0.6c-0.1,0.2-0.3,0.3-0.5,0.4L116.9,147.8z
		 M118.4,141l1.5,2l-0.2,0.2L118,142l-1.7,1.2L116,143l1.5-2H118.4z M118.2,146.4c0.1,0,0.1-0.1,0.1-0.1c0,0,0.1-0.1,0.1-0.1
		c0,0,0-0.1,0.1-0.2c0-0.1,0-0.2,0-0.3c0-0.1,0-0.2,0-0.4c0-0.1-0.1-0.3-0.1-0.4s-0.1-0.2-0.2-0.3s-0.2-0.1-0.3-0.1
		c-0.2,0-0.3,0-0.4,0.1c-0.1,0.1-0.2,0.2-0.3,0.4c-0.1,0.2-0.1,0.3-0.2,0.5c0,0.2-0.1,0.4-0.1,0.6s0,0.4,0,0.6c0,0.2,0,0.3,0,0.5
		L118.2,146.4z"/>
	<path class="st6" d="M122.1,149.9c0-0.2,0-0.3,0.1-0.5s0.1-0.3,0.2-0.4c0.1-0.1,0.2-0.2,0.4-0.2c0.1-0.1,0.3-0.1,0.5-0.1
		s0.3,0,0.5,0.1c0.1,0.1,0.3,0.1,0.4,0.2s0.2,0.2,0.2,0.4c0.1,0.1,0.1,0.3,0.1,0.5c0,0.2,0,0.3-0.1,0.5c-0.1,0.1-0.1,0.3-0.2,0.4
		c-0.1,0.1-0.2,0.2-0.4,0.2s-0.3,0.1-0.5,0.1s-0.3,0-0.5-0.1s-0.3-0.1-0.4-0.2c-0.1-0.1-0.2-0.2-0.2-0.4
		C122.2,150.2,122.1,150.1,122.1,149.9z M122.2,141.4c0,0,0-0.1,0-0.2s0.1-0.2,0.1-0.2c0.1-0.1,0.2-0.1,0.3-0.2
		c0.1-0.1,0.3-0.1,0.6-0.1s0.4,0,0.6,0.1c0.1,0,0.3,0.1,0.3,0.2c0.1,0.1,0.1,0.1,0.2,0.2c0,0.1,0,0.1,0,0.2c0,0.4-0.1,0.8-0.1,1.2
		c0,0.4-0.1,0.8-0.1,1.2s-0.1,0.7-0.1,1.1c0,0.4-0.1,0.7-0.1,1c-0.1,0.7-0.2,1.4-0.3,2.1H123c-0.1-0.7-0.2-1.4-0.3-2.1
		c0-0.3-0.1-0.6-0.1-1c0-0.4-0.1-0.7-0.1-1.1c0-0.4-0.1-0.8-0.1-1.2S122.2,141.8,122.2,141.4z"/>
</g>
</svg>
