<?xml version="1.0" encoding="utf-8"?>
<!-- Generator: Adobe Illustrator 24.0.1, SVG Export Plug-In . SVG Version: 6.00 Build 0)  -->
<svg version="1.1" id="Camada_1" xmlns="http://www.w3.org/2000/svg" xmlns:xlink="http://www.w3.org/1999/xlink" x="0px" y="0px"
	 viewBox="0 0 500 500" style="enable-background:new 0 0 500 500;" xml:space="preserve">
<style type="text/css">
	.st0{fill:#D28A47;}
	.st1{fill:#A8662F;}
	.st2{fill:#B7DBEB;}
	.st3{fill:#7893A1;}
	.st4{fill:#AACBDA;}
	.st5{opacity:0.1;fill:#333B40;}
	.st6{fill:#FDB232;}
	.st7{fill:#6C392C;}
	.st8{fill:#C7ECFD;}
	.st9{fill:#FDC63D;}
	.st10{fill:#FDDF5A;}
	.st11{fill:#FD5A4E;}
	.st12{fill:#FD7E68;}
	.st13{opacity:0.1;fill:#4A340E;}
	.st14{fill:#FDD555;}
	.st15{fill:#705F25;}
	.st16{opacity:0.1;fill:#455359;}
	.st17{fill:#E2E8F4;}
	.st18{fill:#D4D9E9;}
	.st19{fill:#76C1FB;}
	.st20{opacity:0.1;fill:#2D2E30;}
	.st21{fill:#F7C709;}
	.st22{fill:#EDE8E4;}
	.st23{fill:#876746;}
	.st24{fill:#DEB307;}
	.st25{fill:#B06E30;}
	.st26{opacity:0.1;fill:#3B3002;}
	.st27{fill:#ED5540;}
	.st28{fill:#CEC4DC;}
	.st29{opacity:0.1;fill:#3D3010;}
	.st30{fill:#526D8A;}
	.st31{fill:#8CD0F3;}
	.st32{fill:#CDE6F3;}
	.st33{fill:#394B61;}
	.st34{opacity:0.1;fill:#283645;}
	.st35{fill:#DFE1E6;}
	.st36{fill:#717114;}
	.st37{fill:#C7C8CD;}
	.st38{opacity:0.1;fill:#2A2A2B;}
	.st39{fill:#E0F2FC;}
	.st40{fill:#D0DFE9;}
	.st41{opacity:0.1;fill:#666E73;}
	.st42{fill:#FDBC07;}
	.st43{fill:#E6AB07;}
	.st44{fill:#FBC068;}
	.st45{fill:#FCE680;}
	.st46{fill:#B58A4B;}
	.st47{fill:#FDEFA9;}
	.st48{fill:#EE5226;}
	.st49{fill:#A72E23;}
	.st50{opacity:0.1;}
	.st51{fill:#4F4728;}
	.st52{fill:#94C9F3;}
	.st53{fill:#BDE1FD;}
	.st54{fill:#56748A;}
	.st55{fill:#B746BD;}
	.st56{fill:#DA53E1;}
	.st57{opacity:0.1;fill:#411842;}
	.st58{fill:#CA722D;}
	.st59{fill:#B05927;}
	.st60{fill:#FCD21B;}
	.st61{fill:#ECC51C;}
	.st62{fill:#F8A623;}
	.st63{fill:#D7E1E6;}
	.st64{fill:#C1CFD6;}
	.st65{fill:#333333;}
	.st66{fill:#CACACA;}
	.st67{fill:#D68747;}
	.st68{fill:#B1B2B2;}
	.st69{fill:#C2783F;}
	.st70{fill:#D69D55;}
	.st71{fill:#EDB96A;}
	.st72{fill:#A56B37;}
	.st73{fill:#F2CD28;}
	.st74{fill:#E4E4E4;}
	.st75{fill:#F17B65;}
	.st76{opacity:0.1;fill:#7B3E33;}
	.st77{fill:#AA5748;}
	.st78{fill:#A63F12;}
	.st79{fill:#EB5919;}
	.st80{fill:#F68688;}
	.st81{fill:#86330E;}
	.st82{fill:#F36968;}
	.st83{fill:#FFEBEE;}
	.st84{fill:#FFCDD2;}
	.st85{fill:#CFD8DC;}
	.st86{fill:#90A4AE;}
	.st87{fill:#B0BEC5;}
	.st88{fill:#FBE9E7;}
	.st89{fill:#E0F2F1;}
	.st90{fill:#B2DFDB;}
	.st91{fill:#ECEFF1;}
	.st92{fill:#EDE7F6;}
	.st93{fill:#D1C4E9;}
	.st94{fill:#78909C;}
	.st95{fill:#62808C;}
	.st96{fill:#FFF3E0;}
	.st97{fill:#FFE0B2;}
	.st98{fill:#E1E6EA;}
	.st99{fill:#E0F7FA;}
	.st100{fill:#B2EBF2;}
	.st101{fill:#E3F2FD;}
	.st102{fill:#BBDEFB;}
	.st103{fill:#A4B5BC;}
	.st104{fill:#F4D9BE;}
	.st105{fill:#AC9173;stroke:#876A54;stroke-miterlimit:10;}
	.st106{fill:#6AA6AB;}
	.st107{fill:#FFFFFF;}
	.st108{fill:#FFC2C4;}
	.st109{fill:#4A311A;}
	.st110{fill:#FFFFA4;}
	.st111{fill:#8192A4;}
	.st112{fill:#425059;}
	.st113{opacity:0.3;fill:#8192A4;enable-background:new    ;}
	.st114{opacity:0.4;fill:#8192A4;enable-background:new    ;}
	.st115{fill:#9BB3C9;}
	.st116{fill:#6F774B;}
	.st117{fill:#8D9968;}
	.st118{fill:#E94E1B;}
	.st119{fill:#F9B233;}
	.st120{fill:#FFF9AE;}
	.st121{fill:#F39200;}
	.st122{fill:#936037;}
	.st123{fill:#CA9E67;}
	.st124{fill:#7D4E24;}
	.st125{opacity:0.3;fill:#CA9E67;enable-background:new    ;}
	.st126{opacity:0.4;fill:#CA9E67;enable-background:new    ;}
	.st127{fill:#A3B9CC;}
	.st128{fill:#E30613;}
	.st129{fill:#566872;}
	.st130{fill:#B17F4A;}
	.st131{fill:#EDEDED;}
	.st132{fill:#00FFFF;}
	.st133{fill:#996483;}
	.st134{fill:#845A78;}
	.st135{fill:#FFED00;}
	.st136{fill:url(#SVGID_1_);}
</style>
<g>
	<path class="st121" d="M340.65,118.1c-17.4,0-37-13.6-37-13.6l0,0c-3.3-3.4-7.1-6.5-11.1-9.2c17.2-2.9,23.1-13.5,23.1-13.5
		c-9.7,9.7-49.6,2.1-49.6,2.1l0,0c-23-5.4-47.9-0.9-62.1,16.7c0,0-28.9,8.3-35.5,39.1l0,0l0,0c-1,4.8-1.5,10.2-1.3,16.2
		c-1.6,12.2-5.1,28-12.7,35.7c0,0,8.4-7.4,15.6-17.2c2.8,10.9,7.6,23.3,15.4,37.4l111.4-10.6c0,0,6.8-8.6,12.9-21.4
		c0.6,5.7,2.4,11.2,5.9,15.7c0,0-2.2-14.5,1.4-36c0.6-2.4,1.1-4.9,1.4-7.4V152l0,0c1.5-10.7,0.7-22.1-4.5-32.9
		c-0.3-0.7-0.7-1.4-1.1-2.1C327.75,122.1,340.65,118.1,340.65,118.1z"/>
	<polygon class="st122" points="185.35,206.6 213.45,358.4 236.05,355.7 245.95,317.7 259.45,317.7 277.45,357.6 290.45,358.6 
		314.15,206.6 	"/>
	<path class="st122" d="M168.65,220.6c0,0-24.6,85.3-9.1,100.8l32.1-12.4c0,0-1.2-58.6,9.2-88.9"/>
	<path class="st104" d="M362.25,242.5c22.2-1.8,29.2,15.6,24,32.3s-24,2.3-24,2.3"/>
	<polygon class="st109" points="384.05,112.9 365.95,289.5 384.75,293.3 407.05,116.4 	"/>
	<path class="st104" d="M368.45,249.3c0,0,10.1,2.1,10.1,9.4c0,7.3-14.1,14.6-21.9-4.7"/>
	<path class="st122" d="M310.05,206.6c0,0,33.8,33.4,52.3,35.9v34.7c0,0-35.4,10-81.4-36"/>
	<path class="st123" d="M253.85,216.5c0,0,61.5-42.1,73.4-5l-51.5,23.1"/>
	<path class="st123" d="M223.25,206.6c0,0-62.4-21.3-62.4,17.6l50.7,6.3"/>
	<rect x="205.05" y="120.8" class="st104" width="91.7" height="109.7"/>
	<path class="st109" d="M238.95,161.7c5.3,0,9.6-4.3,9.6-9.6h-19.2C229.35,157.4,233.65,161.7,238.95,161.7z"/>
	<path class="st109" d="M282.75,161.7c5.3,0,9.6-4.3,9.6-9.6h-19.2C273.15,157.4,277.45,161.7,282.75,161.7z"/>
	<path class="st104" d="M392.95,249.3c-1.9-2.6-11.8-9.8-11.8,5.2s-3.8,33.4,3.5,33.4S403.55,263.2,392.95,249.3z"/>
	<polyline class="st123" points="362.25,280.3 362.25,240.4 356.65,238.9 354.75,277.2 	"/>
	<polygon class="st123" points="206.05,251.2 251.95,251.2 256.05,230.8 262.95,251.2 300.25,254.3 259.75,255 257.35,250.4 
		253.15,256.4 	"/>
	<polygon class="st123" points="198.75,290.5 300.85,292.3 306.65,305 185.35,302.5 	"/>
	<polyline class="st122" points="290.45,358.6 306.65,362.7 277.95,362.7 273.45,348.8 	"/>
	<g>
		<path class="st104" d="M165.75,286.2c0,0-4.7,26.9,17.6,26.9s-7.4-37.2-7.4-37.2"/>
		<polyline class="st112" points="189.05,320.9 174.45,324.3 205.45,324.3 206.95,318.8 		"/>
		<circle class="st123" cx="183.35" cy="299.1" r="52.8"/>
		<circle class="st124" cx="183.35" cy="299.1" r="47"/>
		<polyline class="st125" points="132.85,283.5 178.45,347.8 146.45,265.1 196.15,346.1 151.95,256.6 218.65,334.6 230.15,318.9 
			180.75,248.3 161.35,253.1 138.65,271.1 		"/>
		<polyline class="st126" points="134.55,285.9 175.85,350 179.85,350.3 138.45,275.9 144.35,263.5 195.25,344.6 148.95,261.2 
			154.75,256.6 215.25,336.8 224.15,327.1 167.45,251.5 145.55,262.2 		"/>
		<circle class="st124" cx="183.35" cy="299.1" r="25.3"/>
		<circle class="st123" cx="183.35" cy="299.1" r="19.8"/>
		<circle class="st124" cx="183.35" cy="299.1" r="12.1"/>
	</g>
	<path class="st121" d="M304.85,123.7c0,0-22.2,10.4-44.1,12.5l1.7-6.3c0,0-30.2-1-35.8,8c0,0-0.9-5.7,2.7-11.5
		c0,0-20.4,11.5-43,11.5s16.5-27.5,16.5-27.5l83.4-5.9"/>
	<path class="st119" d="M200.05,173.4c0,0,5.3,16.6,21.5,18.3s27.4-11.6,39.3-3.8c4,2.6,9.1,12.8-14.2,12.8
		C223.25,200.8,190.85,200.8,200.05,173.4z"/>
	<path class="st119" d="M307.45,188.9c0,0-3.7,9.2-21.2,4.2c-13.2-3.7-12.5-13-22.5-5.1c-3.4,2.6-7.7,12.8,12,12.8
		S307.45,203.3,307.45,188.9z"/>
	<path class="st119" d="M203.95,186c0,0-14.2,27.4-11.5,36.1l7.6-4.2c0,0-3,20.4,9.2,27.4l6-6.4c0,0,24.3,17.3,43.6,22.5
		c0,0,16.9-11.4,22.1-20.2v8.1c0,0,10-3.1,14.2-12.9c0,0,6.8,2.3,9.7,8.9c0,0,6-38.5-10.7-49.6h-1.1l-15.5-2.1c0,0-1.9,13-13.3,13
		c-11.4,0-15.6-12.7-15.6-12.7l-10.4,4.9"/>
	<path class="st108" d="M277.45,176.5c0.8,5.4-10.7,16.8-15.9,15c-6-2-9.8-22-4.2-25.1C262.15,163.7,276.55,171,277.45,176.5z"/>
	<polyline class="st122" points="236.05,355.7 235.05,362.7 203.25,362.7 213.45,358.4 	"/>
	<g>
		<path class="st111" d="M439.05,124.5l0.4-3.2c-20.8,21.3-74.9,5-74.9,5l-3.1,31.2c33.3-5.6,58.3,15.9,69,27.4l0,0
			C454.25,161.2,442.65,131.9,439.05,124.5z"/>
		<path class="st127" d="M442.95,117c-1,1.6-2.2,3-3.5,4.4l-1.9,1.7c3.6,7.5,16.6,38.1-7.1,61.8l0,0c3.8,4,5.8,6.8,5.8,6.8
			C468.25,155.8,442.95,117,442.95,117z"/>
	</g>
</g>
</svg>
