<?xml version="1.0" encoding="utf-8"?>
<!-- Generator: Adobe Illustrator 24.0.1, SVG Export Plug-In . SVG Version: 6.00 Build 0)  -->
<svg version="1.1" id="Camada_1" xmlns="http://www.w3.org/2000/svg" xmlns:xlink="http://www.w3.org/1999/xlink" x="0px" y="0px"
	 viewBox="0 0 500 500" style="enable-background:new 0 0 500 500;" xml:space="preserve">
<style type="text/css">
	.st0{fill:#D28A47;}
	.st1{fill:#A8662F;}
	.st2{fill:#B7DBEB;}
	.st3{fill:#7893A1;}
	.st4{fill:#AACBDA;}
	.st5{opacity:0.1;fill:#333B40;}
	.st6{fill:#FDB232;}
	.st7{fill:#6C392C;}
	.st8{fill:#C7ECFD;}
	.st9{fill:#FDC63D;}
	.st10{fill:#FDDF5A;}
	.st11{fill:#FD5A4E;}
	.st12{fill:#FD7E68;}
	.st13{opacity:0.1;fill:#4A340E;}
	.st14{fill:#FDD555;}
	.st15{fill:#705F25;}
	.st16{opacity:0.1;fill:#455359;}
	.st17{fill:#E2E8F4;}
	.st18{fill:#D4D9E9;}
	.st19{fill:#76C1FB;}
	.st20{opacity:0.1;fill:#2D2E30;}
	.st21{fill:#F7C709;}
	.st22{fill:#EDE8E4;}
	.st23{fill:#876746;}
	.st24{fill:#DEB307;}
	.st25{fill:#B06E30;}
	.st26{opacity:0.1;fill:#3B3002;}
	.st27{fill:#ED5540;}
	.st28{fill:#CEC4DC;}
	.st29{opacity:0.1;fill:#3D3010;}
	.st30{fill:#526D8A;}
	.st31{fill:#8CD0F3;}
	.st32{fill:#CDE6F3;}
	.st33{fill:#394B61;}
	.st34{opacity:0.1;fill:#283645;}
	.st35{fill:#DFE1E6;}
	.st36{fill:#717114;}
	.st37{fill:#C7C8CD;}
	.st38{opacity:0.1;fill:#2A2A2B;}
	.st39{fill:#E0F2FC;}
	.st40{fill:#D0DFE9;}
	.st41{opacity:0.1;fill:#666E73;}
	.st42{fill:#FDBC07;}
	.st43{fill:#E6AB07;}
	.st44{fill:#FBC068;}
	.st45{fill:#FCE680;}
	.st46{fill:#B58A4B;}
	.st47{fill:#FDEFA9;}
	.st48{fill:#EE5226;}
	.st49{fill:#A72E23;}
	.st50{opacity:0.1;}
	.st51{fill:#4F4728;}
	.st52{fill:#94C9F3;}
	.st53{fill:#BDE1FD;}
	.st54{fill:#56748A;}
	.st55{fill:#B746BD;}
	.st56{fill:#DA53E1;}
	.st57{opacity:0.1;fill:#411842;}
	.st58{fill:#CA722D;}
	.st59{fill:#B05927;}
	.st60{fill:#FCD21B;}
	.st61{fill:#ECC51C;}
	.st62{fill:#F8A623;}
	.st63{fill:#D7E1E6;}
	.st64{fill:#C1CFD6;}
	.st65{fill:#333333;}
	.st66{fill:#CACACA;}
	.st67{fill:#D68747;}
	.st68{fill:#B1B2B2;}
	.st69{fill:#C2783F;}
	.st70{fill:#D69D55;}
	.st71{fill:#EDB96A;}
	.st72{fill:#A56B37;}
	.st73{fill:#F2CD28;}
	.st74{fill:#E4E4E4;}
	.st75{fill:#F17B65;}
	.st76{opacity:0.1;fill:#7B3E33;}
	.st77{fill:#AA5748;}
	.st78{fill:#A63F12;}
	.st79{fill:#EB5919;}
	.st80{fill:#F68688;}
	.st81{fill:#86330E;}
	.st82{fill:#F36968;}
	.st83{fill:#FFEBEE;}
	.st84{fill:#FFCDD2;}
	.st85{fill:#CFD8DC;}
	.st86{fill:#90A4AE;}
	.st87{fill:#B0BEC5;}
	.st88{fill:#FBE9E7;}
	.st89{fill:#E0F2F1;}
	.st90{fill:#B2DFDB;}
	.st91{fill:#ECEFF1;}
	.st92{fill:#EDE7F6;}
	.st93{fill:#D1C4E9;}
	.st94{fill:#78909C;}
	.st95{fill:#62808C;}
	.st96{fill:#FFF3E0;}
	.st97{fill:#FFE0B2;}
	.st98{fill:#E1E6EA;}
	.st99{fill:#E0F7FA;}
	.st100{fill:#B2EBF2;}
	.st101{fill:#E3F2FD;}
	.st102{fill:#BBDEFB;}
	.st103{fill:#A4B5BC;}
	.st104{fill:#F4D9BE;}
	.st105{fill:#AC9173;stroke:#876A54;stroke-miterlimit:10;}
	.st106{fill:#6AA6AB;}
	.st107{fill:#FFFFFF;}
	.st108{fill:#FFC2C4;}
	.st109{fill:#4A311A;}
	.st110{fill:#FFFFA4;}
	.st111{fill:#8192A4;}
	.st112{fill:#425059;}
	.st113{opacity:0.3;fill:#8192A4;enable-background:new    ;}
	.st114{opacity:0.4;fill:#8192A4;enable-background:new    ;}
	.st115{fill:#9BB3C9;}
	.st116{fill:#6F774B;}
	.st117{fill:#8D9968;}
	.st118{fill:#E94E1B;}
	.st119{fill:#F9B233;}
	.st120{fill:#FFF9AE;}
	.st121{fill:#F39200;}
	.st122{fill:#936037;}
	.st123{fill:#CA9E67;}
	.st124{fill:#7D4E24;}
	.st125{opacity:0.3;fill:#CA9E67;enable-background:new    ;}
	.st126{opacity:0.4;fill:#CA9E67;enable-background:new    ;}
	.st127{fill:#A3B9CC;}
	.st128{fill:#E30613;}
	.st129{fill:#566872;}
	.st130{fill:#B17F4A;}
	.st131{fill:#EDEDED;}
	.st132{fill:#00FFFF;}
	.st133{fill:#996483;}
	.st134{fill:#845A78;}
	.st135{fill:#FFED00;}
	.st136{fill:url(#SVGID_1_);}
</style>
<g>
	<polyline class="st111" points="377.8,220.2 391.4,61.4 410.3,48.3 426.4,68.1 393.7,225 	"/>
	<polygon class="st112" points="199.6,190.4 223.6,415 242.9,411.1 251.4,354.8 263,354.8 278.3,413.9 289.4,415.4 309.7,190.4 	"/>
	<path class="st104" d="M188.8,298.3c0,0-5.9,34,22.3,34s-9.4-47-9.4-47"/>
	<path class="st112" d="M182.6,208.7c0,0-8.3,82.8,7.2,98.3l24.3-8.7c0,0-25-62.2-14.6-92.4"/>
	<path class="st104" d="M367.2,226.3c22.2-1.8,29.2,15.6,24,32.3s-24,2.3-24,2.3"/>
	<path class="st112" d="M256.5,78.6c0,0-42.9-6.8-48.3,18.6c-4,19.1,19,117.1,19,117.1l16.6-68.2"/>
	<polygon class="st112" points="376.4,220.2 370.9,273.3 389.6,277.1 398,226.2 	"/>
	<path class="st104" d="M373.3,233.1c0,0,10.1,2.1,10.1,9.4s-14.1,14.6-21.9-4.7"/>
	<path class="st112" d="M310.4,203.8c0,0,38.3,20,56.8,22.5V261c0,0-18-0.8-64-46.7"/>
	<path class="st111" d="M260,190.4c0,0,62.4-21.3,62.4,17.6l-49,6.3"/>
	<path class="st111" d="M239,190.4c0,0-62.4-21.3-62.4,17.6l50.7,6.3"/>
	<rect x="227.3" y="104.6" class="st104" width="57.1" height="109.7"/>
	<path class="st109" d="M243.8,145.5c5.3,0,9.6-4.3,9.6-9.6h-19.2C234.2,141.2,238.5,145.5,243.8,145.5z"/>
	<path class="st109" d="M270.9,145.5c5.3,0,9.6-4.3,9.6-9.6h-19.2C261.3,141.2,265.6,145.5,270.9,145.5z"/>
	<path class="st104" d="M397.9,233.1c-1.9-2.6-11.8-9.8-11.8,5.2s-3.8,33.4,3.5,33.4S408.4,247,397.9,233.1z"/>
	<path class="st111" d="M297.6,116.6h-84.1l42.1-44.8C255.5,71.8,301.5,71.2,297.6,116.6z"/>
	<polygon class="st111" points="335.2,213.4 320.5,234.4 327.8,241.6 343.1,216.8 	"/>
	<polyline class="st111" points="367.2,264.1 367.2,224.2 361.5,222.7 359.7,261 	"/>
	<polygon class="st111" points="217.3,256.5 256.5,256.5 260,226.2 265.9,256.5 297.8,261 263.2,262 261.1,255.2 257.6,264.1 	"/>
	<polygon class="st111" points="211.1,314.6 298.3,317.2 303.2,336 199.6,332.3 	"/>
	<polyline class="st112" points="289.4,415.4 303.2,421.3 278.8,421.3 274.9,400.8 	"/>
	<polyline class="st112" points="223.6,415 207.8,421.3 241.2,421.3 242.9,411.1 	"/>
	<circle class="st111" cx="211.1" cy="314.6" r="66.7"/>
	<circle class="st112" cx="211.1" cy="314.6" r="59.4"/>
	<polyline class="st113" points="147.3,294.9 204.9,376.2 164.5,271.7 227.3,374.1 171.4,261 255.6,359.5 270.3,339.7 207.8,250.4 
		183.2,256.5 154.5,279.2 	"/>
	<polyline class="st114" points="149.4,297.9 201.6,378.9 206.7,379.4 154.4,285.3 161.8,269.7 226.1,372.2 167.6,266.7 174.9,261 
		251.4,362.3 262.6,350.1 190.9,254.6 163.3,268 	"/>
	<circle class="st112" cx="211.1" cy="314.6" r="31.9"/>
	<circle class="st111" cx="211.1" cy="314.6" r="25.1"/>
	<circle class="st112" cx="211.1" cy="314.6" r="15.3"/>
	<polygon class="st112" points="364.6,219.7 409.5,232.2 410.2,223.8 366.1,212.6 	"/>
	<polygon class="st115" points="395.5,63.8 404.6,68 387.4,214.3 410.2,70.4 423,69.3 	"/>
	<polyline class="st112" points="266.4,83.9 289.8,111.2 272.6,78.3 	"/>
	<polyline class="st112" points="251.1,91.1 274.5,111.2 257.3,86.9 	"/>
	<polyline class="st112" points="241.4,100.2 256.5,111.2 245.3,97.9 	"/>
	<polygon class="st108" points="260,151.9 280.5,159.4 260,174.4 	"/>
</g>
</svg>
