<?xml version="1.0" encoding="utf-8"?>
<!-- Generator: Adobe Illustrator 24.0.1, SVG Export Plug-In . SVG Version: 6.00 Build 0)  -->
<svg version="1.1" id="Camada_1" xmlns="http://www.w3.org/2000/svg" xmlns:xlink="http://www.w3.org/1999/xlink" x="0px" y="0px"
	 viewBox="0 0 500 500" style="enable-background:new 0 0 500 500;" xml:space="preserve">
<style type="text/css">
	.st0{fill:#D28A47;}
	.st1{fill:#A8662F;}
	.st2{fill:#B7DBEB;}
	.st3{fill:#7893A1;}
	.st4{fill:#AACBDA;}
	.st5{opacity:0.1;fill:#333B40;}
	.st6{fill:#FDB232;}
	.st7{fill:#6C392C;}
	.st8{fill:#C7ECFD;}
	.st9{fill:#FDC63D;}
	.st10{fill:#FDDF5A;}
	.st11{fill:#FD5A4E;}
	.st12{fill:#FD7E68;}
	.st13{opacity:0.1;fill:#4A340E;}
	.st14{fill:#FDD555;}
	.st15{fill:#705F25;}
	.st16{opacity:0.1;fill:#455359;}
	.st17{fill:#E2E8F4;}
	.st18{fill:#D4D9E9;}
	.st19{fill:#76C1FB;}
	.st20{opacity:0.1;fill:#2D2E30;}
	.st21{fill:#F7C709;}
	.st22{fill:#EDE8E4;}
	.st23{fill:#876746;}
	.st24{fill:#DEB307;}
	.st25{fill:#B06E30;}
	.st26{opacity:0.1;fill:#3B3002;}
	.st27{fill:#ED5540;}
	.st28{fill:#CEC4DC;}
	.st29{opacity:0.1;fill:#3D3010;}
	.st30{fill:#526D8A;}
	.st31{fill:#8CD0F3;}
	.st32{fill:#CDE6F3;}
	.st33{fill:#394B61;}
	.st34{opacity:0.1;fill:#283645;}
	.st35{fill:#DFE1E6;}
	.st36{fill:#717114;}
	.st37{fill:#C7C8CD;}
	.st38{opacity:0.1;fill:#2A2A2B;}
	.st39{fill:#E0F2FC;}
	.st40{fill:#D0DFE9;}
	.st41{opacity:0.1;fill:#666E73;}
	.st42{fill:#FDBC07;}
	.st43{fill:#E6AB07;}
	.st44{fill:#FBC068;}
	.st45{fill:#FCE680;}
	.st46{fill:#B58A4B;}
	.st47{fill:#FDEFA9;}
	.st48{fill:#EE5226;}
	.st49{fill:#A72E23;}
	.st50{opacity:0.1;}
	.st51{fill:#4F4728;}
	.st52{fill:#94C9F3;}
	.st53{fill:#BDE1FD;}
	.st54{fill:#56748A;}
	.st55{fill:#B746BD;}
	.st56{fill:#DA53E1;}
	.st57{opacity:0.1;fill:#411842;}
	.st58{fill:#CA722D;}
	.st59{fill:#B05927;}
	.st60{fill:#FCD21B;}
	.st61{fill:#ECC51C;}
	.st62{fill:#F8A623;}
	.st63{fill:#D7E1E6;}
	.st64{fill:#C1CFD6;}
	.st65{fill:#333333;}
	.st66{fill:#CACACA;}
	.st67{fill:#D68747;}
	.st68{fill:#B1B2B2;}
	.st69{fill:#C2783F;}
	.st70{fill:#D69D55;}
	.st71{fill:#EDB96A;}
	.st72{fill:#A56B37;}
	.st73{fill:#F2CD28;}
	.st74{fill:#E4E4E4;}
	.st75{fill:#F17B65;}
	.st76{opacity:0.1;fill:#7B3E33;}
	.st77{fill:#AA5748;}
	.st78{fill:#A63F12;}
	.st79{fill:#EB5919;}
	.st80{fill:#F68688;}
	.st81{fill:#86330E;}
	.st82{fill:#F36968;}
	.st83{fill:#FFEBEE;}
	.st84{fill:#FFCDD2;}
	.st85{fill:#CFD8DC;}
	.st86{fill:#90A4AE;}
	.st87{fill:#B0BEC5;}
	.st88{fill:#FBE9E7;}
	.st89{fill:#E0F2F1;}
	.st90{fill:#B2DFDB;}
	.st91{fill:#ECEFF1;}
	.st92{fill:#EDE7F6;}
	.st93{fill:#D1C4E9;}
	.st94{fill:#78909C;}
	.st95{fill:#62808C;}
	.st96{fill:#FFF3E0;}
	.st97{fill:#FFE0B2;}
	.st98{fill:#E1E6EA;}
	.st99{fill:#E0F7FA;}
	.st100{fill:#B2EBF2;}
	.st101{fill:#E3F2FD;}
	.st102{fill:#BBDEFB;}
	.st103{fill:#A4B5BC;}
	.st104{fill:#F4D9BE;}
	.st105{fill:#AC9173;stroke:#876A54;stroke-miterlimit:10;}
	.st106{fill:#6AA6AB;}
	.st107{fill:#FFFFFF;}
	.st108{fill:#FFC2C4;}
	.st109{fill:#4A311A;}
	.st110{fill:#FFFFA4;}
	.st111{fill:#8192A4;}
	.st112{fill:#425059;}
	.st113{opacity:0.3;fill:#8192A4;enable-background:new    ;}
	.st114{opacity:0.4;fill:#8192A4;enable-background:new    ;}
	.st115{fill:#9BB3C9;}
	.st116{fill:#6F774B;}
	.st117{fill:#8D9968;}
	.st118{fill:#E94E1B;}
	.st119{fill:#F9B233;}
	.st120{fill:#FFF9AE;}
	.st121{fill:#F39200;}
	.st122{fill:#936037;}
	.st123{fill:#CA9E67;}
	.st124{fill:#7D4E24;}
	.st125{opacity:0.3;fill:#CA9E67;enable-background:new    ;}
	.st126{opacity:0.4;fill:#CA9E67;enable-background:new    ;}
	.st127{fill:#A3B9CC;}
	.st128{fill:#E30613;}
	.st129{fill:#566872;}
	.st130{fill:#B17F4A;}
	.st131{fill:#EDEDED;}
	.st132{fill:#00FFFF;}
	.st133{fill:#996483;}
	.st134{fill:#845A78;}
	.st135{fill:#FFED00;}
	.st136{fill:url(#SVGID_1_);}
</style>
<path class="st104" d="M344.8,298.25c0,0,18.8,14.3,24-2.3s-1.8-34.1-24-32.3"/>
<path class="st105" d="M370.4,156.95v295.7h-15.1v-250c0,0-48.6-41.4-20.4-85.3s75.2,27.7,46,37.1c-29.3,9.4-34.5-5.6-29.3-19
	s19.1,0.4,13.1,6.4"/>
<path class="st104" d="M350.9,270.35c0,0,10.1,2.1,10.1,9.4s-14.1,14.6-21.9-4.7"/>
<polyline class="st106" points="263.3,237.45 351.6,251.55 348.5,331.45 254.3,282.15 "/>
<path class="st104" d="M166.4,335.65c0,0-5.9,34,22.3,34c28.2,0-9.4-47-9.4-47"/>
<polyline class="st106" points="201.1,227.65 177.1,452.65 291,452.65 271,236.95 "/>
<path class="st107" d="M265.9,162.75c0,0,16.2,12.5,11,28.7c0,0-5.2-11-11-11c0,0,15.7,15.1,8.4,48.6c0,0-12.5-19.3-18.8,3.1
	c0,0-11.8-13.6-9.1-27.7c2.8-14.1,4.5-35,0-44.4"/>
<rect x="204.8" y="141.85" class="st104" width="57.1" height="109.7"/>
<path class="st107" d="M229.2,211.35c0,0-33.2,0.5-33.2,32.9s33.2,55.4,33.2,79.9c0,0,9.1-14.1,5.4-28.2c0,0,18.3,32.9,12,56.9
	c0,0,29.3-40.2,21.4-70.8c0,0,7.8,9.7,7.8,20.1C275.9,302.25,304.8,211.35,229.2,211.35z"/>
<polygon class="st108" points="237.6,189.25 271,216.05 237.6,211.75 "/>
<path class="st109" d="M221.4,182.85c5.3,0,9.6-4.3,9.6-9.6h-19.2C211.8,178.55,216.1,182.85,221.4,182.85z"/>
<path class="st107" d="M192.3,162.75c0,0-16.2,12.5-11,28.7c0,0,5.2-11,11-11c0,0-15.7,15.1-8.4,48.6c0,0,12.5-19.3,18.8,3.1
	c0,0,11.8-13.6,9.1-27.7c-2.8-14.1-4.5-35,0-44.4"/>
<path class="st109" d="M248.5,182.85c5.3,0,9.6-4.3,9.6-9.6h-19.2C238.9,178.55,243.2,182.85,248.5,182.85z"/>
<polygon class="st106" points="156.3,162.75 321.8,162.75 278.7,146.05 186.5,146.05 "/>
<path class="st106" d="M192.8,126.45l3.2-64l-26.1,6.3l-20-27.6l-18.8,17.2l20.4-38.7l29.9,24.5l57.3-7.8l34.6,88.3
	C273.3,124.65,256,147.65,192.8,126.45z"/>
<polygon class="st110" points="186.5,146.05 181.3,126.75 278.7,124.65 278.7,146.05 "/>
<polyline class="st106" points="202.2,222.35 156.3,327.25 192.3,357.05 "/>
<path class="st104" d="M375.5,270.35c-1.9-2.6-11.8-9.8-11.8,5.2s-3.8,33.4,3.5,33.4C374.4,309.05,386,284.35,375.5,270.35z"/>
</svg>
